<svg viewBox="0 0 24 24" xmlns="http://www.w3.org/2000/svg"><path d="m2.8 0c-0.4 0-0.8 0.4-0.8 0.8v22.4c0 0.4 0.4 0.8 0.8 0.8h18.4c0.4 0 0.8-0.4 0.8-0.8v-22.4c0-0.4-0.4-0.8-0.8-0.8zm0.7 0.9h17c0.3 0 0.5 0.3 0.5 0.6v21c0 0.3-0.2 0.6-0.5 0.6h-17c-0.3 0-0.5-0.3-0.5-0.6v-21c0-0.3 0.2-0.6 0.5-0.6zm0.6 0.7c-0.3 0-0.4 0.2-0.4 0.4v20c0 0.2 0.1 0.4 0.4 0.4h15.8c0.2 0 0.4-0.2 0.4-0.4v-20c0-0.2-0.2-0.4-0.4-0.4zm15.7 19.9c0 0.2-0.1 0.3-0.3 0.3h-14.9c-0.1 0-0.3-0.1-0.3-0.3v-19c0-0.2 0.2-0.3 0.3-0.3h14.9c0.2 0 0.3 0.1 0.3 0.3zm-6-18c-0.6 0-0.9 0.5-1.2 1.2l-2.4 6.9c-0.1 0.6-0.4 1-0.9 1v0.1h1.3c0.6 0 0.9-0.5 1.2-1.3l2.4-6.9q0.2-0.9 0.9-1zm-2.2 0c-0.7 0-1 0.5-1.3 1.2l-2.3 6.9c-0.2 0.7-0.5 1-0.9 1v0.1h1.2c0.7 0 1-0.5 1.3-1.2l2.3-7q0.3-0.9 0.9-1c-0.2 0-1.2 0-1.2 0zm-3.2 14c-0.1-0.2-0.2-0.5-0.2-0.6h-1.3c-0.1 0.1-0.2 0.4-0.2 0.6h-1.2c0.5-1.6 0.7-2.2 1.3-3.6h1.5c0.5 1.4 0.8 2 1.3 3.6zm-1.4-1.4h1c-0.1-0.5-0.4-1.3-0.4-1.6-0.1 0.3-0.4 1.1-0.6 1.6zm3.9 1.4c-0.7 0-1-0.3-1-1v-2.6h1.1v2.4c0 0.3 0.1 0.4 0.4 0.4h1.1l0.2 0.8zm6.3-3.6h1.1v3.6h-1.1zm-4 3.7v-3.7h1.5c1.1 0 1.9 0.5 1.9 1.9 0 1.3-0.6 1.8-1.9 1.8zm1.1-0.8h0.4c0.6 0 0.9-0.3 0.9-1 0-0.8-0.3-1.1-1-1.1h-0.3zm4-5.8c-0.3-0.6-0.6-0.7-1.1-0.7h-4.3l-0.4 1.2q-0.1 0.2-0.1 0.3h5.5c0.3 0 0.6 0 0.8 0.3 0 0-0.4-1-0.4-1.1zm-0.9-2.1c-0.3-0.6-0.6-0.6-1-0.6h-2.8l-0.5 1.4h3.9c0.4 0 0.7 0.1 0.9 0.3 0 0-0.5-1-0.5-1.1zm-0.9-2.1c-0.3-0.5-0.5-0.6-1-0.6h-1.2l-0.5 1.4h2.4c0.3 0 0.6 0.1 0.8 0.4 0-0.1-0.4-1.1-0.5-1.2zm-7-3.2c-0.7 0-1 0.5-1.3 1.2l-2.7 8h0.7c0.7 0 1-0.5 1.3-1.2l2.3-7q0.3-0.9 0.9-1z"/></svg>