<svg viewBox="0 0 24 24" xmlns="http://www.w3.org/2000/svg"><path d="m 4.8612402,5.91124 c -0.0456,0.005 -0.0911,0.0255 -0.1169,0.0648 -0.0384,0.0543 -0.0252,0.12426 -0.0273,0.1864 0,2.03188 1.5e-4,4.06363 0,6.09551 0.001,0.0611 -0.01,0.13047 0.0307,0.18242 0.031,0.043 0.086,0.0593 0.13711,0.0576 0.31528,-2.9e-4 0.63072,6e-4 0.94615,-2.8e-4 0.0655,0.002 0.13033,-0.0409 0.14893,-0.10451 0.0131,-0.049 0.006,-0.10036 0.008,-0.15025 -1.5e-4,-2.05653 0,-4.11292 0,-6.16945 0.006,-0.0818 -0.0599,-0.1575 -0.14216,-0.16222 z M 17.10723,7.41078 c -0.17373,-0.002 -0.34769,0.0122 -0.51891,0.04 -0.40413,0.0666 -0.80116,0.2459 -1.07599,0.55631 -0.18628,0.20782 -0.31383,0.46552 -0.37892,0.73607 -0.0214,0.0813 0.0282,0.17565 0.11352,0.19174 0.27454,0.0503 0.55026,0.0951 0.82525,0.14391 0.0438,0.008 0.0927,0.0139 0.13298,-0.0106 0.0477,-0.0274 0.0698,-0.0818 0.0843,-0.13226 0.0426,-0.15129 0.11396,-0.2995 0.23057,-0.40784 0.10642,-0.10037 0.24974,-0.1557 0.39469,-0.16663 0.15468,-0.0121 0.31939,0.008 0.45208,0.094 0.11513,0.0737 0.19263,0.19411 0.23573,0.32179 0.067,0.19468 0.0697,0.40355 0.0677,0.60724 -0.15144,-0.031 -0.30658,-0.0383 -0.46068,-0.0399 -0.24118,-0.002 -0.48293,0.0176 -0.71895,0.067 -0.38052,0.0794 -0.75293,0.24294 -1.03249,0.51837 -0.16147,0.15852 -0.28767,0.35292 -0.3656,0.56561 -0.0977,0.26524 -0.12266,0.55409 -0.092,0.83424 0.0307,0.27675 0.12828,0.54983 0.302,0.76946 0.20163,0.25992 0.50774,0.42937 0.83084,0.48221 0.33461,0.0558 0.6961,0.0193 0.99086,-0.1581 0.24561,-0.14524 0.4276,-0.38183 0.53505,-0.64368 0.0154,-1.4e-4 0.031,-1.4e-4 0.0468,0 0.0406,0.19011 0.0804,0.38038 0.12163,0.57035 0.0137,0.0735 0.0705,0.14581 0.15069,0.14685 0.26996,0.002 0.54008,0.001 0.81005,6e-4 0.0883,0.003 0.16059,-0.0802 0.15232,-0.1668 -2.9e-4,-1.01299 10e-4,-2.02599 -7.4e-4,-3.03897 -0.003,-0.30303 -0.045,-0.60958 -0.15807,-0.89239 C 18.69224,8.17442 18.55269,7.96732 18.36701,7.81057 18.15668,7.6305 17.89426,7.51935 17.62474,7.46371 17.45441,7.42951 17.28091,7.41241 17.10718,7.41081 Z M 2.1399202,7.41147 c -0.30524,-0.004 -0.61389,0.0311 -0.90319,0.13195 -0.23557,0.0818 -0.45667997,0.21002 -0.63600997,0.38419 -0.22421,0.21653 -0.37667,0.50113 -0.45209,0.80224 -0.0139,0.0539 -0.008,0.11733 0.0316,0.15939 0.027,0.031 0.0674,0.0449 0.10669,0.0517 0.27439,0.0469 0.54863,0.0949 0.82287997,0.14184 0.0474,0.009 0.1011,5.9e-4 0.13535,-0.0359 0.0496,-0.0512 0.0568,-0.12547 0.0815,-0.18938 0.0595,-0.17062 0.1678,-0.33282 0.33075,-0.41916 0.1665,-0.0883 0.36651,-0.0986 0.54806,-0.057 0.1572,0.0356 0.29299,0.14526 0.36399,0.28947 0.11129,0.21963 0.11542,0.47277 0.11321,0.7135 -0.14451,-0.0292 -0.29211,-0.0375 -0.43912,-0.0394 -0.46155,-0.006 -0.93519,0.0646 -1.34861997,0.27955 -0.25638,0.13285 -0.484,0.3265 -0.64031,0.57049 -0.17358,0.26672 -0.25313,0.58657 -0.25460999837158,0.90273 v 0.019 C 0.00100023,11.44568 0.08460023,11.78192 0.27883023,12.05144 c 0.16856,0.23823 0.42183,0.41225 0.70183,0.4921 0.24250997,0.0692 0.50170997,0.0805 0.74952997,0.0338 0.25137,-0.0478 0.48841,-0.1733 0.66332,-0.36091 0.12,-0.1259 0.21106,-0.27704 0.27836,-0.43675 h 0.0464 c 0.0421,0.19292 0.081,0.38657 0.12414,0.57934 0.0155,0.072 0.075,0.13933 0.15336,0.138 0.27085,0.001 0.54183,0.002 0.81268,-2.9e-4 0.0849,-4.4e-4 0.1513,-0.0812 0.14466,-0.16383 4.4e-4,-0.98952 2.9e-4,-1.97906 1.4e-4,-2.96858 7.4e-4,-0.28295 -0.0267,-0.56884 -0.11381,-0.83939 -0.0686,-0.2155 -0.17727,-0.42022 -0.32989,-0.58819 -0.15129,-0.16826 -0.34494,-0.2958 -0.55483,-0.3786 -0.25845,-0.10273 -0.53785,-0.14228 -0.81475,-0.14671 z m 6.72337,0.002 c -0.29174,-0.0146 -0.58728,0.0342 -0.85739,0.14304 -0.28723,0.11602 -0.54332,0.30378 -0.7479,0.53581 -0.26302,0.29727 -0.44222,0.66229 -0.54554,1.04413 -0.10672,0.39484 -0.13594,0.8087 -0.10347,1.21578 0.0276,0.33565 0.10258,0.66923 0.23896,0.97801 0.18111,0.41505 0.48386,0.78363 0.87987,1.00917 0.45638,0.26509 1.01209,0.32072 1.52442,0.21932 0.2955,-0.0593 0.57962,-0.18406 0.8145998,-0.37402 0.30642,-0.24502 0.52105,-0.5913 0.64282,-0.96163 0.0122,-0.0404 0.0109,-0.0885 -0.0168,-0.12249 -0.0261,-0.0328 -0.0677,-0.0465 -0.10701,-0.0549 -0.2924,-0.0648 -0.58465,-0.13048 -0.8768998,-0.19528 -0.0431,-0.01 -0.093,-0.008 -0.12765,0.0224 -0.0425,0.0367 -0.0499,0.0955 -0.0642,0.14659 -0.0455,0.17033 -0.13239,0.33667 -0.27586,0.44427 -0.17565,0.13137 -0.40975,0.16206 -0.622,0.12855 -0.19912,-0.032 -0.36915,-0.16797 -0.4676,-0.34081 -0.15277,-0.26391 -0.1988,-0.57284 -0.22331,-0.87217 0.91454,-4.5e-4 1.82907,0 2.7435998,-2.9e-4 0.0596,0.002 0.12237,-0.0301 0.14495,-0.0874 0.0251,-0.0695 0.009,-0.14539 0.0134,-0.21757 0.009,-0.52029 -0.0728,-1.0515 -0.30584,-1.52087 C 10.34245,8.18233 10.06023,7.85421 9.6978702,7.65066 9.4429602,7.50601 9.1550502,7.42803 8.8633202,7.41344 Z M 12.14203,7.51895 c -0.008,-5.7e-4 -0.0155,-5.4e-4 -0.0232,8e-5 -0.2859,4.5e-4 -0.57197,1.5e-4 -0.85788,1.5e-4 -0.0537,7.4e-4 -0.11041,-0.005 -0.16074,0.0177 -0.0627,0.0269 -0.10714,0.0918 -0.1067,0.16046 -0.003,0.0584 0.0292,0.10907 0.0529,0.16 0.33623,0.70081 0.67276,1.40132 1.00885,2.10214 -0.36502,0.75586 -0.73018,1.51188 -1.09491,2.2679 -0.039,0.0748 -0.0229,0.17607 0.0456,0.22832 0.0546,0.0464 0.13002,0.0441 0.19747,0.0428 0.28015,-4.4e-4 0.56032,4.5e-4 0.84047,-4.3e-4 0.0586,0.002 0.11143,-0.0393 0.13076,-0.0934 0.21609,-0.51158 0.43217,-1.02332 0.64856,-1.53491 0.0115,0 0.0348,1.5e-4 0.0463,1.5e-4 0.21491,0.49402 0.42907,0.98819 0.64354,1.48221 0.0181,0.0388 0.0297,0.0846 0.0655,0.11174 0.037,0.0301 0.0865,0.0354 0.13284,0.0348 0.30022,-7.3e-4 0.6006,4.6e-4 0.90097,-7.2e-4 0.0793,7.4e-4 0.15852,-0.0508 0.1811,-0.12843 0.0174,-0.0553 0.004,-0.11466 -0.0235,-0.16441 -0.36237,-0.74716 -0.7209,-1.49611 -1.08444,-2.24267 0.34479,-0.72724 0.69641,-1.45136 1.04327,-2.17756 0.0282,-0.0598 0.0248,-0.13507 -0.0152,-0.1888 -0.0359,-0.0508 -0.0987,-0.0773 -0.16,-0.0767 -0.30524,-1.4e-4 -0.61047,-1.5e-4 -0.91571,1.5e-4 -0.072,-0.003 -0.12592,0.0582 -0.14451,0.12281 -0.19543,0.46494 -0.39219,0.92945 -0.58761,1.3944 -0.0156,1.5e-4 -0.0311,4.2e-4 -0.0463,8.6e-4 -0.19764,-0.4766 -0.39395,-0.95349 -0.59144,-1.42994 -0.0196,-0.0521 -0.0719,-0.0847 -0.12601,-0.0887 z M 21.476,7.86884 c -0.0828,-0.004 -0.1566,0.0707 -0.15232,0.15337 -5.9e-4,0.49815 0,0.99631 -2.9e-4,1.49446 -0.49019,7.4e-4 -0.98053,-7.5e-4 -1.47071,7.2e-4 -0.0813,5.9e-4 -0.14833,0.0771 -0.14302,0.1572 5.9e-4,0.22687 -9e-4,0.45375 5.8e-4,0.68061 -6e-4,0.0818 0.0755,0.1504 0.15633,0.14553 0.48561,2.9e-4 0.97121,-1.6e-4 1.45682,2.9e-4 2.9e-4,0.49756 -1.5e-4,0.99514 1.4e-4,1.4927 -0.005,0.0794 0.0602,0.15423 0.14065,0.15438 0.25432,0.002 0.5088,9e-4 0.76327,6.1e-4 0.0821,0.002 0.15321,-0.0732 0.14878,-0.15499 4.4e-4,-0.49756 -1.5e-4,-0.99528 1.4e-4,-1.49285 0.49166,-0.001 0.98347,10e-4 1.47513,-0.001 0.0791,-4.5e-4 0.12856,-0.071 0.14849,-0.13994 V 9.65914 c -0.0207,-0.0683 -0.0698,-0.13978 -0.14835,-0.14126 -0.49166,-0.002 -0.98346,-3e-4 -1.47512,-10e-4 -4.4e-4,-0.49846 3e-4,-0.99677 -4.3e-4,-1.49522 0.004,-0.0804 -0.0666,-0.15454 -0.14746,-0.15247 C 21.97771,7.86819 21.72678,7.86875 21.476,7.8689 Z M 8.7620702,8.41214 c 0.13493,-0.001 0.27011,0.0398 0.37638,0.12402 0.12222,0.0958 0.20296,0.23395 0.25949,0.37624 0.0782,0.20059 0.1154,0.41445 0.13754,0.62788 -0.53122,-2.9e-4 -1.06256,0 -1.59378,-1.4e-4 0.0316,-0.25137 0.0891,-0.50466 0.21356,-0.72769 0.0843,-0.1507 0.20767,-0.28736 0.37047,-0.35364 0.0745,-0.0304 0.15538,-0.0461 0.23634,-0.0467 z m -6.38408,1.61526 c 0.10216,10e-4 0.20429,0.0116 0.30466,0.0299 0,0.33225 0.0121,0.67132 -0.0813,0.99397 -0.0605,0.21329 -0.17578,0.42982 -0.37918,0.53639 -0.21063,0.10671 -0.48696,0.098 -0.67692,-0.0486 -0.13756,-0.10627 -0.21076,-0.27676 -0.23068,-0.44606 -0.0294,-0.24635 0.0218,-0.51112 0.17888,-0.70817 0.14125,-0.18037 0.3578,-0.28813 0.57979,-0.33049 0.10045,-0.0196 0.20262,-0.0281 0.30478,-0.027 z m 14.9136898,8.6e-4 c 0.12669,-0.004 0.25422,0.006 0.37857,0.0289 -4.4e-4,0.29195 0.0105,0.58762 -0.0518,0.87485 -0.0396,0.18495 -0.10568,0.37061 -0.23158,0.51496 -0.19631,0.23307 -0.57004,0.2797 -0.82274,0.11468 -0.14878,-0.098 -0.23306,-0.26965 -0.25815,-0.44234 -0.0342,-0.23882 0.006,-0.49594 0.1467,-0.69624 0.11085,-0.16029 0.28117,-0.27263 0.46538,-0.33167 0.12103,-0.039 0.24692,-0.0587 0.37362,-0.0632 z m -0.4738,3.72117 c -0.14203,-0.006 -0.28452,-0.002 -0.426,0.0122 -0.46996,0.0461 -0.92974,0.20075 -1.32974,0.45212 -0.0956,0.0633 -0.19603,0.13194 -0.25152,0.23556 -0.0403,0.0734 -0.0248,0.17255 0.0379,0.22863 0.0484,0.0425 0.11527,0.0531 0.1777,0.0546 0.16045,0.002 0.31542,-0.0447 0.47247,-0.0704 0.3355,-0.0574 0.67678,-0.0881 1.01744,-0.075 0.15336,0.009 0.31009,0.0214 0.45474,0.0772 0.0658,0.0251 0.13358,0.0713 0.14628,0.14584 0.0285,0.14273 -0.009,0.28781 -0.0438,0.42597 -0.0995,0.34981 -0.25449,0.68162 -0.43087,0.99896 -0.0782,0.14421 -0.17741,0.27749 -0.2391,0.43041 -0.0263,0.0677 -0.0447,0.14746 -0.0105,0.2161 0.0267,0.0489 0.0689,0.0951 0.12578,0.10701 0.0685,0.0187 0.13873,-0.009 0.19984,-0.0381 0.13565,-0.0701 0.2493,-0.1742 0.36148,-0.27589 0.17771,-0.15779 0.33755,-0.33609 0.47276,-0.53151 0.29608,-0.42539 0.4648,-0.93447 0.50259,-1.45004 0.008,-0.16532 0.009,-0.3374 -0.0527,-0.49386 -0.0385,-0.10229 -0.13047,-0.17078 -0.22316,-0.2214 -0.16753,-0.0899 -0.35277,-0.14126 -0.53846,-0.17831 -0.13955,-0.0278 -0.28111,-0.0442 -0.42314,-0.0502 z M 1.7079002,14.02327 c -0.053,-0.003 -0.10598,0.0108 -0.14555,0.0487 -0.0756,0.0677 -0.0722,0.18228 -0.045,0.27202 0.052,0.16649 0.15617,0.30983 0.26082,0.44696 0.5845,0.7321 1.307,1.35025 2.10729,1.83527 1.29019,0.78244 2.76766,1.22597 4.26272,1.38774 0.39468,0.0431 0.79161,0.0633 1.18851,0.0748 h 0.23512 c 0.7983798,-0.0186 1.5969098,-0.0946 2.3786098,-0.26124 1.03335,-0.21845 2.04398,-0.5755 2.95468,-1.11543 0.26155,-0.15557 0.51424,-0.32666 0.7538,-0.5147 0.17742,-0.14096 0.35484,-0.28575 0.49919,-0.46183 0.0599,-0.0762 0.11822,-0.15985 0.13475,-0.25727 0.0247,-0.12827 -0.0863,-0.26584 -0.21889,-0.26023 -0.12871,0.005 -0.24368,0.0698 -0.35615,0.12575 -0.48561,0.25874 -0.99911,0.4626 -1.5228,0.63013 -0.66805,0.21284 -1.35428,0.36693 -2.04682,0.47483 -1.11735,0.17299 -2.2532698,0.22611 -3.3818298,0.15792 -1.15041,-0.0707 -2.29579,-0.26906 -3.39262,-0.62655 -1.14849,-0.37388 -2.24458,-0.92901 -3.19041,-1.68384 -0.12015,-0.0943 -0.23925,-0.19601 -0.38301,-0.2524 -0.0288,-0.0115 -0.0606,-0.019 -0.0924,-0.0206 z"/></svg>