<svg viewBox="0 0 24 24" xmlns="http://www.w3.org/2000/svg"><path d="M 12,0 A 12.006003,12.000033 0 0 0 3.312641e-7,12.000033 12.006003,12.000033 0 0 0 10.4002,23.895066 V 21.475559 A 1.5907954,1.5900044 0 0 0 9.3241622,19.963555 8.4042019,8.4000235 0 0 1 3.6018012,11.797533 8.3741869,8.3700234 0 0 1 12.087044,3.60001 a 8.4042019,8.4000235 0 0 1 8.306653,8.715024 l -0.003,0.069 -0.01801,0.288001 -0.0075,0.0915 a 7.5037517,7.500021 0 0 1 -0.04953,0.426001 l -0.01501,0.102001 c -1.028014,6.774019 -9.850925,10.581029 -9.898949,10.602029 A 12.003001,11.997033 0 0 0 24,12.000033 12.006003,12.000033 0 0 0 12,0.0015 Z"/></svg>