<svg viewBox="0 0 24 24" xmlns="http://www.w3.org/2000/svg"><path d="M 2.675452,0 A 2.6754907,2.6754907 0 0 0 0,2.6755276 V 21.324548 a 2.6754907,2.6754907 0 0 0 2.675452,2.675528 H 21.324548 A 2.6754907,2.6754907 0 0 0 24,21.324548 V 2.6755276 A 2.6754907,2.6754907 0 0 0 21.324548,0 Z m 8.481865,4.1473134 1.793121,0.00756 a 0.51826042,0.51826042 0 0 1 0.457927,0.280441 l 6.00926,11.6362196 c 0,0 0.253606,0.311433 -0.06009,0.63874 -0.313323,0.327307 -0.705336,0.07106 -0.705336,0.07106 l -3.110706,-1.649688 c 0,0 -1.53309,-0.784441 -4.300158,-0.434532 -1.8312185,0.231685 -3.1163712,1.158992 -3.7762011,1.759861 -0.3004725,0.273638 -0.6641764,0.820914 -0.8529638,1.181065 l -1.2792567,2.44029 a 0.77901022,0.77901022 0 0 1 -0.6924473,0.417259 l -1.3073385,-0.0038 A 0.56027225,0.56027225 0 0 1 2.8369512,19.674747 L 10.699465,4.424315 a 0.51226144,0.51226144 0 0 1 0.457738,-0.2774174 z m 0.855269,2.9722583 -2.9110679,5.6149413 1.1918359,-0.283842 a 10.120308,10.120308 0 0 1 3.175975,-0.241134 l 1.21697,0.100158 z m 6.131036,10.8854173 a 1.3472296,1.3472296 0 0 1 1.347288,1.347175 1.3472296,1.3472296 0 0 1 -1.347288,1.34725 1.3472296,1.3472296 0 0 1 -1.34725,-1.34725 1.3472296,1.3472296 0 0 1 1.34725,-1.347175 z"/></svg>