<svg viewBox="0 0 24 24" xmlns="http://www.w3.org/2000/svg"><path d="m 20.57,17.734991 h -1.815 l -3.34,-9.2029997 h 1.633 l 2.02,5.9869997 c 0.075,0.231 0.273,0.9 0.586,2.012 l 0.297,-0.997 0.33,-1.006 2.094,-6.0039997 H 24 Z m -5.344,-0.066 a 5.8,5.8 0 0 1 -1.55,0.207 c -1.23,0 -1.84,-0.693 -1.84,-2.087 V 9.6459913 h -1.063 v -1.114 h 1.121 v -1.451 l 1.476,-0.602 v 2.062 h 1.707 v 1.113 H 13.38 v 5.8049997 c 0,0.446 0.074,0.75 0.214,0.932 0.14,0.182 0.396,0.264 0.75,0.264 0.207,0 0.495,-0.041 0.883,-0.115 z m -7.29,-5.343 c 0.017,1.764 1.55,2.358 1.567,2.366 -0.017,0.042 -0.248,0.842 -0.808,1.658 -0.487,0.71 -0.99,1.418 -1.79,1.435 -0.783,0.016 -1.03,-0.462 -1.93,-0.462 -0.89,0 -1.17,0.445 -1.913,0.478 -0.758,0.025 -1.344,-0.775 -1.838,-1.484 -0.998,-1.451 -1.765,-4.098 -0.734,-5.88 C 1,9.5469913 1.916,8.9859913 2.906,8.9769913 c 0.75,-0.016 1.468,0.512 1.93,0.512 0.462,0 1.327,-0.627 2.234,-0.536 0.38,0.016 1.452,0.157 2.136,1.1539997 -0.058,0.033 -1.278,0.743 -1.27,2.219 M 6.468,7.9879913 c 0.404,-0.495 0.685,-1.18 0.61,-1.864 -0.585,0.025 -1.294,0.388 -1.723,0.883 -0.38,0.437 -0.71,1.138 -0.619,1.806 0.652,0.05 1.328,-0.338 1.732,-0.825"/></svg>