<svg viewBox="0 0 24 24" xmlns="http://www.w3.org/2000/svg"><path d="m 23.37285,6.51429 -2.63112,3.07133 c -0.22271,0.25971 -0.39293,0.55044 -0.51023,0.87227 -0.12754,0.35157 -0.18333,0.71405 -0.16714,1.08742 l -1.14854,-1.30581 -0.001,-10e-4 C 18.81338,10.12814 18.70105,10.03 18.57813,9.94408 18.37426,9.80365 18.15781,9.68566 17.92948,9.59017 c 0.076,-0.0271 0.15332,-0.0502 0.23163,-0.0694 0.13811,-0.0337 0.27791,-0.0512 0.41999,-0.0525 0.1586,0 0.31493,0.0251 0.46428,0.0846 0.14835,0.0601 0.29273,0.15428 0.43316,0.3066 l 0.077,0.0899 0.47711,-0.40315 -0.0856,-0.10009 -0.004,-0.004 c -0.1857,-0.20652 -0.40708,-0.36212 -0.66414,-0.46686 -0.22436,-0.0885 -0.457,-0.13188 -0.69822,-0.13023 -0.0539,0 -0.10673,0.002 -0.15927,0.006 -0.52174,0.0856 -0.84425,0.39418 -1.32667,0.4444 h -6.4e-4 l -1.6356,3.2e-4 c -0.036,0 -0.0413,0.0515 -0.006,0.0582 0.42923,0.0856 1.19314,0.24949 1.73008,0.43387 0.40807,0.189 0.79996,0.4302 1.10924,0.72196 0.0608,0.0482 0.11302,0.0968 0.15663,0.14475 l 1.52982,1.73931 c 0.21775,0.1791 0.49831,0.26966 1.09504,0.27396 -0.10243,-0.14902 -0.18502,-0.30833 -0.24813,-0.47751 -0.18768,-0.50587 -0.18934,-1.01274 -0.005,-1.51994 0.0915,-0.25079 0.22438,-0.4774 0.39819,-0.67996 v -7.1e-4 l 1.77267,-2.06843 c 0.33669,-0.46193 0.53363,-0.65292 0.3823,-1.40695 z m -0.0119,2.07477 -1.50279,1.74724 c -0.1358,0.15761 -0.23956,0.33404 -0.31093,0.52933 -0.10738,0.29407 -0.13184,0.59477 -0.074,0.9024 0.0578,0.30762 0.19037,0.57892 0.39721,0.81386 l 0.60865,0.69189 -0.004,-0.008 c 0.0248,0.0288 0.0479,0.0562 0.0704,0.0836 l 0.34366,0.39056 c 0.22171,0.2042 0.49164,0.30927 1.11085,0.3172 l -1.65869,-1.88568 c -0.18107,-0.20552 -0.27162,-0.44545 -0.27196,-0.71938 -3.3e-4,-0.26962 0.0876,-0.50653 0.26402,-0.71041 l 0.59541,-0.69188 c 0.36313,-0.50853 0.58551,-0.6823 0.43187,-1.46045 z M 10.28838,9.25681 v 8.13668 H 10.9995 V 9.97845 c 0,-0.39882 -0.31859,-0.72164 -0.71112,-0.72164 z m 4.49807,2.72767 c -0.36544,0 -0.7157,0.072 -1.05109,0.21671 -0.49464,0.21445 -0.89015,0.54654 -1.1872,0.99624 -0.30829,0.46623 -0.46191,0.97876 -0.46091,1.5375 0,0.75766 0.302,1.44759 0.79004,1.94389 0.24749,0.25277 0.5336,0.44936 0.85807,0.5898 0.33539,0.14472 0.68598,0.21671 1.05109,0.21671 0.36546,0 0.71604,-0.072 1.05143,-0.21671 0.49464,-0.21446 0.89015,-0.54654 1.18719,-0.99625 0.3083,-0.46622 0.46191,-0.97869 0.46092,-1.53744 0,-0.75766 -0.30235,-1.44758 -0.79004,-1.94388 -0.24749,-0.25277 -0.5336,-0.44943 -0.85807,-0.58986 -0.33572,-0.14472 -0.68597,-0.21704 -1.05143,-0.21671 z M 2.69954,11.9848 C 1.21165,11.9848 0,13.21862 0,14.73525 c 0,1.51665 1.21099,2.75046 2.69954,2.75046 0.23923,0 0.47122,-0.0324 0.69227,-0.0922 0.57065,-0.16851 1.04712,-0.55607 1.25032,-1.02032 v 1.02064 H 5.34396 V 12.1903 H 4.64213 v 0.8957 c 1.2e-4,2.5e-4 2.2e-4,5.2e-4 3.3e-4,7.7e-4 H 4.64213 V 13.086 C 4.47481,12.70369 4.12143,12.37425 3.68359,12.17514 3.3677,12.04826 3.03988,11.98482 2.69954,11.98482 Z m 6.00945,0 c -0.28218,3.4e-4 -0.55843,0.0208 -0.82277,0.0812 -0.1999,0.0436 -0.38922,0.11532 -0.56798,0.21478 -0.13712,0.0773 -0.26036,0.17281 -0.3694,0.28648 -0.17579,0.18702 -0.30304,0.40245 -0.38135,0.64697 -0.0852,0.25542 -0.12687,0.54685 -0.12687,0.87827 v 3.30094 H 7.15167 V 14.0925 c 0,-0.32085 0.0483,-0.55905 0.12198,-0.73384 0.0552,-0.13118 0.12352,-0.22903 0.2058,-0.30965 0.0638,-0.0618 0.13485,-0.113 0.21349,-0.1543 0.1401,-0.071 0.28749,-0.11893 0.44245,-0.14404 0.17149,-0.0311 0.36544,-0.0446 0.57328,-0.0446 0.15529,0.002 0.30889,0.0165 0.46187,0.0429 0.0631,0.01 0.12596,0.0218 0.18775,0.0344 v -0.73391 l -0.0754,-0.0136 -3.2e-4,3.9e-4 c -0.18769,-0.0304 -0.38229,-0.0516 -0.5736,-0.0516 z m -6.00945,0.72132 c 1.09635,0 1.98854,0.91 1.98854,2.02881 0,1.11882 -0.89252,2.02875 -1.98854,2.02875 -1.09635,0 -1.98848,-0.90993 -1.98848,-2.02875 0,-1.11881 0.89213,-2.02881 1.98848,-2.02881 z m 12.08691,0 c 0.27525,0 0.53596,0.0565 0.77353,0.15895 0.36446,0.15827 0.65623,0.40345 0.87531,0.7352 0.21477,0.32414 0.33932,0.71304 0.33932,1.13498 0.002,0.55809 -0.19265,1.03621 -0.58289,1.43502 -0.18206,0.18603 -0.39284,0.33111 -0.63174,0.43453 -0.24682,0.10639 -0.50456,0.15955 -0.77353,0.15888 -0.26863,0 -0.52637,-0.0528 -0.77319,-0.15888 -0.36446,-0.15827 -0.65623,-0.40345 -0.87531,-0.73519 -0.22766,-0.34398 -0.34097,-0.72198 -0.33965,-1.13468 0,-0.56204 0.22239,-1.06699 0.58289,-1.43507 0.18239,-0.18637 0.39284,-0.33104 0.63207,-0.43479 0.24682,-0.10639 0.50456,-0.15928 0.77319,-0.15895 z"/></svg>