<svg viewBox="0 0 24 24" xmlns="http://www.w3.org/2000/svg"><path d="M 0,0 V 24 H 24 V 0 Z m 18.29146,11.8885 c 2.24572,0 3.48168,1.32864 3.39425,3.7115 -0.0428,1.08 -0.40707,1.94825 -0.91707,2.4514 h 1.03711 v 1.37142 h -3.51429 c -2.07429,0 -3.28292,-1.39714 -3.28292,-3.77142 0,-2.25429 1.20006,-3.7629 3.28292,-3.7629 z M 2.52857,11.99196 h 3.47997 c 1.53171,0 2.28392,0.76279 2.29721,1.81708 0.009,0.81428 -0.2255,1.33981 -1.05435,1.77438 0.792,0.24858 1.23431,0.84 1.23431,1.75715 0,1.37657 -1.13136,2.08275 -2.41707,2.08275 H 2.52857 Z m 9.31457,0.86736 c 1.25228,0 1.93711,0.77842 1.93711,1.55156 0,0.69429 -0.42505,1.24629 -1.05419,1.67143 0.21514,0.228 0.41735,0.45335 0.60335,0.6745 0.13028,-0.12 0.26058,-0.24 0.39258,-0.35742 l 0.90853,1.05435 a 12.428571,12.428571 0 0 1 -0.4346,0.46105 c 0.35486,0.56571 0.58115,1.07393 0.64638,1.51707 l -0.006,-0.0117 v -1.7e-4 h -1.70574 c -0.0249,-0.13286 -0.0925,-0.2958 -0.19018,-0.47494 -0.60857,0.38657 -1.13661,0.5376 -1.62004,0.55714 -1.20857,0.0514 -2.19781,-0.63415 -2.11724,-1.91987 0.0429,-0.72 0.58286,-1.30638 1.2,-1.73152 -0.31629,-0.37715 -0.61707,-0.86747 -0.61707,-1.3629 0,-0.87257 0.74571,-1.62857 2.05714,-1.62857 z m -6.92311,0.82115 v 0.002 1.18275 h 0.30771 c 0.42685,0 0.65491,-0.22284 0.65491,-0.6077 0,-0.38571 -0.22806,-0.57773 -0.65491,-0.57773 z m 13.37311,0.1058 c -0.57515,0 -0.84174,0.59993 -0.84174,1.85993 0,1.25657 0.26659,1.85994 0.84174,1.85994 0.57428,0 0.84257,-0.60422 0.84257,-1.85994 0,-1.25571 -0.26743,-1.85993 -0.84257,-1.85993 z m -6.46792,0.26284 c -0.24257,0 -0.4048,0.22536 -0.40463,0.43108 0,0.19457 0.12772,0.39003 0.34286,0.62746 0.354,-0.23915 0.45,-0.45863 0.45,-0.61206 0,-0.22285 -0.15765,-0.44648 -0.38823,-0.44648 z m -6.90519,2.36568 v 1.32857 h 0.40798 v -0.004 c 0.432,0 0.69258,-0.24584 0.69258,-0.67784 0,-0.432 -0.26058,-0.64637 -0.69258,-0.64637 z m 6.43109,0.46289 c -0.558,0.37457 -0.41062,0.87425 -0.21262,1.03711 h -0.002 c 0.26485,0.21857 0.60171,0.12428 0.98571,-0.12857 -0.24857,-0.31286 -0.50571,-0.61454 -0.77143,-0.90854 z"/></svg>