<svg viewBox="0 0 300 315" xmlns="http://www.w3.org/2000/svg"><path d="M153.5 1.7c-54.4 3.05-59.05 4.35-76 21.6-25.05 25.5-39.2 67.2-41.8 122.95-.45 9.75-2.1 10.5-24.45 10.65L1 157V298.85l3.25.35 3.25.3.3 6.6.3 6.6 8.7.65c22.8 1.6 107 0 141.25-2.65 18.4-1.45 40.25-3.1 48.5-3.65 91.8-6.25 85.1-5.55 85.8-9.15.4-1.95 1.35-3.05 3.05-3.45 3.6-.9 3.55-.1 3.6-69.7V160h-3c-4.4 0-5.75-2.95-6.95-15.5-8-82.95-28.6-126.35-66.8-140.85-5.5-2.05-46-3.2-68.75-1.95zm61.75 4.75c36.2 7.7 59.2 48.9 68.4 122.45l2.65 21.45-2.7 2.3c-3.3 2.85-5 2.95-7.6.35-1.4-1.4-2-1.6-2-.6 0 2.25-2.85 2.7-4 .65-.55-1.05-1-7.7-1-14.75-.05-82.3-44.2-143.7-87.85-122.2-22.65 11.15-35.7 42.25-39.65 94.5-.8 10.95-1.55 20.1-1.6 20.4-.5 2.45-1.7-6.25-1.8-12.8-.1-7.95-1.95-15.2-3.9-15.2-1.75 0-2.8 27.8-1.55 42.35l.65 7.6 3.45-3.05c1.9-1.65 4.1-2.8 4.85-2.5 3.15 1.2 2.2-1.6-1.3-3.65l-3.8-2.25 3.25-.3c3.6-.35 4.1-1.65 1.6-4.35-1.55-1.7-1.55-1.85 0-1.85 1.35 0 1.65-1.05 1.65-5.35 0-5.8.65-7.2 2.55-5.6 2 1.65 2.9-.9 1.05-2.95-2.65-2.9-2.05-3.1 9.45-3.1 7.15 0 10.85-.35 10.45-1-.35-.55-2.8-1-5.4-1-9.2 0-14.1-1.1-14.1-3.15 0-1.85 1.5-2.6 2.15-1.05.5 1.05 10.85.2 10.85-.9 0-.5-1-.9-2.25-.9-3.55-.05-6.8-1.15-6.2-2.1.3-.5 5.25-.9 11-.9 12.55 0 13.8-1.45 2.05-2.35-13.15-1-16.8-4.15-4.85-4.15 9.85 0 8.8-1.6-1.75-2.75-1.8-.2-2.6-.95-2.85-2.75-.3-2.45-.25-2.45 1.25-.5 1.55 2 1.55 2 1.55-.15.05-1.15-.65-2.4-1.5-2.75-3.9-1.5.45-2.6 10.15-2.6 6.75 0 10.3-.35 9.9-1-.35-.55-3.95-1-8-1-7.6 0-12.5-1.15-12.5-3 0-.55 2.25-1 5-1s5-.4 5-.85c0-.5-2.25-1.2-5-1.55-9.4-1.25-5.3-2.6 7.95-2.6 16.45 0 17.75-1.55 2.05-2.5-6.6-.4-12.3-1.15-12.65-1.7-1.1-1.85 2.1-2.9 7.15-2.35 6.8.7 9.55-1.05 2.9-1.9-10.35-1.3-14.6-4.55-5.9-4.55 2.8 0 4.4-.4 4-1-.35-.55-1.85-1-3.35-1-5.4 0-6.55-1.9-4.2-7 1.1-2.5 2-5.55 2.05-6.85 0-1.7.45-2.2 1.5-1.8 1 .4 1.5 0 1.5-1.15 0-4.85 11.4-15.2 16.7-15.2 1.6 0 2.65-.8 3.3-2.5.9-2.35 1.4-2.5 8-2.5 5.35 0 7.2-.35 7.65-1.5.8-2.1 4.1-1.85 5.3.4.75 1.4 2.6 2.1 7.05 2.6 5.5.65 6 .9 6 3.1 0 1.45.6 2.4 1.5 2.4.85 0 1.5.45 1.5 1s.65 1 1.45 1c.75 0 3.15 1.65 5.25 3.6l3.8 3.65-2.35.9c-3 1.1-1.35 3.55 2.65 4.05 3.75.4 3.35 2.25-.55 2.6-5.3.5-3.4 3.2 2.25 3.2 3.2 0 5.6 1 4.95 2.1-.3.5-2.1.9-4 .9s-3.45.4-3.45.9c0 1.05 3.5 2.05 7.35 2.1 5.3 0 2.3 2.5-3.45 2.8-10.9.55-7.25 2.9 4.85 3.15 4.6.05 4.75.2 3.2 3.1-.9 1.7-.7 1.95 1.45 1.95 3.1 0 4.05 1.4 2.1 3-2.15 1.75-1.85 4 .5 4 1.25 0 2 .65 2 1.8 0 1 .5 2.3 1.15 2.95.85.85.7 1.55-.5 2.75-2.15 2.15-2.1 3.15.35 3.8 1.7.45 2 1.35 2 5.95 0 5.75 1.6 11.75 3.1 11.75.5 0 .9.45.9 1s-.9 1-2 1-2 .65-2 1.5.9 1.5 2 1.5 2 .65 2 1.5-.9 1.5-2.1 1.5c-1.2 0-1.9.5-1.65 1.25.25.7 1.3 1.25 2.35 1.25 2.85 0 2.55 3.9-.35 4.3-2.8.4-3 2.2-.25 2.2 2.65 0 2.55 1.45-.25 2.7l-2.2 1 2.2 1.2c2.95 1.55 2.9 4.1 0 4.1-3.25.05-.1 1.95 3.25 2 3.5.1-.2 3-3.75 3-3.9 0-2.05 2.45 2.1 2.8 4.25.35 4.4.75 1.4 3.25l-2.25 1.9h2.25c1.3.05 2.25.65 2.25 1.55s-.95 1.5-2.25 1.55c-2.2 0-2.2.05-.3 1.5 1.05.8 2.95 1.45 4.25 1.45 1.25 0 2.3.4 2.3.9 0 1.2-4.95 2.05-8.25 1.4-1.55-.3-2.75-.1-2.75.45s2.5 1.35 5.5 1.7c10.9 1.35 5.3 3.8-6.7 2.85-7.55-.6-7.8-.7-7.85-3.2l-.1-2.6-1.05 2.5c-.95 2.1-1.15 2.25-1.55.7-.5-2.1-4.5-3.9-6.75-3.05-1.9.7-1.95 2.35-.1 2.35.8 0 1.7.55 2 1.25.5 1 .7 1 1.2 0 .3-.7 1-1 1.5-.7 2.35 1.45-.85 2.45-7.9 2.45-9.7-.05-10.45-.5-9.15-5.3 1.25-4.5.85-15.2-.55-15.2-.55 0-1.25 3.55-1.55 7.9-.85 11.65-1.6 12.1-20.45 11.65-10.85-.25-11.1-.45-8.5-6.25 1.1-2.55 2.7-8.15 3.6-12.45 2.8-13.55 6.25-20.55 9.9-19.9 3.9.7 10.5 7.65 10.5 11 0 1.4.45 2.55 1 2.55 3.5 0-2.55-20.75-7.5-25.7-4.5-4.5-9.95-4.6-14.8-.35-7.7 6.75-12.3 24.9-7.8 30.65 3.45 4.4 2.15 16.2-2.05 18.45-1.3.7-7.8 1.05-17.7.9-8.6-.15-21.7-.05-29.15.25-7.4.25-12.55.3-11.45.1 2-.35 2.1-1.4 3.2-24.6.65-13.3 1.5-25.3 1.85-26.6l.7-2.45-24.3.7c-13.4.35-32.15.65-41.7.65H46.95l-2.4 5.25c-3.05 6.7-3.2 4.2-.55-9.55 7.55-39.15 28.1-70.9 54.7-84.45l9.8-5L142 9.5c24.95-.5 36.2-1.15 44-2.5 13.05-2.25 20.6-2.35 29.25-.55zM63.6 123.4c-.35 6.65-.9 13.8-1.25 15.85L61.8 143H89V154.85l5.4-.55c2.95-.3 8.75-.25 12.9.15l7.5.7-.85 3.05c-.5 1.7-.65 3.5-.35 3.95.3.5.55 31.35.55 68.6l.05 67.75-2.35 1.3c-2.45 1.3-6.5 1.1-10.95-.65l-2.6-1 .45-65.8c.5-73.8.05-79.2-6-67.3-2.35 4.7-2.65 4.75-33.75 4.8-27.55 0-33.05-.95-16-2.95 7.95-.9 14.7-2.85 17.95-5.15 1.4-.95 3.15-1.75 3.95-1.75.8 0 2.2-.65 3.05-1.45.9-.85 3.45-1.9 5.6-2.4 2.9-.7-1.55-1-16.4-1.05L36.8 155l.75-3.75c.4-2.05 1.05-6.9 1.45-10.75.4-3.85.8-5.65.9-4 .7 9.5 4.35 2.4 4.5-8.75.05-2.05.6-3.95 1.3-4.2.7-.25 1.05-1.1.75-1.8-.8-2.1 3.6-7.75 8.85-11.35l4.8-3.3 2.1 2.1c1.95 1.95 2.05 2.75 1.4 14.2zm25.7-10.9c.4 1.8.5 1.8.6-.25.05-1.25.6-2.25 1.2-2.25s.85 1.1.55 2.75c-.3 1.5-1.05 7.7-1.7 13.75-1.85 17.45-3.9 16.65-3.9-1.5 0-14.6 1.4-20.1 3.25-12.5zm10.2 5c.8 4.95.8 4.95 1.55 1.7 1.5-6.9 2-4.1 1.75 10.35-.35 17.45-1.95 20.05-3 4.75-.9-14-2.65-16.8-2.95-4.8-.1 4.95-.15 10-.1 11.25.2 3.3-1.4 2.75-2.65-.9-1.3-3.75-1.45-12.5-.25-13.25.5-.3 1.2-3.75 1.6-7.7 1.2-12 2.3-12.4 4.05-1.4zm10.95 9.75c1.15 10.95 2.8 8.2 2.1-3.5-.5-7.5-.35-9.8.4-8.55 1.2 1.9 3.5 28.65 2.55 29.6-.3.35-.85-.45-1.2-1.7l-.6-2.35L112 143c-1.75 2.35-4 2.05-4-.55 0-.8-.6-1.15-1.5-.8-2.35.9-2.15-21.45.25-26.5l1.7-3.65.65 4.5c.35 2.45.95 7.55 1.35 11.25zM126 161.1c0 .7.95.9 2.45.5 1.35-.35 3.65-.05 5.15.65 2.2.95 2.85.95 3.15 0 .8-2.45 48.95-1.7 54.7.85 4.55 2 5.15 2 20.85.75 30.05-2.45 54.7-1.75 54.7 1.5 0 .8 1.15 1.7 2.55 2.05 1.75.45 2.7 1.55 3.1 3.65.5 2.35 1.15 2.95 3.25 3 1.4.05 5.3.65 8.6 1.35l6 1.25v5.45c-.1 22.9-2.9 105.75-3.65 107.15-.85 1.55-2.8 1.75-19.15 1.75-10 0-36.4.45-58.7.95-22.25.55-50.85 1.15-63.5 1.4l-23 .35v-66.85c0-63 .1-66.85 1.75-66.85.95 0 1.75.5 1.75 1.1zm-38.65 29.15c-.25 9.5-.85 30.35-1.4 46.35-.5 16.05-.95 34.75-.95 41.6 0 15-.85 16.05-10.3 13.35-4.35-1.25-8.8-1.35-26.7-.65-30.75 1.25-28 5.9-28.55-47.85-.2-22.3-.65-44.9-.95-50.2-.3-5.35-.1-10.8.45-12.25.8-2.05.65-2.75-.75-3.5-1.95-1.1-.9-2.6 2.3-3.4 1.1-.25 16.7-.5 34.65-.6l32.65-.1-.45 17.25zM7 217.85C7 269 6.2 292.6 4.6 291c-1.25-1.25-1.4-93.55-.15-108.25 1.65-19.6 2.55-7.1 2.55 35.1zm278 80.1c0 2.05-8.85 2.55-44 2.5-42.9-.1-64.25-1.6-35.5-2.5 31.6-1 79.5-1 79.5 0zm-115.5 1.95c1.55.6.85.95-3 1.55-2.75.4-5.85 1.2-6.85 1.75-1.4.75-2.3.6-3.45-.55-2.8-2.8 7.65-4.95 13.3-2.75zm-19 1.2c-4.85 1.45-17.15 2.35-16 1.1 1.35-1.4 4.7-1.9 12.5-2 5.4 0 6 .15 3.5.9zm-54.1.7c19.7 3.5-22.35 7.45-59.4 5.55-19.1-.95-21.9-1.6-20.65-4.8.65-1.65 71.15-2.3 80.05-.75zm35.6.05c0 1.6-11.95 3.45-13.55 2.1-2.75-2.3-1.4-2.95 6.05-2.95 4.15 0 7.5.4 7.5.85z M115.75 16.4c-17.1 6.15-39.7 38.3-45.35 64.55-3.3 15.25 2.3 12.2 10.85-5.95C86.6 63.55 91.7 55 93.1 55c.55 0 .05 1.8-1.1 3.95-3.1 6.15-2.6 8.3 1.05 4.3 1.6-1.8 2.95-2.85 2.95-2.3 0 .55 1.45.15 3.25-.9 1.8-1 4.4-2.15 5.75-2.55 1.4-.4 3.25-1.4 4.2-2.2 2.3-2.05 3.95-.75 3.15 2.4-.35 1.4-.25 2.35.25 2.15 8.85-4.3 14.45-4.65 18-1.1 1.7 1.7 1.6 13.5-.1 17.75-2.55 6.35 2.4-2.05 9.45-16 4.4-8.8 11-20 14.6-24.85 7.5-10.1 7.5-10.15-1.4-14.95-9.85-5.4-28.4-7.5-37.4-4.3zm23.6 10.15c6.65.95 4.5 2.7-3.65 3-8.95.25-15.55 2.75-25.85 9.7-8.55 5.8-11.85 7-8.4 3.1.9-1.05 2.8-3.35 4.25-5.2 1.45-1.8 3.55-3.75 4.7-4.3 1.15-.55 3.7-1.85 5.6-2.9 1.95-1.1 5.35-1.95 7.65-1.95 2.5 0 4.6-.6 5.4-1.55.75-.9 2.2-1.35 3.4-1.1 1.1.3 4.2.8 6.9 1.2zm-1.5 7.45c-.55 1.6-15.3 12-15.65 11-.6-1.65 3-5.95 7.55-8.95 4.45-2.95 8.75-4.05 8.1-2.05zm-12.25 3.45c-.9 1.4-2.85 2.8-4.35 3.1-1.5.3-3.55 1-4.5 1.5-5.9 3.2-1.6-1.55 4.65-5.1 5.65-3.25 6.6-3.1 4.2.5zM186 30.95c0 1.2 10.45 2.5 12.75 1.55 1.6-.65 1.6-.8-.25-1.55-2.8-1.15-12.5-1.15-12.5 0zM174 35.85c0 1.2 13.1 2.4 16.6 1.55 2.55-.65 2.6-.8.85-1.5-2.7-1.05-17.45-1.1-17.45-.05zM170.75 46.7c-3.6.9-.45 2.3 5.25 2.3 6.4 0 9.3-.7 8.45-2.1-.55-.9-10.45-1.05-13.7-.2zM176.5 54c.35.55 4.85 1 10.1 1 6.1 0 9.3-.35 8.9-1-.35-.55-4.85-1-10.1-1-6.1 0-9.3.35-8.9 1zM160 59c0 .6 4 1 10.05 1 6.45 0 9.85-.35 9.45-1-.35-.55-4.85-1-10.05-1-5.65 0-9.45.4-9.45 1zM170 64.9c0 1.1 10.05 2.4 12.3 1.55.9-.35 1.45-1.05 1.15-1.55-.75-1.15-13.45-1.2-13.45 0zM180.15 70.9c-1 .6-.75 1 1 1.45 3.55.95 14.85.75 14.85-.2 0-1.8-13.3-2.85-15.85-1.25zM228.5 75c2.85 1.2 14.5 1.2 14.5 0 0-.6-3.35-.95-8.25-.95-5.55.05-7.6.35-6.25.95zM160.55 93.95c1.35 1.35 12.8 1.85 13.45.55.3-.6-2.4-1.1-7-1.3-5.2-.2-7.2 0-6.45.75zM227.6 96.85c-.75 1.2 2.75 2.1 8.25 2.15 3 0 4.2-.4 3.9-1.25-.5-1.5-11.3-2.3-12.15-.9zM154 122.95c0 1.3 6.4 2.4 9.55 1.65 1.4-.35 2.25-1.1 1.95-1.65-.8-1.25-11.5-1.25-11.5 0zM154.75 133.65c-1 .3-1.5.9-1.2 1.45.75 1.25 13.45 1.15 13.45-.1 0-.55-1.05-1-2.35-1-1.35 0-3.7-.2-5.25-.4-1.6-.25-3.7-.2-4.65.05zM53 148.9c0 3.35 10.75 3.7 23 .65 5.45-1.3 5.35-1.35-8.75-1.45-7.85-.05-14.25.3-14.25.8z"/></svg>