<svg viewBox="0 0 24 24" xmlns="http://www.w3.org/2000/svg"><path d="m20.5 3.5c-2.3-2.3-5.3-3.5-8.5-3.5-3.2 0-6.3 1.2-8.5 3.5-2.3 2.2-3.5 5.3-3.5 8.5 0 3.2 1.2 6.2 3.5 8.5q0.8 0.8 1.8 1.5 1 0.6 2.1 1.1 1.1 0.4 2.3 0.7 1.1 0.2 2.3 0.2c2.4 0 4.7-0.7 6.7-2 1.9-1.3 3.5-3.2 4.4-5.4 0.9-2.2 1.1-4.6 0.7-6.9-0.5-2.4-1.6-4.5-3.3-6.2zm-8.5 19.9c-4.6 0-8.8-2.7-10.6-7-1.7-4.3-0.8-9.2 2.5-12.5 3.3-3.3 8.2-4.2 12.5-2.5 4.3 1.8 7 6 7 10.6 0 1.5-0.3 3-0.8 4.4-0.6 1.4-1.5 2.6-2.5 3.7-1.1 1-2.3 1.9-3.7 2.5-1.4 0.5-2.9 0.8-4.4 0.8zm9.5-15.8q0-0.5-0.3-0.9-0.2-0.4-0.5-0.7-0.4-0.3-0.8-0.5-0.4-0.2-0.9-0.2-1.7-0.2-3.5-0.2-1.7-0.1-3.5-0.1-1.8 0-3.5 0.1-1.8 0-3.6 0.2-0.4 0-0.8 0.2-0.5 0.2-0.8 0.5-0.3 0.3-0.6 0.7-0.2 0.4-0.3 0.9-0.1 1.1-0.1 2.1-0.1 1.1-0.1 2.1 0 1.1 0.1 2.1 0 1.1 0.1 2.2 0.1 0.4 0.3 0.8 0.3 0.4 0.6 0.7 0.3 0.4 0.8 0.6 0.4 0.1 0.8 0.2 1.8 0.1 3.6 0.2 1.7 0 3.5 0 1.8 0 3.5 0 1.8-0.1 3.5-0.2 0.5-0.1 0.9-0.2 0.4-0.2 0.8-0.6 0.3-0.3 0.5-0.7 0.3-0.4 0.3-0.8 0.2-1.1 0.2-2.2 0.1-1 0.1-2.1 0-1-0.1-2.1 0-1-0.2-2.1zm-4.7 9.1q0 0.1 0 0.2-0.1 0.1-0.1 0.2-0.1 0-0.2 0.1-0.1 0-0.2 0h-8.6q-0.1 0-0.2 0-0.1-0.1-0.2-0.1 0-0.1-0.1-0.2 0-0.1 0-0.2 0-0.1 0-0.2 0.1 0 0.1-0.1 0.1-0.1 0.2-0.1 0.1 0 0.2 0h8.6q0.1 0 0.2 0 0.1 0 0.2 0.1 0 0.1 0.1 0.1 0 0.1 0 0.2zm1.8-1.4h-13.2q-0.2 0-0.3-0.1-0.2-0.2-0.2-0.3 0-0.2 0.2-0.4 0.1-0.1 0.3-0.1h13.2q0.2 0 0.3 0.1 0.2 0.2 0.2 0.4 0 0.1-0.2 0.3-0.1 0.1-0.3 0.1z"/></svg>