<svg viewBox="0 0 24 24" xmlns="http://www.w3.org/2000/svg"><path d="m 3.1331003,9.118073 v 5.763854 h 2.88761 V 9.118073 Z m -1.87177,0.833868 v 4.096118 h 1.40339 V 9.951941 Z m 7.38472,0.507549 c -0.23885,0 -0.44469,0.03711 -0.61765,0.111238 -0.17296,0.07138 -0.30751,0.174297 -0.4036,0.308821 -0.0933,0.134524 -0.13998,0.295136 -0.13998,0.481822 0,0.131779 0.0219,0.24575 0.0658,0.341838 0.0439,0.09334 0.10852,0.174256 0.19363,0.242891 0.0851,0.06589 0.18934,0.123585 0.31288,0.173002 0.12354,0.04942 0.26631,0.09332 0.42829,0.131756 0.0988,0.02471 0.18806,0.05219 0.26768,0.08239 0.0796,0.02745 0.14278,0.06588 0.18946,0.1153 0.0494,0.04667 0.0742,0.11258 0.0742,0.197687 0,0.112561 -0.0495,0.200369 -0.14831,0.263513 -0.0961,0.06314 -0.23744,0.09478 -0.42412,0.09478 -0.32945,0 -0.64104,-0.08923 -0.9348,-0.26768 v 0.568272 c 0.14551,0.07687 0.29649,0.133146 0.45297,0.168836 0.15924,0.03569 0.31985,0.05354 0.48183,0.05354 0.25532,0 0.47363,-0.03569 0.65482,-0.107072 0.1812,-0.07413 0.31981,-0.179884 0.41589,-0.317153 0.0961,-0.140015 0.14416,-0.307419 0.14416,-0.502342 0,-0.148251 -0.0262,-0.273171 -0.0783,-0.374751 -0.0494,-0.101579 -0.1208,-0.185333 -0.21414,-0.251222 -0.0906,-0.06589 -0.19625,-0.119427 -0.31705,-0.160608 -0.1208,-0.04393 -0.25119,-0.08367 -0.39121,-0.119362 -0.10982,-0.02745 -0.20594,-0.05493 -0.2883,-0.08239 -0.0796,-0.0302 -0.14137,-0.06731 -0.18529,-0.111238 -0.0439,-0.04667 -0.0659,-0.108421 -0.0659,-0.185292 0,-0.10707 0.0453,-0.189403 0.13592,-0.247057 0.0933,-0.05765 0.22374,-0.08655 0.39121,-0.08655 0.15374,0 0.30614,0.02069 0.45713,0.06187 0.15375,0.04118 0.29104,0.09877 0.41183,0.172897 v -0.560043 c -0.12079,-0.0604 -0.25666,-0.108461 -0.40766,-0.144151 -0.151,-0.03569 -0.30482,-0.05354 -0.4613,-0.05354 z m 2.6581397,0 c -0.22237,0 -0.42415,0.03569 -0.60535,0.107072 -0.17845,0.07138 -0.33216,0.174296 -0.4612,0.308821 -0.12628,0.131778 -0.22372,0.29239 -0.2923597,0.481822 -0.0686,0.186687 -0.10301,0.398099 -0.10301,0.634202 0,0.233359 0.0344,0.44477 0.10301,0.634202 0.0686,0.189432 0.1660797,0.351465 0.2923597,0.485989 0.12904,0.134524 0.28275,0.237441 0.4612,0.308821 0.1812,0.07138 0.38298,0.107072 0.60535,0.107072 0.22238,0 0.42284,-0.03569 0.60129,-0.107072 0.1812,-0.07138 0.33492,-0.174297 0.4612,-0.308821 0.12904,-0.134524 0.2279,-0.296557 0.29653,-0.485989 0.0686,-0.189432 0.10291,-0.400843 0.10291,-0.634202 0,-0.236103 -0.0343,-0.447515 -0.10291,-0.634202 -0.0686,-0.189432 -0.16749,-0.350044 -0.29653,-0.481822 -0.12628,-0.134525 -0.28,-0.237441 -0.4612,-0.308821 -0.17845,-0.07138 -0.37891,-0.107072 -0.60129,-0.107072 z m 11.6827,0 c -0.23885,0 -0.44469,0.03711 -0.61765,0.111238 -0.17296,0.07138 -0.30751,0.174297 -0.4036,0.308821 -0.0933,0.134524 -0.13998,0.295136 -0.13998,0.481822 0,0.131779 0.0219,0.24575 0.0658,0.341838 0.0439,0.09334 0.10852,0.174256 0.19363,0.242891 0.0851,0.06589 0.18934,0.123585 0.31288,0.173002 0.12354,0.04942 0.26631,0.09332 0.42829,0.131756 0.0988,0.02471 0.18806,0.05219 0.26768,0.08239 0.0796,0.02745 0.14278,0.06588 0.18946,0.1153 0.0494,0.04667 0.0742,0.11258 0.0742,0.197687 0,0.112561 -0.0495,0.200369 -0.14831,0.263513 -0.0961,0.06314 -0.23744,0.09478 -0.42412,0.09478 -0.32945,0 -0.64104,-0.08923 -0.9348,-0.26768 v 0.568272 c 0.14551,0.07687 0.29649,0.133146 0.45297,0.168836 0.15924,0.03569 0.31985,0.05354 0.48183,0.05354 0.25532,0 0.47363,-0.03569 0.65482,-0.107072 0.1812,-0.07413 0.31981,-0.179884 0.41589,-0.317153 0.0961,-0.140015 0.14415,-0.307419 0.14415,-0.502342 0,-0.148251 -0.0262,-0.273171 -0.0783,-0.374751 -0.0494,-0.101579 -0.1208,-0.185333 -0.21414,-0.251222 -0.0906,-0.06589 -0.19626,-0.119427 -0.31705,-0.160608 -0.1208,-0.04393 -0.25119,-0.08367 -0.39121,-0.119362 -0.10982,-0.02745 -0.20594,-0.05493 -0.2883,-0.08239 -0.0796,-0.0302 -0.14137,-0.06731 -0.18529,-0.111238 -0.0439,-0.04667 -0.0658,-0.108421 -0.0658,-0.185292 0,-0.10707 0.0452,-0.189403 0.13582,-0.247057 0.0933,-0.05765 0.22374,-0.08655 0.39121,-0.08655 0.15374,0 0.30614,0.02069 0.45713,0.06187 0.15375,0.04118 0.29104,0.09877 0.41183,0.172897 v -0.560043 c -0.12079,-0.0604 -0.25666,-0.108461 -0.40766,-0.144151 -0.151,-0.03569 -0.30482,-0.05354 -0.4613,-0.05354 z m -9.93299,0.06176 v 1.737833 c 0,0.266303 0.0495,0.494243 0.14832,0.683675 0.10158,0.189432 0.24566,0.334936 0.43235,0.436516 0.18943,0.09883 0.41595,0.148213 0.67951,0.148213 0.26081,0 0.48591,-0.04938 0.67534,-0.148213 0.18943,-0.10158 0.33362,-0.247084 0.43245,-0.436516 0.10158,-0.189432 0.15228,-0.417372 0.15228,-0.683675 V 10.52125 h -0.6341 v 1.807825 c 0,0.20865 -0.055,0.369262 -0.16477,0.481823 -0.10707,0.109815 -0.26079,0.164774 -0.4612,0.164774 -0.20042,0 -0.35555,-0.05496 -0.46537,-0.164774 C 13.74164,12.698337 13.6881,12.537725 13.6881,12.329075 V 10.52125 Z m 2.92698,0 v 2.944472 h 0.60951 V 11.43136 c 0.21414,0.323956 0.43103,0.658867 0.65066,1.004787 0.21963,0.343174 0.43652,0.686402 0.65066,1.029575 h 0.64243 V 10.52125 h -0.60952 v 2.01374 c -0.21414,-0.343174 -0.4296,-0.680823 -0.64649,-1.013015 -0.21414,-0.334938 -0.43245,-0.668532 -0.65482,-1.000725 z m 3.01842,0 v 2.944472 h 1.12008 c 0.31298,0 0.57935,-0.0577 0.79898,-0.173002 0.21963,-0.118051 0.38703,-0.286876 0.50234,-0.506507 0.11805,-0.222377 0.17707,-0.488643 0.17707,-0.798872 0,-0.310229 -0.0576,-0.573861 -0.1729,-0.790747 -0.11531,-0.219632 -0.28413,-0.387035 -0.50651,-0.502342 -0.21963,-0.115306 -0.48458,-0.173002 -0.79481,-0.173002 z m -7.69511,0.490051 c 0.16747,0 0.31166,0.03843 0.43246,0.1153 0.1208,0.07687 0.21276,0.188104 0.27591,0.33361 0.0631,0.145506 0.0947,0.322543 0.0947,0.531192 0,0.20865 -0.0315,0.385791 -0.0947,0.531297 -0.0632,0.145506 -0.15511,0.258055 -0.27591,0.337671 -0.1208,0.07687 -0.26499,0.115301 -0.43246,0.115301 -0.16746,0 -0.31155,-0.03843 -0.43234,-0.115301 -0.1208,-0.07962 -0.21277,-0.192165 -0.27591,-0.337671 -0.0632,-0.145506 -0.0948,-0.322647 -0.0948,-0.531297 0,-0.208649 0.0316,-0.385686 0.0948,-0.531192 0.0631,-0.145506 0.15511,-0.256739 0.27591,-0.33361 0.12079,-0.07687 0.26488,-0.1153 0.43234,-0.1153 z m 8.32931,0.05354 h 0.45714 c 0.27728,0 0.48727,0.0796 0.63003,0.238828 0.14551,0.156488 0.21821,0.384429 0.21821,0.683676 0,0.301993 -0.0741,0.533988 -0.22237,0.695966 -0.14551,0.159233 -0.3555,0.238829 -0.63004,0.238829 H 19.6335 Z M 2.5878906e-7,11.188994 v 1.622012 H 0.78315026 v -1.622012 z"/></svg>