<svg viewBox="0 0 24 24" xmlns="http://www.w3.org/2000/svg"><path d="M 2,0 V 24 H 22 V 0 Z M 4,1.28 A 0.72,0.72 0 0 1 4.72,2 c 0,0.151 0.029,0.208 0.051,0.23 0.022,0.022 0.078,0.051 0.23,0.051 0.151,0 0.208,-0.029 0.23,-0.051 C 5.251,2.208 5.28,2.151 5.28,2 a 0.72,0.72 0 0 1 0.72,-0.72 0.72,0.72 0 0 1 0.72,0.72 0.72,0.72 0 0 1 -0.72,0.72 c -0.151,0 -0.208,0.029 -0.23,0.051 -0.022,0.022 -0.051,0.078 -0.051,0.23 a 0.72,0.72 0 0 1 -0.72,0.72 c -0.151,0 -0.208,0.029 -0.23,0.051 C 4.749,3.792 4.72,3.849 4.72,4 A 0.72,0.72 0 0 1 4,4.72 0.72,0.72 0 0 1 3.28,4 0.72,0.72 0 0 1 4,3.28 C 4.151,3.28 4.208,3.251 4.23,3.229 4.251,3.208 4.28,3.151 4.28,3 4.28,2.849 4.251,2.792 4.23,2.77 4.208,2.749 4.151,2.72 4,2.72 A 0.72,0.72 0 0 1 3.28,2 0.72,0.72 0 0 1 4,1.28 Z m 4,0 A 0.72,0.72 0 0 1 8.72,2 0.72,0.72 0 0 1 8,2.72 0.72,0.72 0 0 1 7.28,2 0.72,0.72 0 0 1 8,1.28 Z m 2,0 A 0.72,0.72 0 0 1 10.72,2 c 0,0.151 0.029,0.208 0.051,0.23 0.022,0.022 0.078,0.051 0.23,0.051 0.151,0 0.208,-0.029 0.23,-0.051 0.022,-0.022 0.051,-0.078 0.051,-0.23 a 0.72,0.72 0 0 1 0.72,-0.72 0.72,0.72 0 0 1 0.72,0.72 c 0,0.151 0.029,0.208 0.051,0.23 0.022,0.022 0.078,0.051 0.23,0.051 0.151,0 0.208,-0.029 0.23,-0.051 0.022,-0.022 0.051,-0.078 0.051,-0.23 a 0.72,0.72 0 0 1 0.72,-0.72 0.72,0.72 0 0 1 0.72,0.72 0.72,0.72 0 0 1 -0.72,0.72 c -0.151,0 -0.208,0.029 -0.23,0.051 -0.022,0.022 -0.051,0.078 -0.051,0.23 a 0.72,0.72 0 0 1 -0.72,0.72 c -0.151,0 -0.208,0.029 -0.23,0.051 -0.022,0.022 -0.051,0.078 -0.051,0.23 A 0.72,0.72 0 0 1 12,4.72 0.72,0.72 0 0 1 11.28,4 c 0,-0.151 -0.029,-0.208 -0.051,-0.23 -0.022,-0.022 -0.078,-0.051 -0.23,-0.051 A 0.72,0.72 0 0 1 10.28,3 C 10.28,2.849 10.251,2.792 10.229,2.77 10.208,2.749 10.151,2.72 10,2.72 A 0.72,0.72 0 0 1 9.28,2 0.72,0.72 0 0 1 10,1.28 Z m 6,0 A 0.72,0.72 0 0 1 16.72,2 0.72,0.72 0 0 1 16,2.72 0.72,0.72 0 0 1 15.28,2 0.72,0.72 0 0 1 16,1.28 Z m 2,0 A 0.72,0.72 0 0 1 18.72,2 c 0,0.151 0.029,0.208 0.051,0.23 0.022,0.022 0.078,0.051 0.23,0.051 0.151,0 0.208,-0.029 0.23,-0.051 0.022,-0.022 0.051,-0.078 0.051,-0.23 a 0.72,0.72 0 0 1 0.72,-0.72 0.72,0.72 0 0 1 0.72,0.72 0.72,0.72 0 0 1 -0.72,0.72 c -0.151,0 -0.208,0.029 -0.23,0.051 -0.022,0.022 -0.051,0.078 -0.051,0.23 0,0.151 0.029,0.208 0.051,0.23 0.022,0.022 0.078,0.051 0.23,0.051 a 0.72,0.72 0 0 1 0.72,0.72 0.72,0.72 0 0 1 -0.72,0.72 0.72,0.72 0 0 1 -0.72,-0.72 c 0,-0.151 -0.029,-0.208 -0.051,-0.23 -0.022,-0.022 -0.078,-0.051 -0.23,-0.051 A 0.72,0.72 0 0 1 18.28,3 c 0,-0.151 -0.029,-0.208 -0.051,-0.23 -0.022,-0.022 -0.078,-0.051 -0.23,-0.051 A 0.72,0.72 0 0 1 17.28,2 0.72,0.72 0 0 1 18,1.28 Z m -6.008,1.44 c -0.13,0.001 -0.185,0.03 -0.214,0.058 -0.028,0.028 -0.057,0.083 -0.058,0.211 A 0.72,0.72 0 0 1 11.72,3 0.72,0.72 0 0 1 11.72,3.011 c 0.002,0.127 0.03,0.182 0.058,0.211 0.029,0.029 0.084,0.057 0.214,0.058 a 0.72,0.72 0 0 1 0.008,0 0.72,0.72 0 0 1 0.008,0 c 0.13,-0.001 0.185,-0.03 0.214,-0.058 0.029,-0.029 0.057,-0.084 0.058,-0.214 a 0.72,0.72 0 0 1 0,-0.008 0.72,0.72 0 0 1 0,-0.008 c -0.001,-0.13 -0.03,-0.185 -0.058,-0.214 -0.029,-0.029 -0.084,-0.057 -0.214,-0.058 a 0.72,0.72 0 0 1 -0.008,0 0.72,0.72 0 0 1 -0.008,0 z M 8,3.28 A 0.72,0.72 0 0 1 8.72,4 c 0,0.151 0.029,0.208 0.051,0.23 0.022,0.022 0.078,0.051 0.23,0.051 a 0.72,0.72 0 0 1 0.72,0.72 0.72,0.72 0 0 1 -0.72,0.72 c -0.151,0 -0.208,0.029 -0.23,0.051 C 8.749,5.792 8.72,5.849 8.72,6 A 0.72,0.72 0 0 1 8,6.72 0.72,0.72 0 0 1 7.28,6 C 7.28,5.849 7.251,5.792 7.229,5.77 7.208,5.749 7.151,5.72 7,5.72 A 0.72,0.72 0 0 1 6.28,5 0.72,0.72 0 0 1 7,4.28 c 0.151,0 0.208,-0.029 0.23,-0.051 0.022,-0.022 0.051,-0.078 0.051,-0.23 a 0.72,0.72 0 0 1 0.72,-0.72 z m 8,0 A 0.72,0.72 0 0 1 16.72,4 c 0,0.151 0.029,0.208 0.051,0.23 0.022,0.022 0.078,0.051 0.23,0.051 a 0.72,0.72 0 0 1 0.72,0.72 0.72,0.72 0 0 1 -0.72,0.72 c -0.151,0 -0.208,0.029 -0.23,0.051 C 16.749,5.792 16.72,5.849 16.72,6 A 0.72,0.72 0 0 1 16,6.72 0.72,0.72 0 0 1 15.28,6 c 0,-0.151 -0.029,-0.208 -0.051,-0.23 -0.022,-0.022 -0.078,-0.051 -0.23,-0.051 A 0.72,0.72 0 0 1 14.28,5 0.72,0.72 0 0 1 15,4.28 c 0.151,0 0.208,-0.029 0.23,-0.051 0.022,-0.022 0.051,-0.078 0.051,-0.23 a 0.72,0.72 0 0 1 0.72,-0.72 z M 7.992,4.72 C 7.862,4.721 7.807,4.75 7.778,4.778 7.75,4.807 7.721,4.862 7.72,4.992 a 0.72,0.72 0 0 1 0,0.008 0.72,0.72 0 0 1 0,0.008 c 0.001,0.13 0.03,0.185 0.058,0.214 0.029,0.029 0.084,0.057 0.214,0.058 a 0.72,0.72 0 0 1 0.008,0 0.72,0.72 0 0 1 0.008,0 c 0.13,-0.001 0.185,-0.03 0.214,-0.058 0.029,-0.029 0.057,-0.084 0.058,-0.214 a 0.72,0.72 0 0 1 0,-0.008 0.72,0.72 0 0 1 0,-0.008 C 8.279,4.862 8.25,4.807 8.222,4.778 8.193,4.75 8.138,4.721 8.008,4.72 a 0.72,0.72 0 0 1 -0.008,0 0.72,0.72 0 0 1 -0.008,0 z m 8,0 c -0.13,0.001 -0.185,0.03 -0.214,0.058 -0.029,0.029 -0.057,0.084 -0.058,0.214 a 0.72,0.72 0 0 1 0,0.008 0.72,0.72 0 0 1 0,0.008 c 0.001,0.13 0.03,0.185 0.058,0.214 0.029,0.029 0.084,0.057 0.214,0.058 a 0.72,0.72 0 0 1 0.008,0 0.72,0.72 0 0 1 0.008,0 c 0.13,-0.001 0.185,-0.03 0.214,-0.058 0.029,-0.029 0.057,-0.084 0.058,-0.214 a 0.72,0.72 0 0 1 0,-0.008 0.72,0.72 0 0 1 0,-0.008 C 16.279,4.862 16.25,4.807 16.222,4.778 16.193,4.75 16.138,4.721 16.008,4.72 a 0.72,0.72 0 0 1 -0.008,0 0.72,0.72 0 0 1 -0.008,0 z M 4,5.28 A 0.72,0.72 0 0 1 4.72,6 c 0,0.151 0.029,0.208 0.051,0.23 0.022,0.022 0.078,0.051 0.23,0.051 a 0.72,0.72 0 0 1 0.72,0.72 c 0,0.151 0.029,0.208 0.051,0.23 0.022,0.022 0.078,0.051 0.23,0.051 a 0.72,0.72 0 0 1 0.72,0.72 c 0,0.151 0.029,0.208 0.051,0.23 0.022,0.022 0.078,0.051 0.23,0.051 a 0.72,0.72 0 0 1 0.72,0.72 c 0,0.151 0.029,0.208 0.051,0.23 0.022,0.022 0.078,0.051 0.23,0.051 a 0.72,0.72 0 0 1 0.72,0.72 c 0,0.151 0.029,0.208 0.051,0.23 0.022,0.022 0.078,0.051 0.23,0.051 0.151,0 0.208,-0.029 0.23,-0.051 0.022,-0.022 0.051,-0.078 0.051,-0.23 a 0.72,0.72 0 0 1 0.72,-0.72 0.72,0.72 0 0 1 0.72,0.72 c 0,0.151 0.029,0.208 0.051,0.23 0.022,0.022 0.078,0.051 0.23,0.051 0.151,0 0.208,-0.029 0.23,-0.051 0.022,-0.022 0.051,-0.078 0.051,-0.23 a 0.72,0.72 0 0 1 0.72,-0.72 0.72,0.72 0 0 1 0.72,0.72 0.72,0.72 0 0 1 -0.72,0.72 c -0.151,0 -0.208,0.029 -0.23,0.051 -0.022,0.022 -0.051,0.078 -0.051,0.23 0,0.151 0.029,0.208 0.051,0.23 0.022,0.022 0.078,0.051 0.23,0.051 a 0.72,0.72 0 0 1 0.72,0.72 0.72,0.72 0 0 1 -0.72,0.72 c -0.151,0 -0.208,0.029 -0.23,0.051 -0.022,0.022 -0.051,0.078 -0.051,0.23 0,0.151 0.029,0.208 0.051,0.23 0.022,0.022 0.078,0.051 0.23,0.051 a 0.72,0.72 0 0 1 0.72,0.72 c 0,0.151 0.029,0.208 0.051,0.23 0.022,0.022 0.078,0.051 0.23,0.051 a 0.72,0.72 0 0 1 0.72,0.72 c 0,0.151 0.029,0.208 0.051,0.23 0.022,0.022 0.078,0.051 0.23,0.051 a 0.72,0.72 0 0 1 0.72,0.72 c 0,0.151 0.029,0.208 0.051,0.23 0.022,0.022 0.078,0.051 0.23,0.051 a 0.72,0.72 0 0 1 0.72,0.72 c 0,0.151 0.029,0.208 0.051,0.23 0.022,0.022 0.078,0.051 0.23,0.051 a 0.72,0.72 0 0 1 0.72,0.72 c 0,0.151 0.029,0.208 0.051,0.23 0.022,0.022 0.078,0.051 0.23,0.051 a 0.72,0.72 0 0 1 0.72,0.72 c 0,0.151 0.029,0.208 0.051,0.23 0.022,0.022 0.078,0.051 0.23,0.051 a 0.72,0.72 0 0 1 0.72,0.72 c 0,0.151 0.029,0.208 0.051,0.23 0.022,0.022 0.078,0.051 0.23,0.051 0.151,0 0.208,-0.029 0.23,-0.051 0.022,-0.022 0.051,-0.078 0.051,-0.23 a 0.72,0.72 0 0 1 0.72,-0.72 0.72,0.72 0 0 1 0.72,0.72 0.72,0.72 0 0 1 -0.72,0.72 c -0.151,0 -0.208,0.029 -0.23,0.051 -0.022,0.022 -0.051,0.078 -0.051,0.23 0,0.151 0.029,0.208 0.051,0.23 0.022,0.022 0.078,0.051 0.23,0.051 a 0.72,0.72 0 0 1 0.72,0.72 0.72,0.72 0 0 1 -0.72,0.72 0.72,0.72 0 0 1 -0.72,-0.72 c 0,-0.151 -0.029,-0.208 -0.051,-0.23 -0.022,-0.022 -0.078,-0.051 -0.23,-0.051 A 0.72,0.72 0 0 1 18.28,21 c 0,-0.151 -0.029,-0.208 -0.051,-0.23 -0.022,-0.022 -0.078,-0.051 -0.23,-0.051 A 0.72,0.72 0 0 1 17.28,20 c 0,-0.151 -0.029,-0.208 -0.051,-0.23 -0.022,-0.022 -0.078,-0.051 -0.23,-0.051 A 0.72,0.72 0 0 1 16.28,19 c 0,-0.151 -0.029,-0.208 -0.051,-0.23 -0.022,-0.022 -0.078,-0.051 -0.23,-0.051 -0.151,0 -0.208,0.029 -0.23,0.051 -0.022,0.022 -0.051,0.078 -0.051,0.23 a 0.72,0.72 0 0 1 -0.72,0.72 c -0.151,0 -0.208,0.029 -0.23,0.051 -0.022,0.022 -0.051,0.078 -0.051,0.23 0,0.151 0.029,0.208 0.051,0.23 0.022,0.022 0.078,0.051 0.23,0.051 a 0.72,0.72 0 0 1 0.72,0.72 0.72,0.72 0 0 1 -0.72,0.72 0.72,0.72 0 0 1 -0.72,-0.72 c 0,-0.151 -0.029,-0.208 -0.051,-0.23 -0.022,-0.022 -0.078,-0.051 -0.23,-0.051 -0.151,0 -0.208,0.029 -0.23,0.051 -0.022,0.022 -0.051,0.078 -0.051,0.23 A 0.72,0.72 0 0 1 13,21.72 0.72,0.72 0 0 1 12.28,21 0.72,0.72 0 0 1 13,20.28 c 0.151,0 0.208,-0.029 0.23,-0.051 0.022,-0.022 0.051,-0.078 0.051,-0.23 a 0.72,0.72 0 0 1 0.72,-0.72 c 0.151,0 0.208,-0.029 0.23,-0.051 0.022,-0.022 0.051,-0.078 0.051,-0.23 0,-0.151 -0.029,-0.208 -0.051,-0.23 -0.022,-0.022 -0.078,-0.051 -0.23,-0.051 A 0.72,0.72 0 0 1 13.28,18 c 0,-0.151 -0.029,-0.208 -0.051,-0.23 -0.022,-0.022 -0.078,-0.051 -0.23,-0.051 -0.151,0 -0.208,0.029 -0.23,0.051 -0.022,0.022 -0.051,0.078 -0.051,0.23 a 0.72,0.72 0 0 1 -0.72,0.72 c -0.151,0 -0.208,0.029 -0.23,0.051 -0.022,0.022 -0.051,0.078 -0.051,0.23 a 0.72,0.72 0 0 1 -0.72,0.72 c -0.151,0 -0.208,0.029 -0.23,0.051 -0.022,0.022 -0.051,0.078 -0.051,0.23 0,0.151 0.029,0.208 0.051,0.23 0.022,0.022 0.078,0.051 0.23,0.051 a 0.72,0.72 0 0 1 0.72,0.72 0.72,0.72 0 0 1 -0.72,0.72 0.72,0.72 0 0 1 -0.72,-0.72 c 0,-0.151 -0.029,-0.208 -0.051,-0.23 -0.022,-0.022 -0.078,-0.051 -0.23,-0.051 -0.151,0 -0.208,0.029 -0.23,0.051 -0.022,0.022 -0.051,0.078 -0.051,0.23 A 0.72,0.72 0 0 1 9,21.72 0.72,0.72 0 0 1 8.28,21 0.72,0.72 0 0 1 9,20.28 c 0.151,0 0.208,-0.029 0.23,-0.051 0.022,-0.022 0.051,-0.078 0.051,-0.23 a 0.72,0.72 0 0 1 0.72,-0.72 c 0.151,0 0.208,-0.029 0.23,-0.051 0.022,-0.022 0.051,-0.078 0.051,-0.23 0,-0.151 -0.029,-0.208 -0.051,-0.23 -0.022,-0.022 -0.078,-0.051 -0.23,-0.051 A 0.72,0.72 0 0 1 9.28,18 c 0,-0.151 -0.029,-0.208 -0.051,-0.23 -0.022,-0.022 -0.078,-0.051 -0.23,-0.051 A 0.72,0.72 0 0 1 8.28,17 c 0,-0.151 -0.029,-0.208 -0.051,-0.23 -0.022,-0.022 -0.078,-0.051 -0.23,-0.051 A 0.72,0.72 0 0 1 7.28,16 c 0,-0.151 -0.029,-0.208 -0.051,-0.23 -0.022,-0.022 -0.078,-0.051 -0.23,-0.051 A 0.72,0.72 0 0 1 6.28,15 c 0,-0.151 -0.029,-0.208 -0.051,-0.23 -0.022,-0.022 -0.078,-0.051 -0.23,-0.051 A 0.72,0.72 0 0 1 5.28,14 c 0,-0.151 -0.029,-0.208 -0.051,-0.23 -0.022,-0.022 -0.078,-0.051 -0.23,-0.051 A 0.72,0.72 0 0 1 4.28,13 c 0,-0.151 -0.029,-0.208 -0.051,-0.23 -0.022,-0.022 -0.078,-0.051 -0.23,-0.051 A 0.72,0.72 0 0 1 3.28,12 0.72,0.72 0 0 1 4,11.28 c 0.151,0 0.208,-0.029 0.23,-0.051 0.022,-0.022 0.051,-0.078 0.051,-0.23 0,-0.151 -0.029,-0.208 -0.051,-0.23 C 4.208,10.749 4.152,10.72 4,10.72 A 0.72,0.72 0 0 1 3.28,10 0.72,0.72 0 0 1 4,9.28 c 0.151,0 0.208,-0.029 0.23,-0.051 0.022,-0.022 0.051,-0.078 0.051,-0.23 0,-0.151 -0.029,-0.208 -0.051,-0.23 C 4.208,8.749 4.152,8.72 4,8.72 A 0.72,0.72 0 0 1 3.28,8 0.72,0.72 0 0 1 4,7.28 c 0.151,0 0.208,-0.029 0.23,-0.051 0.022,-0.022 0.051,-0.078 0.051,-0.23 0,-0.151 -0.029,-0.208 -0.051,-0.23 C 4.208,6.749 4.152,6.72 4,6.72 A 0.72,0.72 0 0 1 3.28,6 0.72,0.72 0 0 1 4,5.28 Z m 16,0 A 0.72,0.72 0 0 1 20.72,6 0.72,0.72 0 0 1 20,6.72 c -0.151,0 -0.208,0.029 -0.23,0.051 -0.022,0.022 -0.051,0.078 -0.051,0.23 0,0.151 0.029,0.208 0.051,0.23 0.022,0.022 0.078,0.051 0.23,0.051 a 0.72,0.72 0 0 1 0.72,0.72 0.72,0.72 0 0 1 -0.72,0.72 0.72,0.72 0 0 1 -0.72,-0.72 c 0,-0.151 -0.029,-0.208 -0.051,-0.23 -0.022,-0.022 -0.078,-0.051 -0.23,-0.051 -0.151,0 -0.208,0.029 -0.23,0.051 -0.022,0.022 -0.051,0.078 -0.051,0.23 a 0.72,0.72 0 0 1 -0.72,0.72 c -0.151,0 -0.208,0.029 -0.23,0.051 -0.022,0.022 -0.051,0.078 -0.051,0.23 a 0.72,0.72 0 0 1 -0.72,0.72 c -0.151,0 -0.208,0.029 -0.23,0.051 -0.022,0.022 -0.051,0.078 -0.051,0.23 A 0.72,0.72 0 0 1 16,10.72 0.72,0.72 0 0 1 15.28,10 0.72,0.72 0 0 1 16,9.28 c 0.151,0 0.208,-0.029 0.23,-0.051 0.022,-0.022 0.051,-0.078 0.051,-0.23 a 0.72,0.72 0 0 1 0.72,-0.72 c 0.151,0 0.208,-0.029 0.23,-0.051 0.022,-0.022 0.051,-0.078 0.051,-0.23 a 0.72,0.72 0 0 1 0.72,-0.72 c 0.151,0 0.208,-0.029 0.23,-0.051 0.022,-0.022 0.051,-0.078 0.051,-0.23 a 0.72,0.72 0 0 1 0.72,-0.72 c 0.151,0 0.208,-0.029 0.23,-0.051 0.022,-0.022 0.051,-0.078 0.051,-0.23 a 0.72,0.72 0 0 1 0.72,-0.72 z m -9,1 A 0.72,0.72 0 0 1 11.72,7 c 0,0.151 0.029,0.208 0.051,0.23 0.022,0.022 0.078,0.051 0.23,0.051 0.151,0 0.208,-0.029 0.23,-0.051 0.022,-0.022 0.051,-0.078 0.051,-0.23 a 0.72,0.72 0 0 1 0.72,-0.72 0.72,0.72 0 0 1 0.72,0.72 0.72,0.72 0 0 1 -0.72,0.72 c -0.151,0 -0.208,0.029 -0.23,0.051 -0.022,0.022 -0.051,0.078 -0.051,0.23 A 0.72,0.72 0 0 1 12,8.72 0.72,0.72 0 0 1 11.28,8 c 0,-0.151 -0.029,-0.208 -0.051,-0.23 -0.022,-0.022 -0.078,-0.051 -0.23,-0.051 A 0.72,0.72 0 0 1 10.28,7 0.72,0.72 0 0 1 11,6.28 Z M 5,7.72 c -0.135,0 -0.193,0.029 -0.222,0.058 -0.029,0.029 -0.058,0.086 -0.058,0.222 0,0.135 0.029,0.193 0.058,0.222 0.029,0.029 0.084,0.057 0.214,0.058 a 0.72,0.72 0 0 1 0.008,0 0.72,0.72 0 0 1 0.008,0 c 0.13,-0.001 0.185,-0.03 0.214,-0.058 0.028,-0.028 0.057,-0.083 0.058,-0.211 A 0.72,0.72 0 0 1 5.28,8 0.72,0.72 0 0 1 5.28,7.989 C 5.278,7.861 5.25,7.806 5.222,7.778 5.193,7.749 5.135,7.72 5,7.72 Z m 0.989,1 c -0.127,0.002 -0.182,0.03 -0.211,0.058 -0.029,0.029 -0.057,0.084 -0.058,0.214 a 0.72,0.72 0 0 1 0,0.008 0.72,0.72 0 0 1 0,0.008 c 0.001,0.13 0.03,0.185 0.058,0.214 0.029,0.029 0.084,0.057 0.214,0.058 a 0.72,0.72 0 0 1 0.008,0 0.72,0.72 0 0 1 0.008,0 c 0.13,-0.001 0.185,-0.03 0.214,-0.058 0.028,-0.028 0.057,-0.083 0.058,-0.211 A 0.72,0.72 0 0 1 6.28,9 0.72,0.72 0 0 1 6.28,8.989 C 6.278,8.861 6.25,8.806 6.222,8.778 6.194,8.75 6.139,8.721 6.011,8.72 A 0.72,0.72 0 0 1 6,8.72 0.72,0.72 0 0 1 5.989,8.72 Z M 14,9.28 A 0.72,0.72 0 0 1 14.72,10 0.72,0.72 0 0 1 14,10.72 0.72,0.72 0 0 1 13.28,10 0.72,0.72 0 0 1 14,9.28 Z m 6,0 A 0.72,0.72 0 0 1 20.72,10 0.72,0.72 0 0 1 20,10.72 0.72,0.72 0 0 1 19.28,10 0.72,0.72 0 0 1 20,9.28 Z M 4.992,9.72 C 4.862,9.721 4.807,9.75 4.778,9.778 c -0.029,0.029 -0.058,0.086 -0.058,0.222 0,0.135 0.029,0.193 0.058,0.222 0.029,0.029 0.084,0.057 0.214,0.058 a 0.72,0.72 0 0 1 0.008,0 0.72,0.72 0 0 1 0.008,0 c 0.13,-0.001 0.185,-0.03 0.214,-0.058 0.029,-0.029 0.057,-0.084 0.058,-0.214 a 0.72,0.72 0 0 1 0,-0.008 0.72,0.72 0 0 1 0,-0.008 c -0.001,-0.13 -0.03,-0.185 -0.058,-0.214 -0.029,-0.029 -0.084,-0.057 -0.214,-0.058 -0.003,-0 -0.005,0 -0.008,0 -0.003,0 -0.005,-0 -0.008,0 z M 7,9.72 c -0.135,0 -0.193,0.029 -0.222,0.058 -0.029,0.029 -0.058,0.086 -0.058,0.222 a 0.72,0.72 0 0 1 0,0.008 c 0.001,0.13 0.03,0.185 0.058,0.214 0.029,0.029 0.084,0.057 0.214,0.058 a 0.72,0.72 0 0 1 0.008,0 0.72,0.72 0 0 1 0.008,0 c 0.13,-0.001 0.185,-0.03 0.214,-0.058 0.029,-0.029 0.057,-0.084 0.058,-0.214 a 0.72,0.72 0 0 1 0,-0.008 0.72,0.72 0 0 1 0,-0.008 C 7.279,9.862 7.25,9.807 7.222,9.778 7.193,9.749 7.136,9.72 7,9.72 Z m -1.008,1 c -0.13,0.001 -0.185,0.03 -0.214,0.058 -0.029,0.029 -0.057,0.084 -0.058,0.214 a 0.72,0.72 0 0 1 0,0.008 0.72,0.72 0 0 1 0,0.008 c 0.001,0.13 0.03,0.185 0.058,0.214 0.029,0.029 0.084,0.057 0.214,0.058 a 0.72,0.72 0 0 1 0.008,0 0.72,0.72 0 0 1 0.008,0 c 0.13,-0.001 0.185,-0.03 0.214,-0.058 0.029,-0.029 0.057,-0.084 0.058,-0.214 a 0.72,0.72 0 0 1 0,-0.008 0.72,0.72 0 0 1 0,-0.008 c -0.001,-0.13 -0.03,-0.185 -0.058,-0.214 -0.029,-0.029 -0.084,-0.057 -0.214,-0.058 a 0.72,0.72 0 0 1 -0.008,0 0.72,0.72 0 0 1 -0.008,0 z m 2,0 c -0.13,0.001 -0.185,0.03 -0.214,0.058 -0.029,0.029 -0.057,0.084 -0.058,0.214 a 0.72,0.72 0 0 1 0,0.008 0.72,0.72 0 0 1 0,0.008 c 0.001,0.13 0.03,0.185 0.058,0.214 0.029,0.029 0.084,0.057 0.214,0.058 a 0.72,0.72 0 0 1 0.008,0 0.72,0.72 0 0 1 0.008,0 c 0.13,-0.001 0.185,-0.03 0.214,-0.058 0.029,-0.029 0.057,-0.084 0.058,-0.214 a 0.72,0.72 0 0 1 0,-0.008 0.72,0.72 0 0 1 0,-0.008 c -0.001,-0.13 -0.03,-0.185 -0.058,-0.214 -0.029,-0.029 -0.084,-0.057 -0.214,-0.058 a 0.72,0.72 0 0 1 -0.008,0 0.72,0.72 0 0 1 -0.008,0 z m 2,0 c -0.13,0.001 -0.185,0.03 -0.214,0.058 -0.029,0.029 -0.058,0.086 -0.058,0.222 a 0.72,0.72 0 0 1 0,0.008 c 0.001,0.13 0.03,0.185 0.058,0.214 0.029,0.029 0.084,0.057 0.214,0.058 a 0.72,0.72 0 0 1 0.008,0 0.72,0.72 0 0 1 0.008,0 c 0.13,-0.001 0.185,-0.03 0.214,-0.058 0.029,-0.029 0.057,-0.084 0.058,-0.214 a 0.72,0.72 0 0 1 0,-0.008 0.72,0.72 0 0 1 0,-0.008 c -0.001,-0.13 -0.03,-0.185 -0.058,-0.214 -0.029,-0.029 -0.084,-0.057 -0.214,-0.058 a 0.72,0.72 0 0 1 -0.008,0 0.72,0.72 0 0 1 -0.008,0 z M 20,11.28 A 0.72,0.72 0 0 1 20.72,12 0.72,0.72 0 0 1 20,12.72 0.72,0.72 0 0 1 19.28,12 0.72,0.72 0 0 1 20,11.28 Z M 4.992,11.72 c -0.13,0.001 -0.185,0.03 -0.214,0.058 -0.029,0.029 -0.057,0.084 -0.058,0.214 a 0.72,0.72 0 0 1 0,0.008 c 0,0.003 -0,0.005 0,0.008 0.001,0.13 0.03,0.185 0.058,0.214 0.029,0.029 0.084,0.057 0.214,0.058 a 0.72,0.72 0 0 1 0.008,0 0.72,0.72 0 0 1 0.008,0 c 0.13,-0.001 0.185,-0.03 0.214,-0.058 0.029,-0.029 0.057,-0.084 0.058,-0.214 a 0.72,0.72 0 0 1 0,-0.008 0.72,0.72 0 0 1 0,-0.008 c -0.001,-0.13 -0.03,-0.185 -0.058,-0.214 -0.029,-0.029 -0.084,-0.057 -0.214,-0.058 -0.003,-0 -0.005,0 -0.008,0 -0.003,0 -0.005,-0 -0.008,0 z m 2,0 c -0.13,0.001 -0.185,0.03 -0.214,0.058 -0.029,0.029 -0.057,0.084 -0.058,0.214 a 0.72,0.72 0 0 1 0,0.008 c 0,0.135 0.029,0.193 0.058,0.222 0.029,0.029 0.084,0.057 0.214,0.058 a 0.72,0.72 0 0 1 0.008,0 0.72,0.72 0 0 1 0.008,0 c 0.13,-0.001 0.185,-0.03 0.214,-0.058 0.029,-0.029 0.057,-0.084 0.058,-0.214 a 0.72,0.72 0 0 1 0,-0.008 0.72,0.72 0 0 1 0,-0.008 c -0.001,-0.13 -0.03,-0.185 -0.058,-0.214 -0.029,-0.029 -0.086,-0.058 -0.222,-0.058 -0.003,0 -0.005,-0 -0.008,0 z m 2,0 c -0.13,0.001 -0.185,0.03 -0.214,0.058 -0.029,0.029 -0.057,0.084 -0.058,0.214 a 0.72,0.72 0 0 1 0,0.008 c 0,0.135 0.029,0.193 0.058,0.222 0.029,0.029 0.084,0.057 0.214,0.058 a 0.72,0.72 0 0 1 0.008,0 0.72,0.72 0 0 1 0.008,0 c 0.13,-0.001 0.185,-0.03 0.214,-0.058 0.029,-0.029 0.057,-0.084 0.058,-0.214 a 0.72,0.72 0 0 1 0,-0.008 0.72,0.72 0 0 1 0,-0.008 c -0.001,-0.13 -0.03,-0.185 -0.058,-0.214 -0.029,-0.029 -0.086,-0.058 -0.222,-0.058 -0.003,0 -0.005,-0 -0.008,0 z m 2,0 c -0.13,0.001 -0.185,0.03 -0.214,0.058 -0.029,0.029 -0.057,0.084 -0.058,0.214 a 0.72,0.72 0 0 1 0,0.008 0.72,0.72 0 0 1 0,0.008 c 0.001,0.13 0.03,0.185 0.058,0.214 0.029,0.029 0.084,0.057 0.214,0.058 a 0.72,0.72 0 0 1 0.008,0 0.72,0.72 0 0 1 0.008,0 c 0.13,-0.001 0.185,-0.03 0.214,-0.058 0.029,-0.029 0.057,-0.084 0.058,-0.214 a 0.72,0.72 0 0 1 0,-0.008 0.72,0.72 0 0 1 0,-0.008 c -0.001,-0.13 -0.03,-0.185 -0.058,-0.214 -0.029,-0.029 -0.084,-0.057 -0.214,-0.058 a 0.72,0.72 0 0 1 -0.008,0 0.72,0.72 0 0 1 -0.008,0 z m -5,1 c -0.13,0.001 -0.185,0.03 -0.214,0.058 -0.029,0.029 -0.057,0.084 -0.058,0.214 a 0.72,0.72 0 0 1 0,0.008 0.72,0.72 0 0 1 0,0.008 c 0.001,0.13 0.03,0.185 0.058,0.214 0.029,0.029 0.084,0.057 0.214,0.058 a 0.72,0.72 0 0 1 0.008,0 0.72,0.72 0 0 1 0.008,0 c 0.13,-0.001 0.185,-0.03 0.214,-0.058 0.029,-0.029 0.057,-0.084 0.058,-0.214 a 0.72,0.72 0 0 1 0,-0.008 0.72,0.72 0 0 1 0,-0.008 c -0.001,-0.13 -0.03,-0.185 -0.058,-0.214 -0.029,-0.029 -0.084,-0.057 -0.214,-0.058 a 0.72,0.72 0 0 1 -0.008,0 0.72,0.72 0 0 1 -0.008,0 z m 2,0 c -0.13,0.001 -0.185,0.03 -0.214,0.058 -0.029,0.029 -0.057,0.084 -0.058,0.214 a 0.72,0.72 0 0 1 0,0.008 0.72,0.72 0 0 1 0,0.008 c 0.001,0.13 0.03,0.185 0.058,0.214 0.029,0.029 0.084,0.057 0.214,0.058 a 0.72,0.72 0 0 1 0.008,0 0.72,0.72 0 0 1 0.008,0 c 0.13,-0.001 0.185,-0.03 0.214,-0.058 0.029,-0.029 0.057,-0.084 0.058,-0.214 a 0.72,0.72 0 0 1 0,-0.008 0.72,0.72 0 0 1 0,-0.008 c -0.001,-0.13 -0.03,-0.185 -0.058,-0.214 -0.029,-0.029 -0.084,-0.057 -0.214,-0.058 a 0.72,0.72 0 0 1 -0.008,0 0.72,0.72 0 0 1 -0.008,0 z m 2,0 c -0.13,0.001 -0.185,0.03 -0.214,0.058 -0.029,0.029 -0.057,0.084 -0.058,0.214 a 0.72,0.72 0 0 1 0,0.008 0.72,0.72 0 0 1 0,0.008 c 0.001,0.13 0.03,0.185 0.058,0.214 0.029,0.029 0.084,0.057 0.214,0.058 a 0.72,0.72 0 0 1 0.008,0 0.72,0.72 0 0 1 0.008,0 c 0.13,-0.001 0.185,-0.03 0.214,-0.058 0.029,-0.029 0.057,-0.084 0.058,-0.214 a 0.72,0.72 0 0 1 0,-0.008 0.72,0.72 0 0 1 0,-0.008 c -0.001,-0.13 -0.03,-0.185 -0.058,-0.214 -0.029,-0.029 -0.084,-0.057 -0.214,-0.058 a 0.72,0.72 0 0 1 -0.008,0 0.72,0.72 0 0 1 -0.008,0 z M 20,13.28 A 0.72,0.72 0 0 1 20.72,14 0.72,0.72 0 0 1 20,14.72 0.72,0.72 0 0 1 19.28,14 0.72,0.72 0 0 1 20,13.28 Z M 6.992,13.72 c -0.13,0.001 -0.185,0.03 -0.214,0.058 -0.029,0.029 -0.057,0.084 -0.058,0.214 a 0.72,0.72 0 0 1 0,0.008 c 0,0.003 -0,0.005 0,0.008 0.001,0.13 0.03,0.185 0.058,0.214 0.029,0.029 0.084,0.057 0.214,0.058 a 0.72,0.72 0 0 1 0.008,0 0.72,0.72 0 0 1 0.008,0 c 0.13,-0.001 0.185,-0.03 0.214,-0.058 0.029,-0.029 0.057,-0.084 0.058,-0.214 a 0.72,0.72 0 0 1 0,-0.008 0.72,0.72 0 0 1 0,-0.008 c -0.001,-0.13 -0.03,-0.185 -0.058,-0.214 -0.029,-0.029 -0.084,-0.057 -0.214,-0.058 -0.003,-0 -0.005,0 -0.008,0 -0.003,0 -0.005,-0 -0.008,0 z m 2,0 c -0.13,0.001 -0.185,0.03 -0.214,0.058 -0.029,0.029 -0.057,0.084 -0.058,0.214 -0,0.003 0,0.005 0,0.008 a 0.72,0.72 0 0 1 0,0.008 c 0.001,0.13 0.03,0.185 0.058,0.214 0.029,0.029 0.084,0.057 0.214,0.058 a 0.72,0.72 0 0 1 0.008,0 0.72,0.72 0 0 1 0.008,0 c 0.13,-0.001 0.185,-0.03 0.214,-0.058 0.029,-0.029 0.057,-0.084 0.058,-0.214 a 0.72,0.72 0 0 1 0,-0.008 0.72,0.72 0 0 1 0,-0.008 C 9.279,13.862 9.25,13.807 9.222,13.778 9.193,13.75 9.138,13.721 9.008,13.72 a 0.72,0.72 0 0 1 -0.008,0 0.72,0.72 0 0 1 -0.008,0 z m 2,0 c -0.13,0.001 -0.185,0.03 -0.214,0.058 -0.029,0.029 -0.057,0.084 -0.058,0.214 a 0.72,0.72 0 0 1 0,0.008 0.72,0.72 0 0 1 0,0.008 c 0.001,0.13 0.03,0.185 0.058,0.214 0.029,0.029 0.084,0.057 0.214,0.058 a 0.72,0.72 0 0 1 0.008,0 0.72,0.72 0 0 1 0.008,0 c 0.13,-0.001 0.185,-0.03 0.214,-0.058 0.029,-0.029 0.057,-0.084 0.058,-0.214 a 0.72,0.72 0 0 1 0,-0.008 0.72,0.72 0 0 1 0,-0.008 c -0.001,-0.13 -0.03,-0.185 -0.058,-0.214 -0.029,-0.029 -0.084,-0.057 -0.214,-0.058 a 0.72,0.72 0 0 1 -0.008,0 0.72,0.72 0 0 1 -0.008,0 z m -3,1 c -0.13,0.001 -0.185,0.03 -0.214,0.058 -0.029,0.029 -0.057,0.084 -0.058,0.214 a 0.72,0.72 0 0 1 0,0.008 0.72,0.72 0 0 1 0,0.008 c 0.001,0.13 0.03,0.185 0.058,0.214 0.029,0.029 0.084,0.057 0.214,0.058 a 0.72,0.72 0 0 1 0.008,0 0.72,0.72 0 0 1 0.008,0 c 0.13,-0.001 0.185,-0.03 0.214,-0.058 0.029,-0.029 0.057,-0.084 0.058,-0.214 a 0.72,0.72 0 0 1 0,-0.008 0.72,0.72 0 0 1 0,-0.008 c -0.001,-0.13 -0.03,-0.185 -0.058,-0.214 -0.029,-0.029 -0.084,-0.057 -0.214,-0.058 a 0.72,0.72 0 0 1 -0.008,0 0.72,0.72 0 0 1 -0.008,0 z m 2,0 c -0.13,0.001 -0.185,0.03 -0.214,0.058 -0.029,0.029 -0.057,0.084 -0.058,0.214 a 0.72,0.72 0 0 1 0,0.008 0.72,0.72 0 0 1 0,0.008 c 0.001,0.13 0.03,0.185 0.058,0.214 0.029,0.029 0.084,0.057 0.214,0.058 a 0.72,0.72 0 0 1 0.008,0 0.72,0.72 0 0 1 0.008,0 c 0.13,-0.001 0.185,-0.03 0.214,-0.058 0.029,-0.029 0.057,-0.084 0.058,-0.214 a 0.72,0.72 0 0 1 0,-0.008 0.72,0.72 0 0 1 0,-0.008 c -0.001,-0.13 -0.03,-0.185 -0.058,-0.214 -0.029,-0.029 -0.084,-0.057 -0.214,-0.058 a 0.72,0.72 0 0 1 -0.008,0 0.72,0.72 0 0 1 -0.008,0 z m 2,0 c -0.13,0.001 -0.185,0.03 -0.214,0.058 -0.029,0.029 -0.058,0.086 -0.058,0.222 a 0.72,0.72 0 0 1 0,0.008 c 0.001,0.13 0.03,0.185 0.058,0.214 0.029,0.029 0.084,0.057 0.214,0.058 a 0.72,0.72 0 0 1 0.008,0 0.72,0.72 0 0 1 0.008,0 c 0.13,-0.001 0.185,-0.03 0.214,-0.058 0.029,-0.029 0.057,-0.084 0.058,-0.214 a 0.72,0.72 0 0 1 0,-0.008 0.72,0.72 0 0 1 0,-0.008 c -0.001,-0.13 -0.03,-0.185 -0.058,-0.214 -0.029,-0.029 -0.084,-0.057 -0.214,-0.058 a 0.72,0.72 0 0 1 -0.008,0 0.72,0.72 0 0 1 -0.008,0 z M 20,15.28 A 0.72,0.72 0 0 1 20.72,16 0.72,0.72 0 0 1 20,16.72 0.72,0.72 0 0 1 19.28,16 0.72,0.72 0 0 1 20,15.28 Z M 8.992,15.72 c -0.13,0.001 -0.185,0.03 -0.214,0.058 -0.029,0.029 -0.057,0.084 -0.058,0.214 a 0.72,0.72 0 0 1 0,0.008 c 0,0.003 -0,0.005 0,0.008 0.001,0.13 0.03,0.185 0.058,0.214 0.029,0.029 0.084,0.057 0.214,0.058 a 0.72,0.72 0 0 1 0.008,0 0.72,0.72 0 0 1 0.008,0 c 0.13,-0.001 0.185,-0.03 0.214,-0.058 0.029,-0.029 0.057,-0.084 0.058,-0.214 a 0.72,0.72 0 0 1 0,-0.008 0.72,0.72 0 0 1 0,-0.008 c -0.001,-0.13 -0.03,-0.185 -0.058,-0.214 -0.029,-0.029 -0.084,-0.057 -0.214,-0.058 -0.003,-0 -0.005,0 -0.008,0 -0.003,0 -0.005,-0 -0.008,0 z m 2,0 c -0.13,0.001 -0.185,0.03 -0.214,0.058 -0.029,0.029 -0.057,0.084 -0.058,0.214 a 0.72,0.72 0 0 1 0,0.008 0.72,0.72 0 0 1 0,0.008 c 0.001,0.13 0.03,0.185 0.058,0.214 0.029,0.029 0.084,0.057 0.214,0.058 a 0.72,0.72 0 0 1 0.008,0 0.72,0.72 0 0 1 0.008,0 c 0.13,-0.001 0.185,-0.03 0.214,-0.058 0.029,-0.029 0.057,-0.084 0.058,-0.214 a 0.72,0.72 0 0 1 0,-0.008 0.72,0.72 0 0 1 0,-0.008 c -0.001,-0.13 -0.03,-0.185 -0.058,-0.214 -0.029,-0.029 -0.084,-0.057 -0.214,-0.058 a 0.72,0.72 0 0 1 -0.008,0 0.72,0.72 0 0 1 -0.008,0 z m 2,0 c -0.13,0.001 -0.185,0.03 -0.214,0.058 -0.029,0.029 -0.057,0.084 -0.058,0.214 a 0.72,0.72 0 0 1 0,0.008 0.72,0.72 0 0 1 0,0.008 c 0.001,0.13 0.03,0.185 0.058,0.214 0.029,0.029 0.084,0.057 0.214,0.058 a 0.72,0.72 0 0 1 0.008,0 0.72,0.72 0 0 1 0.008,0 c 0.13,-0.001 0.185,-0.03 0.214,-0.058 0.029,-0.029 0.057,-0.084 0.058,-0.214 a 0.72,0.72 0 0 1 0,-0.008 0.72,0.72 0 0 1 0,-0.008 c -0.001,-0.13 -0.03,-0.185 -0.058,-0.214 -0.029,-0.029 -0.084,-0.057 -0.214,-0.058 a 0.72,0.72 0 0 1 -0.008,0 0.72,0.72 0 0 1 -0.008,0 z m -3,1 c -0.13,0.001 -0.185,0.03 -0.214,0.058 -0.029,0.029 -0.057,0.084 -0.058,0.214 a 0.72,0.72 0 0 1 0,0.008 0.72,0.72 0 0 1 0,0.008 c 0.001,0.13 0.03,0.185 0.058,0.214 0.029,0.029 0.084,0.057 0.214,0.058 a 0.72,0.72 0 0 1 0.008,0 0.72,0.72 0 0 1 0.008,0 c 0.13,-0.001 0.185,-0.03 0.214,-0.058 0.029,-0.029 0.057,-0.084 0.058,-0.214 a 0.72,0.72 0 0 1 0,-0.008 0.72,0.72 0 0 1 0,-0.008 c -0.001,-0.13 -0.03,-0.185 -0.058,-0.214 -0.029,-0.029 -0.084,-0.057 -0.214,-0.058 a 0.72,0.72 0 0 1 -0.008,0 0.72,0.72 0 0 1 -0.008,0 z m 2,0 c -0.13,0.001 -0.185,0.03 -0.214,0.058 -0.029,0.029 -0.057,0.084 -0.058,0.214 a 0.72,0.72 0 0 1 0,0.008 0.72,0.72 0 0 1 0,0.008 c 0.001,0.13 0.03,0.185 0.058,0.214 0.029,0.029 0.084,0.057 0.214,0.058 a 0.72,0.72 0 0 1 0.008,0 0.72,0.72 0 0 1 0.008,0 c 0.13,-0.001 0.185,-0.03 0.214,-0.058 0.029,-0.029 0.057,-0.084 0.058,-0.214 a 0.72,0.72 0 0 1 0,-0.008 0.72,0.72 0 0 1 0,-0.008 c -0.001,-0.13 -0.03,-0.185 -0.058,-0.214 -0.029,-0.029 -0.084,-0.057 -0.214,-0.058 a 0.72,0.72 0 0 1 -0.008,0 0.72,0.72 0 0 1 -0.008,0 z m 2,0 c -0.13,0.001 -0.185,0.03 -0.214,0.058 -0.029,0.029 -0.058,0.086 -0.058,0.222 a 0.72,0.72 0 0 1 0,0.008 c 0.001,0.13 0.03,0.185 0.058,0.214 0.029,0.029 0.084,0.057 0.214,0.058 a 0.72,0.72 0 0 1 0.008,0 0.72,0.72 0 0 1 0.008,0 c 0.13,-0.001 0.185,-0.03 0.214,-0.058 0.029,-0.029 0.057,-0.084 0.058,-0.214 a 0.72,0.72 0 0 1 0,-0.008 0.72,0.72 0 0 1 0,-0.008 c -0.001,-0.13 -0.03,-0.185 -0.058,-0.214 -0.029,-0.029 -0.084,-0.057 -0.214,-0.058 a 0.72,0.72 0 0 1 -0.008,0 0.72,0.72 0 0 1 -0.008,0 z M 20,17.28 A 0.72,0.72 0 0 1 20.72,18 0.72,0.72 0 0 1 20,18.72 0.72,0.72 0 0 1 19.28,18 0.72,0.72 0 0 1 20,17.28 Z m -9.008,0.44 c -0.13,0.001 -0.185,0.03 -0.214,0.058 -0.029,0.029 -0.057,0.084 -0.058,0.214 a 0.72,0.72 0 0 1 0,0.008 0.72,0.72 0 0 1 0,0.008 c 0.001,0.13 0.03,0.185 0.058,0.214 0.029,0.029 0.084,0.057 0.214,0.058 a 0.72,0.72 0 0 1 0.008,0 0.72,0.72 0 0 1 0.008,0 c 0.13,-0.001 0.185,-0.03 0.214,-0.058 0.029,-0.029 0.057,-0.084 0.058,-0.214 a 0.72,0.72 0 0 1 0,-0.008 0.72,0.72 0 0 1 0,-0.008 c -0.001,-0.13 -0.03,-0.185 -0.058,-0.214 -0.029,-0.029 -0.084,-0.057 -0.214,-0.058 a 0.72,0.72 0 0 1 -0.008,0 0.72,0.72 0 0 1 -0.008,0 z m 4,0 c -0.13,0.001 -0.185,0.03 -0.214,0.058 -0.029,0.029 -0.057,0.084 -0.058,0.214 a 0.72,0.72 0 0 1 0,0.008 0.72,0.72 0 0 1 0,0.008 c 0.001,0.13 0.03,0.185 0.058,0.214 0.029,0.029 0.084,0.057 0.214,0.058 a 0.72,0.72 0 0 1 0.008,0 0.72,0.72 0 0 1 0.008,0 c 0.13,-0.001 0.185,-0.03 0.214,-0.058 0.029,-0.029 0.057,-0.084 0.058,-0.214 a 0.72,0.72 0 0 1 0,-0.008 0.72,0.72 0 0 1 0,-0.008 c -0.001,-0.13 -0.03,-0.185 -0.058,-0.214 -0.029,-0.029 -0.084,-0.057 -0.214,-0.058 a 0.72,0.72 0 0 1 -0.008,0 0.72,0.72 0 0 1 -0.008,0 z M 5,20.28 A 0.72,0.72 0 0 1 5.72,21 0.72,0.72 0 0 1 5,21.72 0.72,0.72 0 0 1 4.28,21 0.72,0.72 0 0 1 5,20.28 Z m 2,0 A 0.72,0.72 0 0 1 7.72,21 0.72,0.72 0 0 1 7,21.72 0.72,0.72 0 0 1 6.28,21 0.72,0.72 0 0 1 7,20.28 Z"/></svg>