<svg viewBox="0 0 24 24" xmlns="http://www.w3.org/2000/svg"><path d="m 0.30108227,17.615 c -0.13,-0.34 -0.522,-1.512 -0.133,-2.432 l 9.82700003,5.674 a 0.33,0.33 0 0 0 0.3299997,0 l 13.675,-7.895 v 2.354 l -13.84,7.99 z m -0.11,-8.652 c -0.288,0.877 0.015,2.058 0.124,2.426 l 9.84499973,5.684 13.84,-7.99 V 6.727 l -13.675,7.895 a 0.33,0.33 0 0 1 -0.3299997,0 z M 13.361082,7.027 a 0.332,0.332 0 0 1 -0.485,-0.207 l -0.28,-1.133 -2.126,-0.176 a 0.33,0.33 0 0 1 -0.138,-0.614 l 5.578,-3.22 -1.702,-0.983 -13.50999973,7.8 9.46199973,5.462 13.51,-7.8 -4.4,-2.54 z m -0.182,-1.729 0.232,0.938 5.198,-3.001 -2.04,-1.178 -4.993,2.884 1.31,0.108 a 0.33,0.33 0 0 1 0.293,0.25 m 10.821,4.546 -13.675,7.895 a 0.33,0.33 0 0 1 -0.3299997,0 L 0.16808227,12.067 c -0.39,0.919 0.003,2.091 0.133,2.43 l 9.85899973,5.693 13.84,-7.99 z"/></svg>