<svg viewBox="0 0 24 24" xmlns="http://www.w3.org/2000/svg"><path d="m 0.0016025,8.6322233 v 4.3260907 h 1.5681714 c 0.3700913,0 0.6959281,-0.109659 0.963016,-0.319132 0.3104882,-0.240105 0.4662879,-0.56893 0.4662879,-0.982776 0,-0.255606 -0.086135,-0.492131 -0.2542488,-0.695958 C 2.6100888,10.791446 2.4170306,10.657961 2.2173846,10.585764 2.51472,10.30154 2.5757972,10.068984 2.5757972,9.7431927 2.5757972,9.4460236 2.4743924,9.1901745 2.2699956,8.9863468 2.0318854,8.7517138 1.6900195,8.6322279 1.2500976,8.6322279 H 0.0488731 Z m 5.8728983,0.6243821 c -1.0373594,0 -1.8803603,0.8444166 -1.8803603,1.8825056 0,1.034807 0.8430009,1.880097 1.8803603,1.880097 1.0388183,0 1.8803641,-0.84529 1.8803641,-1.880097 0,-1.038089 -0.8415458,-1.8825056 -1.8803641,-1.8825056 z m 4.7325622,0 c -1.0382706,0 -1.8811695,0.8444166 -1.8811695,1.8825056 0,1.034807 0.8428989,1.880097 1.8811695,1.880097 1.034804,0 1.88143,-0.84529 1.88143,-1.880097 0,-1.038089 -0.846626,-1.8825056 -1.88143,-1.8825056 z m -9.9119058,0.011225 h 0.5151534 c 0.2109354,0 0.3794796,0.05712 0.5052812,0.168514 0.1020851,0.096261 0.1554142,0.2122507 0.1554142,0.3477052 0,0.3916092 -0.2456315,0.5811212 -0.748834,0.5811212 H 0.6951458 Z m 22.0780568,0.028309 c -0.309921,0 -0.57222,0.094288 -0.781148,0.2833436 -0.20984,0.1912442 -0.314079,0.4409318 -0.314079,0.7402878 0,0.320142 0.152315,0.5843 0.456937,0.783022 0.002,0 0.0038,3.51e-4 0.808124,0.386699 0.25799,0.13327 0.384294,0.286768 0.384294,0.460146 0,0.131811 -0.04815,0.240469 -0.151672,0.330346 -0.105184,0.09061 -0.226696,0.136735 -0.373077,0.136735 -0.34458,0 -0.589864,-0.184081 -0.744828,-0.564563 l -0.0155,-0.0339 -0.557616,0.343703 0.01058,0.02699 c 0.131641,0.257238 0.286942,0.452311 0.464682,0.577379 0.22662,0.164444 0.520108,0.250504 0.874889,0.250504 0.310488,0 0.585362,-0.10653 0.814529,-0.316736 C 23.882532,12.487147 24,12.218988 24,11.894107 c 0,-0.341102 -0.152882,-0.621571 -0.454802,-0.836695 -0.02268,-0.01621 -0.09245,-0.06144 -0.811861,-0.406735 -0.25561,-0.123062 -0.385368,-0.251248 -0.385368,-0.382695 0,-0.09207 0.02872,-0.167875 0.08867,-0.23314 0.07767,-0.089881 0.189203,-0.1321932 0.347981,-0.1321932 0.225147,0 0.387803,0.097992 0.557352,0.3380942 l 0.0091,0.01655 h 0.02343 l 0.50258,-0.3923116 -0.01814,-0.026986 C 23.592748,9.4783019 23.225941,9.2961422 22.773082,9.2961422 Z m -9.513456,0.019502 v 0.6307953 h 1.090938 v 3.0118771 h 0.679132 V 9.9464233 H 16.12851 V 9.315628 H 16.1013 Z m 4.008828,0 v 3.6426724 h 0.680734 v -1.62906 h 1.78636 v 1.62906 h 0.677265 V 9.315628 h -0.02986 -0.647354 v 1.382567 H 17.94932 V 9.315628 Z M 5.8745008,9.9365562 c 0.6614324,0 1.2006992,0.5393128 1.2006992,1.2025688 0,0.660883 -0.5392668,1.199095 -1.2006992,1.199095 -0.662521,0 -1.2004309,-0.538212 -1.2004309,-1.199095 0,-0.663256 0.5379099,-1.2025688 1.2004309,-1.2025688 z m 4.7325622,0 c 0.661973,0 1.200695,0.5393128 1.200695,1.2025688 0,0.660883 -0.538722,1.199095 -1.200695,1.199095 -0.6636211,0 -1.2025704,-0.538212 -1.2025704,-1.199095 0,-0.663256 0.5389493,-1.2025688 1.2025704,-1.2025688 z M 0.6951572,11.000521 H 1.368412 c 0.6045467,0 0.8973165,0.215837 0.8973165,0.657767 0,0.211479 -0.07355,0.374528 -0.212863,0.48738 -0.1474772,0.117049 -0.3460535,0.175726 -0.5912693,0.175726 H 0.6951383 Z m 0.7416189,3.034593 c -0.1662615,0 -0.3064441,0.05576 -0.4222186,0.168246 -0.1146709,0.111942 -0.171704,0.247873 -0.171704,0.409402 0,0.160252 0.057033,0.296564 0.171704,0.40887 0.1157669,0.111575 0.2559496,0.167444 0.4222186,0.167444 0.1659212,0 0.3076157,-0.05587 0.4230274,-0.167444 0.1153889,-0.112305 0.1735937,-0.248618 0.1735937,-0.40887 0,-0.16153 -0.058205,-0.29746 -0.1735937,-0.409402 -0.115389,-0.112486 -0.2571213,-0.168246 -0.4230274,-0.168246 z m 1.5211729,0 c -0.1660725,0 -0.3065575,0.05576 -0.421954,0.168246 -0.1146709,0.111942 -0.1725355,0.247873 -0.1725355,0.409402 0,0.160252 0.057827,0.296564 0.1725355,0.40887 0.1153889,0.111575 0.255874,0.167444 0.421954,0.167444 0.1657323,0 0.306633,-0.05587 0.4222186,-0.167444 0.1155779,-0.112305 0.1741228,-0.248618 0.1741228,-0.40887 0,-0.16153 -0.058545,-0.29746 -0.1741228,-0.409402 C 3.2645896,14.090874 3.1236888,14.035114 2.957949,14.035114 Z m 13.383141,0 c -0.173745,0 -0.316876,0.05423 -0.432102,0.163438 -0.11486,0.10975 -0.171969,0.246652 -0.171969,0.410736 0,0.165358 0.05768,0.30336 0.175446,0.414208 0.115956,0.109932 0.262261,0.165581 0.436906,0.165581 0.133077,0 0.266948,-0.03145 0.400588,-0.09507 v -0.430779 h -0.326627 v 0.07264 h 0.237128 v 0.303643 c -0.08935,0.04594 -0.192303,0.06917 -0.308447,0.06917 -0.160063,0 -0.286791,-0.04712 -0.379756,-0.141006 -0.09426,-0.09481 -0.141014,-0.212992 -0.141014,-0.355189 0,-0.142386 0.04717,-0.260844 0.141808,-0.35492 0.09517,-0.09497 0.212674,-0.142341 0.355993,-0.142341 0.131641,0 0.264454,0.0382 0.39792,0.114036 v -0.09802 c -0.138746,-0.06383 -0.267779,-0.09614 -0.385901,-0.09614 z m 2.425965,0 c -0.16645,0 -0.306822,0.05576 -0.422219,0.168246 -0.11467,0.111942 -0.171968,0.247873 -0.171968,0.409402 0,0.160252 0.0573,0.296564 0.171968,0.40887 0.115389,0.111575 0.255761,0.167444 0.422219,0.167444 0.165165,0 0.306822,-0.05587 0.42169,-0.167444 0.116296,-0.112305 0.174916,-0.248618 0.174916,-0.40887 0,-0.16153 -0.05862,-0.29746 -0.174916,-0.409402 -0.11486,-0.112486 -0.256517,-0.168246 -0.42169,-0.168246 z m 1.51423,0 c -0.160252,0 -0.299112,0.05536 -0.416349,0.165842 -0.115238,0.110665 -0.17571,0.248326 -0.17571,0.413138 0,0.164081 0.05858,0.300359 0.173064,0.410472 0.113386,0.109758 0.256668,0.164512 0.427299,0.164512 0.133077,0 0.266343,-0.03485 0.399254,-0.105222 v -0.09026 c -0.144189,0.07638 -0.278173,0.115098 -0.400857,0.115098 -0.14657,0 -0.26691,-0.04624 -0.361323,-0.139405 -0.09445,-0.0928 -0.141278,-0.211525 -0.141278,-0.355188 0,-0.142568 0.04683,-0.260818 0.140749,-0.355986 0.09388,-0.09518 0.210633,-0.142878 0.350627,-0.142878 0.130167,0 0.263924,0.03625 0.400857,0.108423 v -0.09454 c -0.137462,-0.0627 -0.269065,-0.094 -0.396314,-0.094 z m -8.580083,0.0064 -0.519965,1.133132 h 0.09078 l 0.1776,-0.388838 h 0.54988 l 0.1776,0.388838 h 0.09131 L 11.748741,14.041509 Z M 0,14.049552 v 1.125089 h 0.087345 v -0.55228 h 0.4438526 v -0.07237 H 0.087326 v -0.428095 h 0.4921927 v -0.07238 z m 3.9308485,0 v 1.125089 h 0.4101997 c 0.190148,0 0.3379653,-0.05297 0.4417134,-0.158899 0.103937,-0.106288 0.1554141,-0.240548 0.1554141,-0.402994 0,-0.166454 -0.051931,-0.301365 -0.1567748,-0.406198 C 4.6762167,14.101906 4.5241663,14.049518 4.324732,14.049518 Z m 1.9375106,0 0.4521335,1.136605 h 0.023811 l 0.3773481,-0.949661 0.3768189,0.949661 h 0.021543 l 0.452931,-1.136605 H 7.4842766 L 7.1104063,14.982923 6.7346457,14.049552 H 6.707811 L 6.3296542,14.982923 5.9573707,14.049552 Z m 1.9954658,0 v 1.125089 h 0.086816 v -1.125122 z m 0.5060825,0 v 1.125089 h 0.087345 v -0.983578 l 0.855394,0.983578 h 0.07132 V 14.049519 H 9.297188 v 0.983583 L 8.4438803,14.049519 Z m 1.4399811,0 v 1.125089 h 0.6270575 v -0.07237 H 9.8974828 v -0.456673 h 0.5124892 v -0.07371 H 9.8974828 v -0.449992 h 0.5258422 v -0.07238 z m 2.7579215,0 v 1.125089 h 0.08735 v -0.983578 l 0.855386,0.983578 h 0.07132 v -1.125122 h -0.08625 v 0.983583 l -0.854098,-0.983583 z m 1.439183,0 v 1.125089 h 0.408333 c 0.191244,0 0.33823,-0.05297 0.441986,-0.158899 0.103748,-0.106288 0.156245,-0.240548 0.156245,-0.402994 0,-0.166454 -0.0531,-0.301365 -0.158097,-0.406198 -0.104656,-0.104644 -0.256899,-0.157032 -0.455607,-0.157032 z m 3.127798,0 v 1.125089 h 0.08734 v -0.539458 h 0.152239 c 0.07019,0 0.124233,0.01259 0.15995,0.03792 0.03666,0.02551 0.08757,0.09008 0.153562,0.193085 l 0.196006,0.308451 h 0.102009 L 17.732447,14.7858 c -0.06289,-0.09662 -0.113159,-0.153838 -0.14982,-0.171719 0.142186,-0.05269 0.213921,-0.143834 0.213921,-0.274001 0,-0.0886 -0.03213,-0.15945 -0.09589,-0.211774 -0.06365,-0.05235 -0.156435,-0.07878 -0.276926,-0.07878 z m 3.889183,0 v 1.125089 h 0.625719 v -0.07237 h -0.539191 v -0.456675 h 0.513823 v -0.07371 h -0.513823 v -0.449991 h 0.526375 v -0.07238 z m 0.969426,0 v 1.125089 h 0.08734 v -0.539458 h 0.151672 c 0.07128,0 0.124233,0.01259 0.159987,0.03792 0.0378,0.02551 0.0884,0.09008 0.153298,0.193085 l 0.196309,0.308451 h 0.10337 L 22.590867,14.7858 c -0.06308,-0.09662 -0.112705,-0.153838 -0.150085,-0.171719 0.142564,-0.05269 0.214451,-0.143834 0.214451,-0.274001 0,-0.0886 -0.03213,-0.15945 -0.09589,-0.211774 -0.0638,-0.05235 -0.155905,-0.07878 -0.276397,-0.07878 z m 0.912809,0 0.437442,0.521034 v 0.604088 h 0.08734 v -0.604121 l 0.437178,-0.521034 h -0.10628 l -0.374703,0.445722 -0.37629,-0.445722 z m -21.4662279,0.0657 c 0.1394646,0 0.2579528,0.04822 0.3538394,0.14448 0.096983,0.09589 0.1450204,0.2134 0.1450204,0.35305 0,0.138742 -0.048038,0.256267 -0.1450204,0.351979 -0.095887,0.09609 -0.2143748,0.143947 -0.3538394,0.143947 -0.1403717,0 -0.2600693,-0.04787 -0.357052,-0.143947 -0.097701,-0.09571 -0.1458141,-0.213237 -0.1458141,-0.351979 0,-0.139654 0.048113,-0.257156 0.1458141,-0.35305 0.096983,-0.09628 0.2166803,-0.14448 0.357052,-0.14448 z m 1.5209046,0 c 0.1398425,0 0.2584819,0.04822 0.3549354,0.14448 0.096265,0.09589 0.1444913,0.2134 0.1444913,0.35305 0,0.138742 -0.048227,0.256267 -0.1444913,0.351979 -0.096453,0.09609 -0.2150929,0.143947 -0.3549354,0.143947 -0.1407496,0 -0.2590866,-0.04787 -0.3562583,-0.143947 -0.098457,-0.09571 -0.147137,-0.213237 -0.147137,-0.351979 0,-0.139654 0.048718,-0.257156 0.147137,-0.35305 0.097172,-0.09628 0.2155087,-0.14448 0.3562583,-0.14448 z m 15.8088413,0 c 0.140183,0 0.258104,0.04822 0.354936,0.14448 0.09664,0.09589 0.14366,0.2134 0.14366,0.35305 0,0.138742 -0.04706,0.256267 -0.14366,0.351979 -0.09679,0.09609 -0.214715,0.143947 -0.354936,0.143947 -0.139842,0 -0.259238,-0.04787 -0.356787,-0.143947 -0.09736,-0.09571 -0.145814,-0.213237 -0.145814,-0.35198 0,-0.139653 0.04845,-0.257155 0.145814,-0.353049 0.09755,-0.09628 0.216945,-0.14448 0.356787,-0.14448 z m -14.7507513,0.0067 H 4.330371 c 0.1514835,0 0.2747717,0.04601 0.3706583,0.137533 0.095358,0.09079 0.1426016,0.208562 0.1426016,0.353318 0,0.147307 -0.04732,0.266302 -0.1444914,0.355453 -0.096642,0.08953 -0.2178897,0.134064 -0.3632126,0.134064 H 4.018938 Z m 10.0745423,0 h 0.312189 c 0.150765,0 0.274507,0.04601 0.370394,0.137533 0.09517,0.09079 0.14313,0.208562 0.14313,0.353318 0,0.147307 -0.04811,0.266302 -0.145285,0.355453 -0.09717,0.08953 -0.217927,0.134063 -0.362683,0.134063 h -0.317821 z m 3.128602,0 h 0.183723 c 0.0957,0 0.168756,0.01939 0.21925,0.05822 0.05106,0.03847 0.07718,0.09247 0.07718,0.161571 0,0.07037 -0.02457,0.124993 -0.07533,0.163438 -0.05031,0.03848 -0.122759,0.05715 -0.217398,0.05715 H 17.22208 Z m 4.858606,0 h 0.183723 c 0.09589,0 0.168453,0.01939 0.220044,0.05822 0.0514,0.03847 0.07638,0.09247 0.07638,0.161571 0,0.07037 -0.02495,0.124993 -0.07559,0.163438 -0.05015,0.03848 -0.122305,0.05715 -0.217663,0.05715 h -0.186932 z m -10.356556,0.06089 0.24223,0.530114 H 11.482224 Z M 5.1793474,15.014731 V 15.1747 h 0.034772 c 0,0.05816 -0.011717,0.10315 -0.034772,0.135397 v 0.05768 c 0.071471,-0.05378 0.1065449,-0.13008 0.1065449,-0.227799 v -0.12525 z"/></svg>