<svg viewBox="0 0 24 24" xmlns="http://www.w3.org/2000/svg"><path d="m 23.747882,4.6523259 c -0.253977,-0.124489 -0.363468,0.11299 -0.512454,0.233479 -0.051,0.039 -0.09399,0.08949 -0.136988,0.135987 -0.371466,0.396964 -0.805427,0.657441 -1.372875,0.626444 -0.828925,-0.0465 -1.536861,0.21398 -2.162804,0.847923 -0.132988,-0.781929 -0.574948,-1.248887 -1.247387,-1.54836 -0.351968,-0.155486 -0.707936,-0.311472 -0.954414,-0.649941 -0.171984,-0.240978 -0.21898,-0.509454 -0.304972,-0.77393 -0.055,-0.159486 -0.10949,-0.322971 -0.293474,-0.349968 -0.199481,-0.031 -0.277474,0.135987 -0.355967,0.276475 -0.312972,0.571948 -0.433961,1.202391 -0.422462,1.840333 0.0275,1.43537 0.633443,2.579266 1.837833,3.392193 0.136988,0.09349 0.171985,0.186483 0.128989,0.32297 -0.08199,0.279975 -0.179984,0.55245 -0.265976,0.832425 -0.055,0.1789841 -0.136988,0.2179801 -0.32847,0.139987 -0.66094,-0.275975 -1.231889,-0.684438 -1.736343,-1.178893 -0.856422,-0.828425 -1.630852,-1.742842 -2.596765,-2.458777 -0.226979,-0.167485 -0.453459,-0.322971 -0.688437,-0.470958 -0.985411,-0.956913 0.128988,-1.742842 0.386965,-1.836333 0.269975,-0.09749 0.09399,-0.431961 -0.77843,-0.427961 -0.871921,0.004 -1.669849,0.295473 -2.6867559,0.684438 -0.148487,0.05849 -0.304973,0.10099 -0.465458,0.135987 -0.922917,-0.174984 -1.88133,-0.21398 -2.882239,-0.100991 -1.884829,0.209981 -3.390693,1.100901 -4.497593,2.622263 -1.32987897,1.828334 -1.64235097,3.9056461 -1.25938597,6.0729501 0.402964,2.283793 1.56835797,4.174121 3.35919597,5.652487 1.857832,1.532862 3.996638,2.283794 6.437417,2.139807 1.4823659,-0.08549 3.1327159,-0.283975 4.9940469,-1.859332 0.469458,0.233479 0.961913,0.32697 1.779339,0.396964 0.629443,0.0585 1.235888,-0.031 1.705346,-0.128488 0.735433,-0.155486 0.684438,-0.836424 0.418462,-0.960913 -1.845333,-0.646442 -2.109809,-0.925916 -2.109809,-0.925916 1.094901,-1.295383 2.745251,-2.641761 3.390693,-7.002866 0.051,-0.3459681 0.008,-0.5639491 0,-0.8444231 -0.004,-0.170985 0.035,-0.237479 0.230979,-0.256977 0.539451,-0.06249 1.063903,-0.209981 1.54486,-0.474457 1.396373,-0.762431 1.959322,-2.015317 2.09231,-3.516681 0.019,-0.22898 -0.0045,-0.466458 -0.246977,-0.586947 z M 11.581484,18.167601 C 9.4931731,16.52575 8.4802651,15.985299 8.0618031,16.008297 c -0.390965,0.0235 -0.320471,0.470957 -0.234479,0.762431 0.08999,0.287974 0.207481,0.486456 0.371466,0.738933 0.11349,0.167485 0.191483,0.416462 -0.113489,0.602945 -0.672439,0.416462 -1.841833,-0.139987 -1.896828,-0.167485 -1.360877,-0.801427 -2.498774,-1.859831 -3.300701,-3.3067 -0.77443,-1.392874 -1.22389,-2.886738 -1.298383,-4.481594 -0.0195,-0.3849651 0.09399,-0.5214531 0.476957,-0.5914461 0.504454,-0.09349 1.024407,-0.11299 1.529361,-0.039 2.131307,0.311472 3.946143,1.2643861 5.467505,2.7737491 0.868421,0.859922 1.5253619,1.886829 2.2018009,2.890738 0.719434,1.065903 1.493864,2.081311 2.479275,2.913736 0.347968,0.291973 0.625943,0.513453 0.891419,0.676939 -0.801427,0.08999 -2.139306,0.10949 -3.054223,-0.613945 z m 1.001409,-6.438916 c 0,-0.170985 0.136988,-0.307473 0.308972,-0.307473 0.039,0 0.07449,0.0075 0.105491,0.0195 0.043,0.0155 0.08199,0.039 0.113489,0.07399 0.055,0.05449 0.08599,0.132488 0.08599,0.213981 0,0.170984 -0.136988,0.307472 -0.308972,0.307472 -0.171985,0 -0.304973,-0.135988 -0.304973,-0.307472 z m 3.108718,1.595355 c -0.199481,0.08149 -0.398963,0.151486 -0.590446,0.159486 -0.297473,0.0155 -0.621944,-0.104991 -0.797928,-0.252977 -0.273975,-0.22948 -0.469457,-0.357968 -0.55145,-0.758432 -0.035,-0.170984 -0.0155,-0.43596 0.0155,-0.587447 0.07049,-0.32697 -0.008,-0.536951 -0.238479,-0.727434 -0.187983,-0.155486 -0.426461,-0.198482 -0.688437,-0.198482 -0.09799,0 -0.187483,-0.043 -0.253977,-0.07799 -0.10949,-0.05449 -0.199482,-0.190482 -0.11349,-0.357967 0.0275,-0.05449 0.160486,-0.186483 0.191483,-0.209981 0.355968,-0.202482 0.76643,-0.135988 1.145896,0.0155 0.351968,0.143986 0.617944,0.408463 1.001409,0.781929 0.390965,0.451459 0.461458,0.575947 0.684438,0.914417 0.175984,0.264476 0.33647,0.536951 0.44596,0.847923 0.06649,0.194482 -0.0195,0.353968 -0.250478,0.451459 z"/></svg>