<svg viewBox="0 0 24 24" xmlns="http://www.w3.org/2000/svg"><path d="m 12.774,5.438 c -0.901,0 -1.782,0.111 -2.632,0.324 -0.711,0.178 -1.391,0.429 -2.035,0.746 -0.238,0.117 -0.463,0.24 -0.677,0.367 -0.416,0.247 -0.795,0.511 -1.15,0.798 -0.275,0.222 -0.523,0.448 -0.738,0.661 -0.143,0.142 -0.276,0.28 -0.414,0.435 -0.013,0.014 -0.024,0.027 -0.037,0.041 -0.022,0.024 -0.048,0.062 -0.035,0.114 0.004,0.017 0.013,0.032 0.026,0.044 0.024,0.021 0.052,0.026 0.077,0.024 0.03,-0.002 0.063,-0.02 0.082,-0.034 0.013,-0.009 0.025,-0.02 0.036,-0.032 0.043,-0.044 0.082,-0.087 0.123,-0.129 0.074,-0.076 0.149,-0.152 0.227,-0.227 0.293,-0.284 0.659,-0.594 1.059,-0.877 0.216,-0.153 0.444,-0.302 0.691,-0.448 0.203,-0.119 0.586,-0.333 1.069,-0.541 0.428,-0.184 0.844,-0.327 1.234,-0.438 0.282,-0.08 0.574,-0.15 0.868,-0.206 0.261,-0.05 0.526,-0.09 0.792,-0.121 0.409,-0.048 0.816,-0.07 1.224,-0.07 0.946,0 1.912,0.127 2.84,0.387 0.335,0.094 0.662,0.203 0.98,0.329 0.413,0.163 0.793,0.342 1.199,0.569 0.748,0.419 1.414,0.929 2.014,1.534 0.292,0.294 0.544,0.591 0.762,0.881 0.272,0.362 0.49,0.713 0.664,1.033 0.111,0.205 0.204,0.397 0.28,0.566 0.159,0.356 0.254,0.646 0.254,0.646 0.01,0.028 0.018,0.039 0.029,0.057 0.029,0.039 0.075,0.061 0.122,0.061 l 0.387,-0 c 0.029,-0 0.042,-0.006 0.058,-0.015 0.015,-0.008 0.035,-0.028 0.044,-0.049 0.011,-0.025 0.013,-0.058 0.004,-0.088 -0.139,-0.416 -0.329,-0.852 -0.554,-1.272 -0.351,-0.654 -0.882,-1.454 -1.657,-2.215 -0.685,-0.672 -1.374,-1.145 -1.951,-1.476 -0.716,-0.411 -1.476,-0.731 -2.281,-0.961 -0.97,-0.278 -1.978,-0.417 -2.982,-0.417 z M 1.94,10.265 c -0.147,-0.002 -0.411,-0 -0.716,0.038 -0.209,0.026 -0.427,0.067 -0.626,0.122 -0.111,0.03 -0.203,0.067 -0.283,0.119 -0.091,0.06 -0.166,0.139 -0.227,0.245 -0.056,0.099 -0.109,0.208 -0.08,0.318 0.024,0.093 0.15,0.123 0.264,0.143 0.103,0.016 0.335,0.028 0.397,-0.047 0.017,-0.018 0.025,-0.069 0.002,-0.103 -0.023,-0.041 -0.082,-0.07 -0.138,-0.081 -0.047,-0.009 -0.127,-0.017 -0.177,-0.024 -0.034,-0.005 -0.052,-0.011 -0.061,-0.016 -0.003,-0.001 -0.005,-0.003 -0.006,-0.004 -0.003,-0.002 -0.003,-0.005 -0.003,-0.005 0,0 0.001,-0.002 0.003,-0.004 0.003,-0.003 0.007,-0.006 0.011,-0.009 0.04,-0.025 0.166,-0.061 0.199,-0.07 0.145,-0.04 0.368,-0.064 0.55,-0.074 0.18,-0.009 0.363,-0.009 0.512,-0.004 0.604,0.019 1.189,0.116 1.775,0.284 0.318,0.091 0.643,0.204 0.986,0.339 0.483,0.191 0.979,0.453 1.436,0.776 0.405,0.286 0.767,0.609 1.048,0.967 0.17,0.219 0.373,0.548 0.475,0.868 0.035,0.109 0.064,0.234 0.067,0.381 0.003,0.143 -0.019,0.307 -0.08,0.468 -0.116,0.304 -0.36,0.587 -0.762,0.798 -0.149,0.078 -0.319,0.146 -0.513,0.201 -0.209,0.059 -0.424,0.098 -0.638,0.121 -0.253,0.027 -0.505,0.033 -0.761,0.026 -0.036,-0.001 -0.112,-0.005 -0.198,-0.013 -0.22,-0.02 -0.42,-0.054 -0.535,-0.076 l -0.04,-1.858 c 0.288,0.004 0.605,0.038 0.904,0.09 0.167,0.029 0.449,0.086 0.796,0.198 0.07,0.024 0.153,0.074 0.159,0.148 0.003,0.031 -0.008,0.059 -0.028,0.085 -0.052,0.07 -0.138,0.123 -0.211,0.158 -0.044,0.021 -0.082,0.037 -0.099,0.057 -0.019,0.026 -0.02,0.062 0.006,0.083 0.036,0.028 0.092,0.049 0.149,0.061 0.288,0.066 0.48,-0.064 0.592,-0.186 0.121,-0.133 0.155,-0.236 0.167,-0.344 0.02,-0.185 -0.065,-0.33 -0.108,-0.39 -0.106,-0.149 -0.269,-0.249 -0.4,-0.312 -0.298,-0.142 -0.637,-0.216 -0.81,-0.246 -0.219,-0.039 -0.499,-0.071 -0.821,-0.077 -0.15,-0.003 -0.301,0.004 -0.301,0.004 0,0 -0.006,-0.252 -0.017,-0.419 -0.018,-0.275 -0.095,-0.816 -0.345,-0.971 -0.046,-0.028 -0.102,-0.031 -0.134,0.012 -0.049,0.064 -0.097,0.305 -0.107,0.367 -0.011,0.059 -0.021,0.134 -0.032,0.213 -0.016,0.125 -0.03,0.264 -0.039,0.376 -0.005,0.063 -0.019,0.267 -0.022,0.483 -0.003,0.003 -0.007,0.008 -0.012,0.011 0,0 -0.113,0.017 -0.256,0.046 -0.473,0.094 -0.802,0.225 -0.93,0.281 -0.23,0.101 -0.56,0.279 -0.661,0.512 -0.023,0.058 -0.033,0.094 -0.036,0.153 -0.006,0.13 0.042,0.245 0.083,0.318 0.109,0.205 0.326,0.426 0.509,0.591 0.132,0.119 0.324,0.267 0.478,0.372 0.126,0.086 0.221,0.147 0.309,0.198 0.103,0.06 0.203,0.114 0.305,0.163 0.056,0.026 0.124,0.06 0.186,0.089 0,0 0.009,0.088 0.022,0.189 0.012,0.108 0.023,0.218 0.066,0.318 0.016,0.037 0.035,0.069 0.061,0.098 0.072,0.081 0.153,0.097 0.187,0.104 0.069,0.013 0.134,0.006 0.203,-0.007 0.029,-0.005 0.058,-0.015 0.081,-0.027 0.038,-0.02 0.068,-0.049 0.088,-0.092 0.03,-0.061 0.042,-0.158 0.042,-0.171 0.004,-0.056 0.001,-0.119 0.001,-0.119 0,0 0.222,0.053 0.377,0.081 0.254,0.045 0.498,0.071 0.788,0.076 0.35,0.005 0.722,-0.04 1.122,-0.136 0.241,-0.058 0.471,-0.135 0.695,-0.239 0.208,-0.097 0.394,-0.212 0.556,-0.345 0.121,-0.1 0.248,-0.226 0.369,-0.399 0.035,-0.049 0.065,-0.097 0.088,-0.136 0.007,-0.012 0.026,-0.04 0.052,-0.084 0.071,-0.12 0.16,-0.306 0.206,-0.543 0.012,-0.07 0.021,-0.139 0.026,-0.208 0.017,-0.302 -0.044,-0.607 -0.163,-0.884 -0.026,-0.065 -0.121,-0.296 -0.325,-0.589 -0.177,-0.256 -0.384,-0.493 -0.6,-0.709 -0.143,-0.143 -0.252,-0.243 -0.437,-0.399 -0.262,-0.217 -0.512,-0.381 -0.589,-0.431 -0.254,-0.166 -0.548,-0.33 -0.806,-0.454 -0.416,-0.201 -0.822,-0.355 -1.227,-0.48 -0.14,-0.043 -0.271,-0.08 -0.388,-0.112 -0.243,-0.065 -0.61,-0.153 -0.999,-0.203 -0.236,-0.03 -0.462,-0.046 -0.653,-0.049 z m 7.357,0.517 c -0.197,0.007 -0.4,0.06 -0.557,0.126 -0.265,0.112 -0.506,0.276 -0.693,0.475 -0.185,0.196 -0.327,0.446 -0.313,0.716 0.003,0.066 0.012,0.137 0.045,0.218 0.01,0.025 0.023,0.053 0.038,0.081 0.017,0.031 0.042,0.062 0.064,0.095 0.025,0.036 0.047,0.073 0.055,0.109 0.009,0.04 0.001,0.093 0.003,0.142 0.004,0.11 0.051,0.222 0.133,0.295 0.034,0.029 0.066,0.04 0.098,0.037 0.031,-0.003 0.054,-0.016 0.075,-0.034 0.028,-0.024 0.05,-0.054 0.057,-0.066 0.015,-0.021 0.076,-0.132 0.076,-0.132 0.043,0.027 0.175,0.054 0.175,0.054 0.053,0.01 0.116,0.018 0.179,0.021 0.057,0.002 0.116,0 0.18,-0.007 0.12,-0.014 0.273,-0.051 0.388,-0.096 0.359,-0.14 0.636,-0.342 0.916,-0.629 0.084,-0.086 0.163,-0.2 0.212,-0.324 0.047,-0.118 0.067,-0.25 0.042,-0.366 -0.026,-0.124 -0.083,-0.209 -0.186,-0.299 -0.052,-0.044 -0.178,-0.111 -0.266,-0.126 -0.026,-0.005 -0.057,-0.008 -0.07,-0.016 -0.013,-0.009 -0.024,-0.026 -0.038,-0.043 -0.063,-0.079 -0.187,-0.156 -0.277,-0.187 -0.103,-0.036 -0.22,-0.048 -0.338,-0.044 z m -0.4,0.583 c 0,0 -0.057,0.048 -0.107,0.09 -0.084,0.072 -0.181,0.166 -0.272,0.263 -0.041,0.043 -0.146,0.162 -0.206,0.241 -0.054,0.071 -0.111,0.147 -0.16,0.224 0,-0 -0.017,-0.033 -0.028,-0.059 -0.015,-0.037 -0.021,-0.075 -0.018,-0.114 0.004,-0.055 0.024,-0.112 0.053,-0.165 0.05,-0.091 0.129,-0.176 0.204,-0.24 0.04,-0.035 0.126,-0.102 0.225,-0.152 0.032,-0.016 0.068,-0.031 0.112,-0.047 0.036,-0.013 0.08,-0.025 0.105,-0.03 0.052,-0.01 0.092,-0.011 0.092,-0.011 z m 0.955,0.054 c 0.04,0.001 0.079,0.008 0.117,0.025 0.069,0.029 0.123,0.092 0.133,0.175 0.012,0.099 -0.025,0.193 -0.088,0.277 -0.031,0.042 -0.071,0.084 -0.117,0.126 -0.086,0.078 -0.222,0.171 -0.354,0.235 -0.061,0.029 -0.123,0.054 -0.186,0.074 -0.115,0.036 -0.24,0.062 -0.383,0.076 l -0.072,0.002 c -0.092,0.006 -0.259,-0.003 -0.266,-0.023 0.047,-0.072 0.099,-0.14 0.15,-0.209 0.089,-0.116 0.232,-0.26 0.382,-0.388 0.126,-0.108 0.262,-0.208 0.352,-0.26 0.093,-0.054 0.214,-0.112 0.332,-0.109 z m 12.101,1.089 -0,0 -0.111,0 c -0.027,0 -0.053,0.008 -0.077,0.033 -0.031,0.031 -0.035,0.071 -0.028,0.11 0.09,0.479 0.136,0.946 0.151,1.387 h -1.388 c -0.031,0 -0.057,0.011 -0.078,0.032 -0.022,0.022 -0.035,0.049 -0.035,0.094 l 0,0.398 c 0,0.079 0.055,0.124 0.121,0.124 h 1.381 c -0.01,0.304 -0.034,0.591 -0.067,0.847 -0.025,0.196 -0.054,0.38 -0.086,0.547 -0.006,0.048 0.007,0.078 0.03,0.104 0.028,0.028 0.06,0.034 0.098,0.034 l 0.138,-0 0.214,0 c 0.055,0 0.095,-0.025 0.119,-0.05 0.036,-0.037 0.042,-0.076 0.046,-0.099 0.028,-0.163 0.055,-0.342 0.077,-0.533 0.03,-0.257 0.052,-0.544 0.062,-0.85 h 1.361 c 0.066,0 0.12,-0.044 0.121,-0.124 l 0,-0.398 c 0,-0.045 -0.013,-0.073 -0.035,-0.094 -0.021,-0.021 -0.047,-0.032 -0.078,-0.032 h -1.368 c -0.008,-0.263 -0.027,-0.536 -0.059,-0.816 -0.021,-0.188 -0.048,-0.379 -0.082,-0.572 -0.007,-0.039 -0.02,-0.078 -0.061,-0.11 -0.027,-0.021 -0.064,-0.034 -0.089,-0.034 l -0.187,-0 c -0,0 -0.001,-0 -0.001,-0 l -0.037,0 z m -8.179,0.401 c -0.035,0.001 -0.073,0.017 -0.089,0.079 -0.031,0.121 0.015,0.251 0.015,0.251 0.306,1.04 0.375,1.654 0.375,1.654 0,0 0.015,0.181 -0.021,0.19 -0.024,0.019 -0.052,-0.007 -0.052,-0.007 -0.035,0.001 -0.371,-0.562 -0.371,-0.562 l -0.065,-0.11 c -0.37,-0.596 -0.594,-0.8 -0.594,-0.8 -0.052,-0.049 -0.187,-0.184 -0.354,0.002 -0.168,0.187 -0.299,0.789 -0.352,1.354 -0.045,0.564 -0.01,0.885 0.071,1.021 0.091,0.137 0.266,0.184 0.41,0.067 0.153,-0.117 0.124,-0.861 0.148,-1.243 0.023,-0.383 0.061,-0.315 0.061,-0.315 0.033,-0.009 0.208,0.342 0.208,0.342 0,0 0.46,0.941 0.749,1.08 0.292,0.139 0.528,-0.085 0.617,-0.294 0.09,-0.211 0.244,-0.908 0.015,-1.682 -0.231,-0.773 -0.706,-1.012 -0.706,-1.012 0,0 -0.031,-0.014 -0.065,-0.013 z m 4.401,0.311 c -0.054,-0.001 -0.125,0.06 -0.125,0.06 -0.332,0.298 -0.542,0.61 -0.674,0.869 -0.177,0.349 -0.213,0.604 -0.213,0.604 -0.073,0.417 0.013,0.71 0.139,0.915 -0.133,0.283 -0.244,0.554 -0.334,0.808 -0.13,0.369 -0.214,0.703 -0.247,0.981 -0.018,0.155 -0.02,0.295 -0.006,0.413 0.011,0.075 0.03,0.144 0.056,0.21 0.099,0.249 0.287,0.423 0.412,0.466 0.159,0.067 0.187,-0.125 0.187,-0.125 0.081,-0.617 0.2,-1.106 0.344,-1.545 0.085,-0.26 0.179,-0.503 0.278,-0.744 0.811,0.186 1.421,-0.603 1.637,-0.98 0.127,-0.226 0.195,-0.529 0.195,-0.814 0,-0.216 -0.04,-0.423 -0.123,-0.577 -0.103,-0.19 -0.254,-0.264 -0.407,-0.262 -0.262,0.002 -0.563,0.223 -0.844,0.513 -0.327,0.336 -0.628,0.765 -0.818,1.057 -0.061,-0.319 0.155,-0.724 0.155,-0.724 0,0 0.347,-0.6 0.396,-0.722 0.048,-0.123 0.075,-0.374 0.015,-0.399 -0.007,-0.003 -0.014,-0.005 -0.022,-0.005 z m -7.252,0.069 c -0.124,0.004 -0.241,0.013 -0.342,0.026 -0.418,0.051 -0.977,0.181 -1.216,0.524 -0.091,0.131 -0.144,0.333 -0.103,0.497 0.009,0.045 0.036,0.089 0.071,0.127 0.04,0.043 0.091,0.075 0.141,0.095 0.054,0.021 0.11,0.032 0.166,0.042 0.079,0.014 0.157,0.023 0.187,0.026 0.059,0.006 0.134,0.013 0.219,0.021 0.038,0.003 0.089,0.007 0.128,0.01 0.043,0.003 0.077,0.006 0.115,0.009 0.049,0.004 0.1,0.009 0.144,0.013 0.039,0.004 0.083,0.009 0.131,0.014 0.244,0.026 0.582,0.07 0.783,0.154 0,0 0.228,0.079 0.227,0.209 -0.001,0.065 -0.049,0.115 -0.097,0.15 -0.186,0.131 -0.407,0.214 -0.638,0.262 -0.214,0.045 -0.437,0.06 -0.647,0.056 -0.107,-0.001 -0.201,-0.014 -0.302,-0.046 -0.038,-0.012 -0.077,-0.026 -0.118,-0.044 -0.092,-0.04 -0.136,-0.091 -0.137,-0.147 -0.001,-0.059 0.032,-0.115 0.093,-0.148 0.06,-0.033 0.14,-0.041 0.21,-0.034 0.071,0.007 0.164,0.037 0.233,0.064 0.28,0.11 0.41,0.204 0.657,0.166 0.092,-0.013 0.41,-0.082 0.454,-0.214 0.01,-0.032 -0.005,-0.067 -0.029,-0.09 -0.034,-0.034 -0.225,-0.109 -0.277,-0.128 -0.188,-0.067 -0.543,-0.128 -0.741,-0.136 -0.163,-0.006 -0.365,0.013 -0.529,0.081 -0.097,0.04 -0.183,0.098 -0.236,0.178 -0.046,0.065 -0.077,0.152 -0.077,0.248 -0.001,0.101 0.031,0.202 0.115,0.317 0.053,0.072 0.124,0.136 0.199,0.192 0.077,0.057 0.162,0.108 0.26,0.157 0.307,0.153 0.683,0.221 1.026,0.183 0.184,-0.021 0.367,-0.063 0.541,-0.147 0.144,-0.069 0.267,-0.163 0.355,-0.281 0.103,-0.138 0.134,-0.27 0.148,-0.359 0.014,-0.087 0.015,-0.179 0.002,-0.276 -0.008,-0.058 -0.02,-0.115 -0.039,-0.169 -0.003,-0.01 -0.013,-0.037 -0.028,-0.072 -0.018,-0.042 -0.055,-0.109 -0.081,-0.146 -0.017,-0.025 -0.036,-0.048 -0.057,-0.07 -0.037,-0.037 -0.082,-0.071 -0.138,-0.102 -0.075,-0.042 -0.177,-0.079 -0.298,-0.11 -0.105,-0.027 -0.221,-0.048 -0.37,-0.068 -0.013,-0.001 -0.016,-0.002 -0.029,-0.004 l -1.008,-0.119 c -0.066,-0.01 -0.114,-0.018 -0.152,-0.03 -0.052,-0.016 -0.091,-0.042 -0.053,-0.084 0.02,-0.023 0.082,-0.039 0.117,-0.049 0.456,-0.125 1.035,-0.11 1.514,-0.137 0.107,-0.007 0.35,-0.021 0.468,-0.058 0.112,-0.035 0.205,-0.114 0.231,-0.237 0.013,-0.065 -0.019,-0.096 -0.08,-0.129 -0.298,-0.158 -0.74,-0.198 -1.113,-0.187 z m 5.884,0.028 c -0.007,-0 -0.011,0 -0.011,0 -0.695,-0.023 -1.705,0.161 -1.815,0.216 -0.103,0.047 -0.092,0.125 0.043,0.294 0.144,0.178 0.386,0.162 0.386,0.162 l -0.212,0.441 c -0.174,0.012 -0.234,0.066 -0.234,0.066 -0.1,0.107 0.038,0.423 0.038,0.423 0,0 -0.302,0.677 -0.083,1.035 0.235,0.375 0.513,0.357 0.513,0.357 0.529,0.038 1.397,-0.515 1.444,-0.699 0.039,-0.148 -0.095,-0.31 -0.217,-0.339 -0.113,-0.024 -0.983,0.14 -1.087,0.167 -0.112,0.03 -0.062,-0.075 -0.062,-0.075 l 0.134,-0.455 c 0,0 0.831,-0.032 0.952,-0.052 0.112,-0.02 0.118,-0.099 0.118,-0.099 0,0 0.015,-0.13 0.01,-0.252 -0.012,-0.131 -0.116,-0.118 -0.116,-0.118 -0.322,-0.034 -0.763,0.004 -0.763,0.004 l 0.112,-0.349 c 0,0 0.883,-0.043 1.219,-0.12 0.173,-0.041 0.071,-0.21 0.071,-0.21 -0.183,-0.367 -0.391,-0.395 -0.44,-0.396 z m -8.122,0.08 c -0.07,-0.001 -0.111,0.098 -0.131,0.149 -0.062,0.159 -0.107,0.54 -0.119,0.659 -0.037,0.36 -0.067,1.213 -0.004,1.648 0.026,0.182 0.086,0.3 0.27,0.338 0.075,0.016 0.211,0.013 0.27,-0.026 0.052,-0.032 0.089,-0.096 0.101,-0.15 0.034,-0.151 0.02,-0.366 0.013,-0.527 -0.008,-0.191 -0.013,-0.381 -0.021,-0.574 -0.012,-0.257 -0.043,-0.914 -0.114,-1.211 -0.031,-0.128 -0.083,-0.245 -0.209,-0.292 -0.015,-0.005 -0.031,-0.01 -0.042,-0.012 -0.005,-0.001 -0.01,-0.001 -0.014,-0.001 z m 10.689,0.66 c 0.036,0.001 0.058,0.026 0.07,0.052 0.013,0.026 0.016,0.052 0.016,0.052 0.005,0.041 0.007,0.081 0.006,0.12 -0.003,0.151 -0.044,0.288 -0.101,0.408 -0.104,0.217 -0.264,0.376 -0.353,0.456 -0.093,0.088 -0.401,0.262 -0.721,0.298 0.305,-0.59 0.683,-1.025 0.892,-1.256 0.088,-0.099 0.148,-0.13 0.19,-0.129 z m -16.278,0.063 c 0,0 -0.006,0.275 -0.007,0.552 -0.001,0.287 0.002,0.577 0.005,0.781 0.003,0.17 0.006,0.281 0.006,0.281 0,0 -0.198,-0.065 -0.3,-0.116 -0.188,-0.081 -0.367,-0.175 -0.538,-0.282 -0.216,-0.135 -0.397,-0.273 -0.567,-0.425 -0.035,-0.031 -0.096,-0.09 -0.126,-0.121 -0.078,-0.077 -0.156,-0.155 -0.137,-0.26 0.014,-0.08 0.185,-0.156 0.251,-0.174 0.156,-0.045 0.314,-0.085 0.482,-0.119 0.178,-0.036 0.35,-0.064 0.473,-0.078 0.17,-0.026 0.459,-0.04 0.459,-0.04 z"/></svg>