<svg viewBox="0 0 24 24" xmlns="http://www.w3.org/2000/svg"><path d="M 11.198155,0.02791326 C 8.9567851,0.17832076 6.8026853,0.95527436 4.9810944,2.2701538 l 3.237e-4,2.49e-4 c 0.00253,0.00166 0.024279,0.013696 0.074581,-0.018054 C 5.6171646,1.904842 6.2077519,1.6073632 6.8210127,1.3633738 7.0036685,1.2872358 7.1885033,1.2160165 7.3755792,1.1496528 9.1946295,0.49424566 11.15211,0.31998176 13.058293,0.64370726 c 0.742669,0.1300504 1.468947,0.340721 2.165965,0.62825774 2.033955,0.8385547 3.83479,2.3214103 4.89336,4.2693223 1.153172,2.1306366 1.533176,4.7457157 0.908473,7.0982157 -0.379381,1.386635 -1.067516,2.66944 -2.012869,3.75234 -0.967758,1.117151 -2.158333,2.019598 -3.495332,2.64943 -1.369427,0.64686 -2.863289,0.9876 -4.377707,0.99852 -0.04794,0.130797 -0.08896,0.264209 -0.122331,0.399551 -0.01121,0.03735 -0.01494,0.0767 -0.02801,0.114238 -0.03735,0.101102 -0.151715,0.08653 -0.241424,0.08492 -0.04233,0 -0.114238,-0.0081 -0.16317,-0.01307 -0.108199,0.124385 -0.200212,0.261969 -0.273922,0.409388 v 0.01494 c -0.114175,0.247962 -0.184336,0.396253 -0.101164,0.605118 0.02801,0.07383 0.03735,0.153334 0.02801,0.23165 -0.0013,0.07738 -0.03299,0.15128 -0.08809,0.205566 -0.06661,0.04171 -0.145552,0.05914 -0.2234949,0.04918 -0.1578162,-0.005 -0.3149475,0.02303 -0.4614955,0.08174 -0.1761191,0.096 -0.3574675,0.182095 -0.5432361,0.257797 -0.1804769,0.07906 -0.3863538,0.07601 -0.5644027,-0.0081 -0.02926,-0.01805 -0.055407,-0.04233 -0.08641,-0.05727 -0.028015,-0.01058 -0.057897,-0.01619 -0.088091,-0.01743 -0.090954,-0.003 -0.1730063,-0.05541 -0.2136587,-0.137085 -0.015564,-0.04918 -0.00934,-0.102783 0.018054,-0.146735 0.028015,-0.04918 0.076511,-0.05043 0.1287431,-0.0442 0.03673,0.0068 0.073772,0.01121 0.1110004,0.01307 0.066924,-0.0011 0.1329765,-0.01556 0.194173,-0.04233 0.120899,-0.05603 0.2312146,-0.132977 0.3261533,-0.226733 0.088091,-0.08155 0.203947,-0.181161 0.3066676,-0.267633 0.1027828,-0.08647 0.1629833,-0.138455 0.2119156,-0.18415 C 9.4245,21.214421 9.5587838,21.042598 9.6639946,20.853094 9.7343426,20.705239 9.7927377,20.551905 9.838495,20.394711 l -0.05852,-0.03922 c -0.07178,-0.05354 -0.1631701,-0.112681 -0.1370853,-0.217145 0.021167,-0.06362 0.050426,-0.125568 0.078254,-0.187636 -2.4596713,-0.326282 -3.914587,-1.414479 -3.9031694,-1.412848 0.8142999,0.189877 1.6500474,0.271618 2.4856884,0.24323 -0.017431,-0.01681 -0.03175,-0.03673 -0.042333,-0.05914 -0.013696,-0.02988 -0.019921,-0.06319 -0.018054,-0.09625 -1.619e-4,-0.03548 0.014319,-0.0691 0.041088,-0.09282 0.00579,-0.0049 0.012451,-0.0087 0.019299,-0.01183 0.016186,-0.0039 0.032995,-0.0039 0.049181,0 0.077134,0.01183 0.1553882,0.01619 0.2333313,0.01183 0.054784,-0.0044 0.1094441,-0.01245 0.16317,-0.0249 l 0.084667,-0.02117 0.1353421,-0.04233 c 0.043578,-0.01743 0.085165,-0.03922 0.124074,-0.06524 0.1016622,-0.06039 0.1962896,-0.132167 0.2820768,-0.213721 0.149723,-0.128183 0.2804583,-0.277097 0.3881592,-0.442134 0,-0.01 0.014941,-0.02926 0.021167,-0.04607 0.084978,-0.233145 0.1514662,-0.472577 0.1989044,-0.716149 l 0.028015,-0.145241 -0.014942,-0.0081 c -0.092947,-0.05852 -0.1990911,-0.140447 -0.16317,-0.272552 0.028015,-0.08479 0.042333,-0.08958 0.073585,-0.172819 0.031127,-0.08317 0.071718,-0.246468 0.1043392,-0.373716 l 0.114238,-0.446869 c -0.05603,0.0051 -0.111188,0.01868 -0.1631704,0.04047 -0.1304862,0.05728 -0.2447862,0.138641 -0.3736538,0.200647 0.031127,0.110938 0.062255,0.223744 0.089834,0.336301 0.011828,0.0442 0.00494,0.0917 -0.019922,0.130424 -0.024279,0.03984 -0.063687,0.06879 -0.1092573,0.07975 H 9.509167 c -0.077507,-0.0033 -0.1438088,-0.05665 -0.16317,-0.13198 -0.03424,-0.138642 -0.073398,-0.277408 -0.1141755,-0.41605 -0.019299,-0.01681 -0.036108,-0.03611 -0.050427,-0.05727 -0.095499,0.0093 -0.1827803,-0.05478 -0.2023283,-0.148415 -0.091204,-0.03486 -0.1479176,-0.126378 -0.1385794,-0.223558 -0.049181,-0.0081 -0.078379,-0.05727 -0.097989,-0.106082 -0.052294,-0.130548 0.065305,-0.228475 0.16317,-0.267634 0.015564,-0.0056 0.032373,-0.0093 0.049181,-0.01121 C 8.8906648,14.797557 8.8221844,14.629096 8.7493462,14.461568 8.6235291,14.42795 8.6032963,14.357913 8.6024247,14.350816 v -2.42e-4 C 8.4855723,14.35048 8.4423052,14.218157 8.4470988,14.204026 l 3.299e-4,-2.43e-4 C 8.28457,14.19071 8.2845077,13.986638 8.2845077,13.986638 c -0.068854,-0.01743 -0.1146112,-0.08267 -0.1075764,-0.153334 0,-0.04047 0.045446,-0.07489 0.1009151,-0.102658 0.03424,-0.01681 0.069788,-0.0305 0.1060824,-0.04233 C 8.0456351,13.048518 7.6516426,12.439808 7.2064331,11.869267 6.3259617,10.742136 5.300269,9.7365885 4.1559432,8.8788781 3.1994839,8.1521769 2.1656917,7.5333758 1.0733798,7.0337243 0.3805078,8.5529738 0.014804,10.200973 0,11.870749 v 0.130424 c -8.0999084e-5,6.627033 5.3710902,11.999325 11.996741,11.999244 l -0.0017,-0.0017 C 18.779984,24.00335 24.218609,18.383675 23.99324,11.601042 23.767877,4.8184147 17.968224,-0.42770574 11.198534,0.02753326 Z M 10.0721,1.4459301 C 9.3856465,1.4172931 8.6608005,1.4652291 7.9007182,1.5998241 6.7922202,1.8047672 5.7283461,2.2028872 4.7576056,2.7760867 3.7147054,3.3773444 2.8156514,4.1991341 2.1232525,5.1840127 1.7707031,5.6946895 1.4582271,6.2318933 1.1886821,6.7908618 c 1.1007474,0.5190812 2.1498606,1.1412129 3.13327,1.85819 1.183204,0.8527175 2.2421905,1.8657732 3.1465553,3.0100922 v -0.0017 c 0.3826186,0.490693 0.7287744,1.008716 1.0357283,1.549973 v -0.01308 c 0.00406,-0.04109 0.031127,-0.07689 0.070161,-0.09158 0.032373,-0.0059 0.064621,0.01121 0.078254,0.04109 0.024279,0.03922 0.042333,0.08006 0.070161,0.115919 0.028637,0.04918 0.071095,0.08828 0.1223308,0.112494 0.052294,0.01805 0.12065,0.03611 0.1745005,0.05229 l 0.1417543,0.04233 c 0.093009,0.02179 0.1775509,0.07078 0.2431676,0.140323 0.032995,0.04669 0.068107,0.09127 0.1058333,0.13391 0.049804,0.0442 0.1046504,0.08224 0.16317,0.113927 0.276723,0.149785 0.5874998,0.225113 0.9020728,0.218639 0.14107,-0.265704 0.423832,-0.42489 0.724125,-0.407645 0.223433,0.0093 0.43292,0.111374 0.577414,0.282139 0.469465,-0.108572 0.894934,-0.357218 1.220078,-0.712949 0.05043,-0.05043 0.119032,-0.123887 0.200586,-0.195729 l -0.179419,-0.238063 h -0.282326 c -0.08697,-1.55e-4 -0.172944,-0.01805 -0.252755,-0.05229 -0.06966,-0.02864 -0.12121,-0.08952 -0.138579,-0.162983 v -0.122331 c 0,-0.03922 -0.0668,-0.05229 -0.08641,-0.08 -0.01494,-0.02615 -0.01494,-0.05852 0,-0.08492 0,0 0.02552,-0.03299 0.03299,-0.03611 l -0.01,-0.0093 c -0.03424,-0.02615 -0.0719,-0.05043 -0.05852,-0.101164 0.01307,-0.05043 0.07495,-0.05541 0.04233,-0.106082 -0.01307,-0.01743 -0.02864,-0.03362 -0.04545,-0.04731 -0.04794,-0.02926 -0.08348,-0.07495 -0.09942,-0.128743 0,-0.08317 0.140198,-0.177987 0.216834,-0.251386 0.04856,-0.03984 0.07402,-0.10079 0.06842,-0.16317 -0.01681,-0.07533 -0.02988,-0.151587 -0.03922,-0.228223 v -0.120837 c -0.04296,0.06238 -0.111997,0.102036 -0.187575,0.107826 0.08112,-0.09569 0.11623,-0.222063 0.09625,-0.345888 0.0019,-0.117226 0.05354,-0.228165 0.142004,-0.305049 -0.124385,-0.06375 -0.195605,0.06674 -0.206251,0.07632 h -3.23e-4 l -3.3e-4,2.55e-4 h -3.24e-4 -3.3e-4 c 0.0038,-0.214281 0.193924,-0.376953 0.406151,-0.347631 -0.104401,-0.06562 -0.169707,-0.178609 -0.1745,-0.3018115 0.04171,0.054785 0.09855,0.096619 0.16317,0.1208365 0.07371,0.0249 0.150407,0.04047 0.228164,0.04545 0.0785,0.0014 0.15682,-0.0068 0.233331,-0.02428 0.104401,-0.0193 0.207247,-0.04233 0.311586,-0.0635 0.304613,-0.1087594 0.643149,-0.06163 0.906754,0.125568 -0.04296,-0.05416 -0.05914,-0.125008 -0.0442,-0.192554 0.02303,0.06362 0.07016,0.08971 0.122331,0.148415 0.12258,0.09998 0.250576,0.193115 0.38349,0.278902 0.09413,0.08884 0.162361,0.201581 0.197411,0.326216 0.128743,-0.02553 0.255556,0.05167 0.291913,0.177986 -0.163108,-0.102782 -0.137023,0.208866 -0.135342,0.280645 0.0081,0.138144 -0.0011,0.276786 -0.02801,0.412564 -0.08187,0.312083 -0.288241,0.576916 -0.570753,0.732634 -0.06755,0.02926 -0.12451,0.079 -0.16317,0.141754 -0.005,0.01681 -0.005,0.03424 0,0.05043 0.02926,-0.01556 0.06039,-0.02801 0.09307,-0.03611 0.07178,-0.0193 0.255992,-0.06362 0.282077,0.0442 0.01432,0.07857 0.03611,0.155637 0.06524,0.22997 0.0193,0.02428 0.0767,0.07022 0.132167,0.137147 0.03362,0.03548 0.06605,0.07222 0.09625,0.110752 0.0805,0.101724 0.15103,0.211106 0.210421,0.326402 0.08411,0.167216 0.1524,0.341904 0.203823,0.521945 0.06973,0.243416 0.118907,0.492311 0.146921,0.743971 0.02303,0.192554 0.03735,0.386602 0.04047,0.580775 v 0.262653 c 0.473324,-0.52375 0.873306,-1.109357 1.189069,-1.740764 0.571251,-1.173026 0.869054,-2.460358 0.871065,-3.7651328 C 17.801369,5.6035796 14.87697,1.6467644 10.071807,1.4460235 Z M 9.4306755,14.445418 c -0.059142,3.8e-5 -0.1187823,0.0028 -0.1779245,0.0081 v 0.0081 H 9.1222648 c 0.047936,0.114176 0.094005,0.229534 0.1385794,0.345888 0.00747,-0.03051 0.026147,-0.05728 0.052294,-0.07508 0.089149,-0.03984 0.1937372,-0.02241 0.2643342,0.04545 0.1987176,0.144058 0.4452465,0.206064 0.6884335,0.173069 0.02615,-0.09463 0.05043,-0.190998 0.07657,-0.285563 -0.112557,-0.03237 -0.225176,-0.06686 -0.33767,-0.104333 -0.1285566,-0.04794 -0.2611595,-0.08386 -0.3962526,-0.107577 -0.059142,-0.0055 -0.1183466,-0.0081 -0.1777377,-0.0081 z m 3.8817605,0.349312 c -0.217207,0.08199 -0.439457,0.150097 -0.665299,0.203885 0.238125,0.326278 0.489323,0.652487 0.733966,0.968985 l 0.162921,0.179481 c 0.02179,-0.148665 0.03486,-0.298388 0.03922,-0.448547 0.0062,-0.318371 -0.08548,-0.631028 -0.262653,-0.895617 v -0.0081 z m -1.994659,1.063519 c -0.03922,0.217021 -0.148415,0.815776 -0.148415,0.967504 0.0013,0.0193 0.0013,0.03798 0,0.05728 -0.01619,0.122331 -0.137023,0.133848 -0.231589,0.153334 -0.0442,0.01 -0.140322,0.01432 -0.184336,0.0193 h -0.0081 c -0.02615,0.05852 -0.05043,0.119155 -0.0719,0.181223 -0.10602,0.308349 -0.262529,0.626359 -0.15159,0.937963 0.440328,-0.342464 0.907801,-0.648496 1.397784,-0.915065 -0.07701,-0.139016 -0.146112,-0.282326 -0.206997,-0.429061 -0.05354,-0.130549 -0.102721,-0.262716 -0.148416,-0.394883 l -0.0049,-0.0017 c -0.03237,-0.09295 -0.143623,-0.349064 -0.241425,-0.575858 z"/></svg>