<svg viewBox="0 0 24 24" xmlns="http://www.w3.org/2000/svg"><path d="M 11.633957,4.9534932 A 5.5485105,5.5485105 0 0 0 8.7585179,5.9903279 L 8.75863,5.99044 C 8.7598,5.9912119 8.769836,5.99667 8.792871,5.98172 A 5.2052648,5.2052648 0 0 1 9.6092016,5.5706443 c 0.084481,-0.035486 0.1699586,-0.068108 0.2564943,-0.0988 a 5.1909315,5.1909315 0 0 1 2.6282951,-0.2339577 4.7978962,4.7978962 0 0 1 1.001772,0.290486 c 0.940724,0.3877298 1.773621,1.0734414 2.263214,1.9741785 0.533346,0.9852309 0.709107,2.1944709 0.420165,3.2822929 a 4.4063698,4.4063698 0 0 1 -0.930969,1.735126 4.9035103,4.9035103 0 0 1 -1.616611,1.225122 4.822791,4.822791 0 0 1 -2.024724,0.461752 1.7479129,1.7479129 0 0 0 -0.05665,0.184775 c -0.0053,0.01743 -0.0069,0.03549 -0.01307,0.05292 -0.01743,0.04669 -0.07016,0.03984 -0.111687,0.03922 -0.01992,0 -0.05292,-0.0038 -0.07545,-0.006 a 0.90526343,0.90526343 0 0 0 -0.126691,0.189319 v 0.0069 c -0.05292,0.114675 -0.08529,0.183281 -0.04669,0.27984 a 0.22631584,0.22631584 0 0 1 0.01307,0.107142 0.13654388,0.13654388 0 0 1 -0.04047,0.09506 0.15766669,0.15766669 0 0 1 -0.103345,0.02241 0.52807034,0.52807034 0 0 0 -0.213475,0.03798 2.4728779,2.4728779 0 0 1 -0.251265,0.119158 0.31457903,0.31457903 0 0 1 -0.261039,-0.0039 c -0.0137,-0.0081 -0.02553,-0.01992 -0.03984,-0.02615 a 0.1372983,0.1372983 0 0 0 -0.04047,-0.0081 0.11466672,0.11466672 0 0 1 -0.0988,-0.06338 0.08147368,0.08147368 0 0 1 0.0081,-0.06786 c 0.01307,-0.02242 0.03549,-0.02366 0.05977,-0.02055 a 0.3673861,0.3673861 0 0 0 0.05105,0.006 0.23159657,0.23159657 0 0 0 0.08984,-0.01992 0.53787738,0.53787738 0 0 0 0.150846,-0.104839 c 0.04047,-0.03798 0.09432,-0.08373 0.141819,-0.123764 0.04731,-0.03984 0.07539,-0.064 0.09799,-0.08517 a 0.95656173,0.95656173 0 0 0 0.18407,-0.235311 1.412211,1.412211 0 0 0 0.08068,-0.211982 l -0.02739,-0.01805 c -0.033,-0.0249 -0.07545,-0.0523 -0.06338,-0.100418 0.01,-0.02926 0.02366,-0.0579 0.03611,-0.08672 C 9.812859,14.014461 9.1399474,13.511296 9.1452329,13.512055 a 4.4056154,4.4056154 0 0 0 1.1496491,0.112497 0.09128073,0.09128073 0 0 1 -0.0193,-0.02739 0.09429827,0.09429827 0 0 1 -0.0081,-0.0442 0.05733333,0.05733333 0 0 1 0.01868,-0.04296 0.03168421,0.03168421 0 0 1 0.0087,-0.0053 0.04752634,0.04752634 0 0 1 0.02241,0 0.51524581,0.51524581 0 0 0 0.10789,0.0053 0.54089493,0.54089493 0 0 0 0.07545,-0.01121 l 0.03922,-0.01 0.06263,-0.0193 a 0.3017545,0.3017545 0 0 0 0.05728,-0.02988 0.73552656,0.73552656 0 0 0 0.130488,-0.0988 0.95882486,0.95882486 0 0 0 0.179546,-0.204449 c 0,-0.0045 0.0068,-0.0137 0.01,-0.02117 a 2.18772,2.18772 0 0 0 0.09201,-0.331139 l 0.01307,-0.06717 -0.0069,-0.0038 c -0.04296,-0.02739 -0.09208,-0.06493 -0.07545,-0.126006 0.01307,-0.03922 0.01992,-0.04171 0.03424,-0.07994 0.01432,-0.0386 0.03299,-0.11399 0.04856,-0.172822 l 0.05292,-0.206628 a 0.25347373,0.25347373 0 0 0 -0.07545,0.01868 c -0.06039,0.02615 -0.113181,0.06412 -0.172822,0.09276 0.01432,0.05105 0.02864,0.10347 0.04171,0.155516 a 0.07543859,0.07543859 0 0 1 -0.0093,0.06039 0.08147368,0.08147368 0 0 1 -0.05043,0.03673 h -0.01868 a 0.08147368,0.08147368 0 0 1 -0.07545,-0.06101 c -0.01556,-0.06412 -0.03424,-0.128247 -0.05292,-0.192371 a 0.12900002,0.12900002 0 0 1 -0.02303,-0.02615 0.08675441,0.08675441 0 0 1 -0.09357,-0.06867 0.10033336,0.10033336 0 0 1 -0.06406,-0.103345 c -0.02241,-0.0038 -0.03611,-0.02615 -0.04545,-0.04918 -0.02428,-0.06039 0.0305,-0.105648 0.07545,-0.123765 a 0.10561409,0.10561409 0 0 1 0.02241,-0.0052 c -0.02988,-0.07844 -0.06163,-0.156382 -0.09506,-0.233829 -0.0579,-0.01556 -0.06755,-0.04794 -0.06798,-0.05105 v -1.12e-4 c -0.05416,-4.3e-5 -0.07409,-0.06101 -0.07184,-0.06773 l 1.12e-4,-1.12e-4 c -0.07533,-0.0061 -0.07533,-0.100419 -0.07533,-0.100419 a 0.06638596,0.06638596 0 0 1 -0.0498,-0.07091 c 0,-0.01868 0.02117,-0.03486 0.04669,-0.04731 a 0.38096505,0.38096505 0 0 1 0.04917,-0.0193 A 5.6910895,5.6910895 0 0 0 9.7879815,10.430183 7.489546,7.489546 0 0 0 8.377188,9.0473981 7.5438618,7.5438618 0 0 0 6.951478,8.1941809 5.5070193,5.5070193 0 0 0 6.4550494,10.430867 v 0.06039 a 5.5485105,5.5485105 0 0 0 5.5485766,5.548577 l -7.97e-4,-7.97e-4 A 5.5485105,5.5485105 0 1 0 11.634461,4.9545142 Z m -0.520833,0.655704 c -0.317506,-0.013074 -0.652735,0.00872 -1.004275,0.071158 A 4.4508786,4.4508786 0 0 0 8.6551357,6.2242851 3.8239837,3.8239837 0 0 0 7.4367254,7.3377321 5.5530368,5.5530368 0 0 0 7.0044827,8.0807564 8.9115642,8.9115642 0 0 1 8.4536445,8.9400061 7.279827,7.279827 0 0 1 9.9089448,10.331899 v -7.97e-4 a 5.8940194,5.8940194 0 0 1 0.4790592,0.716727 v -0.006 a 0.05054389,0.05054389 0 0 1 0.03237,-0.04233 0.03319298,0.03319298 0 0 1 0.03611,0.01868 c 0.01121,0.01805 0.01992,0.03673 0.03237,0.05354 a 0.12900002,0.12900002 0 0 0 0.05665,0.0523 c 0.02428,0.0081 0.05603,0.01681 0.08075,0.02428 l 0.06555,0.0193 a 0.22631584,0.22631584 0 0 1 0.112496,0.06487 0.71666688,0.71666688 0 0 0 0.04918,0.06163 0.40736853,0.40736853 0 0 0 0.07545,0.05292 0.84038624,0.84038624 0 0 0 0.417239,0.101104 0.35607028,0.35607028 0 0 1 0.334937,-0.18851 0.36964923,0.36964923 0 0 1 0.267077,0.130488 1.1006495,1.1006495 0 0 0 0.564288,-0.329707 c 0.02366,-0.02366 0.05479,-0.05727 0.09276,-0.09052 l -0.08297,-0.110072 h -0.13055 a 0.29647376,0.29647376 0 0 1 -0.116917,-0.02428 0.10863164,0.10863164 0 0 1 -0.06406,-0.07539 v -0.05665 c 0,-0.01805 -0.03113,-0.02428 -0.03984,-0.03673 a 0.03922807,0.03922807 0 0 1 0,-0.03922 c 0,0 0.01183,-0.01556 0.01556,-0.01681 l -0.0047,-0.0044 c -0.01556,-0.01183 -0.033,-0.02366 -0.02739,-0.04669 0.006,-0.02366 0.03486,-0.02553 0.0193,-0.04918 a 0.11843862,0.11843862 0 0 0 -0.02117,-0.02179 0.10410532,0.10410532 0 0 1 -0.04607,-0.05977 c 0,-0.0386 0.06481,-0.0823 0.100294,-0.116232 a 0.08750883,0.08750883 0 0 0 0.03175,-0.07545 1.0561407,1.0561407 0 0 1 -0.01805,-0.105524 v -0.05603 a 0.1161755,0.1161755 0 0 1 -0.08672,0.0498 0.19840359,0.19840359 0 0 0 0.0442,-0.1599351 0.19085973,0.19085973 0 0 1 0.06568,-0.1410719 c -0.05728,-0.02926 -0.09046,0.031128 -0.09538,0.035486 h -1.19e-4 l -1.12e-4,1.12e-4 h -1.12e-4 -1.12e-4 a 0.16521055,0.16521055 0 0 1 0.187826,-0.1607447 0.17275447,0.17275447 0 0 1 -0.08075,-0.1395777 0.17049128,0.17049128 0 0 0 0.07545,0.05603 0.40812294,0.40812294 0 0 0 0.105524,0.021167 0.44735101,0.44735101 0 0 0 0.107889,-0.011206 c 0.04856,-0.00934 0.09581,-0.019299 0.144123,-0.02926 a 0.45791241,0.45791241 0 0 1 0.419356,0.057898 0.10561409,0.10561409 0 0 1 -0.02054,-0.089026 c 0.01058,0.02926 0.03237,0.041711 0.05665,0.068668 a 1.9817726,1.9817726 0 0 0 0.177367,0.1289942 0.33042116,0.33042116 0 0 1 0.09133,0.1508461 0.11692985,0.11692985 0 0 1 0.135033,0.082302 c -0.07545,-0.047315 -0.06338,0.096559 -0.06263,0.1298031 a 0.75891249,0.75891249 0 0 1 -0.01307,0.190815 0.54466683,0.54466683 0 0 1 -0.263965,0.338796 0.16747374,0.16747374 0 0 0 -0.07545,0.06556 0.04073684,0.04073684 0 0 0 0,0.02366 0.185579,0.185579 0 0 1 0.04296,-0.01681 c 0.033,-0.0093 0.11841,-0.02926 0.130488,0.02054 a 0.57031595,0.57031595 0 0 0 0.02988,0.106334 c 0.0093,0.01121 0.03549,0.03237 0.06101,0.06338 a 0.67064931,0.67064931 0 0 1 0.0442,0.05105 0.92864942,0.92864942 0 0 1 0.09731,0.15097 1.3805267,1.3805267 0 0 1 0.09426,0.241366 2.0873866,2.0873866 0 0 1 0.06798,0.344026 c 0.01058,0.08903 0.01743,0.178799 0.01868,0.268572 v 0.121463 a 3.6067205,3.6067205 0 0 0 0.549991,-0.80495 3.9899486,3.9899486 0 0 0 0.402858,-1.7410429 c 0.01494,-2.0178882 -1.337294,-3.8475644 -3.559718,-3.940388 z m -0.29665,6.0111068 a 0.88791258,0.88791258 0 0 0 -0.0823,0.0039 v 0.0038 h -0.06039 c 0.02241,0.05292 0.04358,0.106146 0.06406,0.159935 a 0.0588421,0.0588421 0 0 1 0.02428,-0.03487 0.11089476,0.11089476 0 0 1 0.12227,0.02117 0.44131592,0.44131592 0 0 0 0.318377,0.08 c 0.01183,-0.04358 0.02304,-0.08828 0.03549,-0.132044 -0.05229,-0.01494 -0.104154,-0.03113 -0.1562,-0.04856 a 1.0425617,1.0425617 0 0 0 -0.183281,-0.0498 0.88791258,0.88791258 0 0 0 -0.08218,-0.0039 z m 1.795342,0.161554 a 2.5302113,2.5302113 0 0 1 -0.307731,0.09426 c 0.110131,0.150908 0.226301,0.301692 0.339482,0.448056 l 0.07533,0.08299 a 1.8565444,1.8565444 0 0 0 0.01805,-0.207436 0.71893007,0.71893007 0 0 0 -0.121462,-0.414127 v -0.0038 z m -0.922545,0.491759 c -0.01805,0.100357 -0.06867,0.377209 -0.06867,0.447371 a 0.19538605,0.19538605 0 0 1 0,0.02615 c -0.0075,0.05665 -0.06338,0.06163 -0.107142,0.07091 -0.02054,0.0045 -0.06487,0.0069 -0.08523,0.0087 h -0.0038 c -0.01183,0.02739 -0.02366,0.05541 -0.033,0.0838 -0.04918,0.142566 -0.1214,0.289615 -0.0701,0.433737 a 4.7526331,4.7526331 0 0 1 0.646483,-0.423156 1.9614041,1.9614041 0 0 1 -0.09575,-0.198409 c -0.0249,-0.06039 -0.04731,-0.121524 -0.06867,-0.182597 l -0.0023,-7.97e-4 c -0.01494,-0.04296 -0.06643,-0.16143 -0.111686,-0.266268 z m 2.248758,4.628197 -0.684168,1.379037 -0.01058,0.01805 -0.494872,-1.091588 c -0.06263,-0.135034 -0.04669,-0.150909 0.146363,-0.170519 l 0.167469,-0.0137 v -0.110877 h -1.62948 v 0.110877 c 0.239872,0.01992 0.33419,0.01992 0.475261,0.293475 l 0.06406,0.125196 H 11.195818 L 10.613414,18.407349 9.9472384,17.442457 H 9.0517868 v 0.08068 c 0.3017544,0.01681 0.3312014,0.0579 0.3017544,0.365193 l -0.042334,0.49176 a 2.7912289,2.7912289 0 0 1 -0.061011,0.426328 c -0.00685,0.02553 -0.010584,0.05728 -0.032996,0.06163 -0.022412,0.0045 -0.083734,-0.08753 -0.1335389,-0.176558 C 8.9448311,18.443283 8.7871992,18.15591 8.6310614,17.865486 L 8.3821,17.405353 l -0.2526967,0.03362 -0.7317497,1.259051 -0.02428,0.03984 a 0.43075452,0.43075452 0 0 1 -0.085291,0.09208 c -0.081493,0.05914 -0.2934121,0.07539 -0.4420169,0.07539 a 0.91808802,0.91808802 0 0 1 -0.2603542,-0.02179 c -0.067112,-0.02179 -0.075392,-0.08822 -0.075392,-0.214908 v -0.392274 h 0.1855849 c 0.3198708,0 0.330392,0.01 0.367372,0.226301 h 0.170519 V 17.927792 H 7.0701246 c -0.036731,0.184837 -0.04856,0.194674 -0.3674966,0.194674 H 6.5164206 v -0.464678 c 0,-0.08523 0.00747,-0.09731 0.150846,-0.09731 h 0.063376 c 0.1969155,0 0.3190616,0.01432 0.3771463,0.05603 a 0.42622821,0.42622821 0 0 1 0.1335389,0.235389 l 0.163672,-0.0075 c -0.018677,-0.1825 -0.036731,-0.360552 -0.040466,-0.402015 H 5.606875 v 0.08068 c 0.2489613,0.01432 0.2783461,0.04607 0.2783461,0.308603 v 0.804153 c 0,0.185585 -0.014941,0.248899 -0.1244495,0.274549 a 0.23838602,0.23838602 0 0 1 -0.117726,0 0.26101766,0.26101766 0 0 1 -0.084481,-0.04918 C 5.4994213,18.812006 5.4189866,18.730015 5.29379,18.600274 5.1874569,18.488649 5.0515523,18.320371 4.9995064,18.251703 c 0.2723073,-0.07091 0.4738296,-0.1976 0.4738296,-0.411885 0,-0.14406 -0.1101929,-0.253568 -0.2573036,-0.314641 -0.1471107,-0.06101 -0.3341897,-0.08299 -0.6208782,-0.08299 H 3.3987203 A 1.1474214,1.1474214 0 0 0 3.1173236,17.200076 C 2.7642703,16.988095 2.2271637,16.910337 1.579142,16.910337 H 0.04148381 v 0.126815 c 0.3424694,0.01992 0.3847411,0.04233 0.3847411,0.394578 v 1.075658 c 0,0.352306 -0.042334,0.392337 -0.426204104885,0.41201 v 0.104838 H 1.3571935 c 1.216829,0 2.2118714,-0.344835 2.2118714,-1.155793 a 0.6246318,0.6246318 0 0 0 -0.099609,-0.328898 h 0.032996 a 0.65103527,0.65103527 0 0 1 0.099609,0.006 0.15917546,0.15917546 0 0 1 0.06568,0.02988 c 0.046069,0.04171 0.054785,0.116979 0.054785,0.258051 v 0.804153 c 0,0.26328 -0.02926,0.290486 -0.2904238,0.301755 v 0.08448 h 1.1625107 v -0.08448 c -0.253444,-0.01491 -0.282891,-0.0423 -0.282891,-0.301719 V 18.345 h 0.047314 a 0.17954391,0.17954391 0 0 1 0.1509705,0.08741 c 0.1304884,0.193117 0.268572,0.414188 0.4850358,0.520583 a 1.0304916,1.0304916 0 0 0 0.4661722,0.07545 H 7.88813 v -0.08461 H 7.7824823 c -0.1682155,-0.01182 -0.1719508,-0.05416 -0.120652,-0.15912 l 0.1100685,-0.2263 h 0.603571 L 8.50739,18.802145 c 0.047314,0.08753 0.039844,0.129679 -0.09494,0.141756 H 8.3030663 v 0.08461 h 1.6151361 v -0.08461 C 9.6707973,18.932073 9.5870008,18.8997 9.5719349,18.809678 a 1.7350883,1.7350883 0 0 1 -0.00747,-0.402049 l 0.026148,-0.540941 h 0.00747 l 0.7128551,1.161832 h 0.173507 l 0.750644,-1.247098 h 0.01494 l 0.01121,0.857768 c 0.0038,0.270813 -0.0075,0.287435 -0.292665,0.301754 v 0.08448 h 1.191205 v -0.07545 c -0.273864,-0.01743 -0.281459,-0.04233 -0.292789,-0.312275 l -0.0386,-0.816219 c -0.01,-0.22107 6e-6,-0.271622 0.190129,-0.29198 l 0.775578,1.499023 h 0.402049 L 13.896251,17.7113 h 0.01058 l 0.768069,1.317223 h 0.402049 c 0.150908,-0.327404 0.301692,-0.612661 0.427698,-0.875188 a 0.56654405,0.56654405 0 0 0 -0.0046,0.06867 c 0,0.44208 0.499417,0.829878 1.270431,0.829878 0.724211,0 1.275711,-0.349318 1.288536,-0.854014 v 0.445129 c 0,0.259483 -0.03051,0.284448 -0.295778,0.301755 v 0.08598 h 1.207026 v -0.08598 c -0.257988,-0.01432 -0.288244,-0.03922 -0.288244,-0.301754 v -0.305565 h 0.04856 a 0.18407023,0.18407023 0 0 1 0.157009,0.08672 2.3468955,2.3468955 0 0 0 0.301754,0.395263 0.70987744,0.70987744 0 0 0 0.41257,0.199219 2.0647551,2.0647551 0 0 0 0.239935,0.0087 h 1.28239 v -0.08449 c -0.264028,-0.01432 -0.301692,-0.03922 -0.29335,-0.301754 v -0.38468 h 0.0075 c 0.27156,0.261786 0.658524,0.61403 0.799596,0.767952 h 0.916625 a 2.6886324,2.6886324 0 0 0 0.377146,0.03362 h 0.110193 c 0.584645,0 0.958062,-0.216526 0.958062,-0.512242 0,-0.281396 -0.301754,-0.406593 -0.645008,-0.504646 l 0.0038,0.0046 -0.08299,-0.02428 c -0.245164,-0.06711 -0.388539,-0.139578 -0.388539,-0.259545 0,-0.119967 0.135842,-0.201398 0.328213,-0.201398 a 0.53259665,0.53259665 0 0 1 0.512926,0.321365 l 0.165974,-0.01681 c -0.04171,-0.163733 -0.06792,-0.281334 -0.08299,-0.377146 -0.04918,-0.01 -0.109383,-0.01868 -0.196168,-0.033 a 2.0466497,2.0466497 0 0 0 -0.346952,-0.02864 c -0.592178,0 -0.905245,0.221008 -0.905245,0.492569 0,0.257241 0.346953,0.384803 0.660038,0.473767 l 0.05665,0.01681 c 0.233834,0.06263 0.377271,0.146301 0.377271,0.28812 0,0.156138 -0.15097,0.226301 -0.34938,0.226301 a 0.78456168,0.78456168 0 0 1 -0.669206,-0.398312 l -0.165974,0.03175 c 0.03424,0.119967 0.06948,0.221756 0.09811,0.312276 l 0.01432,0.04669 -0.05043,-0.01121 a 0.78607045,0.78607045 0 0 1 -0.309281,-0.187142 c -0.233895,-0.202207 -0.479059,-0.4526 -0.709898,-0.678932 0.156138,-0.117663 0.341785,-0.240619 0.542436,-0.365068 0.200651,-0.12445 0.308478,-0.126006 0.520459,-0.140387 v -0.09799 h -0.995739 v 0.08137 h 0.141072 c 0.100356,0.0075 0.05977,0.07552 0.0075,0.116231 -0.215779,0.182535 -0.442079,0.360587 -0.713645,0.55744 v -0.377146 c 0,-0.259483 0.02926,-0.284447 0.274548,-0.301754 v -0.08149 h -1.154914 v 0.08149 c 0.260292,0.01432 0.289614,0.03922 0.289614,0.301754 v 0.819973 a 0.69554408,0.69554408 0 0 1 -0.02054,0.208183 c -0.02428,0.06263 -0.104839,0.07545 -0.162924,0.06487 a 0.36135102,0.36135102 0 0 1 -0.193827,-0.12671 c -0.05727,-0.06101 -0.114675,-0.12227 -0.173507,-0.182596 -0.107889,-0.110878 -0.24672,-0.294159 -0.301817,-0.361334 0.276853,-0.07016 0.482795,-0.195421 0.482795,-0.406655 0,-0.141819 -0.112372,-0.258736 -0.261724,-0.319062 -0.149352,-0.06039 -0.340291,-0.07545 -0.632258,-0.07545 H 17.77613 l 0.02428,0.08149 c 0.250456,0.01432 0.256495,0.03922 0.256495,0.301692 v 0.341723 c -0.01307,-0.467729 -0.59747,-0.78298 -1.287733,-0.78298 -0.548412,0 -0.863788,0.162924 -1.069737,0.377146 0.126006,-0.246658 0.209616,-0.403605 0.220946,-0.422468 0.177305,-0.290424 0.226363,-0.286689 0.516849,-0.313832 v -0.110878 h -1.247776 v 0.110878 l 0.198409,0.0137 c 0.2263,0.0137 0.240681,0.04047 0.172013,0.2263 -0.06867,0.185585 -0.266268,0.655561 -0.4526,1.04105 l -0.01058,-0.01806 -0.793675,-1.379036 z M 1.5029346,17.074512 a 0.75438618,0.75438618 0 0 1 0.076014,0 c 0.447371,0 1.02147,0.195422 1.02147,0.896249 0,0.577112 -0.4580167,0.905238 -0.9113891,0.905238 l 7.969e-4,-6.79e-4 c -0.2526967,0 -0.3688662,-0.07552 -0.3688662,-0.362952 v -1.252215 c 0,-0.08149 0.00525,-0.1562 0.031751,-0.162986 a 0.75438618,0.75438618 0 0 1 0.1502856,-0.02241 z m 15.2709134,0.433052 c 0.32815,0 0.576365,0.231655 0.576365,0.714449 0,0.340976 -0.249024,0.68804 -0.577175,0.68804 l -6.85e-4,-7.97e-4 c -0.377208,0 -0.562793,-0.381691 -0.562793,-0.699308 0,-0.420975 0.270066,-0.702384 0.564288,-0.702384 z m 2.070712,0.033 c 0.156885,0 0.377271,0.103283 0.377271,0.334128 a 0.33419306,0.33419306 0 0 1 -0.209678,0.307793 h -0.0023 a 0.66310545,0.66310545 0 0 1 -0.280586,0.04047 h -0.05292 v -0.562046 c 0,-0.09581 0.01121,-0.120652 0.168154,-0.120652 z m -14.3664718,0.0069 c 0.1538966,0 0.3673721,0.09581 0.3673721,0.329645 a 0.33871938,0.33871938 0 0 1 -0.2059425,0.311535 0.63293001,0.63293001 0 0 1 -0.2753579,0.04171 h -0.05105 v -0.560552 c 0,-0.09731 0.011206,-0.12227 0.1651649,-0.12227 z m 3.5855542,0.390096 h 0.011206 L 8.304884,18.397693 H 7.8371554 Z"/></svg>