<svg viewBox="0 0 24 24" xmlns="http://www.w3.org/2000/svg"><path d="m 13.0596,0.74874975 a 1.5036,1.5036 0 0 0 -2.1204,0 L 1.0608,10.62715 A 4.176,4.176 0 0 0 0,13.18915 v 9 a 1.5048,1.5048 0 0 0 1.5,1.5 H 7.3992 V 8.7599497 a 0.6,0.6 0 0 1 0.6,-0.6 h 8.0004 a 0.6,0.6 0 0 1 0.6,0.6 V 11.15995 a 0.6,0.6 0 0 1 -0.6,0.6 h -5.0004 v 1.2 h 5.0004 a 0.6,0.6 0 0 1 0.6,0.6 v 2.4 a 0.6,0.6 0 0 1 -0.6,0.6 h -5.0004 v 1.2 h 5.0004 a 0.6,0.6 0 0 1 0.6,0.6 v 2.4 a 0.6,0.6 0 0 1 -0.6,0.6 h -5.6004 a 0.6,0.6 0 0 1 0,-1.2 h 5.0004 v -1.2 h -5.0004 a 0.6,0.6 0 0 1 -0.6,-0.6 v -2.4 a 0.6,0.6 0 0 1 0.6,-0.6 h 5.0004 v -1.2 h -5.0004 a 0.6,0.6 0 0 1 -0.6,-0.6 v -2.4 a 0.6,0.6 0 0 1 0.6,-0.6 h 5.0004 V 9.3599497 H 8.5992 V 23.68915 H 22.5 a 1.5048,1.5048 0 0 0 1.5,-1.5 v -9 a 4.176,4.176 0 0 0 -1.0608,-2.562 z"/></svg>