<svg viewBox="0 0 24 24" xmlns="http://www.w3.org/2000/svg"><path d="m 16.55484,6.2823644 c -0.6028,-0.0152 -1.14193,0.15046 -1.55695,0.48603 -0.42223,0.34115 -0.92554,1.03402 -0.92554,2.39567 v 0.16879 c 0,0.005 -7.2e-4,0.01 -7.2e-4,0.0146 0,0.005 7.2e-4,0.01 7.2e-4,0.0146 v 5.5540196 c 0,0.25787 0.2089,0.46676 0.46677,0.46676 0.25787,0 0.46683,-0.20889 0.46683,-0.46676 V 9.8142644 h 2.07209 c 0.25787,0 0.46676,-0.20889 0.46676,-0.46676 0,-0.25787 -0.20889,-0.46684 -0.46676,-0.46684 h -2.06296 c 0.0435,-0.64211 0.23778,-1.118 0.56942,-1.3861 0.2334,-0.18847 0.66478,-0.38063 1.39601,-0.22357 0.25239,0.054 0.50039,-0.10623 0.55445,-0.35862 0.0541,-0.25202 -0.1063,-0.50045 -0.35869,-0.55451 l 3.6e-4,4.3e-4 c -0.21286,-0.0457 -0.42085,-0.0708 -0.62179,-0.0759 z m -13.2050997,2.40146 c -1.84707,0 -3.34973996745228,1.5025996 -3.34973996745228,3.3496796 0,1.84707 1.50266996745228,3.34967 3.34973996745228,3.34967 1.8471,0 3.34969,-1.5026 3.34969,-3.34967 0,-0.25787 -0.2089,-0.46677 -0.46677,-0.46677 h -7.2e-4 c -0.25787,0 -0.46683,0.2089 -0.46683,0.46677 0,1.33206 -1.0837,2.41615 -2.41615,2.41615 -1.33243,0 -2.41613997,-1.08372 -2.41613997,-2.41615 0,-1.33244 1.08370997,-2.4161496 2.41613997,-2.4161496 0.58771,0 1.1444,0.21073 1.58014,0.5883896 l -1.44902,1.39638 c -0.18555,0.17896 -0.19103,0.47446 -0.0121,0.66002 0.0917,0.095 0.21406,0.14281 0.33643,0.14281 0.12235,0 0.23343,-0.0435 0.32402,-0.13076 l 1.78494,-1.71995 c 0,0 0.003,-0.003 0.004,-0.004 0.004,-0.004 0.007,-0.008 0.011,-0.0117 0.007,-0.008 0.0146,-0.0154 0.0212,-0.023 0.003,-0.004 0.006,-0.008 0.009,-0.0121 0.007,-0.008 0.0131,-0.0168 0.019,-0.0255 0.002,-0.003 0.004,-0.007 0.006,-0.0103 0.006,-0.009 0.0121,-0.0193 0.0176,-0.0292 0.001,-0.003 0.003,-0.005 0.004,-0.008 0.006,-0.011 0.0113,-0.0223 0.0161,-0.0336 7.3e-4,-0.002 10e-4,-0.003 0.002,-0.005 0.005,-0.0124 0.009,-0.0249 0.0135,-0.0373 3.6e-4,-0.001 7.7e-4,-0.003 0.001,-0.004 0.004,-0.0131 0.007,-0.0263 0.01,-0.0395 0,-0.001 3.5e-4,-0.003 7.2e-4,-0.005 0.003,-0.0131 0.005,-0.0259 0.006,-0.0391 0,-0.003 -1e-5,-0.005 3.5e-4,-0.007 10e-4,-0.0124 0.002,-0.0245 0.002,-0.0369 v -0.0106 c 0,-0.0113 -4e-4,-0.0226 -0.001,-0.034 -3.7e-4,-0.004 -10e-4,-0.009 -0.002,-0.0136 -0.001,-0.0102 -0.002,-0.0208 -0.004,-0.031 -7.3e-4,-0.005 -0.002,-0.01 -0.003,-0.0146 -0.002,-0.01 -0.004,-0.0197 -0.007,-0.0292 -10e-4,-0.005 -0.003,-0.01 -0.005,-0.0146 -0.003,-0.01 -0.006,-0.0194 -0.01,-0.0289 -0.002,-0.004 -0.004,-0.009 -0.006,-0.0135 -0.004,-0.009 -0.008,-0.0194 -0.0131,-0.0285 -0.002,-0.004 -0.005,-0.008 -0.007,-0.0124 -0.005,-0.009 -0.0103,-0.0186 -0.0165,-0.0277 -0.003,-0.004 -0.006,-0.009 -0.009,-0.0128 -0.006,-0.008 -0.0117,-0.0168 -0.0183,-0.0252 -7.3e-4,-7.3e-4 -10e-4,-0.002 -0.002,-0.003 -0.63955,-0.78821 -1.58809,-1.24036 -2.60241,-1.24036 z m 4.75404,6.4e-4 c -0.25787,0 -0.46677,0.20897 -0.46677,0.46684 v 3.7193496 c 0,1.38576 1.12713,2.51296 2.5128897,2.51296 1.38577,0 2.51295,-1.12757 2.51295,-2.51296 V 9.1513044 c 0,-0.25787 -0.2089,-0.46684 -0.46676,-0.46684 -0.25787,0 -0.46684,0.20897 -0.46684,0.46684 v 3.7193496 c 0,0.87075 -0.70859,1.57935 -1.57935,1.57935 -0.8707497,0 -1.5792797,-0.7086 -1.5792797,-1.57935 V 9.1513044 c 0,-0.25787 -0.20897,-0.46684 -0.46684,-0.46684 z m 10.8504497,0.001 c -0.0607,-0.001 -0.12259,0.01 -0.18249,0.0339 -0.23924,0.0964 -0.35502,0.36856 -0.2586,0.6078 l 2.29152,5.6847796 c -0.0489,0.13807 -0.0939,0.26698 -0.13404,0.38459 -0.48652,1.428491 -1.29877,1.398541 -1.4025,1.388311 l -4.3e-4,3.6e-4 c -0.0117,-7.3e-4 -0.0233,-0.002 -0.035,-0.002 -0.25823,0 -0.46608,0.20923 -0.46791,0.46783 -0.002,0.25568 0.19838,0.46135 0.46099,0.46756 h 10e-4 0.002 0.003 c 0.003,0 0.007,-3.6e-4 0.01,-3.6e-4 0.51756,-0.007 1.69844,-0.21879 2.31243,-2.020941 0.60522,-1.77658 2.39532,-6.3279596 2.41322,-6.3739796 0.0945,-0.23972 -0.0236,-0.51036 -0.26303,-0.60523 -0.23996,-0.0946 -0.51098,0.0234 -0.60559,0.26338 -0.0559,0.14172 -1.06211,2.7009696 -1.81561,4.7200796 L 19.37874,8.9777544 c -0.0723,-0.17943 -0.24321,-0.28938 -0.42524,-0.29248 z"/></svg>