<svg viewBox="0 0 24 24" xmlns="http://www.w3.org/2000/svg"><path d="M -0.183908 1.5789838e-15 L -0.183908 21.333333 L 21.149425 21.333333 L 21.149425 1.5789838e-15 L -0.183908 1.5789838e-15 z M 18.411578 8.0815971 C 18.766735 8.0815971 19.055675 8.3551496 19.055675 8.7100693 C 19.055675 9.0671243 18.766735 9.3385415 18.411578 9.3385415 C 18.056658 9.3385415 17.767481 9.0649891 17.767481 8.7100693 C 17.767481 8.3530144 18.056658 8.0815971 18.411578 8.0815971 z M 1.5938698 8.1145832 L 5.974078 8.1145832 L 5.974078 9.4722221 L 5.1060225 9.4722221 L 5.1060225 8.9218749 L 3.0157447 8.9218749 L 3.0157447 10.279514 L 4.9150503 10.279514 L 4.9150503 11.050347 L 3.0157447 11.050347 L 3.0157447 12.420139 L 5.1060225 12.420139 L 5.1060225 11.871528 L 5.974078 11.871528 L 5.974078 13.229166 L 1.5938698 13.229166 L 1.5938698 12.420139 L 2.0747725 12.420139 L 2.0747725 8.9218749 L 1.5938698 8.9218749 L 1.5938698 8.1145832 z M 6.3369252 8.1145832 L 7.6476891 8.1145832 L 9.036578 11.723958 L 10.43762 8.1145832 L 10.972342 8.1145832 L 8.9393557 13.251736 L 8.380328 13.251736 L 6.3369252 8.1145832 z M 11.338661 8.1145832 L 14.817828 8.1145832 C 15.55329 8.1145832 16.014832 8.2559897 16.333453 8.5572915 C 16.592288 8.800943 16.729286 9.1503906 16.729286 9.6059026 C 16.729286 10.506251 16.14632 11.061625 15.378592 11.140625 L 17.185883 13.229166 L 16.270953 13.229166 L 14.548731 11.201389 L 12.083453 11.201389 L 12.083453 13.229166 L 11.338661 13.229166 L 11.338661 8.1145832 z M 12.083453 8.7395832 L 12.083453 10.576389 L 12.083453 10.578125 L 14.833453 10.578125 C 15.303912 10.578125 15.553822 10.484353 15.720606 10.309028 C 15.881224 10.140109 15.960189 9.9033114 15.960189 9.6145832 C 15.960189 9.3343959 15.870168 9.1245982 15.711925 8.9791665 C 15.534465 8.8166532 15.273501 8.7395832 14.816092 8.7395832 L 12.083453 8.7395832 z M 17.507064 9.8090276 L 18.972342 9.8090276 L 18.972342 12.53993 C 18.972342 12.839334 19.095967 12.961668 19.371647 13.100694 L 19.371647 13.229166 L 17.507064 13.229166 L 17.507064 13.100694 C 17.782981 12.963803 17.906369 12.839334 17.906369 12.53993 L 17.906369 10.583333 C 17.906369 10.31833 17.86009 10.172847 17.507064 9.9374998 L 17.507064 9.8090276 z"/></svg>