<svg viewBox="0 0 24 24" xmlns="http://www.w3.org/2000/svg"><path d="m 15.475867,17.951146 a 2.7600533,2.7600533 0 0 0 -0.326406,-0.998419 c -0.204004,-0.350407 -0.396008,-0.738014 -0.704414,-0.607212 -0.430808,0.182404 -0.0204,0.607212 0.111602,0.825616 a 2.1120408,2.1120408 0 0 1 0.319206,1.02002 c 0.128403,1.850436 -1.503629,1.954838 -1.236023,4.13888 a 2.8800557,2.8800557 0 0 0 0.578411,1.423227 c 0.0996,0.147603 0.218404,0.314406 0.465609,0.218405 0.432008,-0.166804 -0.0192,-0.654013 -0.130803,-0.840017 a 2.0880404,2.0880404 0 0 1 -0.310806,-1.020019 c -0.109202,-1.885237 1.507229,-1.902037 1.233624,-4.160481 m -5.120499,-0.0312 c -0.0432,-0.314406 -0.5292095,-1.869636 -1.0476195,-1.54683 -0.069601,0.0432 -0.1392027,0.024 -0.1632032,0.198004 -0.032401,0.240004 0.1656032,0.360007 0.3396066,0.673213 a 2.2080427,2.2080427 0 0 1 0.2808054,1.07402 c 0.040801,1.766435 -1.5396298,1.898437 -1.2324238,4.080079 0.063601,0.447609 0.5604108,1.886437 1.090821,1.54923 C 10.096163,23.646456 9.1613456,23.240848 9.1241449,22.027625 9.0689439,20.23359 10.662574,20.125588 10.355368,17.919946 m 2.56085,0.0096 a 3.000058,3.000058 0 0 0 -0.600012,-1.395627 c -0.106802,-0.153603 -0.222004,-0.280805 -0.446409,-0.177603 -0.423608,0.196803 0,0.607211 0.148803,0.849616 a 2.1600418,2.1600418 0 0 1 0.298806,1.02722 c 0.0852,1.852836 -1.506029,1.904437 -1.234824,4.122079 a 2.7600533,2.7600533 0 0 0 0.327607,0.99842 c 0.120002,0.223204 0.367207,0.763214 0.728414,0.618012 0.567611,-0.228005 -0.424809,-0.744015 -0.459609,-1.947638 -0.0432,-1.802435 1.54563,-1.904437 1.237224,-4.094479 m 1.876836,-4.226482 a 0.32520628,0.32520628 0 1 0 0.325206,0.325207 0.32400626,0.32400626 0 0 0 -0.325206,-0.325207 m 1.686032,0 a 0.32520628,0.32520628 0 1 0 0.325207,0.325207 0.32400626,0.32400626 0 0 0 -0.325207,-0.325207 m 1.682433,0 a 0.32520628,0.32520628 0 1 0 0.325206,0.325207 0.32400626,0.32400626 0 0 0 -0.325206,-0.325207 m 3.146461,-0.51721 V 12.96025 H 2.6896205 v 2.133641 H 21.289979 l 0.0204,-0.160803 z m -6.514926,1.351227 a 0.50881002,0.50881002 0 1 1 0,-1.01762 0.50881002,0.50881002 0 1 1 0,1.01762 m 1.686032,0 a 0.50881002,0.50881002 0 1 1 0,-1.01762 0.50881002,0.50881002 0 1 1 0,1.01762 m 1.680033,0 a 0.50881002,0.50881002 0 0 1 0,-1.01762 0.50881002,0.50881002 0 1 1 0,1.01762 m 1.694433,0 a 0.50881002,0.50881002 0 1 1 0,-1.01762 0.50881002,0.50881002 0 1 1 0,1.01762 m 0.0024,-0.834017 a 0.32520628,0.32520628 0 1 0 0.324006,0.325207 0.32400626,0.32400626 0 0 0 -0.324006,-0.325207 M 14.59265,-2.3203115e-7 9.4193505,0.00119978 l -0.0108,6.46212492 5.1828995,0.0024 z M 19.995154,11.785427 14.700652,7.000935 C 14.532649,6.8605323 14.241043,6.9193335 13.860636,6.9193335 h -3.664871 c -0.9108171,0 -0.6648123,-0.1632032 -1.3512256,0.4800092 L 3.5488371,12.185035 a 2.8800557,2.8800557 0 0 0 -0.4920095,0.48841 H 20.944373 a 9.6001855,9.6001855 0 0 0 -0.949219,-0.888018"/></svg>