<svg viewBox="0 0 300 300" xmlns="http://www.w3.org/2000/svg"><path d="M127.4 14.9c-5.9 1.5-12.6 5.4-18 10.5-4.1 3.9-7.6 9.2-15 22.6-18.3 33-21.5 41.8-24.9 67.5-2.2 16.9-2.1 35.9.4 96 2.6 61 2.4 59.3 6.5 61 5 2.1 60.3 11.6 70.6 12.2 9 .5 9.7.4 13-2 4.5-3.3 24.6-15.9 51.8-32.4 11.9-7.2 22.9-14.3 24.4-15.7 3.1-2.8 3.1-2.7 6.9-65.1 3-47.2 2.9-70 0-87-5.2-29.9-16.1-52.1-29.5-60.4-5.7-3.6-11.3-4.1-75.1-7.5-4.4-.2-9.4-.1-11.1.3zm29.1 3.7c8.3.2 17.5.9 20.5 1.4 3.6.7 6.7.7 9 0 1.9-.6 3.7-1 4-1 .3 0-1.6 2-4.2 4.4-4.3 4-4.7 4.6-3.9 7.3 1.3 4.6-.6 12.2-2.8 10.9-.8-.5-15.7 34.4-15.3 35.7.1.5-.6 1.7-1.8 2.7-1.1.9-2 2.6-2 3.6 0 4.3-1.2 6.6-3.2 6.1-1.1-.3-2.1 0-2.3.6-2.3 6.6-5.2 61.8-3.5 66.2.4 1.1 1-9.5 1.3-23.5.5-24.4 1.7-35.3 3.9-37.5.7-.7.8.9.4 5-1.5 14.9-2.4 36.2-2 49 .5 19.6-1.6 127.5-2.6 130.5-.5 1.5-1-12.3-1.1-33-.2-30.7-.4-33.3-.9-19-.4 9.1-.8 24.9-.9 35.2-.1 17.2-.3 18.8-1.8 18.8-1 0-8.3-1.2-16.3-2.6-8-1.4-18.5-3.2-23.5-3.9-18.8-3-28.4-5.4-28.6-7.2 0-.5-.2-1.9-.4-3.3-.6-3.9-2.6-42.2-2.3-45 .5-5.7-.1-21.1-1.1-30-.6-5.2-1-15.4-.9-22.5l.3-13 4-.5c6.9-.9 7.4-.5 7.7 6.3.4 7.4-1.2 6.8 25.1 9.6 22.4 2.5 23.1 2.3 22.1-5.2l-.7-4.7 5.9.5c3.3.3 7.4.8 9.2 1.1l3.2.5.2 10.2.2 10.2.5-10.5c.4-5.8.3-10.9 0-11.3-.4-.5-5-1.1-10.3-1.4-9.3-.6-9.6-.5-9.6 1.6 0 2.5.7 2.5-14.5.5-6.6-.8-16.1-1.8-21.2-2.1l-9.2-.6-.3-3.1c-.3-3.1-.4-3.1-8-4.1-8-1-11.3-2.4-6.2-2.6 1.7-.1 2.2-.3 1.2-.6-1.9-.5-2-1.1-1.8-11.3.6-37.6.4-35.7 4.5-47.9l3.7-11.4 15.7.7c8.6.4 23.5 1.4 33.1 2.2 9.6.8 19 1.6 20.8 1.7 3.8.2 3.7.4 18.1-29.8 5-10.4 9.5-19.1 10-19.3.5-.2 1.1 1.2 1.4 3 .3 2.7.4 2.4.5-1.3l.2-4.7-4.2-.5c-2.4-.4-17.7-1.4-34-2.4-16.4-.9-29.8-2-29.8-2.3 0-.3 2.6-1.8 5.8-3.4 5.6-2.9 16.9-4.9 21.7-3.9 1.1.2 8.8.6 17 .9zm47.5 3.3c0 .5-.8 1.2-1.7 1.4-1 .3-.2.5 1.8.6 5.4.2 13.4 4.7 18.5 10.4 4.3 5 12.4 19.8 12.4 22.8 0 .8-2.1-2.8-4.6-7.9-5.6-11.2-12.7-19.4-18.9-21.8-7.5-2.8-14.2-.7-23.3 7.2-5.8 5.1-6.6 4.9-2.5-.5 4.2-5.6 8.5-9.8 11.8-11.5 3.4-1.8 6.5-2.1 6.5-.7zm-95.9 8.8c-.5 1-2.2 2.9-3.7 4.3-2.8 2.6-2.5 1.5 1-3.3 2.2-3 4.2-3.7 2.7-1zm103.1-.8c4.4 1.7 10.9 9.5 14.7 17.6 8.5 18 9.6 21.3 12 36 1.1 7.2 2.9 27.5 3.2 35.5.3 11.2-.1 15-1.5 15-1.1 0-76.8 23-81 24.6-1 .4-1.2-4.4-.9-21.3.5-25.3 2.4-42.7 5.8-52.7 3.2-9.8 16.9-40.3 19.1-42.7.9-1 3.5-2.4 5.7-3 3.6-1 3.8-1.1 2.1-2.4-1.8-1.3-1.8-1.4-.1-1.5.9 0 1.7-.4 1.7-1 0-.5 1.1-1.2 2.5-1.6 1.4-.3 2.5-1 2.5-1.4 0-.8 3.4-1.5 9.2-1.8 1.5-.1 3.7.2 5 .7zM151 32.6c2.4 2.5-13.4 2.3-20-.3-3.2-1.2-2.4-1.3 8-.7 6.3.3 11.7.8 12 1zM123.8 35c5.8 0 4.5 1.6-2 2.5-6.3.9-8.4 3-12.6 12.5-2.8 6.5-3.1 8.5-.6 6 1.3-1.3 5.4-.1 5.4 1.6 0 1-1.6 1.4-5.7 1.5-3.2.1-6.2.1-6.7 0s-.6.5-.3 1.3c.4 1-.3 1.5-2.4 1.8-1.6.3-2.9.3-2.9.1 0-.2 1-2.3 2.2-4.6 2.1-4 2.2-4.1 2.8-1.7l.6 2.4 2.1-2.9c1.1-1.7 4.2-7.2 6.7-12.4 4.2-8.2 5-9.2 6.9-8.7 1.2.3 4.1.6 6.5.6zm48 1.3c.6 3-2.6 3.1-5.5.2l-2.7-2.6 3.9.3c2.8.2 4.1.8 4.3 2.1zm-31.1 1.8c4.6-.2 5.2 0 4.6 1.4-.5 1.5-.3 1.5 1.5.4 2.2-1.4 3.9-.8 2.7 1.1-.6 1-8.5 1-8.5 0 0-.3-2.9-.4-6.5-.2-4.8.1-6.5-.1-6.5-1.1 0-2.6 2.1-3.6 4.9-2.5 1.4.6 5 1 7.8.9zm-31.7-.6c0 1.7-6.3 12.7-7.6 13.2-2.1.8-2.7-.2-2-3.2 1-3.9 9.6-12.9 9.6-10zm57.3.1c.7.8-10.8 23.9-12.3 24.9-2.5 1.5-2.1-.7.9-5.1 1.7-2.6 3.1-5.7 3.1-6.9 0-1.1.5-2.6 1.2-3.3.9-.9.4-1.2-2.2-1.1-1.9.1-2.7.3-1.7.6 3 .8 1.9 2.1-1.8 2.1-1.9 0-3.5-.4-3.5-.9s.5-.9 1-.9c.6 0 1-.8.8-1.8-.2-1.4.4-1.7 3.5-1.5 2.4.2 4.5-.3 5.4-1.2 1.7-1.7.9-3.5-1.5-3.5-1.3 0-1.4.2-.4.9 1 .6 1 1-.2 2-1.6 1.3-3.2-.1-2.1-1.9.4-.6-.6-1-2.4-1-1.6 0-3.3-.5-3.6-1-.7-1.1 14.7-1.5 15.8-.4zm-38.7 4.7c.8-.3 1.4 0 1.4.6 0 1.3-4.6 1.5-5.4.2-.8-1.2.6-2.3 1.7-1.2.5.5 1.6.7 2.3.4zm8.4 1.6c0 1.1.6 2.1 1.3 2.4 2.3.8-.1 1.8-2.8 1.1-2.6-.7-2.7-.8-1-2 1.7-1.3 1.8-1.4.1-1.4-.9 0-1.4-.5-1.1-1 1.1-1.7 3.5-1.1 3.5.9zm12.5.1c.4.6-.7 1-2.4 1s-3.1-.5-3.1-1c0-.6 1.1-1 2.4-1 1.4 0 2.8.4 3.1 1zm-30.7 1.6c-1 1-2.3 1.4-3.4 1-1.6-.6-1.6-.8-.4-1.6.8-.6 2.4-1 3.5-1 1.8 0 1.8.1.3 1.6zm11.7.4c-.3.5-2.2 1-4.1 1-1.9 0-3.4-.5-3.4-1 0-.6 1.8-1 4.1-1 2.4 0 3.8.4 3.4 1zm16.5 1c0 .5-1.4 1-3.1 1-1.7 0-2.8-.4-2.4-1 .3-.6 1.7-1 3.1-1 1.3 0 2.4.4 2.4 1zm-31 2c2.3-1.5 4.5-1.3 3.2.3-.6.7-.7 1.8-.3 2.6.7 1 1 .9 1.6-.8.5-1.6 1.4-2.1 4-2.1 3.5 0 5.4 1.4 3.5 2.5-.6.4-.8 1.1-.5 1.6.4.5-.1.9-1 .9-1.2 0-1.5-.6-1-2 .4-1.4.2-2-.8-2s-1.3.7-1 2c.6 2.1 0 2.3-5.2 2-3.5-.2-7.1-3.2-6-5 .5-.8 1-.9 1.4-.2.4.7 1.2.8 2.1.2zm20.3 1.4c1.2-.2 1.7-.2 1 .2-.7.3-1 1.1-.7 1.8.3.7-.1 1.3-.8 1.3-.7 0-2.2.4-3.3.8-1.5.5-1.6.4-.6-.3.7-.5 1-1.5.7-2.1-.4-.6-.4-1.6 0-2.3.5-.8.9-.9 1.1-.1.2.6 1.4.9 2.6.7zm-43 10.8c-6 12.8-7 14.5-7.8 13.6-.4-.4 2.1-6.1 5.6-12.7 3.5-6.6 6.5-11.8 6.7-11.6.2.2-1.8 5-4.5 10.7zM144 51c0 .5.5 1 1.1 1 .5 0 .7-.5.4-1-.3-.6-.2-1 .4-1 .5 0 1.3.5 1.6 1 .4.6 1.1.8 1.6.5.5-.4.9-.2.9.4 0 .6 1.2.4 2.7-.4 3.6-1.9 4.6-1 2.8 2.6-1.8 3.4-3.5 3.7-6 .9-1.5-1.7-1.9-1.7-3.2-.5-1.7 1.8-8.3 2-8.3.3 0-1.6 3.1-4.8 4.7-4.8.7 0 1.3.4 1.3 1zm-23 7.2c0 .5.7.5 1.8 0 4.3-2.2 15.7-.8 12.1 1.4-2.1 1.3-5.1 1.6-4.4.4.3-.5.1-1-.4-1-.6 0-1.1.5-1.1 1.1 0 .7-1.7.8-5.2.3-2.9-.4-6.1-.7-7-.6-1.8.1-2.4-.9-1.3-2 1-.9 5.5-.6 5.5.4zm21.5 2.7c-.8 1.3-6.2 1.4-7 .2-.3-.6 1.2-1.1 3.2-1.3 4.5-.4 4.7-.3 3.8 1.1zm9.5-1c0 1-2.2 3.1-3.3 3.1-.4 0-.5-.4-.2-1s-.1-.7-.9-.4c-1.5.6-2.2-.7-1.1-1.8.8-.8 5.5-.7 5.5.1zm5.5 6.4c-.8 3-3.3 4.3-4.1 2.2-.7-1.7.4-3.7 1.6-3 .4.3 1.1-.2 1.4-1.1 1-2.5 1.8-1 1.1 1.9zm-53 1.7c0 3.1-4.6 6-7.2 4.4-2.6-1.6-2.6-3-.1-5.4 3.1-2.9 7.3-2.4 7.3 1zm11.3.6c.4 2.6-3 5.6-6 5.2-2.9-.4-3.5-3.4-1.2-5.9 2.3-2.6 6.8-2.2 7.2.7zm11.7 1.4c0 3.2-4.5 5.6-7.5 4-2.6-1.4-2.5-3.5.3-5.5 3.3-2.4 7.2-1.6 7.2 1.5zm11.8-.8c1.1 3.2-3.8 7.4-7.3 6.3-2.4-.8-2.6-3.8-.4-5.9 1.8-1.9 7-2.1 7.7-.4zm11.5 2.5c.4 2.5-3.6 5.7-6.4 5.1-5.6-1.1-2.8-8.2 3-7.6 2.3.2 3.2.9 3.4 2.5zm89.8 64.8c-.3.8-1 12.2-1.6 25.2-.5 13.1-1.6 30.3-2.2 38.3-.7 8-1.2 17.6-1.1 21.4.2 8-1.6 12.3-5.7 13.3-1.4.3-4.1 1.8-6 3.3-1.9 1.4-7.5 4.9-12.5 7.7-4.9 2.7-16.5 9.8-25.7 15.6-9.2 5.9-18.2 11.4-20 12.3-1.8.9-4.8 3-6.5 4.7l-3.3 3.1-.1-3.5c-.2-10.1.3-43 1.2-77.9.8-28.6 1.4-39.6 2.2-40 3.4-1.3 79.4-24.8 80.6-24.9.8 0 1.1.5.7 1.4zm-132.5 27c11.2 1.4 21.2 2.8 22.2 3.1 1.9.6 2.3 2.4.5 2.4-2.2 0-41.3-5-42.5-5.5-1.1-.4-1.9-2.5-1-2.5.2 0 9.6 1.1 20.8 2.5z M82 81.9c-.5 1.1-1 2.1-1 2.3 0 .2 4.2.4 9.3.5 8.2.1 51 4.5 57.9 5.9 2 .4 2.9 0 3.8-1.6 1.4-2.6 1.1-2.7-11-3.4-5.2-.4-13.1-1.1-17.5-1.6s-11.4-.9-15.6-.9c-4.2-.1-8.9-.5-10.5-1-1.6-.5-5.5-1.2-8.6-1.5-5-.5-5.9-.4-6.8 1.3zM98.7 67.8c-2.3 2.5-2.1 3.2.7 3.2 3.1 0 5.6-2.8 3.5-4.1-2-1.2-2.4-1.1-4.2.9zM109 69.5c-1 1.2-.9 1.6.5 2.1 1.9.8 4.6-.5 5.3-2.4.5-1.7-4.3-1.5-5.8.3zM132.6 70.6c-1.9 1.8-1.3 3.4 1.3 3.4 2.2 0 4.5-2.5 3.6-4-.9-1.5-3.1-1.2-4.9.6zM144.4 71.4c-1.5 1.2-1.6 1.7-.7 2.7 1 1 1.8 1 3.9 0 2.1-.9 2.4-1.4 1.4-2.6-1.5-1.9-2.1-1.9-4.6-.1z"/></svg>