<svg viewBox="0 0 24 24" xmlns="http://www.w3.org/2000/svg"><path d="M 12,0 C 5.38189,0 0,5.38189 0,12 0,18.61811 5.38189,24 12,24 18.61811,24 24,18.61811 24,12 24,5.38189 18.61811,0 12,0 Z m 0,1.57143 c 5.76885,0 10.42857,4.65972 10.42857,10.42857 0,2.57664 -0.92957,4.93198 -2.47238,6.74972 0.17919,-0.30091 0.28191,-0.65322 0.28191,-1.03069 V 17.2048 c 0,-1.10952 -0.92385,-2.00958 -2.01433,-2.00958 h -1.95712 c -0.89524,0 -1.68572,0.60006 -1.92857,1.43815 H 8.30952 c -1.11428,0 -2.03813,-0.92385 -2.03813,-2.03813 0,-1.11429 0.92385,-2.03813 2.03813,-2.03813 h 7.11905 c 1.65714,0 2.99051,-1.33328 2.99051,-2.99042 0,-1.65715 -1.33337,-2.99052 -2.99051,-2.99052 H 9.47619 V 6.43806 c 0,-1.11429 -0.8952,-2.00949 -2.00949,-2.00949 H 5.50949 c -0.32711,0 -0.63531,0.0772 -0.90756,0.21438 C 6.48955,2.74485 9.10513,1.57143 12,1.57143 Z M 5.50949,5.41425 H 7.4667 c 0.57143,0 1.06185,0.46194 1.06185,1.06194 v 0.51432 c 0,0.57143 -0.46185,1.06185 -1.06185,1.06185 H 5.50949 c -0.57143,0 -1.06185,-0.46185 -1.06185,-1.06185 V 6.47619 c 0,-0.57143 0.46185,-1.06194 1.06185,-1.06194 z M 3.59794,5.8138 c -0.0636,0.19632 -0.0979,0.40607 -0.0979,0.62426 v 0.51432 c 0,1.11429 0.8952,2.00949 2.00949,2.00949 h 1.95721 c 0.89524,0 1.68572,-0.59997 1.92858,-1.43806 h 6.03329 c 1.11429,0 2.03813,0.92385 2.03813,2.03813 0,1.11429 -0.92384,2.03804 -2.03813,2.03804 H 8.30956 c -1.65714,0 -2.99051,1.33337 -2.99051,2.99051 0,1.65715 1.33337,2.99043 2.99051,2.99043 h 5.95238 v 0.13811 c 0,1.11428 0.89521,2.00958 2.00949,2.00958 h 1.95722 c 0.43876,0 0.84353,-0.13886 1.17308,-0.37519 -1.88789,1.90025 -4.50497,3.07515 -7.40169,3.07515 C 6.23119,22.42857 1.57147,17.76885 1.57147,12 c 0,-2.31789 0.7523,-4.45673 2.02651,-6.1862 z m 12.66871,10.3338 h 1.95712 c 0.57143,0 1.06194,0.46194 1.06194,1.06194 v 0.51423 c 0,0.57143 -0.46194,1.06194 -1.06194,1.06194 h -1.95712 c -0.57143,0 -1.06185,-0.46194 -1.06185,-1.06194 v -0.51423 c 0,-0.57143 0.46185,-1.06194 1.06185,-1.06194 z"/></svg>