<svg viewBox="0 0 24 24" xmlns="http://www.w3.org/2000/svg"><path d="m 20.195997,15.12 c 0.265,0.337 -0.294,1.73 -0.542,2.353 -0.077,0.19 0.085,0.266 0.257,0.123 1.106,-0.926 1.39,-2.867 1.166,-3.149 -0.226,-0.277 -2.16,-0.516 -3.341,0.314 -0.183,0.127 -0.151,0.304 0.05,0.279 0.665,-0.08 2.147,-0.257 2.41,0.08 m -0.858,0.981 c -2.064,1.523 -5.056,2.333 -7.632,2.333 -3.6110003,0 -6.8620003,-1.334 -9.3220003,-3.555 -0.194,-0.176 -0.02,-0.414 0.21,-0.28 2.655,1.545 5.939,2.477 9.3280003,2.477 2.287,0 4.803,-0.476 7.115,-1.458 0.348,-0.147 0.642,0.231 0.3,0.483 m 2.034,-3.155 a 0.4,0.4 0 0 1 -0.201,-0.04 q -0.063,-0.038 -0.133,-0.225 l -1.734,-4.355 -0.046,-0.117 a 0.3,0.3 0 0 1 -0.023,-0.108 q 0,-0.127 0.146,-0.128 h 0.58 q 0.146,0 0.205,0.04 0.06,0.04 0.127,0.226 l 1.344,3.823 1.343,-3.823 q 0.07,-0.187 0.128,-0.226 a 0.4,0.4 0 0 1 0.205,-0.04 h 0.54 q 0.149,0.001 0.148,0.128 a 0.3,0.3 0 0 1 -0.025,0.108 q -0.025,0.06 -0.044,0.117 l -1.727,4.355 q -0.068,0.186 -0.132,0.225 a 0.4,0.4 0 0 1 -0.201,0.04 z m -3.644,0.068 q -1.393,0 -1.392,-1.392 V 8.739 h -0.706 q -0.196,0 -0.197,-0.196 V 8.297 a 0.22,0.22 0 0 1 0.045,-0.147 q 0.044,-0.048 0.171,-0.067 l 0.717,-0.09 0.127,-1.215 q 0.02,-0.195 0.207,-0.196 h 0.41 q 0.195,0 0.196,0.196 v 1.196 h 1.276 q 0.195,0 0.195,0.197 v 0.372 q 0,0.196 -0.195,0.196 h -1.276 v 2.834 q 0,0.363 0.162,0.51 0.162,0.147 0.555,0.147 0.186,0 0.46,-0.049 0.148,-0.03 0.197,-0.03 0.078,0 0.108,0.044 0.03,0.045 0.029,0.142 v 0.266 a 0.37,0.37 0 0 1 -0.04,0.19 q -0.039,0.065 -0.157,0.103 a 3,3 0 0 1 -0.892,0.118 m -4.665,-2.976 q 0.01,-0.078 0.011,-0.255 0,-0.598 -0.28,-0.901 -0.28,-0.306 -0.818,-0.306 -0.617,0 -0.962,0.369 -0.343,0.368 -0.392,1.093 z m -0.942,3.07 q -1.204,0 -1.824,-0.667 -0.6170003,-0.667 -0.6160003,-1.972 -10e-4,-1.245 0.6160003,-1.937 0.619,-0.69 1.728,-0.691 0.93,10e-4 1.432,0.524 0.499,0.526 0.5,1.487 0,0.315 -0.05,0.638 -0.02,0.116 -0.064,0.156 -0.044,0.04 -0.142,0.04 h -3.08 q 0.02,0.844 0.418,1.245 0.398,0.401 1.23,0.403 0.295,0 0.564,-0.04 a 5,5 0 0 0 0.682,-0.166 l 0.117,-0.035 a 0.3,0.3 0 0 1 0.09,-0.016 q 0.126,0 0.125,0.177 v 0.276 q 0,0.127 -0.037,0.18 a 0.44,0.44 0 0 1 -0.167,0.114 3.4,3.4 0 0 1 -0.701,0.205 4.2,4.2 0 0 1 -0.82,0.079 M 6.6969967,12.961 q -0.195,0 -0.195,-0.197 v -4.58 q 0,-0.195 0.195,-0.195 h 0.432 q 0.097,0 0.153,0.039 0.054,0.04 0.072,0.146 l 0.07,0.55 q 0.265,-0.284 0.499,-0.452 a 1.73,1.73 0 0 1 1.02,-0.323 q 0.119,0 0.235,0.01 0.168,0.02 0.168,0.176 v 0.53 q 10e-4,0.176 -0.178,0.177 -0.087,0 -0.17,-0.01 a 2,2 0 0 0 -0.18,-0.01 q -0.786,0 -1.346,0.47 v 3.472 q 0,0.197 -0.195,0.197 z m -2.249,0 q -0.195,0 -0.196,-0.197 v -4.58 q 0,-0.195 0.196,-0.195 h 0.579 q 0.195,0 0.195,0.195 v 4.58 q 0,0.197 -0.195,0.197 z m 0.295,-5.856 q -0.285,0 -0.447,-0.16 a 0.58,0.58 0 0 1 -0.161,-0.428 q 0,-0.264 0.16,-0.426 0.163,-0.163 0.448,-0.163 0.283,0 0.446,0.163 0.16,0.162 0.16,0.426 a 0.58,0.58 0 0 1 -0.16,0.427 0.6,0.6 0 0 1 -0.446,0.161 m -3.625,5.856 q -0.19700003,0 -0.19700003,-0.197 v -4.01 h -0.726 Q -3.3333333e-6,8.754 -3.3333333e-6,8.557 V 8.312 q 0,-0.098 0.043000003333,-0.147 0.045,-0.049 0.173,-0.07 l 0.705,-0.087 V 7.204 q 0,-1.637 1.57000003,-1.638 0.372,0 0.784,0.109 0.107,0.027 0.152,0.088 0.044,0.058 0.044,0.205 v 0.255 q 10e-4,0.186 -0.148,0.186 -0.087,0 -0.248,-0.029 c -0.11,-0.02 -0.23,-0.03 -0.369,-0.03 q -0.45,0 -0.633,0.172 -0.181,0.173 -0.181,0.564 v 0.903 h 1.324 q 0.197,0 0.197,0.195 v 0.373 q 0,0.196 -0.197,0.197 h -1.324 v 4.01 q 0,0.197 -0.196,0.197 z"/></svg>