<svg viewBox="0 0 24 24" xmlns="http://www.w3.org/2000/svg"><path d="m 1.0688902,7.997634 c -0.30878997,0 -0.59384997,0.114033 -0.77911997,0.304056 C 0.10925023,8.486963 2.3162842e-7,8.733993 2.3162842e-7,9.014277 2.3162842e-7,9.308813 0.13302023,9.551093 0.38005023,9.821876 l 1.58197997,1.624663 h -0.87412 c -0.32303997,0 -0.60330997,0.114032 -0.78857997,0.304055 -0.18052,0.180523 -0.27557,0.41332 -0.27557,0.755362 v 2.427529 c 0,0.308788 0.0997,0.593841 0.28976,0.779114 0.18528,0.180522 0.42284,0.289767 0.70312997,0.289767 0.28028,0 0.52731,-0.109245 0.71259,-0.289767 0.19002,-0.190023 0.29932,-0.470326 0.29932,-0.779114 v -1.429907 h 2.22322 c 0.30878,0 0.59384,-0.128321 0.77911,-0.318345 0.18052,-0.185272 0.28977,-0.460769 0.28977,-0.722051 0,-0.304037 -0.12827,-0.527333 -0.38005,-0.802867 -0.29454,-0.32304 -1.15434,-1.159087 -1.58189,-1.605642 h 2.09026 c 0.30879,0 0.59375,-0.128321 0.77902,-0.318344 0.18052,-0.185273 0.28986,-0.441767 0.28986,-0.722052 0,-0.275534 -0.10934,-0.527314 -0.28986,-0.712587 -0.19002,-0.190023 -0.47023,-0.304056 -0.77902,-0.304056 z m 6.24228,2.964382 c -0.36579,0 -0.61756,0.114014 -0.78858,0.285035 -0.16627,0.166271 -0.25182,0.394261 -0.25182,0.722052 v 2.327785 c 0,0.156769 0.14252,0.247086 0.26129,0.247086 0.13776,0 0.26128,-0.109319 0.26128,-0.247086 v -1.339627 h 1.09736 c 0.15202,0 0.2328,-0.123515 0.2328,-0.237529 0,-0.133016 -0.0998,-0.237529 -0.2328,-0.237529 h -1.09736 v -0.475059 c 0,-0.199524 0.0333,-0.313557 0.11876,-0.399067 0.0855,-0.08551 0.21855,-0.123497 0.42282,-0.123497 h 1.04513 c 0.15202,0 0.23753,-0.147268 0.23753,-0.261282 0,-0.137767 -0.10451,-0.261282 -0.23753,-0.261282 z m 3.5629398,0.907343 c -0.65083,0 -1.2494398,0.50358 -1.2494398,1.349184 0,0.750592 0.4798798,1.358648 1.2874798,1.358648 0.35154,0 0.71257,-0.156788 0.90734,-0.351561 0.0903,-0.09501 0.12823,-0.171003 0.12823,-0.242262 0,-0.114014 -0.0998,-0.199487 -0.20904,-0.199487 -0.0665,0 -0.10919,0.02373 -0.20896,0.09974 -0.17577,0.142517 -0.39912,0.232797 -0.6224,0.232797 -0.4323,0 -0.74105,-0.304056 -0.76955,-0.731609 h 1.71967 c 0.17102,0 0.25182,-0.07599 0.25182,-0.242261 0,-0.218527 -0.0475,-0.413319 -0.12823,-0.589091 -0.21378,-0.446554 -0.66512,-0.684102 -1.10692,-0.684102 z m 2.64603,0 c -0.65082,0 -1.24934,0.50358 -1.24934,1.349184 0,0.750592 0.47979,1.358648 1.28739,1.358648 0.35154,0 0.71257,-0.156788 0.90734,-0.351561 0.0903,-0.09501 0.12832,-0.171003 0.12832,-0.242262 0,-0.114014 -0.0998,-0.199487 -0.20904,-0.199487 -0.0665,0 -0.10929,0.02373 -0.20905,0.09974 -0.17577,0.142517 -0.39903,0.232797 -0.62231,0.232797 -0.4323,0 -0.74114,-0.304056 -0.76965,-0.731609 h 1.71977 c 0.17102,0 0.25173,-0.07599 0.25173,-0.242261 0,-0.218527 -0.0475,-0.413319 -0.12823,-0.589091 -0.21378,-0.446554 -0.66512,-0.684102 -1.10693,-0.684102 z m 5.77196,0 c -0.65083,0 -1.24934,0.50358 -1.24934,1.349184 0,0.750592 0.47979,1.358648 1.28738,1.358648 0.35155,0 0.71257,-0.156788 0.90735,-0.351561 0.0903,-0.09501 0.12832,-0.171003 0.12832,-0.242262 0,-0.114014 -0.0998,-0.199487 -0.20905,-0.199487 -0.0665,0 -0.10928,0.02373 -0.20904,0.09974 -0.17577,0.142517 -0.39903,0.232797 -0.62231,0.232797 -0.4323,0 -0.74114,-0.304056 -0.76965,-0.731609 h 1.71977 c 0.17577,0 0.25172,-0.07599 0.25172,-0.242261 0,-0.218527 -0.0475,-0.413319 -0.12822,-0.589091 -0.21378,-0.446554 -0.66512,-0.684102 -1.10693,-0.684102 z m 1.45849,0.01902 c -0.13302,0 -0.25182,0.08078 -0.25182,0.232797 0,0.04751 0.0143,0.09501 0.0475,0.190023 0.0903,0.251781 0.64138,1.7767 0.72214,1.999977 0.0523,0.142518 0.14252,0.218508 0.26128,0.218508 0.12352,0 0.21378,-0.07599 0.26128,-0.218508 0.0618,-0.175771 0.095,-0.270839 0.18047,-0.532121 0.0808,-0.24703 0.20906,-0.665007 0.27557,-0.921539 0.0665,0.251781 0.15198,0.555763 0.27075,0.916807 0.0903,0.270783 0.1283,0.380065 0.18056,0.541585 0.0475,0.142518 0.14725,0.218508 0.26601,0.218508 0.11877,0 0.20428,-0.06649 0.26128,-0.218508 0.0998,-0.266033 0.61762,-1.70069 0.72688,-1.999977 0.038,-0.09976 0.0475,-0.152018 0.0475,-0.190023 0,-0.142517 -0.10931,-0.232797 -0.24708,-0.232797 -0.11402,0 -0.19478,0.07122 -0.23753,0.199487 -0.095,0.266033 -0.14252,0.408606 -0.23753,0.674639 -0.0998,0.270783 -0.23749,0.674545 -0.31825,0.95958 -0.0665,-0.280284 -0.19002,-0.712532 -0.28504,-0.988065 -0.0427,-0.137767 -0.0617,-0.180578 -0.14251,-0.413357 -0.0665,-0.175771 -0.15679,-0.246993 -0.28031,-0.246993 -0.12351,0 -0.21379,0.07597 -0.2803,0.246993 -0.0475,0.128266 -0.0855,0.247086 -0.14252,0.413357 -0.10451,0.318289 -0.21851,0.707799 -0.28976,0.983333 -0.10452,-0.342042 -0.22326,-0.7078 -0.31352,-0.95958 -0.095,-0.270784 -0.14727,-0.408606 -0.23753,-0.674639 -0.0428,-0.137767 -0.13302,-0.199487 -0.23753,-0.199487 z m -3.87173,0.0047 c -0.10926,0 -0.18531,0.06653 -0.22806,0.161538 -0.057,0.128266 -0.22322,0.517795 -0.27548,0.646061 -0.20428,0.494061 -0.34206,0.836103 -0.44657,1.116387 -0.0998,-0.275534 -0.24227,-0.631809 -0.45604,-1.121119 -0.0808,-0.185273 -0.18529,-0.42282 -0.2803,-0.636597 -0.038,-0.09026 -0.11881,-0.161538 -0.22807,-0.161538 -0.13302,0 -0.25172,0.09501 -0.25172,0.237529 0,0.04275 0.0143,0.09024 0.0475,0.171002 0.0475,0.104513 0.81706,1.857478 0.88832,2.018998 0.0665,0.156769 0.15198,0.218601 0.27075,0.218601 0.11876,0 0.20906,-0.06658 0.27557,-0.218601 0.0665,-0.152018 0.8551,-1.947683 0.87886,-2.033194 0.0285,-0.05701 0.0475,-0.128247 0.0475,-0.171002 0,-0.137767 -0.10924,-0.228065 -0.24226,-0.228065 z m 0.6983,0.0047 c -0.13777,0 -0.23753,0.104494 -0.23753,0.242261 v 2.161515 c 0,0.15677 0.11877,0.242354 0.23753,0.242354 0.14252,0 0.23753,-0.104587 0.23753,-0.242354 V 12.14004 c 0,-0.156769 -0.12351,-0.237511 -0.23753,-0.242261 z m -8.2042198,0.01429 c -0.34204,0 -0.5938,0.0902 -0.76482,0.251725 -0.16627,0.156769 -0.24709,0.384853 -0.24709,0.674638 v 1.463124 c 0,0.15677 0.11877,0.242354 0.23753,0.242354 0.13777,0 0.23753,-0.104587 0.23753,-0.242354 v -1.439371 c 0,-0.152018 0.0333,-0.266032 0.11403,-0.356293 0.0808,-0.08076 0.20431,-0.123497 0.39434,-0.123497 h 0.19002 c 0.15677,0 0.24226,-0.118783 0.24226,-0.232797 0,-0.06651 -0.0238,-0.133072 -0.0713,-0.175827 -0.0427,-0.038 -0.10924,-0.0617 -0.19475,-0.0617 z m 1.5011698,0.437016 c 0.40855,0 0.66987,0.275571 0.72687,0.608112 h -1.44892 c 0.0665,-0.332541 0.29925,-0.608112 0.72205,-0.608112 z m 2.64603,0 c 0.40856,0 0.66987,0.275571 0.72688,0.608112 h -1.44893 c 0.0618,-0.332541 0.2945,-0.608112 0.72205,-0.608112 z m 5.77196,0 c 0.40855,0 0.66987,0.275571 0.72688,0.608112 h -1.44893 c 0.0665,-0.332541 0.29925,-0.608112 0.72205,-0.608112 z"/></svg>