<svg viewBox="0 0 24 24" xmlns="http://www.w3.org/2000/svg"><path d="M 3.368546,5.469436 C 2.627893,4.657567 2.22908,3.931157 2.22908,3.048071 2.22908,2.207715 2.556677,1.467062 3.097923,0.911573 3.653412,0.34184 4.508012,0 5.433828,0 h 13.132344 c 0.925816,0 1.766172,0.34184 2.335905,0.911573 0.541246,0.555489 0.868843,1.310385 0.868843,2.136498 0,0.840356 -0.327597,1.609496 -0.868843,2.164985 -0.555489,0.569733 -1.410089,0.954303 -2.335905,0.954303 H 12.29911 c 1.281899,1.338872 3.85994,3.845697 4.743026,4.814243 0.754897,0.826113 1.139466,1.495549 1.139466,2.407122 0,0.783383 -0.327596,1.609496 -0.868842,2.164985 -0.55549,0.569733 -1.410089,0.954303 -2.335905,0.954303 H 8.310979 v 4.28724 c 0,0.925816 -0.327596,1.766172 -0.897329,2.335905 C 6.85816,23.672404 6.117507,24 5.277151,24 4.436795,24 3.724629,23.672404 3.169139,23.131157 2.599407,22.575668 2.300297,21.721068 2.300297,20.795252 v -7.278338 c 0,-1.025519 0.284866,-1.723442 0.826112,-2.264688 0.55549,-0.569733 1.395846,-0.911573 2.364392,-0.911573 h 2.620772 z"/></svg>