<svg viewBox="0 0 24 24" xmlns="http://www.w3.org/2000/svg"><path d="m 12.051622,7.7999384 c -0.24261,-0.008 -0.35362,0.003 -0.5988,0.0542 -0.2839,0.0594 -0.94457,0.25293 -1.8014305,0.52651 l -0.37423,0.11871 -0.69684,-0.003 c -0.73039,-0.005 -1.78597,-0.0465 -5.536,-0.21681 -3.26998004,-0.14969 -3.05835004,-0.14454 -3.03254004,-0.10066 0.13421,0.22712 0.40003,0.41038 0.6736,0.45942 0.27874,0.0542 1.25174004,0.1471 4.41075004,0.42841 0.88008,0.08 1.8092,0.16518 2.06471,0.19357 1.3369,0.14711 1.61303,0.27617 1.99242,0.9265496 0.38197,0.65813 0.56264,0.92396 0.8749305,1.27754 0.38455,0.43617 1.08395,0.96524 1.69562,1.28011 l 0.27619,0.14195 0.27613,-0.14195 c 0.60393,-0.30971 1.31107,-0.84394 1.69563,-1.28011 0.31228,-0.35358 0.49296,-0.61941 0.87493,-1.27754 0.37939,-0.6503796 0.65557,-0.7794396 1.99247,-0.9265496 0.25551,-0.0284 1.18463,-0.11356 2.06471,-0.19357 3.15901,-0.28131 4.13196,-0.37421 4.4107,-0.42841 0.27357,-0.049 0.53944,-0.2323 0.67365,-0.45942 0.0258,-0.0439 0.23744,-0.049 -3.03254,0.10066 -3.03255,0.13679 -4.62753,0.20388 -5.41987,0.22195 -0.77426,0.0181 -0.65814,0.0387 -1.78857,-0.30971 -1.00655,-0.31228 -1.31107,-0.38195 -1.69562,-0.39227 z m -0.1475,0.41239 c 0.15526,-0.006 0.43105,0.036 0.77205,0.12183 0.54457,0.13679 1.22076,0.36134 1.50982,0.5007 0.28906,0.14195 0.35873,0.22196 0.35099,0.41295 -0.008,0.3097 -0.40519,1.2155996 -0.72522,1.6620996 -0.19615,0.27615 -0.591,0.68393 -0.89555,0.92912 -0.24518,0.19873 -0.80009,0.56523 -0.88526,0.58846 -0.10582,0.0258 -0.69685,-0.3665 -1.14592,-0.75879 -0.45682,-0.40004 -0.80267,-0.85169 -1.0685005,-1.39368 -0.14453,-0.2967996 -0.3329,-0.8181596 -0.3587,-1.0013996 -0.0336,-0.22196 0.12646,-0.36132 0.6323105,-0.55747 0.43101,-0.16775 1.31367,-0.41812 1.75501,-0.49813 0.0171,-0.003 0.0368,-0.005 0.059,-0.006 z m -11.11807054,0.73867 c -0.0232,0 -0.0387,0.0104 -0.0336,0.0207 0.005,0.0129 0.0955,0.10064 0.20133,0.19871 0.76395004,0.69684 1.32142004,0.9084796 2.73574004,1.0297796 0.64523,0.0568 1.52531,0.11097 2.59379,0.15743 0.51102,0.0232 0.99102,0.0542 1.06845,0.0697 0.0955,0.0181 0.16518,0.0516 0.23228,0.11095 0.0516,0.0465 0.0852,0.0929 0.0774,0.10066 -0.0155,0.0155 -1.87627,-0.0155 -2.92669,-0.049 -0.33035,-0.0103 -0.48262,-0.008 -0.46456,0.0103 0.0594,0.0594 1.34977,0.4207 2.06209,0.57813 l 0.36395,0.08 1.00654,0.003 c 1.09172,0.003 1.08393,0.003 1.2233,0.14971 l 0.0594,0.0645 -0.111,0.0155 c -0.12646,0.0155 -0.8362,0.0671 -0.92911,0.0671 -0.0361,0 -0.049,0.0103 -0.0335,0.0232 0.0284,0.031 0.94462,0.28131 1.3524,0.37423 0.37939,0.0826 1.0323505,0.2039 1.0452605,0.19099 l 5e-5,-5e-5 c 2e-5,-2e-5 8e-5,-1.3e-4 1e-4,-1.5e-4 0.004,-0.006 -0.0553,-0.0625 -0.13439,-0.1237 -0.3329305,-0.26583 -0.7097505,-0.72265 -1.1975405,-1.4453 -0.25293,-0.37681 -0.511,-0.6580896 -0.68908,-0.7561696 -0.24002,-0.12904 -0.78457,-0.22456 -1.9408,-0.3407 -2.99899,-0.29422 -5.45084004,-0.52909 -5.56181004,-0.52909 z m 22.43582054,0.005 c -0.073,-0.006 -0.32408,0.0158 -1.07899,0.0875 -0.50327,0.0465 -1.51498,0.14454 -2.24537,0.2168 -0.73039,0.0723 -1.68274,0.16517 -2.11633,0.20904 -1.2827,0.12389 -1.82213,0.21684 -2.0699,0.35104 -0.17808,0.0981 -0.43615,0.3793596 -0.68907,0.7561696 -0.48779,0.72265 -0.86461,1.17947 -1.19754,1.4453 -0.0791,0.0612 -0.13795,0.11746 -0.13434,0.12375 3e-5,5e-5 1.1e-4,1.1e-4 1.5e-4,1.5e-4 0.0129,0.0129 0.66587,-0.1084 1.04526,-0.19099 0.40778,-0.0929 1.32395,-0.34326 1.35234,-0.37423 0.0155,-0.0129 0.003,-0.0232 -0.0335,-0.0232 -0.0929,0 -0.80265,-0.0516 -0.92912,-0.0671 l -0.111,-0.0155 0.0594,-0.0645 c 0.13937,-0.14711 0.13164,-0.14713 1.22335,-0.14971 l 1.00655,-0.003 0.3639,-0.08 c 0.70974,-0.15743 2.00277,-0.51877 2.06213,-0.57813 0.0181,-0.0181 -0.13162,-0.0207 -0.45165,-0.0103 -1.01171,0.031 -2.92416,0.0645 -2.93964,0.049 -0.008,-0.008 0.0258,-0.0542 0.0774,-0.10066 0.0671,-0.0594 0.13678,-0.0929 0.23228,-0.11095 0.0774,-0.0155 0.55748,-0.0465 1.06849,-0.0697 1.06849,-0.0465 1.94599,-0.10065 2.59379,-0.15743 1.41175,-0.1213 1.9718,-0.3329396 2.73574,-1.0297796 0.10582,-0.0981 0.1987,-0.1858 0.20128,-0.19871 0.003,-0.008 -0.001,-0.0131 -0.0256,-0.0152 z m -12.87626,0.38169 c -0.08,0 -0.14711,0.0181 -0.20647,0.0594 -0.1213,0.08 -0.1703205,0.23487 -0.12128,0.38456 0.0594,0.19357 0.27871,0.2787196 0.50841,0.19871 0.0774,-0.0284 0.08,-0.0335 0.08,-0.18066 v -0.15229 h -0.11614 c -0.11356,0 -0.15485,0.0387 -0.0774,0.0671 0.0232,0.0103 0.0387,0.049 0.0387,0.10323 0,0.08 -0.005,0.0878 -0.0774,0.0878 -0.18324,0 -0.27358,-0.2426 -0.15228,-0.40003 0.049,-0.0594 0.0722,-0.0671 0.16256,-0.0593 0.0594,0.008 0.12648,0.0206 0.15229,0.0309 0.0361,0.0181 0.0439,0.008 0.0439,-0.0439 0,-0.0723 -0.0517,-0.0955 -0.2349,-0.0955 z m 1.02464,0 c -0.0361,0 -0.0723,0.0129 -0.0826,0.031 -0.0103,0.0155 -0.005,0.0361 0.0103,0.0413 0.0206,0.005 0.031,0.10067 0.031,0.30714 0,0.2916396 -3e-5,0.2942096 0.0593,0.2864696 0.0516,-0.008 0.0568,-0.0258 0.0697,-0.1858596 l 0.0129,-0.18066 0.14966,0.18843 c 0.11614,0.14194 0.16517,0.1832496 0.20647,0.1780896 0.0542,-0.008 0.0568,-0.0207 0.0568,-0.3303796 0,-0.31228 -0.003,-0.32258 -0.0568,-0.33032 -0.0542,-0.008 -0.0568,0.003 -0.0645,0.19871 l -0.008,0.20904 -0.16261,-0.20647 c -0.1213,-0.15744 -0.17549,-0.20647 -0.22195,-0.20647 z m 1.88405,0 c -0.049,0 -0.0981,0.0129 -0.10843,0.031 -0.0103,0.0155 -0.005,0.0361 0.0103,0.0413 0.0206,0.005 0.031,0.10063 0.031,0.30452 v 0.2942296 h 0.0774 0.0774 v -0.3355196 -0.33551 z m -2.30959,6.5e-4 c -0.11582,0.002 -0.23388,0.008 -0.24292,0.0174 -0.0103,0.008 -0.008,0.0284 0.008,0.0464 0.0129,0.0155 0.0284,0.15484 0.0309,0.31228 l 0.008,0.28132 0.22709,0.008 c 0.21163,0.008 0.22456,0.005 0.22456,-0.0465 0,-0.0465 -0.0155,-0.0516 -0.15747,-0.0516 h -0.15485 l 0.008,-0.098 c 0.008,-0.0955 0.008,-0.0955 0.13161,-0.10324 0.0852,-0.005 0.12134,-0.0181 0.12134,-0.0465 0,-0.0258 -0.0336,-0.0361 -0.12905,-0.0361 h -0.12904 v -0.0903 -0.0903 h 0.15742 c 0.13421,0 0.15485,-0.005 0.14195,-0.0413 -0.008,-0.0232 -0.0155,-0.0465 -0.0155,-0.0516 0,-0.009 -0.11358,-0.0116 -0.2294,-0.01 z m 2.87854,0.001 c -0.0846,-0.007 -0.19927,0.008 -0.25153,0.037 -0.14969,0.0826 -0.10578,0.24261 0.093,0.34585 0.0877,0.0465 0.12904,0.0852 0.12904,0.11871 0,0.0619 -0.10585,0.0826 -0.22199,0.0413 -0.0748,-0.0258 -0.0774,-0.0232 -0.0697,0.0439 0.008,0.0671 0.0155,0.0697 0.16519,0.0774 0.19615,0.0103 0.29423,-0.0542 0.29423,-0.1858596 0,-0.0929 -0.0336,-0.13161 -0.19876,-0.22194 -0.0723,-0.0387 -0.11094,-0.08 -0.11094,-0.11095 0,-0.0465 0.0129,-0.049 0.14194,-0.0361 0.12647,0.0129 0.14195,0.008 0.14195,-0.0336 0,-0.0258 -0.0181,-0.0542 -0.0413,-0.0619 -0.0181,-0.007 -0.0429,-0.0116 -0.0711,-0.0138 z m -0.98577,5.6e-4 c -0.0626,0.002 -0.12647,0.0106 -0.16131,0.0235 -0.031,0.0129 -0.0697,0.0542 -0.0826,0.0929 -0.0387,0.10065 0.0181,0.19102 0.16776,0.27361 0.14969,0.08 0.1729,0.15743 0.0568,0.17033 -0.0413,0.005 -0.10842,-0.003 -0.14971,-0.0181 -0.0749,-0.0258 -0.0774,-0.0232 -0.0697,0.0439 0.008,0.0671 0.0155,0.0697 0.16519,0.0774 0.12646,0.005 0.16774,-0.003 0.22452,-0.0465 0.13162,-0.10324 0.0852,-0.25035 -0.11095,-0.34842 -0.0929,-0.0465 -0.12904,-0.08 -0.12904,-0.12128 0,-0.049 0.0103,-0.0516 0.14194,-0.0387 0.12647,0.0129 0.14195,0.008 0.14195,-0.0336 0,-0.0258 -0.0181,-0.0542 -0.0413,-0.0619 -0.0297,-0.0116 -0.091,-0.0155 -0.15354,-0.0132 z m -0.60006,0.003 c -0.19615,-0.005 -0.23742,-2e-5 -0.23742,0.0309 0,0.0206 0.0129,0.0464 0.0258,0.0542 0.0155,0.0103 0.0258,0.13678 0.0258,0.29937 v 0.2813296 h 0.21937 c 0.20131,0 0.21938,-0.005 0.21938,-0.0516 0,-0.0465 -0.0181,-0.0516 -0.14195,-0.0516 h -0.14195 v -0.10323 -0.10324 h 0.12904 c 0.0981,0 0.12905,-0.0103 0.12905,-0.0387 0,-0.0284 -0.031,-0.0387 -0.12905,-0.0387 h -0.12904 v -0.0903 -0.0903 h 0.14452 c 0.1213,0 0.14193,-0.008 0.13419,-0.0464 -0.008,-0.0361 -0.0439,-0.0439 -0.24776,-0.0516 z m 1.93813,5.1439796 c -0.0293,10e-4 -0.0586,0.005 -0.0876,0.01 -0.31229,0.0619 -0.48262,0.35875 -0.3639,0.62975 0.0645,0.14453 0.18585,0.22967 0.41813,0.29161 0.30197,0.08 0.36133,0.13163 0.36133,0.30713 0,0.0697 -0.0206,0.11359 -0.0774,0.17295 -0.0748,0.0723 -0.0904,0.0774 -0.24004,0.0671 -0.18582,-0.0103 -0.27097,-0.0619 -0.35356,-0.20647 l -0.0542,-0.0955 -0.0877,0.0542 c -0.049,0.0284 -0.0903,0.0671 -0.0903,0.0826 0,0.0619 0.15225,0.2452 0.26323,0.31747 0.0877,0.0594 0.13935,0.0748 0.30194,0.08 0.16518,0.008 0.21422,-0.003 0.30971,-0.0516 0.17292,-0.0877 0.26584,-0.22198 0.28133,-0.3949 0.0232,-0.27615 -0.11614,-0.43617 -0.47747,-0.54199 -0.24776,-0.0748 -0.34323,-0.14708 -0.34323,-0.2658 0,-0.2426 0.35874,-0.30457 0.55747,-0.0955 l 0.08,0.0852 0.08,-0.0516 c 0.0955,-0.0594 0.0981,-0.0619 0.0361,-0.15742 -0.10388,-0.15356 -0.30855,-0.24589 -0.51371,-0.23717 z m -6.3539705,0.002 c -0.0367,10e-4 -0.073,0.004 -0.10847,0.0102 -0.42585,0.0723 -0.72264,0.46971 -0.68651,0.91879 0.0232,0.30454 0.20647,0.57812 0.47746,0.70974 0.10324,0.0516 0.16005,0.062 0.37942,0.062 0.22712,0 0.27614,-0.008 0.40518,-0.0697 0.0826,-0.0387 0.19101,-0.10067 0.24005,-0.13938 l 0.0903,-0.0671 v -0.32004 -0.32004 h -0.2839 -0.2839 v 0.10323 0.10324 h 0.16776 0.16776 v 0.14971 c 0,0.11356 -0.0129,0.16261 -0.0439,0.191 -0.0981,0.0852 -0.23486,0.13161 -0.41294,0.14451 -0.16518,0.0103 -0.20388,0.003 -0.32518,-0.0568 -0.22196,-0.1084 -0.32775,-0.2968 -0.32775,-0.58328 0.003,-0.35874 0.2426,-0.60131 0.5936,-0.60131 0.19873,0 0.33806,0.0619 0.46194,0.20128 l 0.0826,0.0955 0.0878,-0.0619 c 0.049,-0.031 0.0903,-0.0671 0.0903,-0.0749 0,-0.008 -0.0413,-0.0619 -0.0903,-0.12128 -0.14905,-0.17389 -0.42458,-0.28062 -0.68132,-0.27346 z m 8.6333705,8.6e-4 c -0.0544,-0.003 -0.11068,9.2e-4 -0.16811,0.0119 -0.14453,0.0284 -0.28135,0.13165 -0.34071,0.26585 -0.1342,0.29681 0.0233,0.54713 0.4078,0.65037 0.30713,0.08 0.36909,0.12906 0.36909,0.30456 0,0.14453 -0.0904,0.22713 -0.26328,0.24261 -0.18582,0.0155 -0.31484,-0.0439 -0.40775,-0.19099 l -0.0671,-0.10838 -0.0826,0.0516 c -0.0465,0.0284 -0.0826,0.0619 -0.0826,0.0748 0,0.10839 0.21938,0.33294 0.37423,0.38456 0.0542,0.0181 0.17292,0.0258 0.27099,0.0207 0.21938,-0.0129 0.36904,-0.10325 0.45937,-0.27875 0.16002,-0.31745 0,-0.58327 -0.42585,-0.71232 -0.26067,-0.0774 -0.34322,-0.13937 -0.34322,-0.25551 0,-0.11098 0.0619,-0.18841 0.18066,-0.21938 0.13162,-0.0361 0.29935,0.0207 0.38194,0.12647 l 0.0619,0.0774 0.0878,-0.0568 c 0.0465,-0.031 0.0878,-0.0645 0.0878,-0.0749 0,-0.0103 -0.0362,-0.0594 -0.0826,-0.111 -0.10839,-0.12389 -0.25453,-0.19406 -0.41773,-0.20289 z m -7.3713505,0.0351 v 0.82588 0.82589 h 0.43875 0.43875 v -0.10324 -0.10323 h -0.32261 -0.32261 v -0.25809 -0.25809 h 0.29937 0.2968 l -0.008,-0.11095 -0.008,-0.10843 -0.28909,-0.008 -0.29161,-0.008 v -0.24262 -0.24518 h 0.32261 0.32261 v -0.10323 -0.10324 h -0.43875 z m 1.3755805,0 c -0.0258,0 -0.0335,0.18324 -0.0335,0.82588 v 0.82589 h 0.11614 0.11614 l 0.005,-0.57037 0.008,-0.57036 0.5497,0.58327 c 0.30196,0.32003 0.56524,0.58327 0.58589,0.58327 0.0335,0 0.0387,-0.12131 0.0387,-0.83879 v -0.83879 h -0.11614 -0.11614 v 0.57299 l -0.003,0.5755 -0.56003,-0.5755 c -0.30712,-0.31487 -0.57555,-0.57557 -0.59103,-0.57299 z m 1.92795,0 v 0.82588 0.82589 h 0.43875 0.43875 v -0.10324 -0.10323 h -0.32261 -0.32261 v -0.25809 -0.25809 h 0.2968 0.29681 v -0.11614 -0.11614 h -0.29681 -0.2968 v -0.24519 -0.24518 h 0.32261 0.32261 v -0.10323 -0.10324 h -0.43875 z m 2.78736,0 v 0.82588 0.82589 h 0.12904 0.12905 v -0.82589 -0.82588 h -0.12905 z"/></svg>