<svg viewBox="0 0 24 24" xmlns="http://www.w3.org/2000/svg"><path d="m19.4 0.4c-0.5 0-0.9 0.5-0.9 1v0.4h-2.6c-0.3 0-0.6 0.3-0.6 0.7v2.5h-1.1v-0.3c0-0.6-0.5-1-1-1h-3.6c-0.5 0-0.9 0.4-0.9 1v0.4h-1.9c-0.4 0-0.7 0.3-0.7 0.6v5.8h-0.6v-0.5c0-0.5-0.4-0.9-0.9-0.9h-3.7c-0.5 0-0.9 0.4-0.9 0.9v2.1c0 0.6 0.4 1 0.9 1h3.7c0.5 0 0.9-0.4 0.9-1v-0.4h0.6v5.8c0 0.4 0.3 0.6 0.7 0.6h1.9v0.5c0 0.5 0.4 0.9 0.9 0.9h3.6c0.5 0 1-0.4 1-0.9v-0.5h1.1v2.6c0 0.3 0.3 0.6 0.6 0.6h2.6v0.3c0 0.5 0.4 1 0.9 1h3.6c0.5 0 1-0.5 1-1v-2.1c0-0.5-0.5-0.9-1-0.9h-3.6c-0.5 0-0.9 0.4-0.9 0.9v0.5h-2v-5h2v0.4c0 0.5 0.4 0.9 0.9 0.9h3.6c0.5 0 1-0.4 1-0.9v-2.2c0-0.5-0.5-0.9-1-0.9h-3.6c-0.5 0-0.9 0.4-0.9 0.9v0.5h-2.6c-0.3 0-0.6 0.3-0.6 0.6v2.6h-1.1v-0.4c0-0.5-0.5-1-1-1h-3.6c-0.5 0-0.9 0.5-0.9 1v0.4h-1.3v-11.6h1.3v0.5c0 0.5 0.4 0.9 0.9 0.9h3.6c0.5 0 1-0.4 1-0.9v-0.6h1.1v2.6c0 0.3 0.3 0.6 0.6 0.6h2.6v0.3c0 0.6 0.4 1 0.9 1h3.6c0.5 0 1-0.4 1-1v-2.1c0-0.5-0.5-0.9-1-0.9h-3.6c-0.5 0-0.9 0.4-0.9 0.9v0.6h-2v-5.1h2v0.4c0 0.5 0.4 0.9 0.9 0.9h3.6c0.5 0 1-0.4 1-0.9v-2.1c0-0.5-0.5-1-1-1z"/></svg>