<svg viewBox="0 0 24 24" xmlns="http://www.w3.org/2000/svg"><path d="m 16.708,9.556 h -0.84 c -0.048,0 -0.072,0.048 -0.072,0.072 v 1.828 h -0.84 V 9.628 c 0,-0.048 -0.048,-0.072 -0.072,-0.072 h -0.84 c -0.048,0 -0.072,0.048 -0.072,0.072 v 4.692 c 0,0.048 0.048,0.072 0.072,0.072 h 0.84 c 0.048,0 0.072,-0.048 0.072,-0.072 v -1.876 h 0.84 v 1.876 c 0,0.048 0.048,0.072 0.072,0.072 h 0.84 c 0.048,0 0.072,-0.048 0.072,-0.072 V 9.628 c 0,-0.024 -0.024,-0.072 -0.072,-0.072 m -7.08,0 H 8.788 C 8.74,9.556 8.716,9.58 8.716,9.628 v 3.324 c 0,0.168 -0.048,0.288 -0.12,0.384 -0.072,0.096 -0.168,0.12 -0.288,0.12 -0.116,0 -0.216,-0.048 -0.288,-0.12 C 7.948,13.24 7.9,13.12 7.9,12.952 V 9.628 C 7.9,9.58 7.852,9.556 7.828,9.556 H 6.988 C 6.94,9.556 6.916,9.58 6.916,9.628 v 3.348 c 0,0.432 0.096,0.84 0.36,1.108 0.264,0.264 0.624,0.408 1.036,0.408 0.432,0 0.796,-0.144 1.036,-0.408 0.264,-0.264 0.36,-0.648 0.36,-1.108 V 9.628 C 9.704,9.604 9.68,9.556 9.628,9.556 M 1.396,9.484 C 0.964,9.484 0.6,9.628 0.36,9.892 0.096,10.156 0,10.54 0,11 v 2 c 0,0.432 0.096,0.84 0.36,1.108 0.264,0.264 0.624,0.408 1.036,0.408 0.432,0 0.796,-0.144 1.036,-0.408 C 2.696,13.844 2.792,13.46 2.792,13 V 11.896 C 2.792,11.848 2.744,11.8 2.696,11.8 H 1.468 c -0.048,0 -0.096,0.048 -0.096,0.096 v 0.82 c 0,0.048 0.048,0.096 0.096,0.096 h 0.316 v 0.192 c 0,0.168 -0.048,0.316 -0.12,0.408 -0.072,0.096 -0.168,0.12 -0.288,0.12 -0.116,0 -0.216,-0.048 -0.288,-0.12 -0.072,-0.096 -0.12,-0.24 -0.12,-0.408 v -1.976 c 0,-0.168 0.048,-0.316 0.12,-0.408 0.072,-0.096 0.168,-0.12 0.288,-0.12 0.116,0 0.216,0.048 0.288,0.12 0.072,0.096 0.12,0.24 0.12,0.408 v 0.192 c 0,0.048 0.048,0.072 0.072,0.072 h 0.84 c 0.048,0 0.072,-0.024 0.072,-0.072 V 11.028 C 2.768,10.596 2.672,10.188 2.408,9.92 2.192,9.628 1.804,9.484 1.396,9.484 m 10.832,3.828 c -0.072,0.096 -0.168,0.12 -0.316,0.12 h -0.48 v -1.016 h 0.48 c 0.12,0 0.216,0.048 0.288,0.12 0.072,0.096 0.12,0.216 0.12,0.36 0.008,0.2 -0.016,0.316 -0.092,0.416 z m -0.796,-2.768 h 0.432 c 0.12,0 0.216,0.024 0.288,0.12 0.072,0.072 0.096,0.192 0.096,0.34 0,0.148 -0.024,0.264 -0.096,0.36 -0.072,0.072 -0.168,0.12 -0.264,0.12 h -0.432 v -0.94 z m 1.396,1.372 c 0.144,-0.144 0.408,-0.48 0.408,-0.916 0,-0.508 -0.192,-0.82 -0.34,-0.988 C 12.632,9.724 12.272,9.58 11.86,9.58 h -1.316 c -0.048,0 -0.072,0.048 -0.072,0.072 v 4.696 c 0,0.048 0.048,0.072 0.072,0.072 h 1.396 c 0.432,0 0.84,-0.168 1.108,-0.508 0.144,-0.192 0.316,-0.508 0.316,-0.988 -0.028,-0.576 -0.388,-0.916 -0.536,-1.008 z M 5.176,11.456 C 5.104,11.552 4.984,11.6 4.836,11.6 H 4.428 v -1.056 h 0.408 c 0.144,0 0.264,0.048 0.34,0.144 0.096,0.096 0.12,0.216 0.12,0.384 0,0.168 -0.02,0.288 -0.12,0.384 z m 0.532,0.868 c 0.096,-0.072 0.168,-0.12 0.24,-0.216 0.168,-0.192 0.384,-0.532 0.384,-1.06 0,-0.508 -0.192,-0.84 -0.384,-1.036 C 5.708,9.724 5.348,9.58 4.936,9.556 H 3.54 c -0.048,0 -0.072,0.048 -0.072,0.072 v 4.692 c 0,0.048 0.048,0.072 0.072,0.072 h 0.84 c 0.048,0 0.072,-0.048 0.072,-0.072 V 12.584 H 4.74 l 0.532,1.78 c 0,0.024 0.048,0.048 0.072,0.048 h 0.888 c 0.024,0 0.048,-0.024 0.072,-0.024 0.024,0 0.024,-0.048 0.024,-0.072 z m 17.136,0.988 c -0.072,0.096 -0.168,0.12 -0.316,0.12 h -0.48 v -1.016 h 0.48 c 0.12,0 0.216,0.048 0.288,0.12 0.072,0.096 0.12,0.216 0.12,0.36 0.028,0.2 -0.016,0.316 -0.092,0.416 z m -0.772,-2.768 h 0.432 c 0.12,0 0.216,0.024 0.288,0.12 0.072,0.072 0.096,0.192 0.096,0.34 0,0.148 -0.024,0.264 -0.096,0.36 -0.072,0.072 -0.168,0.12 -0.264,0.12 h -0.432 v -0.94 z m 1.396,1.372 c 0.144,-0.144 0.408,-0.48 0.408,-0.916 0,-0.508 -0.192,-0.82 -0.34,-0.988 C 23.272,9.724 22.912,9.58 22.5,9.58 H 21.172 C 21.124,9.58 21.1,9.628 21.1,9.652 v 4.696 c 0,0.048 0.048,0.072 0.072,0.072 h 1.404 c 0.432,0 0.84,-0.168 1.108,-0.508 C 23.828,13.72 24,13.404 24,12.924 23.952,12.348 23.592,12.008 23.468,11.916 Z m -3.224,-2.36 h -0.84 c -0.048,0 -0.072,0.024 -0.072,0.072 v 3.324 c 0,0.168 -0.048,0.288 -0.12,0.384 -0.072,0.096 -0.168,0.12 -0.288,0.12 -0.116,0 -0.216,-0.048 -0.288,-0.12 -0.072,-0.096 -0.12,-0.216 -0.12,-0.384 V 9.628 c 0,-0.048 -0.048,-0.072 -0.072,-0.072 H 17.6 c -0.048,0 -0.072,0.024 -0.072,0.072 v 3.348 c 0,0.432 0.096,0.84 0.36,1.108 0.264,0.264 0.624,0.408 1.036,0.408 0.432,0 0.796,-0.144 1.036,-0.408 0.264,-0.264 0.36,-0.648 0.36,-1.108 V 9.628 C 20.344,9.604 20.296,9.556 20.244,9.556"/></svg>