<svg viewBox="0 0 24 24" xmlns="http://www.w3.org/2000/svg"><path d="m 19.08503,1.605935 c -2.70811,-0.003 -4.09093,1.9894 -4.43221,2.79432 0.003,-1.20664 -1.18678,-2.63216 -2.57916,-2.63437 H 7.58915 v 9.67378 l 4.18087,10e-4 c 1.68649,0 2.88568,-1.46019 2.88716,-2.71253 0.38624,0.78796 1.71974,2.76195 4.42785,2.76047 2.71032,-7.4e-4 4.91571,-2.25333 4.91497,-4.96292 0,-2.76855 -2.20465,-4.91873 -4.91497,-4.9202 z M 0,1.767345 l 0.009,9.67595 h 2.69771 v -3.75332 h 1.70646 v 3.75332 H 7.04173 V 1.767345 H 4.41317 v 3.60004 H 2.70671 v -3.60004 z m 10.09465,2.15305 h 1.33048 c 0.38697,0 0.69139,0.38186 0.69139,0.81749 0,0.43415 -0.30442,0.81749 -0.69139,0.81749 h -1.33048 z m 8.99183,0.14455 c 1.35995,0 2.46337,1.10122 2.46337,2.46265 0,1.35921 -1.10342,2.46192 -2.46337,2.46192 -1.35922,0 -2.46265,-1.10271 -2.46265,-2.46192 0,-1.36143 1.10343,-2.46265 2.46265,-2.46265 z m 0,0.52621 c -1.0688,0 -1.93557,0.8669 -1.93557,1.93644 0,1.06879 0.86677,1.93556 1.93557,1.93556 1.06953,0 1.93411,-0.86677 1.93411,-1.93556 0,-1.06954 -0.86458,-1.93644 -1.93411,-1.93644 z m -4.9003,1.32611 c -0.0627,0.27642 -0.067,1.07472 0.006,1.34966 -0.20417,-0.31401 -0.68777,-0.701 -0.99662,-0.73933 0.30369,-0.0398 0.81155,-0.38698 0.99067,-0.61033 z m -4.09603,1.63484 h 1.32975 c 0.38771,0 0.69211,0.38186 0.69211,0.81822 0,0.43489 -0.3044,0.81677 -0.69211,0.81677 h -1.32975 z m -2.89747,4.95711 c -2.72875,0 -4.94084,2.21353 -4.94084,4.94301 0,2.72875 2.21209,4.94229 4.94084,4.94229 2.33258,0 4.28658,-1.61486 4.80703,-3.78629 0.52053,2.17136 2.47501,3.78571 4.80703,3.78571 2.72875,0 4.94142,-2.21281 4.94142,-4.94156 0,-2.72949 -2.21267,-4.94302 -4.94142,-4.94302 -2.5455,0 -4.6413,1.92415 -4.91323,4.39662 h -5.1698 v 1.88704 h 2.7811 c -0.62064,1.78821 -2.31213,1.49043 -2.31213,1.49043 -1.36659,-0.0251 -2.00792,-1.14263 -2.00792,-1.14263 -1.14324,-1.98796 0,-3.45171 0,-3.45171 0.52113,-0.91917 1.88704,-1.0187 1.88704,-1.0187 1.66364,0 2.23485,1.242 2.23485,1.242 h 2.58207 c -0.64644,-1.97544 -2.5039,-3.40319 -4.69604,-3.40319 z m 9.63237,2.48502 c 1.36806,0 2.47586,1.10853 2.47586,2.47659 0,1.36732 -1.1078,2.47746 -2.47586,2.47746 -1.36733,0 -2.47718,-1.11014 -2.47718,-2.47746 0,-1.36806 1.10985,-2.47659 2.47718,-2.47659 z m -0.0186,0.51501 c -1.07322,0 -1.9437,0.86903 -1.9437,1.94298 0,1.07249 0.87048,1.94298 1.9437,1.94298 1.07322,0 1.94312,-0.87049 1.94312,-1.94298 0,-1.07395 -0.8699,-1.94298 -1.94312,-1.94298 z"/></svg>