<svg viewBox="0 0 24 24" xmlns="http://www.w3.org/2000/svg"><path d="m 12.00009,3.13527 c -3.48888,0 -6.32709,2.83807 -6.32709,6.32696 0,3.48889 2.83821,6.32696 6.32709,6.32696 1.17502,0 2.29577,-0.32541 3.23578,-0.8858 L 17.65814,15.5 c 0.235,0.0542 0.43396,-0.14458 0.37973,-0.37959 l -0.59662,-2.4224 c 0.56039,-0.94001 0.8858,-2.06077 0.8858,-3.23578 0,-3.48889 -2.83807,-6.32696 -6.32696,-6.32696 z m 0.0926,2.59396 c 0.0746,0 0.15141,0.0272 0.21468,0.0814 l 2.16916,1.87998 c 0.0723,0.0542 0.10851,0.14461 0.10851,0.235 l -0.0181,3.81428 c 0,0.18077 -0.1446,0.30729 -0.3073,0.30729 H 9.92118 c -0.18077,0 -0.3073,-0.1446 -0.3073,-0.30729 V 7.92561 c 0,-0.0904 0.0361,-0.18077 0.10838,-0.235 l 2.1693,-1.87998 c 0.0542,-0.0542 0.12656,-0.0814 0.20113,-0.0814 z m -0.5492,12.56641 c -0.7573,0 -1.29511,0.54495 -1.29511,1.28101 0,0.73607 0.53781,1.28102 1.29511,1.28102 0.43173,0 0.79982,-0.19107 1.01215,-0.50248 l -0.32555,-0.24067 c -0.14862,0.21941 -0.39642,0.35388 -0.6866,0.35388 -0.50959,0 -0.87765,-0.36798 -0.87765,-0.8988 0,-0.53081 0.37514,-0.89893 0.87765,-0.89893 0.29726,0 0.54503,0.13447 0.69365,0.35388 l 0.3326,-0.21938 C 12.37864,18.48668 11.9823,18.28856 11.54349,18.29564 Z M 0,18.33104 v 2.47715 H 0.39632 V 19.7536 h 1.33769 v 1.06164 H 2.13032 V 18.33809 H 1.73401 v 1.04035 H 0.39632 v -1.0474 z m 22.87464,0.2831 v 0.50953 H 22.535 v 0.33259 h 0.33964 v 0.75034 c 0,0.45296 0.2266,0.65813 0.60879,0.65813 0.21232,0 0.3821,-0.0779 0.51657,-0.16989 l -0.1486,-0.29721 c -0.0991,0.0637 -0.22653,0.11322 -0.33977,0.11322 -0.14863,0 -0.26887,-0.092 -0.26887,-0.31849 v -0.7361 h 0.65108 V 19.12367 H 23.24276 V 18.61414 Z M 3.46096,19.07418 c -0.52374,0 -0.91303,0.38217 -0.91303,0.89175 0,0.50958 0.38929,0.89175 0.91303,0.89175 0.52374,0 0.91304,-0.38217 0.91304,-0.89175 0,-0.50958 -0.3893,-0.89174 -0.91304,-0.89175 z m 2.17276,0 c -0.16986,0 -0.38211,0.0495 -0.51658,0.24772 V 19.11662 H 4.74902 v 1.69157 h 0.36812 v -0.94137 c 0,-0.29018 0.19812,-0.44595 0.43875,-0.44595 0.24772,0 0.39632,0.16284 0.39632,0.44595 v 0.94137 h 0.36812 v -0.94137 c 0,-0.29018 0.19811,-0.44595 0.43875,-0.44595 0.24772,0 0.39632,0.16284 0.39632,0.44595 v 0.94137 h 0.36811 v -1.06164 c 0,-0.39634 -0.28318,-0.67237 -0.6866,-0.67237 -0.20525,0 -0.46707,0.0636 -0.6157,0.30426 -0.12032,-0.1911 -0.3327,-0.30425 -0.58749,-0.30426 z m 3.09298,0 c -0.49543,0 -0.84226,0.36093 -0.84226,0.89175 0,0.5379 0.35382,0.89175 0.86341,0.89175 0.25479,0 0.48841,-0.0637 0.69366,-0.24067 L 9.25752,20.3552 c -0.14155,0.11324 -0.31852,0.17694 -0.48838,0.17694 -0.24064,0 -0.45294,-0.12737 -0.50248,-0.43171 h 1.25267 c 0.007,-0.0425 0.007,-0.085 0.007,-0.1345 0,-0.53082 -0.32548,-0.89174 -0.79968,-0.89175 z m 4.98968,0 c -0.52374,0 -0.91303,0.38217 -0.91303,0.89175 0,0.50958 0.38211,0.89175 0.90585,0.89175 0.52374,0 0.91303,-0.38217 0.91303,-0.89175 0,-0.50958 -0.38211,-0.89174 -0.90585,-0.89175 z m 2.16571,0 c -0.16986,0 -0.38224,0.0495 -0.51672,0.24772 V 19.11662 H 14.9974 v 1.69157 h 0.36797 v -0.94137 c 0,-0.29018 0.19826,-0.44595 0.4389,-0.44595 0.24771,0 0.39631,0.16284 0.39631,0.44595 v 0.94137 h 0.36798 v -1.06164 c 0,-0.39634 -0.28305,-0.67237 -0.68647,-0.67237 z m 2.0525,0 c -0.16987,0 -0.38225,0.0495 -0.51672,0.24772 v -0.20528 h -0.36798 v 1.69157 h 0.36798 v -0.94137 c 0,-0.29018 0.19825,-0.44595 0.43889,-0.44595 0.24772,0 0.39632,0.16284 0.39632,0.44595 v 0.94137 h 0.36797 v -1.06164 c 0,-0.39634 -0.28304,-0.67237 -0.68646,-0.67237 z m 1.8826,0 c -0.49543,0 -0.84226,0.36093 -0.84226,0.89175 0,0.5379 0.35396,0.89175 0.86355,0.89175 0.25479,0 0.48827,-0.0637 0.69352,-0.24067 L 20.34801,20.3552 c -0.14155,0.11324 -0.31852,0.17694 -0.48838,0.17694 -0.24064,0 -0.45294,-0.12737 -0.50248,-0.43171 h 1.25267 c 0,-0.0425 0.007,-0.085 0.007,-0.1345 0,-0.53082 -0.32562,-0.89174 -0.79982,-0.89175 z m 1.95338,0 c -0.53789,0 -0.89174,0.38217 -0.89174,0.89175 0,0.50958 0.35385,0.89175 0.89174,0.89175 0.24772,0 0.47423,-0.0921 0.62993,-0.26901 l -0.22642,-0.25476 c -0.11325,0.0991 -0.25482,0.17694 -0.41761,0.17694 -0.29018,0 -0.50248,-0.21935 -0.50248,-0.54492 0,-0.32557 0.21938,-0.54506 0.50248,-0.54506 0.16279,0 0.28305,0.0637 0.40337,0.17694 l 0.23361,-0.25476 C 22.24482,19.16611 22.01121,19.07419 21.77057,19.07418 Z M 8.71246,19.39972 c 0.23356,0 0.38924,0.15574 0.43171,0.41761 H 8.26666 c 0.0425,-0.24772 0.18393,-0.41761 0.4458,-0.41761 z m 11.09768,0 c 0.23356,0 0.38924,0.15574 0.4317,0.41761 h -0.87762 c 0.0354,-0.24772 0.18407,-0.41761 0.44594,-0.41761 z m -16.34918,0.0212 c 0.30434,0 0.53082,0.21949 0.53082,0.54506 0,0.32557 -0.22648,0.54492 -0.53082,0.54492 -0.30433,0 -0.53081,-0.22643 -0.53081,-0.54492 0,-0.31849 0.22648,-0.54506 0.53081,-0.54506 z m 10.25542,0 c 0.30434,0 0.53082,0.21949 0.53082,0.54506 0,0.32557 -0.22648,0.54492 -0.53082,0.54492 -0.30433,0 -0.53081,-0.22643 -0.53081,-0.54492 0,-0.31849 0.22648,-0.54506 0.53081,-0.54506 z"/></svg>