<svg viewBox="0 0 24 24" xmlns="http://www.w3.org/2000/svg"><path d="M 7.1738281 0.001953125 C 6.0373255 0.002763682 5.1382495 0.0051447858 4.421875 0.009765625 C 2.9556276 0.015844649 2.0449868 0.023523252 1.9921875 0.033203125 C 1.8831696 0.051771339 1.7777184 0.081843449 1.6757812 0.12109375 C 1.5265873 0.15771164 1.467427 0.20518341 1.3808594 0.26757812 C 1.3654247 0.27870287 1.3499868 0.29066279 1.3320312 0.30273438 C 1.0066936 0.52149456 0.7411373 0.85066323 0.5703125 1.2597656 C 0.52091616 1.3663934 0.47983356 1.4753106 0.44921875 1.5820312 C 0.44760198 1.5877375 0.44517623 1.6094298 0.44335938 1.6445312 C 0.43313645 1.6857105 0.42448499 1.7272755 0.41601562 1.7695312 C 0.41409755 1.7785736 0.41596258 3.1021843 0.4140625 3.2851562 C 0.41281553 3.3923286 0.41129245 3.3949254 0.41015625 3.5097656 L 0.4140625 3.5097656 C 0.38858403 6.2895985 0.36287421 22.017751 0.38867188 23.894531 C 0.38867188 23.934125 0.3907291 23.968311 0.40039062 23.984375 C 0.40118284 23.985368 0.40339551 23.987446 0.40429688 23.988281 L 0.40625 23.990234 L 0.40820312 23.992188 L 0.41015625 23.992188 L 0.41210938 23.992188 C 0.46930746 24.007141 0.6615625 23.846953 1.3105469 23.302734 C 1.8075469 22.886734 2.6383281 22.173156 3.1113281 21.785156 C 3.4513281 21.505156 3.7370469 21.243937 3.7480469 21.210938 C 3.7590469 21.171937 3.770625 20.062141 3.765625 18.744141 L 3.7597656 16.349609 L 5.2753906 16.349609 C 6.1043906 16.349609 6.7955 16.372531 6.8125 16.394531 C 6.8295 16.415531 6.8419375 16.931156 6.8359375 17.535156 C 6.8359375 18.145156 6.8464219 18.640625 6.8574219 18.640625 C 6.8744219 18.640625 7.5000313 18.117156 7.5820312 18.035156 C 7.5990313 18.018156 7.9835937 17.701266 8.4335938 17.322266 C 9.3565938 16.552266 9.3506406 16.557828 9.8066406 16.173828 C 10.086641 15.937828 10.14675 15.909703 10.21875 15.970703 C 10.29075 16.036703 13.096547 18.391234 13.810547 18.990234 A 1239.37 1239.37 0 0 1 17.742188 22.296875 C 17.745188 22.299875 19.762359 24.036047 19.818359 23.998047 C 19.839359 23.988047 19.855469 20.666141 19.855469 16.619141 C 19.849469 10.045141 19.8605 9.2542813 19.9375 9.2382812 C 19.9815 9.2272813 20.833266 9.2207031 21.822266 9.2207031 L 23.623047 9.2207031 L 23.601562 5.4609375 C 23.599858 4.7553181 23.595547 4.0862933 23.589844 3.5097656 L 23.597656 3.5097656 C 23.59299 2.4438957 23.588966 1.7930147 23.583984 1.7695312 C 23.575574 1.7275689 23.566781 1.6854374 23.556641 1.6445312 C 23.554845 1.6091843 23.552406 1.5877642 23.550781 1.5820312 C 23.52011 1.4751123 23.47922 1.3685904 23.429688 1.2617188 C 23.2589 0.8526167 22.993143 0.52175984 22.667969 0.30273438 C 22.64732 0.28885214 22.628784 0.27631019 22.611328 0.26367188 C 22.529592 0.20449397 22.471138 0.15857955 22.330078 0.12304688 C 22.226345 0.082616554 22.118907 0.052125068 22.007812 0.033203125 C 21.957217 0.02392714 21.120127 0.015424067 19.759766 0.009765625 C 17.942403 0.0022062814 15.151312 -0.00053763441 12.101562 0.001953125 C 12.027517 0.0018850933 11.97019 0.0020134189 11.896484 0.001953125 C 9.9853644 0.001953125 8.4341707 0.0010542449 7.1738281 0.001953125 z"/></svg>