<svg viewBox="0 0 24 24" xmlns="http://www.w3.org/2000/svg"><path d="m 0,9.8744008 v 3.2447722 h 1.20666 v -1.608902 h 0.73741 v 1.608902 H 3.1508 V 9.8744008 H 1.94407 V 11.13472 H 1.20666 V 9.8744008 Z m 21.74753,0 v 3.2447722 h 0.91174 V 9.8744008 Z m 1.34081,0 V 13.119173 H 24 V 9.8744008 Z M 4.86025,10.752046 c -0.75918,0 -1.37456,0.564502 -1.37456,1.260804 0,0.696543 0.61538,1.261079 1.37456,1.261079 0.75931,0 1.37476,-0.564536 1.37476,-1.261079 0,-0.696302 -0.61545,-1.260804 -1.37476,-1.260804 z m 5.99346,0 c -0.75931,0 -1.37476,0.564502 -1.37476,1.260804 0,0.696543 0.61545,1.261079 1.37476,1.261079 0.52165,0 0.97546,-0.266606 1.20846,-0.65934 l -0.3037,-0.112368 c -0.18353,0.28047 -0.52004,0.46828 -0.90476,0.46828 -0.18891,0 -0.34201,-0.178751 -0.34201,-0.367668 v -0.408812 l 1.70564,-1.38e-4 c 0.007,-0.05276 0.0111,-0.126405 0.0111,-0.181033 0,-0.696302 -0.61552,-1.260804 -1.3747,-1.260804 z m 9.1843,0 c -0.75919,0 -1.37462,0.564502 -1.37462,1.260804 0,0.696543 0.61543,1.261079 1.37462,1.261079 0.52177,0 0.97553,-0.266606 1.20853,-0.65934 l -0.3037,-0.112368 c -0.18353,0.28047 -0.51997,0.46828 -0.90483,0.46828 -0.18881,0 -0.34187,-0.178751 -0.34187,-0.367668 v -0.408812 l 1.7055,-1.38e-4 c 0.007,-0.05276 0.0111,-0.126405 0.0111,-0.181033 0,-0.696302 -0.61547,-1.260804 -1.37477,-1.260804 z m -11.64187,0.0484 c -0.25767,-0.01722 -0.5408,0.06949 -0.7872,0.280609 L 7.53514,10.866553 H 6.54291 v 2.252615 h 0.99223 v -1.354224 c 0,-0.295027 0.18779,-0.455834 0.34865,-0.455834 0.13405,0 0.30827,0.02679 0.30827,0.321822 v 1.488236 h 0.99223 v -1.461475 c 0,-0.51121 -0.35873,-0.828551 -0.78817,-0.857247 z m 3.71112,0.06611 1.33403,2.279445 -0.17419,0.428934 c -0.0604,0.134185 -0.20489,0.140823 -0.23317,0.01342 0,-0.230371 -0.18681,-0.417041 -0.41718,-0.417041 -0.23041,0 -0.41718,0.18667 -0.41718,0.417041 0.002,0.241401 0.24289,0.556481 0.71881,0.536324 0.47606,-0.02005 0.67715,-0.41552 0.74419,-0.583138 l 1.10259,-2.666129 0.79466,2.243764 h 0.724 l 0.44249,-1.293926 0.4559,1.293926 h 0.68375 l 0.77095,-2.252615 h -0.39547 l -0.44249,1.307272 -0.46254,-1.307272 H 16.6593 l -0.46268,1.360932 -0.48266,-1.360932 h -0.94521 -0.007 -0.37527 l -0.47609,1.146292 -0.67034,-1.146292 z m -7.24701,0.214778 c 0.18891,0 0.34201,0.152959 0.34201,0.341737 v 1.17976 c 0,0.188917 -0.1531,0.342014 -0.34201,0.342014 -0.18866,0 -0.34181,-0.153097 -0.34181,-0.342014 v -1.17976 c 0,-0.188778 0.15315,-0.341737 0.34181,-0.341737 z m 5.99346,0 c 0.18878,0 0.34188,0.152959 0.34188,0.341737 v 0.449126 H 10.5117 v -0.449126 c 0,-0.188778 0.1531,-0.341737 0.34201,-0.341737 z m 9.1843,0 c 0.18892,0 0.34202,0.152959 0.34202,0.341737 v 0.449126 h -0.68389 v -0.449126 c 0,-0.188778 0.15306,-0.341737 0.34187,-0.341737 z"/></svg>