<svg viewBox="0 0 24 24" xmlns="http://www.w3.org/2000/svg"><path d="M 0,7.8684005 V 11.338542 H 1.030973 V 9.7289705 H 1.941024 V 11.338542 H 2.971997 V 7.8684005 H 1.941024 v 1.475159 H 1.030973 v -1.475159 z m 21.701026,0 v 3.4701415 h 0.970753 V 7.8684005 Z m 1.328221,0 V 11.338542 H 24 V 7.8684005 Z M 4.736696,8.7220855 c -0.645541,0 -1.42072,0.35242 -1.42072,1.3499005 0,0.997481 0.775179,1.350383 1.42072,1.350383 0.64543,0 1.421202,-0.352902 1.421202,-1.350383 0,-0.9974805 -0.775772,-1.3499005 -1.421202,-1.3499005 z m 6.148745,0 c -0.645431,0 -1.425538,0.35242 -1.425538,1.3499005 0,0.997481 0.700887,1.350383 1.485758,1.350383 0.552543,0 1.179601,-0.176645 1.277154,-0.812254 h -0.450448 c -0.06044,0.371198 -0.376056,0.510669 -0.654716,0.510669 -0.362214,0 -0.617621,-0.167109 -0.617621,-0.580043 v -0.329525 h 1.769035 c 0.0046,-0.0464 0.0048,-0.09283 0.0048,-0.13923 0,-0.9974805 -0.761456,-1.3499005 -1.388442,-1.3499005 z m 9.120742,0 c -0.645652,0 -1.42602,0.35242 -1.42602,1.3499005 0,0.997481 0.701369,1.350383 1.48624,1.350383 0.552544,0 1.179601,-0.176645 1.277154,-0.812254 h -0.450448 c -0.06033,0.371198 -0.376167,0.510669 -0.654716,0.510669 -0.362215,0 -0.617621,-0.167109 -0.617621,-0.580043 v -0.329525 h 1.769035 c 0.0047,-0.0464 0.0048,-0.09283 0.0048,-0.13923 0,-0.9974805 -0.761677,-1.3499005 -1.388441,-1.3499005 z m -11.735271,0.01397 c -0.314549,0 -0.661474,0.161436 -0.803581,0.405645 V 8.8054295 H 6.473453 V 11.338541 H 7.467331 V 9.5247025 c 0.07289,-0.173721 0.226662,-0.269305 0.367103,-0.269305 0.208996,0 0.324708,0.153101 0.324708,0.375775 V 11.338542 H 9.15302 V 9.5478275 c 0,-0.501071 -0.385231,-0.811771 -0.882108,-0.811771 z m 3.965875,0.06937 1.056025,2.6251285 c -0.132331,0.368865 -0.340056,0.54391 -0.531385,0.54391 -0.0017,0 -0.0028,-4.81e-4 -0.0043,-4.81e-4 0.07889,-0.05805 0.120441,-0.15919 0.120441,-0.245218 0,-0.222784 -0.166903,-0.362286 -0.394564,-0.362286 -0.255439,0 -0.432142,0.213382 -0.432142,0.426842 0,0.329349 0.227615,0.515005 0.594496,0.515005 0.557321,0 0.859296,-0.459474 1.007848,-0.830559 l 0.99436,-2.5201045 0.733244,2.3808745 h 0.75685 l 0.468755,-1.5522415 0.441295,1.5522415 h 0.738544 L 18.566228,8.8054255 H 18.176446 L 17.735632,10.252161 17.303491,8.8054255 H 16.518217 L 16.083666,10.245416 15.640926,8.8054255 H 14.707269 14.600317 14.312705 L 13.817452,10.091734 13.318827,8.8054255 Z M 4.73236,9.0236645 c 0.157886,0 0.375776,0.153238 0.375776,0.631109 v 0.4172075 0.417689 c 0,0.477871 -0.21789,0.631109 -0.375776,0.631109 -0.157885,0 -0.376257,-0.153238 -0.376257,-0.631109 V 10.071981 9.6547735 c 0,-0.477871 0.218372,-0.631109 0.376257,-0.631109 z m 6.153081,0 c 0.157996,0 0.357468,0.153238 0.357468,0.631109 v 0.259671 H 10.50003 v -0.259671 c 0,-0.477871 0.227525,-0.631109 0.385411,-0.631109 z m 9.120742,0 c 0.157885,0 0.357468,0.153238 0.357468,0.631109 v 0.259671 h -0.742879 v -0.259671 c 0,-0.477871 0.227414,-0.631109 0.385411,-0.631109 z M 0,12.605574 v 3.47014 H 0.380593 V 14.415077 H 2.35245 v 1.660637 H 2.733043 V 12.605579 H 2.35245 v 1.470824 H 0.380593 v -1.470824 z m 4.539655,0.881627 c -0.789316,0 -1.198145,0.454353 -1.198145,1.321959 0,0.867605 0.408829,1.322439 1.198145,1.322439 0.789427,0 1.198145,-0.454834 1.198145,-1.322439 0,-0.867606 -0.408718,-1.321959 -1.198145,-1.321959 z m 2.930566,0 c -0.363324,0 -0.678991,0.17751 -0.86332,0.511633 l -0.02361,-0.45623 H 6.248465 v 2.53311 h 0.371922 v -1.331593 c 0.02789,-0.589208 0.306454,-0.932211 0.761667,-0.932211 0.394658,0 0.580043,0.236337 0.580043,0.746733 v 1.517071 h 0.37144 v -1.3499 c 0.02322,-0.57067 0.315871,-0.913904 0.775639,-0.913904 0.390104,0 0.566553,0.227295 0.566553,0.737579 v 1.526225 h 0.37144 v -1.600411 c 0,-0.658808 -0.287624,-0.988097 -0.854167,-0.988097 -0.415878,0 -0.737035,0.194196 -0.938474,0.581488 C 8.152863,13.690171 7.872763,13.487206 7.470217,13.487206 Z m 4.230363,0 c -0.724429,0 -1.170203,0.459015 -1.170203,1.321959 0,0.881481 0.399565,1.322439 1.188992,1.322439 0.529432,0 0.919324,-0.199452 1.114318,-0.654234 l -0.29243,-0.158018 c -0.162553,0.361872 -0.422781,0.496698 -0.817552,0.496698 -0.51721,0 -0.807222,-0.288652 -0.820443,-0.885963 h 1.939579 c 0.0046,-0.05106 0.0096,-0.134497 0.0096,-0.213421 0,-0.802669 -0.441357,-1.22946 -1.151896,-1.22946 z m -7.160929,0.315073 c 0.580543,0 0.826706,0.302005 0.826706,1.00255 0,0.709869 -0.246163,1.011221 -0.826706,1.011221 -0.580543,0 -0.826706,-0.301352 -0.826706,-1.011221 0,-0.700545 0.246163,-1.00255 0.826706,-1.00255 z m 7.165747,0 c 0.463879,0 0.754525,0.250136 0.769857,0.816589 h -1.569102 c 0.04778,-0.569338 0.30659,-0.816589 0.799245,-0.816589 z"/></svg>