<svg viewBox="0 0 24 24" xmlns="http://www.w3.org/2000/svg"><path d="M 11.997,0.001 C 11.027,-0.002 10.941,0.003 10.756,0.067 c -0.371,0.129 -0.632,0.397 -0.761,0.787 -0.046,0.142 -0.056,0.291 -0.056,0.784 0,0.476 -0.009,0.615 -0.046,0.645 -0.027,0.02 -0.046,0.03 -0.046,0.02 0,-0.009 -0.076,0.003 -0.172,0.03 -0.093,0.03 -0.199,0.056 -0.235,0.063 -0.033,0.009 -0.093,0.023 -0.132,0.036 -0.04,0.017 -0.086,0.027 -0.106,0.03 -0.017,0.003 -0.056,0.013 -0.083,0.023 -0.026,0.009 -0.175,0.063 -0.331,0.112 -0.156,0.05 -0.294,0.103 -0.311,0.119 -0.02,0.013 -0.053,0.026 -0.079,0.026 -0.05,0 -0.225,0.073 -0.377,0.152 -0.053,0.03 -0.093,0.04 -0.093,0.023 0,-0.013 -0.013,-0.013 -0.026,0.007 -0.02,0.03 -0.341,0.192 -0.361,0.185 -0.007,0 -0.152,0.079 -0.328,0.179 -0.175,0.099 -0.331,0.182 -0.347,0.182 -0.017,0 -0.03,0.009 -0.03,0.023 0,0.03 -0.189,0.142 -0.235,0.142 -0.017,0 -0.228,-0.198 -0.47,-0.44 C 5.693,2.766 5.591,2.693 5.257,2.584 5.005,2.504 4.519,2.597 4.29,2.772 4.105,2.911 2.831,4.201 2.749,4.33 2.55,4.648 2.5,5.144 2.643,5.405 c 0.02,0.036 0.04,0.083 0.043,0.106 0.013,0.076 0.199,0.291 0.586,0.678 0.212,0.212 0.387,0.397 0.387,0.407 0,0.013 -0.043,0.083 -0.096,0.159 -0.05,0.076 -0.103,0.172 -0.116,0.212 -0.013,0.043 -0.036,0.076 -0.05,0.076 -0.017,0 -0.046,0.05 -0.073,0.106 -0.023,0.06 -0.053,0.116 -0.063,0.126 -0.017,0.013 -0.271,0.519 -0.281,0.562 -0.003,0.009 -0.03,0.076 -0.063,0.149 -0.136,0.304 -0.341,0.843 -0.367,0.959 -0.003,0.017 -0.017,0.056 -0.026,0.083 -0.03,0.066 -0.156,0.542 -0.195,0.734 -0.02,0.089 -0.043,0.159 -0.056,0.162 -0.009,0 -0.301,0.007 -0.649,0.009 -0.347,0.003 -0.688,0.027 -0.764,0.046 -0.397,0.116 -0.761,0.529 -0.831,0.949 -0.017,0.089 -0.026,0.612 -0.023,1.158 0.003,0.933 0.009,1.002 0.076,1.181 0.136,0.351 0.374,0.585 0.735,0.728 0.159,0.059 0.255,0.069 0.824,0.073 l 0.645,0.004 0.043,0.165 c 0.023,0.089 0.05,0.192 0.056,0.225 0.007,0.033 0.023,0.089 0.033,0.122 0.009,0.033 0.023,0.089 0.03,0.122 0.05,0.248 0.384,1.141 0.424,1.128 0.017,-0.007 0.615,-0.595 1.33,-1.31 L 5.502,13.225 5.475,13.079 C 5.396,12.662 5.369,11.677 5.426,11.26 5.442,11.151 5.455,11.025 5.459,10.979 5.492,10.651 5.743,9.775 5.915,9.391 6.147,8.875 6.438,8.366 6.65,8.094 6.69,8.048 6.756,7.959 6.802,7.899 7.083,7.525 7.639,6.983 8.059,6.669 8.443,6.381 9.065,6.037 9.515,5.862 9.912,5.706 9.982,5.68 10.028,5.67 c 0.02,-0.007 0.116,-0.033 0.215,-0.063 0.099,-0.027 0.242,-0.06 0.314,-0.073 0.073,-0.009 0.146,-0.026 0.159,-0.036 0.013,-0.007 0.073,-0.023 0.132,-0.03 0.06,-0.009 0.142,-0.023 0.189,-0.03 0.371,-0.059 1.208,-0.079 1.605,-0.036 0.989,0.106 1.81,0.37 2.68,0.86 0.129,0.073 0.238,0.142 0.248,0.152 0.009,0.009 0.086,0.063 0.172,0.116 0.089,0.056 0.159,0.109 0.159,0.122 0,0.017 0.017,0.026 0.036,0.026 0.036,0 0.278,0.195 0.556,0.447 0.136,0.122 0.192,0.179 0.467,0.48 0.165,0.179 0.47,0.589 0.642,0.853 0.298,0.47 0.715,1.419 0.797,1.826 0.007,0.026 0.026,0.109 0.043,0.182 0.02,0.073 0.043,0.175 0.053,0.232 0.009,0.053 0.023,0.136 0.033,0.182 0.023,0.119 0.056,0.361 0.069,0.513 0.02,0.202 0.02,1.042 0,1.191 -0.083,0.665 -0.096,0.731 -0.265,1.34 -0.103,0.377 -0.387,1.025 -0.606,1.389 -0.04,0.063 -0.096,0.159 -0.126,0.215 -0.03,0.053 -0.066,0.106 -0.076,0.116 -0.009,0.009 -0.063,0.079 -0.113,0.159 -0.106,0.165 -0.569,0.718 -0.711,0.857 -0.314,0.298 -0.605,0.546 -0.801,0.681 -0.51,0.354 -0.9,0.572 -1.357,0.761 -0.261,0.109 -0.738,0.271 -0.88,0.304 -0.754,0.165 -1.019,0.198 -1.651,0.195 -0.563,0 -0.983,-0.033 -1.175,-0.096 -0.046,-0.013 -0.367,0.288 -1.37,1.29 -0.721,0.721 -1.31,1.323 -1.31,1.34 0,0.013 0.079,0.053 0.175,0.086 0.093,0.03 0.189,0.066 0.205,0.079 0.02,0.013 0.189,0.073 0.381,0.129 0.192,0.06 0.384,0.122 0.43,0.136 0.046,0.017 0.165,0.046 0.265,0.066 0.351,0.076 0.321,0.003 0.324,0.738 0,0.404 0.017,0.671 0.04,0.714 0.02,0.04 0.027,0.069 0.017,0.069 -0.009,0 0.02,0.073 0.066,0.162 0.089,0.175 0.341,0.466 0.407,0.466 0.023,0 0.04,0.013 0.04,0.03 0,0.017 0.056,0.05 0.126,0.073 0.066,0.02 0.142,0.056 0.169,0.076 0.033,0.026 0.387,0.036 1.158,0.036 1.016,0 1.128,-0.007 1.304,-0.066 0.103,-0.033 0.189,-0.076 0.189,-0.089 0,-0.013 0.02,-0.026 0.046,-0.026 0.066,0 0.371,-0.318 0.433,-0.453 0.119,-0.248 0.139,-0.394 0.139,-1.015 0.003,-0.341 0.007,-0.625 0.017,-0.632 0.007,-0.007 0.05,-0.02 0.093,-0.03 0.463,-0.096 1.317,-0.374 1.764,-0.576 0.122,-0.056 0.222,-0.093 0.222,-0.079 0,0.013 0.013,0.007 0.027,-0.009 0.013,-0.02 0.142,-0.093 0.288,-0.162 0.146,-0.073 0.271,-0.139 0.281,-0.149 0.009,-0.013 0.056,-0.04 0.106,-0.06 0.05,-0.023 0.152,-0.083 0.232,-0.132 0.324,-0.212 0.275,-0.228 0.754,0.251 0.457,0.46 0.609,0.569 0.893,0.638 0.304,0.076 0.569,0.04 0.877,-0.119 0.132,-0.069 1.456,-1.363 1.611,-1.574 0.255,-0.354 0.281,-0.863 0.063,-1.277 -0.04,-0.076 -0.275,-0.341 -0.519,-0.589 l -0.45,-0.453 0.063,-0.086 c 0.073,-0.106 0.159,-0.248 0.251,-0.423 0.04,-0.073 0.079,-0.139 0.093,-0.149 0.02,-0.02 0.338,-0.668 0.341,-0.698 0.003,-0.009 0.04,-0.099 0.083,-0.198 0.043,-0.099 0.089,-0.208 0.106,-0.245 0.056,-0.139 0.235,-0.671 0.281,-0.843 0.063,-0.228 0.149,-0.562 0.159,-0.628 0.007,-0.043 0.106,-0.05 0.619,-0.053 0.665,-0.007 0.761,-0.017 0.979,-0.116 0.152,-0.069 0.232,-0.126 0.364,-0.261 0.079,-0.079 0.248,-0.344 0.265,-0.413 0.003,-0.017 0.023,-0.103 0.043,-0.185 0.04,-0.162 0.03,-2.137 -0.009,-2.276 -0.109,-0.387 -0.496,-0.764 -0.867,-0.85 -0.053,-0.009 -0.381,-0.023 -0.725,-0.026 -0.698,-0.009 -0.658,0.007 -0.715,-0.275 -0.017,-0.086 -0.063,-0.265 -0.099,-0.39 -0.04,-0.129 -0.073,-0.255 -0.083,-0.281 -0.007,-0.027 -0.013,-0.053 -0.017,-0.059 -0.007,-0.003 -0.009,-0.017 -0.017,-0.033 -0.003,-0.013 -0.017,-0.046 -0.026,-0.073 -0.013,-0.027 -0.046,-0.126 -0.076,-0.215 -0.03,-0.093 -0.069,-0.202 -0.089,-0.248 -0.017,-0.046 -0.036,-0.099 -0.04,-0.119 -0.023,-0.096 -0.493,-1.029 -0.668,-1.323 L 20.345,6.587 20.795,6.13 C 21.097,5.826 21.272,5.618 21.322,5.512 21.547,5.035 21.467,4.519 21.113,4.139 20.736,3.732 19.783,2.806 19.674,2.737 19.359,2.545 18.899,2.495 18.598,2.624 c -0.073,0.03 -0.139,0.056 -0.149,0.06 -0.043,0.003 -0.285,0.222 -0.632,0.569 -0.212,0.212 -0.41,0.384 -0.437,0.384 -0.03,0 -0.083,-0.033 -0.122,-0.073 -0.036,-0.04 -0.066,-0.059 -0.066,-0.04 0,0.017 -0.013,0.013 -0.026,-0.007 -0.03,-0.043 -0.612,-0.367 -0.917,-0.509 -0.242,-0.112 -0.87,-0.367 -0.926,-0.377 -0.017,-0.003 -0.046,-0.013 -0.066,-0.023 -0.017,-0.013 -0.122,-0.046 -0.232,-0.079 -0.109,-0.033 -0.288,-0.086 -0.397,-0.119 -0.109,-0.033 -0.281,-0.076 -0.381,-0.096 L 14.065,2.273 V 1.589 l -0.004,-0.681 -0.096,-0.198 c -0.096,-0.198 -0.414,-0.546 -0.5,-0.546 -0.027,0 -0.046,-0.013 -0.046,-0.026 0,-0.017 -0.086,-0.053 -0.189,-0.083 -0.159,-0.043 -0.38,-0.053 -1.234,-0.053 z M 11.821,7.029 c -0.003,0.003 -0.146,0.013 -0.311,0.026 -0.169,0.013 -0.324,0.027 -0.347,0.036 -0.023,0.007 -0.079,0.02 -0.126,0.03 -0.351,0.063 -0.936,0.261 -1.241,0.417 -0.215,0.112 -0.586,0.331 -0.612,0.361 -0.009,0.013 -0.076,0.06 -0.149,0.109 -0.073,0.05 -0.185,0.139 -0.251,0.198 -0.066,0.06 -0.156,0.142 -0.199,0.182 -0.245,0.218 -0.602,0.652 -0.784,0.953 -0.185,0.298 -0.43,0.824 -0.503,1.075 -0.043,0.136 -0.089,0.265 -0.103,0.284 -0.017,0.02 -0.023,0.043 -0.013,0.053 0.009,0.007 0,0.066 -0.017,0.129 -0.02,0.063 -0.043,0.172 -0.053,0.245 -0.009,0.073 -0.026,0.169 -0.033,0.215 -0.009,0.046 -0.02,0.291 -0.026,0.546 -0.009,0.407 0.023,0.81 0.093,1.141 0.009,0.046 0.027,0.116 0.033,0.159 0.009,0.04 0.05,0.179 0.093,0.304 l 0.073,0.235 -3.431,3.43 c -1.886,1.885 -3.484,3.503 -3.547,3.592 -0.063,0.089 -0.116,0.182 -0.116,0.208 0,0.023 -0.009,0.043 -0.026,0.043 -0.027,0 -0.103,0.159 -0.122,0.261 -0.007,0.04 -0.02,0.083 -0.03,0.096 -0.069,0.112 -0.096,0.698 -0.046,0.963 0.03,0.169 0.182,0.595 0.222,0.632 0.009,0.009 0.04,0.056 0.063,0.103 0.056,0.109 0.384,0.453 0.536,0.566 0.364,0.265 0.811,0.397 1.284,0.377 0.364,-0.017 0.582,-0.073 0.917,-0.245 0.215,-0.109 0.5,-0.384 3.732,-3.612 l 3.501,-3.5 0.162,0.063 c 0.089,0.033 0.195,0.066 0.238,0.076 0.043,0.009 0.106,0.023 0.142,0.033 0.49,0.112 0.625,0.129 1.158,0.129 0.496,0.003 0.748,-0.023 1.142,-0.112 0.271,-0.063 0.771,-0.232 0.91,-0.304 0.036,-0.02 0.073,-0.04 0.083,-0.04 0.076,-0.013 0.794,-0.44 0.86,-0.513 0.009,-0.009 0.083,-0.069 0.165,-0.136 0.443,-0.357 0.877,-0.86 1.151,-1.336 0.162,-0.284 0.4,-0.827 0.453,-1.042 0.003,-0.009 0.013,-0.04 0.023,-0.066 0.033,-0.079 0.122,-0.483 0.146,-0.645 0.036,-0.232 0.046,-0.384 0.05,-0.711 0,-0.334 -0.026,-0.784 -0.053,-0.827 -0.007,-0.009 -0.02,-0.086 -0.033,-0.165 -0.073,-0.499 -0.529,-0.771 -0.95,-0.566 -0.093,0.046 -0.44,0.367 -1.003,0.933 -0.473,0.476 -0.933,0.923 -1.022,0.996 -0.433,0.344 -1.019,0.447 -1.552,0.268 -0.129,-0.046 -0.245,-0.093 -0.255,-0.103 -0.009,-0.013 -0.056,-0.043 -0.106,-0.069 -0.129,-0.066 -0.361,-0.294 -0.476,-0.47 -0.351,-0.519 -0.381,-1.125 -0.086,-1.697 0.103,-0.195 0.258,-0.367 1.085,-1.197 0.529,-0.533 0.986,-1.012 1.016,-1.065 0.027,-0.053 0.046,-0.189 0.05,-0.298 0,-0.208 -0.079,-0.374 -0.242,-0.509 C 13.224,7.172 12.768,7.063 12.41,7.043 12.182,7.029 11.831,7.023 11.821,7.029 Z"/></svg>