<svg viewBox="0 0 24 24" xmlns="http://www.w3.org/2000/svg"><path d="m12 0c-1.5 0-3.2 0.3-4.6 0.9-1.4 0.6-2.8 1.5-3.9 2.6-1.1 1.1-2 2.5-2.6 3.9-0.6 1.4-0.9 3.1-0.9 4.6 0 1.5 0.3 3.2 0.9 4.6 0.6 1.4 1.5 2.8 2.6 3.9 1.1 1.1 2.5 2 3.9 2.6 1.4 0.6 3.1 0.9 4.6 0.9 1.5 0 3.2-0.3 4.6-0.9 1.4-0.6 2.8-1.5 3.9-2.6 1.1-1.1 2-2.5 2.6-3.9 0.6-1.4 0.9-3.1 0.9-4.6 0-1.5-0.3-3.2-0.9-4.6-0.6-1.4-1.5-2.8-2.6-3.9-1.1-1.1-2.5-2-3.9-2.6-1.4-0.6-3.1-0.9-4.6-0.9zm-1.7 4.7h3.5c0.5 0 0.7 0.3 0.7 0.6v9l-2.3-2.2-2.7 2.6v-9.4c0-0.3 0.3-0.6 0.8-0.6zm-6.4 4.8h3.7c0.3 0 0.6 0.3 0.6 0.8v5.7l-1.3 1.2-1.1-1.2-2.5 2.3v-8c0-0.5 0.3-0.8 0.6-0.8zm12.5 0h3.7l-4.3 4.4v-3.7c0-0.4 0.3-0.7 0.6-0.7zm4.3 0.9v8.2c0 0.3-0.3 0.6-0.6 0.6h-3.7c-0.3 0-0.6-0.3-0.6-0.6v-3.3zm-8.6 3.2l2.3 2.2v2.8c0 0.4-0.3 0.7-0.7 0.7h-3.6c-0.3 0-0.6-0.3-0.6-0.7v-2.4c0 0 2.6-2.6 2.6-2.6zm-6.4 3.9l1.2 1.2 1.2-1.1v1c0 0.4-0.3 0.7-0.6 0.7h-3.6q-0.1 0-0.1 0c0 0 1.9-1.8 1.9-1.8z"/></svg>