<svg viewBox="0 0 24 24" xmlns="http://www.w3.org/2000/svg"><path d="m18.8 12.4c0.8-1.2 1.2-1.8 1.2-4.6q-0.1-1.5-0.6-2.9-0.6-1.5-1.7-2.6-1.1-1-2.5-1.7-1.4-0.6-3-0.6-0.8 0-1.5 0.2-0.8 0.2-1.5 0.5-0.7 0.3-1.4 0.8-0.6 0.4-1.2 1-0.6 0.6-1.1 1.4-0.5 0.7-0.8 1.6-0.4 0.8-0.5 1.7-0.2 0.8-0.2 1.7 0.1 0.5 0.2 0.9 0.1 0.4 0.3 0.8 0.1 0.4 0.3 0.8 0.2 0.4 0.5 0.7 0.1 0.2 0.2 0.4 0.1 0.2 0.1 0.3 0.1 0.2 0 0.4 0 0.2-0.1 0.4-0.1 0.2-0.3 0.3c-0.2 0.2-0.2 0.3-0.2 0.3q0.2 0 0.3 0 0.2-0.1 0.4-0.1 0.1-0.1 0.3-0.1 0.1-0.1 0.3-0.2 0.2 0 0.4-0.1 0.1-0.1 0.3-0.1 0.2-0.1 0.4-0.2 0.2 0 0.4-0.1 0.2 0 0.5-0.1 0.2 0 0.5 0.1 0.2 0 0.4 0 0.3 0.1 0.5 0.2 0.1 0 0.2 0.1 0.1 0 0.2 0 0.1 0.1 0.2 0.1 0.1 0 0.3 0 0.1 0 0.3 0 0.1-0.1 0.3-0.1 0.2 0 0.3-0.1 0.2 0 0.3-0.1 0.2-0.1 0.4-0.1 0.2-0.1 0.3-0.1 0.2 0 0.4 0 0.2-0.1 0.4 0 0 0 0.1 0 0.1 0.1 0.2 0.1 0.1 0 0.1 0.1 0.1 0 0.2 0 0.2 0.1 0.3 0.2 0.2 0.1 0.4 0.1 0.2 0.1 0.3 0.1 0.2 0.1 0.4 0.1 0.2 0 0.4 0 0.2-0.1 0.4-0.1 0.2 0 0.4 0 0.2 0 0.3 0 0.3 0 0.5 0 0.2 0 0.4 0.1 0.3 0.1 0.5 0.2 0.2 0.1 0.3 0.3c0.2 0.1 0.2 0.1 0.4 0 0 0-0.1-0.1-0.2-0.2q-0.1-0.2-0.2-0.4 0-0.2 0-0.4-0.1-0.2 0-0.4 0-0.2 0.2-0.4zm-3.2-2.1q-0.1 0.1-0.1 0.2-0.2 0.2-0.3 0.4-0.2 0.2-0.4 0.3-0.2 0.2-0.4 0.3-0.3 0.1-0.5 0.2-0.2 0.1-0.5 0.2-0.2 0-0.4 0.1-0.3 0-0.5 0.1-0.2 0-0.5 0c-2.2 0-4.1-1.4-4.2-3.2q0.1-0.4 0.1-0.7 0.1-0.3 0.2-0.6 0.1-0.4 0.3-0.7 0.2-0.3 0.4-0.5 0.1-0.3 0.3-0.6 0.2-0.3 0.4-0.6 0.2-0.2 0.5-0.5 0.2-0.2 0.5-0.4c1.6-0.8 3.8 0.1 4.9 2q0.1 0.2 0.2 0.4 0.1 0.3 0.1 0.5 0.1 0.2 0.2 0.5 0 0.2 0 0.4 0.1 0.1 0.1 0.2 0 0.1 0 0.1 0 0.1 0 0.2 0 0.1 0 0.1 0 0.3 0 0.5 0 0.2-0.1 0.4 0 0.1-0.1 0.3-0.1 0.2-0.2 0.4zm-9.5-4q0 0.2-0.1 0.3-0.2 0.1-0.4 0.1-0.2 0-0.3-0.1-0.1-0.1-0.1-0.3c0-3 3.8-5.9 6.7-5.9q0.2 0 0.4 0.1 0.1 0.2 0.1 0.4 0 0.2-0.1 0.3-0.2 0.2-0.4 0.2c-2.4 0-5.8 2.5-5.8 4.9zm5.8-0.3q-0.1 0-0.2 0-0.1 0-0.1 0-0.1 0.1-0.2 0.1-0.1 0-0.2 0c0.4 0.2 0.6 0.5 0.7 0.9 0.1 0.4-0.1 0.9-0.3 1.2-0.3 0.3-0.8 0.4-1.2 0.3-0.4-0.1-0.7-0.3-0.9-0.7-0.3 1 0.1 2.2 1 2.8 0.9 0.6 2.1 0.6 2.9 0 0.9-0.7 1.3-1.8 0.9-2.9-0.3-1-1.3-1.7-2.4-1.7zm1.8 7.9q-0.1-0.1-0.2-0.1 0 0-0.1-0.1-0.1 0-0.2 0 0 0-0.1-0.1 0 0-0.1 0 0 0-0.1 0 0 0-0.1 0 0 0 0 0 0 0.5 0 0.9 0 1.7 0 3.5 0 0.7 0 1.5 0.1 0.7 0.1 1.5 0.1 0.8 0.2 1.5 0 0.8 0.1 1.5 0.2-1 0.3-2 0.2-1 0.3-2 0.1-1 0.2-2 0-1 0.1-2 0-1 0-1.9-0.2-0.1-0.4-0.2zm-5.8-0.1q-0.1 0-0.3 0-0.1 0.1-0.2 0.1-0.1 0.1-0.3 0.1-0.1 0.1-0.2 0.1-0.1 0.6-0.1 1.2-0.1 0.6-0.1 1.3-0.1 0.6-0.1 1.2 0 0.6 0 1.2 0.1 0.7 0.1 1.3 0.1 0.6 0.2 1.2 0.1 0.6 0.2 1.2 0.2 0.7 0.4 1.3 0-0.2 0-0.3-0.1-0.6-0.1-1.2 0-0.6 0-1.1 0-0.6 0-1.2 0-0.6 0-1.2 0.1-0.5 0.1-1 0.1-0.5 0.1-1 0.1-0.5 0.2-1 0.1-0.5 0.2-1 0.1-0.6 0.2-1.3 0 0-0.1 0 0 0-0.1 0 0 0 0 0.1-0.1 0-0.1 0zm1.7 0.2q0 0.5 0 0.9 0 0.5 0 1 0 0.5 0 0.9 0 0.5 0 1 0.1 0.7 0.1 1.5 0.1 0.8 0.3 1.6 0.1 0.8 0.3 1.5 0.2 0.8 0.4 1.5 0-0.3 0-0.6-0.1-0.7-0.1-1.4 0-0.7 0-1.4 0-0.7 0-1.4 0-0.6 0.1-1.3 0-0.5 0-0.9 0.1-0.5 0.1-1 0.1-0.4 0.1-0.9 0.1-0.4 0.2-0.9-0.1 0-0.2 0 0 0.1-0.1 0.1-0.1 0-0.1 0-0.1 0-0.2 0-0.1 0-0.2 0-0.1 0-0.2-0.1-0.1 0-0.2 0-0.2-0.1-0.3-0.1zm6.2 0.3q0.1 0.5 0.2 0.9 0 0.4 0.1 0.9 0 0.4 0.1 0.9 0 0.4 0 0.8 0.1 0.7 0.1 1.4 0 0.7 0 1.4 0 0.7 0 1.4-0.1 0.6-0.1 1.3 0 0.4 0 0.7 0.2-0.7 0.4-1.5 0.2-0.8 0.3-1.5 0.2-0.8 0.2-1.6 0.1-0.8 0.2-1.6 0-0.4 0-0.9 0-0.4 0-0.8 0-0.5 0-0.9 0-0.5 0-0.9-0.2 0-0.4 0-0.2-0.1-0.4 0-0.1 0-0.3 0-0.2 0-0.4 0zm-1.2-0.1q0 0.8 0 1.6 0 0.7 0.1 1.4c0.1 0.8 0.2 1.6 0.3 2.5q0 0.4 0 0.8 0 0.3 0 0.7 0 0.4 0 0.8 0 0.4 0 0.8 0.1-0.4 0.1-0.8 0.1-0.4 0.2-0.8 0-0.3 0.1-0.7 0-0.4 0-0.8 0.1-0.7 0.1-1.4 0-0.6-0.1-1.3 0-0.6 0-1.3-0.1-0.6-0.2-1.3-0.1 0-0.2 0 0 0-0.1-0.1-0.1 0-0.2 0-0.1 0-0.1-0.1zm-6.1 1.5q-0.1 0.6-0.2 1.2 0 0.6-0.1 1.3 0 0.6 0 1.2 0 0.6 0 1.2 0 0.2 0 0.4 0 0.2 0.1 0.5 0 0.2 0 0.4 0.1 0.2 0.1 0.4 0-0.2 0-0.4 0-0.2 0-0.4 0-0.3 0-0.5 0-0.2 0-0.4 0.1-0.6 0.1-1.3 0.1-0.6 0.2-1.2 0-0.6 0.1-1.2 0.1-0.6 0.2-1.2 0.1-0.2 0.1-0.4 0-0.7 0.1-1.4-0.1-0.1-0.1-0.1-0.1 0-0.1 0-0.1 0-0.1 0-0.1 0-0.1 0-0.1 0.2-0.1 0.5-0.1 0.2-0.1 0.4 0 0.3-0.1 0.5 0 0.3 0 0.5z"/></svg>