<svg viewBox="0 0 24 24" xmlns="http://www.w3.org/2000/svg"><path d="m 20.618476,7.1820339 c -0.05985,-0.05985 -0.05985,-0.119702 -0.05985,-0.179552 v 0 c -0.239402,-2.453871 -0.538655,-4.069835 -0.538655,-4.069835 -0.05985,-0.299253 -0.299253,-0.478804 -0.598505,-0.538655 l -1.975067,-0.239402 c 0,0 -0.05985,0 -0.05985,0 -0.239402,0 -0.418953,0.179552 -0.418953,0.418954 v 0.658355 c 0,0 0,0 0,0 0,0 0,0 0,0 v 0 C 15.770584,2.1545899 14.453873,1.1371313 13.017461,0.2393736 12.718208,0.1196726 12.359105,-2.85e-5 12.000002,-2.85e-5 v 0 0 0 c -0.359103,0 -0.718206,0.1197011 -0.957608,0.2992526 C 4.279286,4.4289099 0.5685535,11.192017 0.4488525,11.610972 0.389002,11.670821 0.389002,11.790523 0.389002,11.850374 c 0,0.299251 0.2394021,0.598504 0.4788041,0.658355 l 1.9152169,0.359102 c 0.239402,0.05985 0.478804,0.299254 0.478804,0.538656 0,0.359102 0.359103,8.019969 0.837907,9.995035 0.119701,0.299253 0.418954,0.538655 0.718206,0.538655 v 0 c 1.13716,0 2.154619,-0.05985 3.291778,-0.05985 0,0 0,0 0,0 v 0 0 c 0,0 0.05985,0 0.05985,0 0.119701,0 0.239402,-0.119701 0.239402,-0.239401 0,0 0,0 0,0 -0.05985,-0.658355 -0.119701,-2.21447 -0.239402,-3.830433 0,-0.05985 0,-0.119701 0,-0.119701 v 0 c 0,-0.119701 -0.05985,-0.239402 -0.179552,-0.359104 -0.598505,-0.359103 -0.957608,-0.957608 -1.017458,-1.675813 -0.119701,-2.693273 -0.179552,-5.8055 0,-8.1995211 0,-0.179551 0.179551,-0.359103 0.359103,-0.359103 0.239402,0 0.418953,0.179552 0.418953,0.359103 0,0 0,0 0,0.05985 -0.119701,1.6159641 -0.119701,3.5311801 -0.05985,5.4463971 0,0.239402 0.239402,0.478804 0.478804,0.478804 0.239402,0 0.478804,-0.239402 0.478804,-0.478804 -0.05985,-1.915217 0,-3.830433 0.05985,-5.4463971 0,-0.179552 0.179551,-0.359103 0.359103,-0.359103 0.239402,0 0.418953,0.179551 0.418953,0.359103 0,0 0,0 0,0.05985 -0.119701,1.6159641 -0.119701,3.5311811 -0.05985,5.3865471 0,0 0,0 0,0 0,0.239402 0.239402,0.478804 0.478804,0.478804 0.239402,0 0.478804,-0.239402 0.478804,-0.478804 -0.05985,-1.915217 0,-3.830433 0.05985,-5.4463971 0,-0.179552 0.179551,-0.359103 0.359103,-0.359103 0.239402,0 0.418953,0.179551 0.418953,0.359103 0,0 0,0 0,0.05985 -0.119701,2.3341701 -0.119701,5.3266961 0,7.9601191 0,0 0,0 0,0 0,0 0,0 0,0.05985 0,0 0,0 0,0 0,0 0,0 0,0 0,0.718206 -0.359103,1.376562 -0.897757,1.735665 -0.119701,0.05985 -0.179552,0.179552 -0.179552,0.299253 0,0 -0.05985,0.418953 0.119701,2.33417 0.05985,0.837907 0.119701,1.436412 0.179552,1.735665 0,0.119701 0.119701,0.179551 0.179551,0.179551 0.05985,0 0.119701,0 0.179552,0 v 0 c 0.359103,0 0.778056,0 1.137159,0 h 0.05985 0.05985 c 0.478804,0 1.017458,0 1.436412,0 h 1.077309 c 0,0 0,0 0,0 0.119701,0 0.179552,-0.05985 0.179552,-0.179551 0.239402,-2.33417 0.299252,-3.650882 0.299252,-3.650882 0,-0.119701 -0.119701,-0.179551 -0.179551,-0.239402 L 13.55611,19.63094 c -0.239402,-0.05985 -0.359103,-0.179552 -0.359103,-0.299253 0,-0.1197 0,-0.179551 0,-0.179551 0.538655,-7.780566 3.112227,-10.4139891 3.112227,-10.4139891 0.05985,-0.05985 0.119701,-0.119701 0.119701,-0.119701 0.05985,-0.05985 0.179552,-0.05985 0.239402,-0.05985 0.179552,0 0.299253,0.119701 0.359103,0.239402 0,0 0,0.05985 0.05985,0.179552 0.239402,2.4538701 0.119701,6.6434061 0,9.8753351 -0.119701,2.753124 -0.239402,4.907741 -0.239402,4.907741 0,0 0,0 0,0 0,0.05985 0.05985,0.179553 0.179551,0.179553 v 0 c 0.718206,0 1.436413,0 2.214469,0.05985 v 0 c 0.299253,0 0.598506,-0.239402 0.658356,-0.478803 0.478804,-1.975068 0.837907,-9.635933 0.837907,-9.995036 0,-0.299252 0.239402,-0.478804 0.478804,-0.538654 l 1.915219,-0.359105 c 0.299252,-0.05985 0.478804,-0.359103 0.478804,-0.658355 0,-0.119701 0,-0.179552 -0.05985,-0.299253 -0.05985,-0.299252 -1.077305,-2.1546181 -2.932671,-4.4887881"/></svg>