<svg viewBox="0 0 24 24" xmlns="http://www.w3.org/2000/svg"><path d="m 11.99994,0.076095 c -0.15261,0 -0.29465,0.045 -0.4141,0.12179 -1.16717,0.74959 -2.9061,2.00978 -4.49997,3.76441 -1.40621,1.54809 -2.52297,3.06344 -3.30922,4.24964 -0.0522,0.0788 -0.0826,0.17336 -0.0826,0.27503 0,0.25884 0.19619,0.47205 0.44799,0.49858 0.47034,0.0495 1.00362,0.10066 1.58363,0.14983 0.037,2.85212 0.30567,5.64142 0.49524,7.22353 0.0316,0.26361 0.30554,0.46743 0.52914,0.46743 0.0661,0 0.99021,-0.0547 2.26526,-0.0994 -0.081,-0.79769 -0.19225,-2.05545 -0.21954,-3.17082 -0.58766,-0.2675 -1.02861,-0.92324 -1.02861,-1.95056 0,-1.53244 0.0893,-3.63719 0.15042,-4.92482 0.008,-0.16329 0.13244,-0.29601 0.29594,-0.29601 0.16345,0 0.30387,0.13272 0.29602,0.29601 -0.0466,0.96565 -0.10847,2.40644 -0.13677,3.71012 -0.005,0.23251 0.18858,0.42115 0.42114,0.42115 0.23262,0 0.41699,-0.18858 0.42115,-0.42115 0.0234,-1.30439 0.0904,-2.73931 0.13647,-3.71012 0.008,-0.16329 0.1325,-0.29601 0.29595,-0.29601 0.16349,0 0.30391,0.13272 0.29601,0.29601 -0.0466,0.96717 -0.11297,2.4108 -0.13677,3.7162 -0.004,0.22918 0.18584,0.41507 0.41506,0.41507 0.22922,0 0.41066,-0.18589 0.41507,-0.41507 0.0214,-1.12089 0.0802,-2.65227 0.12253,-3.7162 0.007,-0.16339 0.13252,-0.29601 0.29601,-0.29601 0.16345,0 0.30218,0.13262 0.29595,0.29601 -0.0538,1.4167 -0.13848,3.68972 -0.13848,4.6742 0,1.23527 -0.28583,1.92207 -0.94109,2.19636 0.049,0.82078 0.13482,2.19475 0.2131,3.13462 0.49207,-0.01 1.00353,-0.0162 1.51502,-0.0162 0.72235,0 1.44471,0.0125 2.11247,0.0303 0.18375,-1.482 0.29565,-2.82518 0.29565,-2.82518 -0.47591,-0.0386 -0.8326,-0.0783 -1.07919,-0.10762 -0.24583,-0.0293 -0.43973,-0.22818 -0.45801,-0.477 -0.0235,-0.31869 -0.0499,-0.76548 -0.0499,-1.14179 0,-2.64199 1.20261,-4.86583 2.07079,-6.12744 0.0937,-0.13605 0.25098,-0.22496 0.42871,-0.22496 0.27813,0 0.50557,0.21877 0.51838,0.49361 0.0507,1.08874 0.10073,2.75962 0.10073,4.80074 0,2.67672 -0.2328,4.72765 -0.36181,5.65911 -0.18553,-0.007 -0.38233,-0.015 -0.58833,-0.0222 1.2675,0.0447 2.18724,0.099 2.26045,0.099 0.24891,0 0.49754,-0.20382 0.52913,-0.46743 0.18958,-1.58211 0.45828,-4.37141 0.49524,-7.22353 0.57997,-0.0492 1.11322,-0.10036 1.583554,-0.14983 0.25186,-0.0265 0.44799,-0.23974 0.44799,-0.49858 0,-0.10167 -0.0302,-0.19619 -0.0825,-0.27503 -0.54376,-0.82037 -1.245914,-1.79832 -2.092364,-2.83556 -0.15717,-1.72977 -0.40964,-3.21807 -0.60443,-4.20529 -0.0331,-0.1678 -0.16866,-0.29906 -0.33859,-0.32539 -0.60776,-0.0942 -1.18104,-0.1492 -1.63184,-0.18009 -0.009,-6e-4 -0.0183,-0.001 -0.0276,-0.001 -0.22664,0 -0.41039,0.1837 -0.41039,0.41039 v 1.14082 c -1.00863,-0.87207 -1.96959,-1.54604 -2.70399,-2.01775 -0.11949,-0.0768 -0.26156,-0.12179 -0.41417,-0.12179 z m -4.0387,19.13032 c -0.85729,0 -1.53554,0.44839 -1.53646,1.27352 0,0.70205 0.58813,0.93356 1.24972,1.13757 0.33535,0.0983 0.5881,0.17189 0.5881,0.3759 0,0.17089 -0.18283,0.32063 -0.53114,0.34089 -0.34821,0.0202 -0.68362,0.006 -1.19913,-0.0561 -0.2674,-0.0322 -0.27656,-0.006 -0.34274,0.37583 -0.0726,0.41809 -0.0625,0.42366 0.22882,0.46594 0.3795,0.0551 0.80767,0.0918 1.30571,0.0725 0.9143,-0.0358 1.48587,-0.48515 1.48587,-1.25246 0,-0.65323 -0.49805,-0.95196 -1.25705,-1.17242 -0.40802,-0.10563 -0.5798,-0.21226 -0.5798,-0.39971 0,-0.15433 0.12495,-0.3042 0.56607,-0.30967 0.37303,-0.005 0.69278,0.0183 0.93998,0.0395 0.19848,0.0175 0.28208,-0.0202 0.3437,-0.37857 0.0616,-0.35925 0.0174,-0.4447 -0.22243,-0.46683 -0.2674,-0.0247 -0.67992,-0.0458 -1.03922,-0.0458 z m -6.94495,0.0229 c -0.35378002,0 -0.35380002,4e-5 -0.42641002,0.40987 -0.0726,0.40978 -0.0634,0.42263 0.24996,0.42263 H 1.4812 l -0.35647,2.07761 c -0.0799,0.46675 -0.28855002,0.78014 -0.91616002,0.97305 -0.15991,0.0479 -0.208570001671942,0.11218 -0.208570001671942,0.18484 0,0.0799 0.03220000167194,0.16077 0.09650000167194,0.32984 0.0965,0.24896 0.16079,0.29675 0.249,0.29675 0.0882,0 0.24901,-0.0487 0.30506,-0.0643 C 1.54279,23.570175 1.8966,22.886505 2.0409,22.066885 l 0.40335,-2.33862 c 0.0882,-0.4907 0.0882,-0.49895 -0.34638,-0.49895 z m 2.42956,0 c -0.43829,0 -0.45035,-0.004 -0.50726,0.35565 l -0.32532,1.89745 c -0.18648,1.07415 0.47511,1.73946 1.42157,1.73946 1.06129,0 1.59609,-0.47321 1.77529,-1.60803 l 0.32346,-1.8792 c 0.0872,-0.50533 0.0671,-0.50533 -0.38962,-0.50533 -0.43004,0 -0.4383,0.003 -0.49992,0.36018 l -0.32524,1.89107 c -0.0901,0.54674 -0.23805,0.86839 -0.76915,0.86839 -0.53111,0 -0.71211,-0.31888 -0.63039,-0.80861 l 0.30885,-1.80748 c 0.0818,-0.50629 0.0671,-0.50355 -0.38227,-0.50355 z m 6.58292,0 c -0.35105,0 -0.35109,-10e-6 -0.42456,0.41625 -0.0735,0.41621 -0.0652,0.41625 0.24536,0.41625 h 0.8049 l -0.44836,2.59681 c -0.0818,0.50634 -0.0745,0.50629 0.3822,0.50629 0.41723,0 0.44194,2e-5 0.49895,-0.35928 l 0.4724,-2.74382 h 0.76723 c 0.34634,0 0.34633,-4e-5 0.41899,-0.41625 0.0726,-0.41535 0.0726,-0.41625 -0.24625,-0.41625 z m 11.214904,0 c -0.3509,0 -0.35093,-10e-6 -0.42456,0.41625 -0.0735,0.41621 -0.0652,0.41625 0.24544,0.41625 h 0.8049 l -0.44844,2.59681 c -0.0817,0.50634 -0.0744,0.50629 0.38228,0.50629 0.41718,0 0.44199,2e-5 0.49895,-0.35928 l 0.47232,-2.74382 h 0.76731 c 0.34644,0 0.34643,-4e-5 0.41899,-0.41625 0.0726,-0.41535 0.0716,-0.41625 -0.24625,-0.41625 z m -5.999414,7e-5 c -0.62026,0 -0.60827,-7e-5 -0.71486,0.62846 l -0.45304,2.629 c -0.11392,0.67809 -0.10743,0.67807 0.53025,0.67807 h 1.72293 c 0.3593,0 0.35096,2e-5 0.42448,-0.40794 0.0735,-0.42452 0.0735,-0.42456 -0.25263,-0.42456 h -1.48691 l 0.12224,-0.75899 h 1.23324 c 0.33449,0 0.33449,0 0.39237,-0.39237 0.0652,-0.3997 0.0652,-0.39971 -0.39237,-0.39971 h -1.1027 l 0.12223,-0.71857 h 1.44634 v -9.6e-4 c 0.3473,0 0.34826,-0.004 0.41899,-0.41625 0.0717,-0.41535 0.0708,-0.41618 -0.24713,-0.41618 z m 4.202094,0 c -0.653324,0 -0.645064,-2e-5 -0.840874,0.39964 l -1.47741,3.06171 c -0.21231,0.44108 -0.17928,0.47329 0.36751,0.47329 0.42457,0 0.41636,0 0.59642,-0.39236 l 0.23697,-0.52291 h 1.420594 l 0.0735,0.52291 c 0.057,0.39236 0.0736,0.39236 0.49813,0.39236 0.47779,0 0.52366,-0.034 0.43272,-0.50629 l -0.5238,-2.93867 c -0.09,-0.48968 -0.09,-0.48968 -0.78377,-0.48968 z m -0.0735,0.87293 c 0.0735,0 0.0735,0 0.09,0.11392 l 0.17178,1.24133 H 18.68777 l 0.57112,-1.24867 c 0.0487,-0.10659 0.0487,-0.10658 0.11393,-0.10658 z"/></svg>