<svg viewBox="0 0 24 24" xmlns="http://www.w3.org/2000/svg"><path d="m 5.5655946,5.1038175 c -0.42541,0 -0.79052,0.304432 -0.79052,0.790301 0,0.485867 0.35522,0.779351 0.79052,0.779351 0.43531,0 0.80018,-0.272598 0.80018,-0.779351 0,-0.506755 -0.36487,-0.790301 -0.80018,-0.790301 z m -5.41380396,0.283615 c -0.09124,0 -0.15179100102295,0.08136 -0.15179100102295,0.182493 v 6.7339775 c 0,0.101131 0.060550001023,0.172617 0.15179100102295,0.172617 H 1.2048796 c 0.09124,0 0.161453,-0.07039 0.161453,-0.172617 v -1.062966 l 0.617899,-0.880473 h 0.05045 l 1.022393,2.014933 c 0.0308,0.06046 0.101,0.101123 0.16146,0.101123 h 1.19499 0.002 c 0.0912,0 0.1418,-0.09127 0.10112,-0.172616 l -1.58939,-3.0987255 1.43782,-1.894059 c 0.0703,-0.09124 0.0198,-0.182493 -0.0913,-0.182493 h -1.23558 c -0.0813,0 -0.1418,0.04066 -0.19237,0.101123 l -1.43783,1.995181 h -0.04079 v -3.655005 c 0,-0.101132 -0.07021,-0.182493 -0.161453,-0.182493 z m 15.22783436,0 c -0.10113,0 -0.16167,0.08136 -0.16167,0.182493 v 2.298548 h -0.0505 c -0.31438,-0.586999 -0.73984,-0.860721 -1.31695,-0.860721 -1.09265,0 -1.83244,1.104711 -1.83244,2.795357 0,1.6708615 0.73869,2.7844085 1.83244,2.7844085 0.587,0 1.12342,-0.364864 1.35646,-0.901298 h 0.0408 l 0.13183,0.617683 c 0.0308,0.112124 0.0913,0.172617 0.18249,0.172617 h 0.85085 c 0.10113,0 0.16145,-0.07149 0.16145,-0.172617 V 5.5699255 c 0,-0.101132 -0.0603,-0.182493 -0.16145,-0.182493 z m 2.20279,0 c -0.0912,0 -0.15158,0.08136 -0.15158,0.182493 v 6.7339775 c 0,0.102231 0.0603,0.172617 0.15158,0.172617 h 1.05309 c 0.0912,0 0.16167,-0.07149 0.16167,-0.172617 V 5.5699255 c 0,-0.101132 -0.0704,-0.182493 -0.16167,-0.182493 z m -7.7924304,1.62032 c -0.60679,0 -1.07297,0.323059 -1.30601,0.921051 h -0.0504 l -0.13204,-0.637436 c -0.0209,-0.101131 -0.0814,-0.161667 -0.17262,-0.161667 h -0.86072 c -0.0912,0 -0.16146,0.06054 -0.16146,0.161667 v 5.0125355 c 0,0.102231 0.0603,0.172617 0.16146,0.172617 h 1.03334 c 0.10223,0 0.17261,-0.07149 0.17261,-0.172617 V 9.4074235 c 0,-0.738696 0.28353,-1.144336 0.80018,-1.144336 0.47598,0 0.7398504,0.344065 0.7398504,0.961843 v 3.0789735 c 0,0.102231 0.0715,0.172616 0.17262,0.172616 h 1.03333 c 0.10113,0 0.16145,-0.07149 0.16145,-0.172616 V 9.1238075 c 0,-1.305908 -0.60667,-2.116055 -1.5894004,-2.116055 z m 12.0026404,0 -0.001,0.0011 c -1.36746,0 -2.32925,1.183805 -2.32925,2.824985 0,1.6411805 0.942,2.7547795 2.32925,2.7547795 1.00252,0 1.75228,-0.516578 2.07656,-1.468528 0.0407,-0.111025 -0.0101,-0.182459 -0.11122,-0.202245 l -0.96184,-0.212121 c -0.10114,-0.01979 -0.1625,0.0208 -0.18228,0.131824 -0.11103,0.495762 -0.42552,0.678228 -0.82015,0.678228 -0.54743,0 -0.84084,-0.446346 -0.9013,-1.316953 h 2.94694 c 0.0912,0 0.16166,-0.06159 0.16166,-0.172616 V 9.7625585 c 0,-1.610401 -0.90139,-2.75478 -2.2073,-2.75478 z M 5.0696446,7.1297005 c -0.10113,0 -0.18228,0.06055 -0.18228,0.151791 v 5.0224115 c 0,0.102231 0.0812,0.172617 0.18228,0.172617 h 1.02239 c 0.0912,0 0.16167,-0.07149 0.16167,-0.172617 V 7.2814915 c 0,-0.09124 -0.0704,-0.151791 -0.16167,-0.151791 z m 16.7229804,0.950893 c 0.47598,0 0.7498,0.415577 0.82015,1.215831 h -1.71157 c 0.10113,-0.780467 0.41544,-1.215831 0.89142,-1.215831 z m -7.45515,0.05174 c 0.57711,0 0.90152,0.638578 0.90152,1.670773 0,1.0321955 -0.32441,1.6400725 -0.90152,1.6400725 -0.5771,0 -0.91117,-0.577097 -0.91117,-1.6400725 0,-1.062973 0.33407,-1.670773 0.91117,-1.670773 z m 5.09499,6.0984745 c -0.54523,0 -1.06181,0.128587 -1.55098,0.385811 -0.18028,0.09893 -0.31543,0.191433 -0.40556,0.277175 h -0.001 c -0.0901,0.08574 -0.11329,0.175767 -0.0704,0.270304 0.0297,0.06815 0.088,0.107812 0.17369,0.115506 0.0857,0.01319 0.20774,0.0043 0.36714,-0.02533 0.25722,-0.05606 0.52547,-0.09462 0.80468,-0.115509 0.27921,-0.01759 0.52098,-0.01307 0.72654,0.01331 0.20556,0.02968 0.33415,0.08139 0.38581,0.153937 0.077,0.115423 0.0495,0.360546 -0.0835,0.733191 -0.12862,0.372646 -0.30437,0.735252 -0.52752,1.087012 -0.0857,0.141804 -0.13745,0.25294 -0.15394,0.334284 -0.0176,0.08134 0.004,0.150504 0.0648,0.205465 0.0385,0.03847 0.0813,0.0584 0.12861,0.0584 0.12421,0 0.30448,-0.109951 0.54082,-0.328702 0.42431,-0.369348 0.72338,-0.806788 0.89485,-1.312444 0.0945,-0.261621 0.15281,-0.536458 0.17369,-0.823364 0.022,-0.286903 -0.0111,-0.493683 -0.0968,-0.617898 -0.0813,-0.119817 -0.2616,-0.218691 -0.54081,-0.295638 -0.27481,-0.07695 -0.55081,-0.115507 -0.83002,-0.115507 z M 3.3087046,14.530741 c -0.0509,-0.0022 -0.0951,0.01146 -0.1329,0.04101 h 0.002 c -0.0814,0.06486 -0.099,0.17145 -0.0517,0.322046 0.0429,0.133009 0.144,0.297871 0.30229,0.495736 0.63866,0.789261 1.40058,1.445531 2.28438,1.968773 0.88379,0.523244 1.82899,0.908978 2.837,1.158506 1.01241,0.252829 2.0458104,0.379371 3.1010904,0.379371 1.35098,0 2.6381,-0.196835 3.86047,-0.592564 1.22237,-0.390234 2.24371,-0.93991 3.06266,-1.646729 0.2869,-0.252827 0.43089,-0.455088 0.43089,-0.604587 0,-0.05606 -0.0232,-0.110971 -0.0704,-0.167033 -0.0649,-0.06486 -0.14173,-0.08573 -0.23187,-0.06484 -0.0901,0.02089 -0.21668,0.07464 -0.37937,0.160379 -0.78487,0.412219 -1.74114,0.739898 -2.87007,0.985032 -1.12344,0.248431 -2.29738,0.372713 -3.51975,0.372713 -1.51367,0 -2.9767604,-0.20568 -4.3882004,-0.617898 -1.41143,-0.412219 -2.66137,-1.055341 -3.75183,-1.930343 -0.1583,-0.124216 -0.28688,-0.203353 -0.38581,-0.238528 -0.0354,-0.01278 -0.0684,-0.0197 -0.099,-0.02104 z"/></svg>