<svg viewBox="0 0 24 24" xmlns="http://www.w3.org/2000/svg"><path d="m18.9 0c-2.8 0-5 2.3-5 5.1 0 2.9 2.2 5.2 5 5.2 2.8 0 5.1-2.3 5.1-5.2 0-2.8-2.3-5.1-5.1-5.1zm0 1c2.3 0 4.1 1.8 4.1 4.1 0 2.4-1.8 4.2-4.1 4.2-2.2 0-4-1.8-4-4.2 0-2.3 1.8-4.1 4-4.1zm0.1 5c-0.5 0-0.9-0.4-0.9-0.9 0-0.5 0.4-0.9 0.9-0.9 0.5 0 0.9 0.4 0.9 0.9 0 0.5-0.4 0.9-0.9 0.9zm-11.9 3.8c-3.9 0-7.1 3.2-7.1 7.1 0 3.9 3.2 7.1 7.1 7.1 3.9 0 7-3.2 7-7.1 0-3.9-3.1-7.1-7-7.1zm0 1.2c3.3 0 5.9 2.6 5.9 5.9 0 3.3-2.6 5.9-5.9 5.9-3.3 0-5.9-2.6-5.9-5.9 0-3.3 2.6-5.9 5.9-5.9zm-0.1 7.2c-0.7 0-1.3-0.6-1.3-1.3 0-0.7 0.6-1.3 1.3-1.3 0.7 0 1.3 0.6 1.3 1.3 0 0.7-0.6 1.3-1.3 1.3zm12.2-2.8c-1.8 0-3.3 1.5-3.3 3.3 0 1.9 1.5 3.4 3.3 3.4 1.9 0 3.3-1.5 3.3-3.4 0-1.8-1.4-3.3-3.3-3.3zm0 0.8c1.4 0 2.5 1.1 2.5 2.5 0 1.4-1.1 2.5-2.5 2.5-1.4 0-2.5-1.1-2.5-2.5 0-1.4 1.1-2.5 2.5-2.5zm0 3.1c-0.3 0-0.6-0.3-0.6-0.6 0-0.4 0.3-0.7 0.6-0.7 0.4 0 0.7 0.3 0.7 0.7 0 0.3-0.3 0.6-0.7 0.6zm-12.2-17.9c-1.8 0-3.3 1.4-3.3 3.3 0 1.8 1.5 3.3 3.3 3.3 1.8 0 3.3-1.5 3.3-3.3 0-1.9-1.5-3.3-3.3-3.3zm0 0.8c1.4 0 2.5 1.1 2.5 2.5 0 1.4-1.1 2.5-2.5 2.5-1.4 0-2.5-1.1-2.5-2.5 0-1.4 1.1-2.5 2.5-2.5zm0 3.1c-0.4 0-0.6-0.3-0.6-0.7 0-0.3 0.2-0.6 0.6-0.6 0.4 0 0.7 0.3 0.7 0.6 0 0.4-0.3 0.7-0.7 0.7z"/></svg>