<svg viewBox="0 0 24 24" xmlns="http://www.w3.org/2000/svg"><path d="m10.4 1.8c-0.3 0-0.9 0.1-1.2 0.2-0.3 0.1-0.9 0.3-1.4 0.5-0.4 0.2-1.1 0.6-1.6 0.8-0.4 0.3-1 0.8-1.4 1.2-0.4 0.3-0.9 0.9-1.2 1.3-0.4 0.4-0.8 1.1-1 1.5-0.2 0.4-0.4 0.9-0.5 1.2-0.1 0.3-0.3 0.7-0.4 1.1 0 0.3-0.1 0.8-0.2 1.1 0 0.3-0.1 0.7-0.1 0.8v0.3l-0.8 0.1c1 1.6 1.3 2.1 1.3 2.1 0 0 0.3-0.5 0.6-1.1 0.4-0.5 0.7-1 0.7-1 0-0.1-0.2-0.1-0.5-0.1h-0.4c0.1-0.6 0.1-1 0.2-1.3 0-0.3 0.1-0.8 0.2-1.1 0.2-0.4 0.4-1 0.5-1.3 0.2-0.4 0.4-0.8 0.6-1 0.1-0.2 0.4-0.7 0.7-1 0.2-0.3 0.6-0.7 0.8-0.9 0.2-0.2 0.7-0.5 1-0.8 0.3-0.2 0.9-0.6 1.3-0.8 0.5-0.2 1-0.5 1.4-0.6 0.3-0.1 0.8-0.2 1.1-0.3 0.4 0 1-0.1 1.5-0.1l0.9-0.1v-0.8c-1.2 0-1.8 0-2.1 0.1zm6.5 2.6c0 0.1-0.2 0.2-0.4 0.3-0.2 0.1-0.6 0.2-1 0.3-0.4 0.1-0.9 0.2-1.2 0.3-0.2 0.2-0.6 0.4-0.8 0.6-0.1 0.1-0.4 0.4-0.5 0.6-0.1 0.2-0.3 0.5-0.3 0.7-0.1 0.2-0.2 0.6-0.2 0.9-0.1 0.4-0.2 0.7-0.3 0.9-0.2 0.2-0.4 0.4-0.7 0.6q-0.4 0.2-0.9 0.3c-0.3 0.1-0.7 0.1-0.9 0.2-0.2 0.1-0.6 0.2-0.7 0.3-0.2 0.1-0.5 0.3-0.6 0.5-0.1 0.1-0.3 0.3-0.4 0.4-0.1 0.2-0.2 0.4-0.3 0.6-0.1 0.2-0.2 0.6-0.2 0.9-0.1 0.4-0.2 0.8-0.3 0.9-0.1 0.2-0.2 0.4-0.4 0.6-0.2 0.1-0.4 0.3-0.5 0.3-0.1 0.1-0.6 0.2-1 0.3-0.4 0-0.9 0.2-1.1 0.3-0.3 0.1-0.6 0.3-0.7 0.4l-0.2 0.2c0.8 0.7 0.8 0.7 0.9 0.6 0.1 0 0.3-0.2 0.5-0.3 0.3-0.1 0.5-0.2 0.6-0.2 0.1 0 0.5 0 0.8-0.1q0.6-0.2 1-0.4c0.3-0.2 0.6-0.5 0.8-0.7 0.2-0.2 0.4-0.6 0.4-0.9 0.1-0.2 0.2-0.6 0.3-0.9 0-0.3 0.1-0.6 0.2-0.8 0.1-0.1 0.3-0.4 0.4-0.5 0.2-0.2 0.4-0.3 0.5-0.4 0.2-0.1 0.5-0.1 0.8-0.2 0.3 0 0.7-0.1 0.9-0.2 0.2 0 0.5-0.2 0.7-0.3 0.2-0.1 0.5-0.4 0.7-0.6 0.2-0.2 0.4-0.5 0.5-0.7 0.1-0.2 0.2-0.7 0.3-1.1 0.1-0.3 0.2-0.8 0.3-1 0.1-0.1 0.3-0.4 0.4-0.5 0.2-0.1 0.4-0.3 0.5-0.3 0.1-0.1 0.5-0.2 0.9-0.3 0.4 0 0.9-0.2 1.2-0.3 0.2-0.1 0.5-0.3 0.6-0.4l0.2-0.2c-0.6-0.6-0.8-0.7-0.8-0.7zm2.1 2.6c-0.2 0.2-0.5 0.3-1.1 0.4-0.4 0.1-1 0.2-1.2 0.3-0.2 0.2-0.6 0.4-0.8 0.6-0.2 0.2-0.5 0.6-0.6 0.8-0.1 0.2-0.2 0.7-0.3 1.2-0.1 0.4-0.2 0.8-0.3 0.9-0.1 0.1-0.2 0.4-0.4 0.5-0.2 0.2-0.5 0.4-0.6 0.4-0.2 0.1-0.6 0.2-1 0.3-0.4 0-0.8 0.2-1 0.3-0.2 0.1-0.6 0.3-0.7 0.4-0.2 0.2-0.4 0.4-0.5 0.6-0.1 0.2-0.3 0.4-0.4 0.6 0 0.2-0.1 0.6-0.2 0.8 0 0.3-0.1 0.7-0.2 0.9-0.1 0.2-0.3 0.5-0.4 0.6-0.1 0.1-0.4 0.3-0.5 0.4-0.2 0-0.6 0.2-1.1 0.3-0.4 0-0.9 0.2-1.1 0.3-0.2 0.1-0.5 0.3-0.6 0.4l-0.2 0.2 0.7 0.7c0.7-0.4 1-0.5 1.6-0.6 0.4-0.1 0.9-0.2 1.2-0.4 0.2-0.1 0.5-0.3 0.7-0.5 0.2-0.2 0.5-0.5 0.6-0.7 0.1-0.1 0.2-0.5 0.3-0.8 0-0.2 0.1-0.6 0.2-0.8 0-0.3 0.1-0.6 0.3-0.8 0.1-0.2 0.3-0.4 0.5-0.6 0.3-0.1 0.6-0.2 0.8-0.3 0.2 0 0.6-0.1 0.8-0.1 0.3-0.1 0.6-0.2 0.8-0.3 0.2-0.1 0.5-0.3 0.7-0.4 0.2-0.2 0.4-0.4 0.5-0.6 0.1-0.2 0.3-0.5 0.4-0.8 0-0.2 0.1-0.6 0.2-0.8 0-0.2 0.1-0.5 0.2-0.7 0-0.2 0.2-0.5 0.3-0.6 0.2-0.1 0.4-0.3 0.6-0.4 0.1-0.1 0.6-0.2 1-0.3 0.5-0.1 0.9-0.2 1.1-0.3 0.2 0 0.4-0.2 0.6-0.3l0.3-0.3c-0.6-0.5-0.8-0.7-0.8-0.7 0 0-0.2 0.1-0.4 0.2zm2.6 4.2c-0.4 0.6-0.6 1.1-0.6 1.1 0 0.1 0.2 0.1 0.4 0.1h0.3q0 0.6 0 1c-0.1 0.3-0.2 0.8-0.3 1.1 0 0.3-0.2 0.7-0.3 1-0.1 0.3-0.3 0.7-0.5 1-0.2 0.3-0.5 0.8-0.7 1.2-0.3 0.3-0.8 0.8-1.1 1.2-0.4 0.3-1 0.8-1.3 1-0.4 0.3-0.9 0.5-1.2 0.7-0.2 0.1-0.8 0.3-1.2 0.5-0.4 0.1-1.1 0.3-1.5 0.3-0.4 0.1-1 0.1-1.4 0.1h-0.6c0 0.7 0 0.9 0 0.9 0.1 0.1 0.5 0 1 0 0.6 0 1.3-0.1 1.6-0.2 0.3 0 0.9-0.2 1.3-0.3 0.3-0.1 0.9-0.4 1.3-0.6 0.4-0.2 0.9-0.4 1.1-0.6 0.3-0.2 0.8-0.5 1.1-0.8 0.3-0.3 0.8-0.7 1.1-1 0.2-0.3 0.6-0.8 0.8-1.1 0.2-0.3 0.5-0.9 0.7-1.2 0.2-0.3 0.4-1 0.6-1.4 0.1-0.4 0.3-1 0.3-1.4 0.1-0.3 0.1-0.8 0.1-1v-0.4c0.7 0 0.9 0 0.9 0 0-0.1-0.2-0.5-0.6-1.1-0.3-0.5-0.6-1-0.6-1.1 0 0-0.4 0.5-0.7 1z"/></svg>