<svg viewBox="0 0 24 24" xmlns="http://www.w3.org/2000/svg"><path d="m12 17.5c-6.7 0-12-2.4-12-5.4 0-3 5.3-5.4 12-5.4 6.6 0 12 2.4 12 5.4 0 3-5.4 5.4-12 5.4zm11.4-5.4c0-2.5-5-4.6-11.4-4.6-6.5 0-11.4 2.1-11.4 4.6 0 2.5 4.9 4.5 11.4 4.5 6.4 0 11.4-2 11.4-4.5zm-18.8 0.5l0.2-1.3q0-0.1 0.1-0.2 0.2-0.2 0.4-0.2h0.3c0.2 0 0.2 0.1 0.3 0.2q0 0 0 0.1 0.1 0 0.1 0v-0.3h0.8l-0.3 2.2h-0.8v-0.3q0 0 0 0-0.1 0.1-0.1 0.1c-0.1 0.2-0.2 0.2-0.4 0.2h-0.2c-0.3 0-0.5-0.2-0.4-0.5zm2.5-1l0.1-0.7h0.8l-0.2 0.9v0.2q0 0 0 0.1 0 0 0 0 0 0 0 0 0 0 0 0c0 0.2 0 0.3 0.1 0.4 0.1-0.1 0.2-0.2 0.2-0.5v-0.2l0.2-0.9h0.8l-0.1 0.7q0 0 0 0.1c-0.1 0.3-0.1 0.4-0.2 0.6-0.1 0.3-0.3 0.5-0.5 0.7q-0.1 0.1-0.1 0.1l-0.1 0.7h-0.8l0.1-0.7q-0.1-0.1-0.1-0.1c-0.2-0.3-0.3-0.5-0.3-1 0-0.1 0-0.2 0.1-0.4zm2.1 0.7l0.1-0.6h1.2l-0.1 0.6zm1.2 0.8l1.1-2.2h-0.7l0.2-0.6h1.7l-1.1 2.1h0.7l-0.2 0.7zm2.1-0.8l0.1-0.6h1.2l-0.1 0.6zm1.4 0.8l0.1-0.7h0.8l0.1-0.4h-0.4c-0.3 0-0.4-0.1-0.4-0.4q0-0.1 0-0.1l0.1-0.6c0.1-0.3 0.1-0.4 0.3-0.5 0.1-0.1 0.2-0.1 0.4-0.1h1.1l-0.1 0.6h-0.8l-0.1 0.4h0.5c0.1 0 0.2 0 0.3 0.1 0 0.1 0 0.1 0 0.3l-0.1 0.9c-0.1 0.2-0.1 0.2-0.1 0.3-0.1 0.1-0.3 0.2-0.5 0.2 0 0-1.2 0-1.2 0zm1.9 0.7l0.5-2.9h0.8l-0.1 0.3q0.1 0 0.1 0c0.2-0.3 0.2-0.3 0.6-0.3h0.1c0.3 0 0.4 0.2 0.4 0.5l-0.2 1.2q0 0-0.1 0-0.1 0.5-0.5 0.5h-0.1c-0.2 0-0.3 0-0.4-0.1q-0.1-0.1-0.1-0.2l-0.2 1zm1.1-1.3c0.1 0.1 0.2 0.1 0.3 0q0 0 0-0.1l0.1-0.8q0-0.2-0.1-0.2-0.2 0-0.2 0.2l-0.1 0.8q0 0.1 0 0.1zm1.4 0.1l0.3-1.3q0-0.1 0.1-0.2 0.1-0.2 0.4-0.2h0.3c0.1 0 0.2 0.1 0.3 0.2q0 0 0 0.1 0 0 0 0l0.1-0.3h0.8l-0.4 2.2h-0.8l0.1-0.3q0 0 0 0 0 0 0 0 0 0-0.1 0 0 0 0 0 0 0.1-0.1 0.1c-0.1 0.2-0.2 0.2-0.3 0.2h-0.2c-0.4 0-0.5-0.2-0.5-0.5zm0.9-0.1c0 0.1 0.1 0.1 0.2 0.1q0 0 0-0.1 0.1 0 0.1-0.1l0.2-0.8c0-0.1-0.1-0.2-0.2-0.2q-0.1 0.1-0.2 0.2l-0.1 0.8q0 0.1 0 0.1zm1.8-1.8v0.1h-0.1v-0.1 0.1h-0.1v-0.2h0.1l0.1 0.2v-0.2h0.1v0.2h-0.1zm-0.3 0h-0.1 0.2-0.1v0.2zm-17.7 2.4l0.3-2.2c0-0.2 0.1-0.3 0-0.5v-0.1h1.1q-0.2 0.2-0.2 0.5l-0.3 1.6q0.2 0 0.4 0 0.1 0 0.1 0h0.1v-0.1l-0.2 0.8zm2.5-0.6c0.1 0 0.2 0.1 0.2 0q0.1 0 0.1 0 0.1 0 0.1-0.1l0.1-0.8c0-0.1-0.1-0.2-0.2-0.2q-0.1 0-0.1 0.2l-0.2 0.8q0 0 0 0 0 0 0 0 0 0 0 0 0 0.1 0 0.1z"/></svg>