<svg viewBox="0 0 24 24" xmlns="http://www.w3.org/2000/svg"><path d="m7.5 0.2c0 0 0 0.3 0.1 0.5 0 0.2 0.1 0.5 0.1 0.8 0 0.2-0.1 0.7-0.2 1.1-0.1 0.3-0.4 0.9-0.6 1.2-0.2 0.3-1.2 1.6-2.2 2.7-1.4 1.8-1.8 2.3-2 2.9-0.3 0.6-0.3 1-0.4 1.6 0 0.6 0 1 0.1 1.4 0.1 0.4 0.3 0.9 0.5 1.1 0.1 0.3 0.3 0.7 0.5 0.8 0.1 0.2 0.3 0.3 0.3 0.3 0.1-0.1 0-0.3 0-0.5-0.1-0.2-0.1-0.6-0.1-0.9 0-0.3 0.1-0.8 0.2-1.2 0.2-0.4 0.5-1 0.8-1.4 0.2-0.4 1-1.3 1.6-2 0.6-0.8 1.3-1.6 1.5-1.9 0.3-0.3 0.6-0.8 0.7-1 0.1-0.3 0.3-0.8 0.4-1.1 0.1-0.3 0.2-0.8 0.2-1.1 0-0.3-0.1-0.9-0.2-1.2-0.1-0.3-0.3-0.8-0.4-1.1-0.2-0.3-0.4-0.7-0.6-0.9q-0.2-0.3-0.3-0.1zm4.9 0.6c0 0 0 0.5 0.1 1 0 0.8 0 1.2-0.1 1.8-0.1 0.4-0.3 1.1-0.5 1.4-0.1 0.4-0.4 0.9-0.6 1.1-0.2 0.3-1.2 1.6-2.3 2.9-1 1.3-2.1 2.6-2.3 3-0.2 0.3-0.5 0.8-0.7 1.1-0.1 0.4-0.3 0.9-0.4 1.2 0 0.3-0.1 0.9-0.1 1.3 0 0.4 0.1 1 0.2 1.5 0.1 0.4 0.4 1.1 0.6 1.5 0.2 0.4 0.5 0.9 0.7 1.1 0.2 0.2 0.3 0.4 0.4 0.4 0.1 0 0.2-0.1 0.1-0.6 0-0.2-0.1-0.8-0.1-1.3 0-0.6 0.1-1 0.3-1.6 0.2-0.5 0.5-1.1 0.7-1.5 0.2-0.3 0.7-1.1 1.2-1.6 0.5-0.6 1.3-1.7 2-2.4 0.6-0.7 1.2-1.6 1.5-1.9 0.2-0.3 0.5-0.9 0.7-1.3 0.2-0.4 0.4-1 0.5-1.4 0.1-0.3 0.1-0.9 0.1-1.3 0-0.3 0-0.9-0.1-1.3-0.1-0.4-0.3-1-0.5-1.3-0.1-0.4-0.5-0.9-0.7-1.3-0.2-0.3-0.5-0.5-0.5-0.6q-0.1 0-0.2 0.1zm4.4 4.3q0.1 1.2-0.1 1.8c0 0.3-0.3 0.9-0.5 1.4-0.2 0.5-0.8 1.3-1.2 1.9-0.4 0.5-1.2 1.5-1.7 2.1-0.6 0.6-1.3 1.4-1.6 1.8-0.3 0.4-0.7 1-0.9 1.3-0.2 0.3-0.5 0.9-0.6 1.3-0.2 0.7-0.3 0.9-0.3 2.1 0 1.1 0 1.4 0.2 2 0.2 0.4 0.4 0.8 0.5 1 0.1 0.2 0.3 0.7 0.6 1 0.2 0.3 0.5 0.6 0.6 0.6q0 0 0-1.2c0-0.7 0-1.4 0-1.7 0.1-0.3 0.2-0.7 0.4-1.1 0.1-0.3 0.4-0.9 0.7-1.4 0.3-0.4 1.4-1.8 2.5-3.1 1-1.3 2.1-2.6 2.3-3 0.2-0.4 0.5-0.9 0.6-1.2 0.1-0.2 0.3-0.7 0.3-0.9 0.1-0.3 0.1-0.9 0.1-1.3 0-0.4 0-1-0.1-1.4 0-0.3-0.3-1-0.5-1.4-0.3-0.5-0.6-1.1-0.8-1.3-0.2-0.3-0.4-0.5-0.5-0.5 0 0 0 0.5 0 1.2zm3.5 4.3c-0.1 0.1 0 0.4 0 0.7 0.1 0.2 0.1 0.7 0.1 0.9-0.1 0.3-0.2 0.8-0.4 1.2-0.2 0.4-0.5 1-0.8 1.4-0.2 0.3-1 1.3-1.6 2-0.7 0.8-1.4 1.7-1.6 2-0.1 0.2-0.4 0.7-0.6 1-0.1 0.4-0.3 0.9-0.4 1.3 0 0.4 0 0.9 0 1.2 0.1 0.3 0.2 0.8 0.3 1 0.1 0.3 0.3 0.8 0.5 1.1 0.3 0.4 0.5 0.7 0.5 0.7 0.1-0.1 0.1-0.4 0.1-0.9-0.1-0.5-0.1-1 0-1.4 0.1-0.3 0.3-0.7 0.4-1 0.2-0.3 0.4-0.8 0.6-1 0.2-0.2 0.9-1.1 1.6-1.9 0.7-0.9 1.5-1.9 1.7-2.2 0.3-0.3 0.5-0.9 0.7-1.2 0.1-0.4 0.2-1 0.3-1.3q0-0.7-0.1-1.3c-0.1-0.4-0.4-1-0.5-1.4-0.2-0.3-0.5-0.7-0.6-0.8q-0.2-0.2-0.2-0.1z"/></svg>