<svg viewBox="0 0 24 24" xmlns="http://www.w3.org/2000/svg"><path d="m14.5 14.1h3.3v1.3h-4.9v-6.8h1.6zm6.8-1.3h1.2v1.2c-0.2 0.1-0.7 0.2-1.1 0.2-1.4 0-1.9-0.7-1.9-2.2 0-1.4 0.5-2.2 1.9-2.2 0.8 0 1.2 0.2 1.6 0.7l1-0.9c-0.6-0.9-1.7-1.1-2.7-1.1-2.2 0-3.3 1.2-3.3 3.5 0 2.3 1 3.5 3.3 3.5 1.1 0 2.1-0.3 2.7-0.7v-3.3h-2.7c0 0 0 1.3 0 1.3zm-16-6.1c1.4 0 2.7 0.6 3.7 1.6 1 1 1.6 2.3 1.6 3.7 0 1.4-0.6 2.7-1.6 3.7-1 1-2.3 1.6-3.7 1.6-1.4 0-2.8-0.6-3.8-1.6-0.9-1-1.5-2.3-1.5-3.7 0-1.4 0.6-2.7 1.5-3.7 1-1 2.4-1.6 3.8-1.6zm3.2 8.5q0.3-0.3 0.5-0.7 0.3-0.4 0.4-0.8 0.2-0.4 0.3-0.8 0.1-0.5 0.1-0.9v-0.2h-0.3-2.9v0.5h2.7q-0.1 0.7-0.4 1.4-0.3 0.7-0.9 1.2-0.5 0.5-1.3 0.8-0.7 0.3-1.4 0.3-0.4 0-0.8-0.1-0.4-0.1-0.7-0.2-0.4-0.2-0.7-0.4-0.3-0.2-0.6-0.5-0.3-0.3-0.5-0.6-0.2-0.3-0.4-0.7-0.1-0.3-0.2-0.7-0.1-0.4-0.1-0.8c0-1.1 0.4-2.1 1.2-2.8q0.3-0.3 0.6-0.5 0.3-0.2 0.7-0.4 0.3-0.1 0.7-0.2 0.4-0.1 0.8-0.1h0.2v-0.5h-0.2q-0.9 0-1.7 0.4-0.8 0.3-1.5 0.9-0.6 0.7-0.9 1.5-0.4 0.8-0.4 1.7c0 1.2 0.5 2.3 1.3 3.2q0.3 0.3 0.7 0.5 0.4 0.3 0.8 0.4 0.4 0.2 0.8 0.3 0.5 0.1 0.9 0.1 0.4 0 0.9-0.1 0.4-0.1 0.8-0.3 0.4-0.1 0.8-0.4 0.3-0.2 0.7-0.5zm-3-1.3v-4.3h-0.5v4.8h1.6v-0.5zm-1.3-3.6c0-0.3-0.1-0.5-0.4-0.6-0.2-0.1-0.5-0.1-0.7 0.1-0.2 0.2-0.3 0.5-0.2 0.8 0.1 0.2 0.4 0.4 0.7 0.4q0.1 0 0.2-0.1 0.1 0 0.2-0.1 0.1-0.1 0.2-0.2 0-0.1 0-0.3z"/></svg>