<svg viewBox="0 0 24 24" xmlns="http://www.w3.org/2000/svg"><path d="M 11.947918,1.203449 A 0.7879265,0.7879265 0 0 0 11.550207,1.343121 L 2.34129,7.751485 A 0.7879265,0.7879265 0 0 0 2.002762,8.397767 v 8.934307 C 0.850063,17.675516 0,18.751187 0,20.009525 c 0,1.531649 1.259434,2.788715 2.791083,2.788715 1.53165,1e-6 2.788716,-1.257066 2.788716,-2.788715 0,-1.258733 -0.84743,-2.33436 -2.000395,-2.677451 V 8.809683 L 12,2.950539 18.562241,7.514752 c -0.09357,0.277708 -0.14204,0.575336 -0.14204,0.883015 0,1.258732 0.84743,2.332277 2.000395,2.675084 v 9.751036 H 9.985402 v -7.87611 h 4.829354 v 5.908858 0.785954 h 1.576643 V 18.856635 12.159456 A 0.7879265,0.7879265 0 0 0 15.603077,11.373502 H 9.19708 a 0.7879265,0.7879265 0 0 0 -0.78832,0.785954 v 9.452752 a 0.7879265,0.7879265 0 0 0 0.78832,0.785954 h 12.011836 a 0.7879265,0.7879265 0 0 0 0.788323,-0.785954 V 11.072851 C 23.149936,10.729693 24,9.656105 24,8.397767 24,6.866119 22.740566,5.606685 21.208916,5.606685 c -0.65622,0 -1.261592,0.233145 -1.739987,0.617872 L 12.449793,1.343121 A 0.7879265,0.7879265 0 0 0 11.947918,1.203449 Z m 9.260998,5.979877 c 0.680082,0 1.214442,0.534361 1.214442,1.214441 0,0.66154 -0.506462,1.18638 -1.159993,1.214441 h -0.108897 c -0.653529,-0.02806 -1.159992,-0.552901 -1.159992,-1.214441 0,-0.68008 0.534361,-1.214441 1.21444,-1.214441 z M 2.791083,18.795084 c 0.68008,0 1.214441,0.53436 1.214441,1.214441 0,0.68008 -0.534361,1.214441 -1.214441,1.214441 -0.68008,0 -1.214441,-0.534361 -1.214441,-1.214441 0,-0.680081 0.534361,-1.214441 1.214441,-1.214441 z"/></svg>