<svg viewBox="0 0 24 24" xmlns="http://www.w3.org/2000/svg"><path d="m11.5 0c6.4 0 11.6 5.2 11.6 11.5 0 6.4-5.2 11.6-11.6 11.6-15.3 0-15.3-23.1 0-23.1zm6.9 18.5c1.9-1.9 2.9-4.4 2.9-6.9v-0.6h-0.5-6.4v1.1h5.8c-0.3 4.6-4.1 8.1-8.7 8.1-2.3 0-4.5-0.9-6.1-2.5-1.6-1.6-2.5-3.8-2.5-6.1 0-2.4 0.9-4.5 2.5-6.2 1.6-1.6 3.8-2.5 6.1-2.5h0.6v-1.1h-0.6c-5.3 0-9.7 4.4-9.7 9.8 0 2.6 1 5 2.8 6.9 1.9 1.8 4.4 2.8 6.9 2.8 2.6 0 5.1-1 6.9-2.8zm-6.3-2.9v-9.2h-1.1v10.3h3.4v-1.1zm-2.8-7.7c0-1.3-1.6-2-2.5-1.1-0.9 1-0.3 2.5 1.1 2.5 0.8 0 1.4-0.6 1.4-1.4z"/></svg>