<svg viewBox="0 0 24 24" xmlns="http://www.w3.org/2000/svg"><path d="m 0,12.821 v -2.12 h 0.536 0.536 v 1.709 1.709 h 0.746 0.746 v 0.412 0.412 H 1.282 0 Z m 2.983,0.59 v -1.53 H 3.48 3.977 v 1.53 1.53 H 3.48 2.983 Z m 1.817,0 v -1.53 l 0.447,0 0.447,0 0.943,0.831 c 0.519,0.457 0.947,0.831 0.951,0.831 0.005,0 0.008,-0.374 0.008,-0.831 v -0.831 h 0.489 0.489 v 1.53 1.53 H 8.087 7.6 l -0.953,-0.88 -0.953,-0.88 -0.004,0.88 -0.004,0.88 H 5.243 4.8 Z m 4.629,0 v -1.53 h 0.528 0.528 v 0.676 c 0,0.372 0.005,0.676 0.012,0.675 0.006,-0 0.267,-0.304 0.578,-0.676 l 0.566,-0.675 h 0.59 0.59 l -0.093,0.097 c -0.051,0.053 -0.191,0.198 -0.311,0.322 -0.12,0.124 -0.316,0.327 -0.435,0.451 -0.12,0.124 -0.299,0.309 -0.399,0.412 l -0.182,0.186 0.059,0.062 c 0.032,0.034 0.353,0.366 0.712,0.738 0.359,0.372 0.676,0.702 0.703,0.734 l 0.051,0.058 h -0.622 -0.622 l -0.031,-0.039 c -0.017,-0.022 -0.194,-0.209 -0.393,-0.416 -0.199,-0.207 -0.45,-0.468 -0.557,-0.58 -0.107,-0.112 -0.2,-0.205 -0.206,-0.206 -0.006,-0.001 -0.012,0.278 -0.012,0.619 v 0.621 H 9.957 9.429 Z m 4.687,-0.175 -0.004,-1.705 -0.579,-0.004 -0.579,-0.004 v -0.404 -0.404 h 1.693 1.693 v 0.404 0.404 h -0.621 -0.621 v 1.709 1.709 h -0.489 -0.489 z m 2.955,0.283 c 0.394,-0.782 0.744,-1.472 0.777,-1.534 l 0.06,-0.112 0.534,-0.004 0.534,-0.004 0.742,1.517 c 0.408,0.834 0.745,1.526 0.75,1.538 0.007,0.018 -0.079,0.021 -0.527,0.021 h -0.535 l -0.173,-0.369 -0.173,-0.369 h -0.662 -0.662 l -0.177,0.365 -0.177,0.365 -0.514,0.004 -0.514,0.004 z m 1.537,0.292 c 0.104,-0.053 0.193,-0.163 0.228,-0.283 0.069,-0.233 -0.035,-0.606 -0.253,-0.913 -0.118,-0.166 -0.167,-0.18 -0.265,-0.078 -0.089,0.092 -0.178,0.236 -0.245,0.396 -0.151,0.361 -0.132,0.622 0.06,0.81 0.133,0.131 0.304,0.155 0.475,0.068 z m 2.346,-0.397 v -1.528 l 1.083,-0.01 c 1.259,-0.012 1.292,-0.009 1.538,0.108 0.139,0.066 0.264,0.185 0.327,0.311 0.08,0.159 0.096,0.281 0.096,0.732 0,0.446 -0.015,0.54 -0.112,0.722 -0.061,0.114 -0.213,0.259 -0.336,0.322 -0.205,0.104 -0.284,0.113 -0.978,0.122 l -0.625,0.008 -0.004,0.367 -0.004,0.367 -0.493,0.004 -0.493,0.004 z m 1.914,-0.063 c 0.106,-0.025 0.194,-0.087 0.223,-0.159 0.03,-0.072 0.029,-0.35 -0.001,-0.409 -0.034,-0.066 -0.109,-0.122 -0.198,-0.148 -0.062,-0.019 -0.166,-0.024 -0.477,-0.024 -0.218,0 -0.413,0.004 -0.432,0.01 l -0.035,0.009 v 0.363 0.363 l 0.276,0.005 c 0.152,0.003 0.339,0.006 0.416,0.008 0.077,0.002 0.18,-0.006 0.229,-0.018 z M 3.355,11.561 c -0.137,-0.052 -0.23,-0.128 -0.283,-0.23 -0.034,-0.066 -0.055,-0.223 -0.035,-0.268 0.007,-0.015 0.015,-0.041 0.018,-0.056 0.009,-0.044 0.047,-0.108 0.089,-0.151 0.06,-0.059 0.087,-0.08 0.087,-0.067 0,0.007 0.005,0.005 0.012,-0.003 0.025,-0.034 0.09,-0.058 0.177,-0.066 0.187,-0.017 0.38,0.111 0.44,0.292 0.032,0.096 0.025,0.23 -0.016,0.311 -0.037,0.074 -0.128,0.166 -0.202,0.204 -0.061,0.032 -0.238,0.052 -0.287,0.034 z m -0.872,-0.721 c -0.079,-0.042 -0.124,-0.12 -0.124,-0.218 -0.001,-0.07 0.008,-0.093 0.072,-0.186 0.446,-0.653 1.387,-0.727 1.928,-0.152 0.132,0.14 0.195,0.248 0.195,0.331 0,0.188 -0.178,0.308 -0.351,0.235 -0.03,-0.013 -0.078,-0.057 -0.114,-0.105 -0.146,-0.197 -0.316,-0.306 -0.528,-0.341 -0.278,-0.045 -0.542,0.077 -0.738,0.341 -0.093,0.126 -0.217,0.16 -0.34,0.095 z m -0.642,-0.51 c -0.106,-0.066 -0.154,-0.169 -0.131,-0.279 0.025,-0.116 0.269,-0.4 0.482,-0.561 0.332,-0.25 0.668,-0.38 1.091,-0.422 0.346,-0.034 0.72,0.033 1.049,0.19 0.089,0.042 0.222,0.117 0.295,0.165 0.158,0.105 0.419,0.36 0.511,0.499 0.056,0.085 0.065,0.111 0.065,0.18 0,0.145 -0.11,0.257 -0.252,0.257 -0.105,0 -0.153,-0.029 -0.253,-0.155 C 4.356,9.774 3.904,9.561 3.386,9.587 c -0.224,0.011 -0.4,0.054 -0.587,0.143 -0.24,0.114 -0.445,0.281 -0.596,0.485 -0.034,0.046 -0.084,0.097 -0.111,0.114 -0.065,0.04 -0.188,0.04 -0.251,0.001 z"/></svg>