<svg viewBox="0 0 24 24" xmlns="http://www.w3.org/2000/svg"><path d="m 24,5.0985002 a 1.35,1.35 0 0 1 -1.35,1.35 1.35,1.35 0 0 1 -1.352,-1.35 1.35,1.35 0 0 1 1.351,-1.351 1.35,1.35 0 0 1 1.351,1.35 z M 16.549,18.3105 a 2.289,2.289 0 0 1 -2.322,-2.322 H 12.2 c 0,2.449 1.9,4.264 4.306,4.264 2.406,0 4.348,-1.857 4.348,-4.264 H 18.87 c -0.043,1.351 -1.056,2.322 -2.322,2.322 z m 5.108,-2.828 h 1.984 V 7.3775002 H 21.657 Z M 0,15.4835 H 1.984 V 4.0005002 H 0 Z M 7.135,7.1245002 c -2.449,0 -4.307,1.858 -4.307,4.2639998 a 4.27,4.27 0 0 0 4.307,4.306 c 2.406,0 4.306,-1.858 4.306,-4.264 0,-2.4059998 -1.858,-4.3059998 -4.306,-4.3059998 z m 0,6.6279998 c -1.31,0 -2.322,-1.013 -2.322,-2.364 A 2.289,2.289 0 0 1 7.135,9.0665002 2.289,2.289 0 0 1 9.456,11.3885 c 0,1.309 -0.97,2.364 -2.321,2.364 z M 20.77,8.9825002 v -1.605 h -2.828 c -0.464,-0.21 -0.929,-0.253 -1.393,-0.253 -2.449,0 -4.348,1.858 -4.348,4.3059998 0,2.449 1.9,4.264 4.306,4.264 2.406,0 4.306,-1.858 4.306,-4.264 0,-0.844 -0.254,-1.6039998 -0.676,-2.1949998 z M 16.549,13.7525 c -1.309,0 -2.322,-1.013 -2.322,-2.364 A 2.289,2.289 0 0 1 16.549,9.0665002 2.289,2.289 0 0 1 18.871,11.3885 c 0,1.309 -1.056,2.364 -2.322,2.364 z"/></svg>