<svg viewBox="0 0 24 24" xmlns="http://www.w3.org/2000/svg"><path d="m8 7.6v8.8h-0.8v-7.2l-2.9 5.6h-0.6l-2.9-5.6v7.2h-0.8v-8.8h0.8l3.2 6.1 3.1-6.1zm8.6 8.9l-1.5-1.5c-0.5 0.8-1.2 1.4-2.4 1.4-1.5 0-2.7-1.1-2.7-2.3 0-1.1 0.7-1.8 2-2.5-0.7-0.8-1.1-1.4-1.1-2.1 0-1 0.8-1.9 1.9-1.9 1.1 0 2 0.9 2 1.9 0 1-0.8 1.7-1.6 2.2l1.8 2 1.1-1.7 0.6 0.4-1.2 1.9 1.7 1.7zm-4.1-4.4c-1.2 0.6-1.7 1.1-1.7 1.9 0 0.9 0.8 1.7 1.9 1.7 0.9 0 1.4-0.5 1.9-1.3zm-0.8-2.6c0 0.5 0.3 0.9 1 1.7 0.8-0.5 1.3-1 1.3-1.7 0-0.7-0.4-1.2-1.2-1.2-0.7 0-1.1 0.6-1.1 1.2zm12.3 0l-0.8 0.2c-0.2-0.9-1.1-1.5-2.2-1.5-1.2 0-2 0.6-2 1.6 0 2.2 5 1.1 5 4.2 0 1.4-1.1 2.5-2.9 2.5-1.6 0-2.6-0.8-3.3-2.1l0.7-0.4c0.4 1 1.3 1.7 2.5 1.7 1.5 0 2.2-0.6 2.2-1.8 0-2.2-5-1.1-5-4.1 0-1.7 1.6-2.3 2.8-2.3 1.3 0 2.5 0.6 3 2z"/></svg>