<svg viewBox="0 0 24 24" xmlns="http://www.w3.org/2000/svg"><path d="m 10.768,1.8594972 c -0.337,0 -0.618,0.279 -0.618,0.615 v 0.326 H 1.924 c -1.059,0 -1.924,0.866 -1.924,1.924 V 20.216497 c 0,1.059 0.865,1.924 1.924,1.924 h 0.685 a 0.352,0.352 0 0 0 0.297,-0.16 c 0.235,-0.366 0.739,-0.366 0.975,0 a 0.352,0.352 0 0 0 0.295,0.16 h 2.738 a 0.352,0.352 0 0 0 0.295,-0.16 c 0.235,-0.366 0.739,-0.366 0.975,0 a 0.352,0.352 0 0 0 0.297,0.16 h 2.736 a 0.352,0.352 0 0 0 0.297,-0.16 c 0.235,-0.366 0.739,-0.366 0.975,0 a 0.352,0.352 0 0 0 0.295,0.16 h 2.738 a 0.352,0.352 0 0 0 0.295,-0.16 c 0.235,-0.366 0.74,-0.366 0.975,0 a 0.352,0.352 0 0 0 0.295,0.16 h 2.738 a 0.352,0.352 0 0 0 0.295,-0.16 c 0.235,-0.366 0.74,-0.366 0.975,0 a 0.352,0.352 0 0 0 0.297,0.16 h 0.686 c 1.057,0 1.922,-0.865 1.922,-1.924 V 4.7244972 c 0,-1.058 -0.865,-1.924 -1.924,-1.924 h -8.213 v -0.326 c 0,-0.336 -0.278,-0.615 -0.615,-0.615 z m -0.01,0.527 c 0.003,0 0.006,0 0.01,0 h 2.48 c 0.052,0 0.088,0.036 0.088,0.088 v 0.315 H 10.68 v -0.315 c 0,-0.048 0.032,-0.084 0.078,-0.088 z m -4.258,1.118 h 0.068 l -0.011,2.896 2.933,-2.896 h 0.049 l -0.006,1.334 1.334,-1.334 h 11.209 c 0.679,0 1.221,0.542 1.221,1.221 V 20.216497 c 0,0.679 -0.542,1.221 -1.221,1.221 h -0.527 c -0.5,-0.548 -1.383,-0.548 -1.883,0 h -2.42 c -0.5,-0.548 -1.385,-0.548 -1.885,0 h -2.42 c -0.5,-0.547 -1.383,-0.547 -1.883,0 H 8.639 c -0.5,-0.548 -1.385,-0.548 -1.885,0 h -2.42 c -0.5,-0.548 -1.383,-0.548 -1.883,0 H 1.924 c -0.679,0 -1.221,-0.542 -1.221,-1.221 V 9.2614972 Z m 4.646,1.477 a 1.1150072,1.1150072 0 1 0 -0.008,2.23 l 1.715,0.006 a 1.115,1.115 0 1 0 0.008,-2.229 z m -0.002,0.447 1.715,0.006 a 0.669,0.669 0 1 1 -0.004,1.337 l -1.714,-0.006 a 0.66900299,0.66900299 0 1 1 0.004,-1.338 z m 0,0.443 a 0.225,0.225 0 1 0 0.229,0.226 0.229,0.229 0 0 0 -0.229,-0.226 z m 1.676,0.008 a 0.225,0.225 0 0 0 -0.213,0.222 0.229,0.229 0 0 0 0.229,0.227 0.225,0.225 0 1 0 -0.016,-0.449 z m -4.107,3.072 a 0.233,0.233 0 1 0 0.232,0.232 0.233,0.233 0 0 0 -0.232,-0.232 z m 1.643,0 a 0.233,0.233 0 1 0 0.234,0.232 0.233,0.233 0 0 0 -0.234,-0.232 z m 1.645,0 a 0.233,0.233 0 1 0 0.231,0.232 0.233,0.233 0 0 0 -0.232,-0.232 z m 1.645,0 a 0.233,0.233 0 1 0 0.232,0.232 0.233,0.233 0 0 0 -0.232,-0.232 z m 1.643,0 a 0.233,0.233 0 1 0 0.231,0.232 0.233,0.233 0 0 0 -0.233,-0.232 z M 8.713,10.593497 a 0.233,0.233 0 1 0 0.232,0.235 0.233,0.233 0 0 0 -0.232,-0.235 z m 1.645,0 a 0.233,0.233 0 1 0 0.232,0.235 0.233,0.233 0 0 0 -0.233,-0.235 z m 1.643,0 a 0.233,0.233 0 1 0 0.231,0.235 0.233,0.233 0 0 0 -0.232,-0.235 z m 1.645,0 a 0.233,0.233 0 1 0 0.231,0.235 0.233,0.233 0 0 0 -0.232,-0.235 z m 1.643,0 a 0.233,0.233 0 1 0 0.231,0.235 0.233,0.233 0 0 0 -0.233,-0.235 z m -13.014,0.479 a 0.281,0.281 0 0 0 -0.279,0.279 v 2.238 a 0.281,0.281 0 0 0 0.279,0.279 h 2.237 a 0.28,0.28 0 0 0 0.279,-0.279 v -2.238 a 0.28,0.28 0 0 0 -0.279,-0.279 z m 17.213,0 a 0.281,0.281 0 0 0 -0.279,0.279 v 2.238 a 0.281,0.281 0 0 0 0.279,0.279 h 2.236 a 0.28,0.28 0 0 0 0.279,-0.279 v -2.238 a 0.281,0.281 0 0 0 -0.278,-0.279 z m -16.093,0.793 a 0.606,0.606 0 0 1 0.605,0.605 0.606,0.606 0 1 1 -0.605,-0.605 z m 17.213,0 a 0.606,0.606 0 0 1 0.605,0.605 0.606,0.606 0 1 1 -0.605,-0.605 z m -11.895,0.373 a 0.233,0.233 0 1 0 0.232,0.232 0.233,0.233 0 0 0 -0.232,-0.232 z m 1.645,0 a 0.233,0.233 0 1 0 0.232,0.232 0.233,0.233 0 0 0 -0.232,-0.232 z m 1.643,0 a 0.233,0.233 0 1 0 0.231,0.232 0.233,0.233 0 0 0 -0.232,-0.232 z m 1.645,0 a 0.233,0.233 0 1 0 0.232,0.232 0.233,0.233 0 0 0 -0.232,-0.232 z m 1.643,0 a 0.233,0.233 0 1 0 0.232,0.232 0.233,0.233 0 0 0 -0.232,-0.232 z m -6.574,1.643 a 0.233,0.233 0 1 0 0.232,0.234 0.233,0.233 0 0 0 -0.232,-0.234 z m 1.645,0 a 0.233,0.233 0 1 0 0.232,0.234 0.233,0.233 0 0 0 -0.232,-0.234 z m 1.643,0 a 0.233,0.233 0 1 0 0.229,0.234 0.233,0.233 0 0 0 -0.232,-0.235 z m 1.645,0 a 0.233,0.233 0 1 0 0.232,0.234 0.233,0.233 0 0 0 -0.232,-0.234 z m 1.643,0 a 0.233,0.233 0 1 0 0.232,0.234 0.233,0.233 0 0 0 -0.232,-0.234 z m -6.574,1.645 a 0.233,0.233 0 1 0 0.232,0.232 0.233,0.233 0 0 0 -0.232,-0.232 z m 1.645,0 a 0.233,0.233 0 1 0 0.232,0.232 0.233,0.233 0 0 0 -0.232,-0.232 z m 1.643,0 a 0.233,0.233 0 1 0 0.227,0.231 0.233,0.233 0 0 0 -0.232,-0.232 z m 1.645,0 a 0.233,0.233 0 1 0 0.232,0.232 0.233,0.233 0 0 0 -0.232,-0.232 z m 1.643,0 a 0.233,0.233 0 1 0 0.232,0.232 0.233,0.233 0 0 0 -0.232,-0.232 z m -11.9,2.251 c -0.469,0 -0.83,0.289 -0.982,0.658 -0.153,0.369 -0.101,0.829 0.23,1.16 0.331,0.331 0.791,0.383 1.16,0.23 0.369,-0.153 0.656,-0.516 0.656,-0.984 0,-0.586 -0.478,-1.064 -1.064,-1.064 z m 4.305,0 c -0.469,0 -0.832,0.289 -0.984,0.658 -0.153,0.369 -0.099,0.829 0.232,1.16 0.331,0.331 0.791,0.383 1.16,0.23 0.369,-0.153 0.656,-0.516 0.656,-0.984 0,-0.586 -0.478,-1.064 -1.064,-1.064 z m 4.303,0 c -0.469,0 -0.83,0.289 -0.982,0.658 -0.153,0.369 -0.101,0.829 0.23,1.16 0.331,0.331 0.791,0.383 1.16,0.23 0.369,-0.153 0.656,-0.516 0.656,-0.984 0,-0.586 -0.478,-1.064 -1.064,-1.064 z m 4.305,0 c -0.469,0 -0.832,0.289 -0.984,0.658 -0.153,0.369 -0.101,0.829 0.23,1.16 0.331,0.331 0.791,0.383 1.16,0.23 0.369,-0.153 0.658,-0.516 0.658,-0.984 0,-0.586 -0.478,-1.064 -1.064,-1.064 z m 4.303,0 c -0.469,0 -0.832,0.289 -0.984,0.658 -0.153,0.369 -0.099,0.829 0.232,1.16 0.331,0.331 0.789,0.383 1.158,0.23 0.369,-0.153 0.658,-0.516 0.658,-0.984 0,-0.586 -0.478,-1.064 -1.064,-1.064 z m -17.216,0.266 c 0.443,0 0.801,0.356 0.801,0.799 0,0.362 -0.215,0.622 -0.494,0.738 -0.28,0.116 -0.615,0.082 -0.871,-0.174 -0.256,-0.256 -0.29,-0.59 -0.174,-0.869 0.116,-0.28 0.377,-0.494 0.738,-0.494 z m 4.305,0 c 0.443,0 0.799,0.356 0.799,0.799 0,0.362 -0.213,0.622 -0.492,0.738 -0.28,0.116 -0.615,0.082 -0.871,-0.174 -0.256,-0.256 -0.29,-0.59 -0.174,-0.869 0.116,-0.28 0.377,-0.494 0.738,-0.494 z m 4.303,0 c 0.443,0 0.799,0.356 0.799,0.799 0,0.362 -0.213,0.622 -0.492,0.738 -0.28,0.116 -0.615,0.082 -0.871,-0.174 -0.256,-0.256 -0.29,-0.59 -0.174,-0.869 0.116,-0.28 0.377,-0.494 0.738,-0.494 z m 4.305,0 c 0.443,0 0.799,0.356 0.799,0.799 0,0.362 -0.215,0.622 -0.494,0.738 -0.28,0.116 -0.615,0.082 -0.871,-0.174 -0.256,-0.256 -0.288,-0.59 -0.172,-0.869 0.116,-0.28 0.377,-0.494 0.738,-0.494 z m 4.303,0 c 0.443,0 0.799,0.356 0.799,0.799 0,0.362 -0.213,0.622 -0.492,0.738 -0.28,0.116 -0.615,0.082 -0.871,-0.174 -0.256,-0.256 -0.29,-0.59 -0.174,-0.869 0.116,-0.28 0.377,-0.494 0.738,-0.494 z"/></svg>