<svg viewBox="0 0 24 24" xmlns="http://www.w3.org/2000/svg"><path d="M 11.996582,0 C 5.3724782,3.32e-5 0,5.3792807 0,12.003418 0,18.627555 5.372445,23.999967 11.996582,23.999967 18.620753,24 24,18.627555 24,12.003418 24,5.3792807 18.620719,0 11.996582,0 Z m 0,0.6344572 c 6.280031,0 11.367235,5.0889302 11.367235,11.3689608 3.4e-5,6.28003 -5.087204,11.360366 -11.367235,11.360366 -6.2799971,0 -11.3620917,-5.080336 -11.3620917,-11.360366 C 0.6345235,5.7234206 5.7165849,0.6344572 11.996582,0.6344572 Z m 5.065437,2.8739713 a 0.61841261,0.61841261 0 0 0 -0.617335,0.6190269 v 0.070314 L 14.56016,4.1960494 C 14.184067,4.1957837 13.879115,4.5006679 13.87938,4.8768296 V 6.7596277 H 11.480422 V 6.1491905 A 0.64848386,0.75233586 0 0 0 10.832227,5.3964031 H 9.3232347 A 0.64848386,0.75233586 0 0 0 8.67504,6.1491905 V 6.740775 L 6.7956597,6.739045 C 6.4193662,6.7387797 6.1143485,7.0429984 6.1149124,7.4180999 v 3.4278271 0.42358 h -1.176367 v -0.58647 A 0.64848386,0.75233586 0 0 0 4.2886583,9.9302495 H 2.781391 A 0.64848386,0.75233586 0 0 0 2.1314706,10.683037 v 2.51387 a 0.64848386,0.75233586 0 0 0 0.6499204,0.752788 h 1.5072673 a 0.64848386,0.75233586 0 0 0 0.6498871,-0.752788 v -0.553889 h 1.176367 c -0.010167,0.161004 -0.0096,0.300703 0,0.421855 V 16.4927 c -5.639e-4,0.375099 0.3044523,0.67932 0.6807473,0.679055 l 1.8793803,-0.0017 v 0.591585 a 0.64848386,0.75233586 0 0 0 0.6481947,0.752787 h 1.5089923 a 0.64848386,0.75233586 0 0 0 0.648195,-0.752787 v -0.610433 h 2.398958 v 1.882799 c -2.65e-4,0.376161 0.304687,0.681045 0.68078,0.68078 l 1.884524,-0.0017 v 0.07032 a 0.61841261,0.61841261 0 0 0 0.617335,0.619027 l 1.438678,0.0017 a 0.61841261,0.61841261 0 0 0 0.61906,-0.619033 V 17.71705 a 0.61841261,0.61841261 0 0 0 -0.61906,-0.617335 h -1.438678 a 0.61841261,0.61841261 0 0 0 -0.617335,0.617335 v 0.596727 H 15.23749 v -3.703908 h 1.207194 v 0.631039 a 0.61841261,0.61841261 0 0 0 0.617335,0.619027 h 1.438678 a 0.61841261,0.61841261 0 0 0 0.61906,-0.619027 v -2.0663 a 0.61841261,0.61841261 0 0 0 -0.61906,-0.619026 h -1.438678 a 0.61841261,0.61841261 0 0 0 -0.617335,0.619026 v 0.03602 H 14.56016 c -0.376161,-2.8e-4 -0.681045,0.30467 -0.68078,0.680765 V 15.77419 H 11.480422 V 15.247777 A 0.64848386,0.75233586 0 0 0 10.832227,14.496715 H 9.3232347 A 0.64848386,0.75233586 0 0 0 8.67504,15.247777 v 0.528139 H 7.4729892 V 12.943124 10.969405 8.1366138 H 8.67504 V 8.6647533 A 0.64848386,0.75233586 0 0 0 9.3232347,9.415815 h 1.5089923 a 0.64848386,0.75233586 0 0 0 0.648195,-0.7510617 v -0.526447 h 2.398958 v 1.8828317 c -2.65e-4,0.376093 0.304619,0.681046 0.68078,0.68078 h 1.884524 v 0.03602 a 0.61841261,0.61841261 0 0 0 0.617335,0.619012 h 1.438678 a 0.61841261,0.61841261 0 0 0 0.61906,-0.619028 V 8.6716218 A 0.61841261,0.61841261 0 0 0 18.500697,8.0525949 H 17.062019 A 0.61841261,0.61841261 0 0 0 16.444684,8.6716218 V 9.3026612 H 15.23749 v -3.703909 h 1.207194 v 0.5967284 a 0.61841261,0.61841261 0 0 0 0.617335,0.6173015 h 1.438678 a 0.61841261,0.61841261 0 0 0 0.61906,-0.6173015 V 4.1274554 a 0.61841261,0.61841261 0 0 0 -0.61906,-0.6190269 z"/></svg>