<svg viewBox="0 0 24 24" xmlns="http://www.w3.org/2000/svg"><path d="M 1.5647244,0 A 1.5647244,1.5647244 0 0 0 0,1.5647244 V 22.435276 A 1.5647244,1.5647244 0 0 0 1.5647244,24 H 22.435276 A 1.5647244,1.5647244 0 0 0 24,22.435276 V 1.5647244 A 1.5647244,1.5647244 0 0 0 22.435276,0 Z M 2.4755906,6.4100787 H 3.6661417 V 17.593701 H 2.4755906 Z m 2.6645669,0 H 6.3307087 V 17.593701 H 5.1401575 Z m 2.7212598,0 H 9.0519685 V 17.593701 H 7.8614173 Z m 6.2362207,0 h 1.190551 L 11.217638,17.589921 h -1.190551 z m 2.165669,0 h 1.190551 l 4.070551,11.1798423 h -1.186771 z"/></svg>