<svg viewBox="0 0 24 24" xmlns="http://www.w3.org/2000/svg"><path d="M 18.351371,-8.1969127e-8 C 17.046234,0.19636092 15.261276,0.31188492 13.962487,0.54772192 c -3.414336,0.2766 -6.7874155,1.01394598 -9.5987565,3.62480098 -0.658736,0.744972 -1.337582,1.449333 -1.914655,2.360417 l -0.03023,-0.208061 -0.790163,0.185538 c -1.132256,4.9228551 -1.710267,9.8596711 3.529957,15.4446741 l -1.448735,0.843512 0.432723,0.685839 0.847072,0.401899 1.733263,-1.129824 c 2.986894,1.038908 5.1103155,1.925305 8.9366335,0.505636 1.721187,-0.960876 2.550222,-1.537109 4.5187,-3.950826 l 2.955561,-3.267361 -0.373447,-0.695911 -0.794907,0.462954 0.569653,-2.8868 C 22.977699,10.246014 22.079143,5.7255379 19.472895,2.4315509 Z M 17.850479,1.1292329 c 0.317782,4.55e-4 0.248387,0.540086 -0.144638,1.305283 0,0 -2.187022,5.547378 -2.879686,6.962106 1.064499,0.307442 3.522269,0.468181 3.774772,1.0616561 0.07855,0.184631 -0.857198,1.162991 -2.183772,2.42325 -2.021496,1.063726 -4.043086,2.126708 -6.064649,3.190299 0.02433,-1.054417 0.04942,-2.108603 0.0735,-3.163029 v -5.95e-4 l 0.31832,-0.697099 c 0,0 -3.0925915,-0.425132 -3.8150805,-0.85774 0.03741,-0.211284 0.07462,-0.422395 0.112034,-0.633673 1.568927,-2.0110861 9.7036785,-8.8435681 9.7036785,-8.8435681 0.53889,-0.525785 0.901809,-0.747185 1.105521,-0.74689 z m -15.9236345,6.289309 0.0077,0.05217 c -0.0098,0.02098 -0.01991,0.04165 -0.02964,0.06283 0.0073,-0.03831 0.01452,-0.07654 0.02193,-0.114999 z m -0.05987,0.31654 0.113813,0.05098 0.634267,4.3408681 3.237721,-2.3396701 -1.024904,5.4754361 3.985206,-1.585665 -0.01185,5.16482 7.4944165,-4.427414 -1.69355,5.374665 5.197425,-5.180826 -1.478967,3.92 3.253727,-1.874937 0.206283,0.09366 0.04742,-0.240071 0.489037,-0.281568 c -2.148699,2.7046 -4.34078,5.534081 -6.915276,6.509822 -2.279234,1.048675 -4.132676,0.792024 -7.8145145,-0.183168 -0.768299,-0.226923 -1.630701,-0.398583 -2.224082,-0.902792 -4.048716,-4.857736 -4.452024,-8.731355 -3.496169,-13.9141361 z m 3.397772,14.6639951 0.547719,0.467103 -0.833437,0.468291 -0.396564,-0.145823 -0.109663,-0.26971 z"/></svg>