<svg viewBox="0 0 24 24" xmlns="http://www.w3.org/2000/svg"><path d="M 10.292,7.095 A 1.068,1.068 0 0 0 9.301,8.222 1.068,1.068 0 0 0 10.292,9.35 1.068,1.068 0 0 0 11.282,8.222 1.068,1.068 0 0 0 10.292,7.095 m 4.548,6.119 -0.622,-0.036 a 0.36,0.36 0 0 1 -0.179,-0.06 l -0.314,7.368 a 1.8,1.8 0 0 0 0.572,0.12 l 0.823,0.028 0.317,-6.69 0.679,-0.874 0.018,-0.72 -0.575,0.576 a 0.888,0.888 0 0 1 -0.72,0.288 m -10.624,-0.534 -0.617,-0.036 a 0.36,0.36 0 0 1 -0.178,-0.061 l -0.318,7.307 a 3,3 0 0 0 0.607,0.094 l 0.788,0.04 0.313,-6.613 0.68,-0.874 0.017,-0.72 -0.575,0.575 a 0.888,0.888 0 0 1 -0.719,0.289 m 9.814,0.036 a 0.168,0.168 0 0 0 -0.058,0.146 l 0.064,0.096 a 0.24,0.24 0 0 0 0.061,0.062 l 0.043,0.008 0.504,0.03 A 1.02,1.02 0 0 0 15.516,12.657 h 0.006 l 0.536,-0.515 -1.346,-0.053 z M 3.503,12.179 a 0.18,0.18 0 0 0 0.11,0.312 l 0.504,0.03 a 1.02,1.02 0 0 0 0.871,-0.401 l 0.419,-0.48 -1.162,-0.072 z m 6.546,7.783 3.581,0.154 0.302,-7.074 a 0.36,0.36 0 0 1 -0.056,-0.095 0.288,0.288 0 0 1 0.08,-0.314 l 0.6,-0.548 -4.4,-0.155 z m 5.206,0.223 4.111,0.176 a 5.88,5.88 0 0 0 2.369,-0.384 l -0.112,-7.512 a 0.408,0.408 0 0 0 -0.535,-0.384 3.84,3.84 0 0 1 -1.33,0.186 l -3.506,-0.12 -0.023,0.96 -0.68,0.875 z m -10.622,-0.583 5.304,0.354 0.079,-5.881 0.029,-2.152 -4.417,-0.274 -0.023,0.92 -0.679,0.875 z m -4.261,-8.526 -0.036,-0.014 -0.18,7.748 a 6,6 0 0 0 2.375,0.658 l 0.48,0.032 0.308,-7.212 0.016,0.023 a 0.288,0.288 0 0 1 0.096,-0.21 l 0.652,-0.539 -2.359,-0.145 A 4.08,4.08 0 0 1 0.371,11.076 m 18.689,9.548 -3.816,-0.22 -0.016,0.341 -0.934,-0.032 a 1.92,1.92 0 0 1 -0.648,-0.137 l -0.036,-0.016 0.011,-0.25 -9,-0.52 -0.017,0.344 -0.901,-0.047 A 3.12,3.12 0 0 1 3.029,19.98 l -0.043,-0.011 0.012,-0.271 -0.689,-0.04 A 4.92,4.92 0 0 1 0.48,19.184 l 1.108,1.064 a 2.28,2.28 0 0 0 1.424,0.628 l 15.442,0.994 a 3.192,3.192 0 0 0 2.188,-0.679 l 1.738,-1.366 a 4.8,4.8 0 0 1 -2.087,0.763 7.2,7.2 0 0 1 -1.232,0.036 M 3.548,9.341 A 0.48,0.48 0 0 0 3.89,9.507 L 16.702,10.195 A 0.497,0.497 0 0 0 17.226,9.737 L 17.615,4.919 3.815,4.257 3.43,8.978 A 0.48,0.48 0 0 0 3.548,9.341 M 10.292,9.461 A 1.176,1.176 0 0 1 9.188,8.221 1.18,1.18 0 0 1 10.292,6.981 1.176,1.176 0 0 1 11.4,8.222 1.176,1.176 0 0 1 10.292,9.462 Z m 3.46,-3.23 a 0.092,0.092 0 0 1 0.097,-0.089 l 1.594,0.073 a 0.092,0.092 0 0 1 0.088,0.097 l -0.031,0.697 a 0.096,0.096 0 0 1 -0.097,0.089 l -1.594,-0.073 a 0.092,0.092 0 0 1 -0.088,-0.095 z m 0.055,2.718 1.258,0.058 a 0.293,0.293 0 1 1 -0.028,0.586 l -1.256,-0.058 a 0.293,0.293 0 1 1 0.026,-0.586 M 8.75,6.224 12.09,6.371 a 0.269,0.269 0 0 1 0.257,0.276 0.268,0.268 0 0 1 -0.28,0.259 L 8.726,6.759 a 0.268,0.268 0 0 1 0.024,-0.535 M 5.59,5.822 a 0.092,0.092 0 0 1 0.096,-0.092 l 1.56,0.072 a 0.092,0.092 0 0 1 0.088,0.096 l -0.032,0.7 a 0.092,0.092 0 0 1 -0.096,0.088 l -1.56,-0.072 a 0.091,0.091 0 0 1 -0.088,-0.096 z m 0.068,2.718 1.274,0.058 a 0.294,0.294 0 0 1 -0.026,0.587 l -1.274,-0.059 a 0.293,0.293 0 0 1 0.026,-0.586 M 23.669,5.285 V 5.155 h 0.007 L 23.669,4.545 22.289,5.385 A 2.472,2.472 0 0 1 21.059,5.657 L 17.683,5.516 17.341,9.753 a 0.608,0.608 0 0 1 -0.608,0.563 h -0.034 L 3.884,9.62 A 0.6,0.6 0 0 1 3.318,8.97 L 3.65,4.926 1.32,4.829 A 0.48,0.48 0 0 1 1.018,4.709 l -0.072,0.43 0.008,0.022 -0.019,0.143 L 0.174,10.998 0,18.348 A 1.08,1.08 0 0 0 0.046,18.674 l 0.18,-7.762 0.068,0.017 a 1.2,1.2 0 0 1 0.12,0.043 3.84,3.84 0 0 0 1.313,0.323 l 3.893,0.24 0.008,-0.008 v 0.01 l 4.476,0.277 5.784,0.203 0.44,0.014 3.434,0.12 a 3.72,3.72 0 0 0 1.29,-0.18 0.521,0.521 0 0 1 0.682,0.488 l 0.113,7.54 a 4.8,4.8 0 0 0 0.565,-0.336 L 23.099,19.183 24,18.317 Z M 1.156,4.016 20.78,4.958 a 3.9,3.9 0 0 0 2.13,-0.6 l 0.763,-0.468 0.007,-0.474 -1.399,0.704 A 2.472,2.472 0 0 1 21.055,4.389 L 1.32,3.57 A 0.48,0.48 0 0 1 1.038,3.465 v 0.432 A 0.12,0.12 0 0 0 1.156,4.016 M 1.307,3.45 1.462,3.457 21.06,4.271 h 0.16 a 4.56,4.56 0 0 0 1.262,-0.439 l 1.133,-0.542 c 0.054,-0.026 0.049,-0.047 0.048,-0.053 -0.02,-0.096 -0.338,-0.26 -0.575,-0.269 L 5.437,2.13 A 7.68,7.68 0 0 0 2.4,2.622 L 1.176,3.083 a 0.18,0.18 0 0 0 -0.12,0.205 0.24,0.24 0 0 0 0.018,0.055 0.36,0.36 0 0 0 0.233,0.107"/></svg>