<svg viewBox="0 0 24 24" xmlns="http://www.w3.org/2000/svg"><path d="m 19.004,5.629 c -1.69,0 -3.311,0.857 -4.819,2.547 l 1.776,1.925 c 0,0 0.609,-0.521 1.097,-0.936 0.48,-0.408 1.273,-0.784 1.949,-0.784 1.134,0 1.892,0.694 1.849,1.764 -0.037,0.91 -1.206,1.838 -1.821,2.344 -0.817,0.671 -1.617,1.363 -2.418,2.052 -0.891,0.766 -1.734,1.491 -1.957,1.674 v 2.157 l 0,-0.001 H 24 v -2.64 h -4.702 a 27.01,27.01 0 0 0 3.282,-3.033 c 2.739,-3.147 0.025,-7.16 -3.576,-7.07 z m -13.045,0.198 v 0 H 3.217 A 3.217,3.217 0 0 0 0,9.044 v 6.112 a 3.217,3.217 0 0 0 3.217,3.217 h 2.742 a 0.092,0.092 0 0 0 0.092,-0.092 V 5.918 a 0.092,0.092 0 0 0 -0.092,-0.092 z m 3.37,0 v 0 H 7.388 a 0.082,0.082 0 0 0 -0.082,0.082 V 18.28 a 0.092,0.092 0 0 0 0.092,0.092 h 1.931 a 3.217,3.217 0 0 0 3.217,-3.217 V 9.043 A 3.217,3.217 0 0 0 9.329,5.826 Z M 3.217,6.838 H 5.04 V 17.361 H 3.217 A 2.205,2.205 0 0 1 1.012,15.156 V 9.044 a 2.205,2.205 0 0 1 2.205,-2.205 z m -0.084,1.573 a 1.179,1.179 0 0 0 -1.18,1.18 1.18,1.18 0 1 0 1.18,-1.18 z m 6.714,3.049 a 1.268,1.268 0 0 1 1.21,1.267 1.269,1.269 0 0 1 -1.268,1.268 1.268,1.268 0 1 1 0.059,-2.535 z"/></svg>