<svg viewBox="0 0 24 24" xmlns="http://www.w3.org/2000/svg"><path d="m 18.71388,1.2808469 c -1.66403,0 -3.26035,0.84362 -4.74531,2.5078601 l 1.74913,1.89603 c 0,0 0.60004,-0.51278 1.08018,-0.9219 0.47235,-0.40215 1.25361,-0.77182 1.91877,-0.77182 1.11633,0 1.86346,0.68312 1.8204,1.73696 -0.0367,0.89596 -1.18736,1.81038 -1.79342,2.30859 -0.80402,0.6609 -1.59239,1.34209 -2.38145,2.02086 -0.87754,0.7546 -1.70742,1.46841 -1.92684,1.64877 v 2.12373 l 2.6e-4,-6.6e-4 h 9.19787 v -2.59923 H 19.0032 a 26.597833,26.597833 0 0 0 3.23168,-2.9868 c 2.69688,-3.09855 0.0251,-7.0504001 -3.521,-6.9623901 z m -12.8456705,0.19451 v 2.6e-4 h -2.70026 A 3.1678143,3.1678143 0 0 0 -4.6324709e-7,4.643437 v 6.01867 A 3.1676789,3.1676789 0 0 0 3.1679495,13.829797 h 2.70026 a 0.09051672,0.09051672 0 0 0 0.0906,-0.0906 V 1.5657769 a 0.09051672,0.09051672 0 0 0 -0.0906,-0.0904 z m 3.31816,0 v 2.6e-4 h -1.91138 a 0.08029381,0.08029381 0 0 0 -0.0803,0.0807 V 13.739127 a 0.09044902,0.09044902 0 0 0 0.0904,0.0906 h 1.9012 A 3.1676789,3.1676789 0 0 0 12.3541,10.662047 V 4.643367 A 3.1678143,3.1678143 0 0 0 9.1862895,1.4754269 Z m -6.01842,0.9964801 h 1.79475 v 10.36214 h -1.79475 A 2.1713857,2.1713857 0 0 1 0.99621954,10.662247 V 4.643567 A 2.1711826,2.1711826 0 0 1 3.1679495,2.471837 Z m -0.083,1.5488 a 1.1614845,1.1614845 0 0 0 -1.1615,1.1615 1.1616199,1.1616199 0 1 0 1.1615,-1.1615 z m 6.61146,3.00253 a 1.2490901,1.2490901 0 0 1 1.1913905,1.24771 1.2491578,1.2491578 0 0 1 -1.2490405,1.24904 1.2490901,1.2490901 0 1 1 0.0576,-2.49675 z m 12.0438405,9.2846 a 0.97855545,0.97855545 0 1 0 0.97664,0.9785 0.97875856,0.97875856 0 0 0 -0.97664,-0.9785 z m -17.6401705,0.0616 v 1.83349 h 0.40806 v -1.83349 z m 4.74107,0 v 0.38902 h 0.58591 v 1.44447 h 0.39457 v -1.44447 H 10.39419 v -0.38902 z m 9.0361505,0 v 1.83349 h 0.75821 a 0.91715032,0.91715032 0 1 0 0,-1.83349 z m -4.71476,1.3e-4 -1.42596,5.3e-4 v 1.83296 l 1.42596,-6.6e-4 v -0.33877 H 12.1088 v -0.43014 h 0.9744 v -0.33176 h -0.9744 v -0.39563 h 1.05374 z m 1.51918,2.7e-4 v 1.83362 h 0.3717 v -1.22629 l 0.91066,1.22629 h 0.36191 2.6e-4 v -1.83362 H 15.9539 v 1.20447 l -0.90194,-1.20447 z m -13.6089005,1.3e-4 v 1.83362 h 0.3717 v -1.22629 h 2.6e-4 l 0.91053,1.22629 h 0.36205 v -1.83362 h -0.37236 v 1.20448 l -0.90194,-1.20448 z m 4.81777,0 v 1.83362 h 0.3717 v -1.22629 h 2.6e-4 l 0.9104,1.22629 h 0.36205 v -1.83362 h -0.37236 v 1.20448 l -0.90181,-1.20448 z m 15.8745205,0.34618 a 0.57079016,0.57079016 0 0 1 0.54478,0.57017 0.57092557,0.57092557 0 0 1 -0.56964,0.5707 0.57079016,0.57079016 0 1 1 0.0249,-1.14087 z m -3.51122,0.0386 h 0.40026 a 0.53152338,0.53152338 0 0 1 0,1.06286 h -0.40026 z m -1.01671,2.27341 a 1.8463515,1.8463515 0 1 0 1.50609,2.87559 l -0.5629,-0.48938 a 1.1094899,1.1094899 0 0 1 -0.94967,0.53712 1.0773317,1.0773317 0 1 1 0,-2.15441 1.1094899,1.1094899 0 0 1 0.94967,0.53711 l 0.5629,-0.48938 a 1.8463515,1.8463515 0 0 0 -1.50609,-0.81665 z m -14.7443505,0.0644 c -0.74749,0 -1.54165996,0.36452 -1.54165996,1.04011 0,0.54784 0.38626996,0.82753 1.37795996,0.9982 0.69915,0.12024 1.08427,0.18661 1.07344,0.48714 -0.006,0.16566 -0.13419,0.44336 -0.9223,0.44336 a 2.4452377,2.4452377 0 0 1 -1.23568,-0.32317 l -0.32739996,0.59107 a 3.3906872,3.3906872 0 0 0 1.51335996,0.36627 c 1.10055,0 1.68235,-0.3811 1.68235,-1.10239 0,-0.41806 -0.14105,-0.85367 -1.60381,-1.0938 v -1.4e-4 c -0.4999,-0.0821 -0.82273,-0.17477 -0.82273,-0.40753 0,-0.26904 0.3594,-0.37235 0.84178,-0.37235 0.44845,0 0.89811,0.17104 1.05849,0.23854 l 0.24595,-0.599 a 3.8792879,3.8792879 0 0 0 -1.33975,-0.26631 z m 19.3727705,0.0479 v 1.36341 1.3e-4 h -1.61571 v -1.36341 H 19.5344 v 3.45951 h 0.71549 v -1.38007 h 1.61571 v 1.38007 h 0.71602 v -3.45964 z m -17.3587905,3.9e-4 0.9789,3.45965 h 0.83132 l 0.64502,-2.27937 0.64078,2.27937 h 0.83489 l 0.98405,-3.45965 h -0.75278 l -0.66802,2.50998 -0.73295,-2.50998 h -0.61394 l -0.72884,2.50072 -0.66538,-2.50072 z m 7.3884405,0 v 0.73414 h 1.10544 v 2.72538 h 0.74432 v -2.72538 h 1.08084 v -0.73414 z m -1.61412,2.7e-4 v 3.45951 h 0.76997 v -3.45951 z m 13.174,2.94435 v 0.5145 h 0.092 v -0.39484 l 0.13448,0.39061 0.002,0.005 h 0.0889 l 0.001,-0.005 0.13461,-0.39061 v 0.39524 h 0.0919 v -0.51464 h -0.14267 v -2.6e-4 l -0.12985,0.37658 -0.12958,-0.37658 z m -0.53474,1.3e-4 v 0.0986 h 0.15841 v 0.41626 h 0.1001 v -0.41626 h 0.15471 v -0.0986 z"/></svg>