<svg viewBox="0 0 24 24" xmlns="http://www.w3.org/2000/svg"><path d="m 3.787744,7.3608186 c -1.94092,0.0941 -3.33762997,0.69792 -3.68738997,1.7189601 -0.65246,1.9040703 1.86643997,4.7304003 7.85467997,6.7975903 1.21083,0.4172 2.15814,0.5897 3.5164,0.77477 -1.49001,-0.2729 -2.5565,-0.66501 -3.19328,-0.90968 C 2.443614,13.496469 0.45796403,11.087379 0.97554403,9.3589687 1.559004,7.4203986 6.101154,7.2729886 10.887994,8.9449287 c 0.97556,0.34192 2.28676,1.0226 2.8859,1.3676603 C 13.240624,9.9675287 12.757574,9.5126787 10.740584,8.7002287 8.213854,7.6823286 5.728674,7.2667186 3.787744,7.3608186 Z m 13.44973,1.7468401 c -0.2732,-0.008 -0.5777,0.0145 -0.90393,0.0788 1.28925,-0.0126 1.75982,0.32625 1.75982,0.6368 0,0.1976203 -0.29176,0.3764303 -0.75915,0.4987703 0.70893,-0.0157 1.26105,-0.31998 1.26105,-0.5897503 0,-0.29643 -0.53819,-0.59991 -1.35779,-0.62461 z m -2.99618,1.4464403 c -0.87205,0 -1.59666,0.63051 -1.74095,1.36453 -0.14743,0.73716 0.3419,1.37084 1.21081,1.37084 0.34192,0 0.72774,-0.11609 0.95986,-0.37018 h 0.0126 l -0.0564,0.28545 h 1.0414 l 0.50815,-2.56591 h -1.04141 l -0.0502,0.25095 c -0.17252,-0.22585 -0.50504,-0.33568 -0.84382,-0.33568 z m -6.85402,0.003 c -0.40465,0 -0.71833,0.1035 -1.01947,0.41404 h -0.0126 l 0.0627,-0.33249 h -1.04141 l -0.50502,2.55966 h 1.04141 l 0.2635,-1.32692 c 0.0627,-0.31995 0.23839,-0.59281 0.66187,-0.59281 0.51444,0 0.38267,0.42975 0.33561,0.67442 l -0.24776,1.24843 h 1.04141 l 0.31369,-1.58098 c 0.12547,-0.63051 -0.10352,-1.06335 -0.89401,-1.06335 z m 15.25134,0.003 c -0.95674,0 -1.72522,0.51759 -1.89461,1.37709 -0.17566,0.88773 0.45797,1.37078 1.43039,1.37078 0.66815,0 1.3802,-0.27602 1.66565,-0.88457 h -1.00066 c -0.14743,0.16939 -0.31992,0.23526 -0.54264,0.23526 -0.42975,0 -0.61172,-0.20078 -0.53958,-0.57406 h 2.19267 l 0.0157,-0.091 c 0.17252,-0.88145 -0.30744,-1.43351 -1.32691,-1.43351 z m -2.02008,0.0502 c -0.40466,0 -0.77486,0.14113 -1.03835,0.46109 h -0.0125 l 0.0815,-0.42973 h -1.04147 l -0.50502,2.60671 h 1.04147 l 0.20389,-1.05084 c 0.0878,-0.44543 0.29795,-0.78734 0.87513,-0.78734 0.15998,0 0.29487,0.0157 0.42348,0.0879 l 0.17252,-0.88775 z m -11.47774,0.0345 -0.30432,1.54337 c -0.16625,0.84381 0.46427,1.10414 1.34572,1.10414 0.88146,0 1.61551,-0.26033 1.78176,-1.10414 l 0.30425,-1.54337 h -1.04141 l -0.26976,1.36765 c -0.0659,0.32624 -0.2008,0.55526 -0.63055,0.55526 -0.42975,0 -0.47365,-0.22902 -0.41092,-0.55526 l 0.26976,-1.36765 z m 7.7417,0 -0.50814,2.60358 h 1.0414 l 0.50821,-2.60358 z m 5.69657,0.50502 c 0.27917,0 0.505,0.15998 0.50814,0.40779 h -1.20769 c 0.11607,-0.26663 0.39527,-0.40779 0.69955,-0.40779 z m -8.22173,0.19765 c 0.42347,0 0.61799,0.26663 0.55526,0.58031 -0.0659,0.3231 -0.36074,0.57407 -0.78422,0.57407 -0.42347,0 -0.61799,-0.24784 -0.55525,-0.57407 0.0627,-0.31682 0.36073,-0.58031 0.78421,-0.58031 z"/></svg>