<svg viewBox="0 0 24 24" xmlns="http://www.w3.org/2000/svg"><path d="m 3.28143,13.07788 c 0.77522,0 1.46548,-0.40354 1.73097,-1.2 0.0212,-0.06372 0.0531,-0.08496 0.085,-0.08496 0.0637,0 0.0849,0.106195 0.0849,0.233629 0,1.454867 -1.08318,2.569911 -2.56991,2.569911 C 1.12566,14.59646 0,13.492035 0,12.015929 c 0,-1.486725 1.13628,-2.59115 2.66549,-2.59115 1.24247,0 2.18761,0.743363 2.18761,1.730973 0,0.764602 -0.57345,1.316814 -1.31682,1.316814 -0.69026,0 -1.22124,-0.467256 -1.22124,-1.125663 0,-0.265487 0.085,-0.520354 0.24425,-0.711505 0.0743,-0.09558 0.15929,-0.148672 0.20177,-0.148672 0.0319,0 0.0425,0.03186 0.0319,0.07434 -0.0212,0.0531 -0.0319,0.116814 -0.0319,0.19115 0,0.297346 0.24425,0.509735 0.55221,0.509735 0.33983,0 0.58408,-0.254867 0.58408,-0.584071 0,-0.424779 -0.41416,-0.732743 -0.977,-0.732743 -0.82831,0 -1.41239,0.700885 -1.41239,1.529203 -0.0106,0.966372 0.80708,1.60354 1.77346,1.60354 m 19.05132,0.08496 c -0.54159,0 -0.90265,-0.39292 -0.90265,-0.955752 0,-0.562832 0.37168,-0.955753 0.90265,-0.955753 0.5416,0 0.90266,0.392921 0.90266,0.955753 0,0.562832 -0.36106,0.955752 -0.90266,0.955752 m 0,0.669026 c 0.94514,0 1.66726,-0.700885 1.66726,-1.624778 0,-0.934514 -0.7115,-1.624779 -1.66726,-1.624779 -0.94513,0 -1.66725,0.700885 -1.66725,1.624779 0,0.923893 0.72212,1.624778 1.66725,1.624778 m -3.8761,-0.669026 c -0.53098,0 -0.90266,-0.39292 -0.90266,-0.955752 0,-0.562832 0.37168,-0.955753 0.90266,-0.955753 0.53097,0 0.90265,0.392921 0.90265,0.955753 0,0.562832 -0.37168,0.955752 -0.90265,0.955752 m -0.0956,0.669026 c 0.25487,0 0.45664,-0.04248 0.64779,-0.138053 0.11681,-0.0531 0.20177,-0.127433 0.28673,-0.19115 0.0319,-0.02124 0.0425,-0.02124 0.0425,0.01062 v 0.169912 c 0,0.06372 0.0319,0.106195 0.0956,0.106195 h 0.55221 c 0.0637,0 0.0956,-0.03186 0.0956,-0.09558 V 9.49912 c 0,-0.06372 -0.0425,-0.09558 -0.0956,-0.09558 h -0.55221 c -0.0637,0 -0.0956,0.03186 -0.0956,0.09558 v 1.40177 c 0,0.03186 -0.0212,0.03186 -0.0319,0.02124 -0.23362,-0.223009 -0.55221,-0.350443 -0.93451,-0.350443 -0.86018,0 -1.56106,0.658407 -1.56106,1.624779 -0.0106,0.987611 0.66903,1.635398 1.55044,1.635398 M 14.6867,13.215935 c -0.35045,0 -0.58408,-0.159292 -0.58408,-0.40354 0,-0.212389 0.14868,-0.339823 0.4354,-0.371681 l 0.50974,-0.04248 c 0.16991,-0.01062 0.31858,-0.04248 0.37168,-0.0531 0.0425,-0.01062 0.0743,0.01062 0.0743,0.04248 v 0.20177 c 0,0.371681 -0.32921,0.626548 -0.80708,0.626548 m -0.13806,0.615929 c 0.49912,0 0.75398,-0.159292 0.94514,-0.329203 0.0212,-0.02124 0.0531,-0.02124 0.0531,0.01062 v 0.169912 c 0,0.06372 0.0319,0.106195 0.0956,0.106195 h 0.49911 c 0.0531,0 0.085,-0.03186 0.085,-0.09558 v -1.964601 c 0,-0.753983 -0.47788,-1.157523 -1.33805,-1.157523 -0.56284,0 -0.99823,0.191151 -1.32744,0.530974 -0.0425,0.04248 -0.0425,0.08496 0.0106,0.127433 l 0.3292,0.329204 c 0.0425,0.04248 0.085,0.04248 0.12744,0 0.22301,-0.233628 0.49911,-0.350442 0.8177,-0.350442 0.37168,0 0.61593,0.180531 0.61593,0.435398 0,0.127433 -0.0743,0.180531 -0.26549,0.19115 l -0.70088,0.04248 c -0.36107,0.02124 -0.60531,0.106195 -0.78585,0.233628 -0.23362,0.169912 -0.37168,0.41416 -0.37168,0.711505 0.0212,0.615929 0.4885,1.008849 1.21062,1.008849 m -1.60354,-0.530973 c -0.33982,0.361062 -0.79646,0.520354 -1.25309,0.520354 -0.93452,0 -1.66726,-0.679646 -1.66726,-1.624779 0,-0.955752 0.75398,-1.624779 1.66726,-1.624779 0.60531,0 1.00884,0.276107 1.21061,0.456638 0.0425,0.03186 0.0425,0.09558 0.0106,0.138053 l -0.30796,0.382301 c -0.0319,0.04248 -0.0956,0.06372 -0.13805,0.02124 -0.23363,-0.223009 -0.45664,-0.329204 -0.76461,-0.329204 -0.55221,0 -0.91327,0.40354 -0.91327,0.955752 0,0.552213 0.36106,0.955752 0.91327,0.955752 0.29735,0 0.5416,-0.106194 0.77523,-0.350442 0.0531,-0.06372 0.10619,-0.0531 0.15929,-0.01062 l 0.31858,0.361062 c 0.0319,0.0531 0.0319,0.106195 -0.0106,0.148673 M 7.85839,13.162835 c -0.5416,0 -0.90266,-0.39292 -0.90266,-0.955752 0,-0.562832 0.37168,-0.955753 0.90266,-0.955753 0.54159,0 0.90265,0.392921 0.90265,0.955753 0,0.562832 -0.37168,0.955752 -0.90265,0.955752 m 0,0.669026 c 0.94513,0 1.66725,-0.700885 1.66725,-1.624778 -0.0106,-0.934514 -0.72212,-1.635399 -1.66725,-1.635399 -0.94514,0 -1.66726,0.700885 -1.66726,1.624779 0,0.934513 0.72212,1.635398 1.66726,1.635398"/></svg>