<svg viewBox="0 0 24 24" xmlns="http://www.w3.org/2000/svg"><path d="m 3.942,4.613 c -1.518,1.374 -2.835,2.86 -3.466,5.097 -0.634,2.248 -0.585,5.094 -0.145,7.398 0.44,2.304 1.12,4.107 1.873,5.83 H 15.383 c -0.31,-0.988 -0.761,-1.967 -1.446,-3.237 -0.685,-1.268 -1.658,-2.692 -2.648,-4.178 -0.99,-1.486 -1.985,-3.077 -1.851,-4.472 0.094,-0.987 0.49,-1.976 1.492,-2.76 1.16,-0.909 2.289,-1.437 3.353,-1.595 3.325,-0.496 6.422,0.601 8.925,3.366 0.288,0.316 0.36,0.726 0.545,1.127 l 0.166,-0.653 c 0.15,-0.589 0.088,-1.359 -0.152,-2.371 -0.243,-1.029 -0.563,-1.792 -1.46,-2.973 -0.893,-1.176 -2.467,-2.322 -4.48,-3.226 -1.5,-0.673 -3.305,-1 -5.798,-0.879 -2.522,0.124 -5.494,1.177 -8.087,3.526"/></svg>