<svg viewBox="0 0 24 24" xmlns="http://www.w3.org/2000/svg"><path d="m 17.829332,12.206475 a 1.7683341,1.7683341 0 0 0 -0.293039,-0.613865 0.37892874,0.37892874 0 0 1 -0.02147,0.26525 0.37892874,0.37892874 0 0 1 -0.02905,0.06316 0.37892874,0.37892874 0 0 1 -0.207148,0.178096 0.40419065,0.40419065 0 0 1 -0.505238,-0.252619 0.37892874,0.37892874 0 0 1 0.02147,-0.28167 l 0.01768,-0.03789 a 0.37892874,0.37892874 0 0 1 0.156624,-0.135151 0.3284049,0.3284049 0 0 1 0.343562,-0.03916 c -0.02274,-0.02021 -0.05179,-0.02526 -0.07452,-0.04421 A 1.7683341,1.7683341 0 0 0 16.732964,11.00401 1.8946437,1.8946437 0 0 0 16.442452,10.9497 1.7683341,1.7683341 0 0 0 16.117837,10.88781 c -0.01642,0 -0.03158,0.0076 -0.048,0.0076 a 2.5261916,2.5261916 0 0 0 -0.2122,0.0341 1.6420245,1.6420245 0 0 0 -0.402927,0.09978 1.6420245,1.6420245 0 0 0 -0.226095,0.117468 1.2630958,1.2630958 0 0 0 -0.190727,0.101048 c -0.04421,0.03158 -0.06442,0.08084 -0.104837,0.116205 a 1.2630958,1.2630958 0 0 0 -0.149045,0.109889 1.2630958,1.2630958 0 0 0 -0.1061,0.178096 1.7683341,1.7683341 0 0 0 -0.16294,0.272829 1.6420245,1.6420245 0 0 0 -0.126309,0.361246 1.7683341,1.7683341 0 0 0 -0.04168,0.282933 1.7683341,1.7683341 0 0 0 0.08589,0.663125 1.7683341,1.7683341 0 0 0 0.181886,0.378929 1.2630958,1.2630958 0 0 0 0.06694,0.137677 c 0.02905,0.03916 0.072,0.05684 0.103574,0.09221 a 1.2630958,1.2630958 0 0 0 0.118731,0.16294 1.7683341,1.7683341 0 0 0 0.205884,0.126309 1.5157149,1.5157149 0 0 0 0.606286,0.265251 1.7683341,1.7683341 0 0 0 0.242515,0.04547 c 0.05305,0 0.10231,0.02779 0.155361,0.02779 v 0.0076 a 1.7872805,1.7872805 0 0 0 1.796122,-1.778439 1.7683341,1.7683341 0 0 0 -0.06063,-0.378929 c -0.0101,-0.03789 -0.0101,-0.07452 -0.02021,-0.112415 m 2.196523,4.907127 0.024,-0.03663 c 0,0 4.371575,-5.027121 2.206628,-10.8499928 C 20.198899,0.68956724 14.868635,0.07822888 12.104981,0.00623242 9.3413278,-0.06576404 4.2649458,0.39905521 1.8739055,6.0690922 -0.27335736,11.179578 2.8843821,14.707404 3.9138052,16.974661 c 0.2993537,1.642025 -1.4891899,1.263096 -1.2214136,2.853333 0.2147263,0.450926 1.490453,0.810908 3.6806611,-0.06568 -0.6681777,1.389405 -2.598188,1.389405 -2.360726,2.26473 0.1578869,0.390297 3.112268,2.116949 5.8531858,-0.694702 l 0.2526195,-0.25262 c 0.193253,1.551082 0.655547,2.843229 2.050004,2.920278 1.508137,-0.0341 1.960325,-1.222677 2.111896,-2.695447 a 11.367862,11.367862 0 0 0 1.17089,0.817223 c 2.613345,1.609184 4.547145,0.284197 4.686086,-0.239988 -0.01642,-0.707333 -1.626868,-0.675756 -2.291256,-2.014638 2.60703,0.581025 3.196895,0.719965 3.572035,-0.109889 0.319563,-1.092578 -1.564976,-0.876588 -1.391932,-2.643659 M 5.4813071,8.2403538 A 0.12630958,0.12630958 0 0 1 5.3928904,8.2062503 0.13894054,0.13894054 0 0 1 5.3764701,8.0142597 1.7683341,1.7683341 0 0 1 6.0459109,7.6820655 0.13894054,0.13894054 0 0 1 6.2164288,7.7742715 0.13894054,0.13894054 0 0 1 6.1216966,7.9447894 1.5157149,1.5157149 0 0 0 5.586144,8.1974086 0.13894054,0.13894054 0 0 1 5.4813071,8.2403538 m 2.5413487,6.3495822 a 2.3493582,2.3493582 0 0 1 -2.3518844,-2.350621 2.3493582,2.3493582 0 0 1 2.3506213,-2.3518843 2.3518844,2.3518844 0 0 1 0,4.7025053 z m 5.7458232,1.686233 A 1.2757267,1.2757267 0 0 1 12.574853,17.272752 1.5788697,1.5788697 0 0 1 11.134924,16.501 c -0.05937,-0.126309 -0.15915,-0.701018 0.413032,-0.426926 a 2.6525012,2.6525012 0 0 0 0.959953,0.365034 1.2630958,1.2630958 0 0 0 0.738911,-0.31451 c 0.562078,-0.42819 0.521659,0.151571 0.521659,0.151571 m 2.51356,-1.448771 a 2.5476642,2.5476642 0 0 1 -2.548927,-2.548927 2.5476642,2.5476642 0 0 1 2.55019,-2.546401 2.5489273,2.5489273 0 1 1 0,5.097854 z m 3.15774,-6.347056 a 0.12630958,0.12630958 0 0 1 -0.08842,0.03284 0.12630958,0.12630958 0 0 1 -0.103574,-0.047998 1.5157149,1.5157149 0 0 0 -0.536816,-0.2526192 0.13894054,0.13894054 0 0 1 -0.09473,-0.1705179 0.13894054,0.13894054 0 0 1 0.169255,-0.094732 1.6925484,1.6925484 0 0 1 0.669441,0.3321942 0.13894054,0.13894054 0 0 1 -0.0025,0.2008322 z M 9.3615373,11.602715 a 0.41429542,0.41429542 0 1 1 -0.4155585,-0.413033 0.37892874,0.37892874 0 0 1 0.1932537,0.05431 1.6811805,1.6811805 0 1 0 0.1263095,0.101047 0.40419065,0.40419065 0 0 1 0.095995,0.257672"/></svg>