<svg viewBox="0 0 24 24" xmlns="http://www.w3.org/2000/svg"><path d="m 16.361183,10.26 a 0.9,0.9 0 0 0 -0.558,0.47 l -0.072,0.148 10e-4,0.207 c 0,0.193 0.004,0.217 0.059,0.353 0.076,0.193 0.152,0.312 0.291,0.448 0.24,0.238 0.51,0.3 0.872,0.205 a 0.86,0.86 0 0 0 0.517,-0.436 0.75,0.75 0 0 0 0.08,-0.498 c -0.064,-0.453 -0.33,-0.782 -0.724,-0.897 a 1.1,1.1 0 0 0 -0.466,0 m -9.2030004,0.005 c -0.305,0.096 -0.533,0.32 -0.65,0.639 a 1.2,1.2 0 0 0 -0.06,0.52 c 0.057,0.309 0.31,0.59 0.598,0.667 0.362,0.095 0.632,0.033 0.872,-0.205 0.14,-0.136 0.215,-0.255 0.291,-0.448 0.055,-0.136 0.059,-0.16 0.059,-0.353 l 0.001,-0.207 -0.072,-0.148 a 0.9,0.9 0 0 0 -0.565,-0.472 1,1 0 0 0 -0.474,0.007 m 4.1840004,2 c -0.131,0.071 -0.223,0.25 -0.195,0.383 0.031,0.143 0.157,0.288 0.353,0.407 0.105,0.063 0.112,0.072 0.117,0.136 0.004,0.038 -0.01,0.146 -0.029,0.243 -0.02,0.094 -0.036,0.194 -0.036,0.222 0.002,0.074 0.07,0.195 0.143,0.253 0.064,0.052 0.076,0.054 0.255,0.059 0.164,0.005 0.198,10e-4 0.264,-0.03 0.169,-0.082 0.212,-0.234 0.15,-0.525 -0.052,-0.243 -0.042,-0.28 0.087,-0.355 0.137,-0.08 0.281,-0.219 0.324,-0.314 a 0.365,0.365 0 0 0 -0.175,-0.48 0.4,0.4 0 0 0 -0.181,-0.033 c -0.126,0 -0.207,0.03 -0.355,0.124 l -0.085,0.053 -0.053,-0.032 c -0.219,-0.13 -0.259,-0.145 -0.391,-0.143 a 0.4,0.4 0 0 0 -0.193,0.032 m 0.39,-2.195 c -0.373,0.036 -0.475,0.05 -0.654,0.086 a 4.5,4.5 0 0 0 -0.951,0.328 c -0.9400004,0.46 -1.5890004,1.226 -1.7870004,2.114 -0.04,0.176 -0.045,0.234 -0.045,0.53 0,0.294 0.005,0.357 0.043,0.524 0.264,1.16 1.332,2.017 2.7140004,2.173 0.3,0.033 1.596,0.033 1.896,0 1.11,-0.125 2.064,-0.727 2.493,-1.571 0.114,-0.226 0.169,-0.372 0.22,-0.602 0.039,-0.167 0.044,-0.23 0.044,-0.523 0,-0.297 -0.005,-0.355 -0.045,-0.531 -0.288,-1.29 -1.539,-2.304 -3.072,-2.497 a 7,7 0 0 0 -0.855,-0.031 z m 0.645,0.937 a 3.3,3.3 0 0 1 1.44,0.514 c 0.223,0.148 0.537,0.458 0.671,0.662 0.166,0.251 0.26,0.508 0.303,0.82 0.02,0.143 0.01,0.251 -0.043,0.482 -0.08,0.345 -0.332,0.705 -0.672,0.957 a 3,3 0 0 1 -0.689,0.348 c -0.382,0.122 -0.632,0.144 -1.525,0.138 -0.582,-0.006 -0.686,-0.01 -0.853,-0.042 q -0.856,-0.16 -1.3500004,-0.68 c -0.264,-0.28 -0.385,-0.535 -0.45,-0.946 -0.03,-0.192 0.025,-0.509 0.137,-0.776 0.136,-0.326 0.488,-0.73 0.8360004,-0.963 0.403,-0.269 0.934,-0.46 1.422,-0.512 0.187,-0.02 0.586,-0.02 0.773,-0.002 m -5.5030004,-11 a 1.65,1.65 0 0 0 -0.683,0.298 c -0.574,0.435 -1.018,1.361 -1.206,2.514 -0.07,0.436 -0.119,1.04 -0.119,1.503 0,0.544 0.064,1.24 0.155,1.721 0.02,0.107 0.031,0.202 0.023,0.208 l -0.187,0.152 a 5.3,5.3 0 0 0 -0.949,1.02 5.5,5.5 0 0 0 -0.94,2.339 6.6,6.6 0 0 0 -0.023,1.357 c 0.091,0.78 0.325,1.438 0.727,2.04 l 0.13,0.195 -0.037,0.064 c -0.269,0.452 -0.498,1.105 -0.605,1.732 -0.084,0.496 -0.095,0.629 -0.095,1.294 0,0.67 0.009,0.803 0.088,1.266 0.095,0.555 0.288,1.143 0.503,1.534 0.071,0.128 0.243,0.393 0.264,0.407 0.007,0.003 -0.014,0.067 -0.046,0.141 a 7.4,7.4 0 0 0 -0.548,1.873 5,5 0 0 0 -0.071,0.991 c 0,0.56 0.031,0.832 0.148,1.279 l 0.017,0.065 h 1.478 l -0.05,-0.091 c -0.297,-0.552 -0.325,-1.575 -0.068,-2.597 0.117,-0.472 0.25,-0.819 0.498,-1.296 l 0.148,-0.29 v -0.177 c 0,-0.165 -0.003,-0.184 -0.057,-0.293 a 0.9,0.9 0 0 0 -0.194,-0.25 1.7,1.7 0 0 1 -0.385,-0.543 c -0.424,-0.92 -0.506,-2.286 -0.208,-3.451 0.124,-0.486 0.329,-0.918 0.544,-1.154 a 0.8,0.8 0 0 0 0.223,-0.531 c 0,-0.195 -0.07,-0.355 -0.224,-0.522 a 3.14,3.14 0 0 1 -0.817,-1.729 c -0.14,-0.96 0.114,-2.005 0.69,-2.834 0.563,-0.814 1.353,-1.336 2.237,-1.475 0.199,-0.033 0.57,-0.028 0.776,0.01 0.226,0.04 0.367,0.028 0.512,-0.041 0.179,-0.085 0.268,-0.19 0.374,-0.431 0.093,-0.215 0.165,-0.333 0.36,-0.576 0.234,-0.29 0.46,-0.489 0.8220004,-0.729 0.413,-0.27 0.884,-0.467 1.352,-0.561 0.17,-0.035 0.25,-0.04 0.569,-0.04 0.319,0 0.398,0.005 0.569,0.04 a 4.07,4.07 0 0 1 1.914,0.997 c 0.117,0.109 0.398,0.457 0.488,0.602 0.034,0.057 0.095,0.177 0.132,0.267 0.105,0.241 0.195,0.346 0.374,0.43 0.14,0.068 0.286,0.082 0.503,0.045 0.343,-0.058 0.607,-0.053 0.943,0.016 1.144,0.23 2.14,1.173 2.581,2.437 0.385,1.108 0.276,2.267 -0.296,3.153 -0.097,0.15 -0.193,0.27 -0.333,0.419 -0.301,0.322 -0.301,0.722 -0.001,1.053 0.493,0.539 0.801,1.866 0.708,3.036 -0.062,0.772 -0.26,1.463 -0.533,1.854 a 2,2 0 0 1 -0.224,0.258 0.9,0.9 0 0 0 -0.194,0.25 c -0.054,0.109 -0.057,0.128 -0.057,0.293 v 0.178 l 0.148,0.29 c 0.248,0.476 0.38,0.823 0.498,1.295 0.253,1.008 0.231,2.01 -0.059,2.581 a 1,1 0 0 0 -0.044,0.098 c 0,0.006 0.329,0.009 0.732,0.009 h 0.73 l 0.02,-0.074 0.036,-0.134 c 0.019,-0.076 0.057,-0.3 0.088,-0.516 a 9,9 0 0 0 0,-1.258 c -0.11,-0.875 -0.295,-1.57 -0.597,-2.226 -0.032,-0.074 -0.053,-0.138 -0.046,-0.141 a 1.4,1.4 0 0 0 0.108,-0.152 c 0.376,-0.569 0.607,-1.284 0.724,-2.228 0.031,-0.26 0.031,-1.378 0,-1.628 -0.083,-0.645 -0.182,-1.082 -0.348,-1.525 a 6,6 0 0 0 -0.329,-0.7 l -0.038,-0.064 0.131,-0.194 c 0.402,-0.604 0.636,-1.262 0.727,-2.04 a 6.6,6.6 0 0 0 -0.024,-1.358 5.5,5.5 0 0 0 -0.939,-2.339 5.3,5.3 0 0 0 -0.95,-1.02 l -0.186,-0.152 a 0.7,0.7 0 0 1 0.023,-0.208 c 0.208,-1.087 0.201,-2.443 -0.017,-3.503 -0.19,-0.924 -0.535,-1.658 -0.98,-2.082 -0.354,-0.338 -0.716,-0.482 -1.15,-0.455 -0.996,0.059 -1.8,1.205 -2.116,3.01 a 7,7 0 0 0 -0.097,0.726 c 0,0.036 -0.007,0.066 -0.015,0.066 a 1,1 0 0 1 -0.149,-0.078 4.86,4.86 0 0 0 -2.455,-0.697 c -0.832,0 -1.687,0.243 -2.4560004,0.698 a 1,1 0 0 1 -0.148,0.078 c -0.008,0 -0.015,-0.03 -0.015,-0.066 a 7,7 0 0 0 -0.097,-0.725 c -0.287,-1.623 -0.947,-2.696 -1.824,-2.967 a 2,2 0 0 0 -0.585,-0.041 z m 0.293,1.402 c 0.248,0.197 0.523,0.759 0.682,1.388 0.03,0.113 0.06,0.244 0.069,0.292 0.007,0.047 0.026,0.152 0.041,0.233 0.067,0.365 0.098,0.76 0.102,1.24 l 0.002,0.475 -0.12,0.175 -0.118,0.178 h -0.278 c -0.324,0 -0.646,0.041 -0.954,0.124 l -0.238,0.06 c -0.033,0.007 -0.038,-0.003 -0.057,-0.144 a 8.4,8.4 0 0 1 0.016,-2.323 c 0.124,-0.788 0.413,-1.501 0.696,-1.711 0.067,-0.05 0.079,-0.049 0.157,0.013 M 16.992183,1.397 c 0.17,0.126 0.358,0.46 0.498,0.888 0.28,0.854 0.36,2.028 0.212,3.145 -0.019,0.14 -0.024,0.151 -0.057,0.144 l -0.238,-0.06 a 3.7,3.7 0 0 0 -0.954,-0.124 h -0.278 l -0.119,-0.178 -0.119,-0.175 0.002,-0.474 c 0.004,-0.669 0.066,-1.19 0.214,-1.772 0.157,-0.623 0.434,-1.185 0.68,-1.382 0.078,-0.062 0.09,-0.063 0.159,-0.012"/></svg>