<svg viewBox="0 0 24 24" xmlns="http://www.w3.org/2000/svg"><path d="M 22.275424,9.8212922 C 22.819837,8.1873012 22.632727,6.3978672 21.762077,4.9118382 20.451531,2.6338932 17.820565,1.4621802 15.25068,2.0119572 14.1076,0.72339316 12.464476,-0.00979984 10.741998,9.9159307e-5 8.1133778,-0.00590084 5.7820808,1.6872382 4.9746178,4.1887732 c -1.687194,0.346137 -3.143281,1.4028 -3.995527,2.8995 -1.317736,2.273954 -1.017106,5.1384858 0.744018,7.0893168 -0.54215,1.632586 -0.35511,3.419561 0.513346,4.904501 1.30937,2.282308 3.94346,3.456985 6.516351,2.905977 1.141938,1.287263 2.7829752,2.020329 4.5037292,2.011859 2.62862,0.006 4.959917,-1.687139 5.76738,-4.188674 1.686804,-0.346484 3.142431,-1.403183 3.994383,-2.899691 1.321092,-2.273455 1.020739,-5.140193 -0.742874,-7.0904598 M 13.256535,22.434746 c -1.05202,7.62e-4 -2.070788,-0.368543 -2.877784,-1.043455 0.03543,-0.01981 0.104383,-0.05429 0.144003,-0.08038 l 4.779165,-2.758925 c 0.244209,-0.13869 0.394316,-0.398608 0.392391,-0.679445 V 11.13409 l 2.019097,1.165552 c 0.02212,0.01062 0.03713,0.03197 0.03962,0.05638 v 5.57728 c 0,2.484062 -2.01224,4.498778 -4.496492,4.501636 M 3.5949648,18.308931 c -0.526704,-0.910536 -0.716823,-1.977157 -0.537156,-3.013598 0.03524,0.02191 0.09791,0.05943 0.141717,0.08438 l 4.780308,2.760068 c 0.242384,0.141778 0.542398,0.141778 0.784782,0 l 5.8315712,-3.372274 v 2.331105 c 0.002,0.0243 -0.0086,0.04793 -0.02819,0.06248 l -4.8309762,2.78826 c -2.15091,1.238506 -4.898406,0.502297 -6.142055,-1.645756 z M 2.3429338,7.8740062 c 0.524183,-0.911984 1.352795,-1.610238 2.340438,-1.972239 v 5.6807118 c -0.0015,0.280729 0.148477,0.540458 0.392391,0.679445 l 5.8330962,3.368273 -2.0265262,1.169743 c -0.02003,0.0136 -0.04563,0.01597 -0.06781,0.0063 L 3.9843088,14.017219 C 1.8353028,12.77395 1.0989038,10.025311 2.3385538,7.8742112 Z M 18.934199,11.735054 13.100913,8.3665902 15.118105,7.1998952 c 0.0201,-0.0132 0.04544,-0.01555 0.06762,-0.0063 l 4.830405,2.789211 c 3.300127,1.9065568 2.881242,6.7965918 -0.695065,8.1141038 v -5.679377 c 0.003,-0.28138 -0.146232,-0.542432 -0.390296,-0.682493 z m 2.010717,-3.0261698 c -0.04689,-0.02887 -0.0942,-0.05707 -0.141909,-0.08457 l -4.780118,-2.759878 c -0.242383,-0.141778 -0.542398,-0.141778 -0.784781,0 l -5.8330962,3.367321 v -2.330152 c -7.62e-4,-0.02432 0.01014,-0.04753 0.02933,-0.06248 l 4.8302142,-2.788259 c 3.300972,-1.903086 7.324733,0.904136 6.678258,4.659162 z M 8.3042228,12.866129 6.2841738,11.700577 c -0.02102,-0.01159 -0.03535,-0.03242 -0.03867,-0.05619 V 6.0667262 c -0.0031,-3.813533 4.4442962,-5.89913404 7.3742772,-3.45818 -0.03543,0.02 -0.09905,0.05429 -0.144004,0.08038 l -4.7791652,2.758925 c -0.243914,0.138986 -0.393912,0.398715 -0.392391,0.679445 z m 1.096789,-2.365391 2.5981592,-1.5006088 2.597207,1.5006088 v 2.998931 l -2.598159,1.500417 -2.5981592,-1.500417 z"/></svg>