<svg viewBox="0 0 24 24" xmlns="http://www.w3.org/2000/svg"><path d="m 17.115514,11.347269 c -0.353297,0 -0.605485,0.120703 -0.729236,0.349219 l -0.06656,0.12375 v -0.413391 h -0.574874 v 2.512969 h 0.604733 v -1.495078 c 0,-0.357188 0.194156,-0.562079 0.532313,-0.562079 0.3225,0 0.507422,0.1995 0.507422,0.547219 v 1.509891 h 0.605016 v -1.61775 c 0,-0.598313 -0.328454,-0.95475 -0.878766,-0.95475 m -2.932735,0 c -0.713625,0 -1.155562,0.445312 -1.155562,1.161984 v 0.352828 c 0,0.689204 0.447093,1.117266 1.166859,1.117266 0.481453,0 0.818907,-0.17639 1.031251,-0.53925 l -0.374906,-0.215719 c -0.156892,0.209297 -0.407532,0.338954 -0.656111,0.338954 -0.36436,0 -0.581859,-0.224907 -0.581859,-0.601875 v -0.09989 h 1.687876 v -0.416766 c 0,-0.667641 -0.438375,-1.097531 -1.117032,-1.097531 z m 0.567188,1.108031 h -1.139579 v -0.06033 c 0,-0.413672 0.203111,-0.641953 0.571877,-0.641953 0.355123,0 0.567234,0.224906 0.567234,0.601875 z m 9.249987,-1.462125 v -0.480703 h -2.091798 v 0.480703 h 0.733406 v 2.44486 h -0.733406 v 0.480703 h 2.091798 V 13.438035 H 23.26636 v -2.44486 z M 8.1392768,10.443143 c -0.934217,0 -1.515,0.582141 -1.515,1.519688 v 0.50686 c 0,0.937266 0.580547,1.519688 1.515,1.519688 0.934453,0 1.515047,-0.582422 1.515047,-1.519688 v -0.506907 c -1.9e-4,-0.938531 -0.581624,-1.519688 -1.515047,-1.519688 m 0.890017,2.061235 c 0,0.622454 -0.32433,0.97936 -0.890017,0.97936 -0.565688,0 -0.889781,-0.356906 -0.889781,-0.97936 v -0.576468 c 0,-0.622454 0.324609,-0.97936 0.890063,-0.97936 0.565453,0 0.889969,0.35686 0.889969,0.97936 z m 2.5245012,-1.157109 c -0.317393,0 -0.592174,0.131484 -0.735471,0.351562 l -0.06497,0.100126 V 11.4068 h -0.575157 v 3.377626 h 0.604968 v -1.223438 l 0.06469,0.09605 c 0.136125,0.201844 0.401906,0.322265 0.711095,0.322265 0.521484,0 1.047655,-0.340781 1.047655,-1.102406 v -0.427266 c 0,-0.548765 -0.324328,-1.102406 -1.052811,-1.102406 m 0.447843,1.500141 c 0,0.405 -0.236251,0.656625 -0.616314,0.656625 -0.354373,0 -0.60164,-0.266016 -0.60164,-0.646594 v -0.378 c 0,-0.385172 0.249328,-0.656344 0.606796,-0.656344 0.377204,0 0.611627,0.251391 0.611627,0.656344 z m 7.664298,-2.334657 -1.220485,3.407063 h 0.614485 l 0.233672,-0.730312 h 1.403063 l 0.0023,0.0072 0.231095,0.723093 h 0.614249 L 20.32172,10.512409 Z m -0.222376,2.196329 0.550549,-1.722563 0.544922,1.722563 z M 5.4414808,11.463847 a 1.4704689,1.4704689 0 0 0 -0.126328,-1.208157 1.489219,1.489219 0 0 0 -1.602377,-0.7136247 1.4718752,1.4718752 0 0 0 -1.109531,-0.495094 1.4878127,1.4878127 0 0 0 -1.41928,1.0307817 1.4718752,1.4718752 0 0 0 -0.98325107,0.713531 1.489219,1.489219 0 0 0 0.183093,1.744594 1.4718752,1.4718752 0 0 0 0.12633,1.206938 1.489219,1.489219 0 0 0 1.60359407,0.715125 1.4718752,1.4718752 0 0 0 1.108312,0.495094 1.4878127,1.4878127 0 0 0 1.419282,-1.030781 1.4718752,1.4718752 0 0 0 0.982967,-0.713579 1.487344,1.487344 0 0 0 -0.182811,-1.744875 m -2.219438,3.104063 a 1.1025002,1.1025002 0 0 1 -0.708189,-0.256781 c 0.0087,-0.0049 0.02569,-0.01336 0.03544,-0.01978 l 1.176093,-0.678937 a 0.19078128,0.19078128 0 0 0 0.09656,-0.167203 v -1.65825 l 0.496874,0.286828 a 0.01734375,0.01734375 0 0 1 0.0098,0.01387 v 1.3725 c 0,0.611297 -0.495188,1.107094 -1.106531,1.107797 M 0.84449573,13.552548 a 1.1043751,1.1043751 0 0 1 -0.132189,-0.74161 c 0.0087,0.0054 0.0241,0.01463 0.03488,0.02077 l 1.17637607,0.679219 a 0.19125002,0.19125002 0 0 0 0.193123,0 l 1.43508,-0.829875 v 0.573656 a 0.01734375,0.01734375 0 0 1 -0.0069,0.01538 l -1.188844,0.686157 c -0.529312,0.304781 -1.205436,0.123609 -1.51148407,-0.405001 z m -0.308113,-2.567906 A 1.1015627,1.1015627 0 0 1 1.1123378,10.499298 v 1.397953 a 0.19125002,0.19125002 0 0 0 0.09656,0.167203 l 1.435453,0.828891 -0.498703,0.28786 a 0.01734375,0.01734375 0 0 1 -0.01669,0.0015 L 0.94030073,12.496362 c -0.528844,-0.305954 -0.710061,-0.98236 -0.405,-1.511719 z m 4.08290907,0.950156 -1.435501,-0.828937 0.496405,-0.28711 a 0.0178125,0.0178125 0 0 1 0.01665,-0.0015 l 1.188703,0.686391 a 1.1067189,1.1067189 0 0 1 -0.171048,1.996781 v -1.397625 a 0.19125002,0.19125002 0 0 0 -0.09604,-0.167953 z m 0.494811,-0.744703 a 1.4062502,1.4062502 0 0 0 -0.03492,-0.02081 l -1.176327,-0.679172 a 0.19125002,0.19125002 0 0 0 -0.193126,0 l -1.435453,0.828657 v -0.573422 a 0.01875,0.01875 0 0 1 0.0072,-0.01538 l 1.188657,-0.686156 a 1.1067189,1.1067189 0 0 1 1.643438,1.146563 z m -3.110718,1.023047 -0.49711,-0.286828 a 0.01875,0.01875 0 0 1 -0.0095,-0.01383 V 10.53989 a 1.1064845,1.1064845 0 0 1 1.81472,-0.8510157 c -0.0087,0.0049 -0.02437,0.01336 -0.03544,0.01978 l -1.176094,0.6789367 a 0.19125002,0.19125002 0 0 0 -0.09656,0.167203 z m 0.269905,-0.582094 0.639375,-0.369281 0.639141,0.369281 v 0.738 l -0.639375,0.369235 -0.639375,-0.369235 z"/></svg>