<svg viewBox="0 0 24 24" xmlns="http://www.w3.org/2000/svg"><path d="M10.82,8C10.78,6.69,9.3,4.56,8.88,3.97L8.83,1.64C8.82,1.37,8.6,1.15,8.33,1.15H6.16c-0.27,0-0.49,0.22-0.50,0.49L5.61,3.96C5.19,4.55,3.71,6.69,3.67,8L3.23,21.13c-0.01,0.22,0.13,0.42,0.34,0.49c0.02,0.01,0.16,0.05,0.38,0.11c0,0.07,0,0.14,0.03,0.2c0.11,0.25,0.67,1.09,3.27,1.09s3.16-0.83,3.27-1.09c0.03-0.06,0.03-0.13,0.03-0.20c0.22-0.06,0.36-0.1,0.38-0.11c0.21-0.07,0.35-0.27,0.34-0.49L10.82,8z M19.57,8.77c-0.03-0.83-0.97-2.19-1.23-2.56l-0.04-1.88c0-0.22-0.18-0.39-0.40-0.39h-1.74c-0.22,0-0.40,0.18-0.40,0.39l-0.04,1.88c-0.08,0.12-0.22,0.31-0.38,0.55c0.24,0.54,0.42,1.1,0.44,1.59v0l0.35,10.26c0.14,0.01,0.27,0.02,0.43,0.02c1.65,0,2.01-0.53,2.08-0.69c0.02-0.04,0.02-0.08,0.02-0.13c0.14-0.04,0.23-0.06,0.24-0.07c0.13-0.04,0.22-0.17,0.22-0.31L19.57,8.77z M15.52,8.08c-0.04-1.06-1.22-2.77-1.57-3.25l-0.04-1.88c0-0.22-0.18-0.39-0.40-0.39h-1.74c-0.22,0-0.40,0.18-0.40,0.39l-0.04,1.88c-0.08,0.12-0.22,0.31-0.38,0.55c0.48,0.90,0.85,1.82,0.87,2.59l0.42,12.2c0.13,0.01,0.26,0.02,0.40,0.02c2.09,0,2.55-0.67,2.63-0.88c0.02-0.05,0.03-0.11,0.03-0.16c0.18-0.05,0.29-0.08,0.30-0.09c0.17-0.06,0.28-0.22,0.28-0.40L15.52,8.08z M21.85,9.2c-0.02-0.6-0.7-1.6-0.9-1.85l-0.03-1.1c0-0.13-0.11-0.23-0.24-0.23h-1.05c-0.13,0-0.24,0.11-0.24,0.23l-0.03,1.1c-0.05,0.07-0.13,0.18-0.23,0.33c0.29,0.54,0.51,1.09,0.52,1.55l0.25,7.32c0.08,0.01,0.16,0.01,0.24,0.01c1.25,0,1.53-0.4,1.58-0.53c0.01-0.03,0.02-0.07,0.02-0.10c0.11-0.03,0.17-0.05,0.18-0.05c0.1-0.03,0.17-0.13,0.17-0.24L21.85,9.2z"/></svg>