<svg viewBox="0 0 24 24" xmlns="http://www.w3.org/2000/svg"><path d="M 8.1293034,2.0642456e-4 C 7.8036512,3.1412456e-4 7.5396847,0.26428212 7.539577,0.58993282 7.539489,0.81016602 7.6620867,1.0121104 7.8575148,1.1136497 6.8244931,2.8399528 6.3366756,4.2263728 7.1811873,6.8629673 4.3016534,6.0525628 3.5989596,7.8809688 2.5638073,9.2154413 2.4713293,9.1591566 2.3651515,9.1294079 2.2568944,9.1294457 1.9312426,9.1295534 1.6672757,9.3935214 1.667168,9.7191721 1.667075,10.044967 1.9311,10.309154 2.2568944,10.309262 c 0.3259353,9.3e-5 0.590183,-0.264155 0.59009,-0.5900899 C 2.8470645,9.619007 2.8216234,9.5204671 2.7731024,9.4328463 5.2855382,8.3294591 8.1242551,8.2007828 9.1580629,11.850316 11.041346,10.48652 13.079529,9.1219864 15.996549,7.7532131 c 1.82e-4,-9.71e-5 8.48e-4,-5.937e-4 10e-4,-7.026e-4 3.64e-4,-2.544e-4 7.88e-4,-4.845e-4 0.001,-6.905e-4 l 3.39e-4,-3.511e-4 3.52e-4,-3.512e-4 3.51e-4,-3.394e-4 v -3.511e-4 l 3.39e-4,-3.511e-4 v -3.394e-4 -3.511e-4 -3.511e-4 c 0.0013,-0.00779 -0.01209,-0.021808 -0.01939,-0.029065 -1.897928,-2.3428332 -1.846259,-4.0601858 -0.952598,-5.4841288 0.04808,0.012208 0.0975,0.018331 0.147039,0.01818 0.325943,9.29e-5 0.590187,-0.2641551 0.59009,-0.5900896 -2.7e-5,-0.3257955 -0.26421,-0.5898194 -0.590009,-0.5897264 -0.308406,1.039e-4 -0.564691,0.2377513 -0.588031,0.5452757 -1.198589,0.083569 -2.455776,0.5622288 -3.380843,3.1295673 C 8.6930012,4.7974937 8.2848797,3.0442069 8.2041542,1.1749714 8.4987685,1.1374404 8.7195414,0.88672562 8.7195138,0.58972642 8.7194061,0.26393102 8.4552185,-9.2975439e-5 8.1294242,2.4561244e-8 Z M 17.072858,8.1439658 C 14.393412,9.4105149 11.799803,11.041813 9.2459805,12.841974 V 24 h 4.0998885 v -5.515753 h 2.704542 c 2.023189,0 3.574488,-0.447412 4.653521,-1.341848 1.086071,-0.901607 1.6289,-2.186288 1.6289,-3.854527 0,-1.661153 -0.542732,-2.938882 -1.6289,-3.8333426 C 19.814438,8.7113458 18.60393,8.2744711 17.072858,8.1439658 Z M 13.345869,11.073013 H 15.6139 c 0.795143,0 1.409263,0.191853 1.842298,0.575192 0.432999,0.383341 0.649559,0.929828 0.649559,1.639691 0,0.709876 -0.21656,1.260009 -0.649559,1.650447 -0.432999,0.38334 -1.047191,0.575192 -1.842298,0.575192 h -2.268031 z"/></svg>