<svg viewBox="0 0 24 24" xmlns="http://www.w3.org/2000/svg"><path d="M 2.0165187,8.2553689 A 0.1840858,0.1840858 0 0 0 1.8324938,8.4393938 0.1840858,0.1840858 0 0 0 1.9317058,8.6028203 C 1.6093504,9.1415155 1.4571264,9.5741498 1.7206574,10.396902 0.82209501,10.144015 0.60281851,10.714571 0.27979791,11.130995 A 0.1840858,0.1840858 0 0 0 0.18402491,11.104161 0.1840858,0.1840858 0 0 0 0,11.288185 a 0.1840858,0.1840858 0 0 0 0.18402491,0.184139 0.1840858,0.1840858 0 0 0 0.1841383,-0.184139 0.1840858,0.1840858 0 0 0 -0.023055,-0.08935 C 1.1291171,10.854523 2.0149424,10.814369 2.3375435,11.953211 2.9252251,11.527637 3.561243,11.101832 4.471503,10.674705 c 5.67e-5,-3e-5 2.646e-4,-1.85e-4 3.25e-4,-2.19e-4 1.134e-4,-8e-5 2.457e-4,-1.52e-4 3.251e-4,-2.16e-4 l 1.058e-4,-1.09e-4 1.096e-4,-1.1e-4 1.096e-4,-1.06e-4 v -1.09e-4 l 1.058e-4,-1.1e-4 v -1.06e-4 -1.1e-4 -1.09e-4 c 3.969e-4,-0.0024 -0.00378,-0.0068 -0.00605,-0.0091 C 3.8742829,9.9332457 3.8904063,9.3973435 4.1692745,8.9530003 a 0.1840858,0.1840858 0 0 0 0.045883,0.00567 A 0.1840858,0.1840858 0 0 0 4.3992958,8.774532 0.1840858,0.1840858 0 0 0 4.2151575,8.5905071 0.1840858,0.1840858 0 0 0 4.0316617,8.7606612 C 3.6576403,8.7867402 3.2653335,8.9361065 2.976665,9.737248 2.1924218,9.752366 2.065067,9.2052501 2.0398765,8.6219527 A 0.1840858,0.1840858 0 0 0 2.2006952,8.4393262 0.1840858,0.1840858 0 0 0 2.0165569,8.2553013 Z M 7.983189,10.547229 c -0.057638,4.35e-4 -0.1189793,0.0033 -0.1731021,0.0087 l -4.309e-4,1.041655 c 0.1031054,-0.0102 0.2080627,-0.01739 0.3243586,-0.0076 l -3.251e-4,-1.0371 c -0.039042,-0.0042 -0.092901,-0.0061 -0.1505383,-0.0057 z m 0.3598482,0.03553 2.155e-4,1.034712 c 0.094224,0.01965 0.1825887,0.0452 0.2736373,0.0771 l 1.059e-4,-0.919001 C 8.6011219,10.642719 8.4067033,10.597931 8.3430561,10.582738 Z m -0.74223,0.0083 c -0.081109,0.02268 -0.2334988,0.06365 -0.2632059,0.173631 v 0.944488 c 0.0864,-0.0291 0.1734423,-0.05616 0.2628658,-0.07582 z m 2.2838364,0.192713 v 4.96091 h 1.2792694 v -1.721198 h 0.843953 c 0.631338,0 1.115423,-0.139616 1.452137,-0.418726 0.33891,-0.281347 0.508414,-0.682234 0.508414,-1.20281 0,-0.518365 -0.169474,-0.917082 -0.508414,-1.1962 -0.336717,-0.281347 -0.820799,-0.421976 -1.452137,-0.421976 z m 4.9875894,0 v 4.96091 h 3.525473 v -0.966934 h -2.246207 v -1.136332 h 2.043515 v -0.967184 h -2.043527 v -0.923666 h 2.173112 V 10.78365 Z m 4.648573,0 v 4.96091 h 1.27927 v -1.877368 h 0.362229 c 0.208252,0 0.374362,0.04539 0.498432,0.136214 0.126274,0.09082 0.250355,0.260296 0.372207,0.50841 l 0.604712,1.232744 H 24 l -0.6944,-1.408866 c -0.14177,-0.28577 -0.282519,-0.498451 -0.422086,-0.63801 -0.137348,-0.14177 -0.293517,-0.232554 -0.468502,-0.272428 0.318992,-0.0997 0.557181,-0.254815 0.714462,-0.465247 0.159496,-0.210444 0.239244,-0.479554 0.239244,-0.807405 0,-0.474057 -0.15292,-0.820723 -0.45863,-1.040029 -0.303496,-0.219326 -0.781945,-0.328932 -1.43544,-0.328932 z M 4.8073666,10.79664 c -0.8361247,0.395228 -1.6454639,0.904277 -2.4423873,1.466019 v 3.481877 h 1.2793756 v -1.721198 h 0.8439558 c 0.6313389,0 1.1154238,-0.139615 1.4521376,-0.418725 0.3389097,-0.281348 0.5083003,-0.682234 0.5083003,-1.20281 0,-0.518366 -0.1693604,-0.917082 -0.5083003,-1.1962 C 5.6628802,10.973691 5.2851397,10.837364 4.8073666,10.79664 Z m -1.1630117,0.914013 h 0.7077419 c 0.2481256,0 0.4397624,0.05987 0.5748917,0.179489 0.1351178,0.119622 0.2026957,0.290154 0.2026957,0.511668 0,0.221518 -0.067578,0.393188 -0.2026957,0.515024 -0.1351179,0.119622 -0.3267775,0.17949 -0.5748917,0.17949 H 3.6443549 Z m 7.5195581,0 h 0.707742 c 0.248088,0 0.439759,0.05987 0.574888,0.179489 0.135118,0.119622 0.202696,0.290154 0.202696,0.511668 0,0.221518 -0.06758,0.393188 -0.202696,0.515024 -0.135118,0.119622 -0.326777,0.17949 -0.574888,0.17949 h -0.707742 z m 9.636163,0 h 0.538343 c 0.268044,0 0.4597,0.04872 0.574888,0.146192 0.117392,0.09747 0.176126,0.259124 0.176126,0.48509 0,0.22817 -0.0587,0.392137 -0.176126,0.491822 -0.1152,0.09967 -0.306859,0.149555 -0.574888,0.149555 H 20.800076 Z M 7.9704029,11.8895 c -0.053783,2.6e-5 -0.1070739,0.0028 -0.1607053,0.0083 l 4.309e-4,2.55355 h 0.3241696 l -2.193e-4,-2.553665 c -0.055521,-0.0053 -0.1098707,-0.0079 -0.1636532,-0.0079 z m -0.3699018,0.03916 c -0.1419588,0.03515 -0.1875021,0.05042 -0.2632059,0.07733 l 2.154e-4,1.857846 h 0.2630925 z m 0.7424454,0 5.405e-4,3.815793 h 0.2730704 l -2.192e-4,-3.739772 c -0.075704,-0.02683 -0.1254045,-0.04286 -0.2734106,-0.07601 z"/></svg>