<svg viewBox="0 0 24 24" xmlns="http://www.w3.org/2000/svg"><path d="m 7.043451,15.988236 0.024,-0.0168 0.03,0.0084 0.07921,0.0348 0.0144,-0.08641 C 7.286218,15.212184 7.33153,14.490398 7.326671,13.768077 7.317111,12.982214 7.37412,12.196952 7.497084,11.42071 7.667496,10.511045 8.097126,8.8309251 8.773975,6.4247535 9.0796997,5.3485394 9.0904758,4.2099261 8.805175,3.1281185 8.743511,2.858419 8.646251,2.5981186 8.515954,2.3540633 8.499567,2.3304533 8.481093,2.3083633 8.460754,2.2880583 8.418754,2.2400543 8.340746,2.1680497 8.361144,2.116446 8.368344,2.091244 8.401944,2.063642 8.451154,2.03964 8.749005,1.9292808 9.0758069,1.9250421 9.37642,2.027639 c 0.555639,0.2088149 0.882063,1.1568825 0.944467,2.7409954 0.02768,0.9115606 -0.0096,1.823935 -0.111608,2.7301947 v 0.013201 c 0,0.6636473 -0.519637,1.4173011 -1.628516,2.370169 l -0.0132,0.0096 -0.006,0.015601 C 8.3603287,10.439183 8.2033833,10.986684 8.092329,11.544317 7.7889313,13.003806 7.6679968,14.495331 7.732303,15.984634 v 0.09241 l 0.09361,-0.0336 0.0648,-0.024 h 0.012 c 0.493453,0.09146 0.9789752,0.221465 1.452103,0.388828 0.0073,0.02967 0.00301,0.061 -0.012,0.08761 -0.0168,0.0396 -0.0408,0.0612 -0.0564,0.0636 -0.637245,0.09601 -1.218087,0.177613 -1.731723,0.250818 -0.667248,0.09361 -1.243289,0.175213 -1.687321,0.250818 -0.120008,0.0204 -0.200414,-0.13801 -0.216015,-0.212415 l -0.0072,-0.0228 0.182413,-0.106807 c 1.060875,-0.622845 1.060875,-0.622845 1.216886,-0.730852 m -0.878462,-2.94621 0.0192,-0.0156 v -0.0252 C 6.260855,12.61985 6.3189258,12.234965 6.358202,11.847941 6.410511,10.987663 6.6371134,10.14699 7.02425,9.376964 7.2665073,8.8964912 7.636473,8.4920617 8.093526,8.2080806 l 0.0504,-0.036002 C 7.822303,9.3601633 7.593086,10.278229 7.449076,10.945476 7.1597619,11.604468 6.9370393,12.290728 6.784229,12.994022 l -0.0276,0.120009 0.120008,-0.048 0.0348,-0.0144 h 0.0072 c 0.09403,0.01972 0.187655,0.04133 0.28082,0.0648 0,0.202814 -0.0096,0.404429 -0.0132,0.600043 l -0.57124,0.09121 C 6.036575,13.898894 5.53494,13.978096 5.152112,14.047701 5.059702,14.064501 4.992501,13.927693 4.9769,13.843687 v -0.024 l 0.153611,-0.09961 c 0.865262,-0.554439 0.916865,-0.588042 1.034474,-0.678048 m 1.952539,0.531638 -0.190814,0.0312 0.0252,-0.267619 c 0.074261,0.02679 0.147155,0.05723 0.218416,0.09121 0.00646,0.0327 0.00137,0.06664 -0.0144,0.09601 -0.00824,0.0195 -0.021485,0.03647 -0.0384,0.0492 m 5.86122,-7.3349278 c 0.30247,-0.068318 0.611576,-0.1029316 0.921665,-0.1032073 0.467931,-0.04669 0.936926,0.077806 1.320095,0.350425 2.397497,3.4870604 3.882847,7.5193731 4.320308,11.7284361 0.0672,0.874863 -0.612044,1.53491 -2.018544,1.95974 l -0.0684,0.0216 c -0.28082,0.08881 -3.109422,0.540038 -4.383913,-0.673248 l -0.0588,-0.0552 c -0.205273,-0.150291 -0.353717,-0.365556 -0.42123,-0.610844 -0.15962,-0.994871 -0.424839,-2.173355 -0.681658,-3.313436 l -0.204014,-0.914465 c -0.15038,-0.704571 -0.340294,-1.400121 -0.568841,-2.083349 -0.180013,-0.556839 -0.403228,-1.248089 -0.771655,-2.6653902 -0.08694,-0.3397591 -0.09433,-0.6949927 -0.0216,-1.038074 0.308227,-1.3007766 1.331965,-2.3114671 2.636588,-2.6029856 m -3.63266,1.2816894 c 0.0192,-0.1644117 0.543639,-4.6167291 -0.728452,-5.5131931 0.051217,-0.038874 0.1083499,-0.069264 0.169212,-0.090006 0.336111,-0.07281 0.676375,-0.1249119 1.018873,-0.1560111 0.0564,-0.063604 0.0528,-0.1344096 0.0624,-0.2544181 0.02314,-0.4547093 0.184784,-0.89146774 0.463237,-1.25168973 0.294115,-0.24853798 0.698305,-0.32169464 1.060876,-0.19201369 0.35469,0.15401588 0.624016,0.45580224 0.736852,0.82565887 0.07681,0.25081795 0.06601,0.51843705 0.240017,0.58924205 0.036,0.014401 0.0588,0.012001 0.220816,0 0.28682,-0.021602 0.429631,-0.032402 0.480034,-0.030002 0.154723,0.013902 0.300802,0.077469 0.41643,0.1812128 h 0.07441 c 0.04364,0.057541 0.0973,0.1067336 0.158411,0.1452103 0.0204,0.015601 0.042,0.030002 0.0516,0.039603 0.817792,1.150547 1.25962,2.5259162 1.26489,3.9374806 l -0.024,0.3060218 0.018,0.1332095 C 15.358731,5.9578551 14.633878,5.9286271 13.946344,6.1067308 13.278803,6.2664603 12.667568,6.6054824 12.178618,7.0872007 11.688486,7.5517696 11.353278,8.1559823 11.21855,8.8177241 11.164174,9.096879 11.155259,9.3829858 11.19215,9.6649845 10.912528,9.3169597 10.755317,8.8813286 10.334087,8.1828788 l -0.147611,0.018001 c 0.100565,-0.2126614 0.155351,-0.4440709 0.160811,-0.6792481 z m 0.912504,-4.5582469 c 0.104407,0.3852274 -0.0336,0.7500535 0.06961,1.1352809 0.110408,0.4104293 0.462033,0.8400599 0.572441,1.2528893 0.02813,0.1061228 0.131377,0.1742708 0.240012,0.1584113 l 2.825001,-0.406829 c 0.063,-0.00912 0.118765,-0.04557 0.152411,-0.099607 0.03118,-0.05504 0.03938,-0.1201642 0.0228,-0.1812129 C 15.007658,4.410688 15.083266,3.9618559 14.951254,3.5514267 14.842046,3.2154027 14.524024,2.9189816 14.416016,2.5829576 14.384776,2.4856676 14.289635,2.423577 14.188,2.434147 l -2.750597,0.2688192 c -0.06077,0.00567 -0.115808,0.038255 -0.15001,0.088806 -0.03331,0.050143 -0.04418,0.1119094 -0.03,0.1704122 z M 8.28194,2.2820581 c 0.025043,0.034199 0.051881,0.067048 0.0804,0.098407 0.015032,0.015159 0.028686,0.031625 0.0408,0.049204 0.1225143,0.2318597 0.2141015,0.4787813 0.27242,0.7344523 0.2782666,1.0587182 0.2674923,2.1726921 -0.0312,3.22583 C 8.4843487,6.9579919 8.3391383,7.4828294 8.208729,7.9644637 8.148722,8.0092667 8.087118,8.0532707 8.023916,8.0964731 7.8247792,8.2285429 7.638004,8.3783647 7.465876,8.544105 L 3.145568,8.8912526 C 2.1546978,9.0196 1.2469005,8.321707 1.116224,7.3311413 L 0.78766367,4.8524101 C 0.659964,3.8627953 1.3563137,2.9561485 2.3453796,2.8242651 M 20.145985,14.999365 c -0.05761,-0.240017 -0.119211,-0.480034 -0.184813,-0.720051 0.10138,-0.05759 0.199904,-0.120065 0.295221,-0.187213 l 0.024,-0.0168 0.07561,-0.024 -0.036,-0.07081 C 19.998375,13.339645 19.513541,12.385577 19.019105,11.414708 18.355063,9.6305803 17.451524,7.9450236 16.333314,6.404352 16.278254,6.335188 16.208585,6.279046 16.129299,6.2399403 16.146869,6.0802612 16.160869,5.92021 16.171299,5.7599061 16.188899,4.9065057 16.03124,4.0585669 15.708066,3.2685285 15.517921,2.704886 15.233903,2.1774243 14.868006,1.7084172 c -0.02117,-0.019622 -0.04406,-0.037295 -0.06841,-0.052804 -0.0516,-0.037203 -0.13801,-0.098407 -0.134409,-0.1452104 0.01107,-0.039587 0.03626,-0.073744 0.07081,-0.096007 0.265936,-0.1720248 0.582582,-0.2482231 0.897664,-0.2160154 0.588042,0.080406 1.116079,0.9324664 1.526509,2.4637756 0.229662,0.8858757 0.395696,1.7870369 0.496835,2.6965923 0.02615,0.1927309 0.02615,0.3881105 0,0.5808414 v 0.026402 l 0.0096,0.016801 0.308422,0.5304378 c 0.511237,0.8772627 1.038075,1.7833273 1.382499,2.4769767 0.338374,0.7107748 0.637642,1.4395138 0.896464,2.1829568 0.229244,0.650266 0.485078,1.290851 0.766855,1.920137 l 0.0264,0.0564 0.06,-0.0216 h 0.0096 c 0.493859,0.0914 0.979785,0.221404 1.453303,0.388828 0.0049,0.02987 2.97e-4,0.06052 -0.0132,0.08761 -0.0168,0.0384 -0.0408,0.0612 -0.0564,0.06361 -0.636045,0.09481 -1.216886,0.176412 -1.730523,0.249617 z M 17.906626,7.1316039 17.793818,6.93719 c 0.0251,-0.1992268 0.0251,-0.4008159 0,-0.6000427 0,-0.042003 -0.368427,-3.6002567 -1.454504,-4.8543462 L 21.04845,1.1227755 c 0.996067,-0.092452 1.878636,0.6397103 1.97174,1.6357166 l 0.199215,2.0965495 c 0.09325,0.9948089 -0.636327,1.8773847 -1.630917,1.9729406 z M 13.355901,18.257598 c 0.04001,0.213615 0.07601,0.420429 0.108008,0.620444 0.07033,0.27554 0.233507,0.518404 0.462033,0.687649 l 0.0588,0.0552 c 0.746917,0.578865 1.67026,0.883114 2.614987,0.861661 0.105607,0 0.210015,0.006 0.310822,0.006 0.536599,0.0084 1.072323,-0.04638 1.596118,-0.163207 l 0.06721,-0.0204 c 0.446129,-0.125241 0.871775,-0.314418 1.263689,-0.561642 0.555294,-0.307727 0.885802,-0.905811 0.850861,-1.539709 v -0.042 c 0.859141,0.384656 1.419803,1.229853 1.440103,2.170954 -0.012,2.025745 -2.218958,3.667462 -4.941953,3.667462 -2.722994,0 -4.927551,-1.641717 -4.927551,-3.667462 -0.02054,-0.835441 0.394956,-1.621421 1.096878,-2.07495 m 6.053232,-5.772412 c 0.290421,0.571241 0.555639,1.095678 0.760854,1.503707 -0.0684,0.0468 -0.109208,0.07441 -0.240017,0.157211 -0.156015,-0.548039 -0.329629,-1.101678 -0.520842,-1.660918 M 7.324271,11.639126 c -0.065315,0.446618 -0.1053815,0.896565 -0.120008,1.347696 -0.127209,-0.0312 -0.224416,-0.0528 -0.261619,-0.0612 0.1004211,-0.436326 0.227876,-0.865985 0.381627,-1.286491"/></svg>