<svg viewBox="0.0750002 0.5 23.85 22.9" xmlns="http://www.w3.org/2000/svg"><path d="m12 .5q-.3 0-.5.3c-.3.3-10.8 10.7-11.2 11.1-.3.3-.3.8 0 1.1.3.3.8.3 1.1 0l1.2-1.2v10.8c0 .5.4.8.8.8h17.2c.4 0 .8-.3.8-.8v-10.8l1.2 1.2c.3.3.8.3 1.1 0s.3-.8 0-1.1l-2.3-2.3v-5.2c0-.4-.4-.7-.8-.7h-3.1c-.5 0-.8.3-.8.7v.5l-4.1-4.1q-.3-.3-.6-.3zm0 1.9 7.8 7.8v11.6h-15.6v-11.6zm6.2 2.8h1.6v2.8l-1.6-1.6zm-6.2 2.6c-3.4 0-6.2 2.8-6.2 6.3 0 3.4 2.8 6.2 6.2 6.2s6.2-2.8 6.2-6.2c0-3.5-2.8-6.3-6.2-6.3zm0 1.6c1.6 0 3.1.8 3.9 2.1-.8-.1-1.5.2-2.1.7-.4-.4-1.1-.7-1.8-.7-.6 0-1-.5-1-1.1 0-.5.4-1 1-1zm-2.6.8c-.1.8.2 1.5.8 2.1-.5.4-.8 1.1-.8 1.8 0 .6-.5 1-1 1-.6 0-1.1-.4-1.1-1 0-1.6.9-3.1 2.1-3.9zm2.6 2.8c.6 0 1 .5 1 1.1s-.4 1-1 1-1-.4-1-1 .4-1.1 1-1.1zm3.6 0c.6 0 1.1.5 1.1 1.1 0 1.6-.8 3-2.1 3.9.1-.8-.2-1.5-.7-2.1.4-.5.7-1.1.7-1.8 0-.6.5-1.1 1-1.1zm-5.4 2.9c.5.5 1.1.8 1.8.8.6 0 1 .5 1 1 0 .6-.4 1.1-1 1.1-1.6 0-3.1-.9-3.9-2.1.8 0 1.5-.2 2.1-.8z"/></svg>