<svg viewBox="0 0 24 24" xmlns="http://www.w3.org/2000/svg"><path d="m3.3 19.2h6c0.7 0 1.1 0.6 1.1 1.2v1.5c0 0.6-0.4 1.2-1.1 1.2h-6c-0.6 0-1.2-0.6-1.2-1.2h0.1v-1.5c0-0.6 0.5-1.2 1.1-1.2zm0-4.5h6c0.7 0 1.1 0.4 1.1 1.1v1.6c0 0.6-0.4 1.2-1.1 1.2h-6c-0.6 0-1.2-0.6-1.2-1.2v-1.6c0-0.7 0.6-1.1 1.2-1.1zm-0.1-4.7h6c0.7 0 1.1 0.5 1.1 1.2v1.5c0 0.7-0.4 1.1-1.1 1.1h-6c-0.6 0-1.1-0.4-1.1-1.1v-1.5c0-0.7 0.5-1.2 1.1-1.2zm15-0.2c0.6 0 1.1 0.5 1.1 1l0.2 1.7c0 0.6-0.4 1.1-1.1 1.2l-5.3 0.5c-0.6 0-1.2-0.4-1.3-1l-0.1-1.7c-0.1-0.5 0.4-1.1 1.1-1.2l5.3-0.5q0.1 0 0.1 0zm-3-4.4h5.5c0.5 0 1.1 0.6 1.1 1.2v1.6c0 0.7-0.6 1.1-1.1 1.1h-5.5c-0.6 0-1.1-0.4-1.1-1.1v-1.6c0-0.6 0.5-1.2 1.1-1.2zm-12.1 0h4.3c0.5 0 1 0.5 1 1.1v1.8c0 0.6-0.5 1-1 1h-4.3c-0.6 0-1-0.4-1-1v-1.8c0-0.6 0.5-1.1 1-1.1zm0.1-4.5h6c0.7 0 1.1 0.6 1.1 1.2v1.5c0 0.6-0.4 1.2-1.1 1.2h-6c-0.6 0-1.1-0.6-1.1-1.2v-1.5c0-0.6 0.5-1.2 1.1-1.2zm9.7-0.1h6c0.7 0 1.2 0.6 1.2 1.2v1.6c0 0.6-0.5 1.1-1.2 1.1h-6c-0.6 0-1.1-0.5-1.1-1.1v-1.6c0-0.6 0.5-1.2 1.1-1.2z"/></svg>