<svg viewBox="0 0 24 24" xmlns="http://www.w3.org/2000/svg"><path d="m 13.69524,0 c -0.54873,0 -0.99048,0.44175 -0.99048,0.99048 v 4.8 h 2.58334 c 0.572,0 1.03571,0.45279 1.03571,1.01138 V 23.17909 24 h 3.73333 c 0.54873,0 0.99048,-0.44175 0.99048,-0.99048 V 0.99048 C 21.04762,0.44175 20.60587,0 20.05714,0 Z M 8.78095,5.98095 c -0.54702,0 -0.99047,0.44345 -0.99047,0.99048 v 4.83809 H 10.45 c 0.572,0 1.03571,0.45756 1.03571,1.02195 V 23.16853 24 h 3.65715 0.99047 V 23.00952 6.97143 c 0,-0.54703 -0.44345,-0.99048 -0.99047,-0.99048 z M 3.94286,12 C 3.39583,12 2.95238,12.44345 2.95238,12.99048 V 23.00952 C 2.95238,23.55655 3.39583,24 3.94286,24 h 6.3619 0.99048 V 23.00952 12.99048 C 11.29524,12.44345 10.85179,12 10.30476,12 Z"/></svg>