<svg viewBox="0 0 24 24" xmlns="http://www.w3.org/2000/svg"><path d="m 0,9.141453 v 5.717094 H 5.717094 V 9.141453 Z M 14.911064,9.85609 v 0.604021 h 0.642754 V 9.85609 Z m 2.808648,0 v 0.97774 h -1.32145 l -0.388724,0.383838 v 1.827767 l 0.388724,0.383839 h 1.575131 l 0.388723,-0.389073 V 9.85609 Z M 1.429274,10.570726 H 4.287821 V 12 H 2.858547 v 1.429274 H 1.429274 V 12 Z M 7.71375,10.83383 7.325027,11.217668 v 2.211606 H 7.946845 V 11.5045 c 0,-0.07672 0.05703,-0.132948 0.134692,-0.132948 H 8.879571 V 10.83383 Z m 1.917097,0 -0.388723,0.383838 v 1.827767 l 0.388723,0.383839 h 1.580366 l 0.450835,-0.445253 -0.404076,-0.389072 -0.248797,0.245656 c -0.0414,0.0409 -0.06747,0.05129 -0.108871,0.05129 h -0.90167 c -0.07766,0 -0.134693,-0.05643 -0.134693,-0.133296 v -0.394307 h 1.730761 v -1.14139 L 11.206328,10.83383 Z m 2.792945,0 -0.388723,0.383838 v 0.686024 c 0,0.169104 0.09851,0.301969 0.347199,0.343011 l 1.21258,0.209715 c 0.05182,0.0103 0.08305,0.0362 0.08305,0.09247 v 0.209715 c 0,0.07687 -0.05689,0.133296 -0.134692,0.133296 h -0.7928 c -0.04154,0 -0.06733,-0.01039 -0.108871,-0.05129 l -0.248797,-0.235537 -0.40931,0.378953 0.450835,0.445253 h 1.461027 l 0.388724,-0.383839 v -0.737318 c 0,-0.168963 -0.09837,-0.30197 -0.3472,-0.343011 l -1.212581,-0.20972 c -0.05182,-0.0103 -0.0827,-0.03606 -0.0827,-0.09247 V 11.5045 c 0,-0.07672 0.05689,-0.132948 0.134693,-0.132948 h 0.808502 c 0.0414,0 0.06712,0.01004 0.108522,0.05095 l 0.217741,0.215298 0.409311,-0.389072 -0.419779,-0.414894 z m 2.155426,0 v 0.537722 h 0.222975 c 0.0778,0 0.119339,0.04073 0.119339,0.117594 v 1.940128 h 0.621469 V 10.83383 Z m 4.637811,0 -0.388723,0.383838 v 1.827767 l 0.388723,0.383839 h 1.580366 l 0.450835,-0.445253 -0.404077,-0.389072 -0.248797,0.245656 c -0.0414,0.0409 -0.06747,0.05129 -0.108869,0.05129 h -0.901672 c -0.07766,0 -0.134691,-0.05643 -0.134691,-0.133296 v -0.394307 h 1.730761 v -1.14139 L 20.79251,10.83383 Z m 2.818767,0 -0.388723,0.383838 v 1.827767 l 0.388723,0.383839 h 1.575481 L 24,13.040201 V 11.222902 L 23.611277,10.83383 Z M 9.998634,11.371552 h 0.839558 c 0.07766,0 0.134693,0.05622 0.134693,0.132948 v 0.358365 H 9.863941 V 11.5045 c 0,-0.07672 0.05703,-0.132948 0.134693,-0.132948 z m 6.767414,0 h 0.839559 c 0.0778,0 0.134692,0.05622 0.134692,0.132948 v 1.254104 c 0,0.07687 -0.05689,0.133296 -0.134692,0.133296 h -0.839559 c -0.0778,0 -0.134692,-0.05643 -0.134692,-0.133296 V 11.5045 c 0,-0.07672 0.05689,-0.132948 0.134692,-0.132948 z m 2.818767,0 h 0.839559 c 0.07766,0 0.134693,0.05622 0.134693,0.132948 v 0.358365 H 19.450124 V 11.5045 c 0,-0.07672 0.05703,-0.132948 0.134691,-0.132948 z m 2.819117,0 h 0.839211 c 0.0778,0 0.134691,0.05622 0.134691,0.132948 v 1.254104 c 0,0.07687 -0.05689,0.133296 -0.134691,0.133296 h -0.839211 c -0.0778,0 -0.134693,-0.05643 -0.134693,-0.133296 V 11.5045 c 0,-0.07672 0.05689,-0.132948 0.134693,-0.132948 z"/></svg>