<svg viewBox="0 0 24 24" xmlns="http://www.w3.org/2000/svg"><path d="m 5.773,10.423 c -0.224,0 -0.374,-0.137 -0.374,-0.345 0,-0.172 0.121,-0.323 0.374,-0.323 0.243,0 0.363,0.157 0.363,0.329 0,0.212 -0.137,0.345 -0.363,0.345 m -2.151,2.939 c -0.484,0 -0.897,-0.273 -0.897,-0.792 0,-0.627 0.696,-0.764 1,-0.805 0.5,-0.063 0.546,-0.097 0.546,-0.23 0,-0.281 -0.05,-0.51 -0.402,-0.51 -0.237,0 -0.426,0.068 -0.607,0.176 l -0.094,0.063 c -0.031,0.024 -0.086,0.086 -0.149,0.086 -0.031,0 -0.094,-0.033 -0.094,-0.115 v -0.257 c 0,-0.053 0.024,-0.103 0.086,-0.14 0.235,-0.114 0.588,-0.178 0.902,-0.178 0.815,0 1.058,0.321 1.058,0.788 v 1.789 c 0,0.039 -0.024,0.067 -0.071,0.067 h -0.525 c -0.024,0 -0.055,-0.027 -0.055,-0.067 l -0.016,-0.149 c -0.18,0.16 -0.4,0.274 -0.666,0.274 m 0.651,-1.378 c -0.635,0 -0.878,0.286 -0.878,0.597 0,0.216 0.118,0.437 0.423,0.437 0.267,0 0.463,-0.201 0.463,-0.277 v -0.757 m 8.381,1.388 c -0.408,0 -0.713,-0.143 -0.917,-0.298 -0.086,-0.063 -0.102,-0.172 -0.102,-0.267 V 9.854 c 0,-0.041 0.031,-0.071 0.055,-0.071 h 0.557 c 0.039,0 0.071,0.03 0.071,0.071 v 1.143 c 0.11,-0.094 0.361,-0.293 0.753,-0.293 0.596,0 0.972,0.517 0.972,1.207 0,0.886 -0.612,1.474 -1.372,1.474 m -0.361,-0.517 c 0,0.055 0.014,0.11 0.078,0.149 0.055,0.039 0.141,0.063 0.314,0.063 0.366,0 0.626,-0.376 0.626,-1.019 0,-0.235 -0.055,-0.917 -0.578,-0.917 -0.212,0 -0.361,0.118 -0.447,0.18 v 1.568 -0.016 m 7.056,1.388 c -0.071,0 -0.141,0 -0.238,-0.024 -0.074,-0.016 -0.115,-0.063 -0.115,-0.118 V 13.792 c 0,-0.039 0.035,-0.078 0.075,-0.078 0.063,0 0.11,0.016 0.176,0.031 0.11,0.024 0.212,0.039 0.306,0.039 0.321,0 0.557,-0.165 0.565,-0.486 l -1.043,-2.415 c -0.024,-0.063 -0.031,-0.078 -0.031,-0.094 0,-0.039 0.024,-0.055 0.055,-0.055 h 0.627 c 0.047,0 0.071,0.016 0.086,0.063 l 0.627,1.646 0.604,-1.646 c 0.008,-0.039 0.039,-0.063 0.078,-0.063 h 0.259 c 0.024,0 0.047,0.024 0.047,0.055 0,0.024 -0.016,0.039 -0.024,0.071 l -1.051,2.713 c -0.147,0.376 -0.561,0.686 -1.004,0.686 M 1.043,13.39 c -0.32,0 -0.652,-0.071 -0.947,-0.212 -0.057,-0.039 -0.068,-0.063 -0.068,-0.118 v -0.288 c 0,-0.053 0.018,-0.104 0.115,-0.104 0.052,0 0.086,0.027 0.16,0.081 0.296,0.206 0.577,0.29 0.815,0.29 0.401,0 0.674,-0.243 0.674,-0.544 C 1.795,11.709 -0,11.949 -0,10.789 -0,10.252 0.414,9.782 1.178,9.782 c 0.38,0 0.725,0.073 0.92,0.149 0.052,0.024 0.063,0.05 0.063,0.103 v 0.333 c 0,0.051 -0.016,0.091 -0.078,0.091 -0.051,0 -0.092,-0.031 -0.155,-0.078 -0.23,-0.165 -0.449,-0.267 -0.737,-0.267 -0.321,0 -0.574,0.172 -0.574,0.439 0,0.659 1.821,0.588 1.821,1.646 0,0.8 -0.666,1.176 -1.396,1.176 m 5.01,-0.078 h -0.557 c -0.031,0 -0.063,-0.031 -0.063,-0.071 v -2.431 c 0,-0.039 0.031,-0.071 0.055,-0.071 h 0.549 c 0.039,0 0.071,0.031 0.071,0.071 v 2.447 c 0,0.042 -0.031,0.068 -0.071,0.068 m 9.456,0.055 c -0.572,0 -1.145,-0.235 -1.145,-0.886 V 10.805 c 0,-0.039 0.024,-0.071 0.055,-0.071 h 0.557 c 0.039,0 0.071,0.031 0.071,0.071 v 1.811 c 0,0.27 0.172,0.437 0.463,0.437 0.353,0 0.47,-0.199 0.47,-0.572 v -1.683 c 0,-0.039 0.024,-0.071 0.055,-0.071 h 0.549 c 0.039,0 0.071,0.031 0.071,0.071 v 1.615 c 0,0.713 -0.58,0.953 -1.153,0.953 m -6.594,-0.049 h -0.557 c -0.031,0 -0.055,-0.03 -0.055,-0.071 v -1.725 c 0,-0.196 -0.031,-0.427 -0.408,-0.427 -0.196,0 -0.431,0.114 -0.541,0.176 v 1.976 c 0,0.039 -0.024,0.071 -0.071,0.071 h -0.549 c -0.026,0 -0.055,-0.031 -0.055,-0.071 v -2.446 c 0,-0.042 0.031,-0.071 0.075,-0.071 h 0.549 c 0.039,0 0.072,0.028 0.072,0.071 v 0.131 c 0.157,-0.105 0.51,-0.259 0.831,-0.259 0.557,0 0.8,0.321 0.8,0.792 v 1.782 c 0,0.039 -0.024,0.071 -0.071,0.071 m 1.364,0.063 c -0.274,0 -0.561,-0.067 -0.784,-0.167 -0.066,-0.034 -0.082,-0.084 -0.082,-0.147 v -0.226 c 0,-0.081 0.039,-0.104 0.094,-0.104 0.039,0 0.078,0.018 0.11,0.047 0.235,0.178 0.51,0.264 0.729,0.264 0.259,0 0.447,-0.11 0.447,-0.321 0,-0.494 -1.443,-0.306 -1.443,-1.22 0,-0.56 0.478,-0.813 1.019,-0.813 0.243,0 0.494,0.05 0.729,0.147 0.071,0.029 0.086,0.086 0.086,0.149 v 0.191 c 0,0.08 -0.031,0.103 -0.086,0.103 -0.024,0 -0.071,-0.024 -0.11,-0.047 -0.204,-0.141 -0.478,-0.22 -0.713,-0.22 -0.235,0 -0.423,0.086 -0.423,0.274 0,0.455 1.474,0.243 1.474,1.153 0,0.69 -0.502,0.925 -1.027,0.925 m 7.488,-0.071 h -0.549 c -0.027,0 -0.055,-0.031 -0.055,-0.071 v -2.431 c 0,-0.039 0.027,-0.071 0.055,-0.071 h 0.533 c 0.043,0 0.071,0.031 0.071,0.071 l 0.012,0.306 c 0.003,0 0.004,0 0.005,-0.008 0.11,-0.165 0.368,-0.423 0.686,-0.423 0.076,0 0.141,0 0.251,0.024 0.078,0.016 0.118,0.063 0.118,0.118 v 0.361 c 0,0.039 -0.036,0.078 -0.078,0.078 -0.063,0 -0.118,-0.024 -0.192,-0.047 -0.074,-0.016 -0.161,-0.024 -0.247,-0.024 -0.267,0 -0.533,0.102 -0.533,0.47 v 1.552 c 0,0.039 -0.027,0.071 -0.067,0.071 m 3.959,-2.603 c -0.133,0.039 0.133,-0.282 0.09,-0.455 -0.047,-0.165 -0.238,-0.392 -0.102,-0.444 0.133,-0.053 0.384,-0.052 0.455,0.039 0.157,0.301 -0.055,0.796 -0.445,0.855 z m 1.221,2.706 c -0.279,0 -0.563,-0.067 -0.784,-0.168 -0.067,-0.031 -0.084,-0.082 -0.084,-0.146 v -0.224 c 0,-0.081 0.035,-0.104 0.092,-0.104 0.042,0 0.078,0.024 0.11,0.047 0.233,0.18 0.506,0.267 0.729,0.267 h 0.003 c 0.252,0 0.447,-0.11 0.447,-0.321 0,-0.494 -1.45,-0.306 -1.45,-1.215 0,-0.557 0.478,-0.808 1.019,-0.808 0.243,0 0.499,0.047 0.729,0.149 0.071,0.031 0.086,0.086 0.086,0.149 v 0.196 c 0,0.078 -0.034,0.102 -0.094,0.102 -0.026,0 -0.073,-0.024 -0.107,-0.047 -0.204,-0.141 -0.481,-0.22 -0.712,-0.22 -0.235,0 -0.423,0.086 -0.423,0.274 0,0.455 1.466,0.251 1.466,1.16 0,0.69 -0.502,0.933 -1.029,0.933"/></svg>