<svg viewBox="0 0 24 24" xmlns="http://www.w3.org/2000/svg"><path d="m 4.371,9.575 c -1.821,0.051 -1.711,1.973 -1.254,2.67 0.837,1.272 2.064,1.14 2.064,1.14 v 0 l 0.344,-1.132 c 0,0 -0.219,0.061 -0.515,-0.007 -0.871,-0.202 -0.906,-0.714 -0.906,-0.98 0,-0.265 0.171,-0.511 0.547,-0.511 0.375,0 0.81,-0.004 0.81,-0.004 L 5.228,9.582 c 0,0 -0.385,-0.007 -0.856,-0.007 z m 16.341,0.005 0.758,1.815 -1.8,1.984 h 0.828 l 1.245,-1.322 0.585,1.322 H 23.08 L 22.252,11.499 24,9.58 h -0.793 l -1.25,1.287 -0.521,-1.287 z m -11.144,0 0.005,3.798 h 2.753 l 0.359,-1.144 h -1.689 v -0.185 h 1.015 l 0.354,-1.125 h -1.352 v -0.211 h 1.583 L 12.287,9.58 Z M 0.62,9.581 C 0.516,9.582 0.288,9.617 0.138,9.868 c -0.217,0.363 0.055,0.884 0.055,0.884 l 0.749,1.211 c 0,0 0.077,0.096 0.018,0.196 -0.054,0.092 -0.159,0.082 -0.159,0.082 H 0 l 0.218,1.138 h 1.777 c 0,0 0.421,0.051 0.626,-0.383 C 2.809,12.598 2.544,12.242 2.544,12.242 L 1.795,10.854 c 0,0 -0.023,-0.046 0,-0.077 0.021,-0.028 0.059,-0.023 0.059,-0.023 H 2.628 L 2.409,9.584 H 0.676 c 0,0 -0.021,-0.003 -0.056,-0.003 z M 15.717,9.586 H 14.542 L 14.183,11.278 13.858,9.586 H 12.55 l 0.932,3.798 h 1.33 l 0.298,-1.47 0.259,1.233 0.541,-2.239 z m 0.717,0 -0.11,0.542 h 2.4 l 0.154,-0.542 z m 3.101,0 -0.977,3.798 h 0.734 l 0.96,-3.798 z M 5.885,9.588 5.67,10.755 c 0,0 1.566,-0.007 1.77,-0.001 0.204,0.005 0.439,0.014 0.436,0.332 -0.003,0.271 -0.596,0.594 -0.596,0.594 0,0 -0.092,0.673 0.746,1.707 0.324,0.399 0.709,0.753 1.06,1.038 l 1.308,-0.594 C 9.988,13.661 9.474,13.403 9.162,13.088 8.589,12.507 8.526,12.056 8.526,12.056 c 0,0 0.912,-0.704 0.702,-1.544 C 8.993,9.567 8.401,9.599 7.49,9.599 Z m 10.4,0.722 -0.177,0.663 h 1.137 l 0.21,-0.663 z M 5.849,10.882 v 2.499 h 1.319 v -2.499 z m 10.215,0.334 -0.127,0.52 h 2.201 l 0.161,-0.52 z m -0.149,0.746 -0.337,1.415 h 1.164 l 0.325,-1.415 z m -5.521,1.868 z"/></svg>