<svg viewBox="0 0 24 24" xmlns="http://www.w3.org/2000/svg"><path d="M 16.84838,2.3075175e-4 C 16.7362,-0.00176924 16.62169,0.00923076 16.50651,0.03423076 L 4.22496,2.7411307 c -1.24543,0.27356 -2.1309,1.37493 -2.1309,2.64917 V 20.99072 c 0,1.10866 0.82785,2.0373 1.92211,2.16688 l 6.44318,0.84234 c 0.008,-0.008 0.0163,-0.016 0.0245,-0.024 l -0.0236,0.0238 9.64379,-2.51407 1.8019,-9.04051 -10e-5,10e-5 -0.10077,-9.2218493 c -0.006,-0.81889 -0.67403,-1.45037 -1.45336,-1.46041 -0.11133,-0.001 -0.22497,0.01 -0.33925,0.035 l -1.61544,0.35299 c 0.005,0.63714 0.009,1.2743 0.0107,1.91146 0.0117,3.97483 -0.0333,7.9496793 -0.0102,11.9244993 l -0.0983,0.0993 c -0.0302,-4.8633 0.0449,-9.7275393 -0.007,-14.5906793 C 18.30482,0.66408076 17.63396,0.01452076 16.84873,1.5075175e-4 Z M 11.51939,4.9746807 c 0.78332,0.0175 1.63777,0.1538 2.36667,0.54525 l -0.0864,4.44187 h -0.46798 c 0,0 -1.10145,-1.43268 -1.91494,-1.82143 -0.51833,-0.24476 -1.28866,-0.33833 -1.89338,-0.036 -0.89269,0.44634 -0.98626,1.69896 -0.16557,2.1956893 0.19437,0.12239 0.4536,0.22322 0.79195,0.30241 1.81417,0.41755 4.80893,1.28146 4.44178,4.7586 0,0 -0.20872,3.26116 -3.64266,3.63551 -0.60473,0.0648 -1.2167,0.0216 -1.80702,-0.11518 C 8.32834,18.70142 6.88851,18.3343 6.183,17.89515 L 6.05341,14.17319 h 0.34564 c 0,0 0.68386,1.65578 2.6276,2.45488 0.35996,0.14398 0.75595,0.20159 1.1375,0.144 0.48234,-0.072 1.05104,-0.33114 1.28141,-1.11584 0,0 0.38879,-1.14463 -1.62695,-1.77095 C 8.20602,13.38135 6.68698,12.86295 6.06067,11.16397 5.76551,10.35768 5.71509,9.4650107 5.91667,8.6083207 c 0.26636,-1.11585 1.02947,-2.68521 3.18919,-3.36192 0,0 1.10795,-0.30093 2.41349,-0.27175 z M 21.7445,12.74888 20.019,21.40546 c -3.07806,0.80243 -6.15616,1.60486 -9.23422,2.40729 3.65321,-3.68796 7.3065,-7.37591 10.95972,-11.06387 z"/></svg>