<svg viewBox="0 0 24 24" xmlns="http://www.w3.org/2000/svg"><path d="M 3.58717,23.96285 C 1.85643,23.73782 0.54156,22.56031 0.0931,20.83394 0.0062,20.49941 0,19.90761 0,11.99648 V 3.51749 L 0.11816,3.07938 C 0.5234,1.57715 1.59513,0.51748 3.11431,0.11684 L 3.55738,0 h 8.44245 c 7.75197,0 8.47093,0.007 8.79024,0.0887 1.35794,0.34625 2.37313,1.17922 2.87401,2.35808 0.35948,0.84604 0.33559,0.16617 0.33559,9.54937 v 8.479 l -0.11817,0.4381 c -0.4027,1.49268 -1.4575,2.54762 -2.96137,2.96154 l -0.42476,0.11689 -8.2828,0.008 c -4.55564,0.004 -8.43686,-0.0124 -8.62499,-0.0368 z m 8.6855,-8.1889 c 1.05887,-0.26521 1.75525,-0.92221 1.93301,-1.8237 0.1864,-0.94524 -0.28397,-1.88006 -1.14419,-2.27407 C 12.88628,11.59598 12.2292,11.39574 11.60135,11.23139 10.08101,10.8333 9.79744,10.68338 9.71192,10.23266 9.62662,9.7832 9.90473,9.36128 10.37866,9.22086 c 0.26842,-0.0795 1.01097,-0.0859 1.26693,-0.0108 0.38236,0.11212 0.64971,0.31684 0.78292,0.59979 0.0701,0.14882 0.12768,0.32212 0.12798,0.38501 10e-4,0.23268 0.12437,0.27938 0.73752,0.27938 0.76167,0 0.7932,-0.0226 0.7033,-0.50496 -0.23002,-1.23427 -1.35382,-2.01505 -2.9004,-2.01505 -1.2505,0 -2.24342,0.5027 -2.66143,1.34749 -0.12518,0.25298 -0.15304,0.38511 -0.16952,0.8033 -0.0243,0.61965 0.091,0.97002 0.44862,1.36338 0.34102,0.37505 0.8059,0.58219 2.01044,0.89581 1.57063,0.40894 1.73415,0.47475 1.9531,0.78611 0.11592,0.16485 0.12406,0.73146 0.0136,0.94282 -0.21365,0.40849 -0.7096,0.60874 -1.48861,0.601 -0.61224,-0.006 -1.02338,-0.13052 -1.34015,-0.40553 -0.21294,-0.18486 -0.43727,-0.61422 -0.43804,-0.83845 -10e-4,-0.3288 -0.0476,-0.35092 -0.73924,-0.35092 -0.778,0 -0.78054,0.002 -0.6969,0.53529 0.23323,1.48625 1.57821,2.36647 3.45325,2.25999 0.24823,-0.0141 0.622,-0.0684 0.83062,-0.12061 z M 4.8212,15.63896 C 5.59182,15.46691 6.31506,14.97798 6.71842,14.35647 7.47816,13.18575 7.55463,11.15316 6.88972,9.8017 6.61754,9.24851 6.0922,8.72308 5.5485,8.46034 4.91049,8.15195 4.56697,8.11173 2.57234,8.11173 c -1.67151,0 -1.74798,0.004 -1.8006,0.10156 -0.076,0.14047 -0.076,7.26886 0,7.40963 0.0527,0.0973 0.12975,0.10156 1.86116,0.10156 1.47524,0 1.87621,-0.0157 2.18836,-0.0854 z M 2.20345,11.91805 V 9.3193 h 0.83978 c 0.97176,0 1.3498,0.0563 1.75942,0.26234 0.78684,0.39562 1.07579,1.02321 1.07579,2.33641 0,1.03769 -0.16413,1.59475 -0.59545,2.02129 -0.46016,0.45499 -0.91869,0.57751 -2.16156,0.57751 H 2.2034 Z m 14.40973,3.72317 c 0.0178,-0.0457 0.0339,-1.26826 0.0359,-2.7169 0.002,-1.70983 0.0213,-2.59704 0.0541,-2.52887 0.0278,0.0578 0.47556,1.27449 0.9949,2.70383 l 0.94436,2.59875 0.56541,0.0148 c 0.53886,0.0142 0.56907,0.009 0.64279,-0.10497 0.0426,-0.066 0.48817,-1.25388 0.99028,-2.63988 0.5021,-1.386 0.93353,-2.55551 0.95875,-2.59875 0.0262,-0.0451 0.0469,1.05579 0.0483,2.57251 0.001,1.45819 0.0219,2.6816 0.0457,2.71865 0.0322,0.0501 0.20552,0.0635 0.67615,0.0525 l 0.63293,-0.0149 V 8.13803 l -0.90262,-0.013 c -0.49646,-0.007 -0.93429,0.007 -0.97298,0.0318 -0.0387,0.0246 -0.5046,1.29445 -1.03538,2.82177 -0.53078,1.52733 -0.9859,2.77698 -1.01163,2.77698 -0.0256,0 -0.48812,-1.2403 -1.0277,-2.75627 C 17.71287,9.48335 17.24661,8.21299 17.21636,8.17623 17.17476,8.12573 16.9334,8.11293 16.22644,8.12373 l -0.93496,0.0143 -0.0137,3.72754 c -0.008,2.05015 -0.002,3.75711 0.0116,3.79316 0.0183,0.0475 0.20089,0.0656 0.6585,0.0656 0.52834,0 0.63847,-0.0137 0.66537,-0.083 z"/></svg>