<svg viewBox="0 0 24 24" xmlns="http://www.w3.org/2000/svg"><path d="m 2.4899753,9.5206715 a 2.4793513,2.4793513 0 1 0 0,4.9586575 H 21.52076 c 1.36931,0 2.479247,-1.110101 2.479247,-2.47941 0,-1.369228 -1.109937,-2.4792475 -2.479247,-2.4792475 z m 0,0.5800625 H 21.52076 c 1.048739,0 1.898856,0.850199 1.898856,1.899022 0,1.048739 -0.850117,1.898863 -1.898856,1.898863 H 2.4899753 c -1.0480774,-0.0016 -1.89729117,-0.850621 -1.89869717,-1.8987 l 1.587e-4,1.62e-4 c 9.411e-4,-1.048245 0.85029477,-1.897856 1.89853847,-1.899347 z m 1.8482895,0.807081 a 0.94491661,0.94491661 0 0 0 -0.6854129,0.333982 c -0.1638046,0.196478 -0.2455935,0.462723 -0.2455935,0.798679 8.315e-4,0.334719 0.08262,0.601575 0.2455935,0.800619 a 0.93325198,0.93325198 0 0 0 0.6854129,0.332042 v -0.18517 c -0.04766,-8.25e-4 -0.091805,-0.02578 -0.1171275,-0.06625 -0.026835,-0.07082 -0.037795,-0.146717 -0.032126,-0.222331 v -6.45e-4 -1.317183 a 0.51340853,0.51340853 0 0 1 0.032126,-0.221684 0.14113358,0.14113358 0 0 1 0.1171275,-0.06673 z m 2.1709553,0 A 0.94491661,0.94491661 0 0 0 5.823807,11.241797 c -0.1638046,0.196478 -0.2457447,0.462723 -0.2457447,0.798679 8.315e-4,0.334719 0.082809,0.601575 0.2457447,0.800619 a 0.93325198,0.93325198 0 0 0 0.6854131,0.332042 v -0.18517 c -0.04766,-8.25e-4 -0.091805,-0.02578 -0.1171275,-0.06625 -0.026835,-0.07082 -0.037946,-0.146717 -0.032126,-0.222331 v -6.45e-4 -1.317183 a 0.51332583,0.51332583 0 0 1 0.032126,-0.221684 0.14113358,0.14113358 0 0 1 0.1171275,-0.06673 z m 13.0241329,0 a 0.94491661,0.94491661 0 0 0 -0.685413,0.333982 c -0.163805,0.196478 -0.245745,0.462723 -0.245745,0.798679 8.32e-4,0.334719 0.08277,0.601575 0.245745,0.800619 a 0.93325198,0.93325198 0 0 0 0.685413,0.332042 v -0.185329 a 0.14063721,0.14063721 0 0 1 -0.117127,-0.06608 0.51216764,0.51216764 0 0 1 -0.03213,-0.22233 v -6.5e-4 -1.317183 a 0.51142307,0.51142307 0 0 1 0.03213,-0.221684 0.14063721,0.14063721 0 0 1 0.117127,-0.06673 z m -9.114759,0.0011 a 0.70616426,0.70616426 0 0 0 -0.5260983,0.206013 0.72312344,0.72312344 0 0 0 -0.2027715,0.53046 0.622361,0.622361 0 0 0 0.13474,0.40879 c 0.091918,0.109614 0.2639248,0.220827 0.5159168,0.333335 l 0.02079,0.0087 c 0.255723,0.117222 0.383584,0.233836 0.383584,0.349656 0.0038,0.06031 -0.02079,0.119123 -0.06625,0.15883 a 0.35523304,0.35523304 0 0 1 -0.203414,0.06302 v 0.209726 l 9.71e-4,0.0024 a 0.86806251,0.86806251 0 0 0 0.603492,-0.204068 0.75596637,0.75596637 0 0 0 0.08323,-0.984494 1.1422224,1.1422224 0 0 0 -0.475041,-0.314914 l -0.04539,-0.01825 C 10.375202,11.550976 10.24163,11.442081 10.24163,11.331805 A 0.2248541,0.2248541 0 0 1 10.29704,11.18073 0.25198878,0.25198878 0 0 1 10.443269,11.098 v -0.189044 z m -5.9875834,0.0013 v 0.18565 a 0.14237451,0.14237451 0 0 1 0.1171274,0.06286 0.51473219,0.51473219 0 0 1 0.032126,0.223461 v 1.316536 0.0052 c 0.00605,0.07595 -0.00529,0.152319 -0.032126,0.223465 -0.026079,0.03913 -0.069997,0.06277 -0.1171274,0.06302 v 0.185167 a 0.95964217,0.95964217 0 0 0 0.6860555,-0.333981 c 0.1633889,-0.196479 0.244951,-0.462723 0.244951,-0.79868 0,-0.334302 -0.081562,-0.600465 -0.244951,-0.798679 A 0.94748117,0.94748117 0 0 0 4.4310106,10.910238 Z m 2.1709552,0 v 0.18565 a 0.14171268,0.14171268 0 0 1 0.1171275,0.06286 0.51663492,0.51663492 0 0 1 0.032126,0.223461 v 1.316536 0.0052 c 0.00605,0.07595 -0.00491,0.152319 -0.032126,0.223465 -0.026079,0.03913 -0.069997,0.06277 -0.1171275,0.06302 v 0.185167 a 0.95964217,0.95964217 0 0 0 0.6858968,-0.333981 c 0.1633889,-0.196479 0.2451022,-0.462723 0.2451022,-0.79868 0,-0.334302 -0.081713,-0.600465 -0.2451022,-0.798679 A 0.94748117,0.94748117 0 0 0 6.6019658,10.910238 Z m 13.0241332,0 v 0.18565 a 0.14237451,0.14237451 0 0 1 0.117128,0.06286 0.51721402,0.51721402 0 0 1 0.03213,0.223461 v 1.316536 0.0052 c 0.006,0.07595 -0.0049,0.152319 -0.03213,0.223465 -0.02608,0.03913 -0.07,0.0626 -0.117128,0.06285 v 0.18533 a 0.96046943,0.96046943 0 0 0 0.686543,-0.333981 c 0.163389,-0.196479 0.245102,-0.462723 0.245102,-0.79868 4.16e-4,-0.334302 -0.0813,-0.600465 -0.245102,-0.798679 -0.172081,-0.202436 -0.420986,-0.323634 -0.686543,-0.333982 z m -8.507068,1.63e-4 c -0.0032,-1.6e-5 -0.0064,1.31e-4 -0.0098,4.85e-4 a 0.10580882,0.10580882 0 0 0 -0.08273,0.04605 0.09927334,0.09927334 0 0 1 -0.07189,0.04653 c -0.0019,0 -0.04842,-0.01519 -0.139767,-0.0454 -0.08893,-0.03005 -0.181908,-0.04593 -0.275792,-0.04718 v 0.179675 a 0.55063602,0.55063602 0 0 1 0.255761,0.125869 0.6130955,0.6130955 0 0 1 0.168831,0.241236 1.1921899,1.1921899 0 0 1 0.03024,0.09565 c 0.02495,0.08695 0.06232,0.130393 0.111987,0.130393 a 0.08190049,0.08190049 0 0 0 0.07253,-0.0302 c 0.01739,-0.03575 0.02495,-0.0755 0.02154,-0.115207 v -0.511567 c 0.003,-0.03167 -0.0042,-0.06349 -0.02003,-0.09097 -0.01625,-0.01621 -0.03825,-0.02525 -0.06093,-0.02536 z m -0.5799,0.180159 a 0.55063602,0.55063602 0 0 0 -6.46e-4,-1.63e-4 l 6.46e-4,0.0039 z M 7.8286635,10.946594 c -0.026079,0.0015 -0.051402,0.0084 -0.074646,0.02052 a 0.07999776,0.07999776 0 0 0 -0.02948,0.07061 c 0,0.04244 0.026079,0.07507 0.07869,0.09824 l 0.026835,0.01194 a 0.10324426,0.10324426 0 0 1 0.047357,0.04136 c 0.010583,0.03035 0.014362,0.06251 0.012094,0.09452 v 1.512044 a 0.23825599,0.23825599 0 0 1 -0.012094,0.09452 c -0.010961,0.01837 -0.02759,0.03284 -0.047357,0.04136 l -0.026835,0.01194 c -0.044825,0.0133 -0.076498,0.05343 -0.07869,0.100176 a 0.078095,0.078095 0 0 0 0.02948,0.06867 0.18456565,0.18456565 0 0 0 0.1008377,0.02018 l -1.625e-4,-0.0019 h 0.764749 v -1.846945 a 0.23751142,0.23751142 0 0 1 0.012094,-0.09452 0.10390609,0.10390609 0 0 1 0.047168,-0.04136 l 0.026835,-0.01194 c 0.052535,-0.02358 0.078841,-0.0563 0.078841,-0.09824 a 0.07941866,0.07941866 0 0 0 -0.02948,-0.07061 C 8.7235302,10.951069 8.6884184,10.944115 8.65342,10.94695 H 7.8547422 c -0.00869,-7.45e-4 -0.017386,-8.19e-4 -0.026079,-3.25e-4 z m 6.2666295,1.62e-4 -0.05348,0.182582 0.304252,1.232193 h -0.340119 l -0.06301,0.225562 h 0.455005 l -0.0045,0.0023 0.05299,0.210372 a 0.1909357,0.1909357 0 0 1 0.0068,0.03522 0.16371824,0.16371824 0 0 1 0,0.02018 c -0.0038,0.03806 -0.02797,0.07106 -0.06316,0.08629 -0.03553,0.0158 -0.05968,0.04999 -0.06285,0.08887 a 0.08504415,0.08504415 0 0 0 0.03844,0.07933 0.27300165,0.27300165 0 0 0 0.133455,0.02343 h 0.703188 a 0.3226383,0.3226383 0 0 0 0.141203,-0.02018 0.07875683,0.07875683 0 0 0 0.03515,-0.07497 c 0,-0.03955 -0.02797,-0.07235 -0.08322,-0.0984 -0.05545,-0.02608 -0.08304,-0.05414 -0.08304,-0.08435 -0.0011,-0.0088 -0.0032,-0.01723 -0.0057,-0.0257 l -0.01057,-0.0378 -0.449185,-1.844896 z m 3.35516,0.0013 a 0.18903297,0.18903297 0 0 0 -0.0748,0.02037 0.07933593,0.07933593 0 0 0 -0.02948,0.07061 0.10895247,0.10895247 0 0 0 0.07869,0.09824 l 0.02684,0.01213 a 0.10456789,0.10456789 0 0 1 0.04736,0.04136 c 0.01058,0.03035 0.01436,0.06235 0.01209,0.09436 v 1.511882 c 0.0024,0.03201 -0.0016,0.06417 -0.01209,0.09452 -0.01096,0.01837 -0.02759,0.03277 -0.04736,0.04136 l -0.02684,0.01194 a 0.10961431,0.10961431 0 0 0 -0.07869,0.100177 0.0774332,0.0774332 0 0 0 0.02948,0.06867 0.18464838,0.18464838 0 0 0 0.100838,0.02083 h 0.799324 a 0.18903297,0.18903297 0 0 0 0.102614,-0.02151 0.07627501,0.07627501 0 0 0 0.03137,-0.06802 c 0,-0.04153 -0.03024,-0.07971 -0.08871,-0.104538 -0.01323,-0.0051 -0.02608,-0.01122 -0.03848,-0.01825 a 0.08190049,0.08190049 0 0 1 -0.03326,-0.03651 c -0.0076,-0.02699 -0.01058,-0.05517 -0.0091,-0.08321 v -1.515593 a 0.23809052,0.23809052 0 0 1 0.01209,-0.09452 c 0.01134,-0.01818 0.02759,-0.03265 0.04717,-0.04136 l 0.03099,-0.01391 c 0.05284,-0.02207 0.07933,-0.05492 0.07933,-0.09711 0.0024,-0.02721 -0.0094,-0.05358 -0.03137,-0.0698 -0.03137,-0.01671 -0.06705,-0.024 -0.102614,-0.02151 l -3.21e-4,-3.22e-4 H 17.4762 a 0.18903297,0.18903297 0 0 0 -0.02608,-3.25e-4 z m -16.0845726,3.25e-4 -0.0021,3.22e-4 h 0.0021 z m 0,3.22e-4 v 0.603495 a 0.24057235,0.24057235 0 0 0 0.024567,0.131036 0.09447512,0.09447512 0 0 0 0.082734,0.03473 c 0.064705,0 0.1046172,-0.04908 0.1197353,-0.14736 0.00372,-0.02895 0.010583,-0.05176 0.010583,-0.06689 0.01663,-0.08066 0.044976,-0.158585 0.083868,-0.231216 A 0.27300165,0.27300165 0 0 1 1.8044952,11.15405 v -0.205368 z m 1.8267955,-3.22e-4 v 6.48e-4 h 9.713e-4 z m 0,6.48e-4 H 2.7527014 v 0.205364 a 0.26960979,0.26960979 0 0 1 0.1186015,0.118435 0.8355505,0.8355505 0 0 1 0.082734,0.229928 0.7232889,0.7232889 0 0 1 0.012094,0.06867 c 0.014362,0.09828 0.053518,0.14736 0.1177699,0.14736 0.02948,0.0011 0.05828,-0.01066 0.07869,-0.03216 0.020787,-0.02283 0.03137,-0.05283 0.030236,-0.0837 z m 8.3406401,-6.48e-4 -0.0015,3.22e-4 h 0.0015 z m 0,3.22e-4 v 0.603495 a 0.24057235,0.24057235 0 0 0 0.02495,0.131036 0.09447512,0.09447512 0 0 0 0.08273,0.03473 c 0.06471,0 0.104617,-0.04908 0.119736,-0.14736 0.0045,-0.02895 0.01058,-0.05176 0.01058,-0.06689 0.01701,-0.08066 0.04531,-0.158584 0.08436,-0.231216 a 0.27217435,0.27217435 0 0 1 0.117127,-0.118437 v -0.205369 z m 1.826958,-3.22e-4 v 6.48e-4 h 0.0016 z m 0,6.48e-4 h -0.439328 v 0.205364 a 0.27027162,0.27027162 0 0 1 0.118601,0.118435 0.82727769,0.82727769 0 0 1 0.08175,0.229928 0.65106755,0.65106755 0 0 1 0.01209,0.06867 c 0.01436,0.09828 0.05352,0.14736 0.11777,0.14736 0.02948,9.94e-4 0.05828,-0.01066 0.07869,-0.03216 0.02079,-0.02283 0.03175,-0.05283 0.03024,-0.0837 z m 1.968985,-6.48e-4 -0.0021,3.22e-4 h 0.0021 z m 0,3.22e-4 v 0.603495 a 0.24057235,0.24057235 0 0 0 0.02494,0.131036 0.09447512,0.09447512 0 0 0 0.08273,0.03473 c 0.06471,0 0.10458,-0.04924 0.119735,-0.147522 0.0045,-0.02895 0.01058,-0.0516 0.01058,-0.06673 0.01663,-0.08066 0.04483,-0.158585 0.08368,-0.231217 A 0.27217435,0.27217435 0 0 1 15.7681,11.154051 v -0.205369 z m 1.826962,-3.22e-4 v 6.48e-4 h 0.0011 z m 0,6.48e-4 h -0.439812 v 0.205364 a 0.26969253,0.26969253 0 0 1 0.118413,0.118435 0.83455777,0.83455777 0 0 1 0.08322,0.229928 c 0.0037,0.01637 0.0076,0.0389 0.01209,0.06851 0.01436,0.09828 0.05352,0.147522 0.117807,0.147522 a 0.10332699,0.10332699 0 0 0 0.07805,-0.03216 0.11581889,0.11581889 0 0 0 0.03024,-0.0837 z m 3.632589,-4.85e-4 a 0.15875459,0.15875459 0 0 0 -0.07208,0.02003 0.07304861,0.07304861 0 0 0 -0.02684,0.06286 c 0,0.04136 0.03137,0.07171 0.09388,0.09097 a 0.22609499,0.22609499 0 0 1 0.136063,0.101473 l 1.1081,1.909365 h 0.451611 l 3.22e-4,-4.85e-4 V 12.403216 L 21.637561,10.949019 H 20.80786 a 0.15875459,0.15875459 0 0 0 -0.0189,-4.85e-4 z m -18.8612847,1.6e-4 v 1.860408 c 0.00266,0.02797 -0.00169,0.05613 -0.012472,0.08192 a 0.11912798,0.11912798 0 0 1 -0.054765,0.03522 l -0.020787,0.0076 c -0.070148,0.02729 -0.1051842,0.06427 -0.1051842,0.110842 a 0.07246952,0.07246952 0 0 0 0.032126,0.06802 0.26522524,0.26522524 0 0 0 0.1223054,0.01875 h 0.8125751 c 0.041461,0.0033 0.083112,-0.003 0.1216629,-0.01875 a 0.07180772,0.07180772 0 0 0 0.032126,-0.06738 c 0.00116,-0.02275 -0.00605,-0.04523 -0.020031,-0.06302 -0.022299,-0.0206 -0.049323,-0.03538 -0.07869,-0.04282 h -0.00454 c -0.060094,-0.02302 -0.090142,-0.05888 -0.090142,-0.10761 v -1.88287 l -6.463e-4,-3.25e-4 z m 10.1688907,0 v 1.860408 c 0.0028,0.02797 -0.0016,0.05613 -0.01247,0.08192 -0.01474,0.01663 -0.03364,0.02884 -0.05476,0.03522 l -0.02079,0.0076 c -0.07015,0.02729 -0.105185,0.06426 -0.105185,0.11084 a 0.07180772,0.07180772 0 0 0 0.03213,0.06802 0.26530798,0.26530798 0 0 0 0.122154,0.0189 h 0.812575 c 0.04146,0.0033 0.08319,-0.0032 0.121663,-0.0189 a 0.07180772,0.07180772 0 0 0 0.03213,-0.06738 c 0.0012,-0.02275 -0.006,-0.04513 -0.02003,-0.06302 -0.0223,-0.02052 -0.04947,-0.0353 -0.07884,-0.04282 h -0.0045 c -0.06006,-0.02302 -0.08999,-0.05889 -0.08999,-0.107611 V 10.949026 10.9487 Z m 3.795297,0 v 1.860566 c 0.0027,0.02797 -0.0017,0.05593 -0.01247,0.08176 -0.01474,0.01663 -0.03364,0.02899 -0.05477,0.03538 l -0.02079,0.0075 c -0.06973,0.02729 -0.104693,0.06427 -0.104693,0.110843 a 0.07180772,0.07180772 0 0 0 0.03213,0.06802 0.26472888,0.26472888 0 0 0 0.121663,0.0189 h 0.812575 c 0.04146,0.0032 0.08319,-0.0032 0.121663,-0.0189 a 0.07180772,0.07180772 0 0 0 0.03213,-0.06754 c 0.0012,-0.02275 -0.006,-0.04506 -0.02003,-0.06285 -0.0223,-0.02052 -0.04932,-0.03545 -0.07869,-0.04298 h -0.0045 c -0.06005,-0.02302 -0.09014,-0.05873 -0.09014,-0.107454 V 10.949025 10.9487 Z m 6.270508,0 c -0.02986,-1.31e-4 -0.05885,0.0081 -0.08417,0.02392 a 0.09100056,0.09100056 0 0 0 -0.03024,0.07611 c 0,0.0359 0.02532,0.06811 0.07563,0.09581 a 0.48809384,0.48809384 0 0 1 0.103899,0.07045 0.21972494,0.21972494 0 0 1 0.05737,0.101473 0.88187803,0.88187803 0 0 1 0.01663,0.206011 v 0.405397 l 0.177751,0.302313 6.46e-4,3.22e-4 v -0.707398 a 0.88750351,0.88750351 0 0 1 0.01663,-0.211664 0.22683956,0.22683956 0 0 1 0.05412,-0.09646 0.48809384,0.48809384 0 0 1 0.105827,-0.07045 c 0.0517,-0.0277 0.07756,-0.05966 0.07756,-0.09581 0.0024,-0.02872 -0.0091,-0.05677 -0.03099,-0.07562 -0.02986,-0.01844 -0.06463,-0.02672 -0.09936,-0.02392 h -0.428341 c -0.0042,-3.63e-4 -0.0087,-4.66e-4 -0.01285,-4.85e-4 z m -8.169368,0.352079 -0.372283,1.385852 c -0.01361,0.05311 -0.03477,0.104081 -0.06285,0.151238 a 0.24628056,0.24628056 0 0 1 -0.08629,0.08273 c -0.01776,0.0084 -0.0359,0.01531 -0.05476,0.02067 -0.06263,0.01996 -0.09388,0.05313 -0.09388,0.09937 a 0.078095,0.078095 0 0 0 0.03213,0.0711 0.22990048,0.22990048 0 0 0 0.115351,0.02018 h 0.377613 a 0.22336496,0.22336496 0 0 0 0.116674,-0.02328 0.07933593,0.07933593 0 0 0 0.03666,-0.07126 c -0.0023,-0.0465 -0.03402,-0.08639 -0.07869,-0.09921 -0.01625,-0.0069 -0.02986,-0.01383 -0.04105,-0.01954 -0.02608,-0.01217 -0.04777,-0.0316 -0.06285,-0.05607 -0.0155,-0.02604 -0.02381,-0.05593 -0.02268,-0.08629 9.4e-5,-0.01501 0.0014,-0.02993 0.0038,-0.04476 0.0026,-0.01621 0.0064,-0.03209 0.01134,-0.04783 l 0.272921,-1.008087 -6.47e-4,-0.0039 z m 6.949779,0.131198 1.63e-4,3.25e-4 v -3.25e-4 z m 1.63e-4,3.25e-4 v 1.125388 c 0.0029,0.07131 -0.0024,0.142806 -0.0155,0.212961 a 0.21509219,0.21509219 0 0 1 -0.05541,0.0963 0.48503292,0.48503292 0 0 1 -0.105827,0.07061 c -0.05121,0.0277 -0.07676,0.05967 -0.07676,0.09582 a 0.08884964,0.08884964 0 0 0 0.03137,0.07562 0.16388371,0.16388371 0 0 0 0.09823,0.02392 h 0.425272 c 0.03477,0.003 0.06958,-0.0055 0.09921,-0.02392 0.02192,-0.01886 0.03326,-0.04691 0.03099,-0.07562 0,-0.03625 -0.02532,-0.06827 -0.07563,-0.09582 -0.0378,-0.01893 -0.07287,-0.04272 -0.104542,-0.07061 -0.02646,-0.02706 -0.04558,-0.06007 -0.05609,-0.0963 a 0.50381213,0.50381213 0 0 1 -0.01851,-0.144937 V 11.735092 Z M 9.7855313,12.310795 c -0.026457,5.97e-4 -0.051099,0.01349 -0.066746,0.03522 a 0.25827609,0.25827609 0 0 0 -0.022299,0.12587 v 0.572143 a 0.14890999,0.14890999 0 0 0 0.027213,0.09581 0.09100056,0.09100056 0 0 0 0.075628,0.03394 0.09703968,0.09703968 0 0 0 0.07869,-0.04476 c 0.015496,-0.02589 0.04252,-0.04257 0.072567,-0.04476 0.054123,0.01077 0.1071877,0.02529 0.1593077,0.04346 a 0.96559855,0.96559855 0 0 0 0.271596,0.04476 v -0.200038 c -0.09887,-0.02547 -0.189733,-0.07566 -0.26385,-0.145905 A 0.68664048,0.68664048 0 0 1 9.9420037,12.562533 c -0.01285,-0.03575 -0.024189,-0.072 -0.03326,-0.108903 -0.024189,-0.09488 -0.061682,-0.142348 -0.1121385,-0.142348 -0.00378,-4.26e-4 -0.00756,-5.73e-4 -0.011339,-4.85e-4 z m 0.5960617,0.661661 c 3.36e-4,8.4e-5 6.31e-4,2.34e-4 9.67e-4,3.22e-4 l -9.67e-4,-6.48e-4 z M 9.2759153,12.363469 a 0.07999776,0.07999776 0 0 0 -0.010583,3.22e-4 c -0.039043,0 -0.074419,0.04505 -0.1021227,0.136047 -0.015874,0.0565 -0.035527,0.111765 -0.059301,0.165457 a 0.47047283,0.47047283 0 0 1 -0.1593064,0.188881 0.45500274,0.45500274 0 0 1 -0.2325164,0.07497 v 0.200519 h 0.6534194 v -0.517696 a 0.59150357,0.59150357 0 0 0 -0.021543,-0.204877 0.07999776,0.07999776 0 0 0 -0.068183,-0.04363 z m -0.5637425,0.766202 h -1.626e-4 l 1.626e-4,0.0011 z"/></svg>