<svg viewBox="0 0 300 315" xmlns="http://www.w3.org/2000/svg"><path d="M241.65 54.65c-.35.4-.65 15-.65 32.45 0 20.1-.35 32-1 32.4-3.6 2.2-.95 6.5 4 6.5 5.65 0 7.1-3.2 3-6.75-1.9-1.65-2-2.95-2-33.45 0-31.85-.25-34.2-3.35-31.15zm-187.7 32.1c0 26.35-.25 32.1-1.5 33.7C49.5 124.4 50.5 126 56 126c5.35 0 7.1-3 3.5-6-1.3-1.05-1.5-6-1.5-33.1 0-31.25-.05-31.9-2-31.9s-2 .7-2.05 31.75zm94.05.15c0 27.4-.2 31.95-1.5 32.45-4.3 1.65-1.7 6.65 3.5 6.65 5.45 0 7-2.85 3.5-6.35-1.25-1.3-1.5-6.35-1.5-33.1 0-30.9-.05-31.55-2-31.55s-2 .65-2 31.9zM41.25 131.55c-2.45 1.7-3.8 5.95-4.75 14.95-.35 3.3-.9 6.8-1.15 7.75-.45 1.65 1 1.75 21.1 1.75C73 156 78 155.7 78 154.75c-.05-9.1-3.85-22.05-6.95-23.75-3.2-1.7-27.2-1.3-29.8.55zm93.5-.5c-2 1.2-4.35 8.95-5.25 17.55-.85 7.7-1.85 7.35 22.85 7.4h18.9l-.7-5.75c-2.25-19.95-2.55-20.25-20.5-20.2-7.45 0-14.35.45-15.3 1zm92.8 1.45c-2.2 2.4-4.55 12.7-4.55 19.9 0 3.3 1.7 3.55 23.35 3.6h18.9l-.7-5.75C262.3 130.45 261.8 130 243.3 130c-13.05 0-13.45.05-15.75 2.5zm-193.9 28.75c-14.15 22.95-18.9 32.45-21.25 42.5-1.75 7.45-1.35 10.3 1.1 7.9 4.85-4.85 51-6.2 73.9-2.15 9.1 1.6 12.15 3.45 6.05 3.6-2.15.1-3.1.35-2.1.6 1.05.3 3.9.2 6.4-.2l4.5-.65-.55-5.7c-.85-8.65-3.55-15.65-10.55-27.15-3.55-5.75-7.75-12.85-9.35-15.75L78.85 159h-21.9c-21.65 0-21.9.05-23.3 2.25zm94-.75c-.35.85-3.7 6.35-7.5 12.25-11.3 17.65-14.65 25.75-15.25 36.9-.2 3.8.05 4.75 1.2 4.45 24.15-7.2 56.85-8.4 81.9-3 2.75.6 4.75 1.5 4.45 1.95-.3.5.2.65 1.1.3 4.55-1.75-1.05-20.85-10.7-36.35-3.6-5.8-7.55-12.2-8.75-14.25l-2.25-3.75h-21.8c-18.6 0-21.9.2-22.4 1.5zm93.35-.2c0 .7-2.6 5.3-5.8 10.25-11.55 17.95-16.2 28.75-16.2 37.7 0 5.7.1 5.8 6.45 3.7 18.05-5.95 79-5.7 82.75.35 1.65 2.65 1.85-2.55.35-8.35-2.6-10.15-5.7-16.8-14.6-31.2l-8.45-13.65-22.25-.05C225.8 159 221 159.3 221 160.3zM38.55 212.9c-1.75 2.8 12.2 12.1 18.2 12.1 7 0 20.05-9.65 16.25-12.05-1.9-1.15-33.7-1.25-34.45-.05zm189.7-.25c-5.85 2.4 7.5 13.35 16.25 13.35 6.2 0 18.1-9.55 16.05-12.9-.65-1.1-29.65-1.5-32.3-.45zM132.7 215c2.05 7.75 16.55 13.5 24.15 9.6 2.55-1.35 11.15-9.9 11.15-11.1 0-.25-8.05-.5-17.9-.5-17.4 0-17.9.05-17.4 2z"/></svg>