<svg viewBox="0 0 24 24" xmlns="http://www.w3.org/2000/svg"><path d="M19.33 4.37c-.03.03-.05 1.2-.05 2.6 0 1.6-.03 2.56-.08 2.59-.29.18-.08.52.32.52.45 0 .57-.26.24-.54-.15-.13-.16-.24-.16-2.68 0-2.55-.02-2.74-.27-2.49zm-15.02 2.57c0 2.11-.02 2.57-.12 2.7-.1.09-.08.17.48.17.43 0 .57-.24.28-.48-.1-.08-.12-.48-.12-2.65 0-2.5-.004-2.55-.16-2.55s-.16.06-.16 2.54zm7.52.01c0 2.19-.02 2.56-.12 2.6-.34.13-.14.53.28.53.44 0 .56-.23.28-.51-.1-.1-.12-.51-.12-2.65 0-2.47-.004-2.52-.16-2.52s-.16.05-.16 2.55zM3.3 10.52c-.2.14-.3.48-.38 1.2-.03.26-.07.54-.09.62-.04.13.08.14 1.69.14 1.32 0 1.64-.02 1.64-.1-.004-.73-.31-1.76-.56-1.9-.25-.14-2.18-.1-2.38.04zm7.48-.04c-.16.1-.35.72-.42 1.4-.07.62-.15.59 1.83.59h1.51l-.06-.46c-.18-1.6-.2-1.62-1.64-1.62-.6 0-1.15.04-1.22.08zm7.42.12c-.18.19-.36 1.02-.36 1.59 0 .26.14.28 1.87.29h1.51l-.06-.46c-.2-1.95-.19-2-1.74-2-1.04 0-1.25.01-1.22.58zm-15.51 2.3c-1.13 1.84-1.51 2.6-1.7 3.4-.14.6-.11.82.09.63.39-.39 4.08-.5 5.91-.17.73.13.97.28.48.29-.17.01-.25.03-.17.05.08.02.31.01.51-.01l.36-.05-.04-.46c-.07-.69-.28-1.25-.84-2.17-.29-.46-.62-1.03-.75-1.26l-1.6-2.52H5.7c-1.73 0-1.75.04-1.86.18zm7.52-.06c-.03.07-.3.51-.6.98-.9 1.41-1.17 2.06-1.22 2.95-.02.3.004.38.1.36 1.93-.58 4.55-.67 6.55-.24.22.05.38.1.36.16-.02.04.01.05.09.03.36-.14-.08-1.67-.86-2.91-.29-.46-.6-.98-.7-1.14l-.18-.3H12.3c-1.49 0-1.75.02-1.79.12zm7.47-.02c0 .06-.21.42-.46.82-.92 1.44-1.3 2.3-1.3 3.02 0 .46.01.46.52.3 1.44-.48 6.32-.46 6.62.03.13.21.15-.2.03-.67-.21-.81-.46-1.34-1.17-2.5l-.68-1.09-1.78-.04c-1.49 0-1.75 0-1.78.13zM3.08 17.03c-.14.22.98.97 1.46.97.56 0 1.6-.77 1.3-.96-.15-.09-2.7-.1-2.76 0zm15.18-.02c-.47.19.6 1.07 1.3 1.07.5 0 1.45-.76 1.28-1.03-.05-.09-2.37-.12-2.58-.04zM10.62 17.2c.16.62 1.32 1.08 1.93.77.2-.11.89-.79.89-.89 0-.02-.64-.04-1.43-.04-1.39 0-1.43 0-.39.16z"/></svg>