<svg viewBox="0 0 874 916" xmlns="http://www.w3.org/2000/svg"><path d="M703 251.8v93.9l-2.4 1.1c-4.1 1.8-5.5 5.1-5.7 13.2l-.2 7.5 15.5.3 15.5.2.5-5.1c.9-9.4-1.5-14.8-7.7-17.5-2.3-.9-3-1.9-3.1-4.1-.1-1.5-.2-43.4-.3-93.1L715 158h-12v93.8zM157 252.5c0 93.2 0 93.4-2.1 94.5-3.9 2.1-5.9 7-5.9 14.3v6.8l15.3-.3 15.2-.3-.1-6.6c-.1-7.4-2.3-11.8-7.5-14.4l-2.9-1.6V159h-12v93.5zM430.8 210.2c-.3 63.8-.3 72.6-.6 107l-.2 27.7-3 1.6c-5 2.6-6.8 8.1-6.2 18.7l.2 2.8h32.3l-.6-7.5c-.8-9.3-2.6-13.1-6.7-14l-3-.7V159h-12l-.2 51.2zM134.2 377c-15.4 2.4-22.3 9.9-25.6 28-.9 4.7-2.5 15.9-3.6 25s-2.2 18-2.5 19.7l-.6 3.3h126.4l-.7-4.8c-.3-2.6-1.8-13-3.1-23.2-1.4-10.1-3.3-21.6-4.2-25.4-2.8-11.4-9-18.8-18.2-21.7-4.4-1.4-60.1-2.1-67.9-.9zM405.6 377c-16 1.6-22.6 10.4-26 35-1.6 11.4-4.6 37-4.6 39.5 0 1.3 6.7 1.5 62.1 1.5h62.2l-.7-4.8c-.4-2.6-1.8-14.2-3.1-25.7-3.3-27.3-5.8-35-13.4-40.4-7.1-5.1-9.7-5.5-40.1-5.7-15.7-.1-32 .2-36.4.6zM678.4 377c-10.6 1.2-18.1 7.3-22.8 18.4-1.2 3-7.6 50-7.6 56.3 0 1.1 11 1.3 62.6 1.3h62.7l-.6-4.8c-.4-2.6-1.8-13.9-3.2-25.2-3-23.6-4.3-29-8.5-34.8-7.6-10.5-14.8-12.2-50.5-12-14.3 0-28.8.4-32.1.8zM372.4 463.8c-1.9 6-5.7 12.4-20.5 34.8-29.5 44.8-38.6 63.3-44.5 91.3-1.4 6.4-2.8 16.6-3.1 22.7l-.6 11.1 4.4 1.7c5.9 2.4 23.4 4.6 34.9 4.4 5.2-.1 7.5-.3 5-.5-23.3-1.7-39-3.8-39-5.3 0-2.1 23.7-8.8 45.1-12.9 25.5-4.8 45.2-6.3 84.9-6.5 47.1-.1 69.5 1.6 98.5 7.4 12.1 2.5 24.5 6 24.5 7 0 2.2-25.3 5.2-58 6.8l-16.5.9 16.6.1c17.7.2 43.2-1.9 53.9-4.4 3.6-.9 7.5-1.7 8.8-1.8 1.2-.2 2.5-.5 2.8-.9.9-.9-1.4-19.7-4.1-32.7-4.7-23.3-14.3-45.4-29.6-68.1-12.6-18.9-22.9-35.5-28.4-46.1-4.8-9.2-5.1-9.6-8.8-10.2-2.2-.4-31.3-.6-64.9-.6-56.3.1-60.9.2-61.4 1.8zM641.6 470.5c-2.1 4.6-8.5 15.5-14.3 24.2-24.6 36.9-35.3 56.7-42.1 78.3-3.5 11.1-4.9 18.6-6.2 33-1.1 12.5-.3 15 5 16.2 16.6 3.4 56.1 7.8 71 7.8h8.8l4.8 5.7c8.7 10.5 17.5 17.2 27.5 20.9 6.3 2.4 19.9 2.3 26.9 0 10.2-3.5 20.9-11.6 28.9-22 3.7-4.8 4.5-5.3 8.3-5.4 7-.3 69.7-8.2 77.2-9.7 3.8-.8 7.3-1.8 7.7-2.2 1.1-1.1-2.5-20.8-5.6-31.8-8.8-30.2-15.9-44.5-42-84-7.3-11-15.6-24.4-18.5-29.8l-5.2-9.7H645.4l-3.8 8.5zM779.7 605c8.7.6 20.1 1.8 25.3 2.6 10.2 1.7 32.5 7 34.9 8.4 2.1 1.2-5.2 2.4-37.4 6.5-36.7 4.5-44.5 5.3-44.5 4.3 0-.5 1.1-2.6 2.5-4.6 1.4-2 2.5-4 2.5-4.4 0-1-90.1-1.1-98.8-.2l-6.1.7 2.5 4.8c1.3 2.7 2.4 5.1 2.4 5.5 0 1.5-29.8-.9-58.5-4.7-16.8-2.2-19.9-2.8-19.3-3.5.6-.5 22.4-6.7 29.3-8.3 11.6-2.6 46.6-6.3 81-8.5 9.9-.6 67.2.3 84.2 1.4zM96 471.2c-3.6 7.2-15.1 26.5-23 38.8-12.8 19.8-25.3 43.8-30.8 59-3.8 10.4-8.9 32.1-9.8 41.5l-.6 7 4.3 1.3c13.6 3.9 64 11.2 78 11.2 5.5 0 5.7.1 12.5 6.5 9.1 8.6 16.1 13.3 24.7 16.3 6.2 2.1 8.4 2.4 17.6 2 9.5-.3 11.3-.7 17.5-3.7 4.9-2.4 9.1-5.5 14.6-11.1 4.3-4.3 8.1-8.7 8.4-9.8.4-1 1.6-2.4 2.9-2.9 1.2-.6 12.3-1.6 24.7-2.2 12.4-.7 31-2.1 41.5-3.2 10.4-1 19.4-1.9 19.9-1.9 1.5 0-.2-18.8-2.8-30-6.6-28.7-14.4-44.8-41.8-86.9-7.7-11.7-16-25.6-18.5-30.7l-4.6-9.4H100.2l-4.2 8.2zM184.1 604c49.4 1.5 68.8 3.6 91.9 10.2 4.1 1.2 7.8 2.4 8.3 2.8.8.7-39.9 5.7-53.8 6.5-4.9.3-10.7.8-12.7 1-4.1.5-4.6-.1-2.3-3.1 3.4-4.5 4.5-4.4-52.4-4.4-29.7 0-54.2.4-54.5.8-.3.5 1.5 2.8 3.9 5.2 2.5 2.4 4.5 4.8 4.5 5.3 0 2-59.6-5.4-75.7-9.5-2.4-.6-4.3-1.6-4.3-2.3 0-2.8 20.6-9.3 39-12.4 7.5-1.2 69.3-1.3 108.1-.1z M394 617.9c-10.4.7-10.7.9-7.4 7.3.8 1.5 1.4 3.2 1.4 3.7 0 .7-5.9 1.2-15.7 1.4l-15.8.3 16.5.2 16.6.2 3.8 5c2.1 2.7 6.6 7.2 10 9.9 12 9.6 21.5 12.6 36.4 11.9 8.2-.4 9.9-.8 17.8-4.7 6.4-3.2 10.5-6.1 15.3-11 6.6-6.5 18.8-22.8 17.8-23.7-.7-.8-86.2-1.2-96.7-.5z"/></svg>