<svg viewBox="0 0 24 24" xmlns="http://www.w3.org/2000/svg"><path d="M 21.674821,2.7371389e-7 V 1.486183 h 1.486182 V 2.7371389e-7 Z M 0.0878845,0.17578537 V 11.346126 c 0,1.090932 0.096096,2.386734 0.3142823,3.395848 0.1227299,0.572739 0.2985149,1.129818 0.5167015,1.675284 l 0.026635,0.08257 0.029298,0.06925 0.026635,0.0799 c 0.027274,0.05455 0.041975,0.09726 0.069249,0.151814 0.04091,0.109093 0.081287,0.202526 0.135834,0.311619 0.068183,0.150003 0.1368992,0.287116 0.2050825,0.423483 l 0.2450336,0.450116 c 0.3545532,0.61365 0.763866,1.214728 1.241149,1.77383 0.1363666,0.163641 0.2708156,0.326747 0.4208188,0.476751 0.1227299,0.136365 0.2471644,0.257817 0.383531,0.394184 l 0.053268,0.05593 c 1.909132,1.840949 4.3924954,2.984938 6.9834608,3.244036 0.150003,0.01364 0.380762,0.04261 0.612584,0.04261 0.24546,0.02727 0.478242,0.02663 0.641881,0.02663 0.313644,0 0.940823,-0.04197 1.254466,-0.06925 2.590966,-0.272734 5.071665,-1.416722 6.980798,-3.244036 l 0.450114,-0.450115 c 0.122731,-0.136367 0.231503,-0.273798 0.354235,-0.410165 l 0.05594,-0.06659 c 0.477283,-0.559102 0.886595,-1.146544 1.241147,-1.77383 0.02727,-0.04091 0.05263,-0.09493 0.0799,-0.135834 0.01364,-0.02728 0.05594,-0.09588 0.05594,-0.09588 l 0.03996,-0.08256 c 0.02727,-0.04091 0.06925,-0.135833 0.06925,-0.135833 l 0.06659,-0.135835 c 0.16364,-0.313643 0.30043,-0.641882 0.436797,-0.982798 0.218187,-0.545466 0.396636,-1.102546 0.519367,-1.675284 0.218187,-1.009114 0.314282,-2.304916 0.314282,-3.395848 V 10.403279 H 20.937069 V 7.4309137 h -2.972366 v 2.9856823 h -0.02663 v 0.151814 0.314283 0.572633 c 0,0.354553 -0.01502,0.695149 -0.05594,1.036066 -0.09546,0.913656 -0.299048,1.785869 -0.721784,2.522249 -0.05455,0.08182 -0.0946,0.163214 -0.14915,0.245034 -0.08182,0.12273 -0.149578,0.244821 -0.245035,0.367551 -0.900019,1.200025 -2.264216,2.101004 -3.955162,2.346464 -0.20455,0.02727 -0.613117,0.05327 -0.817667,0.05327 -0.20455,0 -0.61578,-0.026 -0.82033,-0.05327 C 9.4684137,17.713593 8.1205153,16.826251 7.2204958,15.626226 7.0704926,15.435313 6.9463777,15.231827 6.8236477,15.013641 6.4009114,14.277261 6.1973204,13.418685 6.1018637,12.491392 6.0609537,12.150475 6.032615,11.809879 6.032615,11.455326 V 10.991892 10.595044 0.17578537 Z M 20.937055,7.4309137 h 2.97503 V 4.4585483 h -2.97503 z m 0,-2.9723654 V 2.2212842 h -2.2346 v 2.2372641 z"/></svg>