<svg viewBox="0 0 24 24" xmlns="http://www.w3.org/2000/svg"><path d="m 15.098607,8.313357 c -0.491553,0 -0.89286,0.4135956 -0.89286,0.8928595 0,0.4833602 0.401307,0.8808585 0.89286,0.8808585 0.491552,0 0.880859,-0.3893057 0.880859,-0.8808585 0,-0.4915528 -0.389307,-0.8928595 -0.880859,-0.8928595 z m 8.020535,0 c -0.491553,0 -0.89286,0.4135956 -0.89286,0.8928595 0,0.4833602 0.401307,0.8808585 0.89286,0.8808585 C 23.610694,10.087075 24,9.6977693 24,9.2062165 24,8.7146637 23.610694,8.313357 23.119142,8.313357 Z M 6.484432,8.4773679 v 0.4464298 h 0.44643 V 8.4773679 Z M 0,8.5301719 v 3.3554241 c 0,0.327701 0.02887,0.716943 0.09441,1.020068 0.03687,0.172043 0.08967,0.339382 0.155211,0.503233 l 0.008,0.0248 0.0088,0.0208 0.008,0.024 c 0.0082,0.01639 0.01261,0.02922 0.0208,0.0456 0.01229,0.03277 0.02442,0.06084 0.0408,0.09361 0.02048,0.04506 0.04112,0.08625 0.0616,0.127209 l 0.07361,0.135209 c 0.106503,0.184332 0.229455,0.364888 0.372824,0.532835 0.04096,0.04916 0.08135,0.09815 0.126409,0.14321 0.03687,0.04096 0.07424,0.07744 0.115208,0.118408 l 0.016,0.0168 c 0.573478,0.552996 1.319448,0.896636 2.097739,0.974465 0.04506,0.0041 0.114376,0.0128 0.184013,0.0128 0.07373,0.0082 0.143657,0.008 0.192813,0.008 0.09421,0 0.28261,-0.01261 0.376825,-0.0208 0.778292,-0.08193 1.523461,-0.425564 2.09694,-0.974465 l 0.135209,-0.135209 c 0.03687,-0.04096 0.06954,-0.08225 0.106406,-0.123209 l 0.0168,-0.02 c 0.143369,-0.167947 0.266321,-0.344407 0.372825,-0.532835 0.0082,-0.01229 0.01581,-0.02851 0.024,-0.0408 0.0041,-0.0082 0.0168,-0.0288 0.0168,-0.0288 l 0.012,-0.0248 c 0.0082,-0.01229 0.0208,-0.0408 0.0208,-0.0408 l 0.02,-0.0408 c 0.04915,-0.09421 0.09025,-0.192813 0.131208,-0.29522 0.06554,-0.163851 0.119145,-0.33119 0.156011,-0.503233 0.06554,-0.303125 0.09441,-0.692367 0.09441,-1.020068 v -0.283228 h -0.89366 v -0.892859 h -0.89286 v 0.89686 h -0.008 v 0.0456 0.09441 0.172011 c 0,0.106503 -0.0045,0.208814 -0.0168,0.311221 -0.02867,0.27445 -0.08983,0.536451 -0.216814,0.75765 -0.01638,0.02458 -0.02842,0.04903 -0.0448,0.07361 -0.02458,0.03687 -0.04493,0.07354 -0.07361,0.110407 -0.270354,0.360472 -0.680141,0.631114 -1.188079,0.704847 -0.06144,0.0082 -0.184172,0.016 -0.245616,0.016 -0.06144,0 -0.184973,-0.0078 -0.246417,-0.016 C 2.817781,13.798297 2.41289,13.531752 2.142536,13.17128 2.097476,13.11393 2.060196,13.052808 2.023328,12.987267 1.896344,12.766069 1.835188,12.508164 1.806514,12.229618 1.794224,12.127211 1.785714,12.0249 1.785714,11.918397 V 11.779188 11.65998 8.5301715 Z m 6.262818,2.1793451 h 0.89366 V 9.8166572 h -0.89366 z m 0,-0.8928594 V 9.1446124 H 5.591573 V 9.8166572 Z M 17.150744,8.5301715 v 7.0988735 h 1.540102 v -2.682579 h 2.372158 v -1.34409 H 18.690846 V 9.8742611 h 2.818588 V 8.5301715 h -0.004 z m -5.84679,2.0153345 c -0.918287,0.03443 -1.378492,0.60644 -1.378492,0.60644 V 10.705517 H 8.454964 v 4.915528 h 1.527302 v -2.883393 -0.135209 c 0,-0.04506 0.0047,-0.09015 0.0088,-0.135209 0.01229,-0.118792 0.04035,-0.233808 0.09361,-0.328022 0.0082,-0.01639 0.01661,-0.02842 0.0248,-0.0448 0.0041,-0.0082 0.0079,-0.01261 0.012,-0.0208 0.0041,-0.0041 0.0087,-0.01191 0.0128,-0.016 0.114696,-0.155658 0.290835,-0.27045 0.512034,-0.30322 0.0082,-0.0041 0.02442,-0.004 0.0408,-0.004 h 0.0616 0.0488 0.0168 c 0.01229,0.0041 0.02861,0.004 0.0368,0.004 0.221198,0.03277 0.397338,0.147562 0.512034,0.30322 0.01638,0.02458 0.02842,0.04903 0.0448,0.0736 v 0.008 c 0.05735,0.09831 0.08212,0.20923 0.09441,0.328022 0.0082,0.04506 0.008,0.09015 0.008,0.135209 v 0.135209 2.891393 h 1.528101 0.008 v -3.337823 c 0,-0.983105 -0.614057,-1.704753 -1.552104,-1.745716 -0.06528,-0.0028 -0.129193,-0.0023 -0.190412,0 z m 3.016201,0.168011 v 4.915528 h 1.540903 v -4.915528 z m 8.024535,0 v 4.915528 h 1.540903 v -4.915528 z"/></svg>