<svg viewBox="0 0 24 24" xmlns="http://www.w3.org/2000/svg"><path d="m 2.334,9.666 a 0.067,0.067 0 0 0 -0.057,0.032 l -0.118,0.197 h -0 c -0.021,0.002 -0.042,0.004 -0.063,0.006 l -0.154,-0.17 a 0.067,0.067 0 0 0 -0.045,-0.022 0.067,0.067 0 0 0 -0.017,0.001 0.067,0.067 0 0 0 -0.05,0.043 l -0.077,0.216 c -0.02,0.006 -0.041,0.012 -0.061,0.018 l -0.185,-0.137 a 0.067,0.067 0 0 0 -0.04,-0.013 0.067,0.067 0 0 0 -0.025,0.005 0.067,0.067 0 0 0 -0.04,0.052 l -0.034,0.228 c -0.018,0.01 -0.037,0.019 -0.055,0.03 h -0 l -0.209,-0.099 a 0.067,0.067 0 0 0 -0.027,-0.006 0.067,0.067 0 0 0 -0.069,0.07 l 0.011,0.231 c -0.016,0.013 -0.032,0.026 -0.048,0.039 l -0.225,-0.056 a 0.067,0.067 0 0 0 -0.018,-0.002 0.067,0.067 0 0 0 -0.063,0.083 l 0.056,0.225 c -0.013,0.016 -0.026,0.032 -0.039,0.048 l -0.231,-0.011 a 0.067,0.067 0 0 0 -0.064,0.095 l 0.099,0.209 v 0 c -0.01,0.018 -0.02,0.036 -0.029,0.055 l -0.228,0.034 a 0.067,0.067 0 0 0 -0.044,0.106 l 0.137,0.185 c -0.006,0.02 -0.013,0.04 -0.018,0.061 l -0.216,0.077 a 0.067,0.067 0 0 0 -0.022,0.112 l 0.17,0.154 c -0.002,0.021 -0.004,0.042 -0.006,0.063 v 0 l -0.197,0.118 a 0.067,0.067 0 0 0 0,0.114 l 0.197,0.118 c 0.002,0.021 0.004,0.042 0.006,0.063 v 0 l -0.17,0.154 a 0.067,0.067 0 0 0 0.022,0.112 l 0.216,0.077 c 0.006,0.02 0.012,0.041 0.018,0.061 l -0.137,0.185 a 0.067,0.067 0 0 0 0.044,0.106 l 0.228,0.034 c 0.01,0.018 0.019,0.037 0.029,0.055 v 0 l -0.099,0.209 a 0.067,0.067 0 0 0 0.064,0.095 l 0.231,-0.011 c 0.013,0.016 0.026,0.032 0.039,0.048 l -0.056,0.225 a 0.067,0.067 0 0 0 0.081,0.081 l 0.225,-0.056 c 0.016,0.013 0.032,0.026 0.048,0.039 l -0.011,0.231 a 0.067,0.067 0 0 0 0.095,0.064 l 0.209,-0.099 c 0.018,0.01 0.036,0.02 0.055,0.029 l 0.034,0.228 a 0.067,0.067 0 0 0 0.106,0.044 l 0.185,-0.137 c 0.02,0.006 0.04,0.013 0.061,0.018 l 0.077,0.216 a 0.067,0.067 0 0 0 0.112,0.022 l 0.154,-0.17 c 0.021,0.002 0.042,0.004 0.063,0.006 l 0.118,0.197 a 0.067,0.067 0 0 0 0.114,0 l 0.118,-0.197 c 0.021,-0.002 0.042,-0.004 0.063,-0.006 l 0.154,0.17 a 0.067,0.067 0 0 0 0.112,-0.022 l 0.077,-0.216 c 0.02,-0.006 0.041,-0.012 0.061,-0.018 l 0.185,0.137 a 0.067,0.067 0 0 0 0.106,-0.044 l 0.034,-0.228 c 0.018,-0.01 0.037,-0.019 0.055,-0.029 l 0.209,0.099 a 0.067,0.067 0 0 0 0.095,-0.064 l -0.011,-0.231 c 0.016,-0.013 0.032,-0.026 0.048,-0.039 l 0.225,0.056 a 0.067,0.067 0 0 0 0.081,-0.081 l -0.056,-0.225 c 0.013,-0.016 0.026,-0.031 0.039,-0.048 l 0.231,0.011 a 0.067,0.067 0 0 0 0.064,-0.095 l -0.099,-0.209 c 0.01,-0.018 0.02,-0.036 0.029,-0.055 l 0.228,-0.034 a 0.067,0.067 0 0 0 0.044,-0.106 l -0.137,-0.185 c 0.006,-0.02 0.013,-0.04 0.018,-0.061 l 0.216,-0.077 a 0.067,0.067 0 0 0 0.022,-0.112 l -0.17,-0.154 c 0.002,-0.021 0.004,-0.042 0.006,-0.063 l 0.197,-0.118 a 0.067,0.067 0 0 0 0,-0.114 l -0.197,-0.118 c -0.002,-0.021 -0.004,-0.042 -0.006,-0.063 l 0.17,-0.154 a 0.067,0.067 0 0 0 -0.022,-0.112 l -0.216,-0.077 c -0.006,-0.02 -0.012,-0.041 -0.018,-0.061 l 0.137,-0.185 a 0.067,0.067 0 0 0 -0.044,-0.106 l -0.228,-0.034 c -0.01,-0.018 -0.019,-0.037 -0.029,-0.055 l 0.099,-0.209 a 0.067,0.067 0 0 0 -0.064,-0.095 l -0.231,0.011 c -0.013,-0.016 -0.026,-0.032 -0.039,-0.048 l 0.056,-0.225 a 0.067,0.067 0 0 0 -0.063,-0.083 0.067,0.067 0 0 0 -0.018,0.002 l -0.225,0.056 c -0.016,-0.013 -0.032,-0.026 -0.048,-0.039 l 0.011,-0.231 a 0.067,0.067 0 0 0 -0.069,-0.07 0.067,0.067 0 0 0 -0.026,0.006 l -0.209,0.099 h -0 c -0.018,-0.01 -0.036,-0.02 -0.055,-0.03 l -0.034,-0.228 a 0.067,0.067 0 0 0 -0.04,-0.052 0.067,0.067 0 0 0 -0.025,-0.005 0.067,0.067 0 0 0 -0.04,0.013 l -0.185,0.137 c -0.02,-0.006 -0.04,-0.013 -0.061,-0.018 l -0.077,-0.216 a 0.067,0.067 0 0 0 -0.05,-0.043 0.067,0.067 0 0 0 -0.017,-0.001 0.067,0.067 0 0 0 -0.045,0.022 l -0.154,0.17 h -0 c -0.021,-0.002 -0.042,-0.004 -0.063,-0.006 l -0.118,-0.197 a 0.067,0.067 0 0 0 -0.057,-0.032 z m 0,0.422 a 0.133,0.133 0 0 1 0.133,0.133 0.133,0.133 0 0 1 -0.133,0.133 0.133,0.133 0 0 1 -0.133,-0.133 0.133,0.133 0 0 1 0.133,-0.133 z m -0.315,0.229 0.221,0.221 a 0.133,0.133 0 0 0 0.189,0 l 0.221,-0.221 c 0.188,0.035 0.365,0.1 0.526,0.191 l -0.728,2.071 c -0.044,0.122 -0.08,0.236 -0.112,0.346 -0.033,-0.112 -0.069,-0.229 -0.114,-0.355 l -0.724,-2.064 c 0.16,-0.089 0.336,-0.154 0.522,-0.189 z m 7.469,0.384 v 2.529 h 0.582 v -2.529 z m 10.037,0 v 0.985 c -0.063,-0.108 -0.142,-0.189 -0.239,-0.241 -0.095,-0.053 -0.21,-0.08 -0.345,-0.08 -0.22,0 -0.399,0.088 -0.538,0.263 -0.138,0.176 -0.206,0.406 -0.206,0.692 0,0.286 0.069,0.517 0.206,0.692 0.139,0.176 0.318,0.263 0.538,0.263 0.134,0 0.249,-0.026 0.345,-0.078 0.096,-0.053 0.176,-0.134 0.239,-0.242 v 0.273 h 0.299 v -2.529 z m -8.842,0.192 v 0.517 h -0.289 v 0.416 h 0.289 v 0.772 c 0,0.23 0.048,0.393 0.143,0.489 0.096,0.095 0.26,0.143 0.489,0.143 h 0.499 v -0.416 h -0.299 c -0.1,0 -0.166,-0.015 -0.2,-0.044 -0.034,-0.03 -0.05,-0.088 -0.05,-0.172 v -0.772 h 0.6 v -0.416 h -0.6 v -0.517 z m -9.685,0.037 0.98,2.745 c -0.132,-0.028 -0.258,-0.071 -0.376,-0.127 l -0.049,-0.31 a 0.133,0.133 0 0 0 -0.153,-0.111 l -0.31,0.049 c -0.289,-0.306 -0.466,-0.72 -0.466,-1.176 0,-0.075 0.005,-0.148 0.014,-0.22 l 0.278,-0.142 a 0.133,0.133 0 0 0 0.058,-0.179 l -0.142,-0.279 v -0 c 0.048,-0.088 0.104,-0.171 0.166,-0.249 z m 2.675,0 c 0.062,0.078 0.118,0.161 0.166,0.249 l -0.142,0.279 a 0.133,0.133 0 0 0 0.058,0.179 l 0.278,0.142 c 0.009,0.072 0.014,0.146 0.014,0.22 0,0.456 -0.177,0.87 -0.466,1.176 l -0.31,-0.049 a 0.133,0.133 0 0 0 -0.153,0.111 l -0.049,0.31 c -0.119,0.056 -0.245,0.099 -0.376,0.127 z m -3.022,0.387 a 0.133,0.133 0 0 1 0.034,0.006 0.133,0.133 0 0 1 0.086,0.168 0.133,0.133 0 0 1 -0.168,0.086 0.133,0.133 0 0 1 -0.086,-0.168 0.133,0.133 0 0 1 0.134,-0.092 z m 3.369,0 a 0.133,0.133 0 0 1 0.134,0.092 0.133,0.133 0 0 1 -0.086,0.168 0.133,0.133 0 0 1 -0.168,-0.086 0.133,0.133 0 0 1 0.086,-0.168 0.133,0.133 0 0 1 0.034,-0.006 z m 1.628,0.048 c -0.126,0 -0.251,0.008 -0.377,0.024 -0.126,0.015 -0.251,0.038 -0.375,0.068 v 0.444 c 0.092,-0.05 0.192,-0.087 0.299,-0.112 0.107,-0.025 0.223,-0.037 0.348,-0.037 0.154,0 0.267,0.022 0.34,0.065 0.073,0.042 0.109,0.109 0.109,0.202 v 0.045 h -0.343 c -0.314,0 -0.545,0.05 -0.692,0.15 -0.146,0.1 -0.219,0.256 -0.219,0.47 0,0.176 0.059,0.319 0.176,0.429 0.118,0.109 0.271,0.164 0.46,0.164 0.14,0 0.258,-0.025 0.356,-0.075 0.098,-0.051 0.185,-0.132 0.263,-0.242 v 0.27 h 0.587 v -1.039 c 0,-0.291 -0.073,-0.502 -0.219,-0.631 -0.145,-0.13 -0.382,-0.195 -0.71,-0.195 z m 9.968,0 c -0.098,0 -0.198,0.011 -0.301,0.033 -0.103,0.021 -0.209,0.052 -0.319,0.094 v 0.276 c 0.091,-0.05 0.186,-0.087 0.284,-0.112 0.099,-0.025 0.2,-0.037 0.304,-0.037 0.164,0 0.29,0.038 0.38,0.114 0.091,0.075 0.137,0.181 0.137,0.319 v 0.029 h -0.419 c -0.272,0 -0.477,0.052 -0.614,0.156 -0.137,0.104 -0.205,0.258 -0.205,0.463 0,0.176 0.055,0.316 0.164,0.421 0.111,0.104 0.259,0.156 0.445,0.156 0.147,0 0.272,-0.026 0.374,-0.078 0.102,-0.053 0.187,-0.135 0.255,-0.245 v 0.276 h 0.299 v -1.039 c 0,-0.277 -0.065,-0.484 -0.195,-0.621 -0.13,-0.137 -0.327,-0.205 -0.59,-0.205 z m 2.303,0 c -0.144,0 -0.267,0.027 -0.367,0.081 -0.101,0.053 -0.183,0.135 -0.245,0.245 v -0.283 h -0.301 v 1.82 h 0.301 v -0.959 c 0,-0.206 0.045,-0.364 0.135,-0.473 0.091,-0.111 0.221,-0.166 0.39,-0.166 0.048,0 0.091,0.005 0.13,0.015 0.04,0.009 0.077,0.023 0.111,0.042 l -0.002,-0.307 c -0.03,-0.005 -0.058,-0.009 -0.083,-0.011 -0.025,-0.003 -0.048,-0.005 -0.068,-0.005 z m 3.283,0 c -0.273,0 -0.49,0.088 -0.652,0.263 -0.16,0.174 -0.241,0.411 -0.241,0.709 0,0.288 0.085,0.517 0.254,0.686 0.17,0.169 0.4,0.254 0.691,0.254 0.116,0 0.23,-0.012 0.343,-0.036 0.113,-0.024 0.223,-0.059 0.33,-0.104 v -0.283 c -0.106,0.056 -0.213,0.099 -0.322,0.127 -0.107,0.028 -0.218,0.042 -0.333,0.042 -0.198,0 -0.353,-0.054 -0.465,-0.161 -0.111,-0.108 -0.172,-0.265 -0.185,-0.471 h 1.375 v -0.146 c 0,-0.271 -0.071,-0.485 -0.215,-0.642 -0.142,-0.158 -0.335,-0.237 -0.58,-0.237 z m 2.163,0 c -0.127,0 -0.239,0.027 -0.336,0.081 -0.096,0.054 -0.18,0.136 -0.252,0.245 v -0.283 h -0.301 v 1.82 h 0.301 v -1.029 c 0,-0.178 0.047,-0.318 0.14,-0.421 0.093,-0.103 0.221,-0.154 0.382,-0.154 0.134,0 0.235,0.043 0.302,0.128 0.067,0.086 0.101,0.215 0.101,0.387 v 1.089 h 0.299 v -1.099 c 0,-0.251 -0.054,-0.442 -0.161,-0.57 -0.107,-0.13 -0.265,-0.195 -0.475,-0.195 z m -16.266,0.044 v 1.112 c 0,0.246 0.055,0.433 0.164,0.562 0.111,0.129 0.271,0.193 0.481,0.193 0.118,0 0.226,-0.025 0.323,-0.075 0.099,-0.051 0.192,-0.129 0.28,-0.236 v 0.263 h 0.582 v -1.82 h -0.582 v 0.899 c 0,0.166 -0.035,0.295 -0.104,0.388 -0.069,0.093 -0.165,0.14 -0.286,0.14 -0.05,0 -0.094,-0.01 -0.133,-0.031 -0.038,-0.021 -0.069,-0.05 -0.093,-0.088 -0.018,-0.029 -0.031,-0.076 -0.039,-0.14 -0.008,-0.065 -0.011,-0.171 -0.011,-0.317 0,-0.05 0.001,-0.149 0.002,-0.297 0.001,-0.15 0.002,-0.274 0.002,-0.372 v -0.182 z m 4.982,0 0.476,1.82 h 0.353 l 0.393,-1.492 0.392,1.492 h 0.353 l 0.476,-1.82 h -0.299 l -0.372,1.421 -0.374,-1.421 h -0.353 l -0.372,1.421 -0.374,-1.421 z m 6.934,0.206 c 0.158,0 0.283,0.063 0.374,0.189 0.091,0.125 0.137,0.297 0.137,0.517 0,0.22 -0.045,0.393 -0.137,0.518 -0.091,0.125 -0.216,0.187 -0.374,0.187 -0.158,0 -0.283,-0.062 -0.374,-0.187 -0.09,-0.126 -0.135,-0.299 -0.135,-0.518 0,-0.22 0.045,-0.392 0.135,-0.517 0.091,-0.126 0.216,-0.189 0.374,-0.189 z m 2.191,0.003 c 0.147,0 0.265,0.049 0.354,0.146 0.09,0.098 0.136,0.228 0.138,0.392 l -1.066,0.002 c 0.015,-0.171 0.073,-0.304 0.172,-0.398 0.101,-0.094 0.235,-0.141 0.401,-0.141 z m -5.401,0.696 h 0.297 v 0.067 c 0,0.195 -0.05,0.352 -0.151,0.47 -0.1,0.117 -0.232,0.176 -0.398,0.176 -0.12,0 -0.216,-0.031 -0.286,-0.093 -0.069,-0.063 -0.104,-0.147 -0.104,-0.254 0,-0.133 0.047,-0.228 0.14,-0.283 0.093,-0.055 0.261,-0.083 0.502,-0.083 z m -10.116,0.096 h 0.302 v 0.067 c 0,0.118 -0.037,0.217 -0.112,0.296 -0.075,0.078 -0.167,0.117 -0.276,0.117 -0.088,0 -0.157,-0.021 -0.206,-0.062 -0.049,-0.042 -0.073,-0.1 -0.073,-0.174 0,-0.08 0.03,-0.141 0.091,-0.182 0.062,-0.041 0.153,-0.062 0.275,-0.062 z m -4.402,0.895 a 0.133,0.133 0 0 1 0.082,0.025 0.133,0.133 0 0 1 0.029,0.186 0.133,0.133 0 0 1 -0.186,0.029 0.133,0.133 0 0 1 -0.029,-0.186 0.133,0.133 0 0 1 0.104,-0.055 z m 2.098,0 a 0.133,0.133 0 0 1 0.104,0.055 0.133,0.133 0 0 1 -0.029,0.186 0.133,0.133 0 0 1 -0.186,-0.029 0.133,0.133 0 0 1 0.029,-0.186 0.133,0.133 0 0 1 0.082,-0.025 z"/></svg>