<svg viewBox="0 0 24 24" xmlns="http://www.w3.org/2000/svg"><path d="M 12,0 A 0.343,0.343 0 0 0 11.706,0.167 L 11.098,1.18 h -0 c -0.108,0.009 -0.216,0.019 -0.324,0.032 L 9.98,0.337 a 0.343,0.343 0 0 0 -0.233,-0.112 0.343,0.343 0 0 0 -0.088,0.006 0.343,0.343 0 0 0 -0.256,0.221 L 9.005,1.564 c -0.105,0.03 -0.209,0.062 -0.312,0.095 l -0.949,-0.703 a 0.343,0.343 0 0 0 -0.206,-0.068 0.343,0.343 0 0 0 -0.129,0.026 0.343,0.343 0 0 0 -0.208,0.267 l -0.175,1.172 c -0.095,0.049 -0.189,0.1 -0.283,0.152 h -0 l -1.072,-0.507 a 0.343,0.343 0 0 0 -0.137,-0.033 0.343,0.343 0 0 0 -0.352,0.359 l 0.058,1.188 c -0.082,0.066 -0.164,0.133 -0.244,0.201 l -1.155,-0.289 a 0.343,0.343 0 0 0 -0.093,-0.01 0.343,0.343 0 0 0 -0.322,0.426 l 0.289,1.155 c -0.068,0.08 -0.135,0.162 -0.201,0.244 l -1.188,-0.058 a 0.343,0.343 0 0 0 -0.327,0.489 l 0.507,1.072 v 0 c -0.052,0.093 -0.103,0.188 -0.152,0.283 l -1.172,0.175 a 0.343,0.343 0 0 0 -0.225,0.543 l 0.703,0.949 c -0.033,0.103 -0.065,0.207 -0.095,0.312 l -1.112,0.399 a 0.343,0.343 0 0 0 -0.115,0.577 l 0.875,0.794 c -0.012,0.107 -0.023,0.215 -0.032,0.324 v 0 l -1.014,0.608 a 0.343,0.343 0 0 0 0,0.588 l 1.014,0.608 c 0.009,0.108 0.019,0.216 0.032,0.324 v 0 l -0.875,0.794 a 0.343,0.343 0 0 0 0.115,0.577 l 1.112,0.399 c 0.03,0.105 0.062,0.209 0.095,0.312 l -0.703,0.949 a 0.343,0.343 0 0 0 0.225,0.543 l 1.172,0.175 c 0.049,0.095 0.1,0.189 0.152,0.283 v 0 l -0.507,1.072 a 0.343,0.343 0 0 0 0.327,0.489 l 1.188,-0.058 c 0.066,0.082 0.133,0.164 0.201,0.244 l -0.289,1.155 a 0.343,0.343 0 0 0 0.416,0.416 l 1.155,-0.289 c 0.08,0.068 0.162,0.135 0.244,0.201 l -0.058,1.188 a 0.343,0.343 0 0 0 0.489,0.327 l 1.073,-0.507 c 0.093,0.052 0.188,0.103 0.283,0.152 l 0.175,1.172 a 0.343,0.343 0 0 0 0.543,0.225 l 0.949,-0.703 c 0.103,0.033 0.207,0.065 0.312,0.095 l 0.399,1.112 a 0.343,0.343 0 0 0 0.577,0.115 l 0.794,-0.875 c 0.107,0.012 0.215,0.023 0.324,0.032 l 0.608,1.014 a 0.343,0.343 0 0 0 0.588,0 l 0.608,-1.014 c 0.108,-0.009 0.216,-0.02 0.324,-0.032 l 0.794,0.875 a 0.343,0.343 0 0 0 0.577,-0.115 l 0.399,-1.112 c 0.105,-0.03 0.209,-0.062 0.312,-0.095 l 0.949,0.703 a 0.343,0.343 0 0 0 0.543,-0.225 l 0.175,-1.172 c 0.095,-0.049 0.189,-0.1 0.283,-0.152 l 1.073,0.507 a 0.343,0.343 0 0 0 0.489,-0.327 l -0.058,-1.188 c 0.082,-0.066 0.164,-0.133 0.244,-0.201 l 1.155,0.289 a 0.343,0.343 0 0 0 0.416,-0.416 l -0.289,-1.155 c 0.068,-0.08 0.135,-0.162 0.201,-0.244 l 1.188,0.058 a 0.343,0.343 0 0 0 0.327,-0.489 l -0.507,-1.073 c 0.052,-0.093 0.103,-0.188 0.152,-0.283 l 1.172,-0.175 a 0.343,0.343 0 0 0 0.225,-0.543 l -0.703,-0.949 c 0.033,-0.103 0.065,-0.207 0.095,-0.312 l 1.112,-0.399 a 0.343,0.343 0 0 0 0.115,-0.577 l -0.875,-0.794 c 0.012,-0.107 0.023,-0.215 0.032,-0.324 l 1.014,-0.608 a 0.343,0.343 0 0 0 0,-0.588 l -1.014,-0.608 c -0.009,-0.108 -0.02,-0.216 -0.032,-0.324 l 0.875,-0.794 a 0.343,0.343 0 0 0 -0.115,-0.577 l -1.112,-0.399 c -0.03,-0.105 -0.062,-0.209 -0.095,-0.312 l 0.703,-0.949 a 0.343,0.343 0 0 0 -0.225,-0.543 l -1.172,-0.175 c -0.049,-0.095 -0.1,-0.189 -0.152,-0.283 l 0.507,-1.073 a 0.343,0.343 0 0 0 -0.327,-0.489 l -1.188,0.058 c -0.066,-0.082 -0.133,-0.164 -0.201,-0.244 l 0.289,-1.155 a 0.343,0.343 0 0 0 -0.322,-0.426 0.343,0.343 0 0 0 -0.093,0.01 l -1.155,0.289 c -0.08,-0.068 -0.162,-0.135 -0.244,-0.201 l 0.058,-1.188 a 0.343,0.343 0 0 0 -0.352,-0.359 0.343,0.343 0 0 0 -0.136,0.033 l -1.072,0.507 h -0 c -0.093,-0.052 -0.188,-0.103 -0.283,-0.152 l -0.175,-1.172 a 0.343,0.343 0 0 0 -0.208,-0.267 0.343,0.343 0 0 0 -0.129,-0.026 0.343,0.343 0 0 0 -0.206,0.068 L 15.307,1.658 c -0.103,-0.033 -0.207,-0.065 -0.312,-0.095 l -0.399,-1.112 a 0.343,0.343 0 0 0 -0.256,-0.221 0.343,0.343 0 0 0 -0.088,-0.006 0.343,0.343 0 0 0 -0.233,0.112 L 13.226,1.212 h -0 c -0.107,-0.012 -0.215,-0.023 -0.324,-0.032 L 12.294,0.166 A 0.343,0.343 0 0 0 12,0 Z m 0,2.171 a 0.686,0.686 0 0 1 0.686,0.686 0.686,0.686 0 0 1 -0.686,0.686 0.686,0.686 0 0 1 -0.686,-0.686 0.686,0.686 0 0 1 0.686,-0.686 z m -1.622,1.177 1.137,1.137 a 0.686,0.686 0 0 0 0.97,0 l 1.137,-1.137 c 0.967,0.179 1.877,0.515 2.704,0.981 l -3.743,10.649 c -0.227,0.626 -0.412,1.211 -0.578,1.778 -0.167,-0.576 -0.356,-1.176 -0.587,-1.827 L 7.694,4.318 c 0.822,-0.46 1.725,-0.792 2.684,-0.97 z M 5.123,6.499 10.162,20.609 C 9.485,20.466 8.837,20.245 8.227,19.957 l -0.252,-1.592 a 0.686,0.686 0 0 0 -0.784,-0.57 l -1.592,0.252 c -1.488,-1.575 -2.398,-3.702 -2.398,-6.047 0,-0.384 0.024,-0.762 0.072,-1.132 l 1.431,-0.729 a 0.686,0.686 0 0 0 0.3,-0.922 l -0.732,-1.436 V 7.78 c 0.247,-0.453 0.533,-0.881 0.852,-1.281 z m 13.754,0 c 0.32,0.4 0.606,0.828 0.853,1.281 l -0.732,1.437 a 0.686,0.686 0 0 0 0.3,0.922 l 1.431,0.729 c 0.047,0.371 0.072,0.748 0.072,1.132 0,2.346 -0.91,4.472 -2.398,6.047 l -1.592,-0.252 a 0.686,0.686 0 0 0 -0.784,0.57 l -0.252,1.592 c -0.61,0.288 -1.258,0.509 -1.935,0.652 z M 3.341,8.49 a 0.686,0.686 0 0 1 0.176,0.033 0.686,0.686 0 0 1 0.44,0.864 0.686,0.686 0 0 1 -0.864,0.44 0.686,0.686 0 0 1 -0.44,-0.864 0.686,0.686 0 0 1 0.688,-0.473 z m 17.319,0 a 0.686,0.686 0 0 1 0.688,0.473 0.686,0.686 0 0 1 -0.44,0.864 0.686,0.686 0 0 1 -0.864,-0.44 0.686,0.686 0 0 1 0.44,-0.864 0.686,0.686 0 0 1 0.176,-0.033 z M 6.608,18.711 a 0.686,0.686 0 0 1 0.421,0.131 0.686,0.686 0 0 1 0.152,0.958 0.686,0.686 0 0 1 -0.958,0.152 0.686,0.686 0 0 1 -0.152,-0.958 0.686,0.686 0 0 1 0.537,-0.282 z m 10.784,0 a 0.686,0.686 0 0 1 0.537,0.282 0.686,0.686 0 0 1 -0.152,0.958 0.686,0.686 0 0 1 -0.958,-0.152 0.686,0.686 0 0 1 0.152,-0.958 0.686,0.686 0 0 1 0.421,-0.131 z"/></svg>