<svg viewBox="0 0 24 24" xmlns="http://www.w3.org/2000/svg"><path d="M 18.21056,0.14870613 23.1486,2.5374776 C 23.6689,2.7896829 24,3.3179667 24,3.8985146 V 19.848974 c -0.031,0.06479 -0.0672,0.12816 -0.0947,0.193784 0.002,0.260163 -0.11592,0.517801 -0.31549,0.683577 -0.24065,0.206833 -0.59291,0.277075 -0.89057,0.163482 -0.16204,-0.05674 -0.28961,-0.175756 -0.42561,-0.276028 -1.42219,-1.08512 -2.84434,-2.170299 -4.26651,-3.255449 V 1.0623251 c 0,-0.68925099 -0.72889,-1.07753375 -1.28135,-0.78553948 -0.0368,0.0195173 -0.0729,0.041952 -0.1079,0.0676062 C 16.88256,0.12536594 17.20666,0.0052342 17.53874,1.3356276e-4 17.766,-0.00288454 17.99592,0.04520433 18.21055,0.1487464 Z m -1.7028,0.29025382 c 0.0352,-0.0354128 0.0721,-0.0667007 0.11012,-0.0945682 -0.0372,0.030785 -0.0755,0.059759 -0.11012,0.0945682 z m 1.33059,0.28319138 c 0.0631,0.12938735 0.0795,0.27555551 0.0742,0.41805167 V 6.589532 L 10.9032,11.937824 C 9.64054,10.974396 8.37781,10.010948 7.11513,9.0475394 l 9.26193,-8.49779386 -0.008,0.022133 c 0.0686,-0.0229378 0.14019,-0.0407448 0.20703,-0.0668013 0.12486,-0.12451809 0.28984,-0.21007209 0.46589,-0.22687303 0.0202,-0.002012 0.0403,-0.004024 0.0605,-0.004024 0.30316,-0.009054 0.60718,0.16940778 0.73592,0.44825305 z M 2.92316,5.9684908 22.40603,20.834243 C 23.05877,21.333895 24,20.862815 24,20.039599 v 0.05704 c 0,0.580548 -0.3311,1.108821 -0.8514,1.361027 l -4.94285,2.39351 c -0.57233,0.275998 -1.25344,0.161812 -1.70279,-0.290254 L 0.32637,8.718905 c -0.43516,-0.3997215 -0.43516,-1.0896766 0,-1.4846395 L 1.64606,6.0255637 C 1.8456,5.8435502 2.10349,5.7563865 2.35916,5.766628 c 0.19885,0.00805 0.39638,0.07485 0.564,0.2018628 z m 4.04423,8.9723552 -4.04423,3.08583 C 2.54003,18.31695 2.00081,18.293197 1.64606,17.969636 L 0.32637,16.760931 c -0.43516,-0.394963 -0.43516,-1.084918 0,-1.484639 l 3.50324,-3.214281 c 1.04592,0.959625 2.09186,1.91924 3.13778,2.878855 z"/></svg>