<svg viewBox="0 0 24 24" xmlns="http://www.w3.org/2000/svg"><path d="M 4.23275,14.488185 3.01823,11.568593 1.80381,14.488185 0,10.109302 h 0.73177 l 1.08389,2.8244 1.20257,-2.950986 1.19862,2.950986 1.08783,-2.8244 h 0.73188 l -1.80381,4.378883 m 4.06262,-1.665879 c 0,0.625844 -0.34027,1.041047 -1.0048,1.041047 -0.48264,0 -0.94149,-0.356467 -0.94149,-1.032946 0,-0.70382 0.45885,-1.031933 0.94149,-1.031933 0.66453,0 1.0048,0.399001 1.0048,1.023832 z M 8.94805,14.38489 V 11.275924 H 8.29537 v 0.407103 c -0.20973,-0.296719 -0.58949,-0.466851 -1.0048,-0.466851 -0.89005,0 -1.61402,0.676479 -1.61402,1.614231 0,0.961045 0.77936,1.606131 1.61402,1.606131 0.41531,0 0.77532,-0.182284 1.0048,-0.474954 V 14.38489 H 8.94805 M 9.8698,10.53666 c -0.20973,0 -0.37581,-0.163044 -0.37581,-0.372672 0,-0.209628 0.16608,-0.37976 0.37581,-0.37976 0.20963,0 0.37176,0.170132 0.37176,0.37976 0,0.209628 -0.16213,0.372672 -0.37176,0.372672 z m -0.32842,0.739264 h 0.65279 V 14.38489 H 9.54138 Z m 2.31026,0.566095 v 2.542871 h -0.65268 v -2.542871 h -0.60529 v -0.566095 h 0.60529 v -1.119025 l 0.65268,-0.645084 v 1.764109 h 0.69623 v 0.566095 h -0.69623 m 2.82845,0.06684 c -0.095,-0.0557 -0.20578,-0.110384 -0.40751,-0.110384 -0.37976,0 -0.67242,0.23697 -0.67242,0.755468 v 1.830948 h -0.65279 v -3.108966 h 0.65279 v 0.435458 c 0.18582,-0.352417 0.46674,-0.495206 0.77926,-0.495206 0.22543,0 0.52215,0.06785 0.73572,0.265324 l -0.43505,0.427358 m 2.93124,0.913448 c 0,0.597489 -0.36791,1.041047 -0.97715,1.041047 -0.61308,0 -0.97309,-0.443558 -0.97309,-1.041047 0,-0.597488 0.36001,-1.023832 0.97309,-1.023832 0.60924,0 0.97715,0.426344 0.97715,1.023832 z m 0.66848,0 c 0,-0.929651 -0.73177,-1.60613 -1.64563,-1.60613 -0.9177,0 -1.64157,0.676479 -1.64157,1.60613 0,0.929652 0.72387,1.622334 1.64157,1.622334 0.91386,0 1.64563,-0.692682 1.64563,-1.622334 m 1.38455,1.622334 c -0.32436,0 -0.64083,-0.07494 -1.05614,-0.296719 v -0.664327 c 0.30452,0.209627 0.72388,0.403052 1.03639,0.403052 0.25318,0 0.4628,-0.05874 0.4628,-0.288618 0,-0.157979 -0.0554,-0.261274 -0.37976,-0.443559 l -0.56569,-0.315961 c -0.35596,-0.205576 -0.54189,-0.431407 -0.54189,-0.759518 0,-0.502296 0.37581,-0.862814 1.05219,-0.862814 0.31252,0 0.64488,0.08 0.9494,0.242033 v 0.644072 c -0.28477,-0.181271 -0.63688,-0.324062 -0.9494,-0.324062 -0.24912,0 -0.39951,0.0952 -0.39951,0.265327 0,0.10228 0.0119,0.162031 0.27697,0.32001 l 0.54189,0.312921 c 0.43516,0.249124 0.67253,0.45875 0.67253,0.857752 0,0.586349 -0.45895,0.910411 -1.09978,0.910411 m 3.61167,-1.98589 h -1.49919 c 0.0988,-0.375711 0.37186,-0.672429 0.79506,-0.672429 0.40356,0 0.68438,0.276466 0.70413,0.672429 z M 24,12.992438 v -0.0476 c 0,-1.15852 -0.58149,-1.728665 -1.4281,-1.728665 -0.83071,0 -1.50719,0.628882 -1.50719,1.566636 0,1.099782 0.75952,1.661828 1.60613,1.661828 0.447,0 0.89006,-0.134688 1.15508,-0.411153 l -0.41531,-0.408116 c -0.18988,0.146841 -0.41935,0.237982 -0.73977,0.237982 -0.56964,0 -0.86636,-0.415203 -0.92965,-0.870915 H 24"/></svg>