<svg viewBox="0 0 24 24" xmlns="http://www.w3.org/2000/svg"><path d="M 9.9971778,7.6177097 A 1.7443906,1.7157137 0 0 0 8.6078994,8.4710675 L 5.4731158,13.807323 a 1.7443906,1.7157137 0 0 0 1.510395,2.573531 l 5.6149032,0.0016 a 1.8515454,1.8515454 0 0 1 -1.231748,-1.744715 1.8515454,1.8515454 0 0 1 1.851581,-1.85158 1.8515454,1.8515454 0 0 1 1.201666,0.443302 L 11.628689,8.471859 A 1.7443906,1.7157137 0 0 0 9.9971778,7.6177097 Z M 2.8980012,9.5801158 c -0.094026,0 -0.1794547,0.027998 -0.2572733,0.083119 -0.074586,0.05188 -0.1297794,0.1214399 -0.1654473,0.2089854 L 1.5118892,12.483748 0.88018265,9.920509 c -0.03243,-0.1232123 -0.1004748,-0.2154579 -0.2042355,-0.2770643 -0.1037531,-0.061607 -0.2156725,-0.077471 -0.3356434,-0.048289 -0.1232077,0.029182 -0.2162438,0.097235 -0.2778553,0.2042359 -0.0616119939,0.1037576 -0.077482,0.2156734 -0.048284,0.3356434 l 0.9823912,3.96835 c 0.025934,0.09403 0.075827,0.173427 0.15041365,0.238276 0.074571,0.06161 0.1607919,0.09563 0.2580652,0.102118 h 0.02454 c 0.094026,0 0.1779427,-0.0257 0.252523,-0.07758 0.074586,-0.05512 0.1297794,-0.126188 0.1654473,-0.213735 l 1.0362208,-2.811805 0.9823895,2.807056 c 0.035662,0.09403 0.092387,0.168113 0.1701976,0.223234 0.081066,0.05188 0.170291,0.07607 0.2675643,0.07283 0.097273,-0.0032 0.1834834,-0.03576 0.2580652,-0.09737 0.077819,-0.06161 0.1292127,-0.138703 0.1551563,-0.232734 L 5.7921476,10.144534 C 5.8245771,10.024564 5.8102236,9.911142 5.7486121,9.8041414 5.6902481,9.6971408 5.6010171,9.6275803 5.4810462,9.5951558 5.4226823,9.578938 5.3644715,9.5751328 5.3061014,9.5848617 5.2477374,9.5913417 5.1925291,9.6095097 5.1406541,9.6386917 5.0920171,9.6678737 5.0496611,9.7072137 5.0139997,9.75585 4.9783227,9.801244 4.9526337,9.852642 4.9364257,9.911006 L 4.2310769,12.498789 3.3167649,9.8769702 C 3.2843354,9.7894242 3.2291424,9.7183566 3.1513176,9.6632351 3.0767316,9.6081141 2.9920269,9.5801162 2.8980012,9.5801158 Z m 12.5003438,0.1907785 -0.04116,0.041955 v 3.6374567 c 0,0.493392 0.202077,0.725117 0.665746,0.725117 0.196169,0 0.415792,-0.02926 0.576293,-0.05304 0.01195,-0.04755 0.01821,-0.113127 0.01821,-0.172572 0,-0.130778 -0.02408,-0.267432 -0.0657,-0.374432 h -0.184447 c -0.178335,0 -0.249357,-0.09477 -0.249357,-0.273107 v -3.05008 c 0,-0.3447798 -0.106878,-0.4812997 -0.42193,-0.4812997 z m 1.74788,0 -0.04116,0.041955 v 3.6374567 c 0,0.493392 0.202077,0.725117 0.665746,0.725117 0.196168,0 0.415792,-0.02926 0.576293,-0.05304 0.01195,-0.04755 0.01821,-0.113127 0.01821,-0.172572 0,-0.130778 -0.02408,-0.267432 -0.0657,-0.374432 h -0.184446 c -0.178335,0 -0.249358,-0.09477 -0.249358,-0.273107 v -3.05008 c 0,-0.3447798 -0.106878,-0.4812997 -0.421928,-0.4812997 z m -7.042972,1.0639267 c 0.965875,-2e-6 1.748673,0.782797 1.748672,1.74867 1e-6,0.965875 -0.782797,1.748673 -1.748672,1.748671 -0.9658729,3e-6 -1.7486731,-0.782796 -1.74867,-1.748671 -3.1e-6,-0.965873 0.7827971,-1.748672 1.74867,-1.74867 z m 9.896732,0.279439 c -0.356669,0 -0.666242,0.107377 -0.904021,0.333268 -0.315058,0.315058 -0.421928,0.719343 -0.421928,1.224624 0,0.505281 0.106878,0.903233 0.421928,1.218291 0.237779,0.231834 0.547352,0.33881 0.904021,0.33881 0.362614,0 0.671783,-0.106975 0.909562,-0.33881 0.315058,-0.315058 0.421929,-0.71301 0.421929,-1.218291 0,-0.505281 -0.106878,-0.909566 -0.421929,-1.224624 -0.237779,-0.22589 -0.546948,-0.333268 -0.909562,-0.333268 z m 2.900466,0 c -0.653894,0 -1.105881,0.357098 -1.105881,0.927769 0,0.469614 0.333542,0.718591 0.749655,0.873148 l 0.332477,0.125075 c 0.214003,0.07728 0.321396,0.190601 0.321396,0.333268 -0.006,0.166446 -0.160745,0.284981 -0.440137,0.284981 -0.255612,0 -0.570828,-0.118968 -0.826443,-0.255691 -0.118887,0.118889 -0.225998,0.36274 -0.231942,0.53513 0.267502,0.154556 0.677849,0.291313 1.129631,0.291313 C 23.524712,14.229253 24,13.872946 24,13.302275 24,12.820772 23.673223,12.540952 23.227387,12.374506 L 22.864829,12.24389 c -0.202113,-0.07728 -0.296855,-0.160534 -0.296855,-0.291313 0,-0.154556 0.124418,-0.267565 0.332477,-0.267565 0.291279,0 0.588679,0.107137 0.814569,0.208194 0.124832,-0.101057 0.226013,-0.362724 0.220067,-0.547003 -0.255612,-0.124835 -0.701746,-0.231943 -1.034636,-0.231943 z m -2.894925,0.582626 c 0.433948,0 0.529589,0.452151 0.529589,0.975266 0,0.51717 -0.09565,0.968933 -0.529589,0.968933 -0.439891,0 -0.535129,-0.451763 -0.535129,-0.968933 0,-0.523115 0.09524,-0.975266 0.535129,-0.975266 z m -6.787279,1.192168 a 1.7488633,1.7488633 0 0 0 -1.748671,1.74867 1.7488633,1.7488633 0 0 0 1.748671,1.748671 1.7488633,1.7488633 0 0 0 1.74867,-1.748671 1.7488633,1.7488633 0 0 0 -1.74867,-1.74867 z"/></svg>