<svg viewBox="0 0 24 24" xmlns="http://www.w3.org/2000/svg"><path d="M 12,0 C 5.373,0 0,5.371539 0,12.000504 0,18.626444 5.373,24 12,24 18.627,24 24,18.628461 24,12.000504 24,5.3735557 18.627,0.00100836 12,0.00100836 Z m 0.139,7.4013697 5.377,2.6822403 v 0.223856 H 16.99 V 10.81568 L 23.35,9.1831436 A 11.525,11.62136 0 0 1 23.102,15.660855 L 16.99,14.430654 v 0.657452 h 2.428 v 1.100121 h 0.393 l -0.002,0.250074 -2.745,1.483299 0.67,4.254275 -0.203,0.111928 A 11.72,11.817991 0 0 1 12.025,23.666233 11.68,11.777656 0 0 1 6.72,22.386622 H 6.71 v -0.003 c -0.065,-0.0333 -0.131,-0.06456 -0.195,-0.09884 L 7.2,17.938742 4.435,16.453426 4.436,16.187219 h 0.413 v -1.099113 h 2.435 v -0.655435 l -6.323,1.27356 A 11.464,11.55985 0 0 1 0.359,11.999496 c 0,-0.995252 0.125,-1.963279 0.36,-2.8869377 L 7.283,10.802571 V 10.288307 H 6.705 V 10.08361 Z M 7.283,10.802571 v 3.6301 l 0.33,-0.06756 v -3.479854 z m 0.33,0.08269 2.668,0.685685 V 10.501071 H 7.613 Z m 2.668,0.685685 v 2.258729 l 0.328,-0.06756 V 11.65464 Z m 0.328,0.08369 0.452,0.115962 0.039,-0.442671 h 2.076 l 0.04,0.456788 0.458,-0.115962 v -1.167682 h -3.065 z m 3.065,0.01412 -0.002,2.091341 0.33,0.06756 V 11.584051 L 16.66,10.900382 V 10.501071 H 14 v 1.08298 z m 2.986,-0.768371 v 3.462712 l 0.33,0.06655 V 10.81568 Z m 0,3.462712 -2.658,-0.53544 v 0.942818 h 2.658 z m -2.988,-0.603 -0.281,-0.05546 0.097,1.065838 h 0.184 z m -3.063,0.002 v 1.008361 h 0.178 l 0.096,-1.063821 z m -2.996,0.603 v 0.405361 h 2.666 v -0.940801 z m -0.904,8.01647 c 0.003,0.003 0.007,0.003 0.01,0.005 L 17.531,22.287803 17.188,20.05025 H 7.078 Z M 12.137,7.5546406 6.846,10.170329 h 10.527 z m -0.905,3.9205074 -0.298,3.295324 h 2.408 l -0.299,-3.295324 z m -3.619,3.572623 v 0.06958 h 9.235 l -0.004,-0.06958 z m -2.547,0.322676 v 0.816772 h 2.217 v -0.816772 z m 2.547,0 v 0.816772 h 3.01 v -0.816772 z m 3.229,0 v 0.816772 h 2.605 v -0.816772 z m 2.824,0 v 0.816772 h 3.18 v -0.816772 z m 3.398,0 v 0.816772 H 19.2 V 15.370447 Z M 4.848,16.429226 7.422,17.81068 h 9.422 l 2.574,-1.381454 z"/></svg>