<svg viewBox="0 0 512 512" xmlns="http://www.w3.org/2000/svg"><path d="m99.028 54.612 3.585-.016c3.223-.011 6.446-.009 9.669.001 3.382.008 6.764 0 10.147-.004 5.674-.006 11.35.002 17.024.016 6.554.016 13.108.01 19.662-.006 5.64-.013 11.279-.015 16.918-.007 3.363.004 6.726.005 10.089-.005 3.746-.007 7.492.004 11.238.02l3.364-.018c9.46.079 9.46.079 13.276 3.407 1.546 3.092 1.294 5.594 1 9-1.981 2.557-3.184 3.83-6.386 4.497l-2.7-.005-3.11.025-3.394-.035-3.588.012c-3.244.008-6.487-.002-9.731-.018-3.396-.012-6.792.002-10.188.014-9.369.03-18.737.018-28.106.007-8.587-.01-17.174-.01-25.761.02-3.38.011-6.76.014-10.141-.003-3.769-.016-7.537-.009-11.305.004l-3.394-.035-3.11.025-2.7-.005C88.17 72.173 86.982 73.42 85 76c-.594 2.027-.594 2.027-.519 4.201l-.042 2.516.015 2.733-.031 2.898c-.03 3.16-.031 6.32-.032 9.48a3478.566 3478.566 0 0 0-.129 23.876c-.02 5.885-.062 11.77-.102 17.655A9796.654 9796.654 0 0 0 84 174h17l-.105-4.715c-.029-2.074-.056-4.148-.082-6.223l-.077-3.095c-.092-9.647 1.462-17.137 8.264-24.237 6.203-5.367 12.704-6.464 20.781-6.171 7.075.97 12.304 3.824 16.719 9.441 3.42 4.93 4.755 9.163 4.695 15.176l-.015 3.161-.055 3.975L151 174h48v-23c3.02-9.059 5.557-15.011 14.125-19.5 7.6-2.887 15.884-2.8 23.313.5 6.4 3.664 10.207 9.092 12.562 16 .227 2.954.227 2.954.195 6.176l-.015 3.161-.055 3.975L249 174h48v-22c2.796-9.32 4.258-14.03 12-19.383 7.064-3.714 15.251-4.032 22.844-1.77 6.891 3.062 11.02 7.635 14.216 14.396 1.072 3.144 1.168 5.616 1.135 8.933l-.02 3.506-.05 3.63-.027 3.69c-.024 3-.06 5.999-.098 8.998h18c-.108-12.578-.22-25.156-.34-37.734-.055-5.84-.108-11.681-.157-17.521-.048-5.635-.1-11.27-.156-16.904-.02-2.151-.04-4.303-.056-6.454-.024-3.01-.054-6.02-.086-9.029l-.017-2.705-.03-2.49-.02-2.156c-.145-2.102-.568-3.983-1.138-6.007-3.083-.9-5.841-1.129-9.048-1.138l-3.084-.017-3.366-.003-3.559-.015c-3.217-.014-6.433-.023-9.65-.032-3.368-.01-6.736-.029-10.104-.047-11.47-.062-22.94-.116-34.41-.15-6.338-.018-12.675-.047-19.012-.087a1794.12 1794.12 0 0 0-10.058-.04c-3.737-.004-7.474-.027-11.211-.054l-3.366.009-3.084-.034-2.677-.01c-2.906-.468-4.263-1.348-6.371-3.382-1-3.375-1-3.375-1-7 1.766-2.802 3.03-4.515 6-6a82.488 82.488 0 0 1 4.812-.14l3.08-.018 3.391-.003 3.563-.015c3.232-.012 6.464-.02 9.696-.024l6.064-.012c6.33-.013 12.66-.023 18.989-.027 7.295-.004 14.59-.022 21.885-.05 5.644-.023 11.288-.033 16.933-.034 3.367-.001 6.735-.007 10.103-.025 3.765-.017 7.53-.015 11.295-.008l3.35-.028c7.981.043 14.426 1.13 21.152 5.571 5.585 5.846 7.797 12.405 7.827 20.443l.018 2.727.003 2.954.015 3.14c.015 3.423.022 6.845.027 10.268l.017 7.14c.01 4.986.017 9.972.02 14.959.006 6.392.03 12.785.058 19.177.019 4.914.024 9.828.026 14.742.003 2.357.01 4.714.024 7.071.017 3.294.015 6.588.008 9.881l.028 2.954c-.03 4.932-.128 8.372-3.384 12.357-2.666 2.073-4.88 2.08-8.145 2.043L366 190l.008 1.919c.067 15.45.116 30.902.147 46.353.016 7.472.037 14.945.071 22.417.03 6.518.05 13.035.056 19.553.004 3.447.013 6.893.035 10.34.025 3.86.025 7.72.024 11.581l.032 3.411c-.052 13.486-3.234 24.665-12.478 34.715-9.897 9.353-20.997 13.273-34.454 13.023-9.614-.873-17.964-4.262-25.441-10.312l-1.86-1.45c-6.39-5.612-11.485-15.166-13.14-23.55-.088-1.778-.122-3.56-.12-5.34l-.004-3.28.01-3.584v-3.785c0-3.421.006-6.842.013-10.263.006-3.577.006-7.154.008-10.73.003-6.772.01-13.544.021-20.315.011-7.71.017-15.42.022-23.13.01-15.857.028-31.715.05-47.573h-11l.02 4.665c.061 14.536.106 29.071.135 43.607.016 7.472.037 14.945.071 22.417.03 6.518.05 13.035.056 19.553.004 3.447.013 6.893.035 10.34.025 3.86.025 7.72.024 11.581l.032 3.411c-.052 13.486-3.234 24.665-12.478 34.715-9.897 9.353-20.997 13.273-34.454 13.023-9.614-.873-17.964-4.262-25.441-10.312l-1.86-1.45c-6.39-5.612-11.485-15.166-13.14-23.55-.088-1.778-.122-3.56-.12-5.34l-.004-3.28.01-3.584v-3.785c0-3.421.006-6.842.013-10.263.006-3.577.006-7.154.008-10.73.003-6.772.01-13.544.021-20.315.011-7.71.017-15.42.022-23.13.01-15.857.028-31.715.05-47.573h-11l.02 4.671c.061 14.551.106 29.102.135 43.653.016 7.48.037 14.96.071 22.44.03 6.524.05 13.048.056 19.572.004 3.45.013 6.9.035 10.351.025 3.864.025 7.726.024 11.59l.032 3.422c-.055 14.266-4.122 25.58-13.889 35.969-9.292 8.723-20.56 12.024-33.148 11.68-12.769-1.331-22.767-6.993-31.547-16.141-7.773-9.588-9.09-19.85-9.016-31.752v-3.786c0-3.409.01-6.817.024-10.226.013-3.568.014-7.137.016-10.706.006-6.75.023-13.5.043-20.25.022-7.688.033-15.376.043-23.064.021-15.808.056-31.615.101-47.423l-3.785.086c-4.082.093-6.724-.872-10.215-3.086-1.655-3.31-1.1-6.991-1.062-10.625l.013-2.43c.012-1.981.03-3.963.049-5.945-2.064.257-4.126.531-6.187.812l-3.481.458c-5.094 1.116-7.448 2.456-10.446 6.777-2.381 4.335-2.444 8.205-2.387 13.068l-.017 2.716c-.014 2.99.001 5.981.016 8.972a3346.633 3346.633 0 0 0-.003 23.932c.014 6.1.008 12.2.004 18.3-.002 10.244.011 20.487.034 30.73.027 11.843.029 23.686.017 35.53-.01 11.393-.005 22.787.01 34.18.005 4.85.005 9.698 0 14.547-.004 5.708.006 11.417.028 17.125.005 2.096.006 4.191 0 6.287-.005 2.86.007 5.718.024 8.577l-.018 2.515c.054 4.892.717 8.229 3.406 12.474 4.524 4.082 6.952 5.124 12.977 5.138l3.862.017 4.262.003c1.49.004 2.98.01 4.469.015 3.213.011 6.426.02 9.638.026 5.08.01 10.16.031 15.24.053 14.448.062 28.896.116 43.343.15 7.976.018 15.951.047 23.927.087 4.222.021 8.443.037 12.665.04 3.972.001 7.943.017 11.915.044 1.457.007 2.915.009 4.372.005 1.99-.003 3.981.013 5.972.03l3.375.01c3.372.432 5.264 1.372 7.983 3.382 1.546 3.092 1.294 5.594 1 9-2.136 2.887-3.33 3.884-6.9 4.503l-3.436.005-3.95.034-4.33-.024c-1.521.005-3.042.012-4.564.02-4.132.02-8.265.012-12.397 0-4.33-.01-8.66-.001-12.99.005-7.28.007-14.557-.002-21.836-.022-8.398-.021-16.795-.014-25.193.008-7.219.018-14.438.02-21.657.01-4.307-.006-8.614-.007-12.921.006-4.057.012-8.113.004-12.17-.02a466.53 466.53 0 0 0-4.447.006c-12.105.065-21.225-1.745-30.229-10.238-6.196-7.175-8.13-14.839-8.127-24.09l-.011-2.759c-.011-3.063-.015-6.125-.019-9.188l-.02-6.574c-.017-5.963-.028-11.926-.036-17.889-.005-3.726-.011-7.451-.018-11.177a35767.242 35767.242 0 0 1-.046-41.013c-.008-10.773-.033-21.546-.066-32.318-.033-11.068-.05-22.135-.054-33.203a5073.94 5073.94 0 0 0-.036-18.633c-.024-5.846-.028-11.692-.018-17.539 0-2.142-.006-4.284-.02-6.426-.017-2.933-.01-5.865.003-8.798l-.033-2.546C28.58 175.744 32.293 166.664 39 160c9.381-6.978 17.508-8.258 29-8v-13c-16.188.654-29.283 3.645-40.75 15.687-12.234 15.069-11.55 32.61-11.509 50.973l-.01 6.15c-.01 5.529-.006 11.058 0 16.587.005 5.807 0 11.614-.002 17.422-.004 9.748 0 19.496.01 29.245.011 11.245.008 22.49-.003 33.734-.01 9.684-.01 19.368-.006 29.051.004 5.771.004 11.542-.003 17.313-.005 5.427-.001 10.853.01 16.28.003 1.982.002 3.965-.002 5.948-.334 19.668-.334 19.668 5.64 38.11l1.773 3.406c6.3 10.528 16.08 16.97 27.852 20.094a62.235 62.235 0 0 0 11.905 1.131l3.53.012 3.848-.003 4.11.01c3.76.007 7.52.01 11.28.01 4.058.002 8.115.01 12.173.016 8.87.014 17.74.02 26.61.024l16.623.012c15.348.012 30.697.022 46.045.026h5.959l5.983.002h2.998c16.026.005 32.05.022 48.076.046 16.462.023 32.925.036 49.387.037 9.24 0 18.478.007 27.717.025 7.869.015 15.737.02 23.606.012 4.011-.004 8.023-.003 12.034.011 3.68.013 7.358.012 11.037 0 1.948-.003 3.895.008 5.842.02 13.996-.077 26.17-3.217 36.815-12.684 11.302-11.77 13.648-24.97 14.047-40.707l.117-3.793c.094-3.069.177-6.138.258-9.207h-13l.105 4.61c.473 28.952.473 28.952-9.105 39.39-6.994 5.937-13.356 9.236-22.655 9.274l-1.95.016c-2.141.015-4.283.016-6.425.016a3112.116 3112.116 0 0 1-17.15.061c-2.608.004-5.217.01-7.826.017-9.102.025-18.203.038-27.305.042a5657.7 5657.7 0 0 0-25.456.075c-7.287.035-14.575.05-21.862.05-4.352.002-8.704.01-13.056.039a1189 1189 0 0 1-12.267.012c-1.502-.002-3.003.005-4.504.02-2.048.021-4.095.008-6.143-.007l-3.474.006C236 427 236 427 233.596 424.688 232 422 232 422 232.063 418.375c1.254-4.518 1.254-4.518 3.937-6.375 3.257-1.086 5.632-1.13 9.06-1.138 1.267-.005 2.535-.01 3.84-.017 1.408 0 2.815-.002 4.223-.003l4.44-.015c3.188-.011 6.377-.02 9.566-.026 5.042-.01 10.085-.031 15.127-.053 14.34-.062 28.678-.116 43.017-.15a8398.23 8398.23 0 0 0 23.755-.087c4.19-.021 8.38-.037 12.57-.04 3.942-.001 7.883-.017 11.825-.044a592.28 592.28 0 0 1 4.338-.005c1.975.003 3.95-.013 5.925-.03l3.349-.01c3.336-.43 5.189-1.545 7.965-3.382h2c4.03-7.198 4.373-14.368 4.625-22.438l.117-3.083c.094-2.493.18-4.986.258-7.479l-2.887.07-3.8.055-3.762.07c-3.468-.19-5.568-.45-8.551-2.195-2.762-3.766-3.378-6.44-3.388-11.072l-.029-3.641.019-3.908a3127.3 3127.3 0 0 0-.01-4.038c-.004-2.817.003-5.634.017-8.45.017-3.6.007-7.198-.01-10.797-.012-2.779-.008-5.558 0-8.336.003-1.969-.007-3.937-.016-5.906l.029-3.65.007-3.198c.449-3.537 1.557-5.957 3.381-9.004 3.31-1.655 6.991-1.1 10.625-1.063l2.43.014c1.981.012 3.963.03 5.945.049v-14h-3.937c-6.323-.69-9.956-4.407-14.063-9-3.383-4.864-4.141-10.154-4-16 1.216-6.764 4.063-12.061 9.633-16.219 4.061-2.55 7.68-3.216 12.367-3.781l-.011-2.135c-.089-17.187-.155-34.374-.196-51.561a8176.94 8176.94 0 0 0-.095-24.936c-.04-7.25-.065-14.5-.074-21.75-.006-3.833-.018-7.667-.047-11.501-.027-3.62-.035-7.238-.03-10.857a546.58 546.58 0 0 0-.045-5.821c.074-15.89 5.39-28.65 16.178-40.15C428.45 60.663 441.839 55.2 457 54.625c16.435.647 29.565 6.756 41 18.375l1.777 1.781c4.146 4.473 6.95 9.579 9.223 15.219l.793 1.959c2.64 7.441 2.732 14.876 2.708 22.675a340.26 340.26 0 0 0 .085 6.772c.005 1.446.008 2.89.008 4.336l.021 3.933C512 133 512 133 509.963 135.423c-3.712 1.976-6.863 2.136-10.967 2.073l-2.304.005a401.945 401.945 0 0 1-4.803-.034c-2.447-.03-4.893-.021-7.34-.008-1.56-.006-3.119-.015-4.678-.025l-2.21.008c-3.117-.057-5.337-.263-8.09-1.782-2.788-2.946-2.708-5.948-2.782-9.808l-.086-3.047a875.316 875.316 0 0 1-.133-6.336c-.093-7.267-.093-7.267-3.57-13.469-3.192-1.596-6.535-1.515-10-1-2.431 1.87-3.64 3.281-5 6a77.945 77.945 0 0 0-.126 4.646l-.012 2.923-.003 3.17c-.018 2.203-.038 4.407-.058 6.61a1276.9 1276.9 0 0 0-.051 10.449c-.004 3.355-.038 6.71-.078 10.065l.021 3.151c-.121 7.22-.121 7.22-3.047 11.143C442 162 442 162 439 162.625c-4.224-.88-5.427-2.143-8-5.625-.741-3.847-.677-7.64-.629-11.547l-.007-3.411c0-2.38.014-4.761.04-7.142.033-3.623.02-7.245 0-10.869.007-2.317.017-4.635.03-6.953l-.015-3.258c.129-8.345 2.167-14.127 6.706-21.07 5.919-5.661 11.664-8.053 19.875-8.375 8.32.335 14.702 2.823 20.438 8.937 6.55 8.721 5.902 17.299 5.562 27.688h14c-1.138-16.24-3.024-29.711-16-41-9.245-6.42-19.382-9.545-30.594-7.535C439.245 75.115 430.682 80.618 424 90c-3.384 6.12-5.113 11.685-5.158 18.682l-.03 3.51-.017 3.838-.03 4.051c-.027 3.663-.048 7.326-.068 10.989-.022 3.829-.05 7.658-.076 11.487-.05 7.25-.095 14.499-.138 21.748-.05 8.254-.105 16.508-.16 24.762-.114 16.978-.22 33.955-.323 50.933h13l-.08-4.97c-.09-6.084-.147-12.169-.195-18.254-.025-2.633-.059-5.267-.102-7.9-.06-3.786-.09-7.57-.111-11.356l-.078-3.568c-.004-9.107-.004-9.107 2.909-12.195C436 180 436 180 439 179.375c3.09.644 4.789 1.461 6.96 3.762 2.394 4.286 1.633 9.62 1.528 14.383l-.021 3.677c-.028 3.873-.09 7.744-.154 11.615a4486.72 4486.72 0 0 0-.069 7.881A2470.3 2470.3 0 0 1 447 240l1.881.387 2.463.523 2.444.511c5.646 1.478 9.807 6.385 12.712 11.266 2.551 5.865 2.566 12.54.84 18.649-2.655 6-7.22 10.03-12.965 13.039C452 285 452 285 447 285v14l3.578-.14a3509.9 3509.9 0 0 1 4.672-.11l2.355-.102 2.286-.039 2.094-.063c3.02.68 4.17 2.01 6.015 4.454.454 2.749.454 2.749.39 5.86l-.038 3.378-.102 3.512-.055 3.559A858.374 858.374 0 0 1 468 328h14l-.25-4.75c.014-4.878.014-4.878 1.875-7.813 2.946-1.783 4.923-2.367 8.375-2.437 4.565 2.13 4.565 2.13 6 5 .284 5.083.314 10.167.35 15.257.017 1.698.044 3.397.082 5.095.055 2.452.077 4.902.091 7.355l.07 2.289c-.017 4.005-.431 5.798-2.938 8.983C493 359 493 359 490 359.625c-4.217-.879-5.574-2.057-8-5.625-.416-3.448-.233-6.505 0-10h-14l.14 5.328c.038 2.307.075 4.615.11 6.922l.102 3.512.039 3.379.063 3.11c-.574 3.478-1.715 4.6-4.454 6.749-3.56 1.187-6.438 1.097-10.187 1.062l-3.856-.027L447 374l.063 2.424c.68 29.889.68 29.889-4.063 41.576l-1.215 3.133C434.755 437.068 420.92 447.736 405 454c-9.412 3.19-18.716 3.147-28.548 3.14l-4.124.01c-3.763.007-7.526.01-11.289.01-4.064.002-8.128.01-12.192.016-8.88.014-17.761.02-26.641.024-5.55.003-11.1.007-16.649.012-15.378.012-30.755.022-46.133.026H253.457l-5.992.002h-3.002c-16.046.005-32.093.022-48.139.046-16.492.023-32.983.036-49.475.037-9.253 0-18.505.007-27.758.025-7.88.015-15.76.02-23.639.012-4.016-.004-8.031-.003-12.047.011-3.686.013-7.37.012-11.056 0a739.4 739.4 0 0 0-5.837.02C49.442 457.298 34.06 453.206 21 442l-2.504-1.895C8.747 431.882 2.11 418.465 0 406c-.574-7.456-.421-14.958-.404-22.431a4820.761 4820.761 0 0 1-.032-25.306c.003-5.151-.003-10.303-.009-15.454-.015-12.852-.011-25.704 0-38.555.01-11.136-.002-22.272-.026-33.407-.024-11.462-.034-22.924-.027-34.387.003-6.423 0-12.847-.017-19.271-.015-6.043-.011-12.085.008-18.128.003-2.21 0-4.42-.01-6.63-.092-20.95 3.501-37.214 18.662-52.7 11.786-11.27 25.958-16.903 42.152-16.774l2.247.01c1.819.007 3.637.02 5.456.033l-.027-1.838c-.089-6.343-.149-12.686-.193-19.03-.02-2.364-.047-4.727-.082-7.09-.049-3.41-.071-6.817-.089-10.226l-.062-3.173c-.002-7.361 1.051-13.853 6.116-19.495 7.348-7.049 15.668-7.59 25.365-7.536ZM118 151c-1.226 2.453-1.114 4.05-1.098 6.79l.01 2.85.026 2.985.013 3.008c.012 2.456.03 4.911.049 7.367h18c.135-3.73.234-7.456.313-11.188l.126-3.197c.152-6.33.152-6.33-2.74-11.814-6.158-4.109-10.333-2.195-14.699 3.199Zm98 0c-1.226 2.453-1.114 4.05-1.098 6.79l.01 2.85.026 2.985.013 3.008c.012 2.456.03 4.911.049 7.367h18c.135-3.73.234-7.456.313-11.188l.126-3.197c.152-6.33.152-6.33-2.74-11.814-6.158-4.109-10.333-2.195-14.699 3.199Zm98 0c-1.226 2.453-1.114 4.05-1.098 6.79l.01 2.85.026 2.985.013 3.008c.012 2.456.03 4.911.049 7.367h18c.135-3.73.234-7.456.313-11.188l.126-3.197c.152-6.33.152-6.33-2.74-11.814-6.158-4.109-10.333-2.195-14.699 3.199ZM99 190v31h55v-31H99Zm98 0v31h55v-31h-55Zm98 0v31h55v-31h-55ZM99 237v25h55v-25H99Zm98 0v25h55v-25h-55Zm98 0v25h55v-25h-55Zm103.42 20.912c-1.968 2.803-1.968 2.803-2.42 6.088 2.134 3.277 3.25 4.75 7 6 1.4.1 2.805.148 4.208.161l2.56.03 2.755.012 2.844.017c1.985.01 3.97.016 5.956.02 3.033.01 6.066.041 9.099.072 1.93.007 3.86.012 5.789.016l2.743.038c4.779-.017 8.26-.091 12.046-3.366 1.33-3.4 1.33-3.4 1-7-2.138-2.521-3.906-3.816-7.205-4.371-2.743-.16-5.457-.183-8.205-.16l-3.044-.012c-2.119-.003-4.238.005-6.357.022-3.244.021-6.486 0-9.73-.026-2.06.003-4.121.008-6.182.016l-2.939-.025c-5.334.006-5.334.006-9.918 2.468ZM99 278l-.312 18.375-.138 5.736c-.16 11.287 1.07 18.964 8.638 27.764 5.319 4.87 11.634 7.276 18.812 7.625 7.767-.366 14.785-3.436 20.465-8.727 6.327-7.308 7.699-14.48 7.633-23.918l-.003-2.07c-.006-2.532-.02-5.065-.032-7.598L154 278H99Zm98 0-.312 18.375-.138 5.736c-.15 10.606.63 18.083 7.626 26.51 7.036 5.982 12.858 9.058 22.242 8.727 7.63-1.028 14.536-4.506 19.582-10.348 4.788-7.15 6.156-12.708 6.098-21.266l-.003-2.132c-.006-2.617-.02-5.235-.032-7.852L252 278h-55Zm98 0-.312 18.375-.138 5.736c-.15 10.606.63 18.083 7.626 26.51 7.036 5.982 12.858 9.058 22.242 8.727 7.63-1.028 14.536-4.506 19.582-10.348 4.788-7.15 6.156-12.708 6.098-21.266l-.003-2.132c-.006-2.617-.02-5.235-.032-7.852L350 278h-55Zm123 7v14h13v-14h-13Zm-22 30v43h56v-43h-56Z m311.219 100.434 2.712-.02c1.89-.006 3.779-.003 5.668.01 2.891.013 5.78-.02 8.67-.059 1.838 0 3.675.001 5.512.006l2.617-.04c5.959.092 5.959.092 9.182 2.982 1.938 3.668 1.515 5.744.42 9.687-1.975 2.821-3.694 3.383-7 4-2.548.118-5.068.188-7.617.203l-2.227.017c-1.551.01-3.103.016-4.655.02-2.361.01-4.722.041-7.083.073-1.512.006-3.023.011-4.535.015l-2.122.038c-4.647-.021-7.82-.906-11.761-3.366-1.546-3.092-1.294-5.594-1-9 3.362-5.104 7.654-4.598 13.219-4.566ZM213.219 100.434l2.712-.02c1.89-.006 3.779-.003 5.668.01 2.891.013 5.78-.02 8.67-.059 1.838 0 3.675.001 5.512.006l2.617-.04c5.959.092 5.959.092 9.182 2.982 1.938 3.668 1.515 5.744.42 9.687-1.975 2.821-3.694 3.383-7 4-2.548.118-5.068.188-7.617.203l-2.227.017c-1.551.01-3.103.016-4.655.02-2.361.01-4.722.041-7.083.073-1.512.006-3.023.011-4.535.015l-2.122.038c-4.647-.021-7.82-.906-11.761-3.366-1.546-3.092-1.294-5.594-1-9 3.362-5.104 7.654-4.598 13.219-4.566ZM115.219 100.434l2.712-.02c1.89-.006 3.779-.003 5.668.01 2.891.013 5.78-.02 8.67-.059 1.838 0 3.675.001 5.512.006l2.617-.04c5.959.092 5.959.092 9.182 2.982 1.938 3.668 1.515 5.744.42 9.687-1.975 2.821-3.694 3.383-7 4-2.548.118-5.068.188-7.617.203l-2.227.017c-1.551.01-3.103.016-4.655.02-2.361.01-4.722.041-7.083.073-1.512.006-3.023.011-4.535.015l-2.122.038c-4.647-.021-7.82-.906-11.761-3.366-1.546-3.092-1.294-5.594-1-9 3.362-5.104 7.654-4.598 13.219-4.566Z"/></svg>