<svg viewBox="0 0 512 512" xmlns="http://www.w3.org/2000/svg"><path d="m39.368 4.866 3.453-.013 3.808.002 3.996-.01c3.627-.01 7.253-.012 10.88-.012 2.268-.001 4.537-.003 6.805-.006 7.923-.009 15.846-.013 23.77-.012 7.368 0 14.736-.01 22.105-.026 6.334-.013 12.67-.018 19.004-.018 3.779 0 7.558-.002 11.337-.013 3.563-.01 7.126-.01 10.69-.003 1.914.002 3.829-.006 5.743-.015C176.98 4.798 190.242 8.072 203 18l2.54 1.898C216.384 29.161 222.277 43.138 224 57c.302 6.001.184 11.997 0 18h7l-.027-2.206c-.08-6.871-.141-13.742-.18-20.613-.021-3.532-.05-7.064-.095-10.596-.052-4.064-.071-8.127-.089-12.19l-.062-3.833-.001-3.578-.027-3.143c.606-3.581 1.994-5.245 4.481-7.841 3.233-1.617 6.778-1.206 10.332-1.238l2.511-.025c1.756-.014 3.513-.024 5.269-.032 2.68-.017 5.359-.061 8.038-.105 1.707-.01 3.413-.019 5.12-.026l2.421-.053c3.969.016 5.859.192 9.292 2.38 3.189 3.318 3.14 5.236 3.13 9.742v3.58l-.015 3.879-.005 3.96c-.003 3.475-.013 6.95-.024 10.425-.01 3.546-.015 7.092-.02 10.638-.01 6.958-.028 13.917-.049 20.875h7l-.07-3.332c-.26-17.34 2.162-31.65 13.07-45.668l1.879-2.508C312.666 11.993 326.445 6.97 341 5c4.584-.273 9.155-.284 13.746-.275l4.03-.015c3.613-.013 7.226-.014 10.839-.012 3.025.001 6.05-.003 9.074-.008 7.133-.011 14.266-.012 21.399-.006 7.35.006 14.7-.006 22.05-.027 6.327-.018 12.654-.024 18.981-.02 3.773.001 7.545-.001 11.317-.015 4.198-.015 8.396-.006 12.595.006l3.775-.023 3.466.02h3.004c3.22.443 5.11 1.475 7.724 3.375 1.138 2.276 1.144 3.582 1.177 6.11l.039 2.57.022 2.78.025 2.856c.014 1.995.024 3.991.032 5.987.017 3.053.061 6.105.105 9.158.01 1.937.019 3.875.026 5.812l.053 2.77-.009 2.587.018 2.27c-.703 3.027-2.101 4.15-4.488 6.1-2.645.505-2.645.505-5.713.512l-3.531.038-3.862-.02a1434.856 1434.856 0 0 1-15.133.045c-3.854-.001-7.708.022-11.562.042-7.298.036-14.595.052-21.893.06-10.725.013-21.45.051-32.174.094l-2.38.01-4.694.019c-4.594.018-9.189.029-13.783.034-2.85.004-5.701.011-8.552.02-1.962.004-3.923.003-5.885.003l-3.506.012-3.065.004c-2.235-.127-2.235-.127-3.267 1.127a253.531 253.531 0 0 0-.562 8.563l-.131 2.443A1762.98 1762.98 0 0 0 340 76l3.266.805c3.46 1.107 5.016 1.793 7.484 4.32l1.672 1.633c5.547 7.881 4.943 15.947 4.766 25.242-.016 1.36-.03 2.721-.042 4.082A1218.66 1218.66 0 0 1 357 122l3.723.395c11.243 1.417 21.235 8.55 28.422 17.043C397.69 151.24 400.284 163.726 399 178c-2.491 13.783-9.815 24.703-21 33-9.635 5.882-19.572 8.074-30.766 8.023l-2.977-.01L342 219l.011 3.26c.09 26.244.155 52.488.196 78.731.02 12.692.049 25.383.095 38.075.04 11.068.065 22.137.074 33.205.006 5.855.018 11.71.047 17.564.027 5.524.035 11.048.03 16.572 0 2.015.008 4.03.024 6.044.113 15.507-.94 31.264-8.102 45.362l-1.023 2.09c-10.273 20.136-28.136 35.275-49.393 42.822-7.139 2.259-14.462 3.971-21.959 4.275l-2.719.121c-23.72.53-44.643-7.49-62.281-23.121-.684-.59-1.369-1.18-2.074-1.79-15.224-14.056-24.183-35.738-25.284-56.23-.177-5.496-.138-10.988-.096-16.484a3240.443 3240.443 0 0 1 .049-23.13c.025-5.894.027-11.787.032-17.68.012-11.135.045-22.27.085-33.403.045-12.687.067-25.374.087-38.061.041-26.074.112-52.148.201-78.222l-2.294.007-3.006.005-2.98.007c-13.98-.096-26.532-5.819-36.532-15.507-10.318-11.847-13.373-25.2-12.4-40.496 1.208-11.516 7.638-22.351 15.946-30.2C136.013 126.981 145.532 122 155 122l-.048-2.535c-.051-3.139-.089-6.277-.117-9.416a753.14 753.14 0 0 0-.099-6.037c-.06-8.121.045-14.438 4.842-21.254l1.672-1.633 1.64-1.68c2.854-1.955 5.775-2.623 9.11-3.445-.14-2.813-.287-5.625-.437-8.437l-.12-2.432c.152-3.883.152-3.883-1.443-7.131-1.775-.1-3.554-.13-5.332-.131l-3.506-.012-3.88.001-4.06-.01c-2.92-.008-5.842-.013-8.763-.017-4.617-.006-9.235-.022-13.852-.041l-4.739-.019-2.397-.01c-10.755-.042-21.51-.075-32.264-.087-7.248-.008-14.497-.03-21.745-.07-3.837-.02-7.675-.031-11.513-.026-3.61.004-7.22-.01-10.831-.037-1.958-.01-3.916-.001-5.874.009l-3.53-.038-3.07-.007C31.293 56.865 30.103 55.634 28 53c-.508-2.087-.508-2.087-.518-4.338l-.038-2.569.025-2.75-.012-2.846c-.003-1.983.005-3.967.022-5.95.02-3.036 0-6.07-.026-9.106.003-1.928.008-3.856.016-5.785l-.025-2.75c.094-6.29.094-6.29 2.464-9.447 3.406-2.375 5.328-2.586 9.46-2.593ZM45 22v18l4.754.011c14.802.037 29.603.095 44.404.173 7.61.04 15.218.072 22.827.087 6.636.013 13.271.04 19.907.084 3.51.022 7.02.038 10.53.037 3.929-.001 7.857.03 11.785.062l3.49-.015c6.967.09 13.251.858 19.303 4.561 4.252 4.929 5.994 9.882 6.316 16.328l.116 2.185.13 2.737L189 75h18c.398-15.374-.439-28.447-11.191-40.445-8.349-8.121-18.5-12.687-30.194-12.675l-3.233-.004-3.516.01h-3.726c-3.364 0-6.727.006-10.09.013-3.518.006-7.036.006-10.554.008-6.658.003-13.316.01-19.974.021-7.582.011-15.163.017-22.745.022-15.592.01-31.185.028-46.777.05Zm267.793 16.434c-6.221 8.905-7.98 18.333-7.855 28.941L305 75h18l.25-8.375c.39-8.344 1.172-15.757 7.063-22.125 7.135-3.983 14.15-3.804 22.14-3.819l3.757-.03c3.381-.026 6.763-.043 10.145-.056 3.54-.015 7.081-.042 10.622-.068 6.697-.046 13.394-.083 20.09-.116 7.628-.039 15.256-.088 22.883-.138 15.684-.104 31.367-.193 47.05-.273V22c-16.204-.093-32.408-.164-48.612-.207-7.525-.02-15.05-.049-22.574-.095-6.564-.04-13.128-.065-19.693-.074-3.47-.006-6.941-.018-10.412-.047-3.889-.033-7.778-.033-11.667-.031l-3.428-.044c-15.26.078-27.917 5.249-37.821 16.932ZM248 27v48h16V27h-16Zm-76 69v25h168V96c-4.415-4.415-4.73-4.5-10.528-4.508l-1.982-.019c-2.19-.016-4.378-.003-6.568.01a1764.219 1764.219 0 0 0-17.504-.02c-4.462.01-8.923 0-13.384-.006-7.492-.007-14.984.002-22.475.022-8.664.021-17.328.014-25.992-.008a5796.82 5796.82 0 0 0-22.308-.01c-4.442.006-8.885.007-13.327-.006-4.176-.012-8.352-.004-12.529.02-1.533.005-3.066.003-4.6-.006-2.092-.01-4.183.003-6.275.023l-3.548.005c-3.553.304-3.553.304-6.98 4.503Zm-35 54c-6.588 7.94-7.837 15.82-7 26 1.601 8.585 6.192 15.25 13.25 20.313 10.178 6.883 21.987 6.117 33.719 6.075 1.916.004 3.832.01 5.749.016 5.181.014 10.363.009 15.545-.001 5.435-.008 10.87 0 16.305.004 9.126.006 18.252-.002 27.377-.016 10.535-.016 21.07-.01 31.605.006 9.062.013 18.123.015 27.185.007 5.405-.004 10.81-.005 16.215.005 5.082.009 10.165.002 15.247-.015 1.86-.004 3.72-.003 5.58.004 13.404.043 24.481-.209 34.848-9.835L375 190l2.125-2.25c5.369-7.874 6.152-16.982 4.406-26.234-2.47-8.526-7.545-14.287-14.797-19.192-10.36-5.017-20.445-4.752-31.703-4.712-1.916-.004-3.832-.01-5.749-.016a3478.32 3478.32 0 0 0-15.545.001c-5.435.008-10.87 0-16.305-.004-9.126-.006-18.252.002-27.377.016-10.535.016-21.07.01-31.605-.006-9.062-.013-18.123-.015-27.185-.007-5.405.004-10.81.005-16.215-.005-5.082-.009-10.165-.002-15.247.015-1.86.004-3.72.003-5.58-.004-14.866-.048-26.58.664-37.223 12.398Zm59 69c.61.913.61.913 1.23 1.845l1.625 2.435 1.606 2.408c.945 1.42 1.887 2.84 2.826 4.264 6.904 10.433 15.264 16.154 25.95 22.381 3.059 1.845 6.027 3.798 8.997 5.784l3.158 2.11c2.047 1.374 4.09 2.753 6.13 4.138l2.822 1.873 2.506 1.689c2.242 1.435 2.242 1.435 5.15.073.74-1.766.74-1.766 1.063-3.93l.476-2.41.461-2.535c.302-1.645.614-3.289.938-4.93l.402-2.218c.794-2.378 1.707-3.423 3.66-4.977 3.137-.95 3.137-.95 6.688-1.687l3.574-.762L278 244c-3.845-3.896-7.798-7.655-11.812-11.375l-1.752-1.633a264.24 264.24 0 0 0-3.498-3.19C259 226 259 226 257.342 224.165c-3.861-3.995-6.7-5.633-12.299-5.96-2.285.001-4.571.04-6.855.111l-3.666.03c-3.842.04-7.68.127-11.522.217-2.613.035-5.227.067-7.84.095-6.388.077-12.774.194-19.16.342Zm81 0c4.036 4.709 7.393 8.428 12 12.293 2 1.707 2 1.707 3.75 3.445 3.163 3.068 5.027 4.503 9.5 4.575 6.748.299 10.993 5.365 15.75 9.687l7 6v-36h-48Zm-90 18v70l10-2 4.414-.727c7.765-1.451 7.765-1.451 14.052-5.894 2.533-3.87 4.202-8.053 5.777-12.386 1.084-2.854 2.497-5.525 3.882-8.243 1.306-2.41 1.306-2.41 1.875-4.75-1.265-3.53-2.989-4.95-6.14-6.875l-2.497-1.547L215.75 263c-2.512-1.545-5.023-3.09-7.53-4.642a254.098 254.098 0 0 0-5.435-3.217c-3.82-2.937-6.325-6.483-9.097-10.391-1.056-1.465-2.115-2.93-3.176-4.39l-1.392-1.955L188 237h-1Zm98.625 22-2.809.578c-2.273.469-4.545.943-6.816 1.422a1089.03 1089.03 0 0 0-2.062 9.188l-.604 2.619c-2.01 9.2.26 15.956 5.123 23.935 4.086 5.61 9.775 8.647 15.793 11.883l3.23 1.74c5.387 3.067 5.387 3.067 11.248 2.86 2.352-1.268 3.84-2.519 5.647-4.475 1.705-1.83 3.311-3.529 5.36-4.973 3.755-2.746 5.7-4.758 6.511-9.43.125-1.758.186-3.522.192-5.284l.013-2.803c-.393-6.533-2.22-10.206-6.847-14.795a126.592 126.592 0 0 0-8.55-6.902c-2.035-1.548-3.847-3.221-5.706-4.973-2.273-1.942-3.12-2.55-6.137-3.09-4.559.71-9.072 1.547-13.586 2.5ZM241 281l-1.146 2.599c-1.41 3.192-2.825 6.382-4.243 9.571a1692.8 1692.8 0 0 0-1.83 4.138c-.877 1.988-1.76 3.973-2.644 5.958l-1.603 3.618c-3.22 6.54-3.22 6.54-6.265 7.874-2.274.765-4.558 1.414-6.874 2.039l-2.544.723a1079.88 1079.88 0 0 1-8.038 2.23c-1.818.51-3.635 1.022-5.452 1.535A2232.84 2232.84 0 0 1 187 325v15l3.375-2.937c3.635-3.164 6.184-4.714 11.21-4.668 7.42 1.86 13.53 9.546 18.728 14.906 4.187 4.216 8.315 8.108 13.687 10.699l1.082-1.769c1.657-2.704 3.319-5.405 4.98-8.106l1.702-2.781c1.149-1.865 2.315-3.72 3.498-5.564 1.763-2.743 1.763-2.743 3.208-5.58 2.423-4.227 4.212-6.658 8.8-8.544 3.869-.973 7.728-1.682 11.668-2.281 1.365-.24 2.73-.483 4.095-.73A451.383 451.383 0 0 1 283 321c-2.684-2.138-5.239-3.588-8.36-4.984-5.972-3.268-8.012-8.328-10.89-14.266-4.997-9.596-9.588-16.35-19.75-20.75h-3Zm81.512 42.426-3.625 3.75L317 329l-1.52 1.486c-3.77 2.301-7.745 2.791-12.058 3.557l-2.808.525c-2.953.55-5.908 1.085-8.864 1.62-2.005.37-4.01.742-6.016 1.115-4.91.91-9.82 1.807-14.734 2.697 1.573 3.146 4.738 3.578 7.887 4.723 1.428.543 2.856 1.088 4.283 1.634 2.249.854 4.5 1.699 6.76 2.52 9.087 3.316 15.77 5.93 20.07 15.123a565.788 565.788 0 0 0 2.887 5.035 830.584 830.584 0 0 1 4.232 7.65l1.393 2.475 1.233 2.239L321 383h3c1.271-1.048 1.271-1.048 1.12-3.398l-.006-3.223v-3.64l-.016-3.962-.005-4.031c-.003-3.543-.013-7.086-.024-10.628-.01-3.613-.015-7.226-.02-10.839-.01-7.093-.028-14.186-.049-21.279-1.223-.115-1.223-.115-2.488 1.426Zm-132.787 35.963c-5.387 6.28-4.696 14.459-4.475 22.299l.023 2.6c.232 15.927 4.246 27.988 15.417 39.839 3.684 2.987 7.6 4.426 12.31 4.873 4.538-.631 7.074-3.556 10.25-6.625 1.17-1.106 2.34-2.212 3.512-3.316l1.7-1.614c1.827-1.717 3.7-3.372 5.6-5.007 5.424-4.69 10.667-9.58 15.938-14.438-1.572-4.044-4.452-6.506-7.625-9.312l-1.645-1.481a805.276 805.276 0 0 0-10.605-9.332c-2.743-2.42-5.434-4.897-8.125-7.375-4.016-3.696-8.054-7.36-12.184-10.93-1.271-1.1-2.534-2.21-3.789-3.328l-1.902-1.68-1.68-1.496c-4.311-3.18-9.717 3.326-12.72 6.323ZM256 354a81.842 81.842 0 0 0-4.812 7.25l-1.311 2.066c-2.374 3.691-2.374 3.691-2.459 7.868 2.095 2.405 4.316 4.514 6.707 6.629l2.977 2.648L260 383l2.398 2.102a809.46 809.46 0 0 0 3.946 3.425L268 390l1.688 1.45c1.954 2.308 1.845 4.644 1.722 7.57-.701 3.387-2.809 4.821-5.41 6.98a301.27 301.27 0 0 0-3.312 3.375C257.445 414.617 251.84 419.437 246 424c.588 4.841 2.077 8.96 4.063 13.375l.853 1.941A802.631 802.631 0 0 0 253 444c3.58 0 3.95-.531 6.5-2.875l2.125-1.93L264 437a8756.67 8756.67 0 0 1 5.5-5l2.848-2.598a404.938 404.938 0 0 1 6.59-5.84c3.409-2.96 6.74-6.004 10.062-9.062 6.527-6.006 13.158-11.856 20-17.5-2.216-5.794-5.153-11.128-8.125-16.562l-1.648-3.155c-3.608-6.553-6.21-9.803-13.227-12.283-2.196-.928-4.39-1.86-6.582-2.797-2.409-.988-4.819-1.972-7.23-2.953l-3.717-1.535-3.553-1.45-3.226-1.319c-2.688-1.112-2.688-1.112-5.692-.946Zm63.438 56.063c-3.08 2.8-6.165 5.588-9.313 8.312-3.967 3.453-7.832 7.014-11.7 10.575a464.297 464.297 0 0 1-10.347 9.222c-3.606 3.172-7.128 6.438-10.66 9.691C275 450 275 450 272 452v2c4.478 1.884 8.962 3.753 13.452 5.61 1.527.632 3.051 1.27 4.574 1.911a901.61 901.61 0 0 0 6.583 2.733l2.059.877c2.68 1.09 4.773 1.923 7.687 1.643 7.28-3.427 11.798-14.783 14.645-21.774 4.626-12.89 4.463-25.449 4-39-2.097 0-4.144 2.765-5.562 4.063ZM189 436c1.987 12.803 8.938 26.627 19.238 34.77L210 472c3.946-1.658 6.934-4.347 10.125-7.125 1.151-.99 2.304-1.978 3.457-2.965l1.733-1.484c3.82-3.233 7.754-6.329 11.685-9.426-.587-3.253-1.362-6.234-2.562-9.312L233 438c-4.37 1.324-6.852 3.557-9.96 6.758-3.711 2.26-7.38 1.585-11.508.733-2.76-.686-5.488-1.449-8.22-2.241l-2.837-.766c-8.39-2.395-8.39-2.395-11.475-6.484Zm54.5 30.938c-4.619 4.299-9.41 8.288-14.348 12.214-2.223 1.668-2.223 1.668-3.152 3.848 18.74 7.92 36.376 9.438 55.574 2.02A94.901 94.901 0 0 0 290 481v-2a32815.175 32815.175 0 0 0-15.855-6.571 4069.52 4069.52 0 0 0-9.613-3.974c-2.203-.908-4.405-1.82-6.603-2.738l-2.687-1.108-2.293-.954c-4.645-1.562-6.146.145-9.449 3.283Z"/></svg>