<svg viewBox="0 0 300 300" xmlns="http://www.w3.org/2000/svg"><path d="M172 11c-.8.55-7.4 1-14.65 1-14.8 0-14.3-.3-14.35 8.75V25h35v-4.95c0-8.4-2.1-11.55-6-9.05zm-23 5.05c0 1.8-.4 2.8-1 2.45-.55-.35-1-1.7-1-3.05 0-1.35.45-2.45 1-2.45s1 1.4 1 3.05zm25.5-.05c.65 3.05.05 5-1.55 5-.55 0-.95-1.8-.95-4 0-4.7 1.55-5.3 2.5-1zm-7.5 2c0 .55-2.7.95-6.25.95-4.4-.05-5.65-.35-4.25-.95 2.8-1.2 10.5-1.2 10.5 0zm4 4c1.6.5-1.55.85-8.75.9-6.9.05-11.25-.3-11.25-.9 0-1.2 16.3-1.2 20 0z M177.5 27.45c-2.3 1.9-2.6 2.5-1.25 2.5 2.6.05 2.2 3.75-.5 4.65-2.7.85-29.15.7-31.95-.15-3.8-1.2-1.55-3.9 4.05-4.8 6.55-1.05 6.35-1.2-2.15-2l-6.8-.6.3 3.7c.45 5.6 2.55 6.2 21.4 6.25 19.5 0 22.1-1.25 21.5-10.25-.15-2.35-1.05-2.2-4.6.7zM144 45.5V50h33v-9h-33v4.5z M177.1 52.45c-2.3 1.2-2.3 1.35-.5 1.9 1.8.6 2.55 37.3.9 42.4-.45 1.3-27.65 1.85-32.15.65-2.05-.55-2.1-1.05-2.15-18.25 0-17-1.1-24.7-3.15-22.55-1.55 1.65 0 215.4 1.6 215.4 1.7 0 1.4 2.8 2.55-23.5 1.7-40.15 1.9-65.7.7-86.15-2.15-36.05-2.25-56.35-.35-56.35 1.05 0 1.45-.55 1.1-1.5-.35-.85-.15-1.5.4-1.5.5 0 .95.65.95 1.5 0 .8.5 1.5 1.05 1.5 2.5 0 .3-3.5-2.35-3.8-1.6-.2-2.65-.85-2.45-1.5.6-1.7 33.9-1.7 34.5 0 .25.8-1.35 1.3-4.95 1.5-6 .35-6.75 2.15-1.1 2.6 5.55.5 5.25-3.6 5.3 83.95V270h5.05l-.25-108.45c-.3-113.2-.25-111.55-4.7-109.1zM140.2 53.15c.55 1.55 3.7 1.85 4.05.35.15-.55-.8-1.15-2.1-1.35-1.65-.2-2.25.1-1.95 1z M158.25 79.75c-6.6 9.7-6.6 10.25-.15 10.25 4.25 0 5.15.35 5.6 2 1.7 6.4 3 .4 2.5-11.25-.5-10.9-1.25-11-7.95-1zM164 82v6h-4c-4.8 0-4.8.15-.75-6.55 4.15-6.85 4.75-6.8 4.75.55zM152 103.5c-.7.85-1 1.8-.7 2.15 1 .95 3.9-.55 3.2-1.65-.35-.55-.2-1 .35-1s1.15.5 1.35 1.15c.35 1 2.55 1.15 8.6.65 2.6-.25.45-2.25-2.7-2.5-2.3-.2-3 .05-2.5.95.55 1 .4 1-.65 0-1.85-1.7-5.45-1.55-6.95.25zM154 122.95v6.95l6.5-.2 6.5-.2V116h-13v6.95zM147.25 271.65c-.85.35-1.25 3.05-1.25 8.45v7.9l11.75-.2 11.75-.2-9-.6-9-.6 9.5-.2c5.25-.1 10.15.25 11 .8 2.1 1.3 2.85-1.05 2.95-9.25L175 271l-13.25.1c-7.3 0-13.8.3-14.5.55zM168 278.4c0 3.95-1.15 4.6-7.85 4.6-8-.05-9.65-3.6-2.9-6.5 6.4-2.8 10.75-2.05 10.75 1.9z"/></svg>