<svg viewBox="0 0 900 900" xmlns="http://www.w3.org/2000/svg"><path d="M409.4 64.1c-1.7 1.9-1.9 4-2.2 20.3l-.4 18.3 26.1.7c14.4.4 36.7.4 49.6 0l23.5-.7-.2-18.5-.3-18.6-20.5-.2c-30.6-.4-70.3-1.9-72.1-2.7-1-.5-2.2 0-3.5 1.4zm89 11.4c2.1 3.2 2 9.2-.2 13.5-3 5.8-4.6 8-5.9 8-1.4 0-1.5-.8-1.3-12.5.2-10.7 3.6-14.8 7.4-9zm-39.5 6.4c1.2.8 1.3 1.5.3 3.5-1 2.2-1.8 2.5-7.3 2.8-3.4.2-6.4.8-6.6 1.4-.9 2.6 5.4 3.9 22.2 4.4 15.1.4 17 .7 17.3 2.2.7 3.5-4 4.1-26.7 3.4-13-.4-22-1.1-22.8-1.8-.7-.6-1.3-2.3-1.3-3.7 0-1.5-.7-3.6-1.5-4.7-1.7-2.3-1.9-4.4-.4-4.4.6 0 2.5-.7 4.2-1.5 1.8-.8 6.6-1.6 10.7-1.8 4.1-.2 8.2-.4 9-.5.8-.1 2.1.2 2.9.7zM480 84c5.3 3.8.5 7.4-6.8 5.1-2.1-.6-4.8-1.2-6.2-1.3-2.6-.3-3.7-2.6-2.6-5.5.9-2.3 11.7-1.1 15.6 1.7zM509.3 107.3c-1.5 2.4-8 6.7-11.2 7.3-6 1.2-4.9 3.3 2.2 3.9 5.2.5 8.7 4.1 8.7 8.9 0 2 .8 4 2 5.1 2 1.8 2.1 1.8 4.5-.5 1.4-1.3 2.5-3.1 2.5-3.9 0-.9.7-3.6 1.6-6.1 1.6-4.5 1.3-8.9-.8-13.6-.9-1.9-1.9-2.4-4.9-2.4-2.1 0-4.2.6-4.6 1.3zM392.3 110.6c-.3.9.1 2.9 1.1 4.4.9 1.6 1.6 4.2 1.6 5.9 0 1.7.4 3.1 1 3.1.5 0 1.2 1.1 1.6 2.5 1.5 5.9 9.4 4.8 9.4-1.3 0-1.5 1.1-3.7 2.4-5 2.3-2.1 3-2.2 12.8-1.6 13.3.8 24.8-.2 24.8-2.2 0-.8-.8-1.4-1.7-1.5-4.7-.2-26.8-2-34.3-2.7-4.7-.4-9.5-1.3-10.7-2-3.1-1.7-7.2-1.5-8 .4zM453.3 133.5c-3.4 2.5 1.7 3.2 20.2 2.8 19.1-.4 21.5-.7 19.8-2.4-1.6-1.6-37.9-1.9-40-.4zM493.1 146.9c-1.7 2.3-2.1 4.4-2.1 10.5 0 8.4 2.3 14.6 6 16.6 1.8 1 2.2.6 4-3.5 1.1-2.6 2-6.3 1.9-8.3-.1-6-3.2-15.3-5.5-16.9-2-1.3-2.4-1.2-4.3 1.6z M411.7 148.5c-1.3 2.7-1.7 6.3-1.7 15v11.4l-4.4 3.3c-3.5 2.6-4.5 4.1-5 7.3-.4 2.1-1.1 4.4-1.6 5-.6.7-1.2 12.4-1.6 26.1-.3 13.7-.8 35.5-1.2 48.4-.4 12.9-.8 141.7-.9 286.2L395 814h8.9c5 0 9.2.4 9.6.9.3.6 1.3 1 2.3 1 .9 0 4.2.5 7.2 1s8.9 1 13.1 1c6.2.1 8.3.5 11 2.4 5.1 3.4 12.8 4.9 24.2 4.9 15.9-.1 28.7-3.2 28.7-6.9 0-.7-1-1.5-2.2-1.7-1.3-.2-4.5-.9-7.3-1.4-2.7-.5-11.3-1-19-1.1-24.6-.2-43.9-1.2-46.5-2.4-3.8-1.9-6-4.5-6-7.2 0-3.4-2.1-7.3-5.9-10.9-2.9-2.8-3.1-3.5-3.2-10 0-3.9-.5-10.9-1-15.6-1.6-13.4-1.6-19.1-1.7-177-.1-144.6.2-171.7 1.8-201.5.4-7.7.8-22.6.9-33.2.1-10.5.5-19.4 1-19.7.5-.3 1.2-4.2 1.6-8.7.5-5.4 1.2-8.2 2.1-8.6 1.9-.7 1.8-3.3-.1-3.3-1.5 0-2.1-3.5-.7-4.4.4-.2 22.1-.6 48.2-.7l47.5-.2-.3 33.9c-.4 42.8-1.2 89.9-2.3 130.6-.5 17.4-1 100.1-1.1 183.7l-.3 152.1H521l-.1-249.3c-.1-137-.5-270.6-.9-296.7-.7-50.5-1.7-83-2.5-83.8-.9-.9-98-.1-98.9.9-2 1.9-2.6.8-2.6-4.4 0-3.1.6-6.1 1.5-7.3.8-1 1.5-3 1.5-4.3 0-2.3 3.7-9.3 5.2-9.9.4-.2.8-1.6.8-3.1 0-3.7-4.7-8.1-8.6-8.1-2.5 0-3.3.6-4.7 3.5zm97.3 99.7v58.3l-47.2-.3c-38.9-.3-47.7-.6-50-1.8-2.9-1.5-3.2-2.2-2.2-4.8.5-1.2 2.1-1.6 7-1.6s6.4-.3 6.4-1.5c0-.7-.6-1.8-1.2-2.2-.7-.4-2.3-2.2-3.5-4-2.1-3-2.3-4.3-2.3-17.5 0-9.9-.5-15.5-1.5-18.3-.8-2.2-1.4-6.3-1.5-9 0-2.8-.7-6.1-1.5-7.5-.8-1.4-1.5-4.1-1.5-6 0-1.9-.7-4.6-1.5-6-.8-1.4-1.4-5.1-1.5-8.2 0-3.1-.4-6.9-1-8.3-1.3-3.4-2.5-15.9-1.7-17.9.6-1.4 6.2-1.6 52.7-1.6h52v58.2z M453.3 228.8c-7.2.2-8.4.5-9.4 2.4-1.7 3.1 1.1 4.9 6.6 4.1 7.3-1 7.5-.3 7.5 31v26.8l2.8-.3 2.7-.3v-31.9c0-20.5-.4-32-1-32.1-.5 0-4.7.1-9.2.3zM435.3 318.8c-4.2.2-5.5.8-6.4 2.4-1 1.8-.8 2.4.7 3.6 2.7 1.9 11 1.1 12.9-1.4 3.1-4.1 1.5-5.1-7.2-4.6zM450.8 320.9c-1 1-1.8 2.4-1.8 3.2 0 3 2.4 3.9 10 3.9 6.4 0 8-.3 10-2.2l2.3-2.2-2.9-2.3c-2.4-1.9-4.1-2.3-9.4-2.2-4.8 0-6.9.5-8.2 1.8zM437 379v21h42v-42h-42v21zm25.5-7.4c4.6 1.8 5.4 10.9 1.2 13.9-2.8 2-10.1 1.9-12.1-.1-3.5-3.4-2.7-11.1 1.3-13.4 1.8-1.1 7.2-1.3 9.6-.4zM418.6 496.2c-.9 3.4-.7 13.1.3 14.7.5.8 1.6 1.1 2.5.8 1.3-.5 1.6-2.1 1.6-7.6 0-3.8-.3-7.6-.6-8.5-.9-2.3-3.1-1.9-3.8.6z"/></svg>