<svg viewBox="0 0 300 300" xmlns="http://www.w3.org/2000/svg"><path d="M126 25.45c0 4.85-.25 5.45-2.25 5.75-5.05.7-.75 10.5 5.3 12.15 6.2 1.65 46.3.15 49.35-1.85 5.35-3.55 3-10.55-3.05-9.05l-2.6.65 2.1 2.25c5.75 6.1 3.55 6.75-22.9 6.4-23.65-.25-23.65-.25-22.15-4.6.8-2.3.7-3.25-.6-4.55-1.5-1.45-1.4-1.6 1.05-1.6 2.8 0 4.45-1.45 2.75-2.5-1.85-1.15-1.05-2 3-3.25 4.75-1.5 26.6-1.7 27.5-.25.4.65-2.75 1-8.7 1-5.1 0-9.95.45-10.8 1-1 .65 2.85.95 11.75 1H169v-3.5c0-3.6 1.35-4.7 2.4-1.9 2.15 5.65.85 6.5-11.75 7.4l-10.15.7 13.25.15L176 31V20h-50v5.45zM129 53.5V59h45V48h-45v5.5zm23.8.25c.25 1.7-.15 2.25-1.75 2.25-1.55 0-2.05-.65-2.05-2.55 0-3.3 3.35-3 3.8.3zm-8.8-.85c0 1.25-2.6 2.1-6.6 2.1-2.35 0-3.4-.45-3.4-1.5 0-1.15 1.2-1.5 5-1.5 2.75 0 5 .4 5 .9zm23.85 0c1.85 1.15-.8 2.1-5.85 2.1-3.75 0-5.65-1.05-4.3-2.35.95-.95 8.55-.75 10.15.25zM123.4 60.15c-.4.65-.95 45.65-1.2 100l-.5 98.85h5.6l-.75-96.5-.75-96.5 6.35-.1c3.5-.1 5.45-.35 4.35-.6-7.7-1.75-9.45-2.5-10-4.3-.7-2.25-2-2.6-3.1-.85zM174.1 62.5l-3.4 3.5h5.1l.35 94.95c.3 74.25.6 95.2 1.6 96.2 1.35 1.35 1.7-178.9.4-191.9l-.65-6.2-3.4 3.45zM147.65 74.85c-1.8 1.95-2.2 4.15-.75 4.15.5 0 1.15-.7 1.5-1.55.9-2.35 6.1-1.5 6.1.95 0 1.05-.9 2.4-2 3-1.1.6-2.15 1.2-2.4 1.3-.2.15 1.05 1.55 2.75 3.15 3.8 3.55 3.95 5.55.7 7.7-2.85 1.85-6 .7-7.05-2.55-.8-2.55-2.5-2.6-2.5-.05 0 4.75 9.55 6.95 12.45 2.85 1.95-2.8 1.95-5.1.05-8.8-.95-1.8-1.1-3.1-.5-3.5 2.85-1.75-.95-8.5-4.85-8.5-1 0-2.6.8-3.5 1.85z M135 100c0 .65 6.15 1 16.5 1s16.5-.35 16.5-1-6.15-1-16.5-1-16.5.35-16.5 1zM133 104.95c0 1.35 3.85 3.3 5 2.55.55-.35 1-1.3 1-2.2 0-1.2-.3-1.3-1.4-.35-1 .8-1.65.8-2.05.1-.85-1.3-2.55-1.35-2.55-.1zM146.45 105.1c-.3.45.55 1.1 1.85 1.45 3.45.85 11.25.1 10.95-1.05-.3-1.2-12.1-1.6-12.8-.4zM144 123.4c0 8 1.05 9.05 8.05 8.1 5.3-.75 7.05-2.45 5-4.9-.8-1-.8-1.65-.1-2.05.6-.4 1.05-2.2 1.05-4.1V117h-14v6.4zm9 .65c0 2.35-2.65 3.7-4.2 2.15-1.55-1.55-.2-4.2 2.15-4.2 1.4 0 2.05.65 2.05 2.05zM136.9 259.9c-8.9.65-11.9 1.95-11.9 5.2 0 3.75 7.2 5.3 9 1.95 1.15-2.25 5.3-3.55 15.35-4.85 7.25-.95 9.3.1 6.65 3.3-1.55 1.85-.6 1.85 4.5.05 4.45-1.65 13.1-2.05 13.95-.65.3.45-.35 1.1-1.45 1.4-2.4.6-2.6 2.25-.4 3.1 3.6 1.4 5.2-6.4 1.65-8.25-2.35-1.2-26.7-2-37.35-1.25zM134.5 270.95c-1.5 2.5 2.2 3.1 17.15 2.8 13.55-.2 17.65-.8 16.25-2.2-1.25-1.2-32.65-1.75-33.4-.6z"/></svg>