<svg viewBox="0 0 300 300" xmlns="http://www.w3.org/2000/svg"><path d="m145.25 15.75-22.25.3v5.45c0 6.25 2.6 7.35 8.85 3.8 2.85-1.65 3.2-1.65 6.6 0 2.95 1.4 6.5 1.7 19.1 1.7H173v-3.45c0-4.95-1.6-8.6-3.75-8.3-.95.1-11.75.35-24 .5zm22.75 6.4c0 2.5-2.45 3.1-15.25 3.6-8.3.35-11.75.15-11.75-.65 0-.75 3.9-1.1 12.5-1.1H166v-3.25c.05-2.45.25-2.9 1-1.75.55.8 1 2.25 1 3.15zM162 29c-6.85.35-10.5.7-8.1.8 12.75.6 21.1 3.6 18.2 6.5-1.45 1.45-35.8 2.25-44.1 1-9.25-1.4-7.85-4.95 2.5-6.25 4.95-.65 4.95-.65-3.3-1.45-9.55-.95-9.65-.9-8.8 3.85 1.1 5.8 2.3 6.05 29.6 6.05 28.45 0 29.3-.2 28.8-6.75-.15-2.25-.75-4.15-1.3-4.2-.55-.05-6.6.15-13.5.45zM123.55 45.75c-.3.35-.55 2.3-.55 4.4V54h50.25l-.6-2.25c-.35-1.25-.65-3.3-.65-4.55v-2.3l-23.95.15c-13.15.1-24.15.4-24.5.7zM119.5 124.75c-.85 70.95.15 127.3 2.15 129.3.85.85 1.65.65 3.2-.9 1.95-1.95 2.05-3.5 2.6-36.35.3-18.85.8-42.2 1.1-51.85l.5-17.6-2.5-1.15c-5.95-2.7-2.35-3.2 23.45-3.2 16.65 0 26-.35 26-1 0-.6-5.6-1-14.85-1-19.4 0-39.15-1.1-39.15-2.15 0-.45.85-.85 1.95-.85 2.25 0 5-3.5 5.15-6.45.05-1.4.45-.95 1.3 1.4 1.4 3.85 2.75 2.3 1.9-2.15-.25-1.4 0-2.85.6-3.25.6-.35 1.1-1.35 1.1-2.15 0-.85-.45-1.25-1-.9s-1-.1-1-.95-.45-1.55-1-1.55-1 .55-1 1.2c0 .65-.65.3-1.45-.75-3.2-4.2-1.65-26.45 1.8-26.45.75 0 1.95-.7 2.65-1.5 1-1.2 1-1.5 0-1.5-.95 0-1.1-1.65-.6-6.75.75-7.6-.85-17.25-2.8-17.25-.7 0-1.8-1.15-2.4-2.5-.65-1.4-1.7-2.5-2.4-2.5-.95 0-.9-.3.05-1.25.9-.9 7.35-1.4 21.95-1.8 11.4-.3 16.65-.65 11.7-.8-17.7-.4-33.05-1.4-34.7-2.25-.9-.5-2.1-.9-2.6-.9-.6 0-1.25 26.4-1.7 67.75z M173.6 67.6c-1.05 2.8-.7 65.4.4 65.4.65 0 1-11.85 1-33.5 0-32.55-.1-35.25-1.4-31.9zM145.1 79.6c-1.7 1.4-3.1 3.2-3.1 4 0 2 1.3 1.75 2.75-.6 1.5-2.35 5.05-2.65 5.9-.55.6 1.65-2.5 7.2-5.6 10-3.35 3.05-2.6 4.55 2.2 4.4 4.15-.1 4.2-.15.9-.75l-3.4-.6 2.25-2c8.1-7.3 6.25-20.8-1.9-13.9zM132.75 101.7c-7.85 1.2-1.05 2.3 14.25 2.3 16.45 0 21.95-1.05 12.35-2.35-4.9-.7-21.95-.65-26.6.05zM143 118.5v5.5h12v-3.55c0-6-1.35-7.45-7.05-7.45H143v5.5zM173.8 153.5c-1.6 17.8-1.45 95.55.2 93.9.65-.65.95-18.5.75-51.45-.15-29.25-.55-47.1-.95-42.45zM130.8 167c-.35 8.5-.5 19.55-.4 24.5.15 4.95.35 19.3.45 31.9.1 12.6.4 22.65.75 22.35.95-.95 1.4-59.75.6-77.75l-.7-16.5-.7 15.5zM124.35 257.5c-9.1 6.65 17.5 15.55 36.15 12.05 6.9-1.3 2.15-2.35-12.5-2.8-17.55-.5-21.25-1.8-16.55-5.7 3.9-3.25 20.55-2.4 20.55 1 0 1.9.15 1.9 3.6.45 2-.8 5.95-1.5 8.75-1.45l5.15.05-2.9 1.55c-3.3 1.8-2.1 3.3 2.65 3.35 2.85 0 4.35-2.75 3.6-6.65-.65-3.4-44.15-5.05-48.5-1.85z"/></svg>