<svg viewBox="0 0 24 24" xmlns="http://www.w3.org/2000/svg"><path d="m 13.020796,3.8461949 c -0.02459,-4.31e-4 -0.04941,0.00305 -0.07182,0.011671 l -2.059558,0.689511 h -0.0045 c -0.804418,0.275804 -1.34669,1.034087 -1.34669,1.884483 v 9.1431991 c 0,0.06895 0.03193,0.133808 0.08709,0.170582 0.03677,0.02758 0.07883,0.0413 0.124794,0.0413 0.02298,0 0.04525,-6.82e-4 0.06823,-0.0099 l 1.273979,-0.431842 c 0.08734,-0.02758 0.141852,-0.110178 0.141852,-0.197516 V 6.5099459 c 0,-0.220644 0.142391,-0.417549 0.349245,-0.491097 l 1.467005,-0.500973 c 0.08734,-0.02758 0.141853,-0.111076 0.141853,-0.198414 l 0.03232,-1.2641025 c 0,-0.068951 -0.03193,-0.1329104 -0.08709,-0.1696843 -0.03448,-0.025857 -0.07573,-0.038785 -0.116714,-0.039503 z m -5.149783,1.723777 c -0.02526,-4.31e-4 -0.05038,0.0031 -0.07452,0.01167 l -1.273979,0.427353 c -0.08274,0.02758 -0.141853,0.111076 -0.141853,0.198414 V 16.655112 c 0,0.06895 0.03193,0.133808 0.08709,0.170582 0.03677,0.02758 0.07793,0.0413 0.123897,0.0413 0.02298,0 0.04615,2.15e-4 0.06913,-0.009 l 1.273081,-0.43274 c 0.08734,-0.02758 0.14275,-0.110178 0.14275,-0.197516 V 5.7791589 c 0,-0.06895 -0.03193,-0.13291 -0.08709,-0.169684 -0.03448,-0.02586 -0.0764,-0.03879 -0.118509,-0.0395 z m 13.664522,1.110579 c -1.360635,0 -2.463565,1.098441 -2.463565,2.459075 V 19.955427 c 0,0.06436 0.03203,0.12483 0.0826,0.161604 0.03677,0.02298 0.07355,0.03681 0.114919,0.03681 0.02298,0 0.04166,-6.82e-4 0.06464,-0.0099 l 1.212929,-0.408499 c 0.08274,-0.02758 0.138261,-0.105796 0.138261,-0.188538 v -3.718689 c 0.266611,0.09653 0.551429,0.151728 0.850217,0.151728 1.360634,0 2.464462,-1.099338 2.464462,-2.459973 V 9.1440909 c 0,-1.356038 -1.103828,-2.459075 -2.464462,-2.459075 z M 2.989672,7.3134999 c -0.234568,-0.006 -0.472063,0.02927 -0.704773,0.106838 l -1.49842895,0.510849 c -0.08734,0.02758 -0.14275,0.110178 -0.14275,0.197516 v 1.264103 c 0,0.06895 0.03193,0.13291 0.08709,0.169684 0.05516,0.04137 0.128672,0.05082 0.193027,0.02783 L 2.625168,9.0112389 c 0.160886,-0.05516 0.33075,-0.0274 0.468652,0.06913 0.137902,0.09653 0.215472,0.252785 0.215472,0.422864 V 11.015129 L 1.74712,11.548422 C 0.70366005,11.906968 4.6325683e-8,12.886325 4.6325683e-8,13.989542 v 1.737244 c 0,0.795235 0.372659003674317,1.517282 1.020798953674317,1.976956 0.4229,0.303385 0.9094,0.455184 1.410444,0.455184 0.266611,0 0.53333,-0.04643 0.799941,-0.133771 1.020475,-0.349353 1.70582,-1.305331 1.70582,-2.380967 V 9.3102059 c 0,-0.652737 -0.303528,-1.24629 -0.83675,-1.623223 h -0.0045 C 3.762491,7.4485269 3.380611,7.3234639 2.989664,7.3134979 Z m 14.427652,0.637438 c -0.02758,-0.0013 -0.05502,0.0013 -0.0826,0.01167 l -1.209337,0.413886 c -0.08274,0.03218 -0.138262,0.105689 -0.138262,0.193027 v 7.1294331 c 0,0.468867 -0.37686,0.845728 -0.845728,0.845728 -0.468867,0 -0.845728,-0.381458 -0.845728,-0.845728 V 9.2868629 c 0,-0.09193 -0.06417,-0.179129 -0.160706,-0.197516 -0.03677,-0.0046 -0.07366,-0.0048 -0.110429,0.009 l -1.20844,0.413886 c -0.08274,0.02758 -0.138261,0.1012 -0.138261,0.188538 v 6.0026931 c 0.0024,1.358544 1.104439,2.455484 2.463564,2.455484 1.360635,0 2.464462,-1.103935 2.464462,-2.459972 V 8.1511679 c 0,-0.09193 -0.06507,-0.179129 -0.161603,-0.197516 -0.0092,-0.0011 -0.01774,-0.0023 -0.02694,-0.0027 z m 4.118211,0.351938 c 0.468867,0 0.845728,0.376861 0.845728,0.845728 v 1.6779891 2.688912 c 0,0.464271 -0.376861,0.845728 -0.845728,0.845728 -0.468868,0 -0.845728,-0.376861 -0.845728,-0.845728 V 9.1486039 c 0,-0.46427 0.37686,-0.845728 0.845728,-0.845728 z M 3.3048,12.747886 3.3147,15.689978 c 0,0.358545 -0.229945,0.680425 -0.570103,0.79994 -0.262014,0.09193 -0.542379,0.05046 -0.76762,-0.11043 C 1.751737,16.218603 1.622346,15.970271 1.622346,15.694466 V 14.18706 c 0,-0.510238 0.326369,-0.961149 0.804429,-1.131229 z"/></svg>