<svg viewBox="0 0 24 24" xmlns="http://www.w3.org/2000/svg"><path d="m 5.0275603,8.9080073 a 2.054948,2.054948 0 0 0 0.46885,-1.4608938 2.008063,2.008063 0 0 0 -1.337288,0.6984798 1.9297438,1.9297438 0 0 0 -0.479505,1.4017548 1.6718763,1.6718763 0 0 0 1.347943,-0.6393408 m 0.436883,0.7357748 c -0.745898,-0.043156 -1.374583,0.4262269 -1.731548,0.4262269 -0.356965,0 -0.900405,-0.4027844 -1.486468,-0.3921288 A 2.1934719,2.1934719 0 0 0 0.38168333,10.821768 c -0.799176,1.385238 -0.213113,3.448711 0.564751,4.576615 0.37827697,0.535981 0.83114297,1.174789 1.43318897,1.15401 0.602046,-0.02078 0.788521,-0.372949 1.475812,-0.372949 0.687292,0 0.88975,0.372949 1.486468,0.35963 0.596718,-0.01332 1.012289,-0.537047 1.385238,-1.118847 a 4.9639489,4.9639489 0 0 0 0.623358,-1.289337 2.0320383,2.0320383 0 0 1 -1.20942,-1.847696 2.0778578,2.0778578 0 0 1 0.974995,-1.734745 2.1263411,2.1263411 0 0 0 -1.651631,-0.9057325 M 10.222205,8.5686239 v 1.5210981 h 1.214747 v 1.004298 h -1.214747 v 3.598957 c 0,0.537046 0.239752,0.810897 0.772536,0.810897 a 3.9862902,3.9862902 0 0 0 0.436883,-0.03197 v 1.01229 a 4.1679695,4.1679695 0 0 1 -0.719258,0.05328 c -1.2573697,0 -1.7422037,-0.488563 -1.7422037,-1.713433 v -3.706045 h -0.953683 v -1.006962 h 0.927044 V 8.5696894 Z m 5.461036,7.9134421 h -1.33196 l -2.237693,-6.371032 h 1.326632 l 1.571713,5.118989 h 0.03197 l 1.571713,-5.118989 h 1.299993 z m 5.849969,0 h -1.150814 v -2.610642 h -2.472118 v -1.149748 h 2.46679 v -2.610642 h 1.150814 v 2.610642 H 24 v 1.149748 h -2.46679 z"/></svg>