<svg viewBox="0 0 24 24" xmlns="http://www.w3.org/2000/svg"><path d="m 24.000471,22.55923 c -1.73373,-0.0222 -2.48958,-0.3164 -3.11036,-0.88814 l -0.96216,-1.09353 c -0.0629,-0.0768 -0.12767,-0.15358 -0.19706,-0.23407 l 0.0102,0.0231 -1.70413,-1.93727 c -0.57915,-0.65778 -0.95013,-1.41733 -1.11204,-2.27865 -0.1619,-0.86132 -0.0934,-1.70321 0.20724,-2.52659 0.19983,-0.54677 0.49033,-1.0408 0.87057,-1.4821 l 4.20759,-4.89221 c 0.4302,2.17874 -0.19243,2.66537 -1.20917,4.08918 l -1.66713,1.93727 c -0.49403,0.57082 -0.74012,1.23415 -0.73919,1.98908 9.2e-4,0.76695 0.25441,1.43861 0.7614,2.01406 z m -7.79071,-11.3877 4.96345,-5.79146 c 0.94273,-1.29337 1.49412,-1.8281 1.0704,-3.9393 l -7.36699,8.59929 c -0.62356,0.72717 -1.10001,1.54131 -1.42844,2.44241 -0.35711,0.98436 -0.51346,1.99925 -0.46813,3.04468 l -3.2158304,-3.65621 -0.004,-0.004 c -0.28402,-0.309 -0.59857,-0.58377 -0.94273,-0.82431 -0.57082,-0.39319 -1.1768,-0.72347 -1.81608,-0.99084 0.21279,-0.0759 0.42928,-0.14062 0.64854,-0.19428 0.38671,-0.0944 0.77805,-0.1434 1.17587,-0.1471 0.44407,0 0.88167,0.0703 1.2998404,0.23684 0.41539,0.16838 0.81968,0.43204 1.21287,0.85854 l 0.21556,0.25164 1.33592,-1.12868 -0.23961,-0.28033 -0.0102,-0.0111 C 12.120271,9.0591 11.500411,8.62335 10.780641,8.33008 10.152461,8.08214 9.5011606,7.96094 8.8258006,7.96557 c -0.1508,0 -0.29883,0.006 -0.44593,0.0176 -1.46081,0.23961 -2.36376,1.10371 -3.71449,1.24433 h -0.002 c 0,0 -4.57950004,9.2e-4 -4.57950004,9.2e-4 -0.10085,0 -0.11565,0.14433 -0.0176,0.16283 1.20177004,0.23962 3.34072004,0.69849 4.84410004,1.21473 1.14256,0.52918 2.23979,1.20455 3.10574,2.02146 0.17022,0.13507 0.3164,0.27107 0.43852,0.40521 l 4.2834604,4.87001 c 0.60967,0.50143 1.39513,0.75492 3.06595,0.76695 -0.28679,-0.41724 -0.51808,-0.86317 -0.69479,-1.33685 -0.52548,-1.41641 -0.53011,-2.83559 -0.0148,-4.2557 0.25627,-0.70219 0.62818,-1.33685 1.11481,-1.90396 v 0 z"/></svg>