<svg viewBox="0 0 24 24" xmlns="http://www.w3.org/2000/svg"><path d="M4.7,4.0 h14.6 a1.2,1.2 0 0 1 1.2,1.2 v11.6 a1.2,1.2 0 0 1 -1.2,1.2 h-14.6 a1.2,1.2 0 0 1 -1.2,-1.2 v-11.6 a1.2,1.2 0 0 1 1.2,-1.2 z M3.5 4h17 M8.5 2.2h7 M 11.0, 2.2 a 1.0,1.0 0 1,0 2.0,0 a 1.0,1.0 0 1,0 -2.0,0 M8.8,7.5 h6.4 a0.3,0.3 0 0 1 0.3,0.3 v2.9 a0.3,0.3 0 0 1 -0.3,0.3 h-6.4 a0.3,0.3 0 0 1 -0.3,-0.3 v-2.9 a0.3,0.3 0 0 1 0.3,-0.3 z M 9.4, 11.5 a 0.6,0.6 0 1,0 1.2,0 a 0.6,0.6 0 1,0 -1.2,0 M 11.4, 11.5 a 0.6,0.6 0 1,0 1.2,0 a 0.6,0.6 0 1,0 -1.2,0 M 13.4, 11.5 a 0.6,0.6 0 1,0 1.2,0 a 0.6,0.6 0 1,0 -1.2,0 M5 5.2h1.5M7.2 5.2h1.5M9.4 5.2h1.5M14.6 5.2h1.5M16.8 5.2h1.5M19 5.2h1.5 M3.2 7.5v1.5M3.2 10v1.5M3.2 12.5v1.5M20.8 7.5v1.5M20.8 10v1.5M20.8 12.5v1.5 M6 17.2h1.5M8.5 17.2h1.5M11 17.2h1.5M13 17.2h1.5M15.5 17.2h1.5M18 17.2h1.5 M 19.0, 5.5 a 0.5,0.5 0 1,0 1.0,0 a 0.5,0.5 0 1,0 -1.0,0 M 20.5, 5.5 a 0.5,0.5 0 1,0 1.0,0 a 0.5,0.5 0 1,0 -1.0,0 M 18.8, 18.0 a 1.2,1.2 0 1,0 2.4,0 a 1.2,1.2 0 1,0 -2.4,0 M 19.4, 18.0 a 0.6,0.6 0 1,0 1.2,0 a 0.6,0.6 0 1,0 -1.2,0"/></svg>