<svg viewBox="0 0 24 24" xmlns="http://www.w3.org/2000/svg"><path d="M 2.3710938 0 A 2.3701701 2.3701701 0 0 0 0 2.3710938 L 0 21.570312 A 2.4298155 2.4298155 0 0 0 2.4296875 24 L 21.599609 24 A 2.3999856 2.3999856 0 0 0 24 21.599609 L 24 2.3398438 A 2.3403689 2.3403689 0 0 0 21.660156 0 L 2.3710938 0 z M 4.484375 2 L 19.513672 2 A 0.80000059 0.80000059 0 0 1 20.101562 2.2460938 A 0.79166725 0.79166725 0 0 1 20.349609 2.8339844 L 20.349609 12.830078 C 20.349609 13.578412 20.203221 14.318559 19.912109 15.050781 C 19.619609 15.785781 19.473126 16.153358 18.828125 17.005859 C 18.398125 17.574193 17.885175 18.127126 17.289062 18.666016 A 18.333347 18.333347 0 0 1 15.638672 20.007812 A 20.833349 20.833349 0 0 1 14.058594 21.017578 C 13.51026 21.332578 13.121745 21.550442 12.892578 21.662109 C 12.661467 21.773773 12.475382 21.858809 12.335938 21.919922 A 0.76666723 0.76666723 0 0 1 11.658203 21.919922 C 11.521536 21.861589 11.335469 21.773775 11.105469 21.662109 C 10.875469 21.550442 10.485278 21.3348 9.9375 21.017578 C 9.3897218 20.6998 8.8652173 20.363368 8.3613281 20.007812 A 18.333347 18.333347 0 0 1 6.7109375 18.667969 C 6.114826 18.127968 5.6004777 17.573082 5.1699219 17.005859 C 4.7388105 16.435859 4.379002 15.785512 4.0878906 15.052734 C 3.7973348 14.317734 3.6503906 13.577587 3.6503906 12.832031 L 3.6503906 2.8320312 A 0.80000059 0.80000059 0 0 1 3.8984375 2.2460938 A 0.80000059 0.80000059 0 0 1 4.484375 2 z M 12 4.1425781 L 12 19.666016 C 12 19.666016 18.164062 16.545783 18.164062 12.925781 L 18.164062 4.1425781 L 12 4.1425781 z"/></svg>