<svg viewBox="0 0 24 24" xmlns="http://www.w3.org/2000/svg"><path d="m 23.605067,10.754532 a 2.1595979,2.1595979 0 0 0 -0.532701,-0.533901 v 0.0072 A 3.0594304,3.0594304 0 0 0 21.272701,9.7167252 C 20.746,9.7047275 19.952947,9.6975288 19.248678,9.6951292 h -2.313169 v 0.8914338 c 1.737277,0 2.95265,-0.0144 4.292801,0.0228 a 2.1236046,2.1236046 0 0 1 1.199776,0.315541 1.3041572,1.3041572 0 0 1 0.0072,2.159598 2.1116068,2.1116068 0 0 1 -1.199777,0.315541 c -1.34015,0.03719 -2.559123,0.0228 -4.294,0.0228 v 0.891434 c 1.745675,0 2.999441,0 4.337192,-0.02639 a 3.0474326,3.0474326 0 0 0 1.799665,-0.509905 2.1655968,2.1655968 0 0 0 0.526702,-3.023437 m -8.75357,0.319141 h -0.0072 c 0,0.452315 -0.149972,0.599888 -0.615485,0.608286 -0.221959,0.0072 -0.80745,0.0072 -1.28736,0.0072 H 11.6145 v 2.619112 h 1.209375 v -1.721679 h 0.119977 c 0.627483,0 1.412137,0 1.707282,-0.0108 0.905832,-0.0276 1.180581,-0.286747 1.215374,-1.12659 0.0096,-0.112779 0.0096,-0.255553 0.0096,-0.412724 V 9.6867308 H 14.851497 Z M 6.8405886,10.369404 A 1.6796873,1.6796873 0 0 0 5.4224527,9.6975288 c -0.3743303,0 -1.9964283,-0.010798 -2.9418523,-0.010798 H 0.00186193 v 0.8878342 c 1.98922957,0 4.34919017,0 5.38339767,0.012 a 0.7438615,0.7438615 0 0 1 0.5111048,0.149972 0.43191958,0.43191958 0 0 1 0.1199777,0.472712 c -0.095982,0.265151 -0.359933,0.329939 -0.6334821,0.334738 -0.4115234,0.0072 -1.5345143,0.0096 -2.3743579,0.0096 H 0.00186193 v 0.885435 c 1.98922957,0 4.35398927,0 5.38339767,0.012 0.3203403,0 0.6598771,0.119978 0.6598771,0.479911 0,0.359933 -0.3395368,0.47991 -0.6598771,0.47991 -1.0270088,0.0156 -3.3941681,0.0108 -5.38339767,0.0108 v 0.889035 c 1.99522847,0 4.60714217,0.0072 5.41339207,-0.012 A 1.6676895,1.6676895 0 0 0 6.8333899,13.627997 1.2657643,1.2657643 0 0 0 6.645025,11.9999 1.2669641,1.2669641 0 0 0 6.8405886,10.369404 m 2.3023713,0.687472 V 9.6867308 h -1.025809 c 0,0.4379182 -0.0096,1.3293522 0.0084,1.7600722 0.034793,0.839844 0.3071428,1.096596 1.1613837,1.12659 0.5926897,0.0204 1.0606034,0.0132 1.8800504,0.0108 V 11.68916 c -0.655078,0 -0.922628,0 -1.4073384,-0.0072 C 9.2929335,11.67356 9.145361,11.51999 9.1429614,11.056877"/></svg>