<svg viewBox="0 0 24 24" xmlns="http://www.w3.org/2000/svg"><path d="m 13.736055,0.08295828 c 3.290162,-0.452296 5.131891,0.94488002 5.525169,4.19150602 -0.735991,3.657509 -2.895245,6.0390457 -6.477784,7.1446127 -0.875396,0.26538 -1.76449,0.328881 -2.667322,0.190523 -0.2725996,-0.08863 -0.4948826,-0.247413 -0.6668296,-0.476307 -0.127022,-0.571569 -0.127022,-1.1431377 0,-1.7147067 2.7151996,0.295005 4.8744546,-0.72113 6.4777826,-3.048369 0.577894,-0.877453 0.768417,-1.830068 0.571569,-2.857845 -0.371748,-0.802978 -1.006819,-1.184024 -1.905231,-1.143138 -1.805072,0.300245 -3.265755,1.18934 -4.382029,2.667322 -2.6090216,3.836524 -3.4346156,8.0280297 -2.4767986,12.5745187 1.060051,3.626033 3.3780866,4.800989 6.9540886,3.524675 0.971993,-0.498217 1.861106,-1.101604 2.667324,-1.809968 1.08459,0.45554 1.370374,1.217632 0.857353,2.286276 -2.968139,2.600829 -6.238791,3.077137 -9.8119356,1.428922 -2.092286,-1.674697 -3.267165,-3.865712 -3.524676,-6.573043 -0.571988,-4.886629 0.634652,-9.2686587 3.619938,-13.1460877 1.450909,-1.596716 3.1973756,-2.67635602 5.2393816,-3.23889102 z"/></svg>