<svg viewBox="0 0 24 24" xmlns="http://www.w3.org/2000/svg"><path d="m 20.203,0 -0,0 -0.192,0 c -0.047,0 -0.092,0.014 -0.134,0.058 -0.053,0.054 -0.061,0.124 -0.048,0.192 0.156,0.831 0.236,1.642 0.262,2.406 h -2.409 c -0.054,0 -0.1,0.019 -0.136,0.055 -0.038,0.037 -0.061,0.085 -0.061,0.164 l 0,0.691 c 0,0.138 0.095,0.214 0.209,0.214 h 2.396 c -0.018,0.528 -0.059,1.025 -0.116,1.469 -0.043,0.34 -0.094,0.659 -0.149,0.949 -0.01,0.083 0.011,0.135 0.052,0.18 0.048,0.048 0.104,0.059 0.17,0.059 l 0.239,-0 0.372,0 c 0.095,0 0.165,-0.044 0.207,-0.087 0.062,-0.064 0.073,-0.132 0.079,-0.171 0.049,-0.284 0.095,-0.594 0.134,-0.925 0.052,-0.446 0.09,-0.945 0.107,-1.475 h 2.361 c 0.114,0 0.209,-0.077 0.209,-0.214 V 2.875 c 0,-0.078 -0.023,-0.126 -0.061,-0.164 -0.036,-0.036 -0.081,-0.055 -0.135,-0.055 h -2.373 c -0.015,-0.457 -0.047,-0.93 -0.102,-1.415 -0.037,-0.326 -0.084,-0.658 -0.142,-0.992 -0.012,-0.068 -0.035,-0.136 -0.105,-0.19 -0.046,-0.036 -0.111,-0.059 -0.154,-0.059 L 20.358,0 c -0,0 -0.001,0 -0.001,0 h -0.065 z M 5.856,4.722 c -0.424,-0.006 -1.19,-0.001 -2.07,0.109 -0.605,0.076 -1.234,0.193 -1.811,0.353 -0.32,0.086 -0.587,0.192 -0.818,0.344 -0.264,0.173 -0.481,0.403 -0.655,0.709 -0.162,0.286 -0.315,0.601 -0.232,0.919 0.071,0.268 0.435,0.357 0.764,0.412 0.297,0.046 0.969,0.081 1.147,-0.136 0.05,-0.052 0.073,-0.2 0.005,-0.298 -0.067,-0.118 -0.236,-0.203 -0.399,-0.233 -0.137,-0.025 -0.367,-0.048 -0.511,-0.068 -0.099,-0.014 -0.15,-0.031 -0.177,-0.045 -0.008,-0.004 -0.013,-0.008 -0.017,-0.011 -0.007,-0.006 -0.008,-0.013 -0.008,-0.013 0,0 0.002,-0.007 0.009,-0.013 0.008,-0.008 0.019,-0.018 0.031,-0.027 0.114,-0.074 0.481,-0.178 0.574,-0.202 0.419,-0.116 1.065,-0.185 1.592,-0.213 0.521,-0.027 1.049,-0.027 1.481,-0.011 1.745,0.056 3.437,0.337 5.134,0.821 0.92,0.263 1.858,0.589 2.852,0.979 1.397,0.554 2.83,1.311 4.154,2.243 1.173,0.826 2.218,1.762 3.03,2.797 0.491,0.633 1.079,1.586 1.372,2.511 0.1,0.315 0.185,0.675 0.194,1.101 0.009,0.412 -0.054,0.887 -0.232,1.354 -0.335,0.879 -1.041,1.698 -2.204,2.307 -0.43,0.225 -0.923,0.422 -1.482,0.581 -0.603,0.172 -1.226,0.282 -1.845,0.349 -0.73,0.079 -1.46,0.096 -2.202,0.076 -0.104,-0.003 -0.324,-0.016 -0.574,-0.038 -0.636,-0.058 -1.215,-0.157 -1.547,-0.22 l -0.115,-5.374 c 0.833,0.013 1.749,0.111 2.613,0.261 0.483,0.084 1.297,0.247 2.302,0.572 0.202,0.068 0.442,0.214 0.461,0.428 0.008,0.091 -0.025,0.17 -0.082,0.246 -0.151,0.203 -0.399,0.354 -0.609,0.456 -0.126,0.061 -0.236,0.107 -0.286,0.164 -0.055,0.074 -0.059,0.18 0.017,0.24 0.104,0.082 0.267,0.14 0.432,0.178 0.833,0.19 1.388,-0.184 1.711,-0.539 0.349,-0.384 0.449,-0.682 0.482,-0.994 0.057,-0.535 -0.188,-0.954 -0.311,-1.128 -0.307,-0.431 -0.778,-0.722 -1.157,-0.903 -0.861,-0.412 -1.843,-0.624 -2.342,-0.713 -0.635,-0.113 -1.442,-0.204 -2.375,-0.223 -0.434,-0.009 -0.871,0.012 -0.871,0.012 0,0 -0.018,-0.729 -0.05,-1.213 -0.053,-0.796 -0.274,-2.359 -0.997,-2.809 -0.132,-0.081 -0.295,-0.09 -0.387,0.034 -0.141,0.184 -0.279,0.883 -0.311,1.063 -0.03,0.171 -0.062,0.388 -0.091,0.617 -0.047,0.361 -0.086,0.763 -0.112,1.088 -0.015,0.181 -0.055,0.772 -0.063,1.397 -0.009,0.009 -0.021,0.023 -0.034,0.032 0,0 -0.326,0.049 -0.741,0.132 -1.368,0.272 -2.318,0.651 -2.69,0.814 -0.666,0.291 -1.62,0.806 -1.91,1.481 -0.067,0.167 -0.095,0.272 -0.103,0.442 -0.018,0.376 0.121,0.708 0.239,0.918 0.314,0.593 0.943,1.232 1.471,1.709 0.381,0.344 0.937,0.772 1.384,1.077 0.364,0.249 0.639,0.424 0.894,0.574 0.297,0.175 0.587,0.33 0.883,0.471 0.16,0.076 0.358,0.173 0.539,0.259 0,0 0.027,0.255 0.062,0.546 0.036,0.312 0.068,0.629 0.192,0.921 0.048,0.106 0.102,0.201 0.177,0.285 0.208,0.233 0.443,0.282 0.541,0.3 0.199,0.036 0.388,0.017 0.588,-0.021 0.083,-0.015 0.168,-0.044 0.233,-0.079 0.11,-0.057 0.195,-0.143 0.254,-0.266 0.088,-0.176 0.12,-0.458 0.122,-0.494 0.011,-0.162 0.003,-0.344 0.003,-0.344 0,0 0.642,0.153 1.091,0.234 0.735,0.13 1.442,0.207 2.279,0.22 1.011,0.016 2.089,-0.114 3.244,-0.393 0.698,-0.168 1.362,-0.391 2.011,-0.693 0.602,-0.279 1.14,-0.612 1.607,-0.997 0.35,-0.289 0.716,-0.653 1.068,-1.153 0.1,-0.142 0.189,-0.28 0.254,-0.394 0.02,-0.035 0.076,-0.117 0.15,-0.242 0.206,-0.348 0.461,-0.885 0.595,-1.57 0.036,-0.203 0.062,-0.403 0.074,-0.602 0.049,-0.874 -0.128,-1.754 -0.47,-2.558 -0.077,-0.189 -0.351,-0.857 -0.939,-1.704 -0.513,-0.739 -1.11,-1.426 -1.735,-2.049 -0.415,-0.414 -0.73,-0.704 -1.265,-1.153 C 18.581,9.095 17.858,8.622 17.636,8.476 16.901,7.995 16.051,7.522 15.305,7.162 14.103,6.58 12.928,6.135 11.758,5.772 11.352,5.647 10.974,5.54 10.636,5.45 9.934,5.263 8.871,5.007 7.745,4.862 7.064,4.775 6.408,4.73 5.856,4.722 Z m 3.344,11.15 c 0,0 -0.018,0.795 -0.021,1.598 -0.004,0.83 0.006,1.667 0.016,2.258 0.008,0.493 0.016,0.813 0.016,0.813 0,0 -0.572,-0.187 -0.868,-0.335 -0.544,-0.234 -1.061,-0.507 -1.555,-0.815 -0.625,-0.39 -1.149,-0.788 -1.639,-1.228 -0.1,-0.09 -0.277,-0.26 -0.366,-0.35 -0.224,-0.222 -0.45,-0.448 -0.396,-0.751 0.041,-0.231 0.535,-0.451 0.726,-0.503 0.452,-0.129 0.909,-0.246 1.393,-0.345 0.514,-0.105 1.012,-0.186 1.369,-0.225 0.493,-0.075 1.326,-0.117 1.326,-0.117 z"/></svg>