<svg viewBox="0 0 24 24" xmlns="http://www.w3.org/2000/svg"><path d="M 24,24 H 0 V 0 H 24 Z M 13.918,15.568 v 3.468 c 0,0.72 0.584,1.304 1.304,1.304 h 4.496 c 0.72,0 1.304,-0.584 1.304,-1.304 v -3.468 c 0,-0.72 -0.584,-1.304 -1.304,-1.304 H 17.226 L 14.574,9.747 C 15.148,9.611 15.576,9.095 15.576,8.479 V 4.964 c 0,-0.72 -0.584,-1.304 -1.304,-1.304 H 9.775 c -0.72,0 -1.304,0.584 -1.304,1.304 v 3.515 c 0,0.601 0.407,1.107 0.96,1.258 L 6.773,14.265 H 4.281 c -0.72,0 -1.304,0.584 -1.304,1.304 v 3.468 c 0,0.72 0.584,1.304 1.304,1.304 h 4.497 c 0.72,0 1.304,-0.584 1.304,-1.304 v -3.468 c 0,-0.787 -0.404,-1.304 -1.678,-1.304 l 2.631,-4.481 h 2.023 l 2.631,4.481 c -1.283,-0.088 -1.805,0.754 -1.771,1.304"/></svg>