<svg viewBox="0 0 24 24" xmlns="http://www.w3.org/2000/svg"><path d="m 22.325163,10.32756 c -0.92378,0 -1.67223,0.74844 -1.67223,1.67223 0,4.772 -3.882227,8.65555 -8.655586,8.65555 -4.773294,0 -8.655521,-3.88224 -8.655521,-8.65555 0,-4.77332 3.882227,-8.65553 8.655521,-8.65553 2.105392,0 4.099498,0.75499 5.660501,2.10792 l -5.190761,5.0023 c -0.664702,0.64115 -0.684329,1.69971 -0.04318,2.36441 0.328426,0.3402 0.766828,0.51161 1.205165,0.51161 0.438337,0 0.836111,-0.1557 1.160611,-0.46843 l 6.39449,-6.1616 c 0,0 0.009,-0.0105 0.0131,-0.0144 0.0131,-0.0131 0.0262,-0.0275 0.0393,-0.0419 0.0262,-0.0275 0.0523,-0.0549 0.0759,-0.0824 0.0118,-0.0144 0.0222,-0.0288 0.0327,-0.0432 0.0236,-0.0301 0.0471,-0.0602 0.068,-0.0916 0.008,-0.0118 0.0144,-0.0249 0.0222,-0.0366 0.0222,-0.034 0.0432,-0.0693 0.0628,-0.10468 0.005,-0.009 0.009,-0.0183 0.0131,-0.0275 0.0209,-0.0392 0.0406,-0.0798 0.0576,-0.12038 0.003,-0.007 0.004,-0.0118 0.007,-0.0183 0.0183,-0.0445 0.034,-0.089 0.0484,-0.13347 0.001,-0.005 0.003,-0.009 0.004,-0.0144 0.0144,-0.0471 0.0262,-0.0942 0.0353,-0.14132 0,-0.005 0.001,-0.0118 0.003,-0.017 0.009,-0.0471 0.017,-0.0929 0.0209,-0.14 0,-0.009 0,-0.0183 10e-4,-0.0262 0.004,-0.0445 0.007,-0.0877 0.008,-0.13216 0,-0.0131 0,-0.0249 0,-0.0379 0,-0.0406 -0.001,-0.0811 -0.005,-0.12169 -10e-4,-0.0157 -0.004,-0.0314 -0.007,-0.0484 -0.004,-0.0366 -0.008,-0.0746 -0.0157,-0.11122 -0.003,-0.0183 -0.008,-0.0353 -0.0118,-0.0523 -0.008,-0.0353 -0.0144,-0.0707 -0.0249,-0.10467 -0.005,-0.017 -0.0118,-0.0353 -0.017,-0.0523 -0.0105,-0.034 -0.0222,-0.0694 -0.0353,-0.10337 -0.007,-0.0157 -0.0144,-0.0314 -0.0209,-0.0484 -0.0144,-0.034 -0.0301,-0.0693 -0.0471,-0.10206 -0.008,-0.0157 -0.017,-0.0301 -0.0249,-0.0445 -0.0183,-0.034 -0.0366,-0.0667 -0.0589,-0.0995 -0.0105,-0.0157 -0.0222,-0.0314 -0.0327,-0.0458 -0.0209,-0.0301 -0.0419,-0.0602 -0.0654,-0.0903 -0.003,-0.003 -0.005,-0.007 -0.007,-0.009 C 19.03174,1.61989 15.633646,0 11.999963,0 5.383036,0 0,5.38303 0,11.99999 0,18.61694 5.383036,24 11.999963,24 c 6.616992,0 12.00004,-5.38306 12.00004,-12.00001 0,-0.92379 -0.74845,-1.67223 -1.67223,-1.67223 z"/></svg>