<svg viewBox="0 0 24 24" xmlns="http://www.w3.org/2000/svg"><path d="m 12.06233,10.220433 c -0.290797,0 -0.528805,0.09154 -0.697024,0.261241 -0.164069,0.165505 -0.257953,0.405539 -0.278173,0.698709 -0.180019,0.04649 -0.292422,0.132057 -0.35331,0.225298 -0.06361,0.09747 -0.07612,0.198576 -0.07612,0.263206 0,3.29e-4 1.4e-4,5.37e-4 1.96e-4,8.43e-4 -0.04721,-0.1152 -0.107489,-0.220498 -0.19045,-0.304214 -0.182362,-0.18395 -0.445908,-0.284787 -0.7660793,-0.284787 -0.2738644,0 -0.4951632,0.07007 -0.7004595,0.212787 -0.1928314,-0.138898 -0.4292974,-0.212787 -0.7078447,-0.212787 -0.2047369,0 -0.380175,0.04547 -0.5332646,0.129297 -0.1045039,-0.07559 -0.2256755,-0.121474 -0.3628345,-0.121474 -0.1245732,0 -0.3627211,0.04074 -0.5004243,0.267855 -0.111685,-0.138595 -0.2845605,-0.233348 -0.4857787,-0.233348 -0.1571527,0 -0.309581,0.048 -0.4517063,0.130999 -0.1038991,-0.07412 -0.2237857,-0.119471 -0.3596596,-0.119471 -0.090482,0 -0.2411716,0.01625 -0.3714518,0.113612 -0.1302803,0.09725 -0.2355401,0.275679 -0.2355401,0.582951 v 1.228799 c 0,0.308901 0.1052598,0.488315 0.2355401,0.586125 0.1302424,0.09781 0.2809321,0.114331 0.3714518,0.114331 0.090482,0 0.2410959,-0.01663 0.3713762,-0.114331 0.1302802,-0.09781 0.23554,-0.277228 0.23554,-0.586125 v -0.635811 c 0,-0.07313 0.00416,-0.09385 0.00605,-0.101102 0.00567,-0.0038 0.016252,-0.01134 0.053631,-0.02721 l 7.106e-4,-2.61e-4 c 2.608e-4,-9.4e-5 4.535e-4,-1.43e-4 5.178e-4,-1.96e-4 v -6.1e-5 c 6.8e-5,-5.3e-5 1.927e-4,-1.02e-4 4.535e-4,-1.96e-4 l 0.1892787,-0.06516 7.143e-4,-2.61e-4 c 0.1048063,-0.03326 0.226129,-0.08315 0.3327872,-0.15205 v 0.935995 c 0,0.308939 0.1050331,0.488406 0.2352755,0.58619 0.1302425,0.09778 0.2809322,0.11433 0.3713762,0.11433 0.090444,0 0.2413605,-0.01663 0.3716408,-0.11433 0.1302802,-0.09778 0.2353511,-0.277266 0.2353511,-0.58619 v -0.697477 c 0,-0.114746 0.015118,-0.167773 0.028724,-0.185574 0.0068,-0.0091 0.012094,-0.01172 0.022677,-0.01436 0.010583,-0.0025 0.026457,-0.003 0.045808,-0.003 0.010961,0 0.018142,4.87e-4 0.022677,0.0019 0.00416,0.0015 0.00718,0.0028 0.013228,0.01285 0.011717,0.02003 0.026079,0.07695 0.026079,0.195628 v 0.689963 c 0,0.308939 0.1049952,0.488341 0.2352754,0.586125 0.1302803,0.09778 0.2811968,0.114331 0.3717164,0.114331 0.090406,0 0.241096,-0.01663 0.3713762,-0.114331 0.1302786,-0.09777 0.2352738,-0.277185 0.2352738,-0.58612 v -0.697541 c 0,-0.114747 0.015118,-0.167774 0.028724,-0.185575 0.0068,-0.0091 0.012094,-0.01172 0.022677,-0.01436 0.010583,-0.0025 0.026457,-0.003 0.045808,-0.003 0.011339,0 0.019276,4.95e-4 0.024567,0.0022 0.00491,0.0017 0.00869,0.0033 0.01474,0.01323 0.012095,0.01965 0.027213,0.07631 0.027213,0.19491 v 0.689963 c 0,0.308901 0.1040126,0.488296 0.2333479,0.586125 0.1292976,0.09781 0.2790799,0.114331 0.3689949,0.114331 0.09044,0 0.241134,-0.01663 0.371376,-0.114331 0.130243,-0.09778 0.235276,-0.27719 0.235276,-0.586125 v -0.876073 c 0,-0.09997 -0.01209,-0.192491 -0.0325,-0.279534 0.05571,0.133229 0.171364,0.246879 0.364119,0.296693 v 0.858909 c 0,0.308976 0.10526,0.48833 0.235541,0.586125 0.13028,0.09778 0.280894,0.114331 0.371376,0.114331 0.0898,0 0.239659,-0.01663 0.368995,-0.114331 0.129335,-0.09785 0.233612,-0.277191 0.233612,-0.586125 v -0.838114 c 0.242155,-0.02646 0.388581,-0.115842 0.466413,-0.21959 -0.04868,0.139729 -0.08965,0.284522 -0.08965,0.445356 0,0.779119 0.611557,1.348059 1.444776,1.348059 0.830563,0 1.44037,-0.568989 1.44037,-1.348059 0,-0.77902 -0.609815,-1.347801 -1.44037,-1.347801 -0.581415,0 -1.040291,0.287244 -1.273367,0.719312 0.0083,-0.04063 0.01361,-0.0796 0.01361,-0.104051 0,-0.176655 -0.110702,-0.367785 -0.357468,-0.462005 0.122344,-0.05673 0.203528,-0.130281 0.241172,-0.2064 0.04445,-0.08984 0.04475,-0.176088 0.04475,-0.219137 0,-0.140296 -0.05688,-0.28199 -0.176013,-0.387318 -0.119139,-0.105336 -0.299195,-0.173594 -0.542344,-0.173594 z m 8.858131,0 c -0.09048,0 -0.241323,0.01663 -0.371641,0.114331 -0.130318,0.09778 -0.23554,0.276888 -0.23554,0.585864 v 0.169927 c -0.09419,-0.02305 -0.191282,-0.04089 -0.297713,-0.04089 -0.748993,0 -1.338016,0.586374 -1.338016,1.332381 0,0.740553 0.600543,1.343913 1.338016,1.343913 0.201448,0 0.383418,-0.04913 0.54136,-0.136101 0.105184,0.07669 0.227528,0.124384 0.363553,0.124384 0.0898,0 0.239433,-0.01663 0.36873,-0.114331 0.129298,-0.09785 0.233613,-0.277266 0.233613,-0.586189 v -2.093086 c 0,-0.308901 -0.104315,-0.488028 -0.233613,-0.585865 -0.129297,-0.09785 -0.278891,-0.11433 -0.36873,-0.11433 z m -19.5155699,0.04581 c -0.2907589,0 -0.5290694,0.09169 -0.6972885,0.261468 -0.1640314,0.165543 -0.2576503,0.405603 -0.2779085,0.698777 -0.18017,0.04641 -0.2924219,0.131944 -0.3533101,0.225222 C 0.012775,11.549144 0,11.650322 0,11.714914 0,11.923166 0.1415432,12.12819 0.4235261,12.20089 v 0.859169 c 0,0.3089 0.1050708,0.488314 0.2353511,0.586125 0.1302424,0.09781 0.2809321,0.11433 0.3713762,0.11433 0.089839,0 0.2396597,-0.01663 0.3689951,-0.11433 0.1293353,-0.09785 0.2336125,-0.277266 0.2336125,-0.586125 v -0.837857 c 0.181266,-0.01928 0.2987337,-0.07759 0.3823897,-0.148611 -0.034772,0.119509 -0.064857,0.241852 -0.064857,0.374098 0,0.745677 0.5809056,1.332188 1.3201393,1.332188 0.2051148,0 0.3922013,-0.05454 0.5525666,-0.14691 0.1023118,0.07945 0.2245039,0.127559 0.36994,0.127559 0.089839,0 0.239433,-0.01663 0.3687305,-0.114331 0.1292976,-0.09785 0.2336125,-0.277266 0.2336125,-0.586125 v -1.228867 c 0,-0.307162 -0.1043149,-0.485635 -0.2336125,-0.582951 -0.1292975,-0.09732 -0.2788912,-0.113574 -0.3687305,-0.113574 -0.131981,0 -0.2511495,0.04498 -0.3547463,0.117241 C 3.6841265,11.160756 3.506073,11.111396 3.29719,11.111396 c -0.4692206,0 -0.8684217,0.233763 -1.1086332,0.586382 -0.00643,-0.171817 -0.1125543,-0.35365 -0.3515715,-0.444903 0.1224188,-0.05669 0.2035275,-0.130281 0.2411715,-0.2064 0.04441,-0.0898 0.04475,-0.176164 0.04475,-0.219137 0,-0.140258 -0.05692,-0.28165 -0.1760125,-0.387058 C 1.8278014,10.334869 1.6479338,10.266233 1.4048234,10.266233 Z m 10.6574389,0.01701 c 0.23142,0 0.394915,0.0644 0.500681,0.157946 0.105751,0.09354 0.154961,0.216907 0.154961,0.340347 0,0.04237 -9.53e-4,0.115502 -0.0384,0.191244 -0.03742,0.07574 -0.110476,0.154922 -0.265134,0.207609 l -0.09626,0.03288 0.09793,0.02721 c 0.274091,0.07582 0.373379,0.262336 0.373379,0.428711 0,0.04947 -0.0102,0.153071 -0.08031,0.24771 -0.06996,0.09464 -0.199634,0.183912 -0.45242,0.203717 l -0.02872,0.0025 v 0.89091 c 0,0.295105 -0.09555,0.45053 -0.208857,0.536242 -0.11331,0.08572 -0.249147,0.101594 -0.331011,0.101594 -0.08262,0 -0.219515,-0.01625 -0.333732,-0.10182 -0.114255,-0.08576 -0.21052,-0.240945 -0.21052,-0.535986 v -0.905351 l -0.02457,-0.0053 c -0.277719,-0.061 -0.398845,-0.247257 -0.398845,-0.434151 0,-0.05631 0.01134,-0.144945 0.06614,-0.22885 0.0548,-0.08394 0.152692,-0.165204 0.334903,-0.206892 l 0.02305,-0.0053 0.0012,-0.02381 c 0.01625,-0.292081 0.108737,-0.521612 0.264189,-0.678436 0.155414,-0.156812 0.374816,-0.242645 0.652524,-0.242645 z m 8.858131,0 c 0.0819,0 0.217512,0.01587 0.330746,0.101631 0.113272,0.08572 0.208857,0.240832 0.208857,0.535922 v 2.093086 c 0,0.295105 -0.09558,0.450535 -0.208857,0.536243 -0.113272,0.08572 -0.248844,0.101594 -0.330746,0.101594 -0.128353,0 -0.243137,-0.04433 -0.342312,-0.120945 l -0.01663,-0.01285 -0.01814,0.01021 c -0.1519,0.08727 -0.329537,0.135193 -0.527887,0.135193 -0.703302,0 -1.275378,-0.574574 -1.275378,-1.281274 0,-0.713132 0.558973,-1.269675 1.275378,-1.269675 0.114898,0 0.220422,0.01625 0.320731,0.04407 l 0.03965,0.01096 v -0.246803 c 0,-0.29503 0.09634,-0.450164 0.210595,-0.535922 0.114255,-0.08576 0.251301,-0.101631 0.333959,-0.101631 z m -19.5155699,0.04581 c 0.2314204,0 0.3946581,0.06459 0.5004206,0.158173 0.1057511,0.09362 0.1550361,0.216869 0.1550361,0.340271 0,0.04233 -7.786e-4,0.115767 -0.038211,0.191471 -0.037417,0.0757 -0.1104377,0.154733 -0.2651337,0.207345 l -0.096265,0.03288 0.097928,0.02721 c 0.2743179,0.07601 0.3731147,0.262525 0.3731147,0.428711 0,0.01739 -0.00151,0.04218 -0.00643,0.07056 l 0.058054,0.02116 c 0.219666,-0.380455 0.630474,-0.632439 1.1137506,-0.632439 0.2068535,0 0.3785951,0.04739 0.5261402,0.138822 l 0.018142,0.01134 0.017008,-0.01285 c 0.097965,-0.07245 0.2097637,-0.114066 0.3344503,-0.114066 0.08194,0 0.2177762,0.01587 0.3310108,0.101102 0.1132346,0.08527 0.2085921,0.239471 0.2085921,0.532743 v 1.228867 c 0,0.29503 -0.09532,0.450194 -0.2085921,0.535918 -0.1132724,0.08572 -0.2491085,0.10182 -0.3310108,0.10182 -0.1397291,0 -0.2526613,-0.04422 -0.3479432,-0.123326 l -0.017008,-0.01436 -0.019276,0.01172 c -0.1541669,0.09264 -0.3370959,0.145436 -0.5383821,0.145436 -0.7061931,0 -1.2574974,-0.556233 -1.2574974,-1.269478 0,-0.153449 0.027213,-0.298885 0.075401,-0.43409 l -0.053367,-0.03099 c -0.073285,0.0867 -0.2012219,0.165656 -0.4360287,0.183836 l -0.028724,0.0022 v 0.891235 c 0,0.295029 -0.095282,0.450194 -0.208592,0.535917 -0.1133102,0.08572 -0.2493732,0.101821 -0.3312755,0.101821 -0.082583,0 -0.2194392,-0.01625 -0.3336943,-0.101821 -0.1142125,-0.08575 -0.2103258,-0.240941 -0.2103258,-0.535914 v -0.905681 l -0.024567,-0.0053 c -0.277644,-0.06085 -0.3988458,-0.24703 -0.3988458,-0.434087 0,-0.05628 0.011338,-0.14502 0.066142,-0.228926 0.054765,-0.08394 0.1526928,-0.165278 0.3349037,-0.206891 l 0.023055,-0.0053 0.00123,-0.02343 c 0.016252,-0.292083 0.108737,-0.521851 0.2641888,-0.678694 0.1554124,-0.156851 0.3750407,-0.242873 0.6527187,-0.242873 z M 12.06233,10.475211 c -0.463487,0 -0.730904,0.283011 -0.730904,0.817841 0,0.03477 0.0045,0.06981 0.0045,0.104617 -0.280894,0.01172 -0.423526,0.104806 -0.423526,0.271445 0,0.158816 0.147137,0.263509 0.396643,0.263509 h 0.02684 v 1.08136 c 0,0.298393 0.111382,0.445878 0.352138,0.445878 0.240642,0 0.347678,-0.147477 0.347678,-0.445878 v -1.081361 h 0.115843 c 0.298545,0 0.44575,-0.09298 0.44575,-0.263508 0,-0.166639 -0.164901,-0.271446 -0.44575,-0.271446 h -0.10243 v -0.135571 c 0,-0.174312 0.0087,-0.209348 0.155868,-0.228662 0.200579,-0.02721 0.320995,-0.08134 0.320995,-0.251943 0,-0.186104 -0.173896,-0.306255 -0.463627,-0.306255 z m 8.857999,0 c -0.240605,0 -0.352139,0.147213 -0.352139,0.445682 v 0.558206 c -0.160441,-0.120151 -0.338797,-0.174312 -0.55257,-0.174312 -0.583899,0 -1.083307,0.457213 -1.083307,1.077411 0,0.624071 0.512568,1.089266 1.083307,1.089266 0.23142,0 0.427683,-0.07381 0.570383,-0.209423 0.0802,0.127899 0.196195,0.197858 0.334337,0.197858 0.24068,0 0.347603,-0.147477 0.347603,-0.445814 V 10.9207 c 0,-0.298469 -0.111458,-0.445681 -0.347603,-0.445681 z m -19.5155059,0.04611 c -0.4635929,0 -0.7310321,0.283011 -0.7310321,0.817841 0,0.03477 0.00454,0.06977 0.00454,0.104617 -0.2808943,0.01172 -0.4235261,0.104731 -0.4235261,0.27137 0,0.158891 0.1470614,0.263584 0.3966423,0.263584 h 0.026835 v 1.081492 c 0,0.298394 0.1113826,0.445746 0.352025,0.445746 0.2408314,0 0.347603,-0.147364 0.347603,-0.445746 V 11.978733 H 1.493866 c 0.2986204,0 0.4457498,-0.09301 0.4457498,-0.263584 0,-0.16664 -0.1649763,-0.27137 -0.4457498,-0.27137 H 1.3914409 v -0.135572 c 0,-0.174387 0.00869,-0.20931 0.1560566,-0.228661 0.2004283,-0.02721 0.320844,-0.08145 0.320844,-0.251868 0,-0.186179 -0.1738204,-0.30633 -0.4635627,-0.30633 z m 15.7094589,0.532486 c -0.833166,0 -1.444776,0.568728 -1.444776,1.347802 0,0.779123 0.611606,1.348059 1.444776,1.348059 0.830611,0 1.44037,-0.568993 1.44037,-1.348059 0,-0.779017 -0.609762,-1.347802 -1.44037,-1.347802 z m 5.753122,0 c -0.320277,0 -0.602509,0.09645 -0.805727,0.259238 -0.203225,0.162784 -0.327155,0.39312 -0.327155,0.654467 0,0.269631 0.123628,0.4494 0.292799,0.582946 -0.202582,0.07291 -0.355237,0.256857 -0.355237,0.486754 0,0.211049 0.120378,0.391094 0.319748,0.514609 0.19937,0.123515 0.4778,0.1937 0.804041,0.1937 0.340384,0 0.640478,-0.100686 0.856448,-0.270311 C 23.868283,13.305585 24,13.065623 24,12.792888 c 0,-0.2897 -0.151144,-0.48006 -0.345714,-0.617737 0.169247,-0.08613 0.292347,-0.246236 0.292347,-0.440239 0,-0.197858 -0.121172,-0.370318 -0.314835,-0.490382 -0.193663,-0.120076 -0.460796,-0.190715 -0.764398,-0.190715 z m -8.755324,0.06263 c 0.80222,0 1.377664,0.538601 1.377664,1.28516 0,0.746611 -0.575452,1.285352 -1.377664,1.285352 -0.804967,0 -1.382067,-0.53879 -1.382067,-1.285352 0,-0.746513 0.577096,-1.28516 1.382067,-1.28516 z m 3.002202,0 c 0.802273,0 1.377664,0.538594 1.377664,1.28516 0,0.746615 -0.575399,1.285352 -1.377664,1.285352 -0.804914,0 -1.382135,-0.538794 -1.382135,-1.285352 0,-0.746509 0.577217,-1.28516 1.382135,-1.28516 z m 5.753122,0 c 0.29382,0 0.550329,0.06898 0.731293,0.181191 0.180964,0.112214 0.285279,0.264831 0.285279,0.43726 0,0.182249 -0.117846,0.339326 -0.287698,0.409145 l -0.05488,0.02268 0.0497,0.03288 c 0.200844,0.131868 0.346243,0.309052 0.346243,0.593511 0,0.252699 -0.120454,0.473457 -0.323717,0.633089 -0.203225,0.15961 -0.489739,0.256857 -0.817772,0.256857 -0.317216,0 -0.584848,-0.06909 -0.77094,-0.184366 -0.186104,-0.115275 -0.290154,-0.273751 -0.290154,-0.46123 0,-0.218419 0.148308,-0.40018 0.346885,-0.451514 l 0.0644,-0.01663 -0.05382,-0.03893 c -0.176197,-0.127521 -0.294988,-0.294538 -0.294988,-0.562609 0,-0.241663 0.113008,-0.452863 0.303572,-0.605495 0.190526,-0.152617 0.458966,-0.245594 0.766601,-0.245594 z m -14.5743272,0.02721 c 0.2758676,0 0.50499,0.07155 0.6889925,0.209839 l 0.01852,0.01398 0.018898,-0.01361 c 0.200466,-0.144265 0.4108155,-0.210293 0.6821288,-0.210293 0.3070869,0 0.5522689,0.09566 0.7215119,0.266381 0.169247,0.170721 0.263924,0.417902 0.263924,0.727861 v 0.876011 c 0,0.29503 -0.09608,0.45024 -0.210293,0.535986 -0.114217,0.08576 -0.251187,0.10182 -0.333732,0.10182 -0.08198,0 -0.2177386,-0.01625 -0.331011,-0.10182 -0.1132731,-0.08568 -0.2085927,-0.240907 -0.2085927,-0.535986 v -0.6899 c 0,-0.123061 -0.011339,-0.187389 -0.036283,-0.227943 -0.012472,-0.02041 -0.030614,-0.03364 -0.048,-0.03965 -0.017386,-0.0057 -0.03326,-0.0053 -0.044561,-0.0053 -0.019276,0 -0.039194,-3.85e-4 -0.059981,0.0045 -0.020787,0.0049 -0.042595,0.01701 -0.058243,0.03704 -0.03137,0.0407 -0.041839,0.104504 -0.041839,0.223824 v 0.697541 c 0,0.29503 -0.096113,0.450172 -0.2103306,0.535922 -0.1142551,0.08576 -0.2511495,0.10182 -0.3336565,0.10182 -0.082658,0 -0.2197417,-0.01625 -0.3339967,-0.10182 -0.1142551,-0.08575 -0.210255,-0.240903 -0.210255,-0.535917 v -0.689964 c 0,-0.122986 -0.010583,-0.186973 -0.034394,-0.227452 -0.012094,-0.02041 -0.02948,-0.03402 -0.046526,-0.03991 -0.017386,-0.0061 -0.032504,-0.0057 -0.043351,-0.0057 -0.019276,0 -0.039194,-3.86e-4 -0.059981,0.0045 -0.020787,0.0049 -0.042671,0.01701 -0.058318,0.03704 -0.03137,0.04071 -0.041839,0.104504 -0.041839,0.223823 v 0.697542 c 0,0.29503 -0.096113,0.450176 -0.2103306,0.535922 -0.1142551,0.08576 -0.2513385,0.10182 -0.3339211,0.10182 -0.082583,0 -0.2195149,-0.01625 -0.3337322,-0.10182 -0.1142175,-0.08575 -0.2102553,-0.2409 -0.2102553,-0.535915 v -1.048074 l -0.050721,0.03946 C 6.6995005,12.086117 6.5593556,12.132 6.4386376,12.170287 h -5.178e-4 l -0.1931716,0.06659 -7.105e-4,5.14e-4 c -0.05057,0.02116 -0.071131,0.03439 -0.080579,0.04184 l -0.00718,0.0061 -0.00298,0.0091 c -0.00529,0.01776 -0.00907,0.0469 -0.00907,0.129751 v 0.63581 c 0,0.294992 -0.096038,0.450218 -0.2102929,0.535983 -0.1142172,0.08576 -0.2513006,0.10182 -0.3339211,0.10182 -0.082658,0 -0.2197794,-0.01625 -0.3339966,-0.10182 C 5.1519999,13.51014 5.0559243,13.354915 5.0559243,13.059915 v -1.228799 c 0,-0.293254 0.096038,-0.44753 0.2102929,-0.532811 0.1142172,-0.08527 0.2513384,-0.101065 0.3339966,-0.101065 0.1292976,0 0.2415495,0.04195 0.3395904,0.116296 l 0.017008,0.01285 0.01852,-0.01096 c 0.1385574,-0.08425 0.2858455,-0.129751 0.4365503,-0.129751 0.1964976,0 0.3680502,0.09385 0.4646625,0.233083 l 0.029858,0.04309 0.023811,-0.04679 c 0.1191307,-0.232667 0.3486613,-0.263924 0.4679053,-0.263924 0.1302803,0 0.2431747,0.04229 0.341518,0.11777 l 0.01663,0.01285 0.018142,-0.01021 C 7.9212817,11.187338 8.0910958,11.143457 8.2942,11.143457 Z m 14.5741342,0.164862 c -0.521548,0 -0.87815,0.294577 -0.87815,0.658938 0,0.325568 0.236296,0.469062 0.668784,0.624019 0.254097,0.0892 0.383296,0.127899 0.383296,0.224768 0,0.06595 -0.07586,0.12412 -0.19627,0.12412 -0.218381,0 -0.432295,-0.17847 -0.650774,-0.17847 -0.146986,0 -0.267326,0.120341 -0.267326,0.275263 0,0.24824 0.347716,0.453653 0.869211,0.453653 0.561664,0 0.949277,-0.310186 0.949277,-0.697935 0,-0.278967 -0.195968,-0.441588 -0.583857,-0.592992 -0.29416,-0.112252 -0.485586,-0.135496 -0.485586,-0.251868 0,-0.05813 0.05783,-0.104504 0.160252,-0.104504 0.19166,0 0.396707,0.147251 0.566045,0.147251 0.160516,0 0.289814,-0.112479 0.289814,-0.255799 0,-0.213278 -0.334299,-0.426444 -0.824704,-0.426444 z m -8.755131,6.5e-5 c -0.690882,0 -1.19032,0.457371 -1.19032,1.092959 0,0.635637 0.499438,1.093152 1.19032,1.093152 0.69518,0 1.185399,-0.457515 1.185399,-1.093152 0,-0.635588 -0.490219,-1.092959 -1.185399,-1.092959 z m 3.002202,0 c -0.690829,0 -1.190127,0.457371 -1.190127,1.092959 0,0.635637 0.499298,1.093152 1.190127,1.093152 0.695285,0 1.185528,-0.457515 1.185528,-1.093152 0,-0.635588 -0.490243,-1.092959 -1.185528,-1.092959 z m -8.8212694,0.02721 c -0.2361826,0 -0.4144061,0.06195 -0.5615091,0.201448 -0.084888,-0.131717 -0.1962329,-0.193776 -0.3344502,-0.193776 -0.2405668,0 -0.3520628,0.143433 -0.3520628,0.441924 v 1.228607 c 0,0.298394 0.1115338,0.445682 0.3520628,0.445682 0.2408314,0 0.3521384,-0.147288 0.3521384,-0.445682 v -0.697814 c 0,-0.302324 0.098041,-0.457405 0.3521385,-0.457405 0.2273006,0 0.316573,0.155036 0.316573,0.465116 v 0.689899 c 0,0.298394 0.1114204,0.445682 0.3520629,0.445682 0.2406424,0 0.3521384,-0.147288 0.3521384,-0.445682 v -0.69761 c 0,-0.302324 0.098079,-0.457405 0.352025,-0.457405 0.2273385,0 0.3209951,0.155036 0.3209951,0.465116 v 0.689899 c 0,0.298394 0.1068472,0.445682 0.3476784,0.445682 0.240605,0 0.352214,-0.147288 0.352214,-0.445682 v -0.875882 c 0,-0.527225 -0.307653,-0.802356 -0.793549,-0.802356 -0.2897007,0 -0.4948269,0.0813 -0.7086876,0.28679 -0.1649385,-0.189996 -0.3966801,-0.28679 -0.6997451,-0.28679 z m -4.995917,0.03061 c -0.5970933,0 -1.0920524,0.461177 -1.0920524,1.081428 0,0.639462 0.4903556,1.077607 1.0654294,1.077607 0.2406802,0 0.4456628,-0.08137 0.5883247,-0.23263 0.075779,0.147137 0.1782803,0.213241 0.3342613,0.213241 0.2361826,0 0.3477542,-0.147364 0.3477542,-0.445746 v -1.228736 c 0,-0.298658 -0.1069606,-0.44186 -0.3477542,-0.44186 -0.1426393,0 -0.2540219,0.06966 -0.3342613,0.193625 C 3.7161202,11.436117 3.5378022,11.366385 3.2970956,11.366385 Z m 3.1136224,0.01172 c -0.1649007,0 -0.3297636,0.06992 -0.4769723,0.205417 -0.084661,-0.131716 -0.1963464,-0.193701 -0.3341857,-0.193701 -0.2408314,0 -0.3522518,0.14332 -0.3522518,0.441861 v 1.228735 c 0,0.298394 0.1114582,0.445746 0.3522518,0.445746 0.2404912,0 0.352025,-0.147364 0.352025,-0.445746 v -0.635811 c 0,-0.209234 0.022299,-0.282897 0.2184188,-0.364308 0.285203,-0.116258 0.5972029,-0.135572 0.5972029,-0.379801 0,-0.162822 -0.1604031,-0.3024 -0.3564849,-0.3024 z m 13.707383,0.492649 c 0.262904,0 0.458963,0.197707 0.458963,0.519402 0,0.314003 -0.196081,0.511498 -0.458963,0.511498 -0.263092,0 -0.463755,-0.201449 -0.463755,-0.511498 0,-0.317821 0.200655,-0.519402 0.463755,-0.519402 z m -6.006021,0.01172 c 0.258482,0 0.463498,0.201563 0.463498,0.511563 0,0.317972 -0.196044,0.519466 -0.463498,0.519466 -0.267515,0 -0.463627,-0.197556 -0.463627,-0.519466 0,-0.317783 0.205153,-0.511563 0.463627,-0.511563 z m 3.002202,0 c 0.258444,0 0.463559,0.201563 0.463559,0.511563 0,0.317972 -0.196082,0.519466 -0.463559,0.519466 -0.267364,0 -0.463691,-0.197556 -0.463691,-0.519466 0,-0.317783 0.205077,-0.511563 0.463691,-0.511563 z m -13.7279858,0.06939 c 0.2540597,0 0.4500886,0.189922 0.4500886,0.488372 0,0.302286 -0.1915086,0.499971 -0.4500886,0.499971 -0.258444,0 -0.4545561,-0.189808 -0.4545561,-0.499971 0,-0.302438 0.2005417,-0.488372 0.4545561,-0.488372 z m 16.7318698,0.110892 c -0.08213,0 -0.152769,0.03288 -0.200051,0.09135 -0.04728,0.05832 -0.07177,0.139691 -0.07177,0.236258 0,0.09422 0.02457,0.173858 0.07204,0.230664 0.04739,0.05684 0.117883,0.08863 0.199786,0.08863 0.08137,0 0.150916,-0.03137 0.197329,-0.08791 0.04638,-0.05669 0.06951,-0.136138 0.06951,-0.231382 0,-0.0977 -0.02306,-0.179112 -0.06924,-0.237241 -0.04626,-0.05813 -0.115993,-0.09037 -0.197593,-0.09037 z m -6.006086,0.01172 c -0.08187,0 -0.152353,0.03175 -0.199786,0.08863 -0.04739,0.05688 -0.0717,0.136554 -0.0717,0.230891 0,0.04724 0.0053,0.125594 0.04229,0.196082 0.03704,0.07049 0.110816,0.131225 0.229191,0.131225 0.08281,0 0.153675,-0.03213 0.200768,-0.0901 0.04709,-0.05809 0.07053,-0.139502 0.07053,-0.237241 0,-0.09317 -0.02495,-0.172573 -0.07249,-0.229644 -0.04751,-0.05707 -0.117845,-0.08984 -0.198803,-0.08984 z m 3.002202,0 c -0.08183,0 -0.15239,0.03175 -0.199786,0.08863 -0.04739,0.05688 -0.07177,0.136554 -0.07177,0.230891 0,0.04724 0.0053,0.125594 0.04237,0.196082 0.03704,0.07049 0.110816,0.131225 0.229191,0.131225 0.08277,0 0.153638,-0.03213 0.20073,-0.0901 0.04713,-0.05809 0.07075,-0.139502 0.07075,-0.237241 0,-0.09317 -0.02532,-0.172573 -0.07268,-0.229644 -0.04755,-0.05707 -0.117809,-0.08984 -0.198804,-0.08984 z m 3.003884,0.05091 c 0.06592,0 0.113915,0.02343 0.148611,0.06686 0.03477,0.04362 0.0556,0.110248 0.0556,0.198047 0,0.08504 -0.02079,0.149518 -0.05533,0.191735 -0.03439,0.04225 -0.08277,0.06486 -0.148875,0.06486 -0.06637,0 -0.116183,-0.02343 -0.151824,-0.06607 -0.03553,-0.04275 -0.05726,-0.107112 -0.05726,-0.190526 0,-0.08602 0.02154,-0.15273 0.05753,-0.196875 0.0359,-0.04415 0.08545,-0.06803 0.151597,-0.06803 z m -6.006086,0.01172 c 0.06474,0 0.114482,0.02381 0.150539,0.06712 0.03591,0.04331 0.05805,0.10783 0.05805,0.189732 0,0.08761 -0.02116,0.154242 -0.05654,0.19782 -0.03553,0.04362 -0.08462,0.06678 -0.152051,0.06678 -0.09842,0 -0.144604,-0.04241 -0.173593,-0.0977 -0.0291,-0.05529 -0.03515,-0.125215 -0.03515,-0.166941 0,-0.08349 0.02154,-0.147893 0.05734,-0.190715 0.03553,-0.04282 0.08523,-0.06614 0.151521,-0.06614 z m 3.002202,0 c 0.06478,0 0.114482,0.02381 0.150539,0.06712 0.03591,0.04331 0.05832,0.10783 0.05832,0.189732 0,0.08757 -0.02154,0.154204 -0.05681,0.19782 -0.03553,0.04362 -0.08466,0.06678 -0.152051,0.06678 -0.09842,0 -0.144642,-0.04241 -0.173593,-0.0977 -0.0291,-0.05529 -0.03515,-0.125178 -0.03515,-0.166941 0,-0.08349 0.02154,-0.147893 0.05726,-0.190715 0.03553,-0.04282 0.08534,-0.06614 0.151596,-0.06614 z m -13.7279216,0.0064 c -0.078728,0 -0.1466834,0.0291 -0.192718,0.08202 -0.046035,0.0528 -0.06977,0.127143 -0.06977,0.214488 0,0.09188 0.022677,0.168604 0.068523,0.223294 0.045694,0.05469 0.1141039,0.08447 0.1939653,0.08447 0.077896,0 0.1451716,-0.03061 0.1901857,-0.08572 0.045014,-0.05492 0.067843,-0.131527 0.067843,-0.222047 0,-0.08727 -0.023055,-0.161386 -0.068296,-0.214224 -0.045203,-0.05284 -0.1121763,-0.08228 -0.189733,-0.08228 z m 0,0.0627 c 0.0624,0 0.1087748,0.02117 0.1419968,0.06017 0.03326,0.03885 0.053367,0.09747 0.053367,0.173593 0,0.07986 -0.020031,0.141354 -0.053631,0.182173 -0.03326,0.04078 -0.079672,0.06289 -0.1417322,0.06289 -0.064932,0 -0.1122897,-0.02154 -0.1459653,-0.06195 -0.033638,-0.04029 -0.053896,-0.101669 -0.053896,-0.183118 0,-0.07604 0.020409,-0.134475 0.05435,-0.173366 0.034016,-0.03885 0.081638,-0.06044 0.1454739,-0.06044 z"/></svg>