<svg viewBox="0 0 24 24" xmlns="http://www.w3.org/2000/svg"><path d="m 13.298,1.7909699 c 0,0.9792642 -0.81,1.7909699 -1.786,1.7909699 A 1.8,1.8060201 0 0 1 9.728,1.7909699 C 9.728,0.81471572 10.541,0 11.512,0 c 0.976,0 1.786,0.81571906 1.786,1.7909699 m -1.786,3.2538462 c -1.052,0 -1.863,0.812709 -1.863,1.8722408 0,1.0565217 0.81,1.8712374 1.865,1.8712374 1.053,0 1.865,-0.8137124 1.865,-1.8712374 0,-1.0575251 -0.825,-1.8722408 -1.875,-1.8722408 z m 0,5.0458189 c -1.052,0 -1.945,0.89398 -1.945,1.951505 0,1.057526 0.894,1.951505 1.947,1.951505 1.053,0 1.946,-0.893979 1.946,-1.951505 0,-1.057525 -0.894,-1.951505 -1.946,-1.951505 z m 0,5.124081 c -1.052,0 -1.863,0.812709 -1.863,1.870234 0,1.057525 0.81,1.872241 1.865,1.872241 a 1.836,1.8421405 0 0 0 1.865,-1.872241 c 0,-0.975251 -0.825,-1.870234 -1.875,-1.870234 z m 0,5.208361 A 1.8,1.8060201 0 0 0 9.728,22.213043 1.8,1.8060201 0 0 0 11.512,24 c 0.977,0 1.786,-0.811706 1.786,-1.789967 0,-0.976254 -0.81,-1.786956 -1.786,-1.786956 M 16.46,4.7989967 c -1.136,0 -2.108,0.9802675 -2.108,2.1180602 0,1.1377926 0.973,2.1140468 2.108,2.1140468 1.135,0 2.106,-0.9782609 2.106,-2.1140468 0,-1.138796 -0.972,-2.1160536 -2.106,-2.1160536 z m 0,5.0468227 c -1.216,0 -2.19,0.9762546 -2.19,2.1973246 a 2.18,2.187291 0 0 0 2.19,2.194314 2.18,2.187291 0 0 0 2.189,-2.196321 2.18,2.187291 0 0 0 -2.189,-2.1953176 m 0,5.1250836 c -1.136,0 -2.108,0.979264 -2.108,2.114047 0,1.138796 0.973,2.116053 2.108,2.116053 1.135,0 2.106,-0.979264 2.106,-2.116053 0,-1.136789 -0.971,-2.114047 -2.106,-2.114047 M 21.566,9.6 a 2.44,2.4481605 0 0 0 -2.43,2.44214 c 0,1.301338 1.051,2.441138 2.43,2.441138 1.381,0 2.434,-1.068562 2.434,-2.452174 C 23.918,10.644482 22.865,9.5919732 21.566,9.5919732 Z M 6.486,5.2896321 c -0.892,0 -1.62,0.7324415 -1.62,1.6284281 0,0.8939799 0.729,1.6254181 1.62,1.6254181 0.893,0 1.619,-0.7314382 1.619,-1.6254181 0,-0.8959866 -0.727,-1.6254181 -1.619,-1.6254181 z m 0,5.0438129 c -0.973,0 -1.703,0.731438 -1.703,1.708695 0,0.977258 0.721,1.708696 1.695,1.708696 0.974,0 1.695,-0.732441 1.695,-1.708696 0,-0.97826 -0.735,-1.708695 -1.71,-1.708695 z m 0,5.12408 c -0.892,0 -1.62,0.733445 -1.62,1.625418 0,0.897993 0.729,1.628428 1.62,1.628428 0.893,0 1.619,-0.737458 1.619,-1.640468 0,-0.90301 -0.727,-1.625418 -1.619,-1.625418 z M 1.461,10.578261 c -0.813,0 -1.461,0.64816 -1.461,1.463879 0,0.812709 0.648,1.46388 1.46,1.46388 0.81,0 1.459,-0.650167 1.459,-1.46388 0,-0.813712 -0.648,-1.463879 -1.458,-1.463879"/></svg>