<svg viewBox="0 0 24 24" xmlns="http://www.w3.org/2000/svg"><path d="m 3.6755773,8.26681 c -1.24046,0 -2.08256,0.95569 -2.09312,2.07862 v 0.21769 H 0.45524732 c 0,0 -0.4725,1.17793 -0.45476000057,1.17313 H 1.5824573 v 2.04072 c 0,0.26568 -0.0845,0.60262 -0.48645,0.762 l 0.46629,1.19422 c 0.7257,-0.28487 1.29422,-0.98087 1.29518,-1.95622 v -2.04072 h 0.89419 v 2.81927 h 1.2755 v -2.54904 c 0.14207,-0.16463 0.39814,-0.30143 0.84377,-0.35207 -0.12669,0.27671 -0.19414,0.58176 -0.19414,0.89327 0,0.642 0.2335,1.21153 0.70532,1.61015 0.35565,0.30049 0.84642,0.48938 1.47445,0.49107 0.40413,9.3e-4 0.72667,-0.0605 1.04992,-0.17978 l -0.36285,-0.96024 c -0.15838,0.0583 -0.39549,0.10895 -0.57716,0.10873 -0.22269,-4.9e-4 -0.48163,-0.0667 -0.64843,-0.18649 -0.15238,-0.10944 -0.26134,-0.26329 -0.3211,-0.4524 h 2.34272 c 0.083,0.4644 0.30478,0.87263 0.6678797,1.17938 0.35565,0.30047 0.84641,0.48933 1.47444,0.49102 0.40414,9.6e-4 0.72668,-0.0605 1.04993,-0.17975 l -0.36285,-0.96025 c -0.15838,0.0583 -0.3955,0.10896 -0.57717,0.10871 -0.22269,-4.6e-4 -0.48163,-0.0667 -0.64843,-0.18646 -0.15238,-0.10945 -0.26133,-0.26329 -0.32109,-0.4524 h 2.93068 l 0.61868,1.5768 h 1.35326 l 0.71299,-1.81729 c 0.042,0.564 0.27356,1.06104 0.6981,1.41984 0.35566,0.30049 0.84643,0.48938 1.47446,0.49105 0.40414,9.3e-4 0.72667,-0.0605 1.04992,-0.17976 l -0.36285,-0.96024 c -0.15838,0.0583 -0.39549,0.10895 -0.57716,0.10871 -0.22269,-4.7e-4 -0.48165,-0.0667 -0.64843,-0.18647 -0.15238,-0.10944 -0.26134,-0.26329 -0.32109,-0.4524 h 2.34487 c 0.083,0.4644 0.30478,0.87262 0.66788,1.17936 0.35565,0.30046 0.84641,0.48935 1.47444,0.49104 0.40414,9.4e-4 0.72667,-0.0605 1.04992,-0.17978 l -0.36285,-0.96022 c -0.15838,0.0583 -0.39549,0.10894 -0.57716,0.10871 -0.22269,-4.9e-4 -0.48187,-0.0667 -0.64867,-0.18649 -0.15238,-0.10942 -0.26134,-0.26326 -0.3211,-0.4524 h 2.82173 V 12.5525 c 0,-0.95475 -0.63428,-2.08969 -2.03578,-2.08969 -0.85913,0 -1.50445,0.4416 -1.84187,1.05431 -0.30263,-0.58704 -0.88601,-1.05431 -1.78523,-1.05431 -0.5726,0 -1.05018,0.19631 -1.4051,0.50856 l 0.15982,-0.40752 h -1.34966 l -0.89226,2.50583 -0.90041,-2.50583 h -1.34344 l 0.14952,0.38136 c -0.32588,-0.29138 -0.77179,-0.4824 -1.34678,-0.4824 -0.85819,0 -1.5029997,0.44087 -1.8406897,1.0524 -0.30285,-0.58609 -0.88601,-1.0524 -1.78425,-1.0524 -0.63212,0 -1.14832,0.23904 -1.51166,0.60936 v -0.61752 c -0.31534,0 -0.67387,0.1092 -0.99544,0.35087 -0.0886,0.0665 -0.17471,0.144 -0.2484,0.2328 v -0.47471 h -2.16967 v -0.22393 c 0,-0.51047 0.3638,-0.83807 0.85097,-0.83807 0.0804,0 0.16055,0.0168 0.22127,0.0314 l 0.44445,-1.12651 c -0.19703,-0.0833 -0.41421,-0.1392 -0.69859,-0.1392 z m 4.12363,3.22824 c 0.38134,0 0.73028,0.16392 0.80803,0.60647 h -1.62324 c 0.0708,-0.34487 0.3134,-0.60647 0.81521,-0.60647 z m 3.6249397,0 c 0.38134,0 0.73027,0.16392 0.80803,0.60647 h -1.62324 c 0.0708,-0.34487 0.31342,-0.60647 0.81523,-0.60647 z m 6.92809,0 c 0.38131,0 0.73025,0.16392 0.80801,0.60647 h -1.62325 c 0.0708,-0.34487 0.31343,-0.60647 0.81524,-0.60647 z m 3.62709,0 c 0.38134,0 0.73027,0.16392 0.80803,0.60647 h -1.62324 c 0.0708,-0.34487 0.3134,-0.60647 0.81521,-0.60647 z"/></svg>