<svg viewBox="0 0 24 24" xmlns="http://www.w3.org/2000/svg"><path d="M 12.000123,0 C 5.3830228,0 0,5.3827573 0,11.999877 c 0,6.617119 5.3830228,11.999877 12.000123,11.999877 2.228574,0 4.354217,-0.617181 6.137065,-1.680032 l 4.59414,1.131546 c 0.445707,0.102798 0.82306,-0.274214 0.720206,-0.71994 L 22.319969,18.136941 C 23.382819,16.354094 24,14.228431 24,11.999877 24,5.3827573 18.617243,0 12.000123,0 Z m 0.175628,4.9197719 c 0.141488,0 0.287168,0.051588 0.407168,0.1543854 l 4.114085,3.5656189 c 0.137126,0.1027971 0.205803,0.2742711 0.205803,0.4457071 l -0.03433,7.2342627 c 0,0.342853 -0.274252,0.582814 -0.582833,0.582814 H 8.0572086 c -0.3428531,0 -0.5828332,-0.274252 -0.5828332,-0.582814 V 9.0854833 c 0,-0.171455 0.068468,-0.3428531 0.2055563,-0.4457071 L 11.794282,5.0741573 C 11.89708,4.9713601 12.034319,4.9197719 12.175751,4.9197719 Z"/></svg>