<svg viewBox="0 0 24 24" xmlns="http://www.w3.org/2000/svg"><path d="m 23.777904,14.482 -2.287,-9.959 c -0.13,-0.545 -0.624,-1.09 -1.169,-1.248 L 9.8699036,0.051 C 9.7399036,0 9.5839036,0 9.4259036,0 c -0.443,0 -0.909,0.18 -1.222,0.443 L 0.71590362,7.412 c -0.416,0.364 -0.624,1.092 -0.494,1.612 L 2.6669036,19.686 c 0.13,0.545 0.624,1.092 1.169,1.248 l 9.7750004,3.015 c 0.13,0.051 0.285,0.051 0.443,0.051 0.443,0 0.91,-0.18 1.223,-0.443 l 8.007,-7.435 c 0.418,-0.39 0.624,-1.092 0.494,-1.64 m -12.816,-12.065 7.175,2.21 c 0.285,0.08 0.285,0.21 0,0.286 l -3.77,0.858 c -0.285,0.08 -0.674,-0.05 -0.883,-0.26 l -2.626,-2.834 c -0.235,-0.232 -0.184,-0.336 0.104,-0.26 m 4.47,12.872 c 0.079,0.286 -0.105,0.444 -0.39,0.365 L 7.2939036,13.262 c -0.285,-0.079 -0.338,-0.313 -0.13,-0.52 L 13.093904,7.228 c 0.209,-0.209 0.443,-0.13 0.52,0.156 z M 2.6669036,8.267 l 6.293,-5.85 c 0.21,-0.209 0.545,-0.18 0.754,0.025 L 12.859904,5.85 c 0.209,0.21 0.18,0.545 -0.026,0.754 l -6.2930004,5.85 c -0.21,0.21 -0.545,0.181 -0.754,-0.025 l -3.147,-3.405 a 0.536,0.536 0 0 1 0.026,-0.757 z m 1.536,9.284 -1.663,-7.307 c -0.08,-0.285 0.05,-0.34 0.234,-0.13 l 2.626,2.835 c 0.209,0.209 0.285,0.624 0.209,0.909 l -1.147,3.692 c -0.079,0.285 -0.208,0.285 -0.26,0 z m 9.2020004,4.264 -8.2170004,-2.522 a 0.547,0.547 0 0 1 -0.364,-0.675 l 1.378,-4.421 a 0.547,0.547 0 0 1 0.675,-0.365 l 8.2160004,2.522 c 0.285,0.079 0.443,0.39 0.364,0.675 l -1.377,4.421 a 0.553,0.553 0 0 1 -0.674,0.365 z m 7.279,-5.98 -5.484,5.095 c -0.209,0.209 -0.31,0.13 -0.234,-0.155 l 1.144,-3.694 c 0.079,-0.285 0.39,-0.573 0.674,-0.624 l 3.77,-0.858 c 0.288,-0.076 0.339,0.054 0.13,0.234 z m 0.598,-1.09 -4.523,1.039 a 0.534,0.534 0 0 1 -0.65,-0.39 l -1.922,-8.372 a 0.534,0.534 0 0 1 0.39,-0.65 l 4.523,-1.037 a 0.534,0.534 0 0 1 0.649,0.39 l 1.923,8.371 c 0.079,0.31 -0.102,0.596 -0.39,0.65 z"/></svg>