<svg viewBox="0 0 24 24" xmlns="http://www.w3.org/2000/svg"><path d="m 2.10823,8.95423 -0.64577,1.11855 3.16713,1.82854 0.64576,-1.11856 z M 0,10.17144 v 3.65706 h 1.29159 v -3.65706 z m 7.08866,0.3298 v 0.5001 h 0.61047 v -0.5001 z m 1.07272,0 v 2.97984 h 0.63283 v -1.0169 h 0.433 c 0.25536,0 0.47188,-0.0375 0.64952,-0.11253 0.17764,-0.0778 0.31225,-0.18893 0.40384,-0.3334 0.0944,-0.14726 0.14154,-0.3251 0.14154,-0.53348 0,-0.31674 -0.10266,-0.5598 -0.30805,-0.72929 C 9.90866,10.586 9.61442,10.50124 9.23138,10.50124 Z m 2.65459,0 v 2.97984 h 2.04988 V 12.92263 H 11.4578 v -2.42139 z m 3.52106,0 c -0.19973,0.46954 -0.39806,0.95299 -0.59501,1.45032 -0.19419,0.49733 -0.38562,1.00719 -0.57425,1.52952 h 0.68659 c 0.0721,-0.21671 0.14425,-0.43207 0.21638,-0.646 h 1.20671 c 0.0721,0.21116 0.14425,0.42651 0.21638,0.646 h 0.70323 c -0.18309,-0.49455 -0.37313,-0.99053 -0.57008,-1.48786 -0.19419,-0.50011 -0.39391,-0.99743 -0.59919,-1.49198 z m 1.45496,0 1.11692,2.0122 v 0.9676 h 0.64183 v -0.9676 l 1.12109,-2.0122 h -0.7127 l -0.72099,1.46878 -0.71682,-1.46878 z m 3.16113,0 v 2.97984 h 2.12571 V 12.9476 h -1.48388 v -0.7335 h 1.24631 v -0.53343 h -1.24631 v -0.64596 h 1.40468 v -0.53347 z m 2.54216,0 v 2.97984 h 0.63345 v -1.08359 h 0.4501 0.0625 c 0.21393,0.35563 0.42093,0.71685 0.62098,1.08359 h 0.73767 c -0.12225,-0.20838 -0.24453,-0.4112 -0.36678,-0.60846 -0.12224,-0.20005 -0.24587,-0.39873 -0.37089,-0.596 0.17226,-0.075 0.30423,-0.18197 0.39592,-0.32089 0.0945,-0.13892 0.14168,-0.30702 0.14168,-0.50428 0,-0.30562 -0.10557,-0.54038 -0.31672,-0.70431 -0.20838,-0.16392 -0.50846,-0.2459 -0.90021,-0.2459 z M 8.79421,11.00158 h 0.40385 c 0.18596,0 0.32755,0.0389 0.4247,0.1167 0.0999,0.0778 0.14988,0.19863 0.14988,0.36255 0,0.16393 -0.05,0.28481 -0.14988,0.36261 -0.0972,0.075 -0.24008,0.11248 -0.42883,0.11248 H 8.79421 Z m 13.33452,0.004 h 0.42095 c 0.19726,0 0.34591,0.0361 0.44593,0.10835 0.1028,0.0722 0.15419,0.18477 0.15419,0.33758 0,0.15281 -0.0514,0.26534 -0.15419,0.33758 -0.1028,0.0695 -0.25284,0.10418 -0.4501,0.10418 h -0.41678 z m -7.45464,0.14584 c 0.0694,0.18616 0.13869,0.37649 0.20804,0.57097 0.0721,0.19171 0.14146,0.38483 0.20804,0.57932 H 14.2538 c 0.13592,-0.3862 0.27604,-0.76965 0.42029,-1.15029 z m -7.58543,0.30923 v 2.02049 h 0.61047 v -2.02049 z m -2.45907,0.63803 -3.16713,1.82854 0.64577,1.11855 3.16712,-1.82858 z"/></svg>