<svg viewBox="0 0 24 24" xmlns="http://www.w3.org/2000/svg"><path d="m 12,0 a 12.000022,12.000022 0 0 0 -12,12.00011 12.000022,12.000022 0 0 0 12,12 12.000022,12.000022 0 0 0 12,-12 A 12.000022,12.000022 0 0 0 12,0 Z M 11.20579,5.36954 12.22757,6.3906 6.2568,12.36543 a 0.72251552,0.72251552 0 0 1 -0.006,0.006 c 0,0 -0.38419,0.38704 -0.56008,0.97948 -0.17588,0.59244 -0.21329,1.30872 0.7541,2.30105 0.9676,0.99243 1.66659,0.94842 2.26333,0.76577 0.59675,-0.18265 1.00137,-0.58602 1.00137,-0.58602 a 0.72251552,0.72251552 0 0 1 0.008,-0.008 l 5.97077,-5.97483 1.02199,1.02127 -5.96493,5.969 c -0.006,0.007 -0.62652,0.65801 -1.61417,0.96031 C 8.1385,18.10329 6.68699,17.97025 5.4103,16.66075 4.14145,15.35917 4.0133,13.92471 4.30567,12.93988 4.58329,12.00481 5.17708,11.40149 5.23639,11.3429 Z m 4.46862,0.68501 c 0.88674,-0.0328 1.94371,0.28354 2.90499,1.26197 1.27387,1.29669 1.4076,2.73065 1.11901,3.71661 -0.288,0.98394 -0.92581,1.60174 -0.92842,1.60426 l -8.4e-4,9.4e-4 -5.9417,5.99172 -1.02564,-1.0172 5.94764,-5.99776 a 0.72251577,0.72251577 0 0 1 0.006,-0.006 c 0,0 0.38272,-0.38855 0.55632,-0.98166 C 18.48537,10.03432 18.52002,9.3179 17.54882,8.32929 16.57741,7.3406 15.8786,7.38733 15.28257,7.57228 14.68652,7.75722 14.28349,8.16205 14.28349,8.16205 a 0.72251577,0.72251577 0 0 1 -0.008,0.008 L 8.32774,14.1678 7.30189,13.1505 13.24151,7.16077 c 0,0 0.6212,-0.6611 1.6127,-0.96875 0.24788,-0.0769 0.52458,-0.12662 0.82016,-0.13755 z"/></svg>