<svg viewBox="0 0 24 24" xmlns="http://www.w3.org/2000/svg"><path d="m 9.522248,6.317366 c -1.556325,0 -2.80532,1.248996 -2.80532,2.80532 0,1.556324 1.248995,2.805719 2.80532,2.805719 h 4.19798 c 1.556324,0 2.805319,-1.249395 2.805319,-2.805719 0,-1.556324 -1.248995,-2.80532 -2.805319,-2.80532 z m 0,1.126288 h 4.19798 c 0.921507,0 1.679032,0.757524 1.679032,1.679032 0,0.921508 -0.757525,1.679432 -1.679032,1.679432 h -4.19798 c -0.921508,0 -1.679033,-0.757924 -1.679033,-1.679432 0,-0.921508 0.757525,-1.679032 1.679033,-1.679032 z m 4.157184,1.105889 c -0.30717,0 -0.573543,0.245496 -0.573543,0.573143 0,0.327647 0.245895,0.573542 0.573543,0.573542 0.307169,0 0.573142,-0.245895 0.573142,-0.573542 0,-0.307169 -0.245495,-0.573143 -0.573142,-0.573143 z m -4.157184,0.0204 c -0.30717,0 -0.573543,0.245496 -0.573543,0.573143 0,0.327647 0.245895,0.573543 0.573543,0.573543 0.307169,0 0.573542,-0.245896 0.573542,-0.573543 0,-0.327647 -0.266373,-0.573143 -0.573542,-0.573143 z m 7.331266,4.30037 v 2.764523 0.20478 c 0,1.085331 0.675693,1.843016 1.658635,1.843016 0.450514,0 0.859914,-0.184382 1.167083,-0.491551 0.327647,-0.307169 0.491551,-0.737366 0.491551,-1.187881 0,-0.450515 -0.184382,-0.859834 -0.491551,-1.187482 -0.307169,-0.307169 -0.716569,-0.49155 -1.167083,-0.49155 -0.368604,0 -0.696411,0.102389 -0.983102,0.307169 V 12.870313 Z M 5.221878,13.013499 c -0.245736,0 -0.429957,0.184221 -0.429957,0.429957 0,0.245735 0.184221,0.450755 0.429957,0.450755 0.245735,0 0.429877,-0.184542 0.450355,-0.450755 0,-0.245736 -0.20462,-0.429957 -0.450355,-0.429957 z m 15.870413,0 c -0.245736,0 -0.429958,0.184221 -0.429958,0.429957 0,0.245735 0.184222,0.450755 0.429958,0.450755 0.245735,0 0.450355,-0.184542 0.450355,-0.450755 0,-0.245736 -0.20462,-0.429957 -0.450355,-0.429957 z m 1.371863,0.69633 v 0.716728 h -0.286372 v 0.655135 h 0.286372 v 0.79872 c 0,1.105809 0.38924,1.577042 1.39266,1.781822 L 24,17.682634 v -0.675933 l -0.10239,-0.0204 c -0.511949,-0.08191 -0.737126,-0.389243 -0.737126,-0.983103 V 15.08169 H 24 V 14.426555 H 23.160484 V 13.709827 Z M 1.249075,14.30377 C 0.511869,14.30377 0,14.89763 0,15.737226 v 1.863414 h 0.675932 v -1.90461 c 0,-0.430037 0.225018,-0.737126 0.573143,-0.737126 0.286692,0 0.573543,0.266134 0.573543,0.737126 v 1.90461 H 2.49815 v -1.90461 c 0,-0.430037 0.225418,-0.737126 0.573543,-0.737126 0.327647,0 0.573542,0.307089 0.573542,0.737126 v 1.90461 h 0.675533 0.0204 v -1.863416 c 0,-0.839596 -0.511869,-1.433456 -1.249075,-1.433456 -0.348125,0 -0.675773,0.143265 -0.921508,0.429957 C 1.904372,14.447033 1.597202,14.303768 1.249077,14.303768 Z m 14.478152,0 c -0.266214,0 -0.471153,0.204539 -0.471153,0.470752 0,0.266214 0.204939,0.471153 0.471153,0.471153 0.266213,0 0.491231,-0.225417 0.470753,-0.471153 0,-0.266213 -0.20454,-0.470752 -0.470753,-0.470752 z m -7.986401,0.0204 c -0.430037,0 -0.860314,0.184381 -1.167483,0.49155 -0.30717,0.30717 -0.470753,0.716489 -0.470753,1.187482 0,0.450515 0.163583,0.880712 0.470753,1.187881 0.307169,0.307169 0.716968,0.491551 1.167483,0.491551 0.409559,0 0.818878,-0.163904 1.187481,-0.491551 l 0.10239,-0.10239 -0.511949,-0.471153 -0.08199,0.08199 c -0.225257,0.204779 -0.429717,0.307169 -0.69593,0.307169 -0.532427,0 -0.983102,-0.470993 -0.983102,-1.023897 0,-0.552905 0.430197,-1.0035 0.983102,-1.0035 0.245735,0 0.470673,0.10239 0.69593,0.307169 l 0.08199,0.08199 0.491551,-0.491551 -0.08199,-0.08159 C 8.62114,14.488151 8.232298,14.324168 7.740828,14.324168 Z m 5.221877,0 c -0.430037,0 -0.860313,0.163903 -1.167483,0.49155 -0.327647,0.30717 -0.491551,0.736967 -0.491551,1.187482 0,0.450515 0.184382,0.860234 0.491551,1.187881 0.30717,0.307169 0.716968,0.491551 1.167483,0.491551 0.430037,0 0.859914,-0.184382 1.167084,-0.491551 0.327647,-0.307169 0.491551,-0.737366 0.491551,-1.187881 0,-0.450515 -0.184382,-0.880312 -0.491551,-1.187482 -0.30717,-0.307169 -0.737047,-0.49155 -1.167084,-0.49155 z m -1.884211,0.0204 -0.143186,0.0204 c -1.003419,0.08191 -1.453854,0.593941 -1.453854,1.617839 v 1.617838 h 0.716728 v -1.658643 c 0,-0.593861 0.204619,-0.839676 0.757524,-0.90111 l 0.122788,-0.0204 z m -6.20458,0.0204 v 3.235677 H 5.549445 V 14.36497 Z m 15.890811,0 v 3.235677 h 0.675533 V 14.36497 Z m -7.80202,0.593941 c 0.511949,0 0.941826,0.470993 0.962304,1.023898 0,0.552904 -0.429877,1.003499 -0.962304,1.003499 -0.511948,0 -0.942305,-0.450595 -0.942305,-1.003499 0,-0.573383 0.409879,-1.023898 0.942305,-1.023898 z m 5.549446,0.0204 c 0.552904,0 0.982702,0.450515 0.982702,1.023898 0,0.552904 -0.429798,1.003499 -0.982702,1.003499 -0.552905,0 -0.983102,-0.430117 -0.983102,-1.003499 0,-0.573383 0.430197,-1.023898 0.983102,-1.023898 z m -2.784922,1.679432 c -0.266214,0 -0.471153,0.20454 -0.471153,0.470753 0,0.266213 0.204939,0.471153 0.471153,0.471153 0.266213,0 0.491231,-0.225417 0.470753,-0.471153 0,-0.266213 -0.20454,-0.470753 -0.470753,-0.470753 z"/></svg>