<svg viewBox="0 0 24 24" xmlns="http://www.w3.org/2000/svg"><path d="m 16.853514,9.5938395 v 2.7645235 0.20478 c 0,1.085331 0.675693,1.843016 1.658635,1.843016 0.450515,0 0.859914,-0.184382 1.167083,-0.491552 0.327648,-0.307168 0.491551,-0.737365 0.491551,-1.18788 0,-0.450516 -0.184381,-0.859835 -0.491551,-1.187482 -0.307169,-0.307169 -0.716568,-0.49155 -1.167083,-0.49155 -0.368603,0 -0.69641,0.10239 -0.983102,0.307169 V 9.5938395 Z M 5.221878,9.7370253 c -0.245736,0 -0.429957,0.1842215 -0.429957,0.4299567 0,0.245735 0.184221,0.450756 0.429957,0.450756 0.245735,0 0.429877,-0.184542 0.450355,-0.450756 0,-0.245735 -0.20462,-0.4299567 -0.450355,-0.4299567 z m 15.870413,0 c -0.245736,0 -0.429958,0.1842215 -0.429958,0.4299567 0,0.245735 0.184222,0.450756 0.429958,0.450756 0.245735,0 0.450355,-0.184542 0.450355,-0.450756 0,-0.245735 -0.20462,-0.4299567 -0.450355,-0.4299567 z m 1.371863,0.6963297 v 0.71673 h -0.286372 v 0.655133 h 0.286372 v 0.798721 c 0,1.105808 0.38924,1.577042 1.39266,1.781822 L 24,14.40616 v -0.675932 l -0.10239,-0.0204 c -0.511949,-0.08191 -0.737126,-0.389241 -0.737126,-0.983102 V 11.805218 H 24 v -0.655133 h -0.839516 v -0.71673 z M 1.249075,11.027297 C 0.511869,11.027297 0,11.621157 0,12.460753 v 1.863414 h 0.675932 v -1.904611 c 0,-0.430036 0.225018,-0.737126 0.573143,-0.737126 0.286691,0 0.573543,0.266135 0.573543,0.737126 v 1.904611 H 2.49815 v -1.904611 c 0,-0.430036 0.225418,-0.737126 0.573543,-0.737126 0.327647,0 0.573542,0.30709 0.573542,0.737126 v 1.904611 h 0.675533 0.0204 v -1.863414 c 0,-0.839596 -0.511869,-1.433457 -1.249075,-1.433457 -0.348125,0 -0.675773,0.143266 -0.921508,0.429958 C 1.904372,11.170562 1.597203,11.027297 1.249077,11.027297 Z m 14.478152,0 c -0.266213,0 -0.471153,0.204538 -0.471153,0.470753 0,0.266212 0.20494,0.471153 0.471153,0.471153 0.266213,0 0.491231,-0.225418 0.470753,-0.471153 0,-0.266215 -0.20454,-0.470753 -0.470753,-0.470753 z m -7.986401,0.0204 c -0.430037,0 -0.860314,0.184381 -1.167483,0.49155 -0.30717,0.307171 -0.470753,0.71649 -0.470753,1.187483 0,0.450514 0.163583,0.880711 0.470753,1.18788 0.307169,0.307169 0.716968,0.491551 1.167483,0.491551 0.409559,0 0.818878,-0.163903 1.187481,-0.491551 l 0.10239,-0.10239 -0.511949,-0.471152 -0.08199,0.08199 c -0.225257,0.20478 -0.429717,0.307169 -0.69593,0.307169 -0.532427,0 -0.983102,-0.470992 -0.983102,-1.023897 0,-0.552906 0.430197,-1.003501 0.983102,-1.003501 0.245735,0 0.470673,0.102391 0.69593,0.30717 l 0.08199,0.08199 0.491551,-0.491551 -0.08199,-0.08159 C 8.62114,11.211676 8.232299,11.047693 7.740828,11.047693 Z m 5.221878,0 c -0.430037,0 -0.860314,0.163904 -1.167484,0.49155 -0.327647,0.307171 -0.49155,0.736967 -0.49155,1.187483 0,0.450514 0.184381,0.860233 0.49155,1.18788 0.30717,0.307169 0.716969,0.491551 1.167484,0.491551 0.430037,0 0.859914,-0.184382 1.167083,-0.491551 0.327647,-0.307169 0.491551,-0.737366 0.491551,-1.18788 0,-0.450516 -0.184382,-0.880312 -0.491551,-1.187483 -0.307169,-0.307169 -0.737046,-0.49155 -1.167083,-0.49155 z m -1.884212,0.0204 -0.143186,0.0204 c -1.003419,0.08191 -1.453854,0.59394 -1.453854,1.617838 v 1.617838 h 0.716728 v -1.658634 c 0,-0.59386 0.20462,-0.839676 0.757524,-0.901111 l 0.122788,-0.0204 z m -6.204579,0.0204 v 3.235676 h 0.675532 v -3.235676 z m 15.89081,0 v 3.235676 h 0.675533 v -3.235676 z m -7.802019,0.59394 c 0.511948,0 0.941825,0.470993 0.962303,1.023898 0,0.552905 -0.429877,1.003499 -0.962303,1.003499 -0.511949,0 -0.942306,-0.450594 -0.942306,-1.003499 0,-0.573382 0.409879,-1.023898 0.942306,-1.023898 z m 5.549445,0.0204 c 0.552905,0 0.982702,0.450516 0.982702,1.023897 0,0.552906 -0.429797,1.003501 -0.982702,1.003501 -0.552905,0 -0.983102,-0.430118 -0.983102,-1.003501 0,-0.573381 0.430197,-1.023896 0.983102,-1.023897 z m -2.784922,1.679433 c -0.266213,0 -0.471153,0.204539 -0.471153,0.470753 0,0.266212 0.20494,0.471152 0.471153,0.471152 0.266213,0 0.491231,-0.225417 0.470753,-0.471152 0,-0.266214 -0.20454,-0.470753 -0.470753,-0.470753 z"/></svg>