<svg viewBox="0 0 24 24" xmlns="http://www.w3.org/2000/svg"><path d="m 0,7.143134 v 9.713732 H 24 V 7.143134 Z m 20.69999,0.801383 c 0.97137,0 1.86984,0.102045 2.39681,0.347317 L 22.59897,9.850837 A 3.9292044,3.9292044 0 0 0 20.88452,9.491378 c -0.82809,0 -1.50082,0.123876 -1.50082,0.750411 0,1.109794 3.03554,0.694557 3.03554,3.069565 0,2.161305 -2.00581,2.722248 -3.81985,2.722248 a 8.7423583,8.7423583 0 0 1 -2.42843,-0.403095 l 0.48569,-1.590623 c 0.41526,0.269556 1.24328,0.44926 1.92567,0.44926 0.68239,0 1.66841,-0.123901 1.66841,-0.930141 0,-1.255499 -3.03554,-0.784333 -3.03554,-2.991778 0,-2.0156 1.77032,-2.622708 3.4848,-2.622708 z M 2.34584,8.080484 h 2.61057 l 1.60036,5.422741 h 0.0243 L 7.67867,8.080484 H 9.65064 L 7.99197,15.900038 H 5.39354 L 3.75676,10.489565 H 3.73496 L 2.64937,15.900038 H 0.67754 Z m 8.07454,0 h 2.09579 l -0.61685,2.991905 h 2.477 l 0.61685,-2.991905 h 2.09566 l -1.62452,7.819554 h -2.10793 l 0.69451,-3.348834 h -2.46486 l -0.69451,3.348834 H 8.79826 Z"/></svg>