<svg viewBox="0 0 24 24" xmlns="http://www.w3.org/2000/svg"><path d="m 15.196721,16.967213 c 3.590164,0 6.786886,-1.868852 8.016394,-5.557377 0.09836,-0.295082 0.245901,-0.393443 0.393442,-0.393443 C 23.901639,11.016393 24,11.508197 24,12.098361 24,18.836066 18.983607,24 12.098361,24 5.213115,24 0,18.885246 0,12 0,5.163934 5.262295,0 12.344262,0 18.098361,0 22.47541,3.442623 22.47541,8.016393 c 0,3.540984 -2.655738,6.098361 -6.098361,6.098361 -3.196721,0 -5.655738,-2.163934 -5.655738,-5.213115 0,-1.229508 0.393443,-2.409836 1.131148,-3.295082 0.344262,-0.442623 0.737705,-0.688524 0.934426,-0.688524 0.147541,0 0.196722,0.147541 0.147541,0.344262 -0.09836,0.245902 -0.147541,0.540984 -0.147541,0.885246 0,1.377049 1.131148,2.360656 2.557377,2.360656 1.573771,0 2.704918,-1.180328 2.704918,-2.704918 0,-1.967213 -1.918032,-3.393443 -4.52459,-3.393443 -3.836065,0 -6.540983,3.245902 -6.540983,7.081967 -0.04918,4.52459 3.737704,7.47541 8.213114,7.47541"/></svg>