<svg viewBox="0 0 24 24" xmlns="http://www.w3.org/2000/svg"><path d="m 14.916,7.449 a 1.892,1.892 0 0 0 0,-3.782 1.892,1.892 0 0 0 0,3.782 m 0,-3.544 a 1.657,1.657 0 0 1 0.36,3.266 C 16.974,5.667 13.195,4.983 14.258,6.99 14.138,6.136 15.446,6.768 14.7,7.2 a 1.656,1.656 0 0 1 0.217,-3.29 z M 9.016,3.666 a 1.892,1.892 0 0 0 0,3.782 1.892,1.892 0 0 0 0,-3.782 M 9.148,7.21 C 8.668,6.78 9.616,6.283 9.69,6.924 10.549,4.945 6.99,5.734 8.603,7.164 a 1.655,1.655 0 1 1 0.545,0.046 m 14.706,1.172 0.028,-0.01 z m 0,0 A 3.24,3.24 0 0 0 23.474,7.595 3.24,3.24 0 0 0 22.68,6.775 3.36,3.36 0 0 0 21.134,6.165 2.4,2.4 0 0 0 20.174,6.187 c -2.338,0.21 -2.55,4.524 -4.934,3.661 0.268,-0.908 1.068,-1.603 1.289,-2.56 h 0.007 a 2.316,2.316 0 0 0 -1.586,-4.039 5.52,5.52 0 0 0 -5.994,0 2.311,2.311 0 0 0 -1.586,3.937 C 7.609,8.183 8.398,8.947 8.711,9.889 5.887,10.592 5.55,3.851 1.326,6.779 A 3.24,3.24 0 0 0 0.532,7.598 3.24,3.24 0 0 0 0.151,8.385 2.76,2.76 0 0 0 0,9.117 V 9.26 A 2.4,2.4 0 0 0 0.049,9.72 1.8,1.8 0 0 0 0.249,10.404 1.68,1.68 0 0 0 0.634,10.837 c 0.208,0.185 0.293,0.229 0.349,0.181 0.056,-0.048 0.024,-0.107 -0.024,-0.198 l -0.007,-0.016 A 1.68,1.68 0 0 1 0.804,10.167 1.8,1.8 0 0 1 0.88,9.531 2.4,2.4 0 0 1 1.093,8.931 C 3.034,6.359 3.781,9.673 4.633,11.092 a 1.932,1.932 0 0 0 0.857,3.259 c -2.122,0.649 -1.124,3.98 1.021,3 a 3.12,3.12 0 0 0 -0.83,1.921 l -0.03,0.008 h 0.03 C 5.365,22.2 10.445,22.04 10.143,20.188 8.223,21.748 6.105,19.538 8.59,18.311 a 4.44,4.44 0 0 0 6.817,0 c 2.311,1.171 0.354,3.338 -1.523,1.912 -0.082,-0.106 -0.23,-0.221 -0.24,-0.047 1.637,3.518 6.677,-0.085 3.829,-2.825 2.144,0.974 3.154,-2.362 1.03,-3.012 a 1.926,1.926 0 0 0 0.84,-3.263 16.801,16.801 0 0 0 0.833,-1.794 l 0.066,-0.151 0.216,-0.496 c 0.066,-0.161 0.101,-0.185 0.12,-0.193 a 1.032,1.032 0 0 1 1.1,-0.378 1.92,1.92 0 0 1 0.761,0.409 2.016,2.016 0 0 1 0.62,1.08 2.64,2.64 0 0 1 0.097,0.547 2.4,2.4 0 0 1 0,0.311 1.2,1.2 0 0 1 -0.12,0.386 v 0.018 a 0.36,0.36 0 0 0 -0.048,0.132 0.072,0.072 0 0 0 0.024,0.066 c 0.056,0.048 0.14,0 0.349,-0.181 a 1.68,1.68 0 0 0 0.385,-0.433 1.8,1.8 0 0 0 0.2,-0.683 2.88,2.88 0 0 0 0.053,-0.456 2.64,2.64 0 0 0 -0.148,-0.878 m -8.711,0.926 a 0.275,0.275 0 0 1 0,-0.55 0.275,0.275 0 0 1 0,0.55 M 14.593,8.227 c 0.166,-0.949 1.32,0.202 0.367,0.367 A 0.367,0.367 0 0 1 14.593,8.225 Z M 12.013,2.65 c 0.71,0.12 -0.146,0.985 -0.274,0.276 a 0.276,0.276 0 0 1 0.274,-0.276 m 0,0.977 a 0.275,0.275 0 0 1 0,0.55 0.275,0.275 0 0 1 0,-0.55 M 8.652,9.217 C 8.398,8.977 8.779,8.585 9.026,8.831 9.274,9.077 8.896,9.459 8.646,9.221 Z M 8.568,8.222 C 8.734,7.273 9.888,8.424 8.935,8.589 A 0.367,0.367 0 0 1 8.568,8.222 m 6.05,10.32 a 4.027,4.027 0 0 1 -6.578,-2.456 2.4,2.4 0 0 1 0.326,-0.12 3.6,3.6 0 0 0 5.4,2.729 3.576,3.576 0 0 1 -4.538,-2.911 5.64,5.64 0 0 1 1.606,-0.006 0.12,0.12 0 0 0 0.061,0 0.24,0.24 0 0 0 0.077,-0.058 l -0.007,-0.012 v -0.065 a 8.4,8.4 0 0 0 -1.776,-0.852 4.8,4.8 0 0 1 0.088,-0.781 c 0.83,-0.494 2.508,-2.332 0.376,-1.126 a 6,6 0 0 1 0.38,-0.672 4.2,4.2 0 0 0 -0.904,0.796 2.4,2.4 0 0 1 -0.283,0.023 4.022,4.022 0 0 1 6.288,0 c -0.69,0.05 -1.302,-0.466 -1.898,-0.6 a 3.564,3.564 0 0 0 2.749,2.051 5.688,5.688 0 0 0 -3.09,1.392 c 0.07,-0.034 0.193,-0.066 0.264,-0.091 a 5.436,5.436 0 0 1 2.798,0.342 3.984,3.984 0 0 1 -1.339,2.423 z M 11.891,9.944 c 1.033,-1.546 1.538,1.32 -0.131,1.064 a 0.072,0.072 0 0 1 -0.056,-0.03 c -0.684,-0.36 -0.972,-1.65 0.132,-1.429 0.277,0.058 -0.044,0.228 0.052,0.397 z M 23.834,9.695 a 1.8,1.8 0 0 1 -0.186,0.643 1.56,1.56 0 0 1 -0.36,0.403 l -0.036,0.032 -0.091,0.078 0.043,-0.112 a 2.04,2.04 0 0 0 0.112,-0.566 1.2,1.2 0 0 0 0,-0.24 v -0.008 A 1.8,1.8 0 0 0 23.37,9.455 1.92,1.92 0 0 0 23.198,8.742 2.04,2.04 0 0 0 22.866,8.189 2.076,2.076 0 0 0 21.932,7.589 2.16,2.16 0 0 0 21.092,7.456 2.28,2.28 0 0 0 19.996,7.808 c -1.406,1.43 -2.384,3.809 -4.724,3.778 -0.686,-0.105 -1.017,-0.797 -1.32,-1.342 -0.296,0.808 0.554,1.49 1.32,1.369 1.56,0.6 4.464,-2.252 4.56,0.941 a 1.963,1.963 0 0 1 -1.613,1.775 c 2.114,0.48 1.517,3.847 -0.743,2.904 -0.634,-0.16 0.305,0.571 0.319,0.827 1.712,2.548 -2.434,4.92 -3.935,2.358 0.792,0.72 2.656,1.061 3.182,-0.085 a 2.196,2.196 0 0 0 -1.14,-2.64 l -0.008,-0.032 a 3.84,3.84 0 0 0 0.546,-1.277 c 2.65,1.602 3.21,-0.587 0.12,-0.649 a 9.6,9.6 0 0 0 -3.318,-0.09 8.712,8.712 0 0 1 4.397,-1.182 v -0.12 a 5.016,5.016 0 0 1 -4.199,-1.722 3.096,3.096 0 0 0 2.224,0.48 c 1.022,-0.155 3.146,-0.12 3.366,-1.48 -0.331,-0.514 -0.91,-0.342 -1.264,-0.032 a 4.476,4.476 0 0 1 -2.015,1.41 4.8,4.8 0 0 0 -1.351,-1.302 4.44,4.44 0 0 0 -1.975,-0.689 5.16,5.16 0 0 0 1.038,-2.477 9.6,9.6 0 0 1 -3.034,0 5.46,5.46 0 0 0 1.074,2.48 4.848,4.848 0 0 0 -3.305,1.994 4.56,4.56 0 0 1 -2.04,-1.422 C 5.846,11.212 4.789,11.116 4.916,11.844 c 0.571,1.093 2.309,1.064 3.336,1.216 a 3.24,3.24 0 0 0 2.311,-0.48 4.98,4.98 0 0 1 -4.193,1.73 v 0.12 a 8.76,8.76 0 0 1 4.41,1.186 11.28,11.28 0 0 0 -3.334,0.108 c -3.166,0.061 -2.566,2.286 0.12,0.629 a 3.72,3.72 0 0 0 0.553,1.304 2.328,2.328 0 0 0 -1.054,1.106 1.432,1.432 0 0 0 0.269,2.052 2.436,2.436 0 0 0 2.32,-0.089 2.4,2.4 0 0 0 0.48,-0.308 C 7.991,23.443 4.016,19.683 6.725,17.235 A 1.522,1.522 0 1 1 5.232,14.586 c 0.14,-0.095 0.832,-0.216 0.36,-0.338 A 1.764,1.764 0 0 1 4.169,12.214 C 4.635,9.413 7.257,12.381 8.712,11.601 9.461,11.707 10.248,10.99 9.952,10.234 9.68,10.775 9.352,11.423 8.705,11.566 5.369,11.994 4.421,5.213 1.042,8.185 A 2.244,2.244 0 0 0 0.538,9.45 2.88,2.88 0 0 0 0.658,10.224 l 0.008,0.041 a 1.8,1.8 0 0 0 0.104,0.492 l 0.043,0.112 -0.09,-0.078 -0.004,-0.047 A 1.56,1.56 0 0 1 0.36,10.341 1.8,1.8 0 0 1 0.174,9.697 2.76,2.76 0 0 1 0.126,9.26 2.52,2.52 0 0 1 0.27,8.42 3,3 0 0 1 1.393,6.872 C 5.528,3.538 6.71,12.891 9.388,9.26 9.508,8.237 10.889,8.101 10.974,7.164 4.588,10.115 6.323,-0.211 11.663,4.634 c 0.6,0.36 1.038,-0.376 1.519,-0.625 5.249,-3.172 5.2,6.22 -0.156,3.152 0.017,0.852 1.232,0.96 1.454,1.77 1.77,3.636 3.366,-1.702 5.16,-2.399 a 2.16,2.16 0 0 1 0.553,-0.233 2.28,2.28 0 0 1 0.917,-0.018 3.24,3.24 0 0 1 1.492,0.588 3.12,3.12 0 0 1 0.764,0.788 3,3 0 0 1 0.36,0.758 2.52,2.52 0 0 1 0.144,0.84 2.76,2.76 0 0 1 -0.038,0.437 z M 8.457,14.339 8.409,14.539 a 1.56,1.56 0 0 0 -0.287,-0.049 l 0.017,-0.061 a 1.2,1.2 0 0 0 0.318,-0.09 m 1.902,5.731 a 0.12,0.12 0 0 1 0.052,0.085 6.06,6.06 0 0 0 3.181,0.061 0.144,0.144 0 0 1 0.065,-0.155 v -0.008 a 0.192,0.192 0 0 1 0.199,0.076 c 0.283,-0.12 1.002,-0.492 0.569,-0.846 a 4.476,4.476 0 0 1 -4.872,-0.012 c -0.416,0.389 0.28,0.745 0.622,0.818 a 0.132,0.132 0 0 1 0.185,-0.019 m 3.943,0.038 a 3.6,3.6 0 0 1 -0.276,0.148 3.6,3.6 0 0 0 0.528,0.222 0.276,0.276 0 0 0 -0.252,-0.37 m -4.876,0.266 a 0.36,0.36 0 0 0 0.018,0.12 3.12,3.12 0 0 0 0.569,-0.258 C 9.799,20.134 9.439,19.983 9.427,20.374 m 4.242,0.028 a 5.04,5.04 0 0 1 -3.314,-0.047 2.64,2.64 0 0 1 -0.376,0.535 5.676,5.676 0 0 0 4.03,-0.017 3.24,3.24 0 0 1 -0.34,-0.472"/></svg>