<svg viewBox="0 0 24 24" xmlns="http://www.w3.org/2000/svg"><path d="m 22.77399,1.4327568 -0.0152,8.8e-4 c -3.46253,0.1892756 -5.831857,0.8125614 -7.358142,1.4018579 -0.806451,0.2908935 -1.554454,0.703924 -2.271748,1.1675734 -0.314213,0.1933655 -0.481289,0.43828 -0.607666,0.700944 -0.009,0.0181 -0.125417,0.262844 -0.177446,0.4668793 -0.004,0.0148 -0.007,0.025899 -0.009,0.043499 -3.7e-4,0.002 -8.7e-4,0.0119 -10e-4,0.0143 -1.1e-4,0.001 1.7e-4,0.004 7e-5,0.005 -6.2e-4,0.006 -2.8e-4,0.0107 -5.4e-4,0.0156 -5.4e-4,0.01 -9.6e-4,0.0214 -10e-4,0.036199 -0.003,0.084598 -0.006,0.2824836 -0.0106,0.5943065 -0.006,0.4019707 -0.0126,0.9744977 -0.0201,1.660842 -0.0151,1.3726786 -0.033,3.2003371 -0.0496,5.0265961 -0.0165,1.826258 -0.0316,3.651096 -0.0413,5.018055 -0.0105,1.487877 -0.0298,3.620028 -0.0208,4.249144 -0.0144,0.812371 0.149376,0.782462 0.573097,0.681884 4.407948,-3.414592 10.50698,-4.248133 10.529349,-4.271042 0.42513,-0.0276 0.42513,-0.533099 0.42513,-0.533099 0,0 -0.0321,-1.872317 0.175006,-8.1709638 0.0509,-1.5488546 0.0475,-3.0997292 0.0671,-4.2638526 0.01,-0.5820567 0.0184,-1.0676456 0.0254,-1.4080879 0.003,-0.1702261 0.007,-0.304253 0.009,-0.3954409 9e-4,-0.032799 0.002,-0.053099 0.002,-0.074298 l 0.004,-0.005 -8.2e-4,-0.070998 C 23.987982,2.3813951 23.841516,1.9153358 23.576022,1.6671614 23.310538,1.4189871 22.982405,1.4580962 22.7897,1.4345967 Z m -21.548558,0.006 -0.0152,0.002 C 1.0174668,1.464256 0.68963426,1.4251569 0.42410032,1.6727713 0.15856638,1.9203956 0.01203972,2.385555 8.0998e-4,3.3254836 L 0,3.3966816 l 0.00399991,0.005 c 7.2998e-4,0.0211 9.9998e-4,0.041199 0.00199995,0.073798 0.00199996,0.090998 0.00499989,0.2246148 0.0089998,0.3944209 0.0069998,0.3396223 0.01559964,0.8239912 0.02539941,1.4046379 0.01959956,1.1612735 0.05449877,2.7076183 0.06709848,4.2534729 0.0213995,2.6205307 0.13716686,6.3595147 0.174936,8.1673727 0,0 3e-5,0.50431 0.42513029,0.531889 0.0223995,0.0229 6.10794056,0.88009 10.51552016,4.286352 0.0224,0.0228 0.493668,0.122757 0.502668,-0.695494 0.0814,-1.908396 0.0844,-2.301227 0.0212,-9.271479 -0.0165,-1.821808 -0.0344,-3.6449964 -0.0496,-5.0143251 -0.008,-0.6846743 -0.0145,-1.2558613 -0.0201,-1.6568521 -0.005,-0.3284825 -0.008,-0.5090585 -0.0106,-0.5928766 -4.7e-4,-0.0148 -8.9e-4,-0.026299 -10e-4,-0.036099 -2.8e-4,-0.005 -5.4e-4,-0.009 -10e-4,-0.0155 -1.1e-4,-0.001 -4.3e-4,-0.003 -5.4e-4,-0.004 -6.1e-4,-0.002 3e-5,-0.012 -3.5e-4,-0.0144 -0.003,-0.0176 -0.005,-0.028699 -0.009,-0.043499 -0.0127,-0.049699 -0.0678,-0.2384145 -0.177516,-0.4658593 C 11.257663,4.1731042 10.754255,3.9155801 10.285715,3.6363565 9.9135036,3.4185215 9.3611663,3.133038 8.5980937,2.8391146 7.0719785,2.2512881 4.7029026,1.6295423 1.2407117,1.4407266 Z M 22.76653,1.7811188 c 0.245755,0.027399 0.43102,0.008 0.571937,0.1398368 0.144627,0.1351869 0.301063,0.5004586 0.312743,1.3995481 -7e-5,10e-4 -2.7e-4,0.003 -3.4e-4,0.004 -6.1e-4,0.009 -0.001,0.0192 -0.002,0.031999 -10e-4,0.025599 -0.002,0.061499 -0.003,0.1078475 -0.003,0.092798 -0.006,0.2271848 -0.009,0.3978009 -1.1e-4,0.006 -2.1e-4,0.0112 -3.5e-4,0.0169 -0.219035,-0.3098729 -0.528908,-0.262034 -0.792772,-0.2936933 -7.00349,0.3767614 -9.554262,2.4787834 -9.710888,2.5569816 -0.138357,0.1671362 -0.308283,0.2470644 -0.474879,0.486399 0.003,-0.2878435 0.007,-0.5384478 0.01,-0.7441031 0.004,-0.3146227 0.008,-0.5094384 0.0104,-0.5882066 4.4e-4,-0.007 10e-6,-0.0133 7.4e-4,-0.0199 0.002,-0.0189 10e-4,-0.0101 0.002,-0.0188 0.002,-0.022099 0.0596,-0.2081552 0.153327,-0.4028908 0.113227,-0.2353546 0.303483,-0.4684092 0.43888,-0.5282879 0.696844,-0.4864289 1.463746,-0.8548705 2.252778,-1.1669833 1.488756,-0.5748069 3.817574,-1.1900329 7.240945,-1.3782686 z m -21.5337082,0.006 c 3.4231519,0.1877756 5.7517987,0.8014616 7.2404647,1.3748785 0.745163,0.2870235 1.2799808,0.5638971 1.6371225,0.7729023 0.566757,0.3316925 1.013767,0.5946065 1.180813,1.229222 0.0129,0.049099 0.0157,0.042399 0.0282,0.099398 0.001,0.005 8.4e-4,0.023 0.001,0.029799 8.5e-4,0.026899 0.002,0.068098 0.003,0.1217373 0.002,0.1073075 0.005,0.2649039 0.008,0.4650493 0.003,0.2091253 0.006,0.4648194 0.01,0.7589428 C 11.155895,6.4285227 11.061708,6.2921358 10.866482,6.153529 10.709866,6.0755308 8.1593037,3.9786386 1.1564036,3.6027872 c -0.26372399,0.031599 -0.57343691,-0.0161 -0.79243191,0.2925433 -2.1e-4,-0.0111 -4.5999e-4,-0.022 -6.7999e-4,-0.032799 -0.003,-0.1702061 -0.006,-0.304323 -0.009,-0.3968509 -9.9998e-4,-0.046299 -0.002,-0.081998 -0.003,-0.1075776 -5.1999e-4,-0.0128 -9.9998e-4,-0.022799 -0.002,-0.031999 -7e-5,-10e-4 -2.4e-4,-0.003 -3.5e-4,-0.004 C 0.36064177,2.4253741 0.51693819,2.0612824 0.6614849,1.9264855 0.80234168,1.7951185 0.98777744,1.8144381 1.2334918,1.7870587 Z"/></svg>