<svg viewBox="0 0 24 24" xmlns="http://www.w3.org/2000/svg"><path d="M 11.586557,3.3543991e-4 C 11.3666,-0.00344456 11.051555,0.02301144 10.728762,0.16927154 h -1.13e-4 C 10.126262,0.44213934 7.6194307,3.5486744 6.8406994,4.114894 6.7987504,4.14513 6.7613324,4.166292 6.7292073,4.180654 6.4257269,4.3163311 6.3382355,4.3303154 4.4579047,4.325402 L 0.24531019,4.314064 0.17841519,4.3137995 v 7.55e-5 h -1.889e-4 c 1.512e-4,3.3277773 -1.512e-4,10.740105 6.047e-4,14.699597 l 5.80486661,-0.0037 c 3.006874,-0.0028 4.2277874,0.01512 4.6372014,0.07634 0.250949,0.0378 0.686441,0.159488 0.904395,0.255107 0.205972,0.09033 0.263795,0.118669 0.321244,0.151928 0.03402,0.0189 0.365839,0.212776 0.553029,0.359414 0.09373,0.07331 0.27967,0.218822 0.413988,0.32389 1.944769,1.519745 3.902501,3.815462 4.034248,3.818637 l 0.003,1.51e-4 c 3.4e-4,0 3.255366,-0.0017 4.023326,-2.27e-4 0.373776,6.05e-4 1.475301,0.0037 1.910906,0.0021 0.0028,-3.8e-5 0.125472,0.0076 0.130385,-0.0015 0.955303,-1.589664 0.978206,-3.744941 0.851711,-4.892044 -0.02645,-0.251057 -0.164397,-1.351409 -0.185561,-1.497178 -0.0076,-0.06047 -0.131521,-0.823516 -0.165913,-1.014297 -0.159866,-0.900199 -0.425704,-1.771562 -0.685382,-2.644436 -0.172338,-0.663122 -0.349966,-1.286183 -0.493958,-1.764608 -0.23054,-0.770265 -0.462553,-1.53815 -0.73251,-2.2953771 C 21.48115,9.8472334 21.133452,8.8671012 20.971659,8.3957054 20.781936,7.8476644 20.571957,7.3102433 20.380268,6.7602751 19.976675,5.6849795 19.582528,4.6070765 19.140497,3.5467847 19.117819,3.4643957 18.938681,3.1188132 18.77428,2.8203594 l 1.13e-4,-1.512e-4 c -0.01134,-0.018897 -0.02268,-0.038172 -0.03402,-0.057823 C 18.677264,2.6486266 18.617929,2.5454508 18.572199,2.470998 18.533649,2.4078831 18.452016,2.3096205 18.375673,2.2374352 18.182171,2.0545156 17.532882,1.7162654 16.957781,1.453564 c -0.0076,-0.00325 -0.02268,-0.00756 -0.04081,-0.018897 -0.253216,-0.1077111 -1.504514,-0.61701366 -2.785443,-0.96081946 -0.0015,-4.158e-4 -0.0029,-7.937e-4 -0.0038,-0.00121 -0.0189,-0.00378 -0.04044,-0.011339 -0.06085,-0.015118 -0.774198,-0.205594 -1.123069,-0.2592605 -1.624548,-0.335225 -0.0076,-0.00148 -0.01512,-0.00276 -0.02268,-0.00378 -0.219578,-0.040438 -0.458016,-0.076342 -0.540065,-0.089192 -0.0023,-3.401e-4 -0.0038,-8.692e-4 -0.0076,-0.00151 -0.08995,-0.018897 -0.186319,-0.026455 -0.285339,-0.026455 z M 13.408649,3.8434246 a 1.5190145,1.5190145 0 0 1 1.518989,1.5190646 1.5190145,1.5190145 0 0 1 -1.518989,1.518989 1.5190145,1.5190145 0 0 1 -1.519027,-1.518989 1.5190145,1.5190145 0 0 1 1.519027,-1.5190646 z m 2.894023,2.7671512 a 1.5190145,1.5190145 0 0 1 1.518989,1.518989 1.5190145,1.5190145 0 0 1 -1.518989,1.5190268 1.5190145,1.5190145 0 0 1 -1.519027,-1.5190268 1.5190145,1.5190145 0 0 1 1.519027,-1.518989 z m -5.734985,0.052909 A 1.5190145,1.5190145 0 0 1 12.086752,8.1825116 1.5190145,1.5190145 0 0 1 10.567687,9.7015006 1.5190145,1.5190145 0 0 1 9.0486984,8.1825127 1.5190145,1.5190145 0 0 1 10.567687,6.6634848 Z m 2.836578,2.8714234 a 1.5190145,1.5190145 0 0 1 1.519026,1.5189898 1.5190145,1.5190145 0 0 1 -1.519026,1.519065 1.5190145,1.5190145 0 0 1 -1.519027,-1.519065 1.5190145,1.5190145 0 0 1 1.519027,-1.5189898 z"/></svg>