<svg viewBox="0 0 24 24" xmlns="http://www.w3.org/2000/svg"><path d="m 5.224,5.022 c -1.098,0 -2.074,0.343 -2.89,1.021 C 1.408,6.812 0,8.639 0,12.005 c 0,3.366 1.408,5.183 2.334,5.952 0.816,0.678 1.792,1.021 2.89,1.021 1.629,0 3.222,-0.743 4.264,-1.395 2.829,-1.769 5.083,-5.144 5.083,-5.144 1.093,1.502 2.086,2.487 3.203,3.203 0.687,0.418 1.725,0.92 2.789,0.92 0.725,0 1.367,-0.22 1.9,-0.677 C 23.483,15.011 24,13.663 24,12.005 24,10.347 23.483,8.989 22.464,8.115 21.932,7.658 21.289,7.437 20.564,7.437 c -1.064,0 -2.102,0.501 -2.789,0.92 -1.118,0.717 -2.11,1.712 -3.203,3.213 0,0 -2.254,-3.375 -5.083,-5.144 -1.042,-0.652 -2.636,-1.405 -4.264,-1.405 z m 0,0.515 c 1.509,0 3.013,0.722 4.002,1.324 1.691,1.085 3.247,2.649 5.032,5.144 -1.785,2.495 -3.341,4.059 -5.032,5.144 -0.989,0.602 -2.492,1.324 -4.002,1.324 -0.975,0 -1.836,-0.31 -2.557,-0.909 -1.586,-1.318 -2.163,-3.642 -2.163,-5.558 0,-1.916 0.576,-4.249 2.163,-5.568 0.721,-0.599 1.582,-0.899 2.557,-0.899 z m 0.02,2.051 c -0.009,0.001 -0.021,0.009 -0.03,0.01 h -0.01 -0.01 v 0.01 h -0.01 -0.01 c -0.006,0.003 -0.014,0.007 -0.02,0.01 -0.034,0.016 -0.06,0.039 -0.091,0.061 h -0.01 v 0.01 h -0.01 v 0.01 h -0.01 v 0.01 h -0.01 v 0.01 l -0.01,0.01 h -0.01 v 0.01 h -0.01 v 0.01 l -0.01,0.01 c -0.007,0.008 -0.014,0.012 -0.02,0.02 l -0.01,0.01 v 0.01 l -0.01,0.01 c -0.004,0.007 -0.015,0.023 -0.02,0.03 v 0.01 l -0.01,0.01 v 0.01 l -0.01,0.01 -0.01,0.01 c -0.004,0.009 -0.007,0.025 -0.01,0.03 -0.008,0.015 -0.022,0.025 -0.03,0.04 -0.015,0.028 -0.018,0.06 -0.03,0.091 -0.007,0.017 -0.012,0.034 -0.02,0.051 -0.004,0.009 -0.016,0.033 -0.02,0.04 v 0.01 c -0.001,0.005 -0.009,0.025 -0.01,0.03 -0.004,0.01 -0.006,0.02 -0.01,0.03 -0.007,0.018 -0.013,0.033 -0.02,0.051 -0.014,0.034 -0.03,0.067 -0.04,0.101 -0.005,0.018 -0.013,0.043 -0.02,0.061 -0.007,0.018 -0.013,0.034 -0.02,0.051 -0.014,0.033 -0.027,0.068 -0.04,0.101 v 0.01 l -0.01,0.01 v 0.01 h -0.01 c -0.004,0.013 -0.004,0.037 -0.01,0.051 -0.011,0.026 -0.019,0.045 -0.03,0.071 -0.012,0.029 -0.02,0.061 -0.03,0.091 -0.013,0.038 -0.027,0.074 -0.04,0.111 v 0.01 l -0.01,0.01 c -0.002,0.004 -0.009,0.026 -0.01,0.03 -0.003,0.013 -0.015,0.038 -0.02,0.051 -0.008,0.018 -0.014,0.042 -0.02,0.061 -0.009,0.024 -0.011,0.047 -0.02,0.071 -0.011,0.027 -0.022,0.053 -0.03,0.081 -0.011,0.035 -0.027,0.067 -0.04,0.101 -0.033,0.082 -0.064,0.168 -0.091,0.253 v 0.01 l -0.01,0.01 v 0.01 0.01 0.01 h -0.01 v 0.01 l -0.01,0.01 v 0.01 h -0.01 v 0.01 c -0.002,0.009 -0.008,0.031 -0.01,0.04 -0.001,0.005 0,0.015 0,0.02 v 0.01 c -0.005,0.018 -0.014,0.042 -0.02,0.061 l -0.01,0.01 v 0.01 0.01 c -0.008,0.018 -0.023,0.042 -0.03,0.061 l -0.01,0.01 v 0.01 0.01 0.01 l -0.01,0.01 v 0.01 c -0.005,0.017 -0.015,0.033 -0.02,0.051 -0.002,0.006 -0.008,0.023 -0.01,0.03 v 0.01 0.01 0.01 l -0.01,0.01 c -0.002,0.009 0.002,0.014 0,0.02 v 0.01 c -0.001,0.004 -0.009,0.026 -0.01,0.03 v 0.01 c -0.004,0.008 -0.015,0.022 -0.02,0.03 v 0.01 0.01 h -0.01 c 0,0.009 0,0.031 0,0.04 0,0.005 0.009,0.015 0.01,0.02 v 0.01 h -0.01 v 0.01 h -0.01 v 0.01 l -0.01,0.01 v 0.01 0.01 0.01 0.01 0.01 c -0.005,0.012 -0.017,0.028 -0.02,0.04 -0.013,0.047 -0.026,0.086 -0.04,0.131 -0.007,0.023 -0.003,0.048 -0.01,0.071 -0.007,0.022 -0.023,0.048 -0.03,0.071 -0.013,0.046 -0.021,0.094 -0.03,0.141 -0.002,0.008 -0.008,0.022 -0.01,0.03 v 0.01 0.01 0.01 0.01 0.01 l -0.01,0.01 c -0.001,0.006 -0.009,0.024 -0.01,0.03 v 0.01 c -0.008,0.021 -0.016,0.048 -0.02,0.071 -0.01,0.049 -0.03,0.094 -0.04,0.141 -0.008,0.038 -0.024,0.073 -0.03,0.111 -0.001,0.008 0.001,0.022 0,0.03 v 0.01 c -0.005,0.02 -0.015,0.042 -0.02,0.061 -0.004,0.013 -0.007,0.028 -0.01,0.04 v 0.01 0.01 h -0.01 v 0.01 0.01 h -0.01 v 0.01 0.01 0.01 0.01 c -0.001,0.005 -0.009,0.014 -0.01,0.02 -0.004,0.022 -0.004,0.039 -0.01,0.061 -0.009,0.035 -0.021,0.075 -0.03,0.111 -0.005,0.018 -0.006,0.033 -0.01,0.051 -0.008,0.035 -0.014,0.076 -0.02,0.111 -0.003,0.019 -0.006,0.033 -0.01,0.051 -0.004,0.017 -0.007,0.034 -0.01,0.051 -0.001,0.007 -0.008,0.031 -0.01,0.04 v 0.01 0.01 0.01 l -0.01,0.01 v 0.01 0.01 c -0.001,0.018 -0.006,0.033 -0.01,0.051 -0.007,0.026 -0.016,0.055 -0.02,0.081 -0.004,0.022 -0.004,0.039 -0.01,0.061 v 0.01 l -0.01,0.01 c -0.001,0.008 0.001,0.022 0,0.03 -0.004,0.026 -0.007,0.054 -0.01,0.081 -0.005,0.054 -0.021,0.099 -0.03,0.152 -0.004,0.022 -0.008,0.047 -0.01,0.071 -0.002,0.036 -0.017,0.075 -0.02,0.111 v 0.01 0.01 c -0.002,0.006 -0.009,0.014 -0.01,0.02 -0.004,0.027 0.004,0.054 0,0.081 -0.008,0.05 -0.016,0.096 -0.03,0.141 -0.001,0.004 -0.009,0.026 -0.01,0.03 -0.001,0.009 0.001,0.021 0,0.03 -0.007,0.067 -0.02,0.136 -0.03,0.202 -0.005,0.032 -0.007,0.058 -0.01,0.091 -0.001,0.008 0.001,0.032 0,0.04 l -0.01,0.01 v 0.01 0.01 c -0,0.005 0.001,0.014 0,0.02 v 0.01 0.01 c -0.002,0.02 -0.009,0.039 -0.01,0.061 v 0.01 h -0.01 v 0.01 0.01 h -0.01 v 0.01 h -0.01 v -0.01 -0.01 h -0.01 -0.01 v -0.01 h -0.01 v -0.01 -0.01 -0.01 l 0.01,-0.01 v -0.01 -0.01 h -0.01 v -0.01 -0.01 -0.01 -0.01 -0.01 h -0.01 -0.01 v -0.01 -0.01 -0.01 -0.01 c -0.001,-0.011 0.001,-0.017 0,-0.03 -0,-0.005 -0,-0.024 0,-0.03 v -0.01 -0.01 h -0.01 v -0.01 -0.01 -0.01 l -0.01,-0.01 v -0.01 -0.01 h 0.01 v -0.01 -0.01 -0.01 -0.01 -0.01 -0.01 -0.01 -0.01 -0.01 c -0,-0.004 0.002,-0.024 0,-0.03 h -0.01 v -0.01 h -0.01 v -0.01 -0.01 -0.01 h -0.01 -0.01 v -0.01 h 0.01 v -0.01 -0.01 h 0.01 v -0.01 h -0.01 -0.01 v 0.01 h -0.01 v -0.01 -0.01 -0.01 c 0,-0.006 0.001,-0.014 0,-0.02 v -0.01 l 0.01,-0.01 v -0.01 h -0.01 v -0.01 h 0.01 v -0.01 -0.01 -0.01 -0.01 h 0.01 v -0.01 -0.01 h 0.01 v -0.01 -0.01 -0.01 h -0.01 v -0.01 -0.01 l -0.01,-0.01 v -0.01 h -0.01 v -0.01 -0.01 -0.01 h -0.01 v -0.01 -0.01 -0.01 h -0.01 v -0.01 -0.01 -0.01 -0.01 c -0,-0.012 0,-0.019 0,-0.03 -0,-0.005 -0,-0.026 0,-0.03 v -0.01 h -0.01 v -0.01 -0.01 h -0.01 v -0.01 -0.01 -0.01 -0.01 h -0.01 v -0.01 -0.01 -0.01 -0.01 -0.01 h 0.01 v -0.01 -0.01 -0.01 l -0.01,-0.01 h -0.01 v -0.01 -0.01 -0.01 -0.01 -0.01 -0.01 h -0.01 v -0.01 h 0.01 v -0.01 h -0.01 v -0.01 -0.01 -0.01 l -0.01,-0.01 v -0.01 h -0.01 v -0.01 -0.01 l -0.01,-0.01 v -0.01 -0.01 h -0.01 v -0.01 -0.01 -0.01 -0.01 h 0.01 v -0.01 h -0.01 -0.01 v -0.01 h -0.01 v -0.01 -0.01 -0.01 -0.01 -0.01 -0.01 -0.01 -0.01 -0.01 h -0.01 c -0.001,-0.021 -0.006,-0.04 -0.01,-0.061 v -0.01 -0.01 -0.01 h -0.01 v -0.01 -0.01 -0.01 -0.01 l -0.01,-0.01 v -0.01 -0.01 h 0.01 v -0.01 h -0.01 v -0.01 -0.01 -0.01 -0.01 -0.01 -0.01 h -0.01 v -0.01 -0.01 -0.01 -0.01 -0.01 h -0.01 v -0.01 -0.01 h 0.01 0.01 v -0.01 h -0.01 v -0.01 -0.01 -0.01 -0.01 h -0.01 v -0.01 h 0.01 v -0.01 -0.01 h -0.01 -0.01 v -0.01 -0.01 -0.01 -0.01 h 0.01 v -0.01 h -0.01 v -0.01 l -0.01,-0.01 v -0.01 h -0.01 v -0.01 h 0.01 v -0.01 -0.01 h -0.01 v -0.01 -0.01 h 0.01 v -0.01 h -0.01 v -0.01 h -0.01 v -0.01 -0.01 -0.01 -0.01 -0.01 l -0.01,-0.01 v -0.01 -0.01 -0.01 -0.01 -0.01 h -0.01 v -0.01 -0.01 -0.01 -0.01 -0.01 -0.01 l -0.01,-0.01 v -0.01 -0.01 -0.01 -0.01 -0.01 l -0.01,-0.01 v -0.01 -0.01 -0.01 -0.01 -0.01 -0.01 -0.01 h -0.01 v -0.01 -0.01 -0.01 -0.01 l -0.01,-0.01 v -0.01 -0.01 -0.01 -0.01 -0.01 -0.01 h -0.01 v -0.01 -0.01 -0.01 -0.01 -0.01 -0.01 -0.01 -0.01 h -0.01 v -0.01 -0.01 -0.01 -0.01 h -0.01 v -0.01 c -0,-0.004 0.001,-0.017 0,-0.02 v -0.01 -0.01 c -0.004,-0.015 -0.007,-0.025 -0.01,-0.04 v -0.01 -0.01 -0.01 h -0.01 v -0.01 -0.01 -0.01 c -0.002,-0.007 -0.008,-0.013 -0.01,-0.02 v -0.01 h -0.01 v -0.01 -0.01 h -0.01 v -0.01 -0.01 l -0.01,-0.01 v -0.01 h -0.01 v -0.01 h -0.01 v -0.01 h -0.01 v -0.01 h -0.01 v -0.01 h -0.01 v -0.01 h -0.01 v -0.01 h -0.01 -0.01 v -0.01 h -0.01 -0.01 v -0.01 h -0.01 -0.01 -0.01 v -0.01 c -0.009,-0.001 -0.021,0.001 -0.03,0 h -0.01 -0.01 -0.01 -0.01 -0.01 -0.01 -0.01 -0.01 c -0.007,0.002 -0.013,0.008 -0.02,0.01 h -0.01 -0.01 v 0.01 h -0.01 -0.01 l -0.01,0.01 -0.01,0.01 c -0.005,0.003 -0.025,0.007 -0.03,0.01 v 0.01 l -0.01,0.01 c -0.004,0.004 -0.016,0.006 -0.02,0.01 v 0.01 l -0.01,0.01 c -0.004,0.006 -0.006,0.014 -0.01,0.02 -0.005,0.009 -0.016,0.022 -0.02,0.03 -0.002,0.004 -0.009,0.015 -0.01,0.02 -0.006,0.02 -0.016,0.041 -0.02,0.061 v 0.01 0.01 h -0.01 v 0.01 0.01 0.01 h -0.01 v 0.01 0.01 c -0.003,0.006 -0.008,0.014 -0.01,0.02 v 0.01 0.01 h -0.01 v 0.01 c -0.007,0.022 -0.016,0.048 -0.02,0.071 l -0.01,0.01 v 0.01 c -0.003,0.009 -0.007,0.022 -0.01,0.03 -0.003,0.009 -0.007,0.022 -0.01,0.03 -0.012,0.034 -0.017,0.068 -0.03,0.101 l -0.01,0.01 c -0.003,0.005 0.003,0.015 0,0.02 h -0.01 v 0.01 0.01 0.01 0.01 l -0.01,0.01 v 0.01 0.01 0.01 h -0.01 v 0.01 0.01 h -0.01 v 0.01 0.01 c -0.002,0.007 -0.007,0.011 -0.01,0.02 v 0.01 l -0.01,0.01 v 0.01 0.01 l -0.01,0.01 c 0,0.004 0,0.014 0,0.02 v 0.01 0.01 l -0.01,0.01 c -0.007,0.023 -0.013,0.047 -0.02,0.071 -0.007,0.019 -0.016,0.041 -0.02,0.061 v 0.01 0.01 h -0.01 v 0.01 l -0.01,0.01 v 0.01 0.01 0.01 l -0.01,0.01 v 0.01 0.01 0.01 l -0.01,0.01 v 0.01 c -0.009,0.025 -0.015,0.044 -0.02,0.071 l -0.01,0.01 v 0.01 c -0.003,0.004 -0.017,0.016 -0.02,0.02 v 0.01 c -0.002,0.006 -0.009,0.024 -0.01,0.03 v 0.01 c 0,0.008 0,0.014 0,0.02 v 0.01 c -0.002,0.003 -0.009,0.026 -0.01,0.03 l -0.01,0.01 v 0.01 h -0.01 v 0.01 h -0.01 v 0.01 0.01 l -0.01,0.01 v 0.01 0.01 0.01 l -0.01,0.01 v 0.01 0.01 0.01 c -0.009,0.028 -0.02,0.053 -0.03,0.081 -0.012,0.034 -0.03,0.068 -0.04,0.101 v 0.01 c -0.002,0.005 0.001,0.016 0,0.02 -0.003,0.008 -0.017,0.012 -0.02,0.02 v 0.01 0.01 0.01 h -0.01 v 0.01 0.01 0.01 h -0.01 v 0.01 0.01 l -0.01,0.01 v 0.01 0.01 0.01 l -0.01,0.01 v 0.01 c -0.004,0.009 -0.007,0.022 -0.01,0.03 -0.008,0.019 -0.014,0.031 -0.02,0.051 -0.009,0.033 -0.021,0.086 -0.02,0.121 0.002,0.015 0.004,0.036 0.01,0.051 l 0.01,0.01 c 0.014,0.02 0.041,0.054 0.061,0.071 h 0.01 c 0.006,0.003 0.023,0.017 0.03,0.02 h 0.01 0.01 l 0.01,0.01 h 0.01 0.01 0.01 0.01 0.01 l 0.01,-0.01 h 0.01 0.01 0.01 0.01 0.01 v -0.01 h 0.01 0.01 v -0.01 h 0.01 c 0.006,-0.003 0.024,-0.016 0.03,-0.02 h 0.01 v -0.01 h 0.01 v -0.01 h 0.01 v -0.01 -0.01 h 0.01 0.01 0.01 v -0.01 h -0.01 v -0.01 -0.01 h 0.01 v -0.01 -0.01 h 0.01 v -0.01 -0.01 -0.01 h 0.01 v -0.01 h 0.01 v -0.01 -0.01 -0.01 h 0.01 v -0.01 -0.01 -0.01 h 0.01 v -0.01 h 0.01 v -0.01 h -0.01 v -0.01 h 0.01 v -0.01 h 0.01 v -0.01 -0.01 h 0.01 v -0.01 h 0.01 v -0.01 h -0.01 v -0.01 h 0.01 v -0.01 -0.01 c 0.002,-0.004 0.007,-0.015 0.01,-0.02 h 0.01 v -0.01 h 0.01 0.01 v -0.01 h -0.01 -0.01 v -0.01 -0.01 h 0.01 v -0.01 -0.01 h 0.01 v -0.01 -0.01 -0.01 h 0.01 v -0.01 -0.01 h 0.01 v -0.01 h 0.01 v -0.01 h -0.01 v -0.01 -0.01 h 0.01 v -0.01 h -0.01 v -0.01 -0.01 h 0.01 0.01 v -0.01 h 0.01 v -0.01 h -0.01 v -0.01 h 0.01 v -0.01 -0.01 -0.01 -0.01 -0.01 h 0.01 v -0.01 -0.01 h 0.01 v -0.01 h 0.01 V 12.288 h -0.01 v -0.01 -0.01 h 0.01 v -0.01 -0.01 h 0.01 v -0.01 h 0.01 v -0.01 -0.01 -0.01 -0.01 h 0.01 0.01 v -0.01 -0.01 h -0.01 v -0.01 h 0.01 v -0.01 h 0.01 v -0.01 -0.01 h -0.01 v -0.01 -0.01 h 0.01 0.01 0.01 0.01 v -0.01 h -0.01 -0.01 V 12.096 h 0.01 v -0.01 h 0.01 0.01 v -0.01 -0.01 h 0.01 v -0.01 -0.01 -0.01 h 0.01 v -0.01 h 0.01 v -0.01 -0.01 -0.01 -0.01 h 0.01 v -0.01 h 0.01 0.01 v 0.01 h 0.01 0.01 0.01 v 0.01 0.01 h 0.01 0.01 v 0.01 0.01 0.01 h -0.01 v 0.01 0.01 h 0.01 0.01 v -0.01 h 0.01 0.01 v 0.01 0.01 h -0.01 v 0.01 0.01 0.01 0.01 h 0.01 v 0.01 h -0.01 v 0.01 0.01 0.01 0.01 0.01 h 0.01 v 0.01 l -0.01,0.01 v 0.01 0.01 h 0.01 v 0.01 h 0.01 v 0.01 h 0.01 v 0.01 0.01 h 0.01 v 0.01 c 0.001,0.01 -0.001,0.01 0,0.02 v 0.01 0.01 h 0.01 v 0.01 0.01 0.01 0.01 l 0.01,0.01 v 0.01 0.01 0.01 0.01 0.01 c 0.001,0.004 0.009,0.016 0.01,0.02 v 0.01 0.01 0.01 c 0.001,0.005 -0.001,0.015 0,0.02 l 0.01,0.01 v 0.01 0.01 0.01 0.01 0.01 0.01 0.01 0.01 h 0.01 c 0.001,0.008 -0.002,0.012 0,0.02 0.001,0.004 -0.001,0.026 0,0.03 0.001,0.007 0.009,0.013 0.01,0.02 v 0.01 0.01 0.01 h 0.01 v 0.01 0.01 0.01 0.01 0.01 h -0.01 v 0.01 c 0,0.005 0.01,0.025 0.01,0.03 v 0.01 0.01 0.01 0.01 h 0.01 v 0.01 0.01 h 0.01 v 0.01 0.01 c 0.001,0.013 -0.002,0.028 0,0.04 v 0.01 l 0.01,0.01 v 0.01 0.01 0.01 0.01 0.01 0.01 c 0.002,0.009 0.008,0.021 0.01,0.03 0.004,0.021 0.009,0.039 0.01,0.061 v 0.01 0.01 0.01 0.01 0.01 h 0.01 v 0.01 c 0.001,0.009 -0.001,0.021 0,0.03 v 0.01 0.01 h 0.01 c 0,0.005 -0,0.015 0,0.02 v 0.01 0.01 0.01 0.01 c 0.001,0.01 0.009,0.02 0.01,0.03 v 0.01 0.01 0.01 c -0,0.005 -0,0.025 0,0.03 h 0.01 v 0.01 0.01 0.01 0.01 0.01 c 0.003,0.01 0.009,0.02 0.01,0.03 v 0.01 c 0,0.005 -0.001,0.015 0,0.02 v 0.01 0.01 h 0.01 v 0.01 0.01 0.01 c 0.001,0.006 -0.001,0.014 0,0.02 v 0.01 0.01 c 0.001,0.004 0.009,0.026 0.01,0.03 v 0.01 0.01 0.01 h 0.01 v 0.01 0.01 0.01 0.01 0.01 0.01 0.01 l 0.01,0.01 v 0.01 0.01 0.01 0.01 0.01 0.01 l 0.01,0.01 v 0.01 0.01 0.01 0.01 0.01 h 0.01 v 0.01 0.01 0.01 0.01 0.01 0.01 l 0.01,0.01 c 0,0.007 -0.001,0.014 0,0.02 v 0.01 0.01 0.01 0.01 0.01 h 0.01 v 0.01 0.01 0.01 0.01 0.01 0.01 0.01 h 0.01 v 0.01 0.01 0.01 0.01 0.01 0.01 l 0.01,0.01 v 0.01 0.01 0.01 0.01 0.01 h 0.01 v 0.01 0.01 0.01 0.01 l 0.01,0.01 v 0.01 0.01 0.01 0.01 h -0.01 v 0.01 0.01 0.01 0.01 0.01 h -0.01 v 0.01 h 0.01 l 0.01,0.01 h 0.01 v 0.01 h 0.01 v 0.01 0.01 0.01 l -0.01,0.01 v 0.01 h -0.01 v 0.01 h 0.01 0.01 v 0.01 h 0.01 v 0.01 0.01 0.01 0.01 0.01 h 0.01 v 0.01 0.01 0.01 0.01 0.01 l 0.01,0.01 v 0.01 0.01 h -0.01 v 0.01 h 0.01 v 0.01 0.01 0.01 h 0.01 v 0.01 0.01 0.01 c 0.001,0.008 -0,0.013 0,0.02 v 0.01 0.01 0.01 0.01 h 0.01 v 0.01 0.01 h 0.01 v 0.01 0.01 0.01 0.01 c 0,0.004 0.009,0.026 0.01,0.03 v 0.01 0.01 c 0.001,0.006 -0.001,0.014 0,0.02 v 0.01 0.01 h 0.01 v 0.01 0.01 h -0.01 v 0.01 h 0.01 v 0.01 0.01 l 0.01,0.01 v 0.01 0.01 0.01 0.01 0.01 0.01 h 0.01 v 0.01 0.01 0.01 0.01 0.01 0.01 h 0.01 v 0.01 0.01 0.01 0.01 0.01 h 0.01 v 0.01 0.01 0.01 0.01 0.01 0.01 0.01 h 0.01 v 0.01 0.01 0.01 0.01 h 0.01 v 0.01 0.01 0.01 0.01 0.01 h 0.01 v 0.01 0.01 0.01 h 0.01 v 0.01 0.01 0.01 0.01 0.01 l 0.01,0.01 v 0.01 0.01 0.01 0.01 h 0.01 v 0.01 0.01 0.01 0.01 0.01 l 0.01,0.01 v 0.01 h 0.01 v 0.01 0.01 h 0.01 v 0.01 l 0.01,0.01 v 0.01 h 0.01 v 0.01 h 0.01 v 0.01 h 0.01 0.01 v 0.01 h 0.01 v 0.01 h 0.01 0.01 v 0.01 h 0.01 0.01 0.01 l 0.01,0.01 h 0.01 0.01 0.01 v -0.01 h 0.01 0.01 0.01 0.01 0.01 0.01 c 0.001,-0 0.022,-0.008 0.03,-0.01 h 0.01 v -0.01 h 0.01 l 0.01,-0.01 h 0.01 v -0.01 h 0.01 l 0.01,-0.01 h 0.01 v -0.01 h 0.01 v -0.01 -0.01 h 0.01 v -0.01 h 0.01 v -0.01 -0.01 h 0.01 v -0.01 -0.01 l 0.01,-0.01 v -0.01 -0.01 l 0.01,-0.01 v -0.01 -0.01 -0.01 h 0.01 v -0.01 -0.01 -0.01 h 0.01 v -0.01 -0.01 c 0.001,-0.005 -0.001,-0.025 0,-0.03 v -0.01 -0.01 l 0.01,-0.01 v -0.01 -0.01 -0.01 -0.01 -0.01 h 0.01 v -0.01 -0.01 -0.01 -0.01 -0.01 l 0.01,-0.01 v -0.01 -0.01 -0.01 -0.01 -0.01 -0.01 -0.01 -0.01 h 0.01 v -0.01 -0.01 -0.01 -0.01 -0.01 h 0.01 v -0.01 -0.01 -0.01 -0.01 c 0.001,-0.007 -0.001,-0.014 0,-0.02 v -0.01 -0.01 h 0.01 v -0.01 -0.01 -0.01 -0.01 -0.01 -0.01 -0.01 l 0.01,-0.01 v -0.01 -0.01 -0.01 -0.01 -0.01 l 0.01,-0.01 v -0.01 h -0.01 v -0.01 h 0.01 v -0.01 -0.01 -0.01 -0.01 -0.01 l 0.01,-0.01 v -0.01 -0.01 -0.01 -0.01 -0.01 -0.01 -0.01 h 0.01 v -0.01 h -0.01 v -0.01 h 0.01 v -0.01 -0.01 -0.01 -0.01 -0.01 -0.01 -0.01 -0.01 h 0.01 v -0.01 -0.01 -0.01 -0.01 -0.01 -0.01 h 0.01 v -0.01 h -0.01 v -0.01 h 0.01 v -0.01 -0.01 -0.01 -0.01 -0.01 -0.01 l 0.01,-0.01 v -0.01 -0.01 -0.01 -0.01 -0.01 -0.01 -0.01 -0.01 -0.01 h 0.01 v -0.01 -0.01 -0.01 -0.01 -0.01 -0.01 -0.01 h 0.01 v -0.01 -0.01 -0.01 -0.01 -0.01 -0.01 -0.01 -0.01 -0.01 h 0.01 v -0.01 -0.01 -0.01 -0.01 -0.01 -0.01 -0.01 h 0.01 v -0.01 -0.01 -0.01 -0.01 -0.01 -0.01 -0.01 -0.01 h 0.01 v -0.01 -0.01 -0.01 -0.01 -0.01 -0.01 -0.01 h 0.01 v -0.01 -0.01 -0.01 -0.01 h 0.01 v -0.01 -0.01 h 0.01 v -0.01 -0.01 -0.01 h 0.01 v -0.01 -0.01 -0.01 h -0.01 v -0.01 h 0.01 v -0.01 h 0.01 0.01 0.01 v -0.01 -0.01 -0.01 -0.01 h -0.01 v -0.01 h -0.01 v -0.01 h -0.01 v -0.01 -0.01 h 0.01 v -0.01 h -0.01 v -0.01 -0.01 -0.01 h 0.01 v -0.01 -0.01 -0.01 -0.01 -0.01 -0.01 h 0.01 v -0.01 -0.01 -0.01 -0.01 -0.01 -0.01 h 0.01 v -0.01 h -0.01 v -0.01 -0.01 -0.01 h 0.01 v -0.01 -0.01 h 0.01 v -0.01 -0.01 -0.01 h 0.01 0.01 v -0.01 h 0.01 v -0.01 -0.01 h 0.01 v -0.01 h -0.01 v -0.01 -0.01 -0.01 h 0.01 0.01 v -0.01 -0.01 -0.01 -0.01 -0.01 h 0.01 v -0.01 -0.01 h -0.01 v -0.01 -0.01 -0.01 -0.01 -0.01 h -0.01 -0.01 -0.01 v -0.01 -0.01 -0.01 -0.01 l 0.01,-0.01 v -0.01 -0.01 -0.01 -0.01 -0.01 -0.01 -0.01 h 0.01 v -0.01 -0.01 -0.01 -0.01 h 0.01 v -0.01 -0.01 -0.01 -0.01 h 0.01 v -0.01 -0.01 -0.01 -0.01 -0.01 -0.01 l 0.01,-0.01 v -0.01 -0.01 -0.01 -0.01 -0.01 -0.01 -0.01 h 0.01 v -0.01 h 0.01 v -0.01 -0.01 -0.01 -0.01 -0.01 -0.01 -0.01 -0.01 h 0.01 v -0.01 -0.01 -0.01 -0.01 -0.01 h -0.01 v -0.01 h 0.01 v -0.01 -0.01 h 0.01 v -0.01 -0.01 h 0.01 v -0.01 -0.01 -0.01 -0.01 h 0.01 v -0.01 -0.01 -0.01 -0.01 h -0.01 v -0.01 -0.01 h 0.01 v -0.01 -0.01 -0.01 h 0.01 v -0.01 h 0.01 v -0.01 h 0.01 v -0.01 -0.01 -0.01 -0.01 -0.01 h 0.01 v -0.01 -0.01 -0.01 -0.01 l -0.01,-0.01 v -0.01 -0.01 -0.01 -0.01 c 0.003,-0.017 0.007,-0.033 0.01,-0.051 v -0.01 -0.01 -0.01 h 0.01 0.01 l 0.01,-0.01 v -0.01 -0.01 -0.01 h -0.01 v -0.01 h 0.01 v -0.01 h 0.01 v -0.01 -0.01 h -0.01 v -0.01 -0.01 h 0.01 v -0.01 -0.01 -0.01 -0.01 -0.01 -0.01 -0.01 h 0.01 v -0.01 -0.01 -0.01 -0.01 h 0.01 v -0.01 -0.01 -0.01 -0.01 -0.01 -0.01 h 0.01 v -0.01 -0.01 -0.01 h 0.01 v -0.01 -0.01 -0.01 -0.01 c 0,-0.005 -0.001,-0.015 0,-0.02 h 0.01 v -0.01 -0.01 -0.01 -0.01 -0.01 h 0.01 v -0.01 -0.01 -0.01 -0.01 h 0.01 c 0.003,-0.012 -0.004,-0.029 0,-0.04 l 0.01,-0.01 v -0.01 -0.01 -0.01 -0.01 h 0.01 v -0.01 -0.01 -0.01 -0.01 h 0.01 v -0.01 -0.01 -0.01 l 0.01,-0.01 v -0.01 -0.01 c 0.001,-0.005 -0.001,-0.014 0,-0.02 h 0.01 v -0.01 -0.01 -0.01 -0.01 h 0.01 v -0.01 -0.01 -0.01 l 0.01,-0.01 v -0.01 -0.01 -0.01 h 0.01 v -0.01 -0.01 -0.01 -0.01 h 0.01 v -0.01 -0.01 -0.01 h 0.01 v -0.01 h 0.01 v -0.01 -0.01 -0.01 h 0.01 v -0.01 -0.01 h 0.01 v -0.01 -0.01 -0.01 l 0.01,-0.01 v -0.01 -0.01 -0.01 h 0.01 v -0.01 h 0.01 v -0.01 h 0.01 v -0.01 -0.01 -0.01 -0.01 l 0.01,-0.01 v -0.01 -0.01 h 0.01 v -0.01 -0.01 -0.01 -0.01 -0.01 h 0.01 v -0.01 -0.01 h 0.01 v -0.01 h 0.01 0.01 v -0.01 h 0.01 v -0.01 -0.01 l 0.01,-0.01 v -0.01 l 0.01,-0.01 v -0.01 -0.01 -0.01 -0.01 -0.01 h 0.01 v -0.01 l -0.01,-0.01 v -0.01 -0.01 h 0.01 v -0.01 -0.01 -0.01 -0.01 -0.01 -0.01 -0.01 -0.01 h 0.01 v -0.01 -0.01 -0.01 -0.01 h 0.01 v -0.01 l -0.01,-0.01 v -0.01 h 0.01 v -0.01 -0.01 -0.01 -0.01 l 0.01,-0.01 0.01,-0.01 c 0.006,-0.012 0.003,-0.029 0.01,-0.04 0.004,-0.007 0.017,-0.024 0.02,-0.03 v -0.01 -0.01 -0.01 -0.01 h 0.01 v -0.01 -0.01 c 0.002,-0.006 0.009,-0.015 0.01,-0.02 v -0.01 -0.01 -0.01 -0.01 h 0.01 v -0.01 -0.01 l 0.01,-0.01 h 0.01 v -0.01 c 0.001,-0.004 -0.002,-0.015 0,-0.02 l 0.01,-0.01 h 0.01 v -0.01 -0.01 -0.01 -0.01 h -0.01 v -0.01 -0.01 -0.01 h 0.01 v -0.01 c 0.003,-0.006 0.007,-0.014 0.01,-0.02 v -0.01 -0.01 -0.01 h 0.01 v -0.01 h 0.01 v -0.01 -0.01 -0.01 -0.01 -0.01 l 0.01,-0.01 v -0.01 l 0.01,-0.01 v -0.01 -0.01 -0.01 h 0.01 v -0.01 h -0.01 v -0.01 -0.01 -0.01 l 0.01,-0.01 v -0.01 -0.01 h 0.01 v -0.01 c 0.001,-0.006 -0.002,-0.014 0,-0.02 v -0.01 h 0.01 v -0.01 -0.01 h 0.01 v -0.01 h 0.01 v -0.01 -0.01 -0.01 -0.01 h 0.01 v -0.01 -0.01 -0.01 -0.01 h 0.01 v -0.01 -0.01 h 0.01 v -0.01 -0.01 -0.01 c 0.001,-0.004 0.009,-0.016 0.01,-0.02 v -0.01 -0.01 h 0.01 v -0.01 -0.01 l 0.01,-0.01 v -0.01 -0.01 h 0.01 v -0.01 h 0.01 v -0.01 -0.01 h 0.01 v -0.01 h -0.01 v -0.01 h 0.01 0.01 v -0.01 -0.01 -0.01 -0.01 -0.01 l 0.01,-0.01 v -0.01 -0.01 h 0.01 v -0.01 -0.01 -0.01 h 0.01 v -0.01 -0.01 h 0.01 v -0.01 -0.01 -0.01 h 0.01 v -0.01 -0.01 l 0.01,-0.01 0.01,-0.01 v -0.01 l 0.01,-0.01 v -0.01 -0.01 -0.01 h 0.01 v -0.01 h 0.01 v -0.01 -0.01 -0.01 h 0.01 v -0.01 h 0.01 v -0.01 -0.01 h 0.01 v -0.01 -0.01 -0.01 h -0.01 v -0.01 l 0.01,-0.01 v -0.01 -0.01 l 0.01,-0.01 c 0.003,-0.008 0.007,-0.013 0.01,-0.02 0.004,-0.009 0.006,-0.021 0.01,-0.03 v -0.01 -0.01 l 0.01,-0.01 v -0.01 h 0.01 v -0.01 -0.01 h 0.01 v -0.01 -0.01 -0.01 h 0.01 v -0.01 c 0.004,-0.008 0.006,-0.012 0.01,-0.02 v -0.01 h 0.01 v -0.01 -0.01 -0.01 h 0.01 v -0.01 -0.01 c 0.003,-0.008 0.009,-0.018 0.01,-0.02 0.01,-0.023 0.02,-0.047 0.03,-0.071 0.003,-0.006 0.007,-0.024 0.01,-0.03 h 0.01 v -0.01 -0.01 h 0.01 v -0.01 -0.01 l 0.01,-0.01 v -0.01 h 0.01 v -0.01 -0.01 -0.01 h 0.01 v -0.01 -0.01 l 0.01,-0.01 v -0.01 h 0.01 v -0.01 -0.01 -0.01 h 0.01 v -0.01 h 0.01 v -0.01 -0.01 c 0.004,-0.007 0.006,-0.014 0.01,-0.02 v -0.01 h 0.01 v -0.01 l 0.01,-0.01 v -0.01 h 0.01 v -0.01 h 0.01 v -0.01 h 0.01 v -0.01 -0.01 -0.01 h 0.01 v -0.01 l 0.01,-0.01 v -0.01 h 0.01 v -0.01 h 0.01 v -0.01 -0.01 l 0.01,-0.01 v -0.01 h 0.01 v -0.01 h 0.01 v -0.01 -0.01 l 0.01,-0.01 c 0.01,-0.013 0.021,-0.028 0.03,-0.04 h 0.01 v -0.01 l 0.01,-0.01 v -0.01 l 0.01,-0.01 h 0.01 v -0.01 l 0.01,-0.01 v -0.01 h 0.01 v -0.01 h 0.01 v -0.01 h 0.01 v -0.01 l 0.01,-0.01 0.01,-0.01 v -0.01 h 0.01 v -0.01 h 0.01 v -0.01 h 0.01 v -0.01 h 0.01 0.01 v -0.01 h 0.01 v -0.01 l 0.01,-0.01 v -0.01 h 0.01 v 0.01 h 0.01 v -0.01 h 0.01 v -0.01 h -0.01 v -0.01 h 0.01 v -0.01 -0.01 h 0.01 v 0.01 h 0.01 v -0.01 -0.01 h 0.01 0.01 v 0.01 h 0.01 v -0.01 h 0.01 v -0.01 -0.01 l 0.01,-0.01 v -0.01 h 0.01 v -0.01 -0.01 -0.01 -0.01 h 0.01 v -0.01 h 0.01 v -0.01 -0.01 h 0.01 v -0.01 h 0.01 v -0.01 -0.01 h 0.01 v -0.01 h 0.01 v -0.01 -0.01 h 0.01 v -0.01 -0.01 h 0.01 v -0.01 l 0.01,-0.01 v -0.01 -0.01 h 0.01 v -0.01 -0.01 -0.01 -0.01 c 0.001,-0.006 0.009,-0.014 0.01,-0.02 v -0.01 -0.01 -0.01 -0.01 c 0.001,-0.011 -0,-0.02 0,-0.03 v -0.01 -0.01 -0.01 -0.01 -0.01 h -0.01 v -0.01 -0.01 -0.01 -0.01 h -0.01 v -0.01 -0.01 -0.01 l -0.01,-0.01 v -0.01 l -0.01,-0.01 v -0.01 -0.01 h -0.01 v -0.01 l -0.01,-0.01 v -0.01 h -0.01 v -0.01 c -0.007,-0.009 -0.013,-0.011 -0.02,-0.02 v -0.01 h -0.01 v -0.01 h -0.01 v -0.01 h -0.01 l -0.01,-0.01 v -0.01 h -0.01 -0.01 l -0.01,-0.01 h -0.01 v -0.01 h -0.01 -0.01 v -0.01 h -0.01 -0.01 v -0.01 h -0.01 -0.01 -0.01 v -0.01 h -0.01 -0.01 l -0.01,-0.01 h -0.01 -0.01 -0.01 l -0.01,-0.01 c -0.007,-0.001 -0.014,0.001 -0.02,0 h -0.01 -0.01 -0.01 -0.01 -0.01 -0.01 -0.01 z M 2.931,14.339 h -0.01 v 0.01 h 0.01 z m -0.606,-1.91 h 0.01 v -0.01 h -0.01 z m 0.677,-0.758 v 0.01 h 0.01 v -0.01 z M 20.564,7.953 c 0.602,0 1.132,0.186 1.576,0.556 0.994,0.828 1.344,2.281 1.344,3.496 0,1.215 -0.35,2.658 -1.344,3.486 -0.444,0.37 -0.975,0.556 -1.576,0.556 -0.945,0 -1.89,-0.458 -2.516,-0.839 -1.067,-0.685 -2.009,-1.622 -3.153,-3.203 C 16.039,10.424 16.981,9.476 18.048,8.792 18.674,8.41 19.619,7.953 20.564,7.953 Z m -11.853,1.364 -0.01,0.01 h -0.01 -0.01 -0.01 v 0.01 h -0.01 -0.01 -0.01 v 0.01 h -0.01 c -0.005,0.003 -0.015,0.008 -0.02,0.01 h -0.01 v 0.01 h -0.01 v 0.01 h -0.01 -0.01 v 0.01 h -0.01 v 0.01 h -0.01 v 0.01 h -0.01 l -0.01,0.01 -0.01,0.01 h -0.01 v 0.01 h -0.01 v 0.01 c -0.004,0.004 -0.006,0.016 -0.01,0.02 h -0.01 v 0.01 h -0.01 v 0.01 0.01 h -0.01 v 0.01 l -0.01,0.01 v 0.01 0.01 l -0.01,0.01 v 0.01 0.01 h -0.01 v 0.01 0.01 0.01 0.01 h -0.01 v 0.01 0.01 0.01 l 0.01,0.01 v 0.01 0.01 l 0.01,0.01 v 0.01 0.01 0.01 h 0.01 v 0.01 l 0.01,0.01 0.01,0.01 h 0.01 v 0.01 h 0.01 0.01 0.01 v 0.01 h 0.01 0.01 0.01 0.01 v 0.01 h 0.01 0.01 0.01 0.01 l 0.01,-0.01 h 0.01 v 0.01 h 0.01 0.01 v -0.01 h 0.01 0.01 l 0.01,-0.01 h 0.01 v -0.01 h 0.01 v -0.01 h 0.01 0.01 v -0.01 h 0.01 c 0.007,-0.004 0.013,-0.016 0.02,-0.02 0.013,-0.008 0.03,-0.02 0.04,-0.03 l 0.01,-0.01 v -0.01 l 0.01,-0.01 0.01,-0.01 v -0.01 h 0.01 v -0.01 l 0.01,-0.01 h 0.01 v -0.01 l 0.01,-0.01 v -0.01 h 0.01 0.01 v -0.01 -0.01 h 0.01 v -0.01 -0.01 h 0.01 v -0.01 -0.01 h 0.01 v -0.01 -0.01 -0.01 -0.01 h 0.01 v -0.01 h 0.01 v -0.01 h -0.01 v -0.01 -0.01 -0.01 l -0.01,-0.01 v -0.01 -0.01 -0.01 h -0.01 v -0.01 -0.01 h -0.01 v -0.01 h -0.01 v -0.01 -0.01 h -0.01 -0.01 -0.01 -0.01 -0.01 l -0.01,-0.01 h -0.01 -0.01 -0.01 -0.01 -0.01 -0.01 -0.01 -0.01 z m 1.496,0.141 -0.01,0.01 h -0.01 -0.01 -0.01 -0.01 l -0.01,0.01 h -0.01 -0.01 l -0.01,0.01 h -0.01 v 0.01 c -0.006,0.003 -0.014,0.007 -0.02,0.01 -0.01,0.005 -0.021,0.005 -0.03,0.01 -0.018,0.01 -0.033,0.02 -0.051,0.03 -0.009,0.005 -0.022,0.015 -0.03,0.02 h -0.01 l -0.01,0.01 v 0.01 h -0.01 V 9.6 h -0.01 v 0.01 h -0.01 v 0.01 c -0.004,0.004 -0.017,0.005 -0.02,0.01 v 0.01 l -0.01,0.01 -0.01,0.01 h -0.01 v 0.01 h -0.01 c -0.006,0.006 -0.013,0.014 -0.02,0.02 l -0.01,0.01 v 0.01 l -0.01,0.01 h -0.01 V 9.731 l -0.01,0.01 v 0.01 h -0.01 l -0.01,0.01 -0.01,0.01 h -0.01 v 0.01 l -0.01,0.01 h -0.01 -0.01 v 0.01 c -0.004,0.002 -0.016,0.008 -0.02,0.01 h -0.01 -0.01 v 0.01 h -0.01 -0.01 -0.01 -0.01 l -0.01,0.01 h -0.01 l -0.01,-0.01 h -0.01 -0.01 -0.01 -0.01 -0.01 V 9.812 9.802 h -0.01 -0.01 -0.01 -0.01 -0.01 -0.01 v 0.01 h -0.01 v 0.01 h -0.01 -0.01 -0.01 -0.01 -0.01 -0.01 -0.01 c -0.023,0 -0.048,0.005 -0.071,0.01 -0.005,0.001 -0.025,0.008 -0.03,0.01 -0.005,0.002 -0.015,-0.002 -0.02,0 h -0.01 v 0.01 h -0.01 l -0.01,0.01 c -0.005,0.002 -0.026,0.018 -0.03,0.02 h -0.01 l -0.01,0.01 h -0.01 v 0.01 h -0.01 l -0.01,0.01 -0.01,0.01 h -0.01 v 0.01 l -0.01,0.01 c -0.006,0.008 -0.015,0.012 -0.02,0.02 -0.005,0.007 -0.005,0.023 -0.01,0.03 l -0.01,0.01 v 0.01 l -0.01,0.01 v 0.01 l -0.01,0.01 c -0.003,0.009 -0.006,0.021 -0.01,0.03 -0.006,0.015 -0.016,0.035 -0.02,0.051 -0.001,0.006 0.001,0.024 0,0.03 v 0.01 c 0,0.006 0,0.025 0,0.03 -0.003,0.023 -0.009,0.048 -0.01,0.071 -0.001,0.01 0,0.031 0,0.04 v 0.01 0.01 0.01 0.01 c -0,0.008 0,0.013 0,0.02 -0.001,0.014 -0.01,0.027 -0.01,0.04 0,0.007 0,0.023 0,0.03 v 0.01 0.01 0.01 0.01 0.01 c 0.001,0.014 0.001,0.026 0,0.04 -0.002,0.014 0,0.026 0,0.04 0,0.015 -0.011,0.035 -0.01,0.051 h 0.01 v 0.01 0.01 h -0.01 v 0.01 0.01 0.01 c -0,0.008 0,0.013 0,0.02 0,0.003 0,0.016 0,0.02 v 0.01 0.01 0.01 0.01 0.01 0.01 l -0.01,0.01 v 0.01 h 0.01 v 0.01 h -0.01 v 0.01 0.01 0.01 c -0,0.007 0.001,0.013 0,0.02 -0.001,0.014 0.001,0.026 0,0.04 v 0.01 0.01 c 0,0.004 -0,0.016 0,0.02 v 0.01 0.01 0.01 c -0,0.01 -0,0.021 0,0.03 v 0.01 c -0,0.005 0,0.015 0,0.02 v 0.01 l -0.01,0.01 v 0.01 0.01 0.01 0.01 0.01 0.01 c 0,0.004 -0,0.026 0,0.03 v 0.01 0.01 0.01 0.01 0.01 c -0,0.016 0.001,0.025 0,0.04 l -0.01,0.01 v 0.01 0.01 0.01 0.01 0.01 0.01 0.01 c -0.001,0.008 0.001,0.022 0,0.03 v 0.01 0.01 0.01 c -0.001,0.004 0,0.026 0,0.03 v 0.01 0.01 0.01 c 0.001,0.006 -0.001,0.023 0,0.03 l 0.01,0.01 v 0.01 l 0.01,0.01 v 0.01 0.01 h 0.01 v 0.01 l 0.01,0.01 h 0.01 c 0.006,0.004 0.014,0.017 0.02,0.02 h 0.01 0.01 l 0.01,0.01 h 0.01 0.01 0.01 0.01 0.01 0.01 0.01 0.01 l 0.01,-0.01 h 0.01 c 0.014,-0.005 0.027,-0.015 0.04,-0.02 h 0.01 0.01 v -0.01 h 0.01 0.01 v -0.01 h 0.01 0.01 v -0.01 h 0.01 l 0.01,-0.01 h 0.01 0.01 v -0.01 h 0.01 l 0.01,-0.01 h 0.01 v -0.01 h 0.01 v -0.01 h 0.01 v -0.01 h 0.01 0.01 v -0.01 l 0.01,-0.01 0.01,-0.01 v -0.01 h -0.01 v -0.01 -0.01 h 0.01 v -0.01 h 0.01 v -0.01 -0.01 -0.01 h 0.01 v -0.01 l 0.01,-0.01 V 11.308 h 0.01 v -0.01 -0.01 h 0.01 v -0.01 h 0.01 v -0.01 h -0.01 v -0.01 l -0.01,-0.01 v -0.01 -0.01 -0.01 l 0.01,0.01 v -0.01 -0.01 -0.01 h -0.01 v -0.01 l 0.01,-0.01 v -0.01 -0.01 -0.01 h 0.01 v -0.01 h 0.01 v -0.01 h -0.01 v -0.01 h -0.01 l -0.01,-0.01 v -0.01 h 0.01 0.01 v -0.01 h -0.01 -0.01 v -0.01 -0.01 -0.01 h 0.01 v -0.01 h -0.01 v -0.01 h 0.01 0.01 v -0.01 -0.01 h -0.01 v 0.01 h -0.01 v -0.01 -0.01 -0.01 -0.01 -0.01 -0.01 c -0,-0.006 -0,-0.025 0,-0.03 0,-0.009 0,-0.021 0,-0.03 v -0.01 -0.01 -0.01 -0.01 -0.01 h 0.01 0.01 v -0.01 h -0.01 v -0.01 h -0.01 v -0.01 h 0.01 v -0.01 -0.01 h 0.01 v -0.01 h -0.01 v -0.01 -0.01 h 0.01 v 0.01 0.01 h 0.01 l 0.01,-0.01 h 0.01 v -0.01 h -0.01 v -0.01 -0.01 -0.01 h -0.01 v -0.01 h 0.01 v -0.01 -0.01 h -0.01 v -0.01 h -0.01 v -0.01 h -0.01 v -0.01 -0.01 -0.01 h 0.01 0.01 v -0.01 h -0.01 v -0.01 h 0.01 0.01 v -0.01 h -0.01 v -0.01 h 0.01 0.01 v -0.01 h 0.01 v -0.01 -0.01 h -0.01 v -0.01 l -0.01,-0.01 V 10.56 v -0.01 -0.01 -0.01 -0.01 h -0.01 v -0.01 h 0.01 v -0.01 h 0.01 0.01 0.01 v -0.01 h -0.01 v -0.01 h 0.01 v -0.01 h -0.01 v -0.01 h 0.01 v -0.01 h -0.01 -0.01 v -0.01 -0.01 h 0.01 v -0.01 -0.01 h 0.01 v 0.01 h 0.01 l 0.01,-0.01 v -0.01 h -0.01 -0.01 v -0.01 h 0.01 v -0.01 h 0.01 v -0.01 -0.01 -0.01 c 0,-0.006 0,-0.014 0,-0.02 v -0.01 -0.01 -0.01 -0.01 l 0.01,0.01 v -0.01 -0.01 h 0.01 v -0.01 -0.01 c 0.001,-0.005 0.009,-0.015 0.01,-0.02 v -0.01 -0.01 -0.01 h 0.01 l 0.01,-0.01 0.01,-0.01 h 0.01 v -0.01 -0.01 -0.01 h 0.01 v -0.01 h 0.01 v -0.01 c 0.004,-0.004 0.016,-0.016 0.02,-0.02 h 0.01 l 0.01,-0.01 h 0.01 v -0.01 h 0.01 v -0.01 c 0.001,-0.005 -0.001,-0.015 0,-0.02 h 0.01 l 0.01,-0.01 v -0.01 -0.01 h 0.01 v -0.01 h 0.01 v -0.01 h 0.01 0.01 l 0.01,-0.01 v -0.01 h 0.01 v -0.01 h 0.01 0.01 v -0.01 h 0.01 l 0.01,-0.01 h 0.01 0.01 v -0.01 h 0.01 l 0.01,-0.01 h 0.01 0.01 0.01 0.01 0.01 0.01 l 0.01,0.01 h 0.01 0.01 v -0.01 h 0.01 v 0.01 h 0.01 0.01 l 0.01,0.01 v 0.01 h 0.01 v 0.01 h 0.01 v 0.01 0.01 h 0.01 v 0.01 0.01 0.01 c 0.002,0.023 0,0.038 0,0.061 0,0.026 -0.002,0.056 0,0.081 v 0.01 0.01 0.01 0.01 0.01 0.01 0.01 c -0.001,0.006 0.001,0.016 0,0.02 v 0.01 0.01 0.01 c -0.003,0.023 0.001,0.047 0,0.071 v 0.01 c 0,0.009 0.001,0.022 0,0.03 h -0.01 v 0.01 0.01 l -0.01,0.01 v 0.01 h 0.01 v 0.01 0.01 h -0.01 v 0.01 0.01 0.01 0.01 0.01 h 0.01 v 0.01 0.01 0.01 l -0.01,0.01 v 0.01 0.01 0.01 c -0.001,0.008 0.001,0.024 0,0.03 l -0.01,0.01 v 0.01 0.01 h 0.01 v 0.01 0.01 0.01 l 0.01,0.01 v 0.01 l -0.01,0.01 v 0.01 0.01 0.01 c 0,0.006 -0,0.015 0,0.02 0.001,0.012 0.001,0.018 0,0.03 -0,0.005 0,0.015 0,0.02 v 0.01 h -0.01 v 0.01 0.01 0.01 l -0.01,0.01 0.01,0.01 v 0.01 0.01 0.01 0.01 0.01 0.01 0.01 c -0,0.005 0.001,0.015 0,0.02 -0.002,0.022 -0.002,0.039 0,0.061 0.001,0.011 0,0.029 0,0.04 v 0.01 c 0.001,0.005 0.009,0.015 0.01,0.02 v 0.01 0.01 0.01 h 0.01 v 0.01 h 0.01 v 0.01 0.01 l 0.01,0.01 v 0.01 l 0.01,0.01 h 0.01 v 0.01 h 0.01 l 0.01,0.01 0.01,0.01 h 0.01 l 0.01,0.01 h 0.01 v 0.01 0.01 0.01 h -0.01 l -0.01,0.01 h -0.01 v 0.01 h -0.01 c -0.005,0.003 -0.025,0.017 -0.03,0.02 h -0.01 l -0.01,0.01 h -0.01 l -0.01,0.01 -0.01,0.01 h -0.01 v 0.01 h -0.01 v 0.01 h -0.01 -0.01 v 0.01 h -0.01 c -0.011,0.005 -0.018,0.014 -0.03,0.02 -0.018,0.009 -0.033,0.011 -0.051,0.02 -0.039,0.022 -0.081,0.051 -0.121,0.071 l -0.01,0.01 h -0.01 l -0.01,0.01 h -0.01 l -0.01,0.01 -0.01,0.01 c -0.014,0.008 -0.036,0.013 -0.051,0.02 l -0.01,0.01 h -0.01 v 0.01 h -0.01 -0.01 v 0.01 c -0.011,0.008 -0.029,0.013 -0.04,0.02 h -0.01 l -0.01,0.01 -0.01,0.01 h -0.01 -0.01 v 0.01 h -0.01 -0.01 l -0.01,0.01 -0.01,0.01 c -0.004,0.003 -0.015,0.008 -0.02,0.01 -0.013,0.007 -0.038,0.022 -0.051,0.03 v 0.01 h -0.01 -0.01 -0.01 v 0.01 h -0.01 c -0.019,0.01 -0.042,0.02 -0.061,0.03 -0.009,0.005 -0.031,0.026 -0.04,0.03 -0.005,0.003 -0.016,-0.003 -0.02,0 -0.009,0.006 -0.011,0.014 -0.02,0.02 l -0.01,0.01 h -0.01 v 0.01 h -0.01 -0.01 l -0.01,0.01 c -0.008,0.004 -0.022,0.006 -0.03,0.01 l -0.01,0.01 h -0.01 -0.01 v 0.01 l -0.01,0.01 h -0.01 v 0.01 h -0.01 -0.01 l -0.01,0.01 h -0.01 v 0.01 c -0.019,0.01 -0.042,0.019 -0.061,0.03 -0.006,0.004 -0.014,0.006 -0.02,0.01 v 0.01 h -0.01 -0.01 v 0.01 h -0.01 l -0.01,0.01 -0.01,0.01 h -0.01 l -0.01,0.01 h -0.01 -0.01 v 0.01 h -0.01 l -0.01,0.01 h -0.01 v 0.01 h -0.01 -0.01 v 0.01 h -0.01 v 0.01 h -0.01 -0.01 v 0.01 h -0.01 -0.01 -0.01 -0.01 v 0.01 h -0.01 v 0.01 h -0.01 v 0.01 h -0.01 -0.01 l -0.01,0.01 -0.01,0.01 -0.01,0.01 h -0.01 -0.01 l -0.01,0.01 c -0.009,0.004 -0.022,0.006 -0.03,0.01 l -0.01,0.01 c -0.005,0.003 -0.016,0.007 -0.02,0.01 h -0.01 v 0.01 h -0.01 l -0.01,0.01 h -0.01 v 0.01 h -0.01 l -0.01,0.01 c -0.004,0.003 -0.016,0.007 -0.02,0.01 l -0.01,0.01 c -0.007,0.003 -0.013,0.008 -0.02,0.01 h -0.01 -0.01 v 0.01 c -0.008,0.007 -0.012,0.014 -0.02,0.02 h -0.01 -0.01 v 0.01 h -0.01 -0.01 v 0.01 h -0.01 l -0.01,0.01 h -0.01 l -0.01,0.01 c -0.005,0.004 -0.015,0.007 -0.02,0.01 l -0.01,0.01 v 0.01 h -0.01 -0.01 c -0.017,0.01 -0.033,0.032 -0.051,0.04 -0.025,0.012 -0.048,0.026 -0.071,0.04 -0.042,0.027 -0.079,0.054 -0.121,0.081 -0.026,0.016 -0.057,0.031 -0.081,0.051 h -0.01 v 0.01 h -0.01 -0.01 l -0.01,0.01 h -0.01 v 0.01 h -0.01 -0.01 l -0.01,0.01 -0.01,0.01 h -0.01 l -0.01,0.01 h -0.01 v 0.01 h -0.01 l -0.01,0.01 -0.01,0.01 h -0.01 -0.01 v 0.01 h -0.01 l -0.01,0.01 -0.01,0.01 h -0.01 v 0.01 h -0.01 v 0.01 h -0.01 v 0.01 h -0.01 l -0.01,0.01 h -0.01 v -0.01 h -0.01 c -0.001,-0.004 0.001,-0.017 0,-0.02 v -0.01 -0.01 l 0.01,-0.01 v -0.01 h -0.01 c 0.001,-0.004 0.009,-0.015 0.01,-0.02 v -0.01 l -0.01,-0.01 v -0.01 -0.01 h 0.01 v -0.01 l -0.01,-0.01 v -0.01 -0.01 c 0.001,-0.005 0.009,-0.015 0.01,-0.02 v -0.01 -0.01 -0.01 -0.01 -0.01 -0.01 h 0.01 v -0.01 -0.01 -0.01 l -0.01,-0.01 v -0.01 l 0.01,-0.01 v -0.01 h -0.01 v -0.01 -0.01 -0.01 -0.01 h 0.01 v -0.01 h -0.01 V 12.288 h 0.01 v -0.01 -0.01 h 0.01 v -0.01 h -0.01 v -0.01 -0.01 -0.01 -0.01 -0.01 h -0.01 v -0.01 c -0.001,-0.007 0,-0.013 0,-0.02 0,-0.007 -0,-0.013 0,-0.02 v -0.01 h 0.01 v -0.01 h -0.01 v -0.01 c 0.001,-0.006 0.009,-0.014 0.01,-0.02 0.002,-0.015 0.001,-0.026 0,-0.04 v -0.01 -0.01 -0.01 h 0.01 v -0.01 h -0.01 v -0.01 -0.01 -0.01 -0.01 -0.01 h 0.01 v -0.01 -0.01 -0.01 -0.01 -0.01 -0.01 -0.01 h 0.01 v -0.01 l -0.01,-0.01 v -0.01 l 0.01,-0.01 c 0.001,-0.008 -0,-0.013 0,-0.02 0.001,-0.015 -0.002,-0.036 0,-0.051 0.001,-0.007 -0,-0.013 0,-0.02 v -0.01 h 0.01 v -0.01 -0.01 -0.01 -0.01 c 0,-0.005 0,-0.015 0,-0.02 0,-0.01 -0.001,-0.021 0,-0.03 v -0.01 -0.01 h 0.01 c 0.001,-0.032 -0.002,-0.069 0,-0.101 0.002,-0.029 0.009,-0.052 0.01,-0.081 v -0.01 -0.01 -0.01 c 0.001,-0.008 -0.001,-0.013 0,-0.02 0.001,-0.015 -0.001,-0.035 0,-0.051 v -0.01 l 0.01,-0.01 v -0.01 h -0.01 v -0.01 h 0.01 v -0.01 -0.01 -0.01 -0.01 -0.01 -0.01 c 0.001,-0.013 -0.001,-0.027 0,-0.04 h 0.01 v -0.01 -0.01 -0.01 -0.01 -0.01 h 0.01 v -0.01 h -0.01 v -0.01 h 0.01 v -0.01 -0.01 h 0.01 v -0.01 -0.01 -0.01 -0.01 h -0.01 v -0.01 h 0.01 v -0.01 h -0.01 v -0.01 -0.01 l 0.01,-0.01 v -0.01 -0.01 h -0.01 v -0.01 h 0.01 v -0.01 l -0.01,-0.01 v -0.01 c 0,-0.005 -0,-0.025 0,-0.03 h 0.01 v -0.01 h 0.01 v -0.01 h -0.01 v -0.01 -0.01 -0.01 -0.01 h 0.01 v -0.01 -0.01 h -0.01 v -0.01 -0.01 -0.01 -0.01 -0.01 -0.01 -0.01 -0.01 -0.01 -0.01 -0.01 -0.01 h 0.01 v -0.01 h -0.01 v -0.01 h 0.01 0.01 v -0.01 h -0.01 -0.01 v -0.01 -0.01 -0.01 h -0.01 l -0.01,-0.01 v -0.01 h -0.01 v -0.01 h -0.01 v -0.01 l -0.01,-0.01 h -0.01 v -0.01 h -0.01 c -0.01,-0.004 -0.02,-0.006 -0.03,-0.01 -0.006,-0.002 -0.024,-0.008 -0.03,-0.01 -0.007,0 -0.024,-0 -0.03,0 h -0.01 -0.01 -0.01 c -0.012,-0 -0.039,-0.003 -0.051,0 l -0.01,0.01 h -0.01 l -0.01,0.01 h -0.01 -0.01 -0.01 v 0.01 h -0.01 -0.01 v 0.01 h -0.01 v 0.01 h -0.01 l -0.01,0.01 h -0.01 v 0.01 l -0.01,0.01 -0.01,0.01 h -0.01 v 0.01 0.01 h -0.01 v 0.01 0.01 h -0.01 v 0.01 l -0.01,0.01 v 0.01 0.01 l -0.01,0.01 v 0.01 0.01 0.01 0.01 0.01 l -0.01,0.01 v 0.01 0.01 0.01 0.01 0.01 c -0.002,0.011 0.001,0.019 0,0.03 -0,0.006 -0.009,0.024 -0.01,0.03 v 0.01 l 0.01,0.01 v 0.01 l -0.01,0.01 v 0.01 0.01 0.01 0.01 0.01 0.01 0.01 0.01 0.01 0.01 c -0,0.005 0.001,0.015 0,0.02 h -0.01 v 0.01 0.01 c -0,0.005 0,0.015 0,0.02 -0.002,0.012 -0.001,0.028 0,0.04 v 0.01 c -0,0.005 0.001,0.014 0,0.02 v 0.01 l -0.01,0.01 v 0.01 l 0.01,0.01 v 0.01 h -0.01 v 0.01 c -0,0.006 0.001,0.024 0,0.03 v 0.01 0.01 0.01 0.01 0.01 h -0.01 v 0.01 0.01 c -0,0.011 -0,0.021 0,0.03 0,0.005 0,0.015 0,0.02 v 0.01 0.01 0.01 l -0.01,0.01 0.01,0.01 v 0.01 h -0.01 -0.01 v 0.01 0.01 h 0.01 v 0.01 0.01 0.01 0.01 h -0.01 v 0.01 0.01 l 0.01,0.01 v 0.01 0.01 l -0.01,0.01 v 0.01 c -0,0.006 0.001,0.014 0,0.02 -0.001,0.012 0,0.028 0,0.04 v 0.01 0.01 h -0.01 v 0.01 0.01 c -0.001,0.005 0,0.015 0,0.02 v 0.01 0.01 0.01 0.01 h -0.01 v 0.01 0.01 0.01 0.01 0.01 0.01 0.01 c -0.001,0.009 -0.009,0.021 -0.01,0.03 -0.002,0.013 0.001,0.038 0,0.051 v 0.01 0.01 h -0.01 v 0.01 0.01 c -0,0.006 0.001,0.014 0,0.02 -0.001,0.005 -0.009,0.025 -0.01,0.03 -0.001,0.022 -0.005,0.05 -0.01,0.071 v 0.01 0.01 0.01 l -0.01,0.01 c -0.001,0.005 0.001,0.015 0,0.02 -0.007,0.03 -0.026,0.065 -0.04,0.091 -0.003,0.004 0.003,0.016 0,0.02 -0.005,0.007 -0.015,0.004 -0.02,0.01 -0.01,0.012 -0.021,0.028 -0.03,0.04 l -0.01,0.01 h -0.01 v 0.01 h -0.01 v 0.01 h -0.01 l -0.01,0.01 h -0.01 v 0.01 h -0.01 -0.01 l -0.01,0.01 h -0.01 -0.01 v 0.01 h -0.01 -0.01 l -0.01,0.01 c -0.009,0.002 -0.022,-0.002 -0.03,0 h -0.01 c -0.005,0 -0.015,-0 -0.02,0 h -0.01 -0.01 -0.01 -0.01 v -0.01 h -0.01 l -0.01,-0.01 -0.01,-0.01 h -0.01 v -0.01 l -0.01,-0.01 v -0.01 h -0.01 v -0.01 -0.01 -0.01 h -0.01 v -0.01 c -0.008,-0.02 -0.008,-0.039 -0.01,-0.061 -0.001,-0.011 -0.01,-0.03 -0.01,-0.04 v -0.01 l 0.01,-0.01 v -0.01 l -0.01,-0.01 v -0.01 h 0.01 v -0.01 -0.01 h -0.01 v -0.01 -0.01 -0.01 -0.01 -0.01 h 0.01 v -0.01 -0.01 -0.01 -0.01 -0.01 -0.01 c 0.001,-0.016 -0.003,-0.045 0,-0.061 h 0.01 v -0.01 -0.01 c 0.001,-0.005 0,-0.014 0,-0.02 v -0.01 -0.01 -0.01 -0.01 -0.01 l 0.01,-0.01 v -0.01 l 0.01,-0.01 v -0.01 -0.01 -0.01 -0.01 l -0.01,-0.01 v -0.01 -0.01 h -0.01 v -0.01 -0.01 -0.01 -0.01 h 0.01 v -0.01 -0.01 c -0.001,-0.011 -0,-0.028 0,-0.03 v -0.01 -0.01 l 0.01,-0.01 v -0.01 l 0.01,-0.01 v -0.01 -0.01 -0.01 l 0.01,-0.01 v -0.01 -0.01 l 0.01,-0.01 v -0.01 -0.01 -0.01 c 0.002,-0.006 0.008,-0.014 0.01,-0.02 v -0.01 c 0.002,-0.005 0.008,-0.016 0.01,-0.02 l 0.01,-0.01 h 0.01 v -0.01 -0.01 -0.01 l 0.01,-0.01 v -0.01 -0.01 -0.01 -0.01 h 0.01 v -0.01 -0.01 h 0.01 v -0.01 h 0.01 v -0.01 -0.01 -0.01 h 0.01 0.01 v -0.01 -0.01 -0.01 h 0.01 v -0.01 -0.01 h 0.01 v -0.01 l 0.01,-0.01 h 0.01 v -0.01 h 0.01 v -0.01 -0.01 -0.01 l 0.01,-0.01 0.01,-0.01 0.01,-0.01 v -0.01 h 0.01 0.01 v -0.01 h 0.01 v -0.01 h 0.01 0.01 v -0.01 -0.01 l 0.01,-0.01 v -0.01 h 0.01 v -0.01 -0.01 h 0.01 v -0.01 l 0.01,-0.01 h 0.01 v -0.01 h -0.01 v -0.01 h 0.01 v -0.01 -0.01 -0.01 l 0.01,-0.01 v -0.01 -0.01 h 0.01 v -0.01 h -0.01 v -0.01 -0.01 -0.01 h 0.01 v -0.01 -0.01 -0.01 -0.01 -0.01 -0.01 l -0.01,0.01 v -0.01 -0.01 -0.01 l -0.01,-0.01 -0.01,-0.01 h -0.01 -0.01 -0.01 l -0.01,-0.01 h -0.01 -0.01 c -0.005,-0.001 -0.015,-0.01 -0.02,-0.01 v 0.01 h -0.01 -0.01 -0.01 -0.01 -0.01 v 0.01 h -0.01 -0.01 -0.01 -0.01 v 0.01 h -0.01 -0.01 l -0.01,0.01 h -0.01 -0.01 l -0.01,0.01 h -0.01 -0.01 v 0.01 h -0.01 v 0.01 h -0.01 -0.01 v 0.01 h -0.01 v 0.01 h -0.01 l -0.01,0.01 h -0.01 v 0.01 h -0.01 -0.01 v 0.01 h -0.01 v 0.01 h -0.01 c -0.007,0.006 -0.024,0.014 -0.03,0.02 -0.007,0.006 -0.023,0.025 -0.03,0.03 h -0.01 v 0.01 l -0.01,0.01 -0.01,0.01 v 0.01 h -0.01 v 0.01 h -0.01 v 0.01 l -0.01,0.01 -0.01,0.01 v 0.01 h -0.01 v 0.01 h -0.01 v 0.01 l -0.01,0.01 v 0.01 h -0.01 v 0.01 l -0.01,0.01 v 0.01 h -0.01 v 0.01 0.01 h -0.01 v 0.01 h -0.01 v 0.01 h -0.01 v 0.01 0.01 h -0.01 v 0.01 0.01 h -0.01 v 0.01 l -0.01,0.01 v 0.01 h -0.01 v 0.01 0.01 h -0.01 v 0.01 0.01 h -0.01 v 0.01 0.01 l -0.01,0.01 c -0.004,0.01 -0.007,0.02 -0.01,0.03 v 0.01 l -0.01,0.01 v 0.01 0.01 h -0.01 v 0.01 0.01 l -0.01,0.01 v 0.01 0.01 0.01 l -0.01,0.01 v 0.01 0.01 c -0.001,0.005 -0.008,0.016 -0.01,0.02 v 0.01 0.01 l -0.01,0.01 c -0.003,0.009 0.002,0.011 0,0.02 -0.005,0.018 -0.007,0.043 -0.01,0.061 -0.001,0.009 -0.008,0.012 -0.01,0.02 v 0.01 0.01 0.01 c -0.002,0.005 0.001,0.016 0,0.02 l -0.01,0.01 v 0.01 0.01 0.01 0.01 l -0.01,0.01 v 0.01 0.01 0.01 0.01 0.01 0.01 c -0,0.005 0.001,0.015 0,0.02 -0.002,0.016 -0.009,0.045 -0.01,0.061 -0.003,0.021 0,0.049 0,0.071 0,0.007 0,0.013 0,0.02 v 0.01 h -0.01 v 0.01 0.01 0.01 l -0.01,0.01 v 0.01 0.01 0.01 0.01 h 0.01 v 0.01 l -0.01,0.01 v 0.01 0.01 l 0.01,0.01 v 0.01 0.01 c 0,0.028 -0.001,0.063 0,0.091 0.001,0.023 0.001,0.039 0,0.061 v 0.01 0.01 0.01 0.01 0.01 0.01 c -0.003,0.024 0.001,0.053 0,0.081 v 0.01 c 0,0.005 -0.001,0.015 0,0.02 v 0.01 0.01 0.01 0.01 0.01 0.01 l 0.01,0.01 c 0.005,0.017 0.007,0.033 0.01,0.051 v 0.01 0.01 0.01 l 0.01,0.01 v 0.01 l 0.01,0.01 v 0.01 0.01 0.01 h 0.01 v 0.01 0.01 h 0.01 v 0.01 0.01 h 0.01 v 0.01 h 0.01 v 0.01 c 0.005,0.005 0.016,0.015 0.02,0.02 l 0.01,0.01 h 0.01 v 0.01 l 0.01,0.01 h 0.01 l 0.01,0.01 c 0.007,0.005 0.014,0.007 0.02,0.01 h 0.01 c 0.005,0.002 0.015,0.008 0.02,0.01 h 0.01 v 0.01 0.01 h 0.01 v -0.01 h 0.01 l 0.01,0.01 h 0.01 0.01 0.01 l 0.01,0.01 c 0.006,0.001 0.015,-0.001 0.02,0 h 0.01 0.01 0.01 0.01 0.01 0.01 0.01 0.01 0.01 0.01 0.01 l 0.01,-0.01 h 0.01 0.01 0.01 0.01 c 0.013,-0.003 0.027,-0.008 0.04,-0.01 h 0.01 l 0.01,-0.01 h 0.01 0.01 l 0.01,0.01 h 0.01 0.01 0.01 0.01 v -0.01 h -0.01 -0.01 v -0.01 h 0.01 0.01 0.01 v -0.01 h 0.01 0.01 v -0.01 h 0.01 0.01 v -0.01 h 0.01 0.01 0.01 0.01 0.01 l 0.01,-0.01 h 0.01 v -0.01 h 0.01 v -0.01 h 0.01 0.01 v -0.01 h 0.01 v -0.01 h 0.01 0.01 0.01 v -0.01 -0.01 h 0.01 0.01 v -0.01 h 0.01 l 0.01,-0.01 h 0.01 v -0.01 h 0.01 v -0.01 h 0.01 0.01 0.01 v 0.01 h 0.01 v 0.01 0.01 c 0.001,0.014 -0.002,0.028 0,0.04 v 0.01 0.01 h -0.01 v 0.01 h 0.01 v 0.01 0.01 0.01 0.01 0.01 0.01 0.01 0.01 0.01 0.01 0.01 0.01 0.01 0.01 h -0.01 v 0.01 0.01 l -0.01,0.01 h -0.01 v 0.01 h -0.01 l -0.01,0.01 h -0.01 l -0.01,0.01 h -0.01 v 0.01 l -0.01,0.01 c -0.009,0.007 -0.021,0.014 -0.03,0.02 l -0.01,0.01 -0.01,0.01 h -0.01 -0.01 v 0.01 h -0.01 v 0.01 h -0.01 l -0.01,0.01 c -0.018,0.011 -0.033,0.019 -0.051,0.03 -0.009,0.006 -0.021,0.014 -0.03,0.02 v 0.01 h -0.01 l -0.01,0.01 -0.01,0.01 h -0.01 c -0.005,0.004 -0.005,0.016 -0.01,0.02 -0.018,0.013 -0.033,0.017 -0.051,0.03 -0.015,0.011 -0.036,0.039 -0.051,0.051 h -0.01 l -0.01,0.01 h -0.01 c -0.006,0.004 -0.025,0.026 -0.03,0.03 l -0.01,0.01 h -0.01 v 0.01 h -0.01 l -0.01,0.01 -0.01,0.01 c -0.004,0.002 -0.015,0.008 -0.02,0.01 h -0.01 v 0.01 h -0.01 v 0.01 h -0.01 l -0.01,0.01 c -0.003,0.003 -0.017,0.007 -0.02,0.01 v 0.01 h -0.01 v 0.01 h -0.01 -0.01 v 0.01 h -0.01 l -0.01,0.01 h -0.01 v 0.01 h -0.01 v 0.01 h -0.01 -0.01 v 0.01 h -0.01 v 0.01 h -0.01 v 0.01 h -0.01 l -0.01,0.01 h -0.01 v 0.01 h -0.01 -0.01 c -0.008,0.008 -0.013,0.023 -0.02,0.03 -0.01,0.009 -0.028,0.013 -0.04,0.02 -0.006,0.003 -0.024,0.016 -0.03,0.02 l -0.01,0.01 h -0.01 v 0.01 l -0.01,0.01 h -0.01 v 0.01 h -0.01 l -0.01,0.01 -0.01,0.01 h -0.01 v 0.01 h -0.01 l -0.01,0.01 h -0.01 v 0.01 h -0.01 l -0.01,0.01 -0.01,0.01 h -0.01 v 0.01 h -0.01 v 0.01 h -0.01 -0.01 v 0.01 h -0.01 v 0.01 h -0.01 l -0.01,0.01 h -0.01 v 0.01 h -0.01 v 0.01 h -0.01 c -0.008,0.005 -0.012,0.015 -0.02,0.02 h -0.01 l -0.01,0.01 h -0.01 v 0.01 h -0.01 -0.01 v 0.01 h -0.01 v 0.01 h -0.01 v 0.01 h -0.01 l -0.01,0.01 h -0.01 v 0.01 0.01 h -0.01 l -0.01,0.01 -0.01,0.01 h -0.01 v 0.01 h -0.01 l -0.01,0.01 h -0.01 v 0.01 h -0.01 v 0.01 h -0.01 c -0.007,0.007 -0.013,0.013 -0.02,0.02 l -0.01,0.01 h -0.01 v 0.01 c -0.008,0.006 -0.023,0.014 -0.03,0.02 l -0.01,0.01 -0.01,0.01 h -0.01 v 0.01 h -0.01 v 0.01 h -0.01 l -0.01,0.01 c -0.005,0.004 -0.026,0.016 -0.03,0.02 l -0.01,0.01 c -0.019,0.014 -0.042,0.036 -0.061,0.051 l -0.01,0.01 -0.01,0.01 h -0.01 v 0.01 h -0.01 l -0.01,0.01 c -0.015,0.014 -0.036,0.027 -0.051,0.04 -0.014,0.012 -0.027,0.028 -0.04,0.04 h -0.01 l -0.01,0.01 -0.01,0.01 h -0.01 v 0.01 h -0.01 v 0.01 h -0.01 v 0.01 h -0.01 v 0.01 h -0.01 c -0.008,0.006 -0.026,0.017 -0.03,0.02 l -0.01,0.01 v 0.01 h -0.01 -0.01 v 0.01 h -0.01 l -0.01,0.01 v 0.01 h -0.01 l -0.01,0.01 v 0.01 c -0.004,0.004 -0.015,0.007 -0.02,0.01 -0.02,0.014 -0.031,0.035 -0.051,0.051 h -0.01 -0.01 v 0.01 l -0.01,0.01 h -0.01 v 0.01 h -0.01 v 0.01 h -0.01 c -0.008,0.007 -0.012,0.013 -0.02,0.02 -0.009,0.007 -0.032,0.033 -0.04,0.04 -0.005,0.004 -0.015,0.007 -0.02,0.01 h -0.01 v 0.01 c -0.005,0.005 -0.025,0.025 -0.03,0.03 l -0.01,0.01 h -0.01 l -0.01,0.01 h -0.01 v 0.01 h -0.01 v 0.01 h -0.01 v 0.01 h -0.01 v 0.01 c -0.005,0.004 -0.025,0.016 -0.03,0.02 h -0.01 v 0.01 h -0.01 v 0.01 c -0.005,0.004 -0.016,0.006 -0.02,0.01 l -0.01,0.01 -0.01,0.01 h -0.01 v 0.01 h -0.01 c -0.005,0.005 -0.005,0.016 -0.01,0.02 h -0.01 -0.01 v 0.01 h -0.01 v 0.01 c -0.009,0.008 -0.021,0.013 -0.03,0.02 -0.005,0.004 -0.016,0.016 -0.02,0.02 l -0.01,0.01 c -0.019,0.014 -0.033,0.024 -0.051,0.04 -0.009,0.009 -0.012,0.012 -0.02,0.02 l -0.01,0.01 -0.01,0.01 h -0.01 v 0.01 h -0.01 v 0.01 0.01 h -0.01 -0.01 l -0.01,0.01 v 0.01 h -0.01 l -0.01,0.01 c -0.004,0.003 -0.016,0.007 -0.02,0.01 v 0.01 l -0.01,0.01 h -0.01 v 0.01 h -0.01 v 0.01 l -0.01,0.01 h -0.01 c -0.008,0.006 -0.013,0.014 -0.02,0.02 -0.018,0.016 -0.035,0.033 -0.051,0.051 l -0.01,0.01 v 0.01 h -0.01 l -0.01,0.01 c -0.009,0.009 -0.011,0.012 -0.02,0.02 -0.013,0.011 -0.038,0.039 -0.051,0.051 l -0.01,0.01 c -0.013,0.012 -0.038,0.028 -0.051,0.04 l -0.01,0.01 v 0.01 h -0.01 v 0.01 h -0.01 l -0.01,0.01 -0.01,0.01 h -0.01 c -0.003,0.004 -0.007,0.016 -0.01,0.02 -0.008,0.008 -0.013,0.012 -0.02,0.02 -0.015,0.014 -0.035,0.026 -0.051,0.04 -0.016,0.015 -0.024,0.036 -0.04,0.051 -0.02,0.017 -0.041,0.032 -0.061,0.051 -0.01,0.009 -0.012,0.021 -0.02,0.03 -0.004,0.004 -0.016,0.016 -0.02,0.02 l -0.01,0.01 -0.01,0.01 c -0.011,0.015 -0.018,0.027 -0.03,0.04 -0.013,0.014 -0.029,0.035 -0.04,0.051 -0.007,0.01 -0.013,0.021 -0.02,0.03 -0.007,0.009 -0.014,0.021 -0.02,0.03 l -0.01,0.01 v 0.01 0.01 0.01 0.01 l -0.01,0.01 c -0.002,0.007 0.001,0.017 0,0.02 v 0.01 0.01 l 0.01,0.01 v 0.01 0.01 0.01 0.01 0.01 l 0.01,0.01 v 0.01 0.01 l 0.01,0.01 v 0.01 0.01 h 0.01 v 0.01 h 0.01 v 0.01 0.01 l 0.01,0.01 0.01,0.01 h 0.01 v 0.01 h 0.01 v 0.01 c 0.004,0.002 0.026,0.008 0.03,0.01 l 0.01,0.01 0.01,0.01 h 0.01 0.01 0.01 v 0.01 h 0.01 0.01 0.01 c 0.005,0.001 0.015,0.009 0.02,0.01 h 0.01 0.01 0.01 0.01 0.01 0.01 0.01 0.01 0.01 0.01 0.01 0.01 0.01 0.01 v -0.01 h 0.01 v -0.01 h 0.01 0.01 v -0.01 h 0.01 0.01 v -0.01 -0.01 h 0.01 l 0.01,-0.01 0.01,-0.01 h 0.01 v -0.01 h 0.01 v -0.01 c 0.006,-0.007 0.015,-0.013 0.02,-0.02 l 0.01,-0.01 h 0.01 v -0.01 h 0.01 v -0.01 l 0.01,-0.01 h 0.01 l 0.01,-0.01 c 0.013,-0.01 0.019,-0.019 0.03,-0.03 h 0.01 v -0.01 -0.01 h 0.01 l 0.01,-0.01 v -0.01 h 0.01 v -0.01 h 0.01 v -0.01 h 0.01 l 0.01,-0.01 h 0.01 v -0.01 l 0.01,-0.01 0.01,-0.01 v -0.01 h 0.01 v -0.01 h 0.01 v -0.01 h 0.01 v -0.01 h 0.01 v -0.01 h 0.01 v -0.01 h 0.01 v -0.01 h 0.01 v -0.01 l 0.01,-0.01 0.01,-0.01 0.01,-0.01 0.01,-0.01 v -0.01 l 0.01,-0.01 v -0.01 h 0.01 v -0.01 h 0.01 v -0.01 h 0.01 v -0.01 h 0.01 v -0.01 h 0.01 v -0.01 h 0.01 v -0.01 h 0.01 l 0.01,-0.01 0.01,-0.01 0.01,-0.01 h 0.01 v -0.01 l 0.01,-0.01 0.01,-0.01 0.01,-0.01 v -0.01 h 0.01 0.01 v -0.01 l 0.01,-0.01 0.01,-0.01 v -0.01 h 0.01 v -0.01 h 0.01 l 0.01,-0.01 v -0.01 h 0.01 v -0.01 h 0.01 l 0.01,-0.01 0.01,-0.01 0.01,-0.01 0.01,-0.01 v -0.01 h 0.01 v -0.01 h 0.01 v -0.01 l 0.01,-0.01 v -0.01 h 0.01 l 0.01,-0.01 0.01,-0.01 h 0.01 v -0.01 h 0.01 v -0.01 c 0.005,-0.008 0.015,-0.011 0.02,-0.02 v -0.01 l 0.01,-0.01 0.01,-0.01 0.01,-0.01 h 0.01 v -0.01 l 0.01,-0.01 h 0.01 v -0.01 h 0.01 v -0.01 h 0.01 v -0.01 h 0.01 v -0.01 -0.01 h 0.01 0.01 v -0.01 -0.01 h 0.01 l 0.01,-0.01 0.01,-0.01 v -0.01 h 0.01 v -0.01 h 0.01 l 0.01,-0.01 v -0.01 h 0.01 l 0.01,-0.01 v -0.01 h 0.01 0.01 v -0.01 l 0.01,-0.01 h 0.01 v -0.01 h 0.01 c 0.006,-0.004 0.014,-0.006 0.02,-0.01 v -0.01 h 0.01 v -0.01 h 0.01 v -0.01 h 0.01 v -0.01 h 0.01 v -0.01 h 0.01 v -0.01 h 0.01 l 0.01,-0.01 c 0.006,-0.006 0.014,-0.014 0.02,-0.02 h 0.01 v -0.01 -0.01 c 0.006,-0.006 0.014,-0.014 0.02,-0.02 l 0.01,-0.01 h 0.01 v -0.01 l 0.01,-0.01 h 0.01 l 0.01,-0.01 0.01,-0.01 v -0.01 h 0.01 v -0.01 -0.01 h 0.01 l 0.01,-0.01 h 0.01 v -0.01 h 0.01 l 0.01,-0.01 v -0.01 h 0.01 v -0.01 h 0.01 0.01 v -0.01 h 0.01 v -0.01 h 0.01 v -0.01 h 0.01 v -0.01 l 0.01,-0.01 c 0.005,-0.003 0.015,-0.007 0.02,-0.01 h 0.01 v -0.01 h 0.01 v -0.01 h 0.01 l 0.01,-0.01 0.01,-0.01 h 0.01 v -0.01 h 0.01 l 0.01,-0.01 0.01,-0.01 0.01,-0.01 0.01,-0.01 h 0.01 v -0.01 h 0.01 c 0.008,-0.007 0.012,-0.014 0.02,-0.02 0.008,-0.006 0.023,-0.013 0.03,-0.02 0.013,-0.013 0.025,-0.03 0.04,-0.04 l 0.01,-0.01 c 0.005,-0.003 0.025,-0.017 0.03,-0.02 l 0.01,-0.01 h 0.01 v -0.01 l 0.01,-0.01 c 0.014,-0.012 0.026,-0.021 0.04,-0.03 l 0.01,-0.01 0.01,-0.01 h 0.01 v -0.01 h 0.01 0.01 v -0.01 l 0.01,-0.01 h 0.01 v -0.01 c 0.007,-0.005 0.013,-0.004 0.02,-0.01 0.004,-0.003 0.016,-0.017 0.02,-0.02 h 0.01 v -0.01 h 0.01 l 0.01,-0.01 0.01,-0.01 0.01,-0.01 h 0.01 v -0.01 l 0.01,-0.01 0.01,-0.01 h 0.01 l 0.01,-0.01 h 0.01 v -0.01 h 0.01 v -0.01 h 0.01 v -0.01 h 0.01 c 0.008,-0.006 0.023,-0.014 0.03,-0.02 l 0.01,-0.01 v -0.01 h 0.01 v -0.01 h 0.01 l 0.01,-0.01 v -0.01 h 0.01 l 0.01,-0.01 h 0.01 v -0.01 h 0.01 v -0.01 h 0.01 v -0.01 h 0.01 v -0.01 h 0.01 l 0.01,-0.01 c 0.016,-0.012 0.036,-0.027 0.051,-0.04 l 0.01,-0.01 h 0.01 c 0.007,-0.005 0.013,-0.015 0.02,-0.02 0.007,-0.006 0.013,-0.014 0.02,-0.02 h 0.01 v -0.01 h 0.01 v -0.01 h 0.01 0.01 v -0.01 h 0.01 v -0.01 h 0.01 c 0.008,-0.007 0.012,-0.013 0.02,-0.02 v -0.01 h 0.01 0.01 v -0.01 h 0.01 l 0.01,-0.01 h 0.01 v -0.01 h 0.01 v -0.01 l 0.01,-0.01 h 0.01 v -0.01 h 0.01 l 0.01,-0.01 h 0.01 v -0.01 h 0.01 l 0.01,-0.01 h 0.01 v -0.01 l 0.01,-0.01 0.01,-0.01 h 0.01 v -0.01 h 0.01 0.01 l 0.01,-0.01 0.01,-0.01 c 0.006,-0.005 0.014,-0.015 0.02,-0.02 h 0.01 v -0.01 h 0.01 v -0.01 h 0.01 l 0.01,-0.01 h 0.01 l 0.01,-0.01 v -0.01 h 0.01 v -0.01 h 0.01 l 0.01,-0.01 h 0.01 v -0.01 h 0.01 v -0.01 h 0.01 v -0.01 h 0.01 v -0.01 h 0.01 0.01 v -0.01 h 0.01 v -0.01 h 0.01 l 0.01,-0.01 0.01,-0.01 h 0.01 v -0.01 h 0.01 v -0.01 h 0.01 l 0.01,-0.01 h 0.01 v -0.01 h 0.01 l 0.01,-0.01 h 0.01 l 0.01,-0.01 0.01,-0.01 h 0.01 l 0.01,-0.01 0.01,-0.01 h 0.01 l 0.01,-0.01 h 0.01 0.01 v -0.01 h 0.01 v -0.01 h 0.01 v 0.01 0.01 0.01 0.01 0.01 0.01 0.01 0.01 0.01 0.01 l -0.01,0.01 v 0.01 h 0.01 c 0,0.005 0,0.025 0,0.03 -0.001,0.011 -0.011,0.03 -0.01,0.04 0.001,0.011 -0.001,0.019 0,0.03 l 0.01,0.01 v 0.01 0.01 h -0.01 v 0.01 l 0.01,0.01 v 0.01 h -0.01 v 0.01 0.01 h 0.01 v 0.01 0.01 h -0.01 v 0.01 0.01 0.01 0.01 c 0.001,0.005 0.01,0.025 0.01,0.03 v 0.01 0.01 l -0.01,0.01 0.01,0.01 v 0.01 c -0,0.006 -0,0.015 0,0.02 0,0.009 0,0.02 0,0.03 0,0.011 -0.001,0.019 0,0.03 v 0.01 l -0.01,0.01 v 0.01 0.01 0.01 l 0.01,0.01 v 0.01 c -0,0.006 0,0.015 0,0.02 -0,0.005 -0,0.025 0,0.03 v 0.01 0.01 0.01 0.01 l -0.01,0.01 v 0.01 c 0,0.009 0.01,0.022 0.01,0.03 v 0.01 h -0.01 v 0.01 0.01 0.01 0.01 l 0.01,0.01 v 0.01 h -0.01 v 0.01 0.01 0.01 0.01 0.01 h 0.01 v 0.01 l -0.01,0.01 v 0.01 0.01 0.01 0.01 h 0.01 v 0.01 0.01 h -0.01 v 0.01 0.01 c -0.001,0.01 -0,0.02 0,0.03 v 0.03 0.01 0.01 0.01 0.01 0.01 0.01 0.01 0.01 0.01 h 0.01 v 0.01 h -0.01 v 0.01 0.01 0.01 0.01 h -0.01 v 0.01 0.01 h 0.01 v 0.01 0.01 0.01 0.01 0.01 0.01 0.01 0.01 0.01 0.01 0.01 0.01 0.01 l -0.01,0.01 v 0.01 c 0,0.005 0,0.025 0,0.03 v 0.01 0.01 0.01 c 0.003,0.017 0.009,0.034 0.01,0.051 0,0.009 0,0.021 0,0.03 v 0.01 h -0.01 v 0.01 0.01 c -0,0.011 -0.001,0.029 0,0.04 v 0.01 0.01 0.01 0.01 c 0.001,0.005 0.01,0.015 0.01,0.02 v 0.01 0.01 h -0.01 v 0.01 0.01 h 0.01 v 0.01 0.01 l -0.01,0.01 c -0.001,0.005 0.001,0.015 0,0.02 v 0.01 0.01 0.01 c -0,0.005 0.001,0.015 0,0.02 v 0.01 0.04 c 0,0.011 0.001,0.02 0,0.03 -0.001,0.009 -0.01,0.02 -0.01,0.03 v 0.01 0.01 h 0.01 v 0.01 l -0.01,0.01 v 0.01 0.01 0.01 0.01 0.01 0.01 0.01 0.01 c -0.001,0.005 0.001,0.015 0,0.02 -0.001,0.009 -0.001,0.021 0,0.03 v 0.01 0.01 c -0,0.01 -0,0.021 0,0.03 v 0.01 0.01 h -0.01 v 0.01 h 0.01 v 0.01 c -0,0.006 0,0.017 0,0.02 0,0.011 -0.009,0.02 -0.01,0.03 v 0.01 h 0.01 v 0.01 h -0.01 v 0.01 0.01 0.01 0.01 0.01 0.01 c -0.001,0.007 0.001,0.013 0,0.02 v 0.01 0.01 0.01 0.01 0.01 0.01 0.01 0.01 c -0,0.007 0,0.023 0,0.03 v 0.01 0.01 0.01 0.01 0.01 0.01 0.01 0.01 0.01 0.01 c 0.001,0.007 -0,0.018 0,0.02 v 0.01 0.01 0.01 0.01 h 0.01 v 0.01 0.01 0.01 0.01 0.01 h 0.01 v 0.01 0.01 0.01 0.01 0.01 h 0.01 v 0.01 0.01 c 0.001,0.005 0.008,0.026 0.01,0.03 l 0.01,0.01 v 0.01 0.01 h 0.01 c 0.002,0.005 -0.002,0.016 0,0.02 l 0.01,0.01 0.01,0.01 v 0.01 h 0.01 v 0.01 h 0.01 v 0.01 l 0.01,0.01 h 0.01 l 0.01,0.01 h 0.01 l 0.01,0.01 0.01,0.01 c 0.004,0.002 0.016,-0.002 0.02,0 0.02,0.007 0.04,0.016 0.061,0.02 l 0.01,0.01 h 0.01 0.01 c 0.017,0.001 0.033,-0 0.051,0 0.009,0 0.031,0.001 0.04,0 h 0.01 l 0.01,-0.01 h 0.01 0.01 0.01 v -0.01 h 0.01 l 0.01,-0.01 c 0.024,-0.015 0.049,-0.033 0.071,-0.051 h 0.01 v -0.01 h 0.01 c 0.005,-0.008 0.014,-0.022 0.02,-0.03 v -0.01 -0.01 c 0.004,-0.007 0.007,-0.013 0.01,-0.02 l 0.01,-0.01 v -0.01 h 0.01 0.01 v -0.01 h 0.01 v -0.01 l -0.01,-0.01 h -0.01 -0.01 v -0.01 -0.01 h 0.01 v -0.01 -0.01 h 0.01 0.01 v -0.01 h -0.01 -0.01 v -0.01 h 0.01 0.01 v -0.01 h -0.01 v -0.01 h 0.01 l 0.01,-0.01 h 0.01 v -0.01 h -0.01 v -0.01 h -0.01 -0.01 -0.01 v -0.01 -0.01 -0.01 -0.01 h -0.01 -0.01 v -0.01 h -0.01 v -0.01 -0.01 h 0.01 0.01 v -0.01 -0.01 h -0.01 -0.01 v -0.01 h -0.01 v -0.01 h 0.01 v 0.01 h 0.01 0.01 v -0.01 h 0.01 v -0.01 -0.01 l 0.01,-0.01 h 0.01 v -0.01 h -0.01 -0.01 v -0.01 h -0.01 v -0.01 h -0.01 v -0.01 h 0.01 v 0.01 h 0.01 v -0.01 -0.01 h -0.01 v -0.01 h -0.01 -0.01 -0.01 -0.01 v -0.01 h -0.01 v -0.01 -0.01 -0.01 h -0.01 v -0.01 -0.01 h 0.01 v -0.01 l -0.01,-0.01 v -0.01 h 0.01 0.01 0.01 v -0.01 h -0.01 v -0.01 h 0.01 v -0.01 -0.01 l 0.01,-0.01 h 0.01 v -0.01 -0.01 -0.01 h -0.01 v -0.01 -0.01 -0.01 h -0.01 v -0.01 h -0.01 v -0.01 -0.01 -0.01 -0.01 -0.01 -0.01 -0.01 h -0.01 v -0.01 -0.01 h -0.01 v 0.01 0.01 h -0.01 v -0.01 h -0.01 v -0.01 -0.01 h -0.01 v -0.01 -0.01 -0.01 l 0.01,-0.01 v -0.01 -0.01 h -0.01 v -0.01 -0.01 h 0.01 0.01 v -0.01 -0.01 h 0.01 v -0.01 h -0.01 -0.01 v -0.01 h 0.01 0.01 v -0.01 h -0.01 l -0.01,-0.01 v -0.01 h 0.01 v -0.01 h -0.01 -0.01 v -0.01 -0.01 -0.01 h 0.01 v -0.01 h -0.01 -0.01 -0.01 v -0.01 h 0.01 v -0.01 h 0.01 v -0.01 h -0.01 v -0.01 h 0.01 v -0.01 h 0.01 v -0.01 h -0.01 -0.01 v -0.01 h -0.01 v -0.01 -0.01 h -0.01 l -0.01,-0.01 0.01,-0.01 0.01,-0.01 v -0.01 -0.01 h -0.01 v -0.01 -0.01 h -0.01 v -0.01 h 0.01 0.01 0.01 v -0.01 h -0.01 v -0.01 -0.01 -0.01 -0.01 h -0.01 v 0.01 0.01 h -0.01 v -0.01 h -0.01 v -0.01 -0.01 -0.01 -0.01 -0.01 h 0.01 0.01 0.01 v -0.01 -0.01 h -0.01 v -0.01 -0.01 h -0.01 -0.01 v -0.01 h 0.01 v -0.01 h -0.01 v -0.01 -0.01 h 0.01 v -0.01 -0.01 h 0.01 0.01 v -0.01 -0.01 h 0.01 v -0.01 h -0.01 v -0.01 h -0.01 v -0.01 h 0.01 v -0.01 h -0.01 -0.01 v -0.01 -0.01 -0.01 h -0.01 v -0.01 -0.01 l 0.01,-0.01 h 0.01 v -0.01 -0.01 -0.01 -0.01 -0.01 h 0.01 v -0.01 -0.01 -0.01 -0.01 h -0.01 -0.01 v -0.01 h 0.01 0.01 v -0.01 h -0.01 v -0.01 h -0.01 v -0.01 h -0.01 v -0.01 h 0.01 v -0.01 h 0.01 v 0.01 h 0.01 v -0.01 -0.01 -0.01 h -0.01 v 0.01 h -0.01 v -0.01 h -0.01 v -0.01 -0.01 h 0.01 v -0.01 h -0.01 v -0.01 -0.01 h 0.01 v -0.01 -0.01 -0.01 h 0.01 0.01 0.01 v -0.01 h -0.01 v -0.01 h -0.01 v -0.01 h 0.01 v -0.01 h -0.01 v -0.01 -0.01 -0.01 -0.01 c 0.002,-0.005 0.008,-0.016 0.01,-0.02 v -0.01 -0.01 h -0.01 v -0.01 h 0.01 v -0.01 -0.01 -0.01 -0.01 -0.01 h -0.01 v -0.01 -0.01 h 0.01 v -0.01 -0.01 h -0.01 v -0.01 -0.01 h 0.01 v -0.01 -0.01 -0.01 -0.01 h -0.01 v -0.01 h 0.01 v -0.01 -0.01 -0.01 -0.01 -0.01 -0.01 -0.01 -0.01 -0.01 -0.01 -0.01 -0.01 -0.01 -0.01 -0.01 -0.01 h 0.01 v -0.01 h -0.01 v -0.01 -0.01 -0.01 -0.01 -0.01 h -0.01 v -0.01 -0.01 h 0.01 v -0.01 h 0.01 v -0.01 h -0.01 v -0.01 h 0.01 v -0.01 -0.01 h -0.01 -0.01 v -0.01 h 0.01 v -0.01 -0.01 -0.01 -0.01 -0.01 -0.01 -0.01 -0.01 -0.01 -0.01 -0.01 -0.01 -0.01 -0.01 -0.01 -0.01 -0.01 -0.01 -0.01 h 0.01 v -0.01 -0.01 -0.01 -0.01 h -0.01 v -0.01 -0.01 -0.01 l 0.01,-0.01 v -0.01 -0.01 -0.01 h -0.01 v -0.01 -0.01 -0.01 h -0.01 v -0.01 h 0.01 v 0.01 h 0.01 v -0.01 -0.01 h 0.01 v -0.01 h -0.01 -0.01 v -0.01 -0.01 -0.01 -0.01 h 0.01 v -0.01 -0.01 -0.01 -0.01 h 0.01 v -0.01 -0.01 -0.01 -0.01 h -0.01 v -0.01 h -0.01 v -0.01 -0.01 h 0.01 v -0.01 -0.01 -0.01 -0.01 h 0.01 v -0.01 h -0.01 -0.01 v -0.01 -0.01 h 0.01 v -0.01 h 0.01 v -0.01 -0.01 h 0.01 v -0.01 h -0.01 -0.01 v -0.01 -0.01 h 0.01 v -0.01 -0.01 l -0.01,-0.01 v -0.01 h 0.01 v -0.01 -0.01 h -0.01 v -0.01 h 0.01 0.01 v -0.01 h -0.01 -0.01 v -0.01 h 0.01 v -0.01 -0.01 -0.01 h 0.01 v -0.01 h -0.01 v -0.01 -0.01 h 0.01 v -0.01 h 0.01 v -0.01 l 0.01,-0.01 h 0.01 0.01 v -0.01 h 0.01 v -0.01 h 0.01 0.01 v -0.01 h 0.01 v -0.01 h 0.01 v -0.01 -0.01 h 0.01 v -0.01 h 0.01 0.01 v -0.01 h 0.01 v -0.01 h 0.01 v -0.01 h 0.01 0.01 v -0.01 h 0.01 v -0.01 h 0.01 l 0.01,-0.01 h 0.01 v -0.01 h 0.01 0.01 v -0.01 h 0.01 v -0.01 h 0.01 0.01 v -0.01 l 0.01,-0.01 h 0.01 v -0.01 h 0.01 l 0.01,-0.01 h 0.01 l 0.01,-0.01 0.01,-0.01 h 0.01 0.01 v -0.01 h 0.01 v -0.01 h 0.01 0.01 l 0.01,-0.01 v -0.01 h 0.01 l 0.01,-0.01 h 0.01 0.01 v -0.01 h 0.01 v -0.01 h 0.01 v -0.01 h 0.01 0.01 0.01 v -0.01 l 0.01,-0.01 0.01,-0.01 h 0.01 v -0.01 h 0.01 0.01 v -0.01 h 0.01 l 0.01,-0.01 h 0.01 v -0.01 c 0.009,-0.006 0.021,-0.004 0.03,-0.01 h 0.01 v -0.01 h 0.01 v -0.01 h 0.01 v -0.01 h 0.01 0.01 v -0.01 h 0.01 l 0.01,-0.01 0.01,-0.01 h 0.01 l 0.01,-0.01 h 0.01 v -0.01 l 0.01,-0.01 h 0.01 0.01 l 0.01,-0.01 0.01,-0.01 h 0.01 l 0.01,-0.01 h 0.01 v -0.01 h 0.01 0.01 v -0.01 h 0.01 l 0.01,-0.01 0.01,-0.01 c 0.009,-0.005 0.021,-0.005 0.03,-0.01 0.017,-0.01 0.034,-0.019 0.051,-0.03 v -0.01 h 0.01 0.01 v -0.01 h 0.01 l 0.01,-0.01 h 0.01 l 0.01,-0.01 0.01,-0.01 c 0.009,-0.006 0.022,-0.005 0.03,-0.01 0.009,-0.006 0.021,-0.014 0.03,-0.02 l 0.01,-0.01 h 0.01 c 0.005,-0.003 0.016,-0.017 0.02,-0.02 h 0.01 l 0.01,-0.01 h 0.01 l 0.01,-0.01 0.01,-0.01 c 0.004,-0.002 0.016,-0.008 0.02,-0.01 h 0.01 v -0.01 h 0.01 0.01 l 0.01,-0.01 0.01,-0.01 h 0.01 l 0.01,-0.01 h 0.01 l 0.01,-0.01 h 0.01 v -0.01 h 0.01 l 0.01,-0.01 h 0.01 l 0.01,-0.01 h 0.01 v -0.01 h 0.01 0.01 v -0.01 h 0.01 l 0.01,-0.01 h 0.01 l 0.01,-0.01 h 0.01 v -0.01 h 0.01 c 0.005,-0.002 0.015,-0.008 0.02,-0.01 h 0.01 v -0.01 c 0.004,-0.003 0.015,-0.007 0.02,-0.01 0.017,-0.009 0.024,-0.013 0.04,-0.02 h 0.01 v -0.01 h 0.01 l 0.01,-0.01 h 0.01 v -0.01 h 0.01 l 0.01,-0.01 h 0.01 c 0.004,-0.003 0.016,-0.007 0.02,-0.01 l 0.01,-0.01 h 0.01 v -0.01 h 0.01 0.01 l 0.01,-0.01 h 0.01 v -0.01 h 0.01 l 0.01,-0.01 h 0.01 l 0.01,-0.01 h 0.01 v -0.01 h 0.01 0.01 v -0.01 h 0.01 c 0.009,-0.005 0.022,-0.015 0.03,-0.02 h 0.01 v -0.01 h 0.01 l 0.01,-0.01 h 0.01 v -0.01 c 0.011,-0.004 0.03,-0.004 0.04,-0.01 v -0.01 h 0.01 l 0.01,-0.01 c 0.008,-0.002 0.012,0.002 0.02,0 v -0.01 h 0.01 l 0.01,-0.01 h 0.01 l 0.01,-0.01 h 0.01 l 0.01,-0.01 h 0.01 0.01 v -0.01 -0.01 h 0.01 0.01 0.01 l 0.01,-0.01 h 0.01 v -0.01 h 0.01 0.01 v -0.01 h 0.01 0.01 v -0.01 h 0.01 0.01 v -0.01 h 0.01 v -0.01 h 0.01 0.01 c 0.005,-0.003 0.025,-0.018 0.03,-0.02 0.008,-0.004 0.012,-0.005 0.02,-0.01 0.004,-0.002 0.016,-0.008 0.02,-0.01 h 0.01 l 0.01,-0.01 h 0.01 v -0.01 h 0.01 0.01 v -0.01 h 0.01 0.01 v -0.01 h 0.01 0.01 v -0.01 h 0.01 c 0.005,-0.002 0.024,-0.007 0.03,-0.01 v -0.01 h 0.01 0.01 v -0.01 h 0.01 l 0.01,-0.01 h 0.01 v -0.01 h 0.01 0.01 l 0.01,-0.01 c 0.007,-0.004 0.013,-0.005 0.02,-0.01 h 0.01 v -0.01 h 0.01 c 0.004,-0.002 0.026,-0.007 0.03,-0.01 l 0.01,-0.01 0.01,-0.01 h 0.01 0.01 v -0.01 h 0.01 v -0.01 h 0.01 0.01 l 0.01,-0.01 c 0.006,-0.003 0.025,-0.007 0.03,-0.01 v -0.01 h 0.01 0.01 c 0.004,-0.002 0.016,-0.008 0.02,-0.01 l 0.01,-0.01 h 0.01 v -0.01 h 0.01 0.01 0.01 v -0.01 h 0.01 v -0.01 h 0.01 0.01 l 0.01,-0.01 h 0.01 c 0.009,-0.004 0.021,-0.006 0.03,-0.01 l 0.01,-0.01 h 0.01 l 0.01,-0.01 h 0.01 0.01 v -0.01 h 0.01 l 0.01,-0.01 h 0.01 0.01 v -0.01 h 0.01 0.01 l 0.01,-0.01 h 0.01 l 0.01,-0.01 h 0.01 l 0.01,-0.01 h 0.01 l 0.01,-0.01 h 0.01 0.01 l 0.01,-0.01 h 0.01 0.01 v -0.01 h 0.01 c 0.006,-0.004 0.013,-0.007 0.02,-0.01 h 0.01 0.01 v -0.01 c 0.005,-0.002 0.016,0.002 0.02,0 l 0.01,-0.01 h 0.01 c 0.022,-0.006 0.039,-0.011 0.061,-0.02 0.005,-0.002 0.025,-0.009 0.03,-0.01 0.009,-0.004 0.058,-0.025 0.071,-0.03 0.021,-0.009 0.049,-0.014 0.071,-0.02 0.011,-0.004 0.02,-0.007 0.03,-0.01 0.011,-0.003 0.019,-0.006 0.03,-0.01 0.021,-0.007 0.04,-0.013 0.061,-0.02 h 0.01 0.01 0.01 0.01 c 0.016,-0.006 0.026,-0.013 0.04,-0.02 l 0.01,-0.01 c 0.013,-0.005 0.028,-0.006 0.04,-0.01 l 0.01,-0.01 h 0.01 c 0.007,-0.005 0.042,-0.026 0.051,-0.03 0.009,-0.004 0.022,-0.015 0.03,-0.02 h 0.01 l 0.01,-0.01 0.01,-0.01 0.01,-0.01 h 0.01 v -0.01 h 0.01 v -0.01 h 0.01 0.01 v -0.01 l 0.01,-0.01 h 0.01 v -0.01 l 0.01,-0.01 0.01,-0.01 v -0.01 l 0.01,-0.01 h 0.01 v -0.01 -0.01 h 0.01 v -0.01 -0.01 h 0.01 v -0.01 -0.01 h 0.01 v -0.01 -0.01 -0.01 h 0.01 v 0.01 h 0.01 v -0.01 -0.01 -0.01 h 0.01 v -0.01 -0.01 h 0.01 0.01 v -0.01 h -0.01 v -0.01 -0.01 -0.01 -0.01 l 0.01,-0.01 v -0.01 h -0.01 v -0.01 -0.01 h -0.01 v -0.01 -0.01 -0.01 h -0.01 v -0.01 -0.01 h -0.01 v -0.01 h -0.01 v -0.01 -0.01 h -0.01 v -0.01 l -0.01,-0.01 h -0.01 v -0.01 h -0.01 v -0.01 h -0.01 -0.01 -0.01 v -0.01 -0.01 h -0.01 -0.01 v 0.01 h -0.01 -0.01 -0.01 -0.01 v -0.01 h -0.01 -0.01 -0.01 -0.01 -0.01 l -0.01,-0.01 c -0.016,0 -0.035,0.01 -0.051,0.01 h -0.01 -0.01 v -0.01 h -0.01 v 0.01 c -0.005,0.002 -0.015,-0.001 -0.02,0 -0.009,0.003 -0.021,0.008 -0.03,0.01 -0.009,0.003 -0.011,-0.003 -0.02,0 h -0.01 v 0.01 c -0.018,0.007 -0.033,0.012 -0.051,0.02 -0.004,0.002 -0.016,0.008 -0.02,0.01 h -0.01 v 0.01 h -0.01 -0.01 v 0.01 h -0.01 -0.01 v 0.01 c -0.004,0.002 -0.017,-0.001 -0.02,0 v 0.01 h -0.01 l -0.01,0.01 c -0.007,0.004 -0.013,0.006 -0.02,0.01 -0.01,0.006 -0.02,0.014 -0.03,0.02 h -0.01 -0.01 v 0.01 h -0.01 -0.01 v 0.01 h -0.01 l -0.01,0.01 h -0.01 v 0.01 h -0.01 -0.01 -0.01 v 0.01 h -0.01 v 0.01 h -0.01 -0.01 l -0.01,0.01 h -0.01 l -0.01,0.01 h -0.01 l -0.01,0.01 h -0.01 l -0.01,0.01 h -0.01 -0.01 v 0.01 h -0.01 -0.01 -0.01 v 0.01 h -0.01 -0.01 c -0.009,0.004 -0.031,0.017 -0.04,0.02 -0.005,0.001 -0.015,-0 -0.02,0 h -0.01 -0.01 -0.01 v -0.01 h -0.01 l -0.01,-0.01 h -0.01 v -0.01 -0.01 h -0.01 v -0.01 h -0.01 v 0.01 h -0.01 v -0.01 -0.01 h -0.01 v -0.01 -0.01 -0.01 -0.01 h -0.01 -0.01 v -0.01 -0.01 h 0.01 v -0.01 h 0.01 v -0.01 -0.01 h -0.01 v -0.01 h -0.01 v 0.01 h -0.01 v -0.01 -0.01 -0.01 -0.01 h -0.01 v -0.01 -0.01 h -0.01 v -0.01 h 0.01 v -0.01 -0.01 -0.01 -0.01 h 0.01 v -0.01 h -0.01 v -0.01 h -0.01 v -0.01 h 0.01 v -0.01 h -0.01 v -0.01 h 0.01 0.01 v -0.01 -0.01 h -0.01 v 0.01 h -0.01 v -0.01 -0.01 -0.01 -0.01 h 0.01 v 0.01 h 0.01 v -0.01 c -0,-0.005 0,-0.017 0,-0.02 v -0.01 h -0.01 v -0.01 -0.01 h 0.01 v -0.01 h 0.01 v -0.01 h -0.01 v -0.01 -0.01 -0.01 h 0.01 v -0.01 -0.01 h -0.01 -0.01 v -0.01 h -0.01 v -0.01 -0.01 l 0.01,-0.01 h 0.01 v -0.01 h -0.01 v -0.01 h -0.01 v -0.01 -0.01 -0.01 h 0.01 0.01 v -0.01 -0.01 h -0.01 v -0.01 h -0.01 v -0.01 -0.01 c 0.001,-0.012 0.001,-0.029 0,-0.04 v -0.01 -0.01 -0.01 -0.04 c 0,-0.006 0,-0.024 0,-0.03 v -0.01 h 0.01 v -0.01 l -0.01,-0.01 V 10.176 l 0.01,-0.01 h 0.01 0.01 v -0.01 h -0.01 v -0.01 h -0.01 v -0.01 -0.01 h 0.01 0.01 v -0.01 -0.01 h -0.01 -0.01 v -0.01 -0.01 c 0.001,-0.006 -0.001,-0.015 0,-0.02 h 0.01 0.01 0.01 v -0.01 -0.01 h -0.01 v -0.01 -0.01 -0.01 -0.01 -0.01 -0.01 -0.01 -0.01 h -0.01 v -0.01 h 0.01 0.01 0.01 v -0.01 h -0.01 l -0.01,-0.01 v -0.01 -0.01 -0.01 h 0.01 v -0.01 -0.01 h -0.01 -0.01 v 0.01 0.01 h -0.01 v -0.01 -0.01 h 0.01 v -0.01 h -0.01 v -0.01 -0.01 -0.01 c 0,-0.006 -0,-0.025 0,-0.03 v -0.01 h 0.01 v -0.01 l 0.01,0.01 v -0.01 h 0.01 0.01 v -0.01 h -0.01 v -0.01 h -0.01 v -0.01 -0.01 h 0.01 v -0.01 -0.01 h -0.01 -0.01 v -0.01 -0.01 h -0.01 v -0.01 -0.01 -0.01 -0.01 h 0.01 0.01 v -0.01 -0.01 h -0.01 l -0.01,-0.01 h -0.01 v -0.01 -0.01 -0.01 -0.01 -0.01 h -0.01 v -0.01 -0.01 -0.01 h -0.01 v -0.01 h -0.01 v -0.01 -0.01 -0.01 h -0.01 v 0.01 h -0.01 v -0.01 l -0.01,-0.01 v -0.01 h -0.01 l -0.01,-0.01 c -0.019,-0.009 -0.041,-0.013 -0.061,-0.02 l -0.01,-0.01 h -0.01 -0.01 c -0.012,-0.001 -0.029,0 -0.04,0 -0.011,0 -0.019,-0.001 -0.03,0 h -0.01 -0.01 z m -2.516,5.032 h 0.01 v -0.01 z m -0.01,0.152 h 0.01 v -0.01 h -0.01 z m 0.061,0.778 v 0.01 h 0.01 v -0.01 z m 0.849,-5.224 v 0.01 h -0.01 -0.01 -0.01 -0.01 -0.01 -0.01 -0.01 -0.01 v 0.01 h -0.01 -0.01 -0.01 v 0.01 h -0.01 l -0.01,0.01 h -0.01 l -0.01,0.01 h -0.01 v 0.01 c -0.002,0.001 -0.019,0.019 -0.02,0.02 h -0.01 v 0.01 h -0.01 v 0.01 h -0.01 c -0.002,0.002 -0.009,0.019 -0.01,0.02 h -0.01 v 0.01 h -0.01 v 0.01 0.01 h -0.01 v 0.01 h -0.01 v 0.01 l -0.01,0.01 v 0.01 0.01 l -0.01,0.01 v 0.01 0.01 h -0.01 v 0.01 0.01 l -0.01,0.01 v 0.01 0.01 h -0.01 c -0.001,0.002 -0,0.03 0,0.03 v 0.01 0.01 0.01 0.01 0.01 h -0.01 v 0.01 0.01 0.01 0.01 0.01 0.01 0.01 h -0.01 v 0.01 0.01 0.01 0.01 0.01 0.01 0.01 h -0.01 v 0.01 0.01 0.01 0.01 c -0,0.003 0,0.018 0,0.02 0,0.003 0,0.018 0,0.02 h -0.01 v 0.01 h 0.01 v 0.01 h -0.01 v 0.01 c -0.001,0.003 0,0.017 0,0.02 -0,0.003 0,0.018 0,0.02 v 0.01 0.01 h -0.01 v 0.01 0.01 l 0.01,-0.01 v 0.01 h -0.01 v 0.01 0.01 0.01 0.01 0.01 0.01 0.01 0.01 0.01 0.01 0.01 h -0.01 v 0.01 0.01 0.01 0.01 0.01 0.01 c 0,0.001 -0,0.025 0,0.03 h -0.01 v 0.01 0.01 h 0.01 v 0.01 h -0.01 c 0,0.002 0,0.027 0,0.03 -0,0.002 0.001,0.019 0,0.02 v 0.01 h -0.01 v 0.01 h 0.01 v 0.01 h -0.01 v 0.01 0.01 0.01 0.01 0.01 0.01 0.01 0.01 0.01 h -0.01 v 0.01 0.01 0.01 0.01 0.01 0.01 0.01 0.01 0.01 0.01 h -0.01 v 0.01 0.01 c 0,0.003 0,0.027 0,0.03 v 0.01 0.01 0.01 0.01 0.01 0.01 h -0.01 v 0.02 c -0,0.013 0.001,0.046 0,0.051 -0.001,0.005 -0.009,0.025 -0.01,0.03 0,0.012 0.002,0.028 0,0.04 -0.002,0.009 0,0.024 0,0.03 -0,0.012 0.002,0.029 0,0.04 h -0.01 v 0.01 0.01 0.01 c -0.001,0.005 0.001,0.046 0,0.051 -0.001,0.006 -0,0.024 0,0.03 v 0.01 0.01 0.01 0.01 0.01 c 0.002,0.005 0.008,0.026 0.01,0.03 l 0.01,0.01 v 0.01 h 0.01 v 0.01 c 0.004,0.003 0.016,0.007 0.02,0.01 h 0.01 v 0.01 c 0.006,0.001 0.025,-0.001 0.03,0 v 0.01 h 0.01 0.01 0.01 c 0.005,0 0.024,0 0.03,0 h 0.01 c 0.007,-0.003 0.037,-0.018 0.04,-0.02 0.009,-0.006 0.045,-0.027 0.051,-0.03 h 0.01 l 0.01,-0.01 h 0.01 0.01 v -0.01 h 0.01 0.01 c 0.001,-0.001 0.017,-0.019 0.02,-0.02 h 0.01 v -0.01 h 0.01 v -0.01 h 0.01 v -0.01 l 0.01,-0.01 h 0.01 v -0.01 c 0.004,-0.004 0.016,-0.006 0.02,-0.01 l 0.01,-0.01 0.01,-0.01 v -0.01 h 0.01 v -0.01 c 0.002,-0.004 0.007,-0.016 0.01,-0.02 v -0.01 -0.01 h 0.01 0.01 v -0.01 -0.01 -0.01 -0.01 -0.01 h 0.01 v -0.01 -0.01 -0.01 -0.01 -0.01 -0.01 -0.01 -0.01 h -0.01 v -0.01 c 0.001,-0.011 -0.002,-0.029 0,-0.04 v -0.01 c -0,-0.006 0,-0.014 0,-0.02 v -0.01 -0.01 -0.01 h 0.01 v -0.01 -0.01 -0.01 -0.01 -0.01 -0.01 -0.01 c 0,-0.017 0,-0.036 0,-0.04 0,-0.006 -0,-0.025 0,-0.03 v -0.01 h 0.01 v -0.01 -0.01 -0.01 -0.01 -0.01 h 0.01 v -0.01 -0.01 -0.01 h -0.01 v -0.01 -0.01 h 0.01 v 0.01 0.01 h 0.01 0.01 v -0.01 h 0.01 v -0.01 h -0.01 v -0.01 h -0.01 l -0.01,-0.01 h -0.01 v -0.01 -0.01 -0.01 -0.01 -0.01 h 0.01 v -0.01 -0.01 h -0.01 v -0.01 h 0.01 v -0.01 h 0.01 v -0.01 -0.01 h 0.01 0.01 v -0.01 h -0.01 v -0.01 -0.01 h 0.01 v -0.01 l -0.01,-0.01 v -0.01 -0.01 h 0.01 v -0.01 h -0.01 v -0.01 h -0.01 v -0.01 -0.01 h 0.01 v -0.01 -0.01 h -0.01 v -0.01 -0.01 h 0.01 v -0.01 h 0.01 v -0.01 h -0.01 -0.01 v -0.01 -0.01 -0.01 h 0.01 v -0.01 -0.01 h -0.01 v -0.01 h 0.01 v -0.01 l -0.01,-0.01 v -0.02 l 0.01,-0.01 c 0.001,-0.003 -0,-0.018 0,-0.02 v -0.01 -0.01 -0.01 l -0.01,-0.01 v -0.01 -0.01 c -0,-0.004 0,-0.016 0,-0.02 v -0.01 -0.01 -0.01 -0.01 -0.01 -0.01 h 0.01 0.01 v -0.01 h -0.01 v -0.01 h -0.01 v -0.01 h 0.01 0.01 v -0.01 h -0.01 v -0.01 -0.01 h 0.01 v -0.01 h -0.01 v -0.01 -0.01 h 0.01 v -0.01 h 0.01 v -0.01 h -0.01 v -0.01 h 0.01 v -0.01 h -0.01 v -0.01 h 0.01 v -0.01 -0.01 h 0.01 v -0.01 h -0.01 v -0.01 -0.01 -0.01 h -0.01 v -0.01 h 0.01 l 0.01,-0.01 v -0.01 h -0.01 v -0.01 h 0.01 v -0.01 -0.01 h 0.01 v -0.01 -0.01 -0.01 -0.01 -0.01 -0.01 -0.01 -0.01 h -0.01 v -0.01 -0.01 -0.01 h -0.01 -0.01 v -0.01 -0.01 -0.01 -0.01 -0.01 -0.01 h -0.01 v -0.01 h -0.01 v -0.01 h -0.01 v -0.01 h -0.01 -0.01 -0.01 -0.01 v -0.01 z m 0.071,0.788 h 0.01 v -0.01 h -0.01 z m -0.02,0.313 v 0.01 h 0.01 v 0.01 h 0.01 v -0.01 -0.01 h -0.01 z M 21.191,10.823 c -0.006,0.002 -0.024,0.018 -0.03,0.02 -0.011,0.006 -0.041,0.022 -0.051,0.03 -0.004,0.005 -0.016,0.025 -0.02,0.03 -0.011,0.016 -0.024,0.052 -0.03,0.071 -0.003,0.013 -0.01,0.026 -0.01,0.04 0,0.034 0.025,0.083 0.04,0.111 0.004,0.005 0.016,0.025 0.02,0.03 l 0.01,0.01 c 0.01,0.008 0.039,0.024 0.051,0.03 0.024,0.01 0.053,0.02 0.081,0.02 0.028,0 0.067,-0.01 0.091,-0.02 0.011,-0.006 0.041,-0.032 0.051,-0.04 l 0.01,-0.01 c 0.004,-0.005 0.017,-0.025 0.02,-0.03 0.015,-0.028 0.03,-0.068 0.03,-0.101 0,-0.014 -0.007,-0.037 -0.01,-0.051 -0.006,-0.019 -0.03,-0.055 -0.04,-0.071 -0.004,-0.005 -0.016,-0.026 -0.02,-0.03 -0.01,-0.008 -0.039,-0.024 -0.051,-0.03 -0.024,-0.01 -0.053,-0.01 -0.081,-0.01 -0.021,0 -0.042,-0.006 -0.061,0 z m -16.179,0.01 -0.01,0.01 h -0.01 -0.01 -0.01 l -0.01,0.01 h -0.01 -0.01 v 0.01 h -0.01 -0.01 l -0.01,0.01 c -0.007,0.005 -0.013,0.006 -0.02,0.01 h -0.01 v 0.01 h -0.01 l -0.01,0.01 c -0.014,0.011 -0.028,0.019 -0.04,0.03 -0.007,0.006 -0.013,0.015 -0.02,0.02 h -0.01 v 0.01 h -0.01 v 0.01 l -0.01,0.01 c -0.006,0.005 -0.014,0.005 -0.02,0.01 l -0.01,0.01 v 0.01 c -0.004,0.006 -0.007,0.014 -0.01,0.02 h -0.01 v 0.01 h -0.01 v 0.01 0.01 0.01 h -0.01 v 0.01 l -0.01,0.01 v 0.01 h -0.01 v 0.01 0.01 0.01 l -0.01,0.01 v 0.01 h -0.01 v 0.01 0.01 0.01 0.01 0.01 0.01 0.01 0.01 0.01 0.01 h 0.01 v 0.01 0.01 0.01 h 0.01 v 0.01 h 0.01 v 0.01 l 0.01,0.01 0.01,0.01 h 0.01 0.01 0.01 v 0.01 0.01 h 0.01 v -0.01 h 0.01 v 0.01 h 0.01 0.01 0.01 0.01 0.01 0.01 v -0.01 h 0.01 0.01 0.01 v -0.01 h 0.01 0.01 v -0.01 h 0.01 0.01 v -0.01 -0.01 h 0.01 0.01 l 0.01,-0.01 0.01,-0.01 h 0.01 v -0.01 h 0.01 0.01 v -0.01 h 0.01 l 0.01,-0.01 0.01,-0.01 h 0.01 v -0.01 h 0.01 v -0.01 h 0.01 v -0.01 h 0.01 v -0.01 h 0.01 0.01 v -0.01 h 0.01 v -0.01 -0.01 -0.01 h 0.01 0.01 v -0.01 l 0.01,-0.01 0.01,-0.01 v -0.01 -0.01 h 0.01 v -0.01 h 0.01 v -0.01 h 0.01 v -0.01 -0.01 -0.01 -0.01 l 0.01,-0.01 v -0.01 -0.01 -0.01 -0.01 -0.01 -0.01 -0.01 -0.01 h -0.01 v -0.01 -0.01 -0.01 h -0.01 v -0.01 -0.01 h -0.01 v -0.01 -0.01 h -0.01 v -0.01 -0.01 -0.01 h -0.01 -0.01 v -0.01 h -0.01 -0.01 v -0.01 h -0.01 -0.01 -0.01 -0.01 z m 15.542,0.01 -0.01,0.01 h -0.01 -0.01 v 0.01 h -0.01 l -0.01,0.01 v 0.01 l -0.01,0.01 v 0.01 0.01 0.616 l -0.01,-0.01 -0.01,-0.01 c -0.044,-0.059 -0.132,-0.131 -0.313,-0.131 -0.339,0 -0.576,0.276 -0.576,0.627 0,0.363 0.235,0.637 0.576,0.637 0.161,0 0.29,-0.077 0.344,-0.172 0,0.053 0,0.071 0,0.071 0,0.006 -0.001,0.015 0,0.02 v 0.01 0.01 h 0.01 v 0.01 l 0.01,0.01 h 0.01 0.01 v 0.01 h 0.01 c 0.005,0.001 0.014,0 0.02,0 h 0.182 0.01 0.01 l 0.01,-0.01 h 0.01 l 0.01,-0.01 h 0.01 v -0.01 -0.01 -0.01 c -0.002,-0.023 0.001,-0.148 0,-0.212 0,-0.218 0.001,-1.155 0,-1.435 v -0.01 h -0.01 v -0.01 -0.01 l -0.01,-0.01 v -0.01 h -0.01 -0.01 v -0.01 h -0.01 -0.01 l -0.01,-0.01 H 20.564 Z m -14.471,0.515 -0.01,0.01 h -0.01 -0.01 -0.01 v 0.01 h -0.01 -0.01 v 0.01 h -0.01 -0.01 -0.01 v 0.01 0.01 h -0.01 -0.01 -0.01 -0.01 v 0.01 h -0.01 v 0.01 h -0.01 -0.01 -0.01 v 0.01 h -0.01 v 0.01 h -0.01 -0.01 -0.01 l -0.01,0.01 h -0.01 v 0.01 h -0.01 -0.01 c -0.005,0.001 -0.015,0.009 -0.02,0.01 h -0.01 l -0.01,0.01 h -0.01 -0.01 -0.01 -0.01 v 0.01 h -0.01 c -0.016,0.001 -0.034,-0.002 -0.051,0 -0.007,0.001 -0.013,0.008 -0.02,0.01 h -0.01 -0.01 v 0.01 h -0.01 v -0.01 h -0.01 l -0.01,0.01 c -0.006,0.002 -0.014,-0.002 -0.02,0 -0.012,0.004 -0.028,0.016 -0.04,0.02 h -0.01 v 0.01 h -0.01 -0.01 l -0.01,0.01 h -0.01 v 0.01 h -0.01 l -0.01,0.01 h -0.01 c -0.015,0.011 -0.027,0.027 -0.04,0.04 -0.007,0.007 -0.014,0.014 -0.02,0.02 h -0.01 v 0.01 l -0.01,0.01 v 0.01 h -0.01 v 0.01 l -0.01,0.01 v 0.01 0.01 l -0.01,0.01 v 0.01 l -0.01,0.01 v 0.01 0.01 0.01 h -0.01 v 0.01 c -0.001,0.005 0.001,0.015 0,0.02 -0.003,0.012 -0.007,0.028 -0.01,0.04 -0.005,0.02 -0.009,0.04 -0.01,0.061 -0.001,0.019 0.001,0.031 0,0.051 -0,0.009 0,0.021 0,0.03 v 0.01 h -0.01 v 0.01 0.01 0.01 0.01 0.01 0.01 c -0,0.013 0,0.028 0,0.04 -0,0.015 0.001,0.046 0,0.061 v 0.01 0.01 0.01 c -0.001,0.01 -0.009,0.019 -0.01,0.03 -0,0.005 0,0.015 0,0.02 v 0.01 c 0,0.011 0,0.029 0,0.04 -0.001,0.011 0,0.019 0,0.03 v 0.01 c -0.001,0.005 0.001,0.015 0,0.02 l -0.01,0.01 v 0.01 0.01 0.01 0.01 0.01 0.01 0.01 0.01 0.01 0.01 0.01 0.01 h -0.01 v 0.01 0.01 l -0.01,0.01 v 0.01 h -0.01 v 0.01 0.01 h 0.01 v 0.01 0.01 0.01 0.01 c -0.001,0.004 0.001,0.015 0,0.02 v 0.01 0.01 0.01 h -0.01 v 0.01 0.01 0.01 0.01 0.01 h 0.01 v 0.01 0.01 0.01 l -0.01,0.01 v 0.01 0.01 0.01 c -0,0.006 0,0.015 0,0.02 v 0.01 0.01 h -0.01 v 0.01 0.01 h 0.01 v 0.01 0.01 0.01 0.01 0.01 0.01 0.01 0.01 0.01 0.01 0.01 0.01 0.01 c -0,0.005 0,0.025 0,0.03 v 0.01 h -0.01 v 0.01 0.01 0.01 l -0.01,0.01 v 0.01 h 0.01 v 0.01 0.01 0.01 0.01 c 0.001,0.005 -0,0.015 0,0.02 0,0.006 -0,0.015 0,0.02 v 0.01 c -0.001,0.011 0,0.019 0,0.03 0,0.011 -0.002,0.03 0,0.04 v 0.01 0.01 0.01 l 0.01,0.01 v 0.01 0.01 0.01 h 0.01 v 0.01 0.01 h 0.01 v 0.01 l 0.01,0.01 0.01,0.01 v 0.01 h 0.01 0.01 v 0.01 0.01 h 0.01 0.01 0.01 0.01 v 0.01 h 0.01 c 0.005,0 0.015,0 0.02,0 h 0.01 l 0.01,-0.01 h 0.01 0.01 0.01 v -0.01 h 0.01 0.01 0.01 l 0.01,-0.01 h 0.01 0.01 v -0.01 h 0.01 0.01 l 0.01,-0.01 0.01,-0.01 h 0.01 v -0.01 h 0.01 0.01 v -0.01 h 0.01 0.01 v -0.01 h 0.01 v -0.01 h 0.01 0.01 v -0.01 h 0.01 v -0.01 c 0.004,-0.005 0.015,-0.016 0.02,-0.02 l 0.01,-0.01 v -0.01 h 0.01 v -0.01 h 0.01 v -0.01 l 0.01,-0.01 v -0.01 -0.01 h 0.01 v -0.01 c 0.004,-0.008 0.007,-0.012 0.01,-0.02 l 0.01,-0.01 v -0.01 -0.01 -0.01 h 0.01 c 0.002,-0.007 -0.002,-0.013 0,-0.02 0.002,-0.012 0.009,-0.028 0.01,-0.04 0.001,-0.011 -0.001,-0.019 0,-0.03 v -0.01 -0.01 -0.01 -0.01 -0.01 -0.01 -0.01 -0.01 h 0.01 v -0.01 -0.01 -0.01 -0.01 -0.01 -0.01 -0.01 -0.01 -0.01 -0.01 c 0.001,-0.01 -0,-0.021 0,-0.03 0.001,-0.013 -0,-0.028 0,-0.04 v -0.01 -0.01 -0.01 -0.01 -0.01 -0.01 -0.01 c 0,-0.005 -0,-0.015 0,-0.02 v -0.01 c -0,-0.005 0.009,-0.025 0.01,-0.03 0.001,-0.011 0.001,-0.029 0,-0.04 v -0.01 -0.01 -0.01 -0.01 -0.01 c -0,-0.005 -0,-0.025 0,-0.03 v -0.01 h 0.01 v -0.01 -0.01 l -0.01,-0.01 v -0.01 -0.01 c 0,-0.005 -0.001,-0.015 0,-0.02 l 0.01,-0.01 v -0.01 -0.01 h -0.01 v -0.01 h 0.01 v -0.01 -0.01 -0.01 -0.01 -0.01 h 0.01 v -0.01 -0.01 h -0.01 v -0.01 h 0.01 l 0.01,-0.01 h 0.01 v -0.01 h -0.01 v -0.01 -0.01 -0.01 -0.01 h 0.01 v -0.01 -0.01 -0.01 h 0.01 v -0.01 -0.01 -0.01 -0.01 -0.01 h 0.01 v -0.01 h -0.01 v -0.01 h 0.01 v -0.01 h 0.01 v -0.01 -0.01 -0.01 -0.01 l 0.01,-0.01 v -0.01 l 0.01,-0.01 v -0.01 h 0.01 v -0.01 -0.01 h 0.01 c 0.006,-0.008 0.004,-0.022 0.01,-0.03 0.005,-0.007 0.014,-0.013 0.02,-0.02 0.006,-0.007 0.014,-0.013 0.02,-0.02 l 0.01,-0.01 v -0.01 h 0.01 v -0.01 -0.01 h 0.01 0.01 v -0.01 h 0.01 l 0.01,-0.01 v -0.01 h 0.01 v -0.01 h 0.01 v -0.01 h 0.01 l 0.01,-0.01 h 0.01 v -0.01 h 0.01 v -0.01 h 0.01 0.01 v -0.01 l 0.01,-0.01 h 0.01 l 0.01,-0.01 v -0.01 h 0.01 v -0.01 h 0.01 l 0.01,-0.01 h 0.01 l 0.01,-0.01 0.01,-0.01 0.01,-0.01 h 0.01 v -0.01 h 0.01 v -0.01 l 0.01,-0.01 h 0.01 v -0.01 h 0.01 c 0.003,-0.008 0.007,-0.013 0.01,-0.02 v -0.01 l 0.01,-0.01 v -0.01 h 0.01 v -0.01 -0.01 h 0.01 v -0.01 -0.01 h -0.01 v -0.01 c 0.001,-0.007 0.01,-0.017 0.01,-0.02 v -0.01 -0.01 -0.01 -0.01 -0.01 -0.01 h -0.01 v -0.01 l -0.01,-0.01 v -0.01 l -0.01,-0.01 v -0.01 -0.01 -0.01 h -0.01 v -0.01 h -0.01 v -0.01 -0.01 h -0.01 l -0.01,-0.01 v -0.01 h -0.01 l -0.01,-0.01 h -0.01 -0.01 l -0.01,-0.01 h -0.01 -0.01 -0.01 -0.01 -0.01 z m 10.772,0.02 c -0.178,0.016 -0.277,0.145 -0.303,0.182 v -0.081 -0.01 -0.01 h -0.01 v -0.01 -0.01 h -0.01 v -0.01 h -0.01 l -0.01,-0.01 h -0.01 l -0.01,-0.01 h -0.01 -0.172 -0.01 l -0.01,0.01 h -0.01 l -0.01,0.01 h -0.01 v 0.01 l -0.01,0.01 v 0.01 0.01 l -0.01,0.01 v 1.061 0.01 h 0.01 v 0.01 0.01 l 0.01,0.01 v 0.01 h 0.01 v 0.01 h 0.01 0.01 l 0.01,0.01 h 0.01 0.192 0.01 l 0.01,-0.01 h 0.01 l 0.01,-0.01 0.01,-0.01 0.01,-0.01 v -0.01 -0.01 -0.01 -0.637 c 0,-0.024 0.001,-0.08 0.04,-0.141 0.038,-0.058 0.108,-0.091 0.192,-0.091 0.055,0 0.108,0.027 0.141,0.051 0.005,0.004 0.026,0.025 0.03,0.03 0.026,0.039 0.04,0.095 0.04,0.152 v 0.637 0.01 0.01 0.01 l 0.01,0.01 0.01,0.01 0.01,0.01 h 0.01 l 0.01,0.01 h 0.01 0.01 0.172 0.01 0.01 l 0.01,-0.01 h 0.01 l 0.01,-0.01 0.01,-0.01 0.01,-0.01 v -0.01 -0.01 -0.01 -0.637 c 0,-0.048 0.029,-0.104 0.051,-0.141 0.008,-0.012 0.03,-0.041 0.04,-0.051 0.035,-0.026 0.079,-0.04 0.131,-0.04 0.046,0 0.101,0.023 0.131,0.04 0.055,0.04 0.081,0.111 0.081,0.192 v 0.637 0.01 l 0.01,0.01 v 0.01 l 0.01,0.01 v 0.01 h 0.01 v 0.01 h 0.01 0.01 v 0.01 h 0.01 0.01 0.172 0.01 0.01 l 0.01,-0.01 h 0.01 l 0.01,-0.01 0.01,-0.01 0.01,-0.01 v -0.01 -0.01 -0.01 -0.707 c 0,-0.322 -0.203,-0.455 -0.424,-0.455 -0.159,0 -0.289,0.056 -0.384,0.202 -0.061,-0.129 -0.19,-0.202 -0.354,-0.202 -0.015,0 -0.037,-0.001 -0.051,0 z m 1.92,0 C 18.492,11.407 18.24,11.647 18.24,12.005 c 0,0.405 0.288,0.637 0.616,0.637 0.203,0 0.359,-0.073 0.455,-0.192 0.03,-0.037 0.057,-0.088 0.071,-0.131 h 0.01 v -0.01 -0.01 l -0.01,-0.01 v -0.01 -0.01 h -0.01 v -0.01 h -0.01 l -0.01,-0.01 h -0.01 c -0.038,-0.012 -0.141,-0.04 -0.141,-0.04 h -0.01 c -0.006,-0.001 -0.026,-0.01 -0.03,-0.01 h -0.01 v 0.01 h -0.01 -0.01 v 0.01 l -0.01,0.01 -0.01,0.01 c -0.047,0.077 -0.119,0.131 -0.243,0.131 -0.161,0 -0.296,-0.114 -0.303,-0.273 h 0.798 0.01 0.01 l 0.01,-0.01 h 0.01 v -0.01 l 0.01,-0.01 v -0.01 l 0.01,-0.01 v -0.01 -0.01 -0.03 c 0,-0.046 -0.004,-0.09 -0.01,-0.131 -0.046,-0.306 -0.251,-0.485 -0.576,-0.485 -0.019,0 -0.042,-0.002 -0.061,0 z m 3.405,0 c -0.338,0 -0.566,0.276 -0.566,0.627 0,0.363 0.236,0.637 0.576,0.637 0.161,0 0.29,-0.077 0.344,-0.172 0,0.053 0,0.071 0,0.071 0,0.006 -0.001,0.015 0,0.02 v 0.01 0.01 h 0.01 v 0.01 l 0.01,0.01 h 0.01 l 0.01,0.01 h 0.01 0.01 0.192 0.01 0.01 l 0.01,-0.01 h 0.01 l 0.01,-0.01 0.01,-0.01 v -0.01 -0.01 c -0.002,-0.023 -0.009,-0.148 -0.01,-0.212 0,-0.218 0.011,-0.589 0.01,-0.869 v -0.01 h -0.01 v -0.01 -0.01 l -0.01,-0.01 -0.01,-0.01 -0.01,-0.01 h -0.01 l -0.01,-0.01 h -0.01 -0.182 c -0.006,0 -0.015,0.009 -0.02,0.01 h -0.01 -0.01 l -0.01,0.01 h -0.01 v 0.01 l -0.01,0.01 v 0.01 0.01 0.01 0.051 l -0.01,-0.01 -0.01,-0.01 c -0.044,-0.059 -0.142,-0.131 -0.323,-0.131 z m -1.031,0.03 -0.01,0.01 h -0.01 l -0.01,0.01 h -0.01 v 0.01 h -0.01 v 0.01 0.01 h -0.01 v 0.01 0.01 1.061 0.01 0.01 l 0.01,0.01 v 0.01 h 0.01 v 0.01 h 0.01 v 0.01 h 0.01 l 0.01,0.01 h 0.01 0.01 0.182 0.01 0.01 l 0.01,-0.01 h 0.01 v -0.01 h 0.01 v -0.01 h 0.01 v -0.01 l 0.01,-0.01 v -0.01 -0.01 -1.061 -0.01 -0.01 h -0.01 v -0.01 -0.01 h -0.01 v -0.01 h -0.01 l -0.01,-0.01 h -0.01 l -0.01,-0.01 h -0.01 -0.182 z m -2.375,0.232 c 0.019,-0.004 0.04,0 0.061,0 0.185,0 0.268,0.113 0.273,0.232 h -0.536 c 0.006,-0.096 0.072,-0.207 0.202,-0.232 z m 1.395,0.03 c 0.01,-0.001 0.02,0 0.03,0 0.166,0 0.303,0.119 0.303,0.333 0,0.217 -0.138,0.344 -0.303,0.344 -0.171,0 -0.293,-0.129 -0.293,-0.344 0,-0.201 0.112,-0.319 0.263,-0.333 z m 2.031,0 c 0.01,-0.001 0.02,0 0.03,0 0.166,0 0.293,0.119 0.293,0.333 0,0.217 -0.127,0.344 -0.293,0.344 -0.171,0 -0.293,-0.129 -0.293,-0.344 0,-0.201 0.112,-0.319 0.263,-0.333 z M 4.78,11.914 c -0.01,0.002 -0.021,0.007 -0.03,0.01 -0.033,0.01 -0.072,0.021 -0.101,0.04 l -0.01,0.01 -0.01,0.01 h -0.01 l -0.01,0.01 h -0.01 v 0.01 0.01 h -0.01 -0.01 v 0.01 h -0.01 l -0.01,0.01 v 0.01 h -0.01 v 0.01 h -0.01 v 0.01 c -0.005,0.007 -0.016,0.014 -0.02,0.02 -0.011,0.014 -0.023,0.025 -0.03,0.04 -0.015,0.033 -0.026,0.068 -0.04,0.101 -0.005,0.012 -0.005,0.028 -0.01,0.04 v 0.01 l -0.01,0.01 v 0.01 0.01 0.01 0.01 0.01 l -0.01,0.01 v 0.01 0.01 c -0.003,0.017 0.001,0.044 0,0.061 0,0.012 -0.009,0.039 -0.01,0.051 -0,0.006 -0,0.014 0,0.02 v 0.01 0.01 0.01 c -0.001,0.005 -0.009,0.025 -0.01,0.03 -0,0.007 0.001,0.035 0,0.051 v 0.01 0.01 0.01 0.01 0.01 0.01 0.01 c -0.001,0.016 0.002,0.034 0,0.051 v 0.01 l -0.01,0.01 v 0.01 0.01 c -0.002,0.03 -0.002,0.081 -0.01,0.111 v 0.01 c -0,0.008 0,0.016 0,0.02 -0,0.008 0,0.024 0,0.03 v 0.01 0.01 c -0,0.004 -0,0.026 0,0.03 v 0.01 l -0.01,-0.01 v 0.01 0.01 c 0.001,0.006 0.009,0.025 0.01,0.03 l -0.01,0.01 v 0.01 0.01 0.01 0.01 c -0.002,0.019 -0.006,0.042 -0.01,0.061 -0.004,0.02 0.003,0.041 0,0.061 h -0.01 v 0.01 h 0.01 v 0.01 c -0,0.012 0,0.029 0,0.04 0,0.036 -0.012,0.065 -0.01,0.101 v 0.01 0.01 0.01 0.01 0.01 0.01 c 0,0.006 0,0.016 0,0.02 v 0.01 0.01 0.01 c 0,0.005 0,0.025 0,0.03 -0.001,0.005 -0.01,0.025 -0.01,0.03 v 0.091 0.04 c 0,0.005 -0.001,0.023 0,0.03 v 0.01 h 0.01 v 0.01 0.01 0.01 0.01 0.01 l 0.01,0.01 v 0.01 0.01 h 0.01 v 0.01 l 0.01,0.01 v 0.01 h 0.01 0.01 c 0.004,0.002 0.016,0.008 0.02,0.01 l 0.01,0.01 h 0.01 c 0.009,0.002 0.021,-0.001 0.03,0 h 0.01 0.01 0.01 0.01 0.01 0.01 v -0.01 h 0.01 v -0.01 h 0.01 c 0.008,-0.004 0.013,-0.006 0.02,-0.01 0.014,-0.007 0.027,-0.022 0.04,-0.03 h 0.01 l 0.01,-0.01 0.01,-0.01 0.01,-0.01 c 0.007,-0.004 0.023,-0.005 0.03,-0.01 0.012,-0.009 0.022,-0.029 0.03,-0.04 h 0.01 v -0.01 h 0.01 0.01 0.01 v -0.01 l 0.01,-0.01 v -0.01 h 0.01 v 0.01 h 0.01 0.01 v -0.01 -0.01 h 0.01 v -0.01 -0.01 h -0.01 -0.01 -0.01 v -0.01 -0.01 -0.01 -0.01 l 0.01,-0.01 v -0.01 -0.01 -0.01 -0.01 h 0.01 v -0.01 -0.01 -0.01 c 0,-0.006 -0.001,-0.015 0,-0.02 l 0.01,-0.01 v -0.01 -0.01 h -0.01 v -0.01 h 0.01 v -0.01 -0.01 l 0.01,-0.01 v -0.01 -0.01 -0.01 -0.01 -0.01 -0.01 -0.01 -0.01 h -0.01 v -0.01 l 0.01,-0.01 v -0.01 -0.01 -0.01 l -0.01,-0.01 v -0.01 h 0.01 v -0.01 -0.01 -0.01 -0.01 -0.01 -0.01 -0.01 -0.01 -0.01 -0.01 l 0.01,-0.01 c 0,-0.005 0.001,-0.015 0,-0.02 v -0.01 -0.01 -0.01 c 0.001,-0.011 -0.001,-0.019 0,-0.03 v -0.01 h 0.01 v -0.01 -0.01 -0.01 -0.01 -0.01 -0.01 h 0.01 v -0.01 c -0,-0.004 0.001,-0.014 0,-0.02 v -0.01 -0.01 -0.01 -0.01 l 0.01,-0.01 v -0.01 -0.01 l 0.01,-0.01 v -0.01 -0.01 l -0.01,-0.01 v -0.01 -0.01 c -0,-0.005 0,-0.015 0,-0.02 v -0.01 h 0.01 v -0.01 -0.01 h 0.01 v -0.01 c 0,-0.007 -0,-0.013 0,-0.02 v -0.01 -0.01 h 0.01 v -0.01 -0.01 -0.01 -0.03 -0.01 -0.01 -0.01 -0.01 l 0.01,-0.01 v -0.01 -0.01 l -0.01,-0.01 c -0.001,-0.005 0,-0.026 0,-0.03 0,-0.004 0,-0.015 0,-0.02 v -0.01 l 0.01,-0.01 v -0.01 l 0.01,-0.01 v -0.01 -0.01 -0.01 l 0.01,-0.01 v -0.01 -0.01 -0.01 -0.01 -0.01 -0.01 -0.01 -0.01 l 0.01,-0.01 v -0.01 c 0,-0.006 -0,-0.015 0,-0.02 v -0.01 h -0.01 v -0.01 l 0.01,-0.01 v -0.01 l 0.01,-0.01 v -0.01 -0.01 l 0.01,-0.01 v -0.01 -0.01 h -0.01 v -0.01 -0.01 l 0.01,-0.01 v -0.01 -0.01 -0.01 h -0.01 v -0.01 l -0.01,-0.01 v -0.01 -0.01 l -0.01,-0.01 v -0.01 -0.01 -0.01 h 0.01 v -0.01 h 0.01 0.01 v -0.01 -0.01 h -0.01 v -0.01 l -0.01,-0.01 v -0.01 -0.01 -0.01 -0.01 -0.01 l -0.01,-0.01 c -0.002,-0.007 -0.008,-0.024 -0.01,-0.03 v -0.01 c -0.003,-0.004 -0.007,-0.017 -0.01,-0.02 h -0.01 v -0.01 h -0.01 v -0.01 h -0.01 v -0.01 h -0.01 -0.01 c -0.011,-0.001 -0.019,0.001 -0.03,0 h -0.01 -0.01 z m 2.961,3.789 h 0.01 0.01 v 0.01 h -0.01 -0.01 z m 0.051,0.091 v 0.01 h 0.01 v -0.01 z"/></svg>