<svg viewBox="0 0 24 24" xmlns="http://www.w3.org/2000/svg"><path d="M 11.737565,1.1878296 A 4.3038928,4.233139 0 0 0 8.3100734,3.2929774 L 0.57713349,16.458701 a 4.3038928,4.233139 0 0 0 3.72561261,6.350596 l 13.8543239,0.0038 a 4.5682734,4.5682735 0 0 1 -3.040302,-4.305499 4.5682734,4.5682735 0 0 1 4.568422,-4.568417 4.5682734,4.5682735 0 0 1 2.965772,1.094056 L 15.764576,3.294852 A 4.3038928,4.233139 0 0 0 11.737565,1.1878296 Z m 0.262488,7.9373065 c 2.383079,-3.8e-6 4.314833,1.9317509 4.314829,4.3148259 4e-6,2.383079 -1.93175,4.314829 -4.314829,4.314826 -2.3830757,7e-6 -4.3148338,-1.931747 -4.3148262,-4.314826 -7.6e-6,-2.383075 1.9317505,-4.3148297 4.3148262,-4.3148259 z m 7.685129,5.0676359 a 4.3149283,4.3149283 0 0 0 -4.31483,4.314826 4.3149283,4.3149283 0 0 0 4.31483,4.314822 4.3149283,4.3149283 0 0 0 4.314826,-4.314822 4.3149283,4.3149283 0 0 0 -4.314826,-4.314826 z"/></svg>